<svg width="16" height="16" viewBox="0 0 16 16" fill="none" xmlns="http://www.w3.org/2000/svg">
<g id="alarm" clip-path="url(#clip0_51_4518)">
<path id="Vector" d="M7.97865 15.2074C6.31436 15.2083 4.70102 14.6333 3.41236 13.5802C2.1237 12.527 1.23908 11.0604 0.908612 9.42925C0.578142 7.7981 0.822169 6.10286 1.59929 4.63115C2.37641 3.15943 3.63876 2.0019 5.17215 1.35495C6.71277 0.697663 8.43429 0.597816 10.0406 1.07259C11.6469 1.54735 13.0375 2.56706 13.9732 3.95628C14.9089 5.3455 15.3313 7.0174 15.1676 8.68435C15.0039 10.3513 14.2644 11.9091 13.0763 13.0898C11.7246 14.4425 9.89096 15.2029 7.97865 15.2037V15.2074ZM7.97865 2.23227C6.83792 2.23209 5.72276 2.5702 4.77421 3.20384C3.82565 3.83748 3.08631 4.73818 2.64969 5.79204C2.21306 6.8459 2.09878 8.00558 2.32128 9.12439C2.54378 10.2432 3.09307 11.2709 3.89969 12.0775C4.7063 12.8841 5.73401 13.4334 6.85282 13.6559C7.97164 13.8784 9.13131 13.7642 10.1852 13.3275C11.239 12.8909 12.1397 12.1516 12.7734 11.203C13.407 10.2545 13.7451 9.13929 13.7449 7.99857C13.743 6.46985 13.1348 5.0043 12.0539 3.92334C10.9729 2.84237 9.50737 2.23422 7.97865 2.23227ZM10.4767 8.72074H7.98327C7.79633 8.71405 7.61927 8.63509 7.48939 8.50047C7.3595 8.36585 7.28692 8.18609 7.28692 7.99903C7.28692 7.81197 7.3595 7.6322 7.48939 7.49759C7.61927 7.36297 7.79633 7.28401 7.98327 7.27732H10.4813C10.5783 7.27385 10.6749 7.28995 10.7655 7.32466C10.8561 7.35936 10.9388 7.41197 11.0086 7.47933C11.0784 7.54669 11.1339 7.62742 11.1718 7.71671C11.2098 7.806 11.2293 7.90202 11.2293 7.99903C11.2293 8.09604 11.2098 8.19206 11.1718 8.28135C11.1339 8.37064 11.0784 8.45137 11.0086 8.51873C10.9388 8.58609 10.8561 8.63869 10.7655 8.6734C10.6749 8.70811 10.5783 8.72421 10.4813 8.72074H10.4767ZM7.98327 8.72074C7.7919 8.72049 7.60845 8.6443 7.47321 8.50889C7.33798 8.37349 7.26202 8.18994 7.26202 7.99857V4.11989C7.26871 3.93295 7.34767 3.7559 7.48229 3.62601C7.6169 3.49612 7.79667 3.42354 7.98373 3.42354C8.17079 3.42354 8.35055 3.49612 8.48517 3.62601C8.61979 3.7559 8.69875 3.93295 8.70544 4.11989V7.99857C8.70532 8.09372 8.6864 8.1879 8.64976 8.27572C8.61313 8.36353 8.5595 8.44324 8.49196 8.51026C8.42443 8.57728 8.34431 8.6303 8.25622 8.66626C8.16813 8.70222 8.0738 8.72042 7.97865 8.71982L7.98327 8.72074ZM15.2789 3.83638C15.0978 3.83651 14.9233 3.76823 14.7903 3.64521L12.2046 1.26722C12.1314 1.20404 12.0716 1.12678 12.0289 1.04005C11.9862 0.953325 11.9613 0.858887 11.9558 0.762356C11.9503 0.665824 11.9642 0.56917 11.9968 0.47814C12.0294 0.38711 12.08 0.303562 12.1455 0.232462C12.211 0.161363 12.2902 0.104165 12.3782 0.0642671C12.4663 0.0243697 12.5615 0.00258805 12.6582 0.000216925C12.7548 -0.0021542 12.851 0.0149337 12.9409 0.0504648C13.0308 0.0859958 13.1127 0.139245 13.1816 0.207045L15.7674 2.58597C15.8742 2.6842 15.9488 2.8124 15.9815 2.95375C16.0142 3.09511 16.0034 3.24304 15.9506 3.37818C15.8978 3.51332 15.8054 3.62937 15.6856 3.71113C15.5657 3.79288 15.424 3.83654 15.2789 3.83638ZM0.730145 3.83638C0.584038 3.83818 0.44083 3.79556 0.319481 3.71417C0.198133 3.63277 0.104368 3.51644 0.0506025 3.38058C-0.00316331 3.24471 -0.0143945 3.09572 0.0183963 2.95333C0.051187 2.81094 0.126453 2.68186 0.234228 2.5832L2.82001 0.200581C2.88987 0.136608 2.97164 0.0870211 3.06066 0.0546503C3.14967 0.0222794 3.2442 0.00775916 3.33883 0.0119183C3.43346 0.0160773 3.52634 0.0388345 3.61218 0.0788903C3.69801 0.118946 3.77512 0.175516 3.83909 0.245371C3.90306 0.315225 3.95265 0.396996 3.98502 0.486014C4.01739 0.575032 4.03191 0.669555 4.02775 0.764185C4.02359 0.858815 4.00083 0.951699 3.96078 1.03753C3.92072 1.12337 3.86415 1.20047 3.7943 1.26445L1.20851 3.64521C1.07586 3.76679 0.90269 3.83461 0.722757 3.83545L0.730145 3.83638Z" fill="#D3FB8F"/>
</g>
<defs>
<clipPath id="clip0_51_4518">
<rect width="16" height="16" fill="white"/>
</clipPath>
</defs>
</svg>
