<svg width="19" height="19" viewBox="0 0 19 19" fill="none" xmlns="http://www.w3.org/2000/svg">
<g id="alarm" clip-path="url(#clip0_463_54672)">
<path id="Vector" d="M5.66748 2.37007C4.48295 2.37007 3.49529 2.67523 2.82045 3.35007C2.14451 4.02601 1.83936 5.01257 1.83936 6.19819C1.83936 6.34323 1.89697 6.48233 1.99953 6.58489C2.10209 6.68745 2.24119 6.74507 2.38623 6.74507C2.53127 6.74507 2.67037 6.68745 2.77293 6.58489C2.87549 6.48233 2.93311 6.34323 2.93311 6.19819C2.93311 5.19522 3.17482 4.54226 3.59373 4.12335C4.01154 3.70554 4.66561 3.46382 5.66748 3.46382C5.81252 3.46382 5.95162 3.4062 6.05418 3.30364C6.15674 3.20108 6.21435 3.06198 6.21435 2.91694C6.21435 2.7719 6.15674 2.6328 6.05418 2.53024C5.95162 2.42769 5.81252 2.37007 5.66748 2.37007ZM14.3704 2.37007C14.2986 2.37366 14.2282 2.39136 14.1632 2.42216C14.0983 2.45296 14.04 2.49626 13.9918 2.54958C13.9435 2.6029 13.9062 2.6652 13.8821 2.73293C13.8579 2.80065 13.8473 2.87247 13.8509 2.94429C13.8545 3.0161 13.8722 3.08651 13.903 3.15149C13.9338 3.21646 13.9771 3.27473 14.0304 3.32298C14.0837 3.37122 14.1461 3.40849 14.2138 3.43265C14.2815 3.45682 14.3533 3.46741 14.4251 3.46382C15.4292 3.46382 16.0822 3.70554 16.5 4.12335C16.9189 4.54226 17.1606 5.19522 17.1606 6.19819C17.1606 6.27001 17.1748 6.34112 17.2022 6.40747C17.2297 6.47382 17.27 6.53411 17.3208 6.58489C17.3716 6.63567 17.4319 6.67596 17.4982 6.70344C17.5646 6.73092 17.6357 6.74507 17.7075 6.74507C17.7793 6.74507 17.8504 6.73092 17.9168 6.70344C17.9831 6.67596 18.0434 6.63567 18.0942 6.58489C18.145 6.53411 18.1852 6.47382 18.2127 6.40747C18.2402 6.34112 18.2544 6.27001 18.2544 6.19819C18.2544 5.01366 17.9492 4.02601 17.2733 3.35007C16.5984 2.67523 15.6108 2.37007 14.4262 2.37007C14.408 2.36916 14.3898 2.36916 14.3715 2.37007H14.3704ZM10.0425 2.91476C8.15767 2.91707 6.35072 3.66684 5.01795 4.9996C3.68519 6.33237 2.93542 8.13932 2.93311 10.0241C2.93311 11.9273 3.68889 13.6532 4.9117 14.9307L3.09389 16.7485C3.04165 16.799 2.99999 16.8593 2.97133 16.926C2.94267 16.9927 2.92758 17.0645 2.92695 17.1371C2.92632 17.2097 2.94016 17.2817 2.96766 17.3489C2.99515 17.4162 3.03576 17.4772 3.08711 17.5286C3.13846 17.5799 3.19952 17.6205 3.26672 17.648C3.33393 17.6755 3.40595 17.6894 3.47856 17.6887C3.55117 17.6881 3.62293 17.673 3.68965 17.6443C3.75638 17.6157 3.81672 17.574 3.86717 17.5218L5.72654 15.6624C6.96342 16.6164 8.48153 17.1337 10.0436 17.1335C11.6667 17.1335 13.1608 16.5812 14.3584 15.6613L16.22 17.5218C16.2704 17.574 16.3308 17.6157 16.3975 17.6443C16.4642 17.673 16.536 17.6881 16.6086 17.6887C16.6812 17.6894 16.7532 17.6755 16.8204 17.648C16.8876 17.6205 16.9487 17.5799 17 17.5286C17.0514 17.4772 17.092 17.4162 17.1195 17.3489C17.147 17.2817 17.1608 17.2097 17.1602 17.1371C17.1596 17.0645 17.1445 16.9927 17.1158 16.926C17.0872 16.8593 17.0455 16.799 16.9933 16.7485L15.1754 14.9307C16.4432 13.6119 17.1512 11.8535 17.1508 10.0241C17.1508 6.10413 13.9614 2.91476 10.0414 2.91476H10.0425ZM10.0425 4.00851C13.3719 4.00851 16.0581 6.69585 16.0581 10.0241C16.0581 13.3524 13.3719 16.0398 10.0425 16.0398C9.25217 16.0409 8.46941 15.8861 7.73904 15.5842C7.00867 15.2823 6.34505 14.8392 5.78622 14.2804C5.22739 13.7216 4.78433 13.0579 4.48242 12.3276C4.18052 11.5972 4.0257 10.8144 4.02686 10.0241C4.02686 6.69585 6.7142 4.00851 10.0425 4.00851ZM10.0337 5.10226C9.96191 5.1034 9.89102 5.11867 9.82511 5.14721C9.75919 5.17576 9.69954 5.217 9.64957 5.2686C9.5996 5.3202 9.56028 5.38113 9.53387 5.44792C9.50745 5.51472 9.49445 5.58606 9.49561 5.65788V10.0241C9.49561 10.1692 9.55322 10.3083 9.65578 10.4108C9.75834 10.5134 9.89744 10.571 10.0425 10.571H14.0019C14.1469 10.571 14.286 10.5134 14.3886 10.4108C14.4911 10.3083 14.5487 10.1692 14.5487 10.0241C14.5487 9.87909 14.4911 9.73999 14.3886 9.63743C14.286 9.53487 14.1469 9.47726 14.0019 9.47726H10.5894V5.65788C10.5905 5.58459 10.577 5.51181 10.5495 5.44386C10.522 5.37592 10.4811 5.31419 10.4293 5.26236C10.3774 5.21053 10.3157 5.16965 10.2478 5.14214C10.1798 5.11464 10.107 5.10107 10.0337 5.10226Z" fill="#D3FB8F"/>
</g>
<defs>
<clipPath id="clip0_463_54672">
<rect width="17.5" height="17.5" fill="white" transform="translate(0.75 0.727295)"/>
</clipPath>
</defs>
</svg>
