<svg width="16" height="15" viewBox="0 0 16 15" fill="none" xmlns="http://www.w3.org/2000/svg">
<g id="alarm" clip-path="url(#clip0_463_55410)">
<path id="Vector" d="M4.90445 1.32697C3.94771 1.32697 3.14999 1.57344 2.60492 2.11851C2.05897 2.66446 1.8125 3.4613 1.8125 4.41892C1.8125 4.53606 1.85904 4.64841 1.94187 4.73125C2.02471 4.81409 2.13706 4.86062 2.25421 4.86062C2.37135 4.86062 2.4837 4.81409 2.56654 4.73125C2.64938 4.64841 2.69591 4.53606 2.69591 4.41892C2.69591 3.60883 2.89115 3.08143 3.2295 2.74308C3.56696 2.40562 4.09524 2.21038 4.90445 2.21038C5.02159 2.21038 5.13394 2.16385 5.21678 2.08101C5.29962 1.99817 5.34615 1.88582 5.34615 1.76868C5.34615 1.65153 5.29962 1.53918 5.21678 1.45634C5.13394 1.37351 5.02159 1.32697 4.90445 1.32697ZM11.9338 1.32697C11.8758 1.32987 11.8189 1.34417 11.7664 1.36904C11.7139 1.39392 11.6669 1.42889 11.6279 1.47196C11.5889 1.51503 11.5588 1.56535 11.5393 1.62005C11.5198 1.67475 11.5112 1.73275 11.5141 1.79076C11.517 1.84877 11.5313 1.90563 11.5562 1.95811C11.5811 2.01059 11.6161 2.05766 11.6591 2.09663C11.7022 2.13559 11.7525 2.16569 11.8072 2.18521C11.8619 2.20473 11.9199 2.21328 11.9779 2.21038C12.7889 2.21038 13.3163 2.40562 13.6538 2.74308C13.9921 3.08143 14.1874 3.60883 14.1874 4.41892C14.1874 4.47692 14.1988 4.53436 14.221 4.58795C14.2432 4.64154 14.2757 4.69023 14.3167 4.73125C14.3577 4.77227 14.4064 4.8048 14.46 4.827C14.5136 4.8492 14.5711 4.86062 14.6291 4.86062C14.6871 4.86062 14.7445 4.8492 14.7981 4.827C14.8517 4.8048 14.9004 4.77227 14.9414 4.73125C14.9824 4.69023 15.0149 4.64154 15.0371 4.58795C15.0593 4.53436 15.0708 4.47692 15.0708 4.41892C15.0708 3.46218 14.8243 2.66446 14.2783 2.11851C13.7333 1.57344 12.9356 1.32697 11.9788 1.32697C11.9641 1.32623 11.9494 1.32623 11.9347 1.32697H11.9338ZM8.4381 1.76691C6.91575 1.76878 5.45629 2.37436 4.37983 3.45082C3.30336 4.52729 2.69778 5.98675 2.69591 7.5091C2.69591 9.04624 3.30635 10.4403 4.29401 11.4721L2.82578 12.9403C2.78359 12.9811 2.74994 13.0298 2.72679 13.0837C2.70364 13.1376 2.69145 13.1955 2.69094 13.2542C2.69043 13.3128 2.70161 13.371 2.72382 13.4253C2.74603 13.4796 2.77883 13.5289 2.8203 13.5704C2.86177 13.6118 2.91109 13.6446 2.96537 13.6669C3.01966 13.6891 3.07782 13.7002 3.13647 13.6997C3.19512 13.6992 3.25308 13.687 3.30697 13.6639C3.36086 13.6407 3.4096 13.6071 3.45035 13.5649L4.95215 12.0631C5.95116 12.8336 7.17733 13.2515 8.43898 13.2513C9.74997 13.2513 10.9567 12.8052 11.9241 12.0622L13.4276 13.5649C13.4684 13.6071 13.5171 13.6407 13.571 13.6639C13.6249 13.687 13.6828 13.6992 13.7415 13.6997C13.8001 13.7002 13.8583 13.6891 13.9126 13.6669C13.9669 13.6446 14.0162 13.6118 14.0577 13.5704C14.0991 13.5289 14.1319 13.4796 14.1541 13.4253C14.1764 13.371 14.1875 13.3128 14.187 13.2542C14.1865 13.1955 14.1743 13.1376 14.1512 13.0837C14.128 13.0298 14.0944 12.9811 14.0522 12.9403L12.584 11.4721C13.6079 10.4069 14.1797 8.98664 14.1794 7.5091C14.1794 4.34294 11.6034 1.76691 8.43722 1.76691H8.4381ZM8.4381 2.65032C11.1272 2.65032 13.2969 4.82087 13.2969 7.5091C13.2969 10.1973 11.1272 12.3679 8.4381 12.3679C7.79978 12.3688 7.16754 12.2438 6.57763 11.9999C5.98771 11.7561 5.45172 11.3982 5.00035 10.9468C4.54899 10.4955 4.19113 9.95948 3.94728 9.36957C3.70344 8.77966 3.5784 8.14742 3.57933 7.5091C3.57933 4.82087 5.74987 2.65032 8.4381 2.65032ZM8.43103 3.53374C8.37303 3.53466 8.31577 3.547 8.26253 3.57005C8.20929 3.5931 8.16111 3.62642 8.12075 3.66809C8.08039 3.70976 8.04863 3.75898 8.0273 3.81293C8.00596 3.86688 7.99546 3.9245 7.99639 3.98251V7.5091C7.99639 7.62624 8.04293 7.73859 8.12577 7.82143C8.2086 7.90427 8.32095 7.9508 8.4381 7.9508H11.6361C11.7532 7.9508 11.8656 7.90427 11.9484 7.82143C12.0312 7.73859 12.0778 7.62624 12.0778 7.5091C12.0778 7.39195 12.0312 7.2796 11.9484 7.19676C11.8656 7.11393 11.7532 7.06739 11.6361 7.06739H8.87981V3.98251C8.88076 3.92331 8.86981 3.86453 8.84759 3.80965C8.82538 3.75477 8.79236 3.70491 8.75049 3.66305C8.70863 3.62119 8.65877 3.58817 8.6039 3.56595C8.54902 3.54374 8.49023 3.53278 8.43103 3.53374Z" fill="#101334"/>
</g>
<defs>
<clipPath id="clip0_463_55410">
<rect width="14.1346" height="14.1346" fill="white" transform="translate(0.932617)"/>
</clipPath>
</defs>
</svg>
