<svg width="32" height="32" viewBox="0 0 32 32" fill="none" xmlns="http://www.w3.org/2000/svg">
<path d="M20.7328 5.10366C21.3376 4.40655 21.7988 3.59683 22.0898 2.721C22.3808 1.84516 22.496 0.920463 22.4286 0C20.5718 0.149889 18.8481 1.02322 17.629 2.43184C17.0452 3.10695 16.6028 3.89235 16.3279 4.74152C16.0531 5.59068 15.9515 6.48636 16.0291 7.37551C16.9348 7.38306 17.8302 7.18208 18.6459 6.78812C19.4615 6.39417 20.1756 5.81781 20.7328 5.10366ZM24.7645 17.0069C24.7752 15.7809 25.0981 14.5779 25.7028 13.5114C26.3074 12.4449 27.1738 11.55 28.2203 10.9113C27.5599 9.95972 26.6868 9.17512 25.6704 8.61971C24.654 8.06429 23.5222 7.75333 22.3646 7.71149C19.8688 7.4555 17.565 9.16739 16.2371 9.16739C14.9091 9.16739 13.0373 7.74349 10.9574 7.77548C9.5977 7.82027 8.27282 8.2167 7.11198 8.92611C5.95114 9.63551 4.99398 10.6337 4.33385 11.8232C1.51804 16.7189 3.6139 23.9984 6.42971 27.9501C7.70962 29.886 9.30952 32.0779 11.4214 31.9979C13.5332 31.9179 14.2212 30.686 16.669 30.686C19.1169 30.686 19.8688 31.9979 21.9487 31.9499C24.0285 31.9019 25.5004 29.966 26.8444 28.0301C27.7964 26.6247 28.54 25.0889 29.0522 23.4704C27.7843 22.9297 26.7025 22.0294 25.9405 20.8807C25.1785 19.732 24.7696 18.3853 24.7645 17.0069Z" fill="black"/>
</svg>
