<svg width="19" height="19" viewBox="0 0 19 19" fill="none" xmlns="http://www.w3.org/2000/svg">
<g id="bed">
<path id="Vector" d="M5.854 10.0692C6.28665 10.0692 6.70958 9.94088 7.06931 9.70051C7.42905 9.46015 7.70942 9.11851 7.87499 8.71879C8.04056 8.31908 8.08388 7.87925 7.99947 7.45491C7.91507 7.03058 7.70673 6.6408 7.4008 6.33488C7.09487 6.02895 6.7051 5.82061 6.28076 5.73621C5.85643 5.6518 5.4166 5.69512 5.01688 5.86069C4.61717 6.02625 4.27553 6.30663 4.03516 6.66636C3.7948 7.0261 3.6665 7.44903 3.6665 7.88167C3.6665 8.46183 3.89697 9.01823 4.30721 9.42847C4.71744 9.83871 5.27384 10.0692 5.854 10.0692ZM5.854 7.15251C5.99822 7.15251 6.1392 7.19527 6.25911 7.27539C6.37902 7.35552 6.47248 7.46939 6.52767 7.60263C6.58285 7.73587 6.59729 7.88248 6.56916 8.02393C6.54102 8.16537 6.47158 8.2953 6.3696 8.39727C6.26763 8.49925 6.1377 8.56869 5.99626 8.59683C5.85481 8.62496 5.7082 8.61052 5.57496 8.55534C5.44173 8.50015 5.32785 8.40669 5.24772 8.28678C5.1676 8.16687 5.12484 8.02589 5.12484 7.88167C5.12484 7.68829 5.20166 7.50282 5.33841 7.36607C5.47515 7.22933 5.66062 7.15251 5.854 7.15251ZM15.3332 5.69417H9.49984C9.30645 5.69417 9.12098 5.771 8.98424 5.90774C8.84749 6.04449 8.77067 6.22995 8.77067 6.42334V10.7983H2.93734V4.96501C2.93734 4.77162 2.86051 4.58615 2.72377 4.44941C2.58702 4.31266 2.40156 4.23584 2.20817 4.23584C2.01478 4.23584 1.82932 4.31266 1.69257 4.44941C1.55583 4.58615 1.479 4.77162 1.479 4.96501V14.4442C1.479 14.6376 1.55583 14.823 1.69257 14.9598C1.82932 15.0965 2.01478 15.1733 2.20817 15.1733C2.40156 15.1733 2.58702 15.0965 2.72377 14.9598C2.86051 14.823 2.93734 14.6376 2.93734 14.4442V12.2567H16.0623V14.4442C16.0623 14.6376 16.1392 14.823 16.2759 14.9598C16.4126 15.0965 16.5981 15.1733 16.7915 15.1733C16.9849 15.1733 17.1704 15.0965 17.3071 14.9598C17.4438 14.823 17.5207 14.6376 17.5207 14.4442V7.88167C17.5207 7.30151 17.2902 6.74511 16.88 6.33488C16.4697 5.92464 15.9133 5.69417 15.3332 5.69417ZM16.0623 10.7983H10.229V7.15251H15.3332C15.5266 7.15251 15.712 7.22933 15.8488 7.36607C15.9855 7.50282 16.0623 7.68829 16.0623 7.88167V10.7983Z" fill="#D3FB8F"/>
</g>
</svg>
