<svg width="15" height="15" viewBox="0 0 15 15" fill="none" xmlns="http://www.w3.org/2000/svg">
<g id="bed">
<path id="Vector" d="M4.12228 7.36168C4.47172 7.36168 4.81332 7.25806 5.10387 7.06392C5.39443 6.86978 5.62089 6.59384 5.75461 6.27099C5.88834 5.94815 5.92333 5.5929 5.85515 5.25017C5.78698 4.90744 5.61871 4.59262 5.37161 4.34552C5.12452 4.09843 4.8097 3.93015 4.46697 3.86198C4.12424 3.79381 3.76899 3.8288 3.44614 3.96252C3.1233 4.09625 2.84736 4.32271 2.65321 4.61326C2.45907 4.90381 2.35545 5.24541 2.35545 5.59486C2.35545 6.06345 2.5416 6.51285 2.87294 6.84419C3.20429 7.17554 3.65369 7.36168 4.12228 7.36168ZM4.12228 5.00592C4.23876 5.00592 4.35262 5.04046 4.44948 5.10517C4.54633 5.16988 4.62181 5.26186 4.66639 5.36948C4.71096 5.47709 4.72263 5.59551 4.6999 5.70975C4.67718 5.824 4.62109 5.92894 4.53872 6.0113C4.45636 6.09367 4.35142 6.14976 4.23717 6.17248C4.12293 6.19521 4.00451 6.18355 3.8969 6.13897C3.78928 6.09439 3.6973 6.01891 3.63259 5.92206C3.56788 5.82521 3.53333 5.71134 3.53333 5.59486C3.53333 5.43866 3.59538 5.28886 3.70583 5.17841C3.81628 5.06796 3.96608 5.00592 4.12228 5.00592ZM11.7785 3.82803H7.06699C6.91079 3.82803 6.76099 3.89008 6.65054 4.00053C6.5401 4.11098 6.47805 4.26078 6.47805 4.41697V7.95063H1.76651V3.23909C1.76651 3.08289 1.70446 2.93309 1.59401 2.82264C1.48356 2.7122 1.33376 2.65015 1.17757 2.65015C1.02137 2.65015 0.871568 2.7122 0.76112 2.82264C0.650672 2.93309 0.588623 3.08289 0.588623 3.23909V10.8953C0.588623 11.0515 0.650672 11.2013 0.76112 11.3118C0.871568 11.4222 1.02137 11.4843 1.17757 11.4843C1.33376 11.4843 1.48356 11.4222 1.59401 11.3118C1.70446 11.2013 1.76651 11.0515 1.76651 10.8953V9.12851H12.3675V10.8953C12.3675 11.0515 12.4295 11.2013 12.54 11.3118C12.6504 11.4222 12.8002 11.4843 12.9564 11.4843C13.1126 11.4843 13.2624 11.4222 13.3729 11.3118C13.4833 11.2013 13.5454 11.0515 13.5454 10.8953V5.59486C13.5454 5.12627 13.3592 4.67687 13.0279 4.34552C12.6965 4.01418 12.2471 3.82803 11.7785 3.82803ZM12.3675 7.95063H7.65593V5.00592H11.7785C11.9347 5.00592 12.0845 5.06796 12.195 5.17841C12.3054 5.28886 12.3675 5.43866 12.3675 5.59486V7.95063Z" fill="#101334"/>
</g>
</svg>
