<svg width="16" height="16" viewBox="0 0 16 16" fill="none" xmlns="http://www.w3.org/2000/svg">
<g id="bed">
<path id="Vector" d="M14.3718 9.1092C14.0246 9.1092 13.7437 9.35245 13.7437 9.65307V10.1454H7.27128C7.27416 10.1142 7.28213 10.0843 7.28213 10.0525V9.25313C7.28213 8.60251 6.67054 8.07298 5.91879 8.07298H2.2563V6.54387C2.2563 6.24325 1.97505 6 1.62815 6C1.28126 6 1 6.24325 1 6.54387V15.4561C1 15.7567 1.28126 16 1.62815 16C1.97505 16 2.2563 15.7567 2.2563 15.4561V14.9638H13.7437V15.4561C13.7437 15.7567 14.0246 16 14.3718 16C14.719 16 15 15.7567 15 15.4561V9.65307C15 9.35245 14.719 9.1092 14.3718 9.1092ZM5.91879 9.16072C5.97768 9.16072 6.02583 9.20215 6.02583 9.25313V10.0525C6.02583 10.1035 5.97768 10.1454 5.91879 10.1454H2.2563V9.16072H5.91879ZM2.2563 13.876V11.2332H13.7437V13.876H2.2563Z" fill="#D3FB8F"/>
<g id="Group 7216">
<path id="Vector_2" d="M8.08179 7.16357C9.78101 7.16357 11.1633 5.78076 11.1633 4.08154C11.1633 2.38232 9.78101 1 8.08179 1C6.38257 1 5 2.38232 5 4.08154C5 5.78076 6.38257 7.16357 8.08179 7.16357ZM8.08179 2C9.22974 2 10.1633 2.93359 10.1633 4.08154C10.1633 5.22949 9.22974 6.16357 8.08179 6.16357C6.93384 6.16357 6 5.22949 6 4.08154C6 2.93359 6.93384 2 8.08179 2Z" fill="#D3FB8F"/>
<path id="Vector_3" d="M8.08179 4.58154H8.93579C9.21216 4.58154 9.43579 4.35791 9.43579 4.08154C9.43579 3.80518 9.21216 3.58154 8.93579 3.58154H8.58179V3.18994C8.58179 2.91357 8.35791 2.68994 8.08179 2.68994C7.80566 2.68994 7.58179 2.91357 7.58179 3.18994V4.08154C7.58179 4.35791 7.80566 4.58154 8.08179 4.58154Z" fill="#D3FB8F"/>
</g>
</g>
</svg>
