<svg width="32" height="32" viewBox="0 0 32 32" fill="none" xmlns="http://www.w3.org/2000/svg">
<g id="briefcase">
<path id="Vector" d="M3.67857 29H28.3214C29.7979 29 31 27.7845 31 26.2917V10.0417C31 8.54883 29.7979 7.33333 28.3214 7.33333H22.8464L22.2829 5.05184C22.1385 4.46541 21.8041 3.94473 21.333 3.57285C20.8619 3.20097 20.2812 2.9993 19.6836 3H12.3154C11.7178 2.99935 11.1373 3.20106 10.6664 3.57296C10.1954 3.94485 9.86126 4.4655 9.71714 5.05184L9.15357 7.33333H3.67857C2.96843 7.3342 2.28762 7.61981 1.78547 8.12754C1.28333 8.63526 1.00085 9.32364 1 10.0417V26.2917C1 27.7845 2.20214 29 3.67857 29ZM28.3214 27.9167H3.67857C2.7925 27.9167 2.07143 27.1876 2.07143 26.2917V15.1008L13.3214 18.4711V21.9583C13.3214 22.102 13.3779 22.2398 13.4783 22.3414C13.5788 22.4429 13.7151 22.5 13.8571 22.5H18.1429C18.2849 22.5 18.4212 22.4429 18.5217 22.3414C18.6221 22.2398 18.6786 22.102 18.6786 21.9583V18.4711L29.9286 15.1008V26.2917C29.9286 27.1876 29.2075 27.9167 28.3214 27.9167ZM16 20.3333C15.8579 20.3333 15.7217 20.3904 15.6212 20.492C15.5207 20.5936 15.4643 20.7313 15.4643 20.875V21.4167H14.3929V19.25H17.6071V21.4167H16.5357V20.875C16.5357 20.7313 16.4793 20.5936 16.3788 20.492C16.2783 20.3904 16.1421 20.3333 16 20.3333ZM17.6071 18.0659V18.1667H14.3929V17.0833H17.6071V18.0659ZM10.7564 5.314C10.8431 4.96213 11.0438 4.64975 11.3266 4.42669C11.6093 4.20364 11.9578 4.08275 12.3164 4.08334H19.6846C20.0432 4.08313 20.3915 4.20416 20.6742 4.42716C20.9568 4.65015 21.1576 4.96232 21.2446 5.314L21.7429 7.33333H10.2571L10.7564 5.314ZM2.07143 10.0417C2.07143 9.14575 2.7925 8.41667 3.67857 8.41667H28.3214C29.2075 8.41667 29.9286 9.14575 29.9286 10.0417V13.9698L18.6786 17.3401V16.5417C18.6786 16.398 18.6221 16.2602 18.5217 16.1587C18.4212 16.0571 18.2849 16 18.1429 16H13.8571C13.7151 16 13.5788 16.0571 13.4783 16.1587C13.3779 16.2602 13.3214 16.398 13.3214 16.5417V17.3412L2.07143 13.9698V10.0417Z" fill="#101334"/>
</g>
</svg>
