<svg width="42" height="43" viewBox="0 0 42 43" fill="none" xmlns="http://www.w3.org/2000/svg">
<g id="businesswoman">
<path id="Vector" d="M31.8459 28.6154C32.2325 22.3806 32.218 16.1274 31.8026 9.89448C31.8028 8.91748 31.494 7.96544 30.9205 7.17449C30.347 6.38354 29.5381 5.79418 28.6094 5.49065C28.0188 4.3568 27.1282 3.40694 26.0346 2.74471C24.9411 2.08248 23.6867 1.73333 22.4082 1.73536H18.6653C16.3569 1.78851 14.1573 2.72756 12.5223 4.358C10.8872 5.98844 9.94199 8.18532 9.88234 10.4936C9.30779 16.5249 9.38441 22.6005 10.1109 28.6154H31.8459Z" fill="#101334"/>
<path id="Vector_2" d="M16.0588 26.9355L10.1974 28.492C7.86477 29.1034 5.80033 30.4701 4.32647 32.3786C2.85261 34.2871 2.05232 36.6301 2.0506 39.0414V41.265H39.9494V39.0414C39.9495 36.6341 39.1536 34.2943 37.6858 32.3863C36.2179 30.4783 34.1604 29.1092 31.8335 28.492L25.9721 26.9355" fill="#101334"/>
<path id="Vector_3" d="M15.8797 26.9355C15.8797 26.9355 10.5432 34.897 10.6482 34.86C10.7532 34.8229 14.1318 34.3473 14.1318 34.3473L20.6665 41.265L15.8797 26.9355ZM26.1203 26.9355C26.1203 26.9355 31.4568 34.897 31.3518 34.86C31.2468 34.8229 27.8682 34.3473 27.8682 34.3473L21.3335 41.265L26.1203 26.9355Z" fill="#EAE5DC"/>
<path id="Vector_4" d="M26.1327 26.9353L21.3335 41.2647H20.6665L15.8735 26.9353C16.0407 26.9377 16.2062 26.901 16.3567 26.8282C16.5072 26.7554 16.6387 26.6485 16.7406 26.516C16.8426 26.3834 16.9122 26.2289 16.944 26.0648C16.9757 25.9006 16.9687 25.7313 16.9235 25.5703C18.065 26.544 19.5008 27.1053 21 27.1638C22.5002 27.1101 23.9376 26.5482 25.0765 25.5703C25.0338 25.7317 25.0289 25.9007 25.062 26.0642C25.0952 26.2278 25.1655 26.3815 25.2677 26.5135C25.3698 26.6455 25.5009 26.7522 25.6509 26.8253C25.8009 26.8985 25.9658 26.9361 26.1327 26.9353Z" fill="#46487E"/>
<path id="Vector_5" d="M12.3591 18.6036C13.13 18.6036 13.755 17.5472 13.755 16.2442C13.755 14.9411 13.13 13.8848 12.3591 13.8848C11.5882 13.8848 10.9632 14.9411 10.9632 16.2442C10.9632 17.5472 11.5882 18.6036 12.3591 18.6036Z" fill="#46487E"/>
<path id="Vector_6" d="M29.9188 18.6036C30.6898 18.6036 31.3147 17.5472 31.3147 16.2442C31.3147 14.9411 30.6898 13.8848 29.9188 13.8848C29.1479 13.8848 28.5229 14.9411 28.5229 16.2442C28.5229 17.5472 29.1479 18.6036 29.9188 18.6036Z" fill="#46487E"/>
<path id="Vector_7" d="M29.9188 14.7549C29.9188 18.7388 27.9794 23.1982 25.1259 25.5329C23.9859 26.5459 22.5245 27.1234 21 27.1635C19.4958 27.1201 18.0532 26.557 16.9174 25.5699C14.0453 23.2476 12.0812 18.7758 12.0812 14.7549C12.0812 14.4585 12.0812 14.1373 12.1182 13.8717C13.4868 12.4744 15.1693 11.4242 17.0258 10.8086C18.8822 10.193 20.8589 10.0298 22.7912 10.3326C25.8794 10.7402 27.7324 10.5611 28.8874 10.209C29.5865 11.6212 29.94 13.1793 29.9188 14.7549Z" fill="#46487E"/>
</g>
</svg>
