<svg width="31" height="31" viewBox="0 0 31 31" fill="none" xmlns="http://www.w3.org/2000/svg">
<g id="Check">
<path id="Subtract" fill-rule="evenodd" clip-rule="evenodd" d="M15.2829 25.5C20.91 25.5 25.4716 21.0228 25.4716 15.5C25.4716 9.97715 20.91 5.5 15.2829 5.5C9.65587 5.5 5.09424 9.97715 5.09424 15.5C5.09424 21.0228 9.65587 25.5 15.2829 25.5ZM19.5217 14.7171C19.9423 14.3001 19.9423 13.624 19.5217 13.2069C19.1011 12.7899 18.4191 12.7899 17.9985 13.2069L14.818 16.3602C14.7441 16.4335 14.6243 16.4338 14.5499 16.3609L13.3944 15.2268C12.9717 14.8119 12.2897 14.8153 11.8712 15.2344C11.4528 15.6536 11.4562 16.3297 11.879 16.7446L13.0344 17.8787C13.9512 18.7785 15.429 18.7748 16.3412 17.8704L19.5217 14.7171Z" fill="#D3FB8F"/>
</g>
</svg>
