<svg width="32" height="32" viewBox="0 0 32 32" fill="none" xmlns="http://www.w3.org/2000/svg">
<g id="clock">
<path id="Vector" d="M16 18.0003H21.3334C21.687 18.0003 22.0261 17.8598 22.2762 17.6097C22.5262 17.3597 22.6667 17.0205 22.6667 16.6669C22.6667 16.3133 22.5262 15.9742 22.2762 15.7241C22.0261 15.4741 21.687 15.3336 21.3334 15.3336H17.3334V10.2669C17.3334 9.91331 17.1929 9.57417 16.9428 9.32412C16.6928 9.07407 16.3536 8.93359 16 8.93359C15.6464 8.93359 15.3073 9.07407 15.0572 9.32412C14.8072 9.57417 14.6667 9.91331 14.6667 10.2669V16.6669C14.6667 17.0205 14.8072 17.3597 15.0572 17.6097C15.3073 17.8598 15.6464 18.0003 16 18.0003Z" fill="#9799BF"/>
<path id="Vector_2" d="M3.05731 29.6089C3.30735 29.8588 3.64643 29.9992 3.99998 29.9992C4.35353 29.9992 4.69261 29.8588 4.94265 29.6089L8.51865 26.0329C10.6397 27.7372 13.2791 28.6662 16 28.6662C18.7209 28.6662 21.3603 27.7372 23.4813 26.0329L27.0573 29.6089C27.3088 29.8517 27.6456 29.9861 27.9952 29.9831C28.3448 29.9801 28.6792 29.8398 28.9264 29.5926C29.1736 29.3454 29.3138 29.011 29.3169 28.6614C29.3199 28.3118 29.1855 27.975 28.9426 27.7235L25.3666 24.1475C26.7799 22.3828 27.6659 20.2546 27.9225 18.0083C28.179 15.762 27.7958 13.4889 26.8169 11.4509C25.838 9.41292 24.3033 7.69291 22.3896 6.48906C20.4758 5.2852 18.2609 4.64648 16 4.64648C13.7391 4.64648 11.5242 5.2852 9.6104 6.48906C7.69665 7.69291 6.16193 9.41292 5.18304 11.4509C4.20415 13.4889 3.82092 15.762 4.07751 18.0083C4.33409 20.2546 5.22005 22.3828 6.63331 24.1475L3.05731 27.7235C2.80735 27.9736 2.66693 28.3126 2.66693 28.6662C2.66693 29.0197 2.80735 29.3588 3.05731 29.6089ZM16 7.33285C17.8459 7.33285 19.6504 7.88025 21.1853 8.90581C22.7202 9.93136 23.9164 11.389 24.6229 13.0945C25.3293 14.7999 25.5141 16.6765 25.154 18.487C24.7938 20.2975 23.9049 21.9606 22.5996 23.2659C21.2944 24.5711 19.6313 25.4601 17.8208 25.8202C16.0103 26.1803 14.1337 25.9955 12.4283 25.2891C10.7228 24.5826 9.26516 23.3864 8.2396 21.8515C7.21404 20.3167 6.66665 18.5121 6.66665 16.6662C6.66947 14.1917 7.65371 11.8194 9.40343 10.0696C11.1532 8.31992 13.5255 7.33568 16 7.33285Z" fill="#9799BF"/>
<path id="Vector_3" d="M3.99998 8.66688C4.35357 8.66681 4.69266 8.52628 4.94265 8.27622L8.94265 4.27622C9.18552 4.02475 9.31992 3.68794 9.31688 3.33835C9.31384 2.98875 9.17362 2.65434 8.92641 2.40713C8.67919 2.15991 8.34478 2.01969 7.99518 2.01665C7.64559 2.01361 7.30878 2.14801 7.05731 2.39088L3.05731 6.39088C2.8709 6.57735 2.74396 6.8149 2.69254 7.07351C2.64111 7.33211 2.66752 7.60016 2.76841 7.84376C2.8693 8.08736 3.04016 8.29557 3.25937 8.44209C3.47858 8.5886 3.73631 8.66683 3.99998 8.66688ZM28.9426 6.39088L24.9426 2.39088C24.6912 2.14801 24.3544 2.01361 24.0048 2.01665C23.6552 2.01969 23.3208 2.15991 23.0736 2.40713C22.8263 2.65434 22.6861 2.98875 22.6831 3.33835C22.68 3.68794 22.8144 4.02475 23.0573 4.27622L27.0573 8.27622C27.3088 8.51909 27.6456 8.65349 27.9952 8.65045C28.3448 8.64741 28.6792 8.50719 28.9264 8.25998C29.1736 8.01276 29.3138 7.67835 29.3169 7.32875C29.3199 6.97916 29.1855 6.64235 28.9426 6.39088Z" fill="#9799BF"/>
</g>
</svg>
