<svg width="172" height="178" viewBox="0 0 172 178" fill="none" xmlns="http://www.w3.org/2000/svg">
<rect width="172" height="172" rx="86" fill="#2A2C58"/>
<circle cx="86" cy="86" r="2.35156" transform="rotate(-90 86 86)" fill="#D3FB8F" stroke="#D3FB8F" stroke-width="0.671875"/>
<path d="M81.4272 14.0887V13.1965H83.4482V20.9688H82.4592V14.0887H81.4272ZM85.3462 20.184C86.2564 19.453 86.9695 18.8546 87.4855 18.3887C88.0015 17.9157 88.4351 17.4248 88.7862 16.916C89.1446 16.4 89.3237 15.8947 89.3237 15.4002C89.3237 14.9344 89.2091 14.5689 88.9797 14.3037C88.7576 14.0314 88.3956 13.8952 87.894 13.8952C87.4066 13.8952 87.0268 14.0493 86.7545 14.3575C86.4893 14.6585 86.346 15.0634 86.3245 15.5722H85.3785C85.4071 14.7696 85.6508 14.1497 86.1095 13.7125C86.5681 13.2753 87.1594 13.0567 87.8832 13.0567C88.6214 13.0567 89.2055 13.261 89.6355 13.6695C90.0726 14.078 90.2912 14.6406 90.2912 15.3572C90.2912 15.9521 90.1121 16.5326 89.7537 17.0987C89.4026 17.6577 89.0012 18.1522 88.5497 18.5822C88.0982 19.0051 87.5213 19.4996 86.819 20.0657H90.517V20.8827H85.3462V20.184Z" fill="white"/>
<path d="M22.0187 49.0262V48.134H24.0397V55.9062H23.0507V49.0262H22.0187ZM26.056 51.9395C26.056 50.7068 26.2567 49.7465 26.658 49.0585C27.0594 48.3633 27.7617 48.0157 28.765 48.0157C29.7612 48.0157 30.4599 48.3633 30.8613 49.0585C31.2626 49.7465 31.4633 50.7068 31.4633 51.9395C31.4633 53.1937 31.2626 54.1683 30.8613 54.8635C30.4599 55.5587 29.7612 55.9062 28.765 55.9062C27.7617 55.9062 27.0594 55.5587 26.658 54.8635C26.2567 54.1683 26.056 53.1937 26.056 51.9395ZM30.4958 51.9395C30.4958 51.316 30.4528 50.7892 30.3668 50.3592C30.2879 49.9221 30.1195 49.5709 29.8615 49.3057C29.6107 49.0406 29.2452 48.908 28.765 48.908C28.2777 48.908 27.905 49.0406 27.647 49.3057C27.3962 49.5709 27.2278 49.9221 27.1418 50.3592C27.0629 50.7892 27.0235 51.316 27.0235 51.9395C27.0235 52.5845 27.0629 53.1256 27.1418 53.5627C27.2278 53.9999 27.3962 54.3511 27.647 54.6162C27.905 54.8814 28.2777 55.014 28.765 55.014C29.2452 55.014 29.6107 54.8814 29.8615 54.6162C30.1195 54.3511 30.2879 53.9999 30.3668 53.5627C30.4528 53.1256 30.4958 52.5845 30.4958 51.9395Z" fill="white"/>
<path d="M16.0074 87.4145C16.079 87.823 16.2439 88.1383 16.5019 88.3605C16.767 88.5827 17.1218 88.6937 17.5661 88.6937C18.161 88.6937 18.5981 88.4608 18.8776 87.995C19.1643 87.5292 19.3005 86.7444 19.2861 85.6407C19.1356 85.9632 18.8848 86.2177 18.5336 86.404C18.1825 86.5832 17.7919 86.6727 17.3619 86.6727C16.8817 86.6727 16.4517 86.576 16.0719 86.3825C15.6992 86.1818 15.4054 85.8916 15.1904 85.5117C14.9754 85.1319 14.8679 84.6732 14.8679 84.1357C14.8679 83.3689 15.09 82.7526 15.5344 82.2867C15.9787 81.8137 16.6094 81.5772 17.4264 81.5772C18.4297 81.5772 19.132 81.9033 19.5334 82.5555C19.9419 83.2077 20.1461 84.1787 20.1461 85.4687C20.1461 86.3717 20.0637 87.1171 19.8989 87.7047C19.7412 88.2924 19.4689 88.7403 19.0819 89.0485C18.702 89.3567 18.1789 89.5108 17.5124 89.5108C16.7814 89.5108 16.2116 89.3137 15.8031 88.9195C15.3946 88.5253 15.1617 88.0237 15.1044 87.4145H16.0074ZM17.5231 85.845C18.0033 85.845 18.3975 85.6981 18.7056 85.4042C19.0138 85.1032 19.1679 84.6983 19.1679 84.1895C19.1679 83.652 19.0174 83.2184 18.7164 82.8887C18.4154 82.5591 17.9925 82.3942 17.4479 82.3942C16.9462 82.3942 16.5449 82.5519 16.2439 82.8672C15.95 83.1826 15.8031 83.5982 15.8031 84.1142C15.8031 84.6374 15.95 85.0567 16.2439 85.372C16.5377 85.6873 16.9641 85.845 17.5231 85.845Z" fill="white"/>
<path d="M25.5696 119.052C25.1683 118.894 24.8601 118.665 24.6451 118.364C24.4301 118.063 24.3226 117.697 24.3226 117.267C24.3226 116.88 24.4194 116.533 24.6129 116.224C24.8064 115.909 25.093 115.662 25.4729 115.483C25.8599 115.296 26.3257 115.203 26.8704 115.203C27.415 115.203 27.8773 115.296 28.2571 115.483C28.6441 115.662 28.9344 115.909 29.1279 116.224C29.3285 116.533 29.4289 116.88 29.4289 117.267C29.4289 117.683 29.3178 118.048 29.0956 118.364C28.8735 118.672 28.5689 118.901 28.1819 119.052C28.6262 119.188 28.9774 119.428 29.2354 119.772C29.5005 120.109 29.6331 120.517 29.6331 120.997C29.6331 121.463 29.5185 121.872 29.2891 122.223C29.0598 122.567 28.7337 122.836 28.3109 123.029C27.8952 123.216 27.415 123.309 26.8704 123.309C26.3257 123.309 25.8455 123.216 25.4299 123.029C25.0214 122.836 24.7025 122.567 24.4731 122.223C24.2438 121.872 24.1291 121.463 24.1291 120.997C24.1291 120.517 24.2581 120.105 24.5161 119.761C24.7741 119.417 25.1253 119.181 25.5696 119.052ZM28.4829 117.385C28.4829 116.948 28.3395 116.611 28.0529 116.375C27.7662 116.138 27.372 116.02 26.8704 116.02C26.3759 116.02 25.9853 116.138 25.6986 116.375C25.412 116.611 25.2686 116.952 25.2686 117.396C25.2686 117.798 25.4155 118.12 25.7094 118.364C26.0104 118.607 26.3974 118.729 26.8704 118.729C27.3505 118.729 27.7375 118.607 28.0314 118.364C28.3324 118.113 28.4829 117.787 28.4829 117.385ZM26.8704 119.482C26.34 119.482 25.9065 119.607 25.5696 119.858C25.2328 120.102 25.0644 120.471 25.0644 120.965C25.0644 121.424 25.2256 121.793 25.5481 122.072C25.8778 122.352 26.3185 122.492 26.8704 122.492C27.4222 122.492 27.8594 122.352 28.1819 122.072C28.5044 121.793 28.6656 121.424 28.6656 120.965C28.6656 120.485 28.5008 120.12 28.1711 119.869C27.8415 119.611 27.4079 119.482 26.8704 119.482Z" fill="white"/>
<path d="M54.9223 141.616L51.9338 148.625H50.9448L53.9763 141.713H49.8268V140.874H54.9223V141.616Z" fill="white"/>
<path d="M87.5869 152.108C87.4292 151.312 86.9383 150.915 86.1141 150.915C85.4763 150.915 84.9997 151.162 84.6844 151.656C84.3691 152.144 84.215 152.95 84.2221 154.075C84.387 153.703 84.6593 153.412 85.0391 153.204C85.4261 152.989 85.8561 152.882 86.3291 152.882C87.0673 152.882 87.655 153.111 88.0921 153.57C88.5365 154.029 88.7586 154.663 88.7586 155.473C88.7586 155.96 88.6619 156.397 88.4684 156.784C88.2821 157.171 87.9954 157.479 87.6084 157.709C87.2286 157.938 86.7663 158.053 86.2216 158.053C85.4835 158.053 84.9066 157.888 84.4909 157.558C84.0752 157.229 83.785 156.773 83.6201 156.193C83.4553 155.612 83.3729 154.896 83.3729 154.043C83.3729 151.413 84.2902 150.098 86.1249 150.098C86.8272 150.098 87.3791 150.288 87.7804 150.667C88.1817 151.047 88.4182 151.527 88.4899 152.108H87.5869ZM86.1249 153.71C85.8167 153.71 85.5265 153.774 85.2541 153.903C84.9818 154.025 84.7596 154.215 84.5876 154.473C84.4228 154.724 84.3404 155.032 84.3404 155.397C84.3404 155.942 84.4981 156.386 84.8134 156.73C85.1287 157.067 85.5802 157.236 86.1679 157.236C86.6696 157.236 87.0673 157.082 87.3611 156.773C87.6621 156.458 87.8126 156.035 87.8126 155.505C87.8126 154.946 87.6693 154.509 87.3826 154.193C87.096 153.871 86.6767 153.71 86.1249 153.71Z" fill="white"/>
<path d="M121.841 141.702H118.068V144.153C118.232 143.924 118.476 143.737 118.799 143.594C119.121 143.443 119.469 143.368 119.841 143.368C120.436 143.368 120.92 143.494 121.293 143.744C121.665 143.988 121.93 144.307 122.088 144.701C122.253 145.088 122.335 145.5 122.335 145.938C122.335 146.453 122.239 146.916 122.045 147.324C121.852 147.733 121.554 148.055 121.153 148.292C120.759 148.528 120.268 148.647 119.68 148.647C118.928 148.647 118.318 148.453 117.853 148.066C117.387 147.679 117.104 147.163 117.003 146.518H117.96C118.053 146.926 118.25 147.245 118.551 147.475C118.852 147.704 119.232 147.819 119.691 147.819C120.257 147.819 120.683 147.65 120.97 147.313C121.257 146.969 121.4 146.518 121.4 145.959C121.4 145.4 121.257 144.97 120.97 144.669C120.683 144.361 120.261 144.207 119.702 144.207C119.322 144.207 118.989 144.3 118.702 144.486C118.422 144.665 118.218 144.913 118.089 145.228H117.165V140.842H121.841V141.702Z" fill="white"/>
<path d="M142.175 121.363V120.621L145.948 115.397H147.12V120.514H148.195V121.363H147.12V123.094H146.152V121.363H142.175ZM146.195 116.418L143.303 120.514H146.195V116.418Z" fill="white"/>
<path d="M152.011 83.6842C152.061 83.0249 152.316 82.5089 152.774 82.1362C153.233 81.7636 153.828 81.5772 154.559 81.5772C155.046 81.5772 155.465 81.6668 155.817 81.846C156.175 82.018 156.444 82.2545 156.623 82.5555C156.809 82.8565 156.902 83.1969 156.902 83.5768C156.902 84.0211 156.773 84.4045 156.515 84.727C156.265 85.0495 155.935 85.2573 155.526 85.3505V85.4042C155.992 85.5189 156.361 85.7447 156.634 86.0815C156.906 86.4183 157.042 86.8591 157.042 87.4037C157.042 87.8122 156.949 88.1813 156.763 88.511C156.576 88.8335 156.297 89.0879 155.924 89.2742C155.551 89.4606 155.104 89.5538 154.58 89.5538C153.821 89.5538 153.197 89.3567 152.71 88.9625C152.223 88.5612 151.95 87.995 151.893 87.264H152.839C152.889 87.694 153.065 88.0452 153.366 88.3175C153.667 88.5898 154.068 88.726 154.57 88.726C155.071 88.726 155.451 88.597 155.709 88.339C155.974 88.0738 156.107 87.7334 156.107 87.3177C156.107 86.7802 155.928 86.3932 155.569 86.1567C155.211 85.9202 154.67 85.802 153.946 85.802H153.699V84.985H153.957C154.616 84.9778 155.114 84.8703 155.451 84.6625C155.788 84.4475 155.956 84.1178 155.956 83.6735C155.956 83.2937 155.831 82.9891 155.58 82.7597C155.336 82.5304 154.985 82.4157 154.527 82.4157C154.082 82.4157 153.724 82.5304 153.452 82.7597C153.179 82.9891 153.018 83.2972 152.968 83.6842H152.011Z" fill="white"/>
<path d="M142.582 55.1215C143.492 54.3905 144.205 53.7921 144.721 53.3262C145.237 52.8532 145.67 52.3623 146.022 51.8535C146.38 51.3375 146.559 50.8322 146.559 50.3377C146.559 49.8719 146.444 49.5064 146.215 49.2412C145.993 48.9689 145.631 48.8327 145.129 48.8327C144.642 48.8327 144.262 48.9868 143.99 49.295C143.725 49.596 143.581 50.0009 143.56 50.5097H142.614C142.642 49.7071 142.886 49.0872 143.345 48.65C143.803 48.2128 144.395 47.9942 145.119 47.9942C145.857 47.9942 146.441 48.1985 146.871 48.607C147.308 49.0155 147.527 49.5781 147.527 50.2947C147.527 50.8896 147.347 51.4701 146.989 52.0362C146.638 52.5952 146.237 53.0897 145.785 53.5197C145.334 53.9426 144.757 54.4371 144.054 55.0032H147.752V55.8202H142.582V55.1215Z" fill="white"/>
<path d="M118.281 23.495V22.6027H120.302V30.375H119.313V23.495H118.281Z" fill="white"/>
<line x1="86.4009" y1="86.6597" x2="47.729" y2="69.6148" stroke="#D3FB8F" stroke-width="1.34375"/>
<line x1="86.1105" y1="85.6758" x2="112.439" y2="45.6309" stroke="#D3FB8F" stroke-width="1.34375"/>
<g clip-path="url(#clip0_538_1221)">
<path d="M49.2034 23.495V22.6027H51.2244V30.375H50.2354V23.495H49.2034ZM52.9827 23.495V22.6027H55.0037V30.375H54.0147V23.495H52.9827Z" fill="white"/>
</g>
<defs>
<clipPath id="clip0_538_1221">
<rect x="36.2812" y="10.75" width="32.25" height="32.25" rx="16.125" fill="white"/>
</clipPath>
</defs>
</svg>
