<svg width="32" height="32" viewBox="0 0 32 32" fill="none" xmlns="http://www.w3.org/2000/svg">
<g id="cold">
<g id="Group">
<path id="Vector" d="M16.0008 30C15.9029 30 15.8055 30 15.7071 29.9945C14.4371 29.9445 13.2013 29.5687 12.1185 28.9032C11.0356 28.2377 10.1421 27.305 9.52381 26.1946C8.90548 25.0841 8.58312 23.8333 8.58769 22.5624C8.59227 21.2914 8.92362 20.043 9.54992 18.937C10.1219 17.9315 10.9201 17.0729 11.8814 16.4294V6.1217C11.8814 5.03034 12.315 3.98367 13.0867 3.21197C13.8584 2.44026 14.905 2.00671 15.9964 2.00671C17.0878 2.00671 18.1344 2.44026 18.9061 3.21197C19.6778 3.98367 20.1114 5.03034 20.1114 6.1217V16.4294C21.1253 17.1058 21.9565 18.0222 22.5312 19.0971C23.1058 20.1719 23.4061 21.3721 23.4055 22.5909C23.4053 24.5551 22.6253 26.4389 21.2368 27.8282C19.8483 29.2175 17.965 29.9987 16.0008 30ZM15.9964 3.10054C15.1954 3.10141 14.4275 3.41999 13.8611 3.98638C13.2947 4.55277 12.9761 5.32071 12.9752 6.1217V16.7286C12.9752 16.8224 12.9511 16.9146 12.9051 16.9964C12.8591 17.0782 12.7929 17.1468 12.7127 17.1956C11.5359 17.912 10.6257 18.9934 10.1207 20.2752C9.61574 21.557 9.54376 22.9687 9.91574 24.2952C10.2877 25.6217 11.0833 26.7901 12.1811 27.6224C13.2789 28.4548 14.6187 28.9052 15.9964 28.9052C17.3741 28.9052 18.7139 28.4548 19.8117 27.6224C20.9095 26.7901 21.7051 25.6217 22.0771 24.2952C22.449 22.9687 22.3771 21.557 21.8721 20.2752C21.3671 18.9934 20.4569 17.912 19.2801 17.1956C19.1999 17.1468 19.1337 17.0782 19.0877 16.9964C19.0417 16.9146 19.0176 16.8224 19.0176 16.7286V6.1217C19.0167 5.32071 18.6981 4.55277 18.1317 3.98638C17.5653 3.41999 16.7974 3.10141 15.9964 3.10054Z" fill="#101334"/>
<path id="Vector_2" d="M15.9965 27.8041C15.9287 27.8041 15.8592 27.8041 15.7903 27.8002C14.6713 27.7559 13.5964 27.3525 12.7246 26.6497C11.8527 25.9469 11.2303 24.982 10.9495 23.8979C10.6687 22.8139 10.7444 21.6682 11.1654 20.6305C11.5864 19.5928 12.3304 18.7182 13.2871 18.1363L14.0774 17.6539V6.12164C14.0774 5.61265 14.2796 5.12452 14.6395 4.76461C14.9994 4.40471 15.4875 4.20251 15.9965 4.20251C16.5055 4.20251 16.9936 4.40471 17.3535 4.76461C17.7134 5.12452 17.9156 5.61265 17.9156 6.12164V17.6539L18.7059 18.1363C19.6776 18.7275 20.4293 19.6202 20.8464 20.6784C21.2635 21.7365 21.3231 22.9021 21.0162 23.9973C20.7093 25.0925 20.0526 26.0573 19.1463 26.7446C18.2401 27.4319 17.1339 27.8039 15.9965 27.8041ZM15.9965 5.29634C15.7777 5.29663 15.568 5.38368 15.4133 5.53839C15.2585 5.6931 15.1715 5.90285 15.1712 6.12164V17.9612C15.1712 18.0551 15.147 18.1473 15.1011 18.2291C15.0551 18.3109 14.9888 18.3795 14.9087 18.4283L13.8564 19.0704C13.1025 19.5314 12.5166 20.2225 12.1852 21.0417C11.8537 21.861 11.7943 22.765 12.0156 23.6206C12.2369 24.4762 12.7273 25.238 13.4144 25.7938C14.1015 26.3496 14.9489 26.6699 15.8319 26.7075C15.8866 26.7075 15.9413 26.7108 15.996 26.7108C16.895 26.7109 17.7694 26.417 18.4857 25.8738C19.2021 25.3306 19.7211 24.568 19.9637 23.7024C20.2062 22.8367 20.1589 21.9154 19.8291 21.0791C19.4992 20.2428 18.9048 19.5374 18.1366 19.0704L17.0843 18.4289C17.0042 18.3801 16.9379 18.3115 16.8919 18.2297C16.846 18.1479 16.8218 18.0556 16.8218 17.9618V6.12164C16.8215 5.90285 16.7345 5.6931 16.5798 5.53839C16.425 5.38368 16.2153 5.29663 15.9965 5.29634Z" fill="#101334"/>
<path id="Vector_3" d="M17.3683 16.2758H14.6244C14.4793 16.2758 14.3402 16.2182 14.2377 16.1156C14.1351 16.0131 14.0775 15.8739 14.0775 15.7289C14.0775 15.5838 14.1351 15.4447 14.2377 15.3422C14.3402 15.2396 14.4793 15.182 14.6244 15.182H17.3683C17.5133 15.182 17.6524 15.2396 17.755 15.3422C17.8576 15.4447 17.9152 15.5838 17.9152 15.7289C17.9152 15.8739 17.8576 16.0131 17.755 16.1156C17.6524 16.2182 17.5133 16.2758 17.3683 16.2758ZM20.2532 21.2166H11.7389C11.5938 21.2166 11.4547 21.159 11.3521 21.0564C11.2496 20.9539 11.192 20.8148 11.192 20.6697C11.192 20.5247 11.2496 20.3856 11.3521 20.283C11.4547 20.1804 11.5938 20.1228 11.7389 20.1228H20.2532C20.3983 20.1228 20.5374 20.1804 20.64 20.283C20.7425 20.3856 20.8002 20.5247 20.8002 20.6697C20.8002 20.8148 20.7425 20.9539 20.64 21.0564C20.5374 21.159 20.3983 21.2166 20.2532 21.2166ZM13.8007 23.4125C13.764 23.4126 13.7274 23.4089 13.6914 23.4016C13.6563 23.3945 13.6221 23.3841 13.5891 23.3704C13.556 23.3568 13.5243 23.3399 13.4945 23.3201C13.4345 23.2805 13.3831 23.2291 13.3435 23.1691C13.3237 23.1393 13.3068 23.1076 13.2932 23.0745C13.2793 23.0416 13.2688 23.0073 13.262 22.9722C13.2548 22.9371 13.2512 22.9014 13.2511 22.8656C13.2511 22.8288 13.2547 22.7922 13.262 22.7562C13.269 22.7212 13.2794 22.6869 13.2932 22.6539C13.3069 22.621 13.3238 22.5895 13.3435 22.5599C13.3632 22.5299 13.3859 22.502 13.4113 22.4767C13.4368 22.4513 13.4646 22.4284 13.4945 22.4084C13.5243 22.3885 13.556 22.3716 13.5891 22.358C13.6221 22.3444 13.6563 22.3339 13.6914 22.3269C13.7617 22.3127 13.8343 22.3127 13.9047 22.3269C13.9398 22.334 13.9743 22.3444 14.0075 22.358C14.0738 22.3856 14.134 22.4259 14.1847 22.4767C14.2101 22.502 14.2328 22.5299 14.2525 22.5599C14.2722 22.5895 14.2891 22.621 14.3028 22.6539C14.3166 22.6869 14.327 22.7212 14.334 22.7562C14.3413 22.7922 14.345 22.8288 14.3449 22.8656C14.3448 22.9014 14.3412 22.9371 14.334 22.9722C14.3272 23.0073 14.3167 23.0416 14.3028 23.0745C14.2892 23.1076 14.2724 23.1393 14.2525 23.1691C14.2129 23.2291 14.1616 23.2805 14.1015 23.3201C14.0719 23.3398 14.0404 23.3567 14.0075 23.3704C13.9743 23.384 13.9398 23.3944 13.9047 23.4016C13.8705 23.4086 13.8357 23.4122 13.8007 23.4125ZM15.9966 23.4125C15.8517 23.412 15.7127 23.3544 15.6099 23.2522C15.5845 23.2269 15.5618 23.1991 15.5421 23.1691C15.5223 23.1393 15.5054 23.1076 15.4918 23.0745C15.4779 23.0416 15.4674 23.0073 15.4606 22.9722C15.4534 22.9371 15.4498 22.9014 15.4497 22.8656C15.4497 22.8288 15.4533 22.7922 15.4606 22.7562C15.4676 22.7212 15.478 22.6869 15.4918 22.6539C15.5055 22.621 15.5224 22.5895 15.5421 22.5599C15.5618 22.5299 15.5845 22.502 15.6099 22.4767C15.6864 22.4003 15.7837 22.3482 15.8897 22.3271C15.9957 22.306 16.1056 22.3168 16.2055 22.358C16.2387 22.3716 16.2704 22.3885 16.3001 22.4084C16.33 22.4284 16.3578 22.4513 16.3833 22.4767C16.4087 22.502 16.4314 22.5299 16.4511 22.5599C16.4708 22.5895 16.4877 22.621 16.5014 22.6539C16.5152 22.6869 16.5256 22.7212 16.5326 22.7562C16.5399 22.7922 16.5436 22.8288 16.5435 22.8656C16.5434 22.9014 16.5398 22.9371 16.5326 22.9722C16.5255 23.0072 16.5151 23.0415 16.5014 23.0745C16.4878 23.1076 16.471 23.1393 16.4511 23.1691C16.4115 23.2291 16.3601 23.2805 16.3001 23.3201C16.2704 23.3399 16.2387 23.3568 16.2055 23.3704C16.1725 23.3841 16.1383 23.3945 16.1033 23.4016C16.0682 23.4087 16.0324 23.4124 15.9966 23.4125ZM18.1925 23.4125C18.1566 23.4124 18.1209 23.4087 18.0858 23.4016C18.0508 23.3945 18.0166 23.3841 17.9835 23.3704C17.9504 23.3568 17.9187 23.3399 17.8889 23.3201C17.8289 23.2805 17.7776 23.2291 17.738 23.1691C17.7181 23.1393 17.7013 23.1076 17.6877 23.0745C17.674 23.0415 17.6636 23.0072 17.6565 22.9722C17.6493 22.9371 17.6456 22.9014 17.6456 22.8656C17.6455 22.8288 17.6492 22.7922 17.6565 22.7562C17.6637 22.7212 17.6741 22.687 17.6877 22.6539C17.7014 22.621 17.7182 22.5895 17.738 22.5599C17.7577 22.5299 17.7804 22.502 17.8058 22.4767C17.8312 22.4513 17.8591 22.4284 17.8889 22.4084C17.9187 22.3885 17.9504 22.3716 17.9835 22.358C18.0166 22.3444 18.0508 22.3339 18.0858 22.3269C18.1562 22.3127 18.2287 22.3127 18.2991 22.3269C18.3343 22.334 18.3687 22.3444 18.4019 22.358C18.4682 22.3856 18.5284 22.4259 18.5791 22.4767C18.6045 22.502 18.6273 22.5299 18.647 22.5599C18.6667 22.5895 18.6836 22.621 18.6973 22.6539C18.711 22.6869 18.7215 22.7212 18.7284 22.7562C18.7358 22.7922 18.7394 22.8288 18.7394 22.8656C18.7393 22.9014 18.7356 22.9371 18.7284 22.9722C18.7216 23.0073 18.7112 23.0416 18.6973 23.0745C18.6837 23.1076 18.6668 23.1393 18.647 23.1691C18.6074 23.2291 18.556 23.2805 18.496 23.3201C18.4663 23.3398 18.4348 23.3567 18.4019 23.3704C18.3687 23.384 18.3343 23.3944 18.2991 23.4016C18.264 23.4087 18.2283 23.4124 18.1925 23.4125ZM17.0948 25.0593C17.0581 25.0595 17.0214 25.056 16.9854 25.0489C16.9154 25.034 16.8486 25.0064 16.7885 24.9674C16.7588 24.9472 16.731 24.9243 16.7054 24.899C16.68 24.8737 16.6573 24.8458 16.6376 24.8159C16.6177 24.7861 16.6009 24.7544 16.5873 24.7213C16.5736 24.6883 16.5632 24.654 16.5561 24.619C16.5422 24.5486 16.5422 24.4761 16.5561 24.4057C16.5632 24.3707 16.5736 24.3364 16.5873 24.3034C16.6009 24.2703 16.6177 24.2386 16.6376 24.2088C16.6573 24.1788 16.68 24.151 16.7054 24.1257C16.7308 24.1004 16.7587 24.0777 16.7885 24.0579C16.8184 24.0381 16.8501 24.0212 16.8832 24.0075C16.9162 23.9939 16.9504 23.9834 16.9854 23.9764C17.056 23.9621 17.1287 23.9621 17.1993 23.9764C17.2343 23.9834 17.2685 23.9939 17.3015 24.0075C17.368 24.0349 17.4284 24.075 17.4793 24.1257C17.5045 24.1511 17.5272 24.179 17.5471 24.2088C17.567 24.2386 17.5838 24.2703 17.5974 24.3034C17.6111 24.3364 17.6215 24.3707 17.6286 24.4057C17.6432 24.476 17.6432 24.5486 17.6286 24.619C17.6215 24.654 17.6111 24.6883 17.5974 24.7213C17.5838 24.7544 17.567 24.7861 17.5471 24.8159C17.5272 24.8457 17.5045 24.8736 17.4793 24.899C17.4536 24.9242 17.4258 24.947 17.3962 24.9674C17.3662 24.9868 17.3346 25.0035 17.3015 25.0171C17.2686 25.031 17.2343 25.0416 17.1993 25.0489C17.1649 25.0557 17.1299 25.0592 17.0948 25.0593ZM14.8984 25.0593C14.8617 25.0595 14.825 25.056 14.789 25.0489C14.754 25.0416 14.7197 25.031 14.6867 25.0171C14.6537 25.0035 14.6221 24.9868 14.5921 24.9674C14.5624 24.9472 14.5346 24.9243 14.509 24.899C14.4838 24.8736 14.4611 24.8457 14.4412 24.8159C14.4213 24.7861 14.4045 24.7544 14.3909 24.7213C14.3772 24.6883 14.3668 24.654 14.3597 24.619C14.3451 24.5486 14.3451 24.476 14.3597 24.4057C14.3668 24.3707 14.3772 24.3364 14.3909 24.3034C14.4045 24.2703 14.4213 24.2386 14.4412 24.2088C14.4611 24.179 14.4838 24.1511 14.509 24.1257C14.5344 24.1004 14.5623 24.0777 14.5921 24.0579C14.6221 24.0382 14.6537 24.0214 14.6867 24.0075C14.7197 23.9939 14.754 23.9834 14.789 23.9764C14.8596 23.9621 14.9323 23.9621 15.0029 23.9764C15.0379 23.9834 15.0721 23.9939 15.1051 24.0075C15.1382 24.0214 15.1698 24.0382 15.1998 24.0579C15.2296 24.0777 15.2575 24.1004 15.2829 24.1257C15.3083 24.151 15.331 24.1788 15.3507 24.2088C15.3706 24.2386 15.3874 24.2703 15.401 24.3034C15.4147 24.3364 15.4251 24.3707 15.4322 24.4057C15.446 24.4761 15.446 24.5486 15.4322 24.619C15.4251 24.654 15.4147 24.6883 15.401 24.7213C15.3874 24.7544 15.3706 24.7861 15.3507 24.8159C15.331 24.8458 15.3083 24.8737 15.2829 24.899C15.2573 24.9243 15.2295 24.9472 15.1998 24.9674C15.1698 24.9868 15.1381 25.0035 15.1051 25.0171C15.0721 25.031 15.0379 25.0416 15.0029 25.0489C14.9685 25.0557 14.9335 25.0592 14.8984 25.0593ZM6.3895 12.4332C6.06413 12.4332 5.74606 12.3367 5.47553 12.1559C5.20499 11.9752 4.99413 11.7182 4.86961 11.4176C4.7451 11.117 4.71252 10.7862 4.776 10.4671C4.83947 10.148 4.99616 9.85486 5.22623 9.62479C5.4563 9.39471 5.74944 9.23803 6.06856 9.17456C6.38768 9.11108 6.71846 9.14366 7.01906 9.26817C7.31967 9.39269 7.5766 9.60355 7.75737 9.87409C7.93814 10.1446 8.03462 10.4627 8.03462 10.7881C8.03419 11.2242 7.86073 11.6424 7.5523 11.9509C7.24387 12.2593 6.82568 12.4327 6.3895 12.4332ZM6.3895 10.2373C6.28045 10.2373 6.17384 10.2697 6.08317 10.3303C5.9925 10.3909 5.92184 10.477 5.88013 10.5778C5.83842 10.6785 5.82753 10.7894 5.84885 10.8964C5.87016 11.0033 5.92272 11.1015 5.99988 11.1786C6.07703 11.2557 6.17531 11.3082 6.28229 11.3294C6.38926 11.3506 6.50013 11.3396 6.60085 11.2978C6.70158 11.256 6.78764 11.1852 6.84815 11.0945C6.90866 11.0038 6.9409 10.8971 6.94079 10.7881C6.94065 10.6419 6.8825 10.5019 6.77913 10.3986C6.67576 10.2953 6.53562 10.2373 6.3895 10.2373Z" fill="#101334"/>
<path id="Vector_4" d="M6.38944 10.2373C6.24439 10.2373 6.10528 10.1797 6.00272 10.0771C5.90015 9.97454 5.84253 9.83543 5.84253 9.69038V8.04362C5.84253 7.89857 5.90015 7.75946 6.00272 7.65689C6.10528 7.55433 6.24439 7.4967 6.38944 7.4967C6.53449 7.4967 6.6736 7.55433 6.77617 7.65689C6.87874 7.75946 6.93636 7.89857 6.93636 8.04362V9.69038C6.93636 9.83543 6.87874 9.97454 6.77617 10.0771C6.6736 10.1797 6.53449 10.2373 6.38944 10.2373Z" fill="#101334"/>
<path id="Vector_5" d="M6.38954 8.59046C6.2445 8.59043 6.10541 8.53279 6.00287 8.43022L4.90521 7.33201C4.80558 7.22887 4.75046 7.09071 4.7517 6.94731C4.75295 6.80391 4.81047 6.66674 4.91187 6.56534C5.01327 6.46394 5.15045 6.40642 5.29385 6.40517C5.43725 6.40393 5.5754 6.45905 5.67855 6.55868L6.38954 7.26967L7.10052 6.55868C7.20367 6.45905 7.34183 6.40393 7.48523 6.40517C7.62862 6.40642 7.7658 6.46394 7.8672 6.56534C7.9686 6.66674 8.02612 6.80391 8.02737 6.94731C8.02861 7.09071 7.97349 7.22887 7.87386 7.33201L6.7762 8.43022C6.67366 8.53279 6.53457 8.59043 6.38954 8.59046ZM5.29188 11.3349H3.64457C3.49952 11.3349 3.36041 11.2773 3.25784 11.1747C3.15528 11.0721 3.09766 10.933 3.09766 10.788C3.09766 10.6429 3.15528 10.5038 3.25784 10.4012C3.36041 10.2987 3.49952 10.2411 3.64457 10.2411H5.29188C5.43693 10.2411 5.57604 10.2987 5.67861 10.4012C5.78117 10.5038 5.83879 10.6429 5.83879 10.788C5.83879 10.933 5.78117 11.0721 5.67861 11.1747C5.57604 11.2773 5.43693 11.3349 5.29188 11.3349Z" fill="#101334"/>
<path id="Vector_6" d="M2.5468 12.4332C2.43865 12.4332 2.33293 12.4011 2.24301 12.341C2.15309 12.2809 2.08301 12.1955 2.04163 12.0955C2.00024 11.9956 1.98941 11.8857 2.0105 11.7796C2.0316 11.6735 2.08367 11.5761 2.16013 11.4996L2.87112 10.7886L2.16013 10.0776C2.0605 9.97447 2.00538 9.83632 2.00662 9.69292C2.00787 9.54952 2.06539 9.41235 2.16679 9.31094C2.26819 9.20954 2.40537 9.15202 2.54877 9.15078C2.69217 9.14953 2.83032 9.20466 2.93347 9.30428L4.03167 10.4019C4.1342 10.5045 4.1918 10.6436 4.1918 10.7886C4.1918 10.9336 4.1342 11.0727 4.03167 11.1753L2.93347 12.2729C2.83092 12.3755 2.69184 12.4332 2.5468 12.4332ZM6.38942 14.0799C6.24437 14.0799 6.10526 14.0223 6.00269 13.9198C5.90013 13.8172 5.84251 13.6781 5.84251 13.533V11.8863C5.84251 11.7412 5.90013 11.6021 6.00269 11.4995C6.10526 11.397 6.24437 11.3394 6.38942 11.3394C6.53447 11.3394 6.67358 11.397 6.77615 11.4995C6.87871 11.6021 6.93634 11.7412 6.93634 11.8863V13.533C6.93634 13.6781 6.87871 13.8172 6.77615 13.9198C6.67358 14.0223 6.53447 14.0799 6.38942 14.0799Z" fill="#101334"/>
<path id="Vector_7" d="M7.4877 15.1781C7.34266 15.1781 7.20358 15.1204 7.10103 15.0178L6.39004 14.3069L5.67906 15.0178C5.57643 15.1204 5.43727 15.178 5.29219 15.1779C5.14711 15.1779 5.008 15.1202 4.90544 15.0176C4.80289 14.9149 4.74531 14.7758 4.74536 14.6307C4.74541 14.4856 4.80309 14.3465 4.90572 14.244L6.00338 13.1463C6.10594 13.0438 6.24502 12.9862 6.39004 12.9862C6.53507 12.9862 6.67415 13.0438 6.77671 13.1463L7.87492 14.244C7.95157 14.3204 8.0038 14.4179 8.02501 14.5241C8.04621 14.6302 8.03542 14.7403 7.99401 14.8403C7.95261 14.9404 7.88244 15.0259 7.7924 15.086C7.70237 15.1461 7.59651 15.1782 7.48825 15.1781H7.4877ZM9.13446 11.3349H7.4877C7.34265 11.3349 7.20354 11.2773 7.10098 11.1747C6.99841 11.0722 6.94079 10.9331 6.94079 10.788C6.94079 10.643 6.99841 10.5038 7.10098 10.4013C7.20354 10.2987 7.34265 10.2411 7.4877 10.2411H9.13446C9.27951 10.2411 9.41862 10.2987 9.52119 10.4013C9.62376 10.5038 9.68138 10.643 9.68138 10.788C9.68138 10.9331 9.62376 11.0722 9.52119 11.1747C9.41862 11.2773 9.27951 11.3349 9.13446 11.3349Z" fill="#101334"/>
<path id="Vector_8" d="M10.2321 12.4331C10.0871 12.433 9.94798 12.3754 9.84543 12.2728L8.74778 11.1746C8.64524 11.0721 8.58765 10.933 8.58765 10.7879C8.58765 10.6429 8.64524 10.5038 8.74778 10.4013L9.84543 9.30362C9.89621 9.2528 9.9565 9.21249 10.0229 9.18497C10.0892 9.15746 10.1603 9.14329 10.2322 9.14326C10.304 9.14324 10.3752 9.15736 10.4415 9.18483C10.5079 9.21229 10.5682 9.25257 10.619 9.30334C10.6699 9.35412 10.7102 9.41441 10.7377 9.48077C10.7652 9.54713 10.7794 9.61826 10.7794 9.69009C10.7794 9.76193 10.7653 9.83307 10.7378 9.89945C10.7104 9.96582 10.6701 10.0261 10.6193 10.077L9.90833 10.7879L10.6193 11.4989C10.6958 11.5755 10.7479 11.6729 10.769 11.7791C10.79 11.8852 10.7792 11.9952 10.7377 12.0951C10.6963 12.1951 10.6261 12.2805 10.5361 12.3405C10.4461 12.4006 10.3403 12.4326 10.2321 12.4325V12.4331ZM25.6037 8.04134C25.2783 8.04145 24.9602 7.94505 24.6896 7.76435C24.4189 7.58365 24.208 7.32675 24.0834 7.02616C23.9588 6.72556 23.9261 6.39476 23.9896 6.07561C24.053 5.75645 24.2096 5.46327 24.4397 5.23314C24.6697 5.00301 24.9629 4.84627 25.282 4.78275C25.6011 4.71923 25.9319 4.75178 26.2326 4.87627C26.5332 5.00077 26.7902 5.21163 26.971 5.48218C27.1518 5.75273 27.2483 6.07082 27.2483 6.39622C27.2478 6.8323 27.0744 7.25041 26.7661 7.55882C26.4578 7.86723 26.0398 8.04076 25.6037 8.04134ZM25.6037 5.84548C25.4946 5.84537 25.3879 5.87762 25.2972 5.93816C25.2065 5.99869 25.1357 6.08479 25.0939 6.18554C25.0521 6.2863 25.0412 6.39719 25.0624 6.50418C25.0837 6.61117 25.1362 6.70945 25.2133 6.78659C25.2905 6.86372 25.3887 6.91623 25.4957 6.93749C25.6027 6.95874 25.7136 6.94778 25.8144 6.90599C25.9151 6.86419 26.0012 6.79345 26.0617 6.7027C26.1223 6.61196 26.1545 6.5053 26.1544 6.39622C26.1541 6.25024 26.096 6.11033 25.9928 6.0071C25.8896 5.90388 25.7497 5.84576 25.6037 5.84548Z" fill="#101334"/>
<path id="Vector_9" d="M25.6036 5.84551C25.4585 5.84551 25.3194 5.78789 25.2168 5.68532C25.1143 5.58275 25.0566 5.44364 25.0566 5.29859V3.65128C25.0566 3.50623 25.1143 3.36712 25.2168 3.26456C25.3194 3.16199 25.4585 3.10437 25.6036 3.10437C25.7486 3.10437 25.8877 3.16199 25.9903 3.26456C26.0928 3.36712 26.1505 3.50623 26.1505 3.65128V5.29859C26.1505 5.44364 26.0928 5.58275 25.9903 5.68532C25.8877 5.78789 25.7486 5.84551 25.6036 5.84551Z" fill="#101334"/>
<path id="Vector_10" d="M25.6036 4.19821C25.5318 4.19834 25.4606 4.1843 25.3941 4.1569C25.3277 4.12949 25.2673 4.08926 25.2164 4.03851L24.1188 2.9403C24.0665 2.88985 24.0249 2.8295 23.9962 2.76278C23.9675 2.69605 23.9525 2.62429 23.9518 2.55167C23.9512 2.47905 23.965 2.40703 23.9925 2.33982C24.02 2.2726 24.0606 2.21154 24.112 2.16019C24.1633 2.10884 24.2244 2.06823 24.2916 2.04073C24.3588 2.01323 24.4309 1.99939 24.5035 2.00002C24.5761 2.00065 24.6479 2.01574 24.7146 2.0444C24.7813 2.07307 24.8417 2.11473 24.8921 2.16697L25.6031 2.87796L26.3141 2.16697C26.4172 2.06734 26.5554 2.01222 26.6988 2.01346C26.8422 2.01471 26.9794 2.07223 27.0808 2.17363C27.1822 2.27503 27.2397 2.4122 27.2409 2.5556C27.2422 2.699 27.1871 2.83715 27.0874 2.9403L25.9903 4.03851C25.8877 4.14088 25.7486 4.19832 25.6036 4.19821ZM24.5054 6.94317H22.8587C22.7136 6.94317 22.5745 6.88555 22.472 6.78298C22.3694 6.68042 22.3118 6.54131 22.3118 6.39626C22.3118 6.25121 22.3694 6.1121 22.472 6.00953C22.5745 5.90696 22.7136 5.84934 22.8587 5.84934H24.5054C24.6505 5.84934 24.7896 5.90696 24.8922 6.00953C24.9947 6.1121 25.0524 6.25121 25.0524 6.39626C25.0524 6.54131 24.9947 6.68042 24.8922 6.78298C24.7896 6.88555 24.6505 6.94317 24.5054 6.94317Z" fill="#101334"/>
<path id="Vector_11" d="M21.7604 8.04135C21.6523 8.04133 21.5466 8.00924 21.4566 7.94914C21.3667 7.88904 21.2966 7.80363 21.2552 7.70371C21.2139 7.60379 21.203 7.49384 21.2241 7.38777C21.2452 7.28169 21.2973 7.18425 21.3738 7.10777L22.0847 6.39678L21.3738 5.68579C21.3215 5.63534 21.2799 5.57499 21.2512 5.50826C21.2225 5.44154 21.2074 5.36977 21.2068 5.29715C21.2062 5.22453 21.22 5.15251 21.2475 5.0853C21.275 5.01809 21.3156 4.95702 21.367 4.90567C21.4183 4.85432 21.4794 4.81371 21.5466 4.78621C21.6138 4.75871 21.6858 4.74487 21.7585 4.7455C21.8311 4.74614 21.9028 4.76122 21.9696 4.78989C22.0363 4.81855 22.0966 4.86021 22.1471 4.91245L23.2453 6.01011C23.3478 6.11267 23.4054 6.25175 23.4054 6.39678C23.4054 6.5418 23.3478 6.68088 23.2453 6.78344L22.1471 7.88165C22.0445 7.98402 21.9054 8.04146 21.7604 8.04135ZM25.6036 9.68811C25.4585 9.68811 25.3194 9.63049 25.2169 9.52792C25.1143 9.42535 25.0567 9.28624 25.0567 9.14119V7.49443C25.0567 7.34938 25.1143 7.21027 25.2169 7.10771C25.3194 7.00514 25.4585 6.94752 25.6036 6.94752C25.7486 6.94752 25.8878 7.00514 25.9903 7.10771C26.0929 7.21027 26.1505 7.34938 26.1505 7.49443V9.14119C26.1505 9.28624 26.0929 9.42535 25.9903 9.52792C25.8878 9.63049 25.7486 9.68811 25.6036 9.68811Z" fill="#101334"/>
<path id="Vector_12" d="M26.7013 10.7858C26.5564 10.7859 26.4173 10.7285 26.3147 10.6261L25.6037 9.91513L24.8927 10.6261C24.7901 10.7287 24.6509 10.7863 24.5058 10.7862C24.3607 10.7861 24.2216 10.7285 24.1191 10.6258C24.0165 10.5232 23.9589 10.3841 23.959 10.239C23.959 10.0939 24.0167 9.95478 24.1193 9.85223L25.217 8.75458C25.2678 8.70373 25.3281 8.66339 25.3945 8.63586C25.4609 8.60834 25.5321 8.59417 25.6039 8.59417C25.6758 8.59417 25.747 8.60834 25.8134 8.63586C25.8798 8.66339 25.9401 8.70373 25.9909 8.75458L27.0885 9.85223C27.165 9.92872 27.2171 10.0262 27.2382 10.1322C27.2593 10.2383 27.2484 10.3483 27.207 10.4482C27.1657 10.5481 27.0956 10.6335 27.0057 10.6936C26.9157 10.7537 26.81 10.7858 26.7019 10.7858H26.7013ZM28.3481 6.94319H26.7013C26.5563 6.94319 26.4172 6.88557 26.3146 6.78301C26.212 6.68044 26.1544 6.54133 26.1544 6.39628C26.1544 6.25123 26.212 6.11212 26.3146 6.00955C26.4172 5.90699 26.5563 5.84937 26.7013 5.84937H28.3481C28.4931 5.84937 28.6322 5.90699 28.7348 6.00955C28.8374 6.11212 28.895 6.25123 28.895 6.39628C28.895 6.54133 28.8374 6.68044 28.7348 6.78301C28.6322 6.88557 28.4931 6.94319 28.3481 6.94319Z" fill="#101334"/>
<path id="Vector_13" d="M29.4464 8.04143C29.3013 8.0414 29.1622 7.98376 29.0597 7.88118L27.9615 6.78298C27.859 6.68042 27.8014 6.54133 27.8014 6.39631C27.8014 6.25129 27.859 6.1122 27.9615 6.00964L29.0597 4.91198C29.1101 4.85975 29.1705 4.81808 29.2372 4.78942C29.3039 4.76076 29.3757 4.74567 29.4483 4.74504C29.5209 4.74441 29.593 4.75824 29.6602 4.78574C29.7274 4.81324 29.7885 4.85385 29.8398 4.9052C29.8912 4.95656 29.9318 5.01762 29.9593 5.08483C29.9868 5.15205 30.0006 5.22407 30 5.29668C29.9993 5.3693 29.9843 5.44107 29.9556 5.50779C29.9269 5.57452 29.8853 5.63487 29.833 5.68532L29.122 6.39631L29.833 7.1073C29.9095 7.18379 29.9616 7.28123 29.9827 7.3873C30.0038 7.49338 29.9929 7.60333 29.9515 7.70325C29.9102 7.80317 29.8401 7.88858 29.7502 7.94867C29.6602 8.00877 29.5545 8.04086 29.4464 8.04088V8.04143ZM25.6037 18.4716C25.2783 18.4717 24.9601 18.3753 24.6894 18.1945C24.4188 18.0138 24.2079 17.7568 24.0833 17.4561C23.9588 17.1554 23.9262 16.8245 23.9897 16.5053C24.0533 16.1861 24.2101 15.8929 24.4403 15.6629C24.6705 15.4328 24.9638 15.2762 25.2831 15.2129C25.6023 15.1495 25.9332 15.1823 26.2338 15.307C26.5344 15.4318 26.7912 15.6429 26.9718 15.9137C27.1524 16.1844 27.2486 16.5027 27.2483 16.8282C27.2474 17.264 27.0739 17.6816 26.7656 17.9897C26.4573 18.2978 26.0395 18.4711 25.6037 18.4716ZM25.6037 16.2758C25.4947 16.2757 25.3881 16.3079 25.2974 16.3683C25.2067 16.4288 25.136 16.5148 25.0941 16.6155C25.0523 16.7161 25.0412 16.8269 25.0624 16.9339C25.0835 17.0408 25.1358 17.1391 25.2128 17.2163C25.2898 17.2935 25.3879 17.3461 25.4948 17.3676C25.6017 17.389 25.7125 17.3783 25.8133 17.3368C25.9141 17.2952 26.0003 17.2247 26.061 17.1342C26.1217 17.0437 26.1543 16.9372 26.1545 16.8282C26.1546 16.6819 26.0967 16.5416 25.9934 16.438C25.8902 16.3344 25.75 16.2761 25.6037 16.2758ZM5.84098 21.2166C5.51558 21.2167 5.19746 21.1203 4.92685 20.9396C4.65624 20.7589 4.4453 20.502 4.3207 20.2014C4.1961 19.9008 4.16344 19.57 4.22686 19.2509C4.29027 18.9317 4.44691 18.6385 4.67696 18.4084C4.90702 18.1783 5.20015 18.0215 5.51928 17.958C5.83842 17.8945 6.16923 17.927 6.46987 18.0515C6.7705 18.176 7.02747 18.3869 7.20826 18.6574C7.38905 18.928 7.48555 19.2461 7.48555 19.5715C7.48512 20.0076 7.31173 20.4257 7.00342 20.7341C6.69511 21.0425 6.27706 21.216 5.84098 21.2166ZM5.84098 19.0207C5.7319 19.0206 5.62524 19.0529 5.53449 19.1134C5.44375 19.174 5.37301 19.26 5.33121 19.3608C5.28942 19.4616 5.27845 19.5725 5.29971 19.6794C5.32096 19.7864 5.37348 19.8847 5.45061 19.9619C5.52774 20.039 5.62602 20.0915 5.73302 20.1128C5.84001 20.134 5.9509 20.123 6.05165 20.0813C6.15241 20.0395 6.23851 19.9687 6.29904 19.878C6.35958 19.7872 6.39183 19.6806 6.39172 19.5715C6.39143 19.4255 6.33332 19.2856 6.23009 19.1824C6.12687 19.0791 5.98696 19.021 5.84098 19.0207ZM9.1345 5.29646C8.8091 5.29657 8.49098 5.20018 8.22037 5.01948C7.94976 4.83878 7.73882 4.58188 7.61422 4.28128C7.48962 3.98069 7.45696 3.64989 7.52038 3.33073C7.58379 3.01158 7.74043 2.71839 7.97048 2.48826C8.20054 2.25814 8.49367 2.1014 8.8128 2.03788C9.13194 1.97436 9.46275 2.0069 9.76339 2.1314C10.064 2.2559 10.321 2.46676 10.5018 2.73731C10.6826 3.00786 10.7791 3.32595 10.7791 3.65135C10.7786 4.08743 10.6052 4.50554 10.2969 4.81395C9.98863 5.12236 9.57058 5.29589 9.1345 5.29646ZM9.1345 3.1006C9.02542 3.10049 8.91876 3.13275 8.82801 3.19328C8.73727 3.25382 8.66653 3.33991 8.62473 3.44067C8.58294 3.54143 8.57197 3.65232 8.59323 3.75931C8.61448 3.8663 8.667 3.96458 8.74413 4.04171C8.82126 4.11885 8.91955 4.17136 9.02654 4.19262C9.13353 4.21387 9.24442 4.20291 9.34517 4.16111C9.44593 4.11932 9.53203 4.04857 9.59256 3.95783C9.6531 3.86709 9.68535 3.76043 9.68524 3.65135C9.6851 3.50532 9.62703 3.36532 9.52377 3.26207C9.42052 3.15882 9.28052 3.10075 9.1345 3.1006Z" fill="#101334"/>
</g>
</g>
</svg>
