<svg width="24" height="24" viewBox="0 0 24 24" fill="none" xmlns="http://www.w3.org/2000/svg">
<g id="compose">
<g id="Group 7266">
<path id="Vector" d="M19.0727 2.22393C19.3711 1.92536 19.8553 1.92536 20.1539 2.22393L21.7758 3.84577C22.0743 4.14434 22.0743 4.62842 21.7758 4.92701L20.3121 6.39051L17.6092 3.68743L19.0727 2.22393ZM16.528 4.76867L19.2309 7.47175L13.3736 13.329C12.825 13.8778 12.0883 14.1974 11.3126 14.2231L10.1321 14.2622C9.91116 14.2696 9.73007 14.0885 9.7374 13.8676L9.77657 12.687C9.80229 11.9115 10.1219 11.1747 10.6706 10.626L16.528 4.76867Z" fill="white"/>
<path id="Vector_2" d="M4.29363 7.8C4.29363 5.89988 5.83398 4.35955 7.73408 4.35955H10.5323C11.1657 4.35955 11.6791 3.8461 11.6791 3.21273C11.6791 2.57936 11.1657 2.06592 10.5323 2.06592H7.73408C4.56723 2.06592 2 4.63315 2 7.8V16.21C2 19.3769 4.56723 21.9441 7.73408 21.9441H16.1441C19.311 21.9441 21.8782 19.3769 21.8782 16.21V13.4118C21.8782 12.7784 21.3647 12.265 20.7313 12.265C20.098 12.265 19.5845 12.7784 19.5845 13.4118V16.21C19.5845 18.1101 18.0441 19.6505 16.1441 19.6505H7.73408C5.83398 19.6505 4.29363 18.1101 4.29363 16.21V7.8Z" fill="white"/>
</g>
</g>
</svg>
