<svg width="24" height="24" viewBox="0 0 24 24" fill="none" xmlns="http://www.w3.org/2000/svg">
<g id="delete">
<path id="Vector" d="M16.382 22.3446H7.61789C7.00161 22.3465 6.40683 22.1183 5.94993 21.7047C5.49303 21.2911 5.20691 20.7219 5.14755 20.1085L3.72824 5.87485C3.71653 5.75978 3.72913 5.64354 3.7652 5.53365C3.80128 5.42376 3.86003 5.32267 3.93766 5.23693C4.01528 5.15119 4.11005 5.08271 4.21583 5.03592C4.3216 4.98914 4.43603 4.96509 4.55169 4.96533H19.4482C19.5638 4.96534 19.6781 4.98957 19.7838 5.03644C19.8894 5.08331 19.9841 5.15179 20.0617 5.23748C20.1392 5.32316 20.198 5.42414 20.2342 5.53392C20.2704 5.6437 20.2831 5.75984 20.2717 5.87485L18.8524 20.1077C18.793 20.7212 18.5069 21.2905 18.0501 21.7042C17.5932 22.1179 16.9984 22.3463 16.382 22.3446ZM5.46534 6.62051L6.79445 19.9438C6.81441 20.1482 6.90983 20.3379 7.06208 20.4758C7.21433 20.6136 7.4125 20.6898 7.61789 20.6895H16.382C16.5874 20.6898 16.7856 20.6136 16.9378 20.4758C17.0901 20.3379 17.1855 20.1482 17.2055 19.9438L18.5346 6.62051H5.46534Z" fill="white"/>
<path id="Vector_2" d="M21.5172 6.6205H2.48274C2.26325 6.6205 2.05275 6.53331 1.89755 6.37811C1.74234 6.22291 1.65515 6.01241 1.65515 5.79292C1.65515 5.57343 1.74234 5.36293 1.89755 5.20773C2.05275 5.05252 2.26325 4.96533 2.48274 4.96533H21.5172C21.7367 4.96533 21.9472 5.05252 22.1024 5.20773C22.2576 5.36293 22.3448 5.57343 22.3448 5.79292C22.3448 6.01241 22.2576 6.22291 22.1024 6.37811C21.9472 6.53331 21.7367 6.6205 21.5172 6.6205ZM12 19.0343C11.7805 19.0343 11.57 18.9471 11.4148 18.7919C11.2596 18.6367 11.1724 18.4262 11.1724 18.2067V9.10326C11.1724 8.88377 11.2596 8.67327 11.4148 8.51807C11.57 8.36287 11.7805 8.27568 12 8.27568C12.2195 8.27568 12.43 8.36287 12.5852 8.51807C12.7404 8.67327 12.8276 8.88377 12.8276 9.10326V18.2067C12.8276 18.4262 12.7404 18.6367 12.5852 18.7919C12.43 18.9471 12.2195 19.0343 12 19.0343ZM9.1026 19.0343C8.89614 19.0341 8.69721 18.9567 8.54485 18.8174C8.3925 18.6781 8.29773 18.4868 8.27915 18.2812L7.45157 9.17775C7.43179 8.95926 7.49957 8.74187 7.64001 8.57334C7.78045 8.40481 7.98206 8.29893 8.20053 8.27899C8.41914 8.25966 8.63651 8.32769 8.80509 8.4682C8.97367 8.60871 9.07975 8.81027 9.10012 9.02878L9.9277 18.1322C9.93806 18.2468 9.92441 18.3623 9.88764 18.4713C9.85087 18.5803 9.79178 18.6804 9.71414 18.7653C9.6365 18.8502 9.54202 18.9179 9.43672 18.9642C9.33143 19.0106 9.21763 19.0344 9.1026 19.0343ZM14.8974 19.0343C14.7823 19.0344 14.6685 19.0106 14.5632 18.9642C14.4579 18.9179 14.3635 18.8502 14.2858 18.7653C14.2082 18.6804 14.1491 18.5803 14.1123 18.4713C14.0755 18.3623 14.0619 18.2468 14.0723 18.1322L14.8998 9.02878C14.942 8.57361 15.3393 8.24588 15.7994 8.27899C16.0179 8.29893 16.2195 8.40481 16.3599 8.57334C16.5004 8.74187 16.5682 8.95926 16.5484 9.17775L15.7208 18.2812C15.7022 18.4868 15.6075 18.6781 15.4551 18.8174C15.3028 18.9567 15.1038 19.0341 14.8974 19.0343Z" fill="white"/>
<path id="Vector_3" d="M15.7241 6.62079H8.27583C8.05634 6.62079 7.84584 6.5336 7.69064 6.3784C7.53543 6.22319 7.44824 6.01269 7.44824 5.7932V2.48286C7.44824 2.26337 7.53543 2.05287 7.69064 1.89767C7.84584 1.74247 8.05634 1.65527 8.27583 1.65527H15.7241C15.9436 1.65527 16.1541 1.74247 16.3093 1.89767C16.4645 2.05287 16.5517 2.26337 16.5517 2.48286V5.7932C16.5517 6.01269 16.4645 6.22319 16.3093 6.3784C16.1541 6.5336 15.9436 6.62079 15.7241 6.62079ZM9.10341 4.96562H14.8965V3.31045H9.10341V4.96562Z" fill="white"/>
</g>
</svg>
