<svg width="16" height="16" viewBox="0 0 16 16" fill="none" xmlns="http://www.w3.org/2000/svg">
<g id="delete">
<path id="Vector" d="M10.4278 0.5H5.57211C5.17142 0.5 4.84631 0.82486 4.84631 1.2258V2.75797H1.55606C1.15537 2.75797 0.830261 3.08285 0.830261 3.48379C0.830261 3.88473 1.15537 4.2096 1.55606 4.2096H2.21103L2.96231 13.882C3.03275 14.7893 3.8006 15.5 4.7107 15.5H11.2892C12.1993 15.5 12.9672 14.7893 13.0376 13.882L13.7889 4.2096H14.4439C14.8446 4.2096 15.1697 3.88473 15.1697 3.48379C15.1697 3.08285 14.8446 2.75797 14.4439 2.75797H11.1536V1.2258C11.1536 0.82486 10.8285 0.5 10.4278 0.5ZM6.29792 1.9516H9.70203V2.75797H6.29792V1.9516ZM12.3331 4.2096L11.5907 13.7696C11.5784 13.926 11.4461 14.0484 11.2892 14.0484H4.7107C4.55381 14.0484 4.42151 13.926 4.40921 13.7696L3.66687 4.2096H12.3331Z" fill="#D3FB8F"/>
<path id="Vector_2" d="M5.71436 11.8012C6.11505 11.8012 6.44016 11.4761 6.44016 11.0754V7.18314C6.44016 6.7822 6.11505 6.45734 5.71436 6.45734C5.31363 6.45734 4.98853 6.7822 4.98853 7.18314V11.0754C4.98853 11.4761 5.31363 11.8012 5.71436 11.8012ZM7.99997 12.6272C8.40067 12.6272 8.72577 12.3021 8.72577 11.9014V6.35715C8.72577 5.95621 8.40067 5.63135 7.99997 5.63135C7.59928 5.63135 7.27417 5.95621 7.27417 6.35715V11.9014C7.27417 12.3021 7.59928 12.6272 7.99997 12.6272ZM10.2856 11.8012C10.6863 11.8012 11.0114 11.4761 11.0114 11.0754V7.18314C11.0114 6.7822 10.6863 6.45734 10.2856 6.45734C9.88489 6.45734 9.55979 6.7822 9.55979 7.18314V11.0754C9.55979 11.4761 9.88489 11.8012 10.2856 11.8012Z" fill="#D3FB8F"/>
</g>
</svg>
