<svg width="16" height="16" viewBox="0 0 16 16" fill="none" xmlns="http://www.w3.org/2000/svg">
<g id="delete-account">
<path id="Vector" d="M7.99999 7.83333C9.74666 7.83333 11.1667 6.41333 11.1667 4.66667C11.1667 2.92 9.74666 1.5 7.99999 1.5C6.25332 1.5 4.83332 2.92 4.83332 4.66667C4.83332 6.41333 6.25332 7.83333 7.99999 7.83333ZM7.99999 2.5C9.19332 2.5 10.1667 3.47333 10.1667 4.66667C10.1667 5.86 9.19332 6.83333 7.99999 6.83333C6.80666 6.83333 5.83332 5.86 5.83332 4.66667C5.83332 3.47333 6.80666 2.5 7.99999 2.5ZM5.99999 9.83333H8.66666C8.93999 9.83333 9.16666 9.60667 9.16666 9.33333C9.16666 9.06 8.93999 8.83333 8.66666 8.83333H5.99999C3.88666 8.83333 2.16666 10.5533 2.16666 12.6667C2.16666 13.68 2.98666 14.5 3.99999 14.5H8.64666C8.91999 14.5 9.14666 14.2733 9.14666 14C9.14666 13.7267 8.91999 13.5 8.64666 13.5H3.99999C3.53999 13.5 3.16666 13.1267 3.16666 12.6667C3.16666 11.1067 4.43999 9.83333 5.99999 9.83333ZM12.7067 12L13.7667 10.94C13.96 10.7467 13.96 10.4267 13.7667 10.2333C13.5733 10.04 13.2533 10.04 13.06 10.2333L12 11.2933L10.94 10.2333C10.7467 10.04 10.4267 10.04 10.2333 10.2333C10.04 10.4267 10.04 10.7467 10.2333 10.94L11.2933 12L10.2333 13.06C10.04 13.2533 10.04 13.5733 10.2333 13.7667C10.3333 13.8667 10.46 13.9133 10.5867 13.9133C10.7133 13.9133 10.84 13.8667 10.94 13.7667L12 12.7067L13.06 13.7667C13.16 13.8667 13.2867 13.9133 13.4133 13.9133C13.54 13.9133 13.6667 13.8667 13.7667 13.7667C13.96 13.5733 13.96 13.2533 13.7667 13.06L12.7067 12Z" fill="#D3FB8F"/>
</g>
</svg>
