<svg width="24" height="24" viewBox="0 0 24 24" fill="none" xmlns="http://www.w3.org/2000/svg">
<g id="dots-menu">
<path id="Vector" d="M12.0938 10.875C11.4206 10.875 10.875 11.4206 10.875 12.0938C10.875 12.7668 11.4206 13.3125 12.0938 13.3125C12.7668 13.3125 13.3125 12.7669 13.3125 12.0938C13.3125 11.4206 12.7668 10.875 12.0938 10.875ZM12.0938 17.4375C11.4206 17.4375 10.875 17.9831 10.875 18.6562C10.875 19.3294 11.4206 19.875 12.0938 19.875C12.7668 19.875 13.3125 19.3294 13.3125 18.6562C13.3125 17.9831 12.7668 17.4375 12.0938 17.4375ZM12.0938 4.3125C11.4206 4.3125 10.875 4.85814 10.875 5.53125C10.875 6.20434 11.4206 6.75 12.0938 6.75C12.7668 6.75 13.3125 6.20436 13.3125 5.53125C13.3125 4.85814 12.7668 4.3125 12.0938 4.3125Z" fill="#404D78" stroke="#404D78" stroke-width="1.3125"/>
</g>
</svg>
