<svg width="24" height="25" viewBox="0 0 24 25" fill="none" xmlns="http://www.w3.org/2000/svg">
<path d="M20.0325 20.4949H3.96753C3.12246 20.4939 2.31228 20.1577 1.71472 19.5602C1.11717 18.9626 0.781022 18.1525 0.780029 17.3074V7.69238C0.781022 6.84731 1.11717 6.03713 1.71472 5.43958C2.31228 4.84202 3.12246 4.50588 3.96753 4.50488H20.0325C20.8776 4.50588 21.6878 4.84202 22.2853 5.43958C22.8829 6.03713 23.219 6.84731 23.22 7.69238V17.3074C23.219 18.1525 22.8829 18.9626 22.2853 19.5602C21.6878 20.1577 20.8776 20.4939 20.0325 20.4949ZM3.96753 5.62988C3.42052 5.62988 2.89592 5.84718 2.50912 6.23397C2.12233 6.62077 1.90503 7.14537 1.90503 7.69238V17.3074C1.90503 17.8544 2.12233 18.379 2.50912 18.7658C2.89592 19.1526 3.42052 19.3699 3.96753 19.3699H20.0325C20.5795 19.3699 21.1041 19.1526 21.4909 18.7658C21.8777 18.379 22.095 17.8544 22.095 17.3074V7.69238C22.095 7.14537 21.8777 6.62077 21.4909 6.23397C21.1041 5.84718 20.5795 5.62988 20.0325 5.62988H3.96753Z" fill="#636699"/>
<path d="M12 14.7798C11.3061 14.7809 10.6308 14.5558 10.0763 14.1386L1.32005 7.51609C1.25818 7.47267 1.2057 7.41722 1.16574 7.35307C1.12578 7.28891 1.09915 7.21736 1.08746 7.14269C1.07577 7.06802 1.07924 6.99175 1.09768 6.91845C1.11612 6.84515 1.14914 6.77632 1.19477 6.71607C1.2404 6.65581 1.29771 6.60537 1.36327 6.56776C1.42883 6.53015 1.5013 6.50613 1.57634 6.49715C1.65139 6.48817 1.72748 6.4944 1.80006 6.51548C1.87265 6.53656 1.94024 6.57205 1.9988 6.61984L10.7551 13.2498C11.1146 13.5183 11.5513 13.6633 12 13.6633C12.4488 13.6633 12.8855 13.5183 13.2451 13.2498L22.0013 6.61984C22.0599 6.57205 22.1275 6.53656 22.2 6.51548C22.2726 6.4944 22.3487 6.48817 22.4238 6.49715C22.4988 6.50613 22.5713 6.53015 22.6368 6.56776C22.7024 6.60537 22.7597 6.65581 22.8053 6.71607C22.851 6.77632 22.884 6.84515 22.9024 6.91845C22.9209 6.99175 22.9243 7.06802 22.9126 7.14269C22.9009 7.21736 22.8743 7.28891 22.8344 7.35307C22.7944 7.41722 22.7419 7.47267 22.68 7.51609L13.9238 14.1386C13.3693 14.5558 12.694 14.7809 12 14.7798Z" fill="#636699"/>
<path d="M1.56369 18.9277C1.44961 18.9279 1.33817 18.8934 1.24416 18.8287C1.15016 18.7641 1.07803 18.6724 1.03734 18.5658C0.996663 18.4592 0.989352 18.3428 1.01638 18.232C1.04341 18.1211 1.10351 18.0211 1.18869 17.9452L8.08869 11.7915C8.20008 11.692 8.34642 11.6409 8.49551 11.6493C8.6446 11.6578 8.78424 11.7251 8.88369 11.8365C8.98315 11.9479 9.03428 12.0942 9.02584 12.2433C9.0174 12.3924 8.95008 12.532 8.83869 12.6315L1.93869 18.7852C1.83622 18.8785 1.70222 18.9294 1.56369 18.9277ZM22.4362 18.9277C22.2977 18.9294 22.1637 18.8785 22.0612 18.7852L15.1612 12.6315C15.0498 12.532 14.9825 12.3924 14.974 12.2433C14.9656 12.0942 15.0167 11.9479 15.1162 11.8365C15.2156 11.7251 15.3553 11.6578 15.5044 11.6493C15.6535 11.6409 15.7998 11.692 15.9112 11.7915L22.8074 17.9452C22.8926 18.0211 22.9527 18.1211 22.9797 18.232C23.0068 18.3428 22.9995 18.4592 22.9588 18.5658C22.9181 18.6724 22.846 18.7641 22.752 18.8287C22.658 18.8934 22.5465 18.9279 22.4324 18.9277H22.4362Z" fill="#636699"/>
</svg>
