<svg width="24" height="25" viewBox="0 0 24 25" fill="none" xmlns="http://www.w3.org/2000/svg">
<path d="M20.0325 20.4949H3.96753C3.12246 20.4939 2.31228 20.1577 1.71472 19.5602C1.11717 18.9626 0.781022 18.1525 0.780029 17.3074V7.69238C0.781022 6.84731 1.11717 6.03713 1.71472 5.43958C2.31228 4.84202 3.12246 4.50588 3.96753 4.50488H20.0325C20.8776 4.50588 21.6878 4.84202 22.2853 5.43958C22.8829 6.03713 23.219 6.84731 23.22 7.69238V17.3074C23.219 18.1525 22.8829 18.9626 22.2853 19.5602C21.6878 20.1577 20.8776 20.4939 20.0325 20.4949ZM3.96753 5.62988C3.42052 5.62988 2.89592 5.84718 2.50912 6.23397C2.12233 6.62077 1.90503 7.14537 1.90503 7.69238V17.3074C1.90503 17.8544 2.12233 18.379 2.50912 18.7658C2.89592 19.1526 3.42052 19.3699 3.96753 19.3699H20.0325C20.5795 19.3699 21.1041 19.1526 21.4909 18.7658C21.8777 18.379 22.095 17.8544 22.095 17.3074V7.69238C22.095 7.14537 21.8777 6.62077 21.4909 6.23397C21.1041 5.84718 20.5795 5.62988 20.0325 5.62988H3.96753Z" fill="#636699"/>
<path d="M11.9999 14.7798C11.306 14.7809 10.6307 14.5558 10.0762 14.1386L1.31993 7.51609C1.25806 7.47267 1.20558 7.41722 1.16562 7.35307C1.12566 7.28891 1.09903 7.21736 1.08734 7.14269C1.07565 7.06802 1.07912 6.99175 1.09756 6.91845C1.116 6.84515 1.14902 6.77632 1.19465 6.71607C1.24028 6.65581 1.29759 6.60537 1.36315 6.56776C1.42871 6.53015 1.50117 6.50613 1.57622 6.49715C1.65127 6.48817 1.72736 6.4944 1.79994 6.51548C1.87252 6.53656 1.94012 6.57205 1.99868 6.61984L10.7549 13.2498C11.1145 13.5183 11.5512 13.6633 11.9999 13.6633C12.4486 13.6633 12.8853 13.5183 13.2449 13.2498L22.0012 6.61984C22.0597 6.57205 22.1273 6.53656 22.1999 6.51548C22.2725 6.4944 22.3486 6.48817 22.4236 6.49715C22.4987 6.50613 22.5712 6.53015 22.6367 6.56776C22.7023 6.60537 22.7596 6.65581 22.8052 6.71607C22.8508 6.77632 22.8839 6.84515 22.9023 6.91845C22.9207 6.99175 22.9242 7.06802 22.9125 7.14269C22.9008 7.21736 22.8742 7.28891 22.8342 7.35307C22.7943 7.41722 22.7418 7.47267 22.6799 7.51609L13.9237 14.1386C13.3692 14.5558 12.6938 14.7809 11.9999 14.7798Z" fill="#636699"/>
<path d="M1.56381 18.9277C1.44973 18.9279 1.33829 18.8934 1.24428 18.8287C1.15028 18.7641 1.07815 18.6724 1.03747 18.5658C0.996785 18.4592 0.989475 18.3428 1.01651 18.232C1.04354 18.1211 1.10363 18.0211 1.18882 17.9452L8.08881 11.7915C8.20021 11.692 8.34654 11.6409 8.49563 11.6493C8.64473 11.6578 8.78436 11.7251 8.88381 11.8365C8.98327 11.9479 9.0344 12.0942 9.02596 12.2433C9.01753 12.3924 8.95021 12.532 8.83881 12.6315L1.93881 18.7852C1.83635 18.8785 1.70234 18.9294 1.56381 18.9277ZM22.4363 18.9277C22.2978 18.9294 22.1638 18.8785 22.0613 18.7852L15.1613 12.6315C15.0499 12.532 14.9826 12.3924 14.9742 12.2433C14.9657 12.0942 15.0169 11.9479 15.1163 11.8365C15.2158 11.7251 15.3554 11.6578 15.5045 11.6493C15.6536 11.6409 15.7999 11.692 15.9113 11.7915L22.8076 17.9452C22.8927 18.0211 22.9528 18.1211 22.9799 18.232C23.0069 18.3428 22.9996 18.4592 22.9589 18.5658C22.9182 18.6724 22.8461 18.7641 22.7521 18.8287C22.6581 18.8934 22.5466 18.9279 22.4326 18.9277H22.4363Z" fill="#636699"/>
</svg>
