<svg width="16" height="16" viewBox="0 0 16 16" fill="none" xmlns="http://www.w3.org/2000/svg">
<g id="feedback" clip-path="url(#clip0_44_4455)">
<path id="Vector" d="M7.0615 9.99378L7.0495 9.93128C7.4705 9.23628 7.722 8.40978 7.722 7.72028C7.722 6.18278 6.471 4.93178 4.9335 4.93178C3.396 4.93178 2.145 6.18278 2.145 7.71978C2.145 8.40978 2.3965 9.23678 2.8175 9.93078L2.8055 9.99328C2.13133 10.2275 1.54694 10.666 1.13371 11.2479C0.720479 11.8298 0.498964 12.5261 0.500004 13.2398V13.7428C0.500533 14.1952 0.680494 14.629 1.00041 14.9489C1.32033 15.2688 1.75407 15.4488 2.2065 15.4493H7.6605C8.11293 15.4488 8.54668 15.2688 8.8666 14.9489C9.18651 14.629 9.36647 14.1952 9.367 13.7428V13.2398C9.36773 12.5263 9.14607 11.8304 8.73286 11.2488C8.31965 10.6672 7.73544 10.2289 7.0615 9.99478V9.99378ZM8.367 13.7423C8.367 14.1323 8.0505 14.4488 7.6605 14.4488H2.2065C1.8165 14.4488 1.5 14.1323 1.5 13.7423V13.2398C1.49927 12.7343 1.65611 12.2411 1.94869 11.8289C2.24128 11.4167 2.65507 11.1059 3.1325 10.9398C3.27815 10.8898 3.41068 10.8076 3.52026 10.6995C3.62984 10.5913 3.71366 10.4598 3.7655 10.3148C3.81867 10.1672 3.83796 10.0095 3.82195 9.85349C3.80594 9.69744 3.75503 9.54699 3.673 9.41328C3.347 8.87678 3.145 8.22828 3.145 7.72078C3.145 6.73478 3.9475 5.93228 4.9335 5.93228C5.9195 5.93228 6.722 6.73478 6.722 7.72078C6.722 8.22778 6.52 8.87628 6.1945 9.41328C6.1122 9.54707 6.06111 9.69767 6.04501 9.85392C6.0289 10.0102 6.04822 10.168 6.1015 10.3158C6.15367 10.4606 6.23774 10.5919 6.34747 10.6999C6.45721 10.808 6.58982 10.8899 6.7355 10.9398C7.21275 11.1061 7.62632 11.4169 7.91872 11.8291C8.21112 12.2413 8.36781 12.7344 8.367 13.2398V13.7423ZM13.918 0.550781H9.43C9.01051 0.551178 8.6083 0.717964 8.31162 1.01455C8.01495 1.31113 7.84803 1.71328 7.8475 2.13278V4.79428C7.84803 5.21378 8.01495 5.61593 8.31162 5.91252C8.6083 6.2091 9.01051 6.37588 9.43 6.37628L9.4325 7.90228C9.43232 8.00577 9.46426 8.10676 9.5239 8.19133C9.58355 8.2759 9.66797 8.33988 9.76551 8.37444C9.86306 8.409 9.96892 8.41245 10.0685 8.3843C10.1681 8.35615 10.2565 8.29779 10.3215 8.21728L11.8095 6.37628H13.918C14.3374 6.37588 14.7394 6.20915 15.036 5.91266C15.3326 5.61617 15.4995 5.21415 15.5 4.79478V2.13278C15.4996 1.71333 15.3328 1.31117 15.0362 1.01458C14.7396 0.71798 14.3375 0.551178 13.918 0.550781ZM14.5 4.79428C14.5 5.11528 14.239 5.37628 13.918 5.37628H11.571C11.4964 5.37626 11.4227 5.39296 11.3554 5.42515C11.2881 5.45733 11.2288 5.50419 11.182 5.56228L10.4325 6.48878V5.87628C10.4325 5.74367 10.3798 5.6165 10.2861 5.52273C10.1923 5.42896 10.0651 5.37628 9.9325 5.37628H9.43C9.27564 5.37615 9.12763 5.3148 9.01844 5.2057C8.90924 5.0966 8.84777 4.94864 8.8475 4.79428V2.13278C8.8475 1.81178 9.109 1.55078 9.43 1.55078H13.918C14.239 1.55078 14.5 1.81178 14.5 2.13278V4.79428Z" fill="#D3FB8F"/>
<path id="Vector_2" d="M10.232 3.10156C10.1359 3.10156 10.0437 3.13975 9.97568 3.20774C9.9077 3.27572 9.86951 3.36792 9.86951 3.46406C9.86951 3.5602 9.9077 3.65241 9.97568 3.72039C10.0437 3.78837 10.1359 3.82656 10.232 3.82656C10.3281 3.82656 10.4204 3.78837 10.4883 3.72039C10.5563 3.65241 10.5945 3.5602 10.5945 3.46406C10.5945 3.36792 10.5563 3.27572 10.4883 3.20774C10.4204 3.13975 10.3281 3.10156 10.232 3.10156ZM11.674 3.10156C11.5779 3.10156 11.4857 3.13975 11.4177 3.20774C11.3497 3.27572 11.3115 3.36792 11.3115 3.46406C11.3115 3.5602 11.3497 3.65241 11.4177 3.72039C11.4857 3.78837 11.5779 3.82656 11.674 3.82656C11.7701 3.82656 11.8624 3.78837 11.9303 3.72039C11.9983 3.65241 12.0365 3.5602 12.0365 3.46406C12.0365 3.36792 11.9983 3.27572 11.9303 3.20774C11.8624 3.13975 11.7701 3.10156 11.674 3.10156ZM13.116 3.10156C13.0199 3.10156 12.9277 3.13975 12.8597 3.20774C12.7917 3.27572 12.7535 3.36792 12.7535 3.46406C12.7535 3.5602 12.7917 3.65241 12.8597 3.72039C12.9277 3.78837 13.0199 3.82656 13.116 3.82656C13.2121 3.82656 13.3044 3.78837 13.3723 3.72039C13.4403 3.65241 13.4785 3.5602 13.4785 3.46406C13.4785 3.36792 13.4403 3.27572 13.3723 3.20774C13.3044 3.13975 13.2121 3.10156 13.116 3.10156Z" fill="#D3FB8F"/>
</g>
<defs>
<clipPath id="clip0_44_4455">
<rect width="16" height="16" fill="white"/>
</clipPath>
</defs>
</svg>
