<svg width="317" height="59" viewBox="0 0 317 59" fill="none" xmlns="http://www.w3.org/2000/svg">
<rect width="317" height="59" rx="18" fill="#2A2C58"/>
<path d="M30.5 25C30.5 24.11 30.2361 23.24 29.7416 22.4999C29.2471 21.7599 28.5443 21.1831 27.7221 20.8425C26.8998 20.5019 25.995 20.4128 25.1221 20.5865C24.2492 20.7601 23.4474 21.1887 22.818 21.818C22.1887 22.4474 21.7601 23.2492 21.5865 24.1221C21.4128 24.995 21.5019 25.8998 21.8425 26.7221C22.1831 27.5443 22.7599 28.2471 23.4999 28.7416C24.24 29.2361 25.11 29.5 26 29.5C27.1935 29.5 28.3381 29.0259 29.182 28.182C30.0259 27.3381 30.5 26.1935 30.5 25ZM23 25C23 24.4067 23.1759 23.8266 23.5056 23.3333C23.8352 22.8399 24.3038 22.4554 24.8519 22.2284C25.4001 22.0013 26.0033 21.9419 26.5853 22.0576C27.1672 22.1734 27.7018 22.4591 28.1213 22.8787C28.5409 23.2982 28.8266 23.8328 28.9424 24.4147C29.0581 24.9967 28.9987 25.5999 28.7716 26.1481C28.5446 26.6962 28.1601 27.1648 27.6667 27.4944C27.1734 27.8241 26.5933 28 26 28C25.2044 28 24.4413 27.6839 23.8787 27.1213C23.3161 26.5587 23 25.7957 23 25ZM18.5 36.1975C18.5 36.7942 18.7371 37.3665 19.159 37.7885C19.581 38.2104 20.1533 38.4475 20.75 38.4475H31.25C31.8467 38.4475 32.419 38.2104 32.841 37.7885C33.2629 37.3665 33.5 36.7942 33.5 36.1975C33.5 34.8051 32.9469 33.4698 31.9623 32.4852C30.9777 31.5006 29.6424 30.9475 28.25 30.9475H23.75C22.3576 30.9475 21.0223 31.5006 20.0377 32.4852C19.0531 33.4698 18.5 34.8051 18.5 36.1975ZM23.75 32.4475H28.25C28.7425 32.4475 29.2301 32.5445 29.6851 32.733C30.14 32.9214 30.5534 33.1976 30.9017 33.5459C31.2499 33.8941 31.5261 34.3075 31.7145 34.7624C31.903 35.2174 32 35.705 32 36.1975C32 36.3964 31.921 36.5872 31.7803 36.7278C31.6397 36.8685 31.4489 36.9475 31.25 36.9475H20.75C20.5511 36.9475 20.3603 36.8685 20.2197 36.7278C20.079 36.5872 20 36.3964 20 36.1975C20 35.2029 20.3951 34.2491 21.0983 33.5459C21.8016 32.8426 22.7554 32.4475 23.75 32.4475Z" fill="#636699"/>
<path d="M55.0963 24.27V25.572H50.9663V28.442H54.1863V29.744H50.9663V34H49.3703V24.27H55.0963ZM57.3874 25.264C57.0981 25.264 56.8554 25.166 56.6594 24.97C56.4634 24.774 56.3654 24.5313 56.3654 24.242C56.3654 23.9527 56.4634 23.71 56.6594 23.514C56.8554 23.318 57.0981 23.22 57.3874 23.22C57.6674 23.22 57.9054 23.318 58.1014 23.514C58.2974 23.71 58.3954 23.9527 58.3954 24.242C58.3954 24.5313 58.2974 24.774 58.1014 24.97C57.9054 25.166 57.6674 25.264 57.3874 25.264ZM58.1714 26.286V34H56.5754V26.286H58.1714ZM61.8628 27.406C62.0961 27.014 62.4041 26.7107 62.7868 26.496C63.1788 26.272 63.6408 26.16 64.1728 26.16V27.812H63.7668C63.1415 27.812 62.6655 27.9707 62.3388 28.288C62.0215 28.6053 61.8628 29.156 61.8628 29.94V34H60.2668V26.286H61.8628V27.406ZM68.4398 34.126C67.8332 34.126 67.2872 34.0187 66.8018 33.804C66.3258 33.58 65.9478 33.2813 65.6678 32.908C65.3878 32.5253 65.2385 32.1007 65.2198 31.634H66.8718C66.8998 31.9607 67.0538 32.236 67.3338 32.46C67.6232 32.6747 67.9825 32.782 68.4118 32.782C68.8598 32.782 69.2052 32.698 69.4478 32.53C69.6998 32.3527 69.8258 32.1287 69.8258 31.858C69.8258 31.5687 69.6858 31.354 69.4058 31.214C69.1352 31.074 68.7012 30.92 68.1038 30.752C67.5252 30.5933 67.0538 30.4393 66.6898 30.29C66.3258 30.1407 66.0085 29.912 65.7378 29.604C65.4765 29.296 65.3458 28.89 65.3458 28.386C65.3458 27.9753 65.4672 27.602 65.7098 27.266C65.9525 26.9207 66.2978 26.65 66.7458 26.454C67.2032 26.258 67.7258 26.16 68.3138 26.16C69.1912 26.16 69.8958 26.384 70.4278 26.832C70.9692 27.2707 71.2585 27.8727 71.2958 28.638H69.6998C69.6718 28.2927 69.5318 28.0173 69.2798 27.812C69.0278 27.6067 68.6872 27.504 68.2578 27.504C67.8378 27.504 67.5158 27.5833 67.2918 27.742C67.0678 27.9007 66.9558 28.1107 66.9558 28.372C66.9558 28.5773 67.0305 28.75 67.1798 28.89C67.3292 29.03 67.5112 29.142 67.7258 29.226C67.9405 29.3007 68.2578 29.3987 68.6778 29.52C69.2378 29.6693 69.6952 29.8233 70.0498 29.982C70.4138 30.1313 70.7265 30.3553 70.9878 30.654C71.2492 30.9527 71.3845 31.3493 71.3938 31.844C71.3938 32.2827 71.2725 32.6747 71.0298 33.02C70.7872 33.3653 70.4418 33.636 69.9938 33.832C69.5552 34.028 69.0372 34.126 68.4398 34.126ZM74.9804 27.588V31.858C74.9804 32.1473 75.0457 32.3573 75.1764 32.488C75.3164 32.6093 75.5497 32.67 75.8764 32.67H76.8564V34H75.5964C74.8777 34 74.327 33.832 73.9444 33.496C73.5617 33.16 73.3704 32.614 73.3704 31.858V27.588H72.4604V26.286H73.3704V24.368H74.9804V26.286H76.8564V27.588H74.9804ZM89.9581 34H88.3621L83.5601 26.734V34H81.9641V24.256H83.5601L88.3621 31.508V24.256H89.9581V34ZM91.5219 30.108C91.5219 29.3333 91.6806 28.6473 91.9979 28.05C92.3246 27.4527 92.7632 26.9907 93.3139 26.664C93.8739 26.328 94.4899 26.16 95.1619 26.16C95.7686 26.16 96.2959 26.2813 96.7439 26.524C97.2012 26.7573 97.5652 27.0513 97.8359 27.406V26.286H99.4459V34H97.8359V32.852C97.5652 33.216 97.1966 33.5193 96.7299 33.762C96.2632 34.0047 95.7312 34.126 95.1339 34.126C94.4712 34.126 93.8646 33.958 93.3139 33.622C92.7632 33.2767 92.3246 32.8007 91.9979 32.194C91.6806 31.578 91.5219 30.8827 91.5219 30.108ZM97.8359 30.136C97.8359 29.604 97.7239 29.142 97.4999 28.75C97.2852 28.358 97.0006 28.0593 96.6459 27.854C96.2912 27.6487 95.9086 27.546 95.4979 27.546C95.0872 27.546 94.7046 27.6487 94.3499 27.854C93.9952 28.05 93.7059 28.344 93.4819 28.736C93.2672 29.1187 93.1599 29.576 93.1599 30.108C93.1599 30.64 93.2672 31.1067 93.4819 31.508C93.7059 31.9093 93.9952 32.2173 94.3499 32.432C94.7139 32.6373 95.0966 32.74 95.4979 32.74C95.9086 32.74 96.2912 32.6373 96.6459 32.432C97.0006 32.2267 97.2852 31.928 97.4999 31.536C97.7239 31.1347 97.8359 30.668 97.8359 30.136ZM110.88 26.16C111.487 26.16 112.028 26.286 112.504 26.538C112.99 26.79 113.368 27.1633 113.638 27.658C113.918 28.1527 114.058 28.75 114.058 29.45V34H112.476V29.688C112.476 28.9973 112.304 28.47 111.958 28.106C111.613 27.7327 111.142 27.546 110.544 27.546C109.947 27.546 109.471 27.7327 109.116 28.106C108.771 28.47 108.598 28.9973 108.598 29.688V34H107.016V29.688C107.016 28.9973 106.844 28.47 106.498 28.106C106.153 27.7327 105.682 27.546 105.084 27.546C104.487 27.546 104.011 27.7327 103.656 28.106C103.311 28.47 103.138 28.9973 103.138 29.688V34H101.542V26.286H103.138V27.168C103.4 26.8507 103.731 26.6033 104.132 26.426C104.534 26.2487 104.963 26.16 105.42 26.16C106.036 26.16 106.587 26.2907 107.072 26.552C107.558 26.8133 107.931 27.1913 108.192 27.686C108.426 27.2193 108.79 26.8507 109.284 26.58C109.779 26.3 110.311 26.16 110.88 26.16ZM123.159 29.954C123.159 30.2433 123.14 30.5047 123.103 30.738H117.209C117.256 31.354 117.484 31.8487 117.895 32.222C118.306 32.5953 118.81 32.782 119.407 32.782C120.266 32.782 120.872 32.4227 121.227 31.704H122.949C122.716 32.4133 122.291 32.9967 121.675 33.454C121.068 33.902 120.312 34.126 119.407 34.126C118.67 34.126 118.007 33.9627 117.419 33.636C116.84 33.3 116.383 32.8333 116.047 32.236C115.72 31.6293 115.557 30.9293 115.557 30.136C115.557 29.3427 115.716 28.6473 116.033 28.05C116.36 27.4433 116.812 26.9767 117.391 26.65C117.979 26.3233 118.651 26.16 119.407 26.16C120.135 26.16 120.784 26.3187 121.353 26.636C121.922 26.9533 122.366 27.4013 122.683 27.98C123 28.5493 123.159 29.2073 123.159 29.954ZM121.493 29.45C121.484 28.862 121.274 28.3907 120.863 28.036C120.452 27.6813 119.944 27.504 119.337 27.504C118.786 27.504 118.315 27.6813 117.923 28.036C117.531 28.3813 117.298 28.8527 117.223 29.45H121.493Z" fill="#636699"/>
</svg>
