<svg width="43" height="43" viewBox="0 0 43 43" fill="none" xmlns="http://www.w3.org/2000/svg">
<path d="M15.5937 29.9858V33.313H17.8906C18.3257 33.313 18.743 33.4858 19.0507 33.7935C19.3584 34.1012 19.5312 34.5185 19.5312 34.9536C19.5312 35.3887 19.3584 35.806 19.0507 36.1137C18.743 36.4214 18.3257 36.5942 17.8906 36.5942H15.5937V37.5786C15.5937 38.0137 15.4209 38.431 15.1132 38.7387C14.8055 39.0464 14.3882 39.2192 13.9531 39.2192C13.518 39.2192 13.1007 39.0464 12.793 38.7387C12.4853 38.431 12.3125 38.0137 12.3125 37.5786V36.5942H10.6719C10.2367 36.5942 9.81944 36.4214 9.51176 36.1137C9.20409 35.806 9.03124 35.3887 9.03124 34.9536C9.03124 34.5185 9.20409 34.1012 9.51176 33.7935C9.81944 33.4858 10.2367 33.313 10.6719 33.313H12.3125V29.7823C10.7912 29.4511 9.35931 28.7957 8.11435 27.8608C6.86938 26.9259 5.84066 25.7336 5.09832 24.3651C4.35598 22.9965 3.91749 21.484 3.81274 19.9307C3.708 18.3773 3.93946 16.8196 4.49134 15.3638C5.04323 13.908 5.90256 12.5883 7.01075 11.4948C8.11893 10.4012 9.4499 9.55953 10.9129 9.02704C12.3759 8.49455 13.9365 8.28381 15.4884 8.4092C17.0402 8.53458 18.5468 8.99314 19.9053 9.7536C18.6358 10.2434 17.4694 10.9668 16.4665 11.8864C15.4298 11.6246 14.3493 11.5861 13.2966 11.7735C12.2439 11.9608 11.243 12.3697 10.3602 12.9731C9.47745 13.5765 8.73298 14.3605 8.17613 15.2734C7.61928 16.1862 7.26277 17.2069 7.1302 18.2679C6.99763 19.3289 7.09204 20.406 7.40717 21.4278C7.7223 22.4496 8.25096 23.3927 8.95812 24.1947C9.66528 24.9968 10.5348 25.6394 11.5091 26.08C12.4833 26.5206 13.5401 26.7491 14.6094 26.7505C14.8769 26.7517 15.1443 26.7364 15.41 26.7045C16.6145 26.581 17.7704 26.1642 18.7765 25.4905C19.7391 24.8532 20.5424 24.0035 21.1247 23.0068C21.707 22.0101 22.0527 20.893 22.1351 19.7416C22.2175 18.5902 22.0345 17.4353 21.6001 16.3658C21.1657 15.2963 20.4916 14.3408 19.6297 13.573C20.6358 12.8993 21.7917 12.4824 22.9962 12.3589C24.7428 14.4978 25.6062 17.2233 25.4098 19.9777C25.2134 22.7322 23.9721 25.3076 21.9397 27.177C20.9368 28.0966 19.7704 28.82 18.5009 29.3098C17.5681 29.6694 16.5895 29.8969 15.5937 29.9858Z" fill="#D3FB8F"/>
<path d="M39.2187 5.4222V12.641C39.2187 13.0761 39.0459 13.4934 38.7382 13.8011C38.4305 14.1087 38.0132 14.2816 37.5781 14.2816C37.143 14.2816 36.7257 14.1087 36.418 13.8011C36.1103 13.4934 35.9375 13.0761 35.9375 12.641V9.3597L32.2428 13.0544C33.8291 15.0141 34.6823 17.4656 34.6555 19.9868C34.6286 22.5079 33.7233 24.9407 32.0956 26.8662C30.4679 28.7916 28.2196 30.0891 25.7381 30.5351C23.2566 30.9812 20.6973 30.5478 18.5009 29.3097C19.7704 28.8199 20.9368 28.0965 21.9397 27.1769C22.9764 27.4387 24.0569 27.4772 25.1096 27.2898C26.1624 27.1025 27.1633 26.6936 28.046 26.0902C28.9288 25.4868 29.6732 24.7028 30.2301 23.7899C30.7869 22.8771 31.1434 21.8564 31.276 20.7954C31.4086 19.7344 31.3142 18.6573 30.999 17.6355C30.6839 16.6137 30.1553 15.6706 29.4481 14.8686C28.7409 14.0665 27.8714 13.4239 26.8972 12.9833C25.9229 12.5427 24.8661 12.3142 23.7969 12.3128C23.5293 12.3116 23.2619 12.3269 22.9962 12.3588C21.7917 12.4823 20.6358 12.8991 19.6297 13.5728C18.6672 14.2101 17.8638 15.0598 17.2815 16.0565C16.6992 17.0532 16.3535 18.1703 16.2711 19.3217C16.1887 20.4731 16.3717 21.628 16.8061 22.6975C17.2405 23.767 17.9146 24.7225 18.7765 25.4903C17.7704 26.164 16.6145 26.5809 15.41 26.7044C13.6634 24.5655 12.8 21.84 12.9964 19.0856C13.1928 16.3311 14.4341 13.7557 16.4665 11.8863C18.256 10.2445 20.5446 9.25058 22.9659 9.06378C25.3872 8.87698 27.8011 9.50805 29.8212 10.856L33.6144 7.06283H30.3331C29.898 7.06283 29.4807 6.88998 29.173 6.5823C28.8653 6.27463 28.6925 5.85733 28.6925 5.4222C28.6925 4.98708 28.8653 4.56978 29.173 4.26211C29.4807 3.95443 29.898 3.78158 30.3331 3.78158H37.5519C37.7697 3.7772 37.9863 3.81645 38.1888 3.89702C38.3913 3.97759 38.5756 4.09785 38.7309 4.25072C38.8862 4.40359 39.0094 4.58599 39.0932 4.78718C39.177 4.98836 39.2196 5.20428 39.2187 5.4222Z" fill="#D3FB8F"/>
</svg>
