<svg width="32" height="32" viewBox="0 0 32 32" fill="none" xmlns="http://www.w3.org/2000/svg">
<g clip-path="url(#clip0_44_4143)">
<path d="M31.9832 16.2999C31.9832 14.9889 31.8744 14.0322 31.6388 13.04H16.3188V18.9574H25.3113C25.1301 20.4279 24.151 22.6425 21.9754 24.1306L21.9449 24.3287L26.7888 27.9956L27.1244 28.0284C30.2064 25.2468 31.9832 21.1542 31.9832 16.2999Z" fill="#4285F4"/>
<path d="M16.3188 31.8891C20.7244 31.8891 24.4228 30.4717 27.1243 28.0269L21.9753 24.1291C20.5975 25.0681 18.7482 25.7236 16.3188 25.7236C12.0039 25.7236 8.34163 22.9422 7.03614 19.0977L6.84479 19.1135L1.80806 22.9226L1.74219 23.1016C4.42541 28.3102 9.93697 31.8891 16.3188 31.8891Z" fill="#34A853"/>
<path d="M7.03611 19.0977C6.69164 18.1056 6.49229 17.0425 6.49229 15.9442C6.49229 14.8457 6.69165 13.7827 7.01799 12.7906L7.00886 12.5793L1.90901 8.70898L1.74215 8.78654C0.636269 10.948 0.00170898 13.3752 0.00170898 15.9442C0.00170898 18.5131 0.636269 20.9402 1.74215 23.1017L7.03611 19.0977Z" fill="#FBBC05"/>
<path d="M16.3188 6.16537C19.3827 6.16537 21.4495 7.45869 22.628 8.53948L27.2331 4.14571C24.4049 1.57679 20.7244 0 16.3188 0C9.93697 0 4.42541 3.57875 1.74219 8.78742L7.01802 12.7915C8.34163 8.94693 12.0039 6.16537 16.3188 6.16537Z" fill="#EB4335"/>
</g>
<defs>
<clipPath id="clip0_44_4143">
<rect width="32" height="32" fill="white"/>
</clipPath>
</defs>
</svg>
