<svg width="252" height="232" viewBox="0 0 252 232" fill="none" xmlns="http://www.w3.org/2000/svg">
<g id="Group">
<g id="Group_2">
<g id="Group_3">
<g id="Group_4">
<path id="Vector" d="M106.723 111.361C106.886 111.806 106.814 112.379 106.635 112.84C106.26 113.896 105.28 114.709 104.236 115.148C103.2 115.627 102.061 115.781 100.931 115.975C98.12 116.415 95.2816 116.947 92.5325 117.506L91.9469 117.606C87.9094 118.431 83.8088 119.394 80.1702 121.268C76.482 123.109 73.1924 125.999 71.5727 129.809C70.4323 132.416 70.2096 135.34 70.4393 138.142C70.6795 140.512 72.2262 143.691 71.5515 146.003C71.1158 147.456 62.359 148.661 62.4465 149.163C61.8591 145.303 61.2449 141.532 60.6575 137.673L60.4751 136.627C60.0667 134.286 59.6847 131.854 59.8693 129.454C60.272 124.348 63.177 120.489 66.714 117.039C70.0284 113.799 73.0604 109.919 75.7706 106.18C77.2298 104.164 78.5471 102.085 79.7193 99.9031C79.8776 99.5746 80.0708 99.1966 80.228 98.8683C81.1572 97.0293 81.9046 95.1344 82.4622 93.1439L87.3402 94.4158C89.9275 97.6304 92.5221 100.887 95.4916 103.821C97.8689 106.082 100.903 108.402 104.069 109.493C105.084 109.878 106.324 110.311 106.723 111.361Z" fill="#E2212E"/>
</g>
<g id="Group_5">
<path id="Vector_2" d="M106.744 111.36C106.908 111.804 106.836 112.378 106.657 112.84C106.282 113.895 105.302 114.708 104.258 115.147C103.222 115.626 102.083 115.779 100.953 115.973C98.1421 116.413 95.3037 116.945 92.5547 117.504C92.616 115.383 92.0771 113.28 91.1827 111.368C89.9559 108.779 88.1027 106.558 86.1868 104.476C84.3277 102.471 82.3585 100.57 80.2505 98.8668C81.1797 97.0277 81.9273 95.1341 82.4849 93.1437L87.3626 94.4144C89.9498 97.6289 92.5443 100.886 95.5137 103.819C97.891 106.08 100.925 108.401 104.091 109.492C105.106 109.877 106.346 110.309 106.744 111.36Z" fill="black"/>
</g>
<g id="Group_6">
<path id="Vector_3" d="M88.9936 110.113C89.231 111.966 87.6724 113.655 85.9872 114.375C84.2598 115.103 82.3332 115.176 80.5136 115.618C77.6619 116.324 75.0629 117.979 72.9127 119.984C71.4277 121.359 70.1123 122.963 69.4979 124.877C68.3776 128.342 69.6952 132.68 67.2915 135.461C66.2458 136.632 64.7129 137.239 63.1641 137.506C62.3268 137.65 61.4762 137.71 60.6521 137.68L60.4697 136.635C60.0614 134.294 59.6794 131.862 59.864 129.462C60.2667 124.355 63.1716 120.497 66.7086 117.047C70.023 113.807 73.0549 109.927 75.7651 106.188C77.2242 104.172 78.5416 102.093 79.7137 99.9112C81.1629 102.288 83.12 104.363 85.3879 105.997C86.9195 107.111 88.7562 108.259 88.9936 110.113Z" fill="#F72F43"/>
</g>
</g>
<g id="Group_7">
<g id="Group_8">
<path id="Vector_4" d="M170.746 124.75C171.018 125.502 170.689 126.311 170.174 126.869C169.668 127.473 168.975 127.828 168.285 128.182C168.202 128.244 168.11 128.26 168.027 128.32C167.503 128.552 166.94 128.836 166.371 129.075C165.239 129.599 164.097 130.078 162.941 130.464C161.436 131.006 160.009 131.722 158.441 132.179C153.975 133.559 149.275 134.131 144.607 133.806C142.563 133.688 140.539 133.426 138.577 132.964C136.812 132.563 135.069 132.016 133.356 131.37C132.599 131.078 131.844 130.785 131.125 130.439L115.669 117.116C113.537 115.414 111.603 113.49 109.909 111.337C109.032 110.36 108.239 109.322 107.538 108.267C107.283 107.889 107.029 107.508 106.812 107.076C106.689 106.908 106.611 106.735 106.533 106.56C105.481 104.579 104.955 102.366 106.001 100.54C107.077 98.6155 109.443 97.8797 111.651 97.5935C112.848 97.4351 114.015 97.3758 115.197 97.4074C122.828 97.4574 130.256 100.645 137.272 103.903C146.544 108.23 155.675 112.818 164.55 117.824C165.752 118.51 166.908 119.206 167.829 120.175C168.752 121.144 169.173 122.482 170.021 123.558C170.321 123.929 170.62 124.302 170.746 124.75Z" fill="#FF9F1C"/>
</g>
<g id="Group_9">
<path id="Vector_5" d="M170.748 124.752C171.02 125.504 170.692 126.313 170.177 126.872C169.672 127.475 168.979 127.83 168.288 128.184C168.205 128.245 168.112 128.261 168.029 128.322C167.205 128.181 166.364 127.951 165.591 127.566C163.703 126.715 162.091 125.302 160.411 124.039C152.381 117.665 143.148 112.766 133.328 109.613C127.405 107.765 121.204 106.481 114.984 106.704L109.909 111.339C109.033 110.362 108.24 109.323 107.539 108.268C107.284 107.889 107.03 107.509 106.813 107.076C108.103 103.939 110.3 101.164 112.938 99.0181C113.68 98.4202 114.431 97.8683 115.199 97.4074C122.83 97.4574 130.258 100.645 137.274 103.903C146.546 108.231 155.677 112.82 164.552 117.827C165.755 118.513 166.911 119.207 167.833 120.176C168.755 121.145 169.175 122.484 170.023 123.56C170.323 123.931 170.622 124.303 170.748 124.752Z" fill="black"/>
</g>
<g id="Group_10">
<path id="Vector_6" d="M133.338 131.38C132.581 131.088 131.826 130.794 131.107 130.448L115.659 117.131C112.538 114.615 109.758 111.616 107.531 108.287C107.153 107.741 106.823 107.186 106.528 106.58C107.188 106.044 107.953 105.583 108.805 105.343C110.333 104.939 111.937 105.228 113.433 105.722C115.482 106.403 117.356 107.443 118.997 108.758C120.485 110.005 121.776 111.474 123.021 112.951C123.959 114.011 124.904 115.118 125.804 116.232C126.635 117.216 127.465 118.201 128.121 119.263C129.756 121.895 130.517 124.911 131.628 127.775C132.125 129.004 132.668 130.227 133.338 131.38Z" fill="black"/>
</g>
<g id="Group_11">
<path id="Vector_7" d="M183.279 106.142C183.334 106.461 183.398 106.827 183.408 107.154C183.702 108.843 183.859 110.556 183.529 112.163C183.256 113.574 182.642 114.902 181.956 116.102C179.729 120.059 176.55 123.426 172.794 125.906C172.544 126.09 172.24 126.236 171.981 126.375C171.298 126.775 170.608 127.129 169.847 127.353C167.51 127.991 166.126 126.537 164.265 125.305C162.288 123.953 160.31 122.601 158.34 121.294C154.931 119.013 151.574 116.769 147.991 114.847C144.255 112.857 140.271 111.332 136.37 109.747C133.846 108.771 131.369 107.788 128.749 107.063C123.614 105.689 118.259 105.482 112.924 105.93C112.184 106.01 111.4 106.098 110.661 106.178C109.412 106.299 108.17 106.465 106.986 106.153C105.794 105.794 104.726 104.802 104.693 103.538C104.711 102.83 105.103 102.104 105.517 101.516C107.014 99.5668 109.069 98.1314 111.203 96.8713C121.878 90.6145 134.298 88.1485 146.583 86.2697L181.599 101.636C182.413 102.53 182.811 103.731 183.026 104.964C183.135 105.321 183.207 105.732 183.279 106.142Z" fill="#FF9F1C"/>
</g>
<g id="Group_12">
<path id="Vector_8" d="M183.043 104.977C182.89 104.91 182.698 104.895 182.545 104.828C172.853 101.887 162.743 100.334 152.676 99.2915C146.638 98.6844 140.4 97.7362 134.34 98.3567C127.916 99.0399 121.603 100.362 115.462 102.407C114.48 102.717 113.462 103.08 112.627 103.695C112.376 103.879 112.171 104.056 112.074 104.308C111.872 104.766 112.067 105.344 112.504 105.692C112.619 105.813 112.773 105.881 112.926 105.948C112.186 106.028 111.401 106.117 110.662 106.196C109.412 106.318 108.17 106.484 106.986 106.171C105.794 105.812 104.725 104.82 104.693 103.555C104.711 102.846 105.103 102.121 105.517 101.533C107.015 99.5817 109.07 98.1441 111.204 96.8831C121.882 90.6221 134.305 88.1553 146.594 86.2747L181.615 101.648C182.43 102.543 182.828 103.744 183.043 104.977Z" fill="black"/>
</g>
<g id="Group_13">
<path id="Vector_9" d="M186.939 84.3839C188.412 89.8674 187.803 96.0859 184.603 100.681C184.347 101.102 184.081 101.477 183.809 101.806C183.416 102.251 182.939 102.755 182.345 102.858C181.805 102.998 181.3 102.802 180.75 102.614C177.453 101.535 173.935 101.06 170.47 100.622C164.538 99.809 158.561 99.0037 152.584 98.1985C147.232 97.4733 141.889 96.7941 136.521 97.0601C133.495 97.2518 130.562 97.7091 127.591 98.2205C123.516 98.8743 119.402 99.5837 115.64 101.218C113.883 101.943 112.166 102.898 110.427 103.714C108.245 104.702 106.024 105.459 103.688 105.297C99.5915 105.015 96.1047 101.758 94.7727 97.8968C94.4521 96.8699 94.2161 95.7821 94.1241 94.7157C94.116 94.6696 94.1163 94.6708 94.1163 94.6708C93.8815 91.7013 94.5293 88.6736 95.7523 85.9711C97.4025 82.2067 100.04 78.978 102.764 75.9696L110.591 75.2342L177.376 68.9597C179.204 70.808 180.912 72.7709 182.414 74.9105C182.923 75.6698 183.441 76.474 183.904 77.2413C185.24 79.5033 186.309 81.8588 186.939 84.3839Z" fill="#FF9F1C"/>
</g>
<g id="Group_14">
<path id="Vector_10" d="M182.423 74.9149C182.293 74.9847 182.194 74.9542 182.057 74.9779C179.998 75.0496 177.987 74.3133 175.918 74.059C173.041 73.7548 170.192 74.4329 167.399 75.1491C146.914 80.511 127.388 88.9536 107.645 96.6818C106.717 97.0291 105.751 97.4307 105.185 98.234C104.257 99.6639 105.08 101.686 106.514 102.615C107.632 103.364 109.046 103.637 110.427 103.728C108.245 104.716 106.024 105.475 103.688 105.313C99.5909 105.031 96.1036 101.772 94.7716 97.9097C94.451 96.8824 94.2153 95.7956 94.1233 94.729C94.1152 94.6828 94.1152 94.6828 94.1152 94.6828C95.5743 90.9039 97.9371 87.4387 100.607 84.3924C103.595 81.0085 106.975 77.9814 110.592 75.2411L177.384 68.9613C179.213 70.81 180.92 72.7747 182.423 74.9149Z" fill="black"/>
</g>
<g id="Group_15">
<path id="Vector_11" d="M178.273 65.6945C178.527 67.1552 178.645 68.6397 178.481 70.125C163.583 70.526 149.691 78.0406 135.769 83.4931C128.096 86.4593 120.199 88.9465 112.869 92.7929C109.04 94.8626 105.413 97.2741 101.446 99.0849C101.226 99.1702 101.052 99.2465 100.884 99.3691C99.364 100.101 98.2402 100.671 96.5035 99.8878C94.8659 99.1352 93.4223 97.879 92.5345 96.292C91.0726 93.5819 91.193 90.223 92.1936 87.3242C93.193 84.4257 94.96 81.8641 96.7324 79.349C101.63 72.3477 106.558 65.2461 111.456 58.2448L112.096 57.3354L112.583 57.1565L155.681 40.0549C155.933 40.1528 156.23 40.2429 156.499 40.4319C157.203 40.6872 157.868 40.9955 158.541 41.35C167.34 45.3841 173.921 52.6202 177.246 61.9689C177.689 63.162 178.058 64.462 178.273 65.6945Z" fill="#FF9F1C"/>
</g>
<g id="Group_16">
<path id="Vector_12" d="M156.489 40.4439C150.548 49.5519 142.638 57.3527 134.31 64.3789C124.921 72.3405 114.871 79.4755 105.536 87.4741C102.923 89.7568 100.16 92.5355 100.292 95.9917C100.346 97.1103 100.737 98.2661 100.882 99.3692C99.3617 100.101 98.238 100.671 96.5015 99.8877C94.8641 99.1352 93.4206 97.8792 92.5329 96.2925C91.0712 93.5829 91.1927 90.2244 92.1932 87.3263C93.1925 84.4283 94.9579 81.8674 96.7302 79.3529C101.627 72.3529 106.555 65.2528 111.452 58.2529C111.807 57.8629 112.208 57.4637 112.58 57.1645L155.671 40.067C155.924 40.1649 156.221 40.255 156.489 40.4439Z" fill="black"/>
</g>
<g id="Group_17">
<path id="Vector_13" d="M155.678 40.0903C148.246 48.4648 140.087 56.448 131.695 63.9075C126.235 68.7474 120.465 73.1704 115.059 78.0485C109.698 82.9188 104.167 87.6295 98.4609 92.1353C98.3394 92.25 98.2101 92.3198 98.0887 92.4344C97.2545 93.048 96.3833 93.7154 95.3544 93.7512C94.5091 93.7553 93.6807 93.334 92.9763 92.7976C91.2516 91.5428 90.0799 89.6766 89.4101 87.724C88.7322 85.7253 88.5022 83.6034 88.4637 81.496C88.4116 72.2937 92.28 63.4509 97.4449 55.8414L124.144 19.8077C124.859 19.5911 125.635 19.4575 126.374 19.378C127.342 19.259 128.271 19.1915 129.262 19.2099C129.772 19.1697 130.344 19.2126 130.863 19.217C132.234 19.2637 133.615 19.3536 134.975 19.5898C139.403 20.4258 143.264 23.1457 146.656 26.134C149.309 28.4028 151.821 30.9325 153.536 34.0203C154.015 34.8781 154.403 35.7502 154.699 36.6394C155.173 37.733 155.471 38.9045 155.678 40.0903Z" fill="#FF9F1C"/>
</g>
<g id="Group_18">
<path id="Vector_14" d="M126.358 19.3993C124.01 42.0724 114.988 63.9679 100.731 81.7372C99.3874 83.472 97.9073 85.2301 97.3888 87.3865C96.9663 89.0103 97.3558 90.9629 98.4539 92.1363C98.3325 92.2509 98.2032 92.3207 98.0818 92.4353C97.2479 93.0487 96.377 93.716 95.3485 93.7517C94.5034 93.7559 93.6753 93.3347 92.9711 92.7984C91.247 91.544 90.0745 89.6785 89.4049 87.7265C88.7272 85.7284 88.4985 83.6068 88.4601 81.5001C88.4081 72.3004 92.2752 63.46 97.4385 55.8526L124.128 19.8292C124.842 19.6126 125.62 19.4788 126.358 19.3993Z" fill="black"/>
</g>
<g id="Group_19">
<path id="Vector_15" d="M124.893 19.6123C122.392 34.1359 117.796 48.2229 111.31 61.4602C110.093 63.9241 108.815 66.3062 107.446 68.7025C103.646 75.2289 99.0192 81.3326 93.7094 86.7565C93.514 86.9776 93.3098 87.1553 93.1132 87.3766C92.6356 87.8811 92.0682 88.4011 91.3672 88.428C90.3849 88.4558 89.7072 87.5402 89.2285 86.6827C87.0244 82.4103 86.8517 77.3674 87.4803 72.6076C88.1077 67.848 89.5129 63.2371 90.386 58.5303C91.5299 52.4134 91.7575 46.173 91.0636 40.0435L91.7671 17.3719C92.3885 16.8888 93.0538 16.3995 93.7294 15.9546C94.7917 15.3019 95.862 14.6953 97.0009 14.2169C99.5296 13.077 102.283 12.4158 105.087 12.3095C110.739 12.0881 116.196 14.2499 121.206 16.8173C121.933 17.2082 122.659 17.6009 123.311 18.0997C123.902 18.5143 124.462 19.029 124.893 19.6123Z" fill="#FF9F1C"/>
</g>
<g id="Group_20">
<path id="Vector_16" d="M95.502 74.2349C94.5445 76.5599 93.4498 78.9085 93.1784 81.3977C92.9777 83.2163 93.1968 85.0114 93.69 86.758C93.4948 86.979 93.2892 87.1556 93.0928 87.3768C92.6155 87.8812 92.0487 88.4024 91.3483 88.4293C90.3668 88.4572 89.6907 87.5404 89.2126 86.6832C87.0105 82.4124 86.8371 77.3713 87.4657 72.613C88.0929 67.8549 89.4974 63.2454 90.3702 58.54C91.5137 52.425 91.7431 46.1876 91.0503 40.0602L91.7539 17.396C92.3748 16.913 93.0407 16.4223 93.7158 15.9775C102.406 34.018 103.088 55.7401 95.502 74.2349Z" fill="black"/>
</g>
<g id="Group_21">
<path id="Vector_17" d="M98.4837 45.5478C98.7918 48.125 99.3664 50.6101 99.0739 53.2431C98.7882 55.9225 98.3218 58.6343 97.7548 61.3146C96.5684 66.6393 94.7997 71.8742 92.5135 76.8233C91.5159 78.9205 90.4262 81.0348 88.9006 82.8006C88.5446 83.1905 88.1437 83.5881 87.6422 83.6744C87.2687 83.6912 86.9269 83.6101 86.6127 83.4293C85.1672 82.6923 84.4994 81.0216 83.9098 79.5263C82.4422 75.693 81.0127 71.8057 80.2588 67.7547L69.1711 37.8633C69.3146 35.7244 69.7487 33.6305 70.4731 31.5803C71.2343 29.4763 72.2939 27.4622 73.6203 25.637C76.2453 22.0852 79.8962 19.2964 83.9902 17.6996C84.8332 17.4133 85.6776 17.1268 86.5365 16.9314C87.7609 16.6732 88.9726 16.6071 90.2145 16.722C90.4059 16.7365 90.6405 16.741 90.8307 16.7558C91.2663 16.822 91.6557 16.8962 92.0438 16.9706C92.1349 16.955 92.1876 16.9921 92.2337 16.9841C96.1836 25.8867 97.1873 35.9536 98.4837 45.5478Z" fill="#FF9F1C"/>
</g>
<g id="Group_22">
<path id="Vector_18" d="M131.932 130.88C130.42 130.577 129.115 130.379 127.693 129.777C126.973 129.431 126.264 129.13 125.544 128.784C122.721 127.437 119.891 126.045 117.106 124.644C114.367 123.236 111.635 121.872 109.039 120.205C106.497 118.575 104.097 116.685 101.744 114.787C99.8264 113.237 97.8579 111.932 95.9195 110.527C95.6512 110.338 95.4279 110.141 95.1597 109.953C94.7315 109.65 94.3393 109.296 93.9098 108.994L94.8407 98.6838C96.2592 98.7223 97.5799 99.0113 98.8863 99.4915C100.681 100.075 102.388 100.955 104.049 101.845C109.283 104.609 114.599 107.313 119.239 110.979C123.832 114.652 126.821 119.92 129.731 125.01C130.805 126.845 131.527 128.835 131.932 130.88Z" fill="#FF9F1C"/>
</g>
<g id="Group_23">
<path id="Vector_19" d="M98.8837 99.513C98.7906 100.328 98.8428 101.165 98.6954 101.941C98.2143 104.842 95.5033 107.094 95.1584 109.973C94.7304 109.67 94.3394 109.315 93.9101 109.013L94.8396 98.7055C96.2575 98.744 97.5777 99.0329 98.8837 99.513Z" fill="black"/>
</g>
<g id="Group_24">
<path id="Vector_20" d="M88.8251 81.688C88.6966 82.8371 88.3624 84.1628 87.3151 84.6255C86.8375 84.8489 86.2741 84.8522 85.7026 84.8094C83.0646 84.5126 80.5114 83.354 78.5479 81.5316L69.4511 71.6836C69.443 71.6375 69.3812 71.5557 69.3732 71.5096C68.9238 70.5537 68.5588 69.5357 68.2467 68.5561C66.6107 63.4838 66.5869 58.2263 66.6147 52.7263C66.6425 47.2264 66.9221 41.5419 69.2014 36.5465C70.9968 37.412 72.6367 38.7265 74.018 40.1792C74.4789 40.6634 74.9397 41.1476 75.3625 41.6858C76.0242 42.5115 76.6927 43.3836 77.3161 44.2621C78.2634 45.6496 79.1723 47.09 79.9441 48.554C81.5046 51.5726 83.6575 54.2083 85.0508 57.3508C85.5768 58.481 86.0129 59.6266 86.3648 60.8342C88.5694 67.5467 89.6727 74.685 88.8251 81.688Z" fill="#FF9F1C"/>
</g>
<g id="Group_25">
<path id="Vector_21" d="M88.8235 81.687C88.6949 82.8362 88.3607 84.162 87.3132 84.6247C86.8356 84.8481 86.2719 84.8502 85.7003 84.8073C83.0619 84.5105 80.5098 83.3528 78.5459 81.5303L69.4464 71.6818C69.4383 71.6357 69.3778 71.5537 69.3698 71.5076C71.7057 71.1531 74.1145 71.4894 76.3139 72.238C79.4136 73.3014 82.2313 75.1643 84.912 77.0521C85.6171 77.588 86.4662 78.1466 87.3174 77.9064C88.4799 77.5651 87.946 73.1474 87.8621 72.1285C87.6717 69.9533 87.2347 67.7281 86.6326 65.6238C85.4047 61.2793 83.4718 57.1948 81.3243 53.2435C79.7871 50.3604 78.006 47.4269 77.3122 44.2588C78.2596 45.6465 79.1698 47.0854 79.9416 48.5495C81.5025 51.5684 83.6557 54.2042 85.0492 57.3469C85.5753 58.4771 86.0105 59.6243 86.3625 60.8321C88.5675 67.545 89.671 74.6837 88.8235 81.687Z" fill="black"/>
</g>
<g id="Group_26">
<path id="Vector_22" d="M98.0593 101.269C97.1889 104.097 95.6157 106.668 93.9106 109.029C93.1827 108.355 92.4444 107.638 91.7084 106.918C83.9945 99.3667 77.5603 90.5151 72.7728 80.8628C71.6899 78.6997 70.6981 76.5209 70.0654 74.2342C69.7757 73.3918 69.5797 72.5332 69.4286 71.667C72.8868 72.6228 76.3222 73.44 79.5865 74.8978C82.0242 75.9342 84.3818 77.3144 86.4662 79.0227C88.6828 80.9432 89.5087 83.5267 90.9296 86.0065C92.5053 88.8358 94.2473 91.5428 96.1634 94.1724C97.9037 96.5972 99.0259 98.1899 98.0593 101.269Z" fill="#FF9F1C"/>
</g>
<g id="Group_27">
<path id="Vector_23" d="M95.4134 101.208C94.8658 103.463 93.5169 105.433 91.7068 106.92C83.9929 99.3679 77.5586 90.5163 72.7711 80.864C71.6882 78.7009 70.6964 76.5221 70.0636 74.2354C74.0913 76.0317 78.4369 77.211 81.7262 80.1679C85.24 83.321 86.9744 88.1438 90.5715 91.2365C91.6218 92.1368 92.8381 92.9134 93.7748 93.9732C95.4727 95.8892 96.0122 98.7094 95.4134 101.208Z" fill="#FFCA28"/>
</g>
<g id="Group_28">
<path id="Vector_24" d="M81.6235 63.3012C81.6454 64.2371 81.7212 65.2098 81.4527 66.102C81.2395 67.0308 80.6818 67.8778 79.8084 68.263C78.4943 68.8178 77.0051 68.0883 75.6152 67.6703C73.1877 66.961 70.4321 67.3403 68.2476 68.5622C66.6114 63.4897 66.5876 58.232 66.6153 52.7318C66.643 47.2317 66.9213 41.5472 69.2008 36.5516C70.9964 37.4171 72.6377 38.7315 74.0192 40.1843C74.3155 41.073 74.4826 42.0314 74.6033 42.9964C75.0293 45.977 75.2796 49.034 76.716 51.6044C77.8115 53.5762 79.4994 55.165 80.4657 57.2066C81.3103 59.0805 81.4939 61.2093 81.6235 63.3012Z" fill="#FFCA28"/>
</g>
<g id="Group_29">
<path id="Vector_25" d="M125.541 128.785C122.718 127.438 119.889 126.046 117.104 124.645C114.365 123.236 111.633 121.872 109.037 120.205C106.495 118.575 104.094 116.685 101.74 114.788C99.8225 113.237 97.8538 111.932 95.9153 110.527C96.059 110.267 96.1936 109.963 96.3361 109.703C97.3501 107.696 98.6479 105.687 100.76 104.853C102.083 104.343 103.555 104.42 104.936 104.794C106.327 105.212 107.573 105.89 108.791 106.667C114.865 110.462 120.019 115.732 123.601 121.976C124.813 124.07 125.883 126.424 125.541 128.785Z" fill="#FFCA28"/>
</g>
<g id="Group_30">
<path id="Vector_26" d="M166.368 129.061C165.236 129.585 164.095 130.064 162.94 130.45C161.434 130.992 160.006 131.708 158.438 132.165C153.973 133.545 149.273 134.118 144.604 133.793C142.561 133.675 140.537 133.412 138.575 132.95C138.504 132.821 138.49 132.73 138.42 132.6C135.741 126.151 130.626 121.109 127.166 115.03C126.625 114.089 126.121 112.813 126.716 111.911C127.132 111.323 127.838 111.061 128.515 110.896C132.26 109.97 136.313 110.823 139.803 112.479C143.292 114.135 146.361 116.615 149.338 119.112C152.269 121.616 155.253 124.159 158.645 126.066C160.788 127.295 163.12 128.257 165.534 128.876C165.825 128.92 166.077 129.017 166.368 129.061Z" fill="#FFCA28"/>
</g>
<g id="Group_31">
<path id="Vector_27" d="M183.408 107.14C183.703 108.829 183.86 110.543 183.53 112.15C183.257 113.561 182.641 114.889 181.955 116.088C179.728 120.045 176.549 123.414 172.794 125.893C172.543 126.078 172.24 126.224 171.981 126.362C160.187 120.258 149.551 111.367 136.729 107.744C132.717 106.601 128.41 105.933 124.871 103.72C124.604 103.531 124.281 103.304 124.226 102.984C123.953 102.232 124.987 101.678 125.809 101.536C134.505 99.8522 143.498 100.138 152.195 101.697C162.586 103.53 172.828 106.657 183.408 107.14Z" fill="#FFCA28"/>
</g>
<g id="Group_32">
<path id="Vector_28" d="M186.94 84.3619C188.414 89.8456 187.804 96.0645 184.603 100.66C181.908 100.324 179.217 99.4702 176.587 98.7007C166.094 95.4752 155.221 92.784 144.266 93.3998C139.554 93.6466 134.856 94.5016 130.17 94.0858C129.644 94.035 129.01 93.909 128.748 93.4837C128.354 92.8459 128.781 92.0667 129.259 91.5616C131.166 89.5408 133.997 88.7707 136.684 87.9792C145.932 85.4004 154.904 81.7868 164.199 79.4813C170.647 77.8547 177.344 76.842 183.905 77.2178C185.241 79.4799 186.311 81.8367 186.94 84.3619Z" fill="#FFCA28"/>
</g>
<g id="Group_33">
<path id="Vector_29" d="M178.278 65.6913C175.68 66.9851 172.795 67.7154 169.911 68.4467C163.023 70.2437 156.135 72.0404 149.512 74.5435C137.534 79.002 126.45 85.6122 114.386 89.8504C112.788 90.4081 111.092 90.9338 109.36 90.7153C109.069 90.6715 108.772 90.5814 108.548 90.3847C107.988 89.8695 108.301 88.9688 108.663 88.3425C111.187 84.1935 115.56 81.4663 119.598 78.9854C133.74 70.2046 146.761 59.3127 156.345 45.7218C157.243 44.3917 158.163 42.9177 158.547 41.3469C167.347 45.3809 173.926 52.6172 177.251 61.9658C177.694 63.1589 178.063 64.4588 178.278 65.6913Z" fill="#FFCA28"/>
</g>
<g id="Group_34">
<path id="Vector_30" d="M154.709 36.6387C154.34 37.2185 153.972 37.7994 153.548 38.3422C147.986 45.8306 139.675 50.7842 132.9 57.26C126.156 63.6366 120.856 71.5512 113.766 77.5636C112 79.0424 109.939 80.4309 107.702 80.298C107.457 77.0039 109.892 74.2362 111.778 71.5616C114.389 67.9174 116.248 63.7449 118.015 59.5869C123.622 46.6869 129.36 33.1992 129.273 19.2111C129.783 19.171 130.356 19.2123 130.875 19.2168C132.246 19.2635 133.626 19.3548 134.985 19.591C139.413 20.4269 143.275 23.1451 146.666 26.1331C149.32 28.4017 151.831 30.9324 153.546 34.0199C154.025 34.8776 154.413 35.7497 154.709 36.6387Z" fill="#FFCA28"/>
</g>
<g id="Group_35">
<path id="Vector_31" d="M123.327 18.0998C122.276 20.4412 121.381 22.8497 120.728 25.3114C120.209 27.1852 119.788 29.0909 119.413 30.9874C118.441 35.3823 117.358 39.4214 115.888 43.667C113.231 51.3584 110.586 59.3777 105.222 65.5618C104.135 66.876 102.522 68.1409 100.887 67.6698C100.597 65.4655 101.007 63.233 101.372 61.0095C102.931 52.4259 103.904 43.7083 103.138 35.0087C102.491 27.7921 100.617 20.5504 97.02 14.2175C99.5484 13.0776 102.302 12.4164 105.105 12.3101C110.756 12.0888 116.213 14.2516 121.222 16.8187C121.949 17.2096 122.674 17.601 123.327 18.0998Z" fill="#FFCA28"/>
</g>
<g id="Group_36">
<path id="Vector_32" d="M95.1344 61.3485C94.8909 62.3763 94.4339 63.5359 93.4296 63.7087C93.0179 63.7796 92.6232 63.6601 92.2098 63.4488C90.1541 62.4406 89.3354 59.905 88.6632 57.6715C85.8755 48.4284 81.5631 39.0704 73.6017 33.583C72.5823 32.8663 71.5337 32.247 70.4772 31.5828C71.2385 29.4787 72.2997 27.4656 73.6262 25.6404C76.2514 22.0884 79.9012 19.2985 83.9956 17.7016C84.8387 17.4153 85.6834 17.1301 86.5424 16.9347C87.7669 16.6765 88.9785 16.6092 90.2206 16.724C90.6822 21.5304 91.6545 26.295 92.7098 30.9979C94.9305 41.0433 97.3983 51.1411 95.1344 61.3485Z" fill="#FFCA28"/>
</g>
<g id="Group_37">
<path id="Vector_33" d="M156.395 62.7038C155.189 64.2861 153.651 65.6152 151.91 66.5815C151.111 67.0254 149.899 67.5667 149.02 67.0431C146.327 65.4383 149.514 61.5264 150.972 60.3498C151.945 59.5657 153.088 58.895 154.339 58.8489C155.245 58.8157 156.233 59.1911 156.803 59.9159C157.524 60.8338 157.031 61.8707 156.395 62.7038Z" fill="#FF9F1C"/>
</g>
<g id="Group_38">
<path id="Vector_34" d="M166.422 62.3966C165.713 63.3268 164.809 64.1097 163.786 64.6779C163.316 64.9384 162.603 65.2565 162.086 64.9479C160.503 64.004 162.376 61.7048 163.234 61.0131C163.805 60.5517 164.478 60.1572 165.214 60.1297C165.747 60.1093 166.327 60.3331 166.661 60.7589C167.085 61.2988 166.796 61.9072 166.422 62.3966Z" fill="#FF9F1C"/>
</g>
<g id="Group_39">
<path id="Vector_35" d="M88.8717 77.0078C90.181 75.9074 92.1448 75.877 93.7416 76.5012C95.3385 77.1254 96.6504 78.2975 97.9057 79.4636C103.768 84.9097 109.404 91.0073 112.052 98.5495C112.364 99.4396 112.635 100.378 112.526 101.314C112.397 102.421 111.63 103.815 110.425 103.944C109.761 104.016 109.098 103.806 108.474 103.565C106.333 102.736 104.373 101.509 102.428 100.29C101.513 99.716 100.59 99.1369 99.8184 98.3826C99.0375 97.618 98.4327 96.6965 97.8344 95.7817C97.2107 94.8277 96.5797 93.8618 96.2031 92.7861C95.8586 91.8039 95.7349 90.7534 95.3556 89.7838C94.6194 87.9041 93.0144 86.5289 91.5582 85.1281C90.102 83.7274 88.6693 82.0744 88.4735 80.0661" fill="black"/>
</g>
</g>
</g>
<g id="Group_40">
<g id="Group_41">
<path id="Vector_36" d="M181.014 216.862C181.056 217.153 180.639 217.486 180.221 217.777C176.593 219.981 169.252 220.938 162.327 221.105C155.445 221.313 148.48 220.98 141.68 221.354C139.678 221.479 137.634 221.686 136.175 222.227C134.715 222.726 134.131 223.682 135.341 224.265C136.884 225.014 140.763 225.18 140.763 226.137C140.721 226.553 139.72 226.886 138.761 227.177C129.71 229.672 118.114 230.462 106.935 230.794C91.294 231.251 75.5677 230.961 59.9263 230.67C47.5387 230.42 35.15 230.129 22.8868 229.422C15.8377 228.964 8.82927 228.424 2.32254 227.301C1.78021 227.175 1.19727 227.093 0.8628 226.885C0.0708097 226.386 1.23788 225.803 2.40616 225.471C7.57857 223.974 14.2107 223.393 20.6756 223.184C27.1406 222.976 33.6891 223.059 40.0716 222.602C42.4906 222.435 45.4519 221.894 44.9932 220.98C44.7005 220.397 43.1595 220.065 41.7404 219.898C36.2347 219.15 30.0206 219.232 24.8888 218.193C23.5545 217.902 22.2608 217.528 21.6779 217.029C20.426 215.864 22.9286 214.657 25.5148 213.909C27.1824 213.41 28.9766 213.035 30.895 212.703C35.0664 211.913 39.6547 211.538 44.243 211.538L113.233 215.739C133.046 214.991 153.109 214.242 172.797 215.323C173.881 215.365 174.923 215.407 176.009 215.49C178.177 215.615 180.889 215.989 181.014 216.862Z" fill="#D3FB8F"/>
</g>
<g id="Group_42">
<path id="Vector_37" d="M181.014 216.862C181.056 217.153 180.639 217.486 180.221 217.777C176.593 219.982 169.252 220.938 162.327 221.105C155.445 221.313 148.48 220.98 141.68 221.354C139.678 221.479 137.634 221.686 136.175 222.227C134.715 222.726 134.131 223.682 135.341 224.265C136.884 225.014 140.763 225.181 140.763 226.137C140.721 226.553 139.72 226.886 138.761 227.177C129.71 229.672 118.114 230.462 106.935 230.794C91.294 231.251 75.5677 230.961 59.9263 230.67C47.5387 230.42 35.15 230.129 22.8868 229.422C15.8377 228.965 8.82927 228.425 2.32254 227.302C1.78021 227.177 1.19727 227.093 0.8628 226.885C0.0708097 226.386 1.23788 225.804 2.40616 225.471C7.57857 223.974 14.2107 223.393 20.6756 223.184C27.1406 222.976 33.6891 223.059 40.0716 222.602C42.4906 222.435 45.4519 221.895 44.9932 220.98C44.7005 220.397 43.1595 220.065 41.7404 219.898C36.2347 219.15 30.0206 219.232 24.8888 218.193C23.5545 217.902 22.2608 217.528 21.6779 217.029C20.426 215.864 22.9286 214.658 25.5148 213.91C27.1824 213.411 28.9766 213.035 30.895 212.703C32.2294 214.034 34.0654 214.741 35.8596 215.407C39.2844 216.678 42.7593 218.368 46.2952 219.283C48.4167 219.832 51.7006 221.033 49.7379 224.1C49.5922 224.329 49.4082 224.534 49.2876 224.776C48.836 225.681 49.4369 226.824 50.3173 227.326C52.053 228.313 55.1373 227.744 57.0844 227.838C59.9967 227.98 62.9138 227.982 65.8273 227.9C71.8383 227.73 77.8314 227.184 83.8197 226.662C95.5944 225.637 107.564 224.641 119.281 226.761C121.074 227.093 122.91 227.467 124.704 227.01C126.456 226.594 128.123 224.972 127.874 223.184C127.706 221.729 126.372 220.397 126.79 218.984C127.207 217.445 129.292 217.153 130.877 217.195C144.642 217.652 158.949 220.522 171.879 215.697C172.171 215.572 172.504 215.449 172.797 215.323C173.881 215.365 174.923 215.407 176.009 215.49C178.177 215.615 180.889 215.989 181.014 216.862Z" fill="#A2B97A"/>
</g>
<g id="Group_43">
<g id="Group_44">
<path id="Vector_38" d="M72.0963 170.27V227.965L54.1542 219.784L35.4057 211.263C33.2364 210.287 31.8758 208.126 31.8758 205.795V202.912L32.0036 151.661L67.164 167.981L72.0963 170.27Z" fill="#2A2C58"/>
</g>
</g>
<g id="Group_45">
<path id="Vector_39" d="M67.1652 167.981C65.7198 173.196 64.1454 178.41 61.4672 183.03C59.2143 186.93 56.2375 190.322 53.2188 193.671C51.3052 195.748 49.3091 197.868 46.9701 199.479C42.7605 202.404 37.4042 203.675 32.3022 202.997C32.1732 202.997 32.0036 202.954 31.8758 202.911L32.0036 151.66L67.1652 167.981Z" fill="#636699"/>
</g>
<g id="Group_46">
<g id="Group_47">
<path id="Vector_40" d="M72.0987 170.258L32.0072 151.661L113.962 141.84L153.744 160.823L72.0987 170.258Z" fill="black"/>
</g>
</g>
<g id="Group_48">
<path id="Vector_41" d="M127.943 154.147C127.943 159.974 108.371 164.699 84.2282 164.699C60.0851 164.699 40.5136 159.974 40.5136 154.147C40.5136 148.319 60.0851 143.594 84.2282 143.594C108.371 143.594 127.943 148.319 127.943 154.147Z" fill="#A5C0DD"/>
</g>
<g id="Group_49">
<g id="Group_50">
<path id="Vector_42" d="M154.067 161.538L153.939 207.659V213.086C153.939 216.137 151.643 218.681 148.624 219.063L72.6064 228.178C72.266 228.221 71.9673 227.966 71.9673 227.626L72.0952 170.27L83.7026 168.871L152.96 160.563C153.555 160.478 154.067 160.945 154.067 161.538Z" fill="#2A2C58"/>
</g>
</g>
<g id="Group_51">
<path id="Vector_43" d="M72.0964 173.195V227.965L54.1542 219.783C56.7894 219.656 59.3409 218.893 61.4242 217.239C63.1671 215.84 64.4429 213.976 65.463 212.026C71.161 201.471 70.1409 188.795 71.4167 176.883C71.5445 175.654 71.7129 174.383 72.0964 173.195Z" fill="black"/>
</g>
<g id="Group_52">
<path id="Vector_44" d="M154.067 161.538L153.939 207.659C149.008 210.161 143.394 211.39 137.867 211.433C129.833 211.517 121.882 209.314 114.527 206.049C105.684 202.064 97.4352 196.384 91.6106 188.668C87.2743 182.945 84.3835 176.036 83.7026 168.871L152.962 160.563C153.556 160.478 154.067 160.945 154.067 161.538Z" fill="#636699"/>
</g>
<g id="Group_53">
<path id="Vector_45" d="M117.172 192.825C118.563 194.037 120.318 194.921 122.166 194.945C122.505 194.95 122.861 194.92 123.152 194.745C123.86 194.316 123.838 193.289 123.635 192.488C122.805 189.209 120.32 186.392 117.164 185.154C116.406 184.856 115.57 184.644 114.781 184.848C110.419 185.976 115.708 191.549 117.172 192.825Z" fill="#58596D"/>
</g>
<g id="Group_54">
<path id="Vector_46" d="M130.629 194.939C131.463 195.667 132.517 196.197 133.625 196.211C133.828 196.214 134.041 196.196 134.215 196.091C134.641 195.834 134.628 195.219 134.506 194.738C134.008 192.772 132.517 191.081 130.625 190.339C130.17 190.161 129.669 190.033 129.196 190.156C126.58 190.833 129.751 194.175 130.629 194.939Z" fill="#58596D"/>
</g>
</g>
<g id="Group_55">
<g id="Group_56">
<path id="Vector_47" d="M47.151 147.323C59.883 142.384 86.8415 140.879 107.347 143.954C127.817 147.023 134.143 153.521 121.411 158.46C115.463 160.767 106.534 162.328 96.6904 163.001C85.0345 163.852 72.1696 163.522 61.1582 161.871C42.1327 159.018 35.2933 153.243 44.6157 148.443C45.3644 148.055 46.2211 147.684 47.151 147.323Z" fill="#D0DCEE"/>
</g>
<g id="Group_57">
<path id="Vector_48" d="M44.6158 148.443C49.3337 147.351 53.3543 146.704 57.0953 146.165C82.9081 142.638 95.9687 145.047 102.331 149.55C105.819 152.022 107.35 155.352 99.3149 161.245C98.5764 161.784 97.6514 162.395 96.6913 163.001C85.0353 163.852 72.1697 163.523 61.1583 161.871C42.1328 159.018 35.2934 153.244 44.6158 148.443Z" fill="#F2F8FD"/>
</g>
<g id="Group_58">
<path id="Vector_49" d="M67.6759 151.051C68.6979 150.655 70.0091 150.302 71.4451 150.017C77.3689 148.806 85.9343 148.59 92.7566 149.614C99.5444 150.632 102.532 152.579 100.65 154.396C100.226 154.833 99.4924 155.273 98.4704 155.669C93.1728 157.724 82.002 158.349 73.5183 157.076C64.9991 155.799 62.3783 153.106 67.6759 151.051Z" fill="#2A2C58"/>
</g>
<g id="Group_59">
<path id="Vector_50" d="M71.4443 150.016C77.3682 148.805 85.9328 148.59 92.7552 149.613C99.5432 150.631 102.531 152.579 100.649 154.396C94.7234 155.607 86.2526 155.787 79.4647 154.769C72.6422 153.746 69.5608 151.834 71.4443 150.016Z" fill="black"/>
</g>
<g id="Group_60">
<path id="Vector_51" d="M55.9984 159.076C45.8582 156.279 44.0036 152.101 52.5796 148.774C63.0854 144.699 85.2647 143.444 102.121 145.972C105.218 146.436 107.92 146.996 110.201 147.625" stroke="#19345D" stroke-width="0.174387" stroke-miterlimit="10"/>
</g>
<g id="Group_61">
<path id="Vector_52" d="M102.315 148.825C110.732 150.905 112.515 154.179 105.853 156.763C98.0226 159.8 81.4896 160.735 68.9258 158.851C67.2269 158.596 65.6877 158.303 64.3154 157.979" stroke="#19345D" stroke-width="0.174387" stroke-miterlimit="10"/>
</g>
</g>
<g id="Group_62">
<g id="Group_63">
<g id="Group_64" opacity="0.944804">
<g id="Group_65">
<g id="Group_66">
<path id="Vector_53" d="M231.43 139.824C232.015 139.084 232.155 138.263 232.167 137.345C232.159 134.241 229.228 131.92 226.211 132.083C225.669 132.113 225.239 132.261 224.999 131.711C224.757 131.099 224.321 130.059 224.367 129.389C224.391 129.076 224.834 128.781 225.029 128.541C225.384 128.168 225.715 127.753 226.027 127.34C226.627 126.494 227.141 125.612 227.504 124.634C227.741 124.038 227.872 123.404 227.941 122.775C228.089 121.33 227.839 119.863 227.344 118.493C226.923 117.329 226.157 115.578 225.075 114.907C224.123 114.313 223 115.54 222.54 116.253C221.613 117.595 221.162 119.225 221.087 120.834C221.037 122.171 221.32 123.49 221.603 124.809C221.688 125.199 221.773 125.59 221.858 125.982C221.882 126.043 221.885 126.105 221.866 126.148C221.849 126.211 221.81 126.256 221.771 126.3C221.396 126.675 221.019 127.049 220.623 127.425C220.624 127.446 220.625 127.446 220.625 127.446C218.94 129.037 217.19 130.612 216.203 132.729C214.121 137.282 217.974 141.554 222.341 142.714C222.468 142.749 222.617 142.782 222.744 142.796C223.356 142.929 223.966 143.001 224.593 143.008C225.075 143.024 225.532 142.98 225.986 142.892C226.233 142.837 226.502 142.779 226.756 142.849C227.604 143.095 227.811 144.168 227.937 144.912C228.095 145.862 227.942 146.85 227.488 147.687C227.13 148.374 226.558 148.968 225.892 149.379C225.569 149.583 225.205 149.771 224.833 149.854C224.423 149.98 224.02 149.877 223.597 149.775C224.145 149.515 224.737 149.254 225.064 148.757C225.753 147.656 225.081 146.463 224.042 145.811C223.37 145.368 222.541 145.142 221.864 145.345C221.267 145.503 220.792 145.965 220.489 146.503C217.723 151.531 228.546 153.467 229.667 148.174C229.7 148.027 229.712 147.859 229.724 147.712C229.777 146.813 229.457 145.956 229.16 145.117C229.042 144.874 228.943 144.607 228.867 144.361C228.718 143.952 228.051 142.489 228.574 142.147C229.643 141.464 230.652 140.846 231.43 139.824ZM222.903 121.569C223.146 120.68 223.599 119.843 224.295 119.222C224.614 118.955 224.964 118.852 225.382 118.872C225.676 118.898 225.953 118.986 226.153 119.204C226.528 119.58 226.483 120.271 226.365 120.756C226.263 121.158 226.098 121.562 225.91 121.948C225.837 122.119 225.761 122.268 225.666 122.44C225.494 122.721 225.3 122.961 225.104 123.201L224.927 123.398C224.654 123.725 224.379 124.032 224.082 124.319C223.905 124.516 223.727 124.692 223.527 124.849C223.487 124.873 223.428 124.959 223.348 125.026C223.348 125.026 223.328 125.027 223.329 125.048C223.288 125.072 223.228 125.095 223.187 125.118C223.168 125.14 223.125 125.143 223.106 125.164C223.084 125.165 223.087 125.186 223.066 125.187C223.024 125.189 223.003 125.191 222.981 125.171C222.937 125.132 222.894 125.093 222.89 125.03C222.773 124.807 222.739 124.6 222.705 124.352L222.702 124.29C222.629 123.377 222.66 122.437 222.903 121.569ZM226.29 141.624C225.652 141.805 225.047 141.796 224.398 141.769C224.085 141.764 223.77 141.74 223.433 141.696C223.266 141.684 223.078 141.673 222.908 141.641C222.129 141.516 221.365 141.309 220.698 140.948C218.525 139.815 217.456 137.163 218.689 134.95C218.764 134.8 218.859 134.649 218.936 134.52C218.955 134.498 218.954 134.477 218.973 134.456C219.967 132.838 221.346 131.367 222.986 130.444C223.047 130.42 223.107 130.375 223.15 130.393C223.235 130.41 223.28 130.491 223.305 130.552C223.586 131.099 223.788 131.693 223.987 132.265C224.011 132.326 224.035 132.387 223.997 132.452C223.978 132.496 223.918 132.519 223.878 132.543C223.103 132.876 222.413 133.268 221.868 133.944C221.418 134.49 220.863 135.375 220.906 136.122C220.865 136.5 220.884 136.853 220.967 137.202C220.967 137.224 220.967 137.224 220.967 137.224C221.249 138.521 222.23 139.635 223.371 140.24C223.631 140.392 224.065 140.682 224.376 140.645C224.731 140.626 224.855 140.244 224.712 139.939C224.527 139.615 224.169 139.572 223.868 139.422C223.653 139.308 223.437 139.174 223.281 138.995C223.171 138.896 223.081 138.777 222.989 138.636C222.757 138.231 222.731 137.774 222.873 137.329C223.073 136.776 223.886 135.294 224.701 135.687C225.239 135.97 225.358 136.964 225.534 137.476C225.933 138.642 226.232 139.856 226.695 141.019C226.797 141.347 226.578 141.547 226.29 141.624ZM228.422 140.905C228.423 140.926 228.401 140.927 228.401 140.927C228.28 141.017 228.117 141.066 227.966 140.991C227.857 140.914 227.808 140.772 227.759 140.649C227.656 140.3 227.553 139.951 227.428 139.604C227.094 138.496 226.72 137.391 226.427 136.281C226.375 136.097 226.321 135.891 226.269 135.707C226.219 135.564 226.229 135.375 226.328 135.266C226.347 135.244 226.367 135.222 226.386 135.2C226.488 135.153 226.614 135.146 226.719 135.161C228.208 135.267 229.616 136.567 229.827 138.077C229.974 139.195 229.346 140.271 228.422 140.905Z" fill="#00C6C5"/>
</g>
</g>
<g id="Group_67">
<path id="Vector_54" d="M226.329 122.47C226.004 122.987 225.546 123.428 225.09 123.85C224.751 124.139 224.434 124.429 224.05 124.657C223.828 124.795 223.602 124.891 223.358 125.008C223.438 124.94 223.497 124.854 223.537 124.831C223.737 124.673 223.915 124.498 224.092 124.301C224.449 123.948 224.783 123.575 225.115 123.182C225.311 122.942 225.506 122.703 225.678 122.422C225.773 122.25 225.849 122.099 225.922 121.928C226.109 121.542 226.275 121.138 226.376 120.736C226.496 120.25 226.54 119.559 226.164 119.184C225.964 118.965 225.688 118.877 225.393 118.851C224.975 118.832 224.625 118.934 224.306 119.202C223.609 119.823 223.156 120.66 222.913 121.549C222.67 122.417 222.639 123.358 222.711 124.271C222.748 124.54 222.782 124.767 222.9 125.012C222.903 125.075 222.947 125.114 222.991 125.153C223.013 125.173 223.034 125.171 223.076 125.168C222.773 125.352 222.493 125.576 222.256 125.818C222.118 125.971 221.982 126.146 221.8 126.26C221.82 126.238 221.858 126.193 221.876 126.13C221.894 126.087 221.891 126.025 221.867 125.964C221.783 125.572 221.697 125.181 221.612 124.79C221.671 124.725 221.709 124.658 221.747 124.594C221.897 124.294 221.984 123.977 222.049 123.64C222.417 122.015 222.656 120.334 223.473 118.872C223.72 118.442 224.03 118.028 224.479 117.836C224.99 117.642 225.584 117.798 226.022 118.15C226.439 118.503 226.699 119.009 226.832 119.544C227.076 120.532 226.888 121.627 226.329 122.47Z" fill="#018E9A"/>
</g>
<g id="Group_68">
<path id="Vector_55" d="M229.713 147.709C229.701 147.856 229.69 148.024 229.656 148.172C228.534 153.467 217.705 151.531 220.473 146.501C220.776 145.963 221.252 145.501 221.849 145.343C222.527 145.139 223.356 145.364 224.028 145.808C223.364 145.885 222.71 146.151 222.19 146.575C221.81 146.867 221.497 147.259 221.376 147.703C221.206 148.4 221.541 149.155 222.031 149.691C222.988 150.724 224.576 151.095 225.91 150.669C227.244 150.243 228.307 149.08 228.671 147.746C228.897 146.92 228.888 146.045 229.114 145.219C229.132 145.176 229.131 145.156 229.15 145.113C229.447 145.952 229.767 146.809 229.713 147.709Z" fill="#018E9A"/>
</g>
<g id="Group_69">
<path id="Vector_56" d="M222.738 142.8C222.612 142.786 222.463 142.753 222.337 142.718C217.969 141.558 214.115 137.287 216.197 132.734C217.185 130.616 218.935 129.042 220.62 127.45C220.492 127.79 220.323 128.112 220.131 128.414C219.386 129.643 218.491 130.796 217.81 132.062C216.961 133.671 216.596 135.339 216.968 137.132C217.311 138.76 218.293 140.249 219.681 141.174C220.506 141.714 221.422 142.059 222.304 142.512C222.455 142.587 222.606 142.682 222.738 142.8Z" fill="#018E9A"/>
</g>
<g id="Group_70">
<path id="Vector_57" d="M230.411 139.145C230.283 139.485 230.112 139.787 229.92 140.069C229.63 140.481 229.297 140.873 228.853 141.147C228.713 141.259 228.55 141.331 228.363 141.341C227.987 141.341 227.695 140.98 227.571 140.633C227.448 140.306 227.408 139.954 227.429 139.598C227.554 139.945 227.657 140.294 227.76 140.643C227.809 140.766 227.858 140.91 227.968 140.987C228.118 141.062 228.282 141.011 228.402 140.921C229.327 140.288 229.976 139.19 229.829 138.072C229.618 136.562 228.208 135.262 226.719 135.156C226.614 135.141 226.49 135.148 226.388 135.195C226.227 135.307 226.219 135.537 226.27 135.701C226.322 135.886 226.376 136.092 226.427 136.276C226.221 135.954 226.076 135.586 226.013 135.215C225.976 134.924 225.999 134.59 226.216 134.37C226.393 134.173 226.68 134.096 226.951 134.081C227.68 134.041 228.385 134.315 228.953 134.764C229.499 135.193 229.909 135.816 230.197 136.468C230.557 137.303 230.717 138.294 230.411 139.145Z" fill="#018E9A"/>
</g>
<g id="Group_71">
<path id="Vector_58" d="M230.077 138.433C230.013 139.145 229.718 139.849 229.29 140.393C229.113 140.611 228.918 140.809 228.671 140.885C228.588 140.91 228.506 140.936 228.421 140.899C229.345 140.266 229.974 139.189 229.827 138.071C229.617 136.561 228.207 135.262 226.718 135.156C226.613 135.141 226.489 135.148 226.387 135.195C226.367 135.217 226.348 135.239 226.328 135.26C226.32 135.115 226.374 134.966 226.473 134.856C226.827 134.482 227.397 134.599 227.825 134.784C228.273 134.968 228.688 135.278 229.041 135.613C229.437 135.967 229.709 136.349 229.883 136.839C230.059 137.35 230.131 137.909 230.077 138.433Z" fill="black"/>
</g>
<g id="Group_72">
<path id="Vector_59" d="M226.957 141.298C226.963 141.402 226.971 141.547 226.914 141.654C226.875 141.698 226.815 141.742 226.754 141.766C226.491 141.906 226.201 141.963 225.911 142C225.102 142.106 224.251 142.173 223.539 141.774C223.495 141.755 223.473 141.736 223.429 141.696C223.766 141.74 224.081 141.766 224.394 141.77C225.043 141.797 225.649 141.806 226.287 141.625C226.574 141.548 226.793 141.347 226.691 141.019C226.228 139.856 225.93 138.643 225.53 137.477C225.355 136.966 225.237 135.971 224.699 135.688C223.884 135.295 223.069 136.776 222.87 137.329C222.728 137.775 222.754 138.231 222.986 138.636C223.194 138.979 223.5 139.234 223.866 139.423C224.167 139.573 224.523 139.615 224.708 139.939C224.851 140.245 224.727 140.626 224.372 140.645C224.061 140.683 223.628 140.394 223.368 140.241C221.924 139.444 220.707 137.842 220.902 136.123C220.86 135.375 221.416 134.491 221.866 133.945C222.412 133.269 223.1 132.877 223.874 132.543C223.915 132.521 223.975 132.497 223.994 132.454C224.032 132.389 224.008 132.328 223.984 132.267C223.785 131.694 223.583 131.101 223.302 130.553C223.277 130.492 223.232 130.411 223.148 130.395C223.104 130.376 223.044 130.422 222.983 130.446C221.343 131.369 219.965 132.839 218.971 134.457C218.951 134.479 218.952 134.499 218.932 134.521C218.957 133.852 219.233 133.192 219.62 132.629C220.101 131.915 220.737 131.339 221.416 130.781C221.793 130.447 222.266 130.318 222.736 130.126C222.816 130.08 222.879 130.055 222.961 130.051C223.418 129.984 223.629 130.411 223.773 130.736C223.868 130.96 223.879 131.147 223.954 131.372C224.055 131.68 224.135 131.988 224.217 132.317C224.243 132.419 224.269 132.523 224.255 132.628C224.207 132.902 223.938 132.916 223.713 133.011C223.468 133.108 223.225 133.246 223.002 133.383C222.46 133.767 221.865 134.32 221.629 134.938C221.391 135.534 221.259 136.166 221.295 136.789C221.309 137.414 221.512 138.049 221.875 138.571C222.011 138.751 222.186 138.91 222.381 139.024C222.424 139.043 222.467 139.06 222.509 139.058C222.818 139 222.541 138.181 222.512 138.016C222.435 137.395 222.715 136.796 223.061 136.277C223.293 135.952 223.569 135.645 223.914 135.48C224.626 135.15 225.261 135.658 225.527 136.31C225.845 137.127 226.123 137.966 226.359 138.829C226.593 139.649 226.867 140.427 226.957 141.298Z" fill="#018E9A"/>
</g>
<g id="Group_73">
<path id="Vector_60" d="M224.37 140.645C224.059 140.682 223.626 140.393 223.366 140.241C222.225 139.635 221.243 138.521 220.961 137.223C221.102 137.507 221.243 137.772 221.404 138.034C221.591 138.378 221.797 138.721 222.065 139.019C222.243 139.238 222.485 139.434 222.781 139.501C222.971 139.533 223.178 139.479 223.253 139.329C223.287 139.223 223.28 139.099 223.275 138.994C223.431 139.174 223.648 139.309 223.863 139.422C224.164 139.572 224.521 139.615 224.706 139.939C224.849 140.244 224.725 140.625 224.37 140.645Z" fill="black"/>
</g>
<g id="Group_74">
<path id="Vector_61" d="M226.629 120.744C226.641 120.952 226.632 121.161 226.58 121.351C226.527 121.542 226.412 121.714 226.316 121.865C226.084 122.212 225.81 122.519 225.534 122.826C225.357 123.023 225.16 123.242 224.94 123.4L225.117 123.203C225.312 122.962 225.509 122.723 225.68 122.442C225.775 122.27 225.85 122.121 225.923 121.95C226.111 121.564 226.277 121.159 226.379 120.757C226.498 120.271 226.542 119.58 226.166 119.204C225.965 118.986 225.689 118.898 225.395 118.872C224.976 118.853 224.626 118.955 224.307 119.222C223.611 119.844 223.158 120.682 222.915 121.571C222.671 122.439 222.641 123.38 222.713 124.293L222.717 124.354C222.597 124.09 222.476 123.806 222.439 123.515C222.37 123.04 222.49 122.552 222.589 122.088C222.843 121.033 223.138 119.974 223.735 119.066C223.986 118.698 224.324 118.408 224.778 118.3C225.23 118.171 225.779 118.287 226.113 118.645C226.647 119.2 226.652 120.034 226.629 120.744Z" fill="black"/>
</g>
</g>
<g id="Group_75">
<g id="Group_76">
<path id="Vector_62" d="M195.124 86.3068C195.191 86.2067 195.247 86.1008 195.314 86.0007C195.41 85.8616 195.502 85.7324 195.594 85.604C195.598 85.5933 195.602 85.5825 195.602 85.5825C195.669 85.4823 195.743 85.3969 195.805 85.3074C195.975 85.0828 196.144 84.8582 196.335 84.6432C196.516 84.4234 196.707 84.2076 196.905 84.0073C197.097 83.7923 197.305 83.5967 197.503 83.3965C197.712 83.201 197.927 83.021 198.137 82.8255C198.248 82.7437 198.351 82.6446 198.462 82.5628C198.542 82.4928 198.633 82.4286 198.713 82.3586C198.729 82.3527 198.748 82.3352 198.753 82.3245C198.772 82.3069 198.78 82.3225 198.802 82.3313C198.842 82.3604 198.881 82.3895 198.924 82.4078C198.986 82.4457 199.041 82.4672 199.107 82.4943C199.157 82.5274 199.215 82.5397 199.281 82.5669C199.304 82.5757 199.336 82.5883 199.374 82.5912C199.385 82.596 199.423 82.5989 199.429 82.6144C199.435 82.6299 199.42 82.635 199.411 82.6573C199.396 82.6632 199.375 82.6815 199.356 82.699C199.32 82.7225 199.29 82.7622 199.255 82.7856C199.19 82.8488 199.115 82.908 199.051 82.9704C198.847 83.1552 198.638 83.3516 198.441 83.551C198.231 83.7465 198.044 83.9508 197.853 84.1658C197.666 84.37 197.486 84.5907 197.305 84.8105C197.135 85.035 196.977 85.2645 196.829 85.4978C196.681 85.7312 196.541 85.9801 196.427 86.227C196.296 86.4798 196.193 86.7316 196.106 87.0028C195.814 87.8669 195.565 88.7502 195.488 89.6519C195.395 90.5596 195.475 91.4874 195.804 92.3383C196.379 93.7758 197.637 94.828 198.961 95.6274C199.095 95.7079 199.307 95.8449 199.468 95.7961C199.656 95.7454 199.765 95.5733 199.842 95.3876L199.847 95.3769C199.905 95.2349 199.937 95.0941 199.987 94.9744L206.087 80.181C206.092 80.1703 206.096 80.1587 206.111 80.1528C206.382 79.7775 206.614 79.337 206.97 79.0346C207.278 78.7516 207.655 78.5229 208.022 78.3156C208.761 77.8903 209.58 77.5864 210.419 77.4456C212.12 77.1458 213.921 77.4763 215.405 78.3533C216.562 79.0324 217.575 80.1509 217.645 81.4713C217.692 82.6022 217.04 83.6893 216.126 84.3499C215.219 85.026 214.082 85.3264 212.959 85.4673C211.853 85.6014 210.719 85.5831 209.649 85.2857C208.575 84.999 207.559 84.4151 206.864 83.5802L198.962 102.747C198.898 102.9 198.739 102.975 198.586 102.912L197.273 102.426C197.12 102.363 197.055 102.208 197.092 102.057C197.096 102.046 197.096 102.046 197.101 102.035C197.474 100.82 197.23 99.4554 196.758 98.2646C196.339 97.1972 195.741 96.2232 195.193 95.219C194.679 94.2916 194.286 93.159 194.034 92.1224C193.903 91.5706 193.829 91.0024 193.841 90.4455C193.861 89.9295 194.035 89.4142 194.13 88.9031C194.183 88.6183 194.256 88.316 194.337 88.0293C194.48 87.5259 194.849 86.7569 195.124 86.3068Z" fill="#F72F43"/>
</g>
<g id="Group_77">
<path id="Vector_63" d="M206.111 80.1525C206.382 79.7772 206.615 79.3376 206.97 79.0352C207.279 78.7522 207.656 78.5235 208.023 78.3162C208.762 77.8908 209.58 77.587 210.42 77.4462C212.12 77.1463 213.921 77.4769 215.406 78.3539C216.562 79.033 217.575 80.1515 217.646 81.4719C217.693 82.6029 217.04 83.6891 216.126 84.3497C215.219 85.0258 214.082 85.3271 212.96 85.468C211.854 85.6021 210.719 85.5829 209.649 85.2855C208.575 84.9988 207.56 84.4158 206.865 83.5809L198.962 102.748C198.899 102.901 198.739 102.976 198.586 102.913L197.274 102.427C197.121 102.364 197.055 102.209 197.092 102.058C197.097 102.047 197.096 102.046 197.101 102.035C198.159 101.459 198.86 100.354 199.451 99.2922C201.76 95.1516 203.589 90.7501 204.852 86.1937C205.097 85.349 205.311 84.4899 205.782 83.75C206.254 83.0102 207.021 82.3932 207.896 82.3555C209.13 82.2863 210.153 83.3193 211.375 83.5261C213.055 83.8064 214.753 82.1121 214.454 80.443C214.217 79.0286 212.802 78.0143 211.374 77.9019C209.935 77.7847 208.536 78.411 207.397 79.2739C206.993 79.5686 206.567 79.917 206.111 80.1525Z" fill="#E2212E"/>
</g>
<g id="Group_78">
<path id="Vector_64" d="M195.597 85.6102C195.603 85.597 195.608 85.5829 195.608 85.5829C195.666 85.479 195.747 85.4006 195.801 85.3107C195.976 85.0797 196.146 84.8619 196.329 84.6498C196.354 84.6275 196.365 84.6011 196.39 84.5789C196.554 84.3742 196.727 84.1903 196.913 84.0113C197.096 83.7992 197.307 83.5988 197.504 83.3917C197.71 83.2045 197.928 83.023 198.139 82.8226C198.253 82.7417 198.352 82.6543 198.466 82.5734C198.546 82.4951 198.635 82.4348 198.715 82.3565C198.728 82.3622 198.755 82.34 198.76 82.3269C198.766 82.3137 198.779 82.3194 198.807 82.3302C198.842 82.3607 198.878 82.3913 198.918 82.4078C198.981 82.4491 199.036 82.4723 199.105 82.5004C199.154 82.5367 199.214 82.545 199.283 82.5732C199.296 82.5789 199.337 82.5963 199.37 82.5939C199.384 82.5996 199.417 82.5955 199.425 82.6153C199.433 82.6352 199.413 82.6434 199.408 82.6566C199.388 82.6648 199.379 82.6921 199.359 82.7003C199.315 82.7301 199.283 82.7646 199.259 82.7869C199.184 82.8521 199.115 82.9032 199.053 82.9742C198.848 83.1614 198.643 83.347 198.445 83.5541C198.234 83.7545 198.043 83.9484 197.854 84.1736C197.663 84.3659 197.486 84.5977 197.303 84.8097C197.128 85.0407 196.972 85.2652 196.83 85.4937C196.771 85.5977 196.712 85.7 196.653 85.804C196.564 85.9434 196.502 86.0928 196.433 86.2241C196.293 86.4856 196.191 86.7324 196.111 87.0022C195.817 87.8713 195.564 88.7568 195.484 89.6499C195.398 90.5562 195.481 91.4833 195.803 92.3337C196.374 93.782 197.64 94.8278 198.96 95.6243C199.1 95.7136 199.302 95.845 199.465 95.7997C199.66 95.7528 199.767 95.5721 199.84 95.3946C199.884 95.6365 199.895 95.88 199.846 96.1161C199.785 96.4578 199.551 96.7936 199.226 96.8834C198.862 96.9897 198.476 96.7995 198.173 96.5633C197.477 96.0387 196.926 95.3168 196.471 94.5554C195.394 92.7413 194.74 90.6384 194.917 88.5402C194.995 87.5348 195.269 86.5609 195.597 85.6102Z" fill="#E2212E"/>
</g>
<g id="Group_79">
<path id="Vector_65" d="M208.654 80.3087C208.593 80.265 208.516 80.2237 208.448 80.253C208.367 80.2866 208.352 80.393 208.366 80.4788C208.399 80.6957 208.672 81.1159 208.946 80.9838C209.245 80.8403 208.783 80.4041 208.654 80.3087Z" fill="#E2212E"/>
</g>
<g id="Group_80">
<path id="Vector_66" d="M196.391 84.5783C196.555 84.3736 196.729 84.1889 196.915 84.0099C197.098 83.7978 197.308 83.5981 197.505 83.391C197.711 83.2038 197.93 83.0215 198.141 82.821C198.255 82.7402 198.354 82.6527 198.467 82.5719C198.548 82.4935 198.636 82.4333 198.717 82.3549C198.73 82.3607 198.756 82.3393 198.761 82.3261C198.767 82.3129 198.781 82.3179 198.809 82.3286C198.844 82.3592 198.88 82.3897 198.92 82.4063C198.983 82.4476 199.038 82.4707 199.107 82.4988C199.155 82.5352 199.215 82.5443 199.284 82.5724C199.297 82.5782 199.339 82.5947 199.372 82.5923C199.386 82.5981 199.418 82.5947 199.426 82.6146C199.434 82.6344 199.415 82.6418 199.41 82.655C199.39 82.6632 199.38 82.6914 199.36 82.6996C199.316 82.7293 199.285 82.7631 199.261 82.7854C199.186 82.8506 199.116 82.9017 199.055 82.9727C198.85 83.1599 198.644 83.3463 198.446 83.5534C198.235 83.7539 198.044 83.9478 197.855 84.173C197.664 84.3653 197.488 84.5963 197.305 84.8084C197.13 85.0394 196.974 85.2639 196.831 85.4925C196.772 85.5964 196.714 85.6988 196.655 85.8027C196.532 85.4015 196.442 84.9985 196.391 84.5783Z" fill="black"/>
</g>
</g>
</g>
</g>
</g>
</svg>
