<svg width="217" height="195" viewBox="0 0 217 195" fill="none" xmlns="http://www.w3.org/2000/svg">
<path d="M128.431 99.3893C127.737 108.235 125.767 116.921 122.413 125.149L108.985 108.562C109.398 102.603 109.324 96.7522 108.65 91.0476C107.731 82.4914 105.61 74.1904 102.364 65.9199C97.8266 54.49 90.3178 44.3547 81.5239 35.7469C75.1156 29.5178 67.8398 23.9571 59.3836 21.0517C58.5986 20.7476 57.7373 20.4789 56.9136 20.2855C49.0905 18.1343 40.4625 18.5658 33.4986 22.6453C33.0842 22.8676 32.7881 22.4157 32.5273 22.076C32.2668 21.6993 32.27 21.2123 32.3859 20.763C32.6556 19.7518 33.2602 18.8937 33.9411 18.1481C35.4151 16.3208 37.1937 13.9323 39.0398 12.5564C40.8106 11.219 43.9649 10.7136 46.1428 10.1278C50.9883 8.84651 56.1291 8.28014 61.1918 8.35128C71.3156 8.41753 81.4607 11.034 90.3151 16.042C93.94 18.0538 97.2992 20.4748 100.394 23.2701C102.034 24.7439 103.561 26.3659 105.05 27.9877C107.879 31.1193 110.408 34.5099 112.709 38.05C124.404 56.051 130.146 78.101 128.431 99.3893Z" fill="#E2212E"/>
<path d="M128.431 99.3895C127.737 108.235 125.767 116.921 122.413 125.15L108.985 108.561C109.398 102.602 109.324 96.7514 108.65 91.0469C109.357 91.8015 110.14 92.5577 110.96 93.238C114.577 96.3368 118.987 98.6517 123.709 99.1706C125.244 99.3677 126.82 99.341 128.431 99.3895Z" fill="black"/>
<path d="M133.557 137.506C133.615 140.045 133.114 142.581 132.352 144.965C130.064 152.192 125.729 158.771 120.801 164.45C115.158 170.983 108.024 177.32 99.6819 180.027C97.5126 180.797 95.1564 181.23 92.9194 180.954C92.4341 180.876 92.0244 180.799 91.5777 180.61C90.4219 180.303 89.2308 179.773 88.1153 179.243C87.0733 178.75 86.0683 178.221 85.1382 177.805C82.31 176.442 79.5193 174.968 76.8801 173.308C75.5782 172.515 74.3159 171.612 73.4271 170.374C73.0206 169.811 72.6895 169.137 72.6561 168.465C72.59 167.159 73.5313 165.858 74.7661 165.492C75.215 165.346 75.7376 165.349 76.1868 165.166C77.0476 164.761 77.2028 163.866 77.1332 163.082C77.1006 162.447 76.7643 162.406 77.0298 161.849C77.1818 161.44 77.8942 161.034 78.1938 160.737C80.3724 158.698 82.4773 156.659 84.6546 154.657C87.6979 151.765 90.7774 148.948 93.7826 146.094C97.1623 142.906 100.541 139.792 103.885 136.641C106.965 133.787 110.007 130.932 113.087 128.041C115.303 126.002 117.519 123.963 119.735 121.887C120.299 121.368 120.899 120.851 121.5 120.294C121.613 120.22 121.762 120.034 121.875 119.96C122.437 119.702 122.472 120.002 122.806 120.377C123.436 121.09 124.294 121.245 125.151 121.475C127.312 122.086 129.205 123.591 130.238 125.577C130.568 126.325 130.862 127.112 131.119 127.822C131.411 128.682 131.705 129.543 131.998 130.441C132.473 131.863 132.913 133.322 133.239 134.78C133.42 135.677 133.525 136.573 133.557 137.506Z" fill="#19345D"/>
<path d="M131.998 130.441C124.836 146.633 113.727 161.305 98.8819 170.989C95.6579 173.059 92.2489 174.94 89.5431 177.684C89.0551 178.167 88.6038 178.686 88.1153 179.243C87.0733 178.75 86.0683 178.221 85.1382 177.805C82.31 176.442 79.5193 174.969 76.8801 173.309C75.5782 172.516 74.3159 171.613 73.427 170.375C73.0206 169.812 72.6895 169.137 72.6561 168.465C72.59 167.159 73.5313 165.858 74.7661 165.492C75.215 165.346 75.7376 165.349 76.1868 165.166C77.0476 164.761 77.2028 163.866 77.1332 163.082C77.1006 162.447 76.7643 162.407 77.0298 161.85C77.1818 161.441 77.8942 161.034 78.1938 160.737C80.3724 158.698 82.4773 156.659 84.6546 154.657C87.6978 151.765 90.7774 148.948 93.7826 146.094C97.1623 142.906 100.541 139.792 103.885 136.641C106.965 133.787 110.007 130.932 113.087 128.041C115.303 126.002 117.519 123.963 119.735 121.887C120.299 121.368 120.899 120.851 121.5 120.294C121.613 120.22 121.762 120.034 121.875 119.96C122.437 119.702 122.472 120.002 122.806 120.377C123.436 121.09 124.294 121.245 125.151 121.475C127.312 122.086 129.205 123.592 130.238 125.578C130.568 126.326 130.862 127.112 131.119 127.822C131.411 128.682 131.705 129.543 131.998 130.441Z" fill="black"/>
<path d="M122.465 144.316C120.249 147.726 117.842 151.095 115.244 154.31C109.115 161.773 101.566 168.841 92.8033 173.132C89.7922 174.613 86.2851 175.514 82.8232 175.299C82.1316 175.256 81.4791 175.175 80.8248 175.055C75.0602 173.94 70.5492 169.6 66.0711 165.993C64.8075 164.984 63.5451 163.937 62.2438 162.89L83.072 137.285C84.3926 135.37 85.8284 133.495 87.3419 131.619C88.8935 129.705 90.4831 127.908 92.072 126.225C92.072 126.225 112.861 100.697 112.901 100.697C113.172 100.314 120.056 106.785 121.662 108.334C121.815 108.489 121.929 108.606 121.967 108.645C125.256 111.821 127.769 115.878 128.816 120.348C130.839 128.749 126.935 137.38 122.465 144.316Z" fill="#FF9F1C"/>
<path d="M101.486 143.115C87.5106 160.29 69.9499 169.14 62.2618 162.885C54.5736 156.63 59.6715 137.635 73.6472 120.461C87.6229 103.286 105.184 94.4358 112.872 100.691C120.56 106.946 115.462 125.941 101.486 143.115Z" fill="#095DA4"/>
<path d="M96.6807 139.221C88.7282 149.02 78.9572 154.688 73.2334 153.266C72.3885 153.068 71.6213 152.716 70.9708 152.174C65.9184 148.101 69.2703 135.617 78.4249 124.365C87.6186 113.075 99.1215 107.302 104.174 111.374C105.207 112.227 105.892 113.387 106.19 114.851C107.615 120.517 104.011 130.266 96.6807 139.221Z" fill="black"/>
<path d="M96.6807 139.22C88.7282 149.019 78.9562 154.687 73.2324 153.265C71.8081 147.599 75.4116 137.889 82.7048 128.895C90.694 119.097 100.465 113.428 106.189 114.851C107.614 120.517 104.011 130.265 96.6807 139.22Z" fill="#19345D"/>
<path d="M122.466 144.315C120.25 147.725 117.842 151.095 115.244 154.311C109.115 161.774 101.567 168.842 92.8043 173.133C89.7932 174.613 86.2861 175.514 82.8242 175.3C82.1326 175.256 81.4791 175.175 80.8248 175.056C80.9115 173.517 81.4611 171.982 82.2394 170.64C83.4837 168.532 85.1893 166.811 86.8931 165.053C95.2601 156.412 102.978 147.151 109.929 137.346C113.581 132.176 117.078 126.851 119.233 120.94C120.683 116.871 121.518 112.604 121.662 108.335C121.815 108.49 121.93 108.605 121.968 108.644C125.257 111.821 127.77 115.878 128.817 120.347C130.84 128.749 126.936 137.38 122.466 144.315Z" fill="#FFCA28"/>
<path d="M133.553 137.501C133.613 140.04 133.096 142.577 132.35 144.957C130.071 152.175 125.719 158.765 120.795 164.466C115.173 170.97 108.013 177.311 99.6848 180.027C97.5246 180.782 95.1753 181.228 92.9075 180.944C92.4461 180.864 92.0225 180.784 91.5616 180.627C91.6007 180.588 91.601 180.55 91.64 180.512C94.4386 176.22 98.9201 173.365 102.981 170.198C105.495 168.252 107.855 166.151 110.102 163.896C112.58 161.412 114.868 158.732 117.156 156.054C122.934 149.319 128.827 142.433 133.225 134.767C133.411 135.692 133.52 136.577 133.553 137.501Z" fill="#095DA4"/>
<path d="M111.121 146.442C111.38 146.264 111.661 146.096 111.973 146.052C112.667 145.955 113.319 146.535 113.517 147.207C113.715 147.879 113.555 148.604 113.317 149.263C112.88 150.476 112.166 151.583 111.263 152.5C110.661 153.111 109.189 154.45 108.247 154.328C107.812 154.272 107.472 153.891 107.351 153.47C107.229 153.049 107.291 152.596 107.394 152.171C107.94 149.926 109.196 147.77 111.121 146.442Z" fill="#FF9F1C"/>
<path d="M119.636 139.082C119.792 138.975 119.96 138.873 120.148 138.847C120.567 138.789 120.96 139.138 121.079 139.543C121.198 139.947 121.102 140.385 120.959 140.782C120.695 141.513 120.266 142.179 119.721 142.732C119.359 143.101 118.471 143.908 117.903 143.834C117.642 143.801 117.436 143.57 117.363 143.317C117.29 143.064 117.327 142.79 117.389 142.534C117.719 141.181 118.476 139.882 119.636 139.082Z" fill="#FF9F1C"/>
<path d="M63.1667 163.259C58.5252 165.218 53.6241 166.027 48.7303 165.727C32.5557 164.932 16.1498 152.737 8.08894 133.713C-2.42156 108.972 5.2136 82.056 25.1215 73.5802C29.8782 71.546 34.9315 70.7754 39.9782 71.1529C56.0368 72.1378 72.2142 84.2917 80.2002 103.126C90.7104 127.904 83.0733 154.821 63.1667 163.259Z" fill="#FF9F1C"/>
<path d="M51.4079 159.893C44.3886 162.869 36.4755 162.09 29.0796 158.331C20.0065 153.797 11.6878 144.829 6.67829 133.016C-2.4 111.574 2.83578 88.8116 18.4088 82.1809C28.7268 77.8118 40.942 81.601 50.6741 90.8447C55.6921 95.6209 60.0496 101.809 63.1391 109.096C72.2164 130.538 66.9796 153.3 51.4079 159.893Z" fill="#19345D"/>
<path d="M51.4089 159.892C44.3896 162.868 36.4755 162.089 29.0797 158.33C35.4754 157.033 41.2041 152.558 43.9969 146.647C45.8208 142.719 46.4234 138.363 46.796 134.042C47.2888 128.767 47.5158 123.414 46.5164 118.244C44.9263 109.894 40.2349 102.099 40.6336 93.6479C40.6817 92.1954 41.0381 90.5144 42.3432 89.7955C43.0335 89.418 43.9125 89.3862 44.7155 89.4676C46.7801 89.5959 48.8048 90.0674 50.6741 90.8446C55.6921 95.6209 60.0496 101.808 63.1391 109.095C72.2164 130.537 66.9806 153.299 51.4089 159.892Z" fill="#095DA4"/>
<path d="M40.3816 143.946C39.0612 146.997 37.0197 149.241 34.3341 150.409C25.6666 154.063 13.4857 144.879 7.11965 129.844C0.753388 114.846 2.6123 99.6722 11.2422 96.0185C14.5031 94.6632 18.2492 95.0697 22.0232 96.9688C28.2375 100.108 34.5022 107.187 38.4569 116.546C42.8267 126.902 43.3319 137.271 40.3816 143.946Z" fill="#D0DCEE"/>
<path d="M63.1677 163.259C58.5262 165.217 53.6251 166.027 48.7313 165.726C51.8831 163.491 55.0715 161.407 58.1467 159.094C63.0292 155.377 67.5714 150.894 69.9412 145.21C71.5347 141.396 72.0601 137.191 72.1633 133.061C72.7444 114.436 64.8742 95.4509 50.3385 83.766C46.8001 80.95 42.8 78.3606 40.8377 74.2556C40.3858 73.2966 40.0474 72.2236 39.9782 71.1523C56.0368 72.1372 72.2143 84.2911 80.2002 103.125C90.7105 127.903 83.0743 154.82 63.1677 163.259Z" fill="#FFCA28"/>
<path d="M40.3816 143.946C37.3857 145.801 33.7859 146.619 30.2686 146.328C28.5487 146.164 26.7907 145.769 25.2662 144.918C22.942 143.641 21.1965 141.487 19.7199 139.221C13.775 130.002 11.2477 118.625 12.8101 107.772C13.0913 105.785 13.5259 103.798 14.4931 102.083C16.0784 99.3783 18.9197 97.7135 22.0232 96.9688C28.2375 100.108 34.5022 107.186 38.4569 116.546C42.8267 126.902 43.3319 137.271 40.3816 143.946Z" fill="#F2F8FD"/>
<path d="M25.6478 132.125C26.513 132.852 27.7753 133.374 28.7489 132.8C29.5566 132.324 29.8287 131.282 29.8536 130.345C29.8878 129.053 29.5807 127.736 28.8663 126.658C27.564 124.693 24.192 123.367 23.0253 126.223C22.2418 128.142 24.2758 130.972 25.6478 132.125Z" fill="#D0DCEE"/>
<path d="M24.4878 119.141C24.9997 119.571 25.7458 119.879 26.322 119.541C26.7999 119.259 26.9613 118.643 26.9758 118.088C26.9956 117.324 26.8137 116.544 26.3913 115.907C25.6211 114.744 23.6261 113.96 22.9362 115.65C22.4725 116.785 23.6759 118.458 24.4878 119.141Z" fill="#D0DCEE"/>
<path d="M105.032 27.9871C103.951 27.825 102.87 27.5479 101.79 27.2699C92.7612 24.8917 84.2467 20.6619 75.0588 18.9397C69.075 17.8186 62.4646 18.0063 56.9226 20.2891C49.0904 18.1508 40.4685 18.5594 33.4846 22.6487C33.0971 22.8782 32.7911 22.4122 32.5224 22.0624C32.2537 21.7127 32.257 21.2107 32.376 20.7475C32.6536 19.7442 33.2781 18.8983 33.9402 18.1296C35.42 16.3233 37.1757 13.9367 39.0398 12.5579C40.8266 11.2166 43.96 10.697 46.1278 10.1312C51.0063 8.84912 56.1132 8.26353 61.1759 8.33566C71.3017 8.40193 81.4497 11.0194 90.3072 16.0245C93.927 18.0572 97.3122 20.4764 100.386 23.2796C102.038 24.7594 103.575 26.3545 105.032 27.9871Z" fill="black"/>
<path d="M102.576 25.1877C102.576 25.2647 102.577 25.3037 102.538 25.3034C102.498 25.3422 102.422 25.3027 102.383 25.3024C101.921 24.9514 101.537 24.6789 101.113 24.2891C100.538 23.7833 99.9217 23.3153 99.345 22.8095C98.1531 21.8737 96.9222 20.9386 95.6923 20.0025C93.7312 18.4827 91.3008 17.6157 89.0664 16.5961C84.2499 14.3615 79.1974 12.5894 73.9856 11.6273C71.5927 11.1476 69.1595 10.8617 66.7251 10.7688C65.4886 10.6837 64.2526 10.6756 62.9761 10.7442C54.7408 11.0763 46.4145 13.6889 39.964 18.9418C33.3962 24.2329 30.8684 32.7586 29.2701 40.7493C28.7906 43.1032 28.3487 45.5354 28.024 47.9293C27.5401 50.9802 27.2501 54.0314 27.2681 57.0855C27.2307 62.8054 27.85 68.7236 30.4053 73.8804C32.6179 78.379 36.5421 81.2647 40.2315 84.419C43.7292 87.3789 46.7979 90.8001 49.8298 94.183C52.823 97.5266 55.6984 100.987 57.2166 105.248C57.558 106.255 57.7056 107.377 57.3901 108.38C56.8369 110.231 54.9754 111.069 53.2337 111.483C51.1817 111.933 48.9379 112.344 47.1296 111.018C44.706 109.263 44.11 105.896 42.6573 103.413C40.9758 100.58 38.75 98.0916 36.4852 95.7577C33.7203 92.8405 30.6085 90.1921 26.9472 88.5451C24.1714 87.2899 20.968 86.7279 18.102 87.6372C16.8235 88.0159 15.6209 88.704 14.4954 89.3916C12.3229 90.6915 10.2653 92.146 8.58968 94.0681C6.52604 96.4516 4.88513 99.03 4.01517 102.077C3.73936 102.965 3.3468 103.812 3.14773 104.739C2.90942 105.703 2.78735 106.63 2.62603 107.595C2.50496 108.523 2.45964 109.488 2.22182 110.376C2.1033 110.761 1.86044 112.267 1.24725 111.529C1.13202 111.413 1.09554 111.18 1.0578 110.987C0.992181 109.248 0.771575 107.506 0.899209 105.729C1.02658 103.991 1.34696 102.254 1.85982 100.595C3.36067 95.7349 5.97845 91.3449 7.40229 86.4842C10.0114 77.612 8.21639 68.4401 8.43058 59.3963C8.48956 56.3436 8.74079 53.2532 9.18551 50.2421C9.99643 44.4492 11.4636 38.7777 13.5485 33.3022C16.6555 25.2064 20.9527 18.1604 27.56 12.4835C41.0089 0.937262 62.1357 -2.47955 78.438 4.69929C78.5148 4.73879 78.6315 4.77756 78.7083 4.81706C83.0625 6.7786 87.0637 9.50984 90.6764 12.6255C92.867 14.5339 94.9418 16.5575 96.9368 18.6966C97.936 19.7472 98.9329 20.8358 99.8915 21.9631C100.391 22.5073 100.89 23.0516 101.35 23.5956C101.58 23.9061 101.849 24.2169 102.078 24.5284C102.232 24.7224 102.539 24.9554 102.576 25.1877Z" fill="#F72F43"/>
<path d="M57.3871 108.375C56.8498 110.246 54.9695 111.059 53.2416 111.498C51.1757 111.934 48.924 112.333 47.1326 111.008C44.706 109.267 44.1281 105.888 42.6443 103.403C40.9757 100.58 38.743 98.0906 36.4703 95.7507C33.7142 92.8456 30.6185 90.1993 26.9541 88.5632C24.1872 87.3081 20.967 86.725 18.1109 87.6433C16.8335 88.01 15.6279 88.7141 14.4995 89.3818C12.3159 90.6805 10.2814 92.1292 8.58167 94.0681C6.541 96.4548 4.8741 99.032 4.02924 102.064C3.72336 102.962 3.34272 103.822 3.14959 104.758C2.91847 105.693 2.79934 106.63 2.64296 107.604C2.48683 108.54 2.44269 109.477 2.21281 110.376C2.09736 110.75 1.86229 112.287 1.23022 111.532C1.11796 111.419 1.08243 111.193 1.04591 110.968C0.982196 109.243 0.768489 107.516 0.893267 105.717C1.01755 103.993 1.32783 102.27 1.86387 100.586C2.74425 97.78 3.96164 95.1259 5.14229 92.4336C5.98003 90.489 6.77978 88.5442 7.39327 86.4852C10.0014 77.6151 8.22528 68.4542 8.43367 59.3804C8.49155 56.3427 8.73567 53.2693 9.16853 50.235C11.2603 57.1489 10.9836 65.0592 13.0741 72.1601C13.7704 74.5647 14.8802 77.047 16.9703 78.5607C18.9857 80.0359 22.2099 80.17 23.8726 78.2308C25.0807 76.8517 25.1689 74.8273 25.1062 72.9518C24.8764 68.0372 23.746 63.1937 24.0032 58.2823C24.215 54.4966 25.441 50.5295 28.0081 47.9213C27.538 50.9933 27.2551 54.0285 27.273 57.1037C27.2357 62.8025 27.8349 68.7316 30.3882 73.8864C32.609 78.363 36.527 81.2767 40.2185 84.413C43.7251 87.399 46.8139 90.7943 49.8298 94.1881C51.8777 96.4895 53.8875 98.8267 55.4453 101.462C56.1494 102.667 56.7413 103.908 57.2195 105.261C57.5511 106.238 57.6927 107.364 57.3871 108.375Z" fill="#E2212E"/>
<path d="M57.3871 108.374C56.8498 110.245 54.9695 111.058 53.2416 111.497C51.1757 111.933 48.924 112.332 47.1327 111.007C44.706 109.266 44.1281 105.887 42.6443 103.402C40.9758 100.579 38.743 98.0897 36.4703 95.7498C33.7142 92.8447 30.6185 90.1993 26.9541 88.5633C24.1873 87.3082 20.967 86.7241 18.1109 87.6424C16.8335 88.0091 15.6279 88.7132 14.4995 89.3808C12.3159 90.6796 10.2814 92.1283 8.58169 94.0672C6.54103 96.4539 4.87412 99.0311 4.02927 102.063C3.72338 102.961 3.34274 103.821 3.14962 104.757C2.91849 105.692 2.79935 106.63 2.64297 107.604C2.48685 108.54 2.44271 109.477 2.21282 110.376C2.09737 110.75 1.86232 112.286 1.23024 111.531C1.11798 111.418 1.08245 111.194 1.04592 110.968C0.982212 109.243 0.768506 107.516 0.893284 105.717C1.01757 103.993 1.32785 102.27 1.86388 100.586C2.74427 97.7801 3.96167 95.125 5.14231 92.4327C6.95896 89.8945 9.11189 87.6205 11.5613 85.7245C13.5596 84.1626 15.8546 82.7896 18.3693 82.544C22.3464 82.082 26.0816 84.3575 29.2538 86.7783C33.8062 90.2582 37.9805 94.1846 42.8351 97.1794C46.6445 99.5664 51.0214 101.283 55.4453 101.462C56.1494 102.667 56.7413 103.908 57.2195 105.261C57.5511 106.238 57.6927 107.363 57.3871 108.374Z" fill="black"/>
<path d="M177.976 172.063C178.001 172.161 178.036 172.255 178.061 172.353C178.094 172.491 178.123 172.621 178.152 172.75C178.156 172.759 178.161 172.767 178.161 172.767C178.186 172.865 178.198 172.959 178.219 173.048C178.264 173.28 178.31 173.511 178.337 173.751C178.373 173.987 178.401 174.227 178.415 174.463C178.442 174.703 178.448 174.942 178.462 175.178C178.467 175.418 178.459 175.653 178.464 175.893C178.453 176.008 178.457 176.128 178.446 176.243C178.445 176.332 178.434 176.425 178.433 176.514C178.428 176.527 178.428 176.549 178.432 176.558C178.432 176.58 178.418 176.576 178.4 176.585C178.36 176.593 178.321 176.601 178.285 176.618C178.227 176.635 178.182 176.656 178.128 176.682C178.079 176.695 178.039 176.725 177.985 176.751C177.967 176.76 177.941 176.773 177.918 176.795C177.909 176.799 177.886 176.821 177.873 176.816C177.86 176.811 177.865 176.799 177.856 176.781C177.861 176.768 177.861 176.745 177.861 176.723C177.866 176.688 177.858 176.647 177.863 176.612C177.86 176.536 177.865 176.456 177.862 176.381C177.861 176.15 177.855 175.91 177.841 175.675C177.836 175.435 177.813 175.204 177.786 174.964C177.763 174.733 177.726 174.497 177.69 174.261C177.645 174.029 177.59 173.802 177.527 173.579C177.464 173.356 177.387 173.129 177.297 172.919C177.212 172.696 177.113 172.49 176.992 172.284C176.616 171.617 176.204 170.966 175.684 170.412C175.169 169.845 174.545 169.374 173.83 169.101C172.612 168.652 171.25 168.845 170.01 169.221C169.885 169.259 169.681 169.314 169.621 169.442C169.548 169.587 169.594 169.752 169.667 169.904L169.671 169.913C169.727 170.029 169.797 170.128 169.844 170.226L175.667 182.328C175.671 182.337 175.676 182.346 175.671 182.359C175.754 182.738 175.899 183.13 175.889 183.521C175.893 183.872 175.825 184.235 175.749 184.58C175.601 185.279 175.333 185.959 174.951 186.561C174.187 187.788 172.973 188.724 171.595 189.156C170.524 189.495 169.259 189.498 168.395 188.801C167.663 188.195 167.349 187.179 167.448 186.239C167.533 185.295 167.982 184.418 168.522 183.64C169.057 182.876 169.703 182.18 170.487 181.681C171.267 181.173 172.2 180.868 173.11 180.904L165.565 165.225C165.505 165.1 165.547 164.958 165.672 164.898L166.71 164.354C166.835 164.294 166.968 164.34 167.042 164.448C167.046 164.457 167.046 164.457 167.05 164.466C167.6 165.38 168.589 165.994 169.596 166.369C170.497 166.707 171.44 166.881 172.373 167.104C173.24 167.304 174.167 167.695 174.955 168.12C175.373 168.348 175.769 168.621 176.11 168.941C176.421 169.243 176.645 169.641 176.911 169.987C177.059 170.18 177.207 170.395 177.341 170.606C177.575 170.978 177.849 171.639 177.976 172.063Z" fill="#F72F43"/>
<path d="M175.672 182.359C175.755 182.738 175.899 183.13 175.889 183.521C175.893 183.872 175.825 184.235 175.749 184.58C175.601 185.279 175.333 185.959 174.951 186.561C174.187 187.788 172.973 188.724 171.595 189.156C170.524 189.495 169.259 189.498 168.395 188.801C167.663 188.195 167.35 187.179 167.449 186.239C167.534 185.295 167.982 184.418 168.522 183.64C169.057 182.876 169.704 182.18 170.488 181.681C171.268 181.173 172.2 180.868 173.11 180.904L165.565 165.225C165.505 165.1 165.547 164.958 165.672 164.898L166.71 164.354C166.835 164.294 166.968 164.34 167.042 164.448C167.046 164.457 167.047 164.457 167.051 164.466C166.819 165.448 167.117 166.505 167.449 167.469C168.742 171.231 170.467 174.84 172.605 178.184C172.995 178.811 173.412 179.426 173.61 180.135C173.808 180.844 173.764 181.668 173.298 182.234C172.651 183.041 171.434 183.098 170.621 183.743C169.507 184.632 169.614 186.64 170.823 187.391C171.839 188.037 173.264 187.725 174.133 186.899C175.011 186.069 175.403 184.846 175.501 183.653C175.543 183.236 175.564 182.775 175.672 182.359Z" fill="#E2212E"/>
<path d="M178.148 172.75C178.153 172.761 178.159 172.772 178.159 172.772C178.191 172.867 178.195 172.961 178.221 173.045C178.267 173.284 178.308 173.512 178.338 173.745C178.338 173.773 178.348 173.795 178.348 173.823C178.384 174.04 178.402 174.251 178.41 174.467C178.44 174.7 178.447 174.944 178.466 175.183C178.468 175.416 178.459 175.654 178.466 175.898C178.453 176.014 178.452 176.125 178.439 176.241C178.443 176.335 178.431 176.424 178.435 176.518C178.424 176.523 178.423 176.552 178.428 176.563C178.433 176.574 178.422 176.579 178.4 176.59C178.361 176.595 178.323 176.6 178.289 176.616C178.228 176.632 178.183 176.653 178.127 176.68C178.077 176.69 178.038 176.723 177.982 176.75C177.971 176.755 177.937 176.771 177.92 176.793C177.909 176.798 177.892 176.821 177.876 176.815C177.859 176.809 177.865 176.792 177.86 176.781C177.866 176.764 177.854 176.743 177.86 176.726C177.866 176.682 177.862 176.643 177.862 176.615C177.863 176.532 177.87 176.46 177.86 176.382C177.858 176.149 177.857 175.917 177.838 175.678C177.831 175.434 177.817 175.206 177.782 174.962C177.769 174.735 177.723 174.495 177.693 174.262C177.647 174.023 177.594 173.8 177.531 173.583C177.499 173.488 177.468 173.394 177.436 173.299C177.399 173.165 177.34 173.043 177.297 172.926C177.212 172.692 177.115 172.49 176.991 172.289C176.613 171.618 176.202 170.963 175.689 170.412C175.171 169.85 174.546 169.381 173.835 169.104C172.611 168.647 171.25 168.848 170.014 169.223C169.88 169.26 169.685 169.312 169.622 169.439C169.542 169.587 169.595 169.755 169.665 169.9C169.489 169.792 169.331 169.662 169.211 169.499C169.032 169.269 168.953 168.935 169.079 168.682C169.216 168.396 169.551 168.262 169.868 168.206C170.585 168.067 171.344 168.129 172.074 168.273C173.809 168.621 175.488 169.394 176.699 170.682C177.283 171.295 177.738 172.012 178.148 172.75Z" fill="#E2212E"/>
<path d="M174.152 183.854C174.213 183.841 174.282 183.816 174.302 183.757C174.326 183.688 174.268 183.619 174.207 183.579C174.053 183.478 173.638 183.412 173.567 183.657C173.489 183.924 174.02 183.881 174.152 183.854Z" fill="#E2212E"/>
<path d="M178.347 173.822C178.383 174.039 178.401 174.251 178.409 174.467C178.439 174.7 178.446 174.943 178.465 175.182C178.467 175.415 178.458 175.654 178.465 175.898C178.452 176.014 178.451 176.125 178.438 176.241C178.442 176.335 178.43 176.424 178.434 176.518C178.423 176.523 178.422 176.551 178.427 176.562C178.432 176.573 178.421 176.579 178.399 176.59C178.36 176.595 178.321 176.6 178.288 176.616C178.227 176.632 178.182 176.653 178.126 176.68C178.076 176.69 178.037 176.722 177.981 176.749C177.97 176.754 177.936 176.771 177.919 176.793C177.908 176.798 177.892 176.82 177.875 176.814C177.858 176.808 177.864 176.792 177.859 176.781C177.865 176.764 177.853 176.742 177.859 176.725C177.865 176.681 177.861 176.643 177.861 176.615C177.862 176.532 177.869 176.46 177.859 176.382C177.857 176.149 177.856 175.916 177.837 175.677C177.83 175.433 177.816 175.205 177.781 174.961C177.768 174.734 177.722 174.495 177.692 174.262C177.646 174.023 177.593 173.8 177.53 173.583C177.498 173.488 177.467 173.394 177.435 173.299C177.754 173.448 178.056 173.618 178.347 173.822Z" fill="black"/>
</svg>
