<svg width="92" height="89" viewBox="0 0 92 89" fill="none" xmlns="http://www.w3.org/2000/svg">
<g id="Group 7032">
<g id="Ellipse 1" filter="url(#filter0_d_241_11370)">
<circle cx="46" cy="33" r="30" fill="url(#paint0_linear_241_11370)"/>
</g>
<path id="Vector" d="M56.3641 35.0798V35.1175C56.3636 37.4263 55.7021 39.685 54.4605 41.6176C53.2188 43.5502 51.4508 45.073 49.3724 46C47.294 46.927 44.9952 47.218 42.7568 46.8375C40.5185 46.457 38.4376 45.4214 36.7683 43.8574C35.099 42.2933 33.9136 40.2684 33.3569 38.0301C32.8002 35.7919 32.8964 33.4371 33.6337 31.2535C34.3709 29.0699 35.7174 27.152 37.5084 25.7343C39.2995 24.3165 41.4577 23.4601 43.7194 23.2699C43.906 23.2484 44.0945 23.288 44.2576 23.3828C44.4207 23.4776 44.5499 23.6228 44.6265 23.7973C44.707 23.9696 44.7342 24.1627 44.7044 24.351C44.6747 24.5394 44.5894 24.7141 44.4599 24.8521C43.8115 25.5332 43.3038 26.3395 42.9666 27.2235C42.6295 28.1075 42.4698 29.0512 42.4969 29.999C42.524 30.9468 42.7375 31.8794 43.1246 32.742C43.5117 33.6045 44.0647 34.3794 44.751 35.0209C45.4372 35.6625 46.2428 36.1578 47.1202 36.4775C47.9976 36.7972 48.9291 36.9349 49.8596 36.8824C50.7902 36.83 51.701 36.5884 52.5383 36.1721C53.3757 35.7557 54.1225 35.173 54.7349 34.4582C54.8545 34.3091 55.018 34.203 55.2013 34.1555C55.3846 34.1081 55.5781 34.1217 55.7532 34.1945C55.9327 34.2594 56.0879 34.3794 56.1974 34.5381C56.3069 34.6967 56.3651 34.886 56.3641 35.0798ZM47.6868 21.8836H49.7659L46.9204 26.1724C46.8263 26.3141 46.7718 26.479 46.7629 26.6497C46.754 26.8204 46.7909 26.9904 46.8696 27.1414C46.9484 27.2923 47.0661 27.4187 47.21 27.5068C47.354 27.5949 47.5188 27.6415 47.6868 27.6416H51.508C51.7535 27.6416 51.989 27.5424 52.1626 27.3658C52.3362 27.1892 52.4337 26.9496 52.4337 26.6998C52.4337 26.4501 52.3362 26.2105 52.1626 26.0339C51.989 25.8573 51.7535 25.7581 51.508 25.7581H49.4289L52.2763 21.4692C52.3705 21.3274 52.4249 21.1623 52.4338 20.9914C52.4427 20.8205 52.4056 20.6505 52.3266 20.4994C52.2476 20.3484 52.1297 20.2221 51.9855 20.1341C51.8412 20.0461 51.6762 19.9997 51.508 20H47.6868C47.4413 20 47.2059 20.0992 47.0323 20.2758C46.8587 20.4525 46.7611 20.692 46.7611 20.9418C46.7611 21.1916 46.8587 21.4311 47.0323 21.6077C47.2059 21.7843 47.4413 21.8836 47.6868 21.8836ZM58.0729 29.3914H57.0917L58.8412 26.7545C58.9354 26.6127 58.9899 26.4475 58.9987 26.2767C59.0076 26.1058 58.9705 25.9357 58.8915 25.7847C58.8125 25.6337 58.6946 25.5074 58.5504 25.4194C58.4062 25.3314 58.2411 25.285 58.0729 25.2853H55.0423C54.7967 25.2853 54.5613 25.3845 54.3877 25.5611C54.2141 25.7377 54.1166 25.9773 54.1166 26.2271C54.1166 26.4768 54.2141 26.7164 54.3877 26.893C54.5613 27.0696 54.7967 27.1688 55.0423 27.1688H56.3327L54.5813 29.8058C54.4871 29.9476 54.4327 30.1127 54.4238 30.2836C54.4149 30.4545 54.452 30.6245 54.531 30.7756C54.61 30.9266 54.7279 31.0529 54.8721 31.1409C55.0164 31.2289 55.1814 31.2753 55.3496 31.275H58.0729C58.3184 31.275 58.5539 31.1758 58.7275 30.9992C58.9011 30.8225 58.9986 30.583 58.9986 30.3332C58.9986 30.0834 58.9011 29.8439 58.7275 29.6673C58.5539 29.4907 58.3184 29.3914 58.0729 29.3914Z" fill="#101334"/>
</g>
<defs>
<filter id="filter0_d_241_11370" x="0.4" y="0.4" width="91.2" height="91.2" filterUnits="userSpaceOnUse" color-interpolation-filters="sRGB">
<feFlood flood-opacity="0" result="BackgroundImageFix"/>
<feColorMatrix in="SourceAlpha" type="matrix" values="0 0 0 0 0 0 0 0 0 0 0 0 0 0 0 0 0 0 127 0" result="hardAlpha"/>
<feOffset dy="13"/>
<feGaussianBlur stdDeviation="7.8"/>
<feComposite in2="hardAlpha" operator="out"/>
<feColorMatrix type="matrix" values="0 0 0 0 0.827451 0 0 0 0 0.984314 0 0 0 0 0.560784 0 0 0 0.2 0"/>
<feBlend mode="normal" in2="BackgroundImageFix" result="effect1_dropShadow_241_11370"/>
<feBlend mode="normal" in="SourceGraphic" in2="effect1_dropShadow_241_11370" result="shape"/>
</filter>
<linearGradient id="paint0_linear_241_11370" x1="14.5" y1="11.5" x2="89" y2="65.5" gradientUnits="userSpaceOnUse">
<stop stop-color="#F0FFD6"/>
<stop offset="0.230878" stop-color="#E1FFAD"/>
<stop offset="0.646761" stop-color="#BFFF52"/>
<stop offset="1" stop-color="#7D9555"/>
</linearGradient>
</defs>
</svg>
