<svg width="237" height="245" viewBox="0 0 237 245" fill="none" xmlns="http://www.w3.org/2000/svg">
<g id="Group">
<g id="Group_2">
<g id="Group_3" opacity="0.5">
<path id="Vector" d="M210.677 130.364C203.886 128.046 198.241 122.951 193.042 116.189H123.876C115.838 116.189 110.816 107.488 114.836 100.53L146.208 46.196C132.047 33.2389 113.027 29.4689 95.324 33.3051C87.8504 34.9179 80.6129 37.8901 74.0725 42.092C64.9486 47.9557 57.1841 56.2213 52.0347 66.5662C33.9829 102.817 68.5832 170.382 64.8133 188.655C61.0433 206.926 45.6757 230.124 79.6049 242.016C113.531 253.904 210.101 200.835 226.92 179.085C243.742 157.338 235.332 138.779 210.682 130.367L210.677 130.364ZM161.529 217.34C116.27 238.134 74.2942 243.49 67.7768 229.301C62.2385 217.242 84.0834 194.951 118.551 175.767C124.64 172.375 131.125 169.08 137.919 165.958C144.719 162.833 151.438 160.06 157.981 157.646C194.989 143.995 226.136 141.939 231.678 153.992C238.198 168.181 206.792 196.544 161.529 217.34Z" fill="#2A2C58"/>
</g>
<path id="Vector_2" d="M91.3579 244.597C86.698 244.597 82.6776 244.01 79.3166 242.832C50.7211 232.81 56.2708 214.677 61.1697 198.679C62.2612 195.11 63.2923 191.741 63.9662 188.486C65.2795 182.124 61.6276 169.015 57.4027 153.834C53.5032 139.829 49.0852 123.957 47.0462 108.509C44.6702 90.4972 46.0497 76.656 51.2596 66.1872C56.2651 56.1331 63.9892 47.5536 73.6027 41.3702C80.218 37.1164 87.4641 34.1212 95.1393 32.4652C114.32 28.3094 133.147 33.0844 146.789 45.5635L147.302 46.0329L115.584 100.969C113.854 103.964 113.854 107.544 115.584 110.542C117.315 113.543 120.417 115.331 123.882 115.331H193.474L193.733 115.668C199.427 123.076 204.902 127.485 210.961 129.553C224.281 134.098 232.8 141.419 235.594 150.718C238.223 159.467 235.459 169.461 227.605 179.616C218.959 190.799 190.548 209.444 160.052 223.948C143.644 231.75 127.994 237.68 114.79 241.095C105.761 243.431 97.93 244.6 91.3636 244.6L91.3579 244.597ZM108.618 32.7244C104.306 32.7244 99.9172 33.1939 95.5022 34.1501C88.0315 35.7629 80.9755 38.6803 74.5358 42.8188C65.1844 48.8323 57.6705 57.1757 52.8033 66.9504C47.7489 77.0995 46.4241 90.6182 48.754 108.275C50.7758 123.603 55.1793 139.414 59.0616 153.362C63.5256 169.392 67.0507 182.055 65.6539 188.826C64.9656 192.161 63.923 195.568 62.8171 199.177C57.9211 215.178 52.8552 231.724 79.884 241.196C83.0462 242.305 86.891 242.849 91.3291 242.849C107.356 242.849 131.2 235.744 159.3 222.381C189.094 208.212 217.868 189.368 226.231 178.553C233.731 168.856 236.392 159.401 233.932 151.208C231.306 142.464 223.167 135.538 210.397 131.18C204.093 129.032 198.436 124.536 192.619 117.051H123.876C119.786 117.051 116.126 114.937 114.081 111.395C112.039 107.855 112.039 103.633 114.081 100.093L145.104 46.3641C135.088 37.4332 122.263 32.7187 108.615 32.7187L108.618 32.7244Z" fill="#2A2C58"/>
<g id="Group_4">
<path id="Vector_3" d="M161.532 217.34C116.272 238.134 74.2964 243.491 67.779 229.301C62.2407 217.242 84.0855 194.951 118.553 175.767C118.539 176.096 118.53 176.43 118.53 176.767C118.53 190.219 129.437 201.126 142.889 201.126C156.342 201.126 167.248 190.219 167.248 176.767C167.248 169.014 163.625 162.105 157.983 157.646C194.991 143.995 226.139 141.939 231.68 153.992C238.2 168.181 206.794 196.544 161.532 217.34Z" fill="#2A2C58"/>
<path id="Vector_4" d="M88.5666 237.388C77.3576 237.388 70.0713 234.644 67.6463 229.362C62.1685 217.439 83.0744 195.349 118.481 175.641L118.706 175.514L118.694 175.774C118.68 176.099 118.671 176.433 118.671 176.767C118.671 190.119 129.535 200.982 142.886 200.982C156.238 200.982 167.101 190.119 167.101 176.767C167.101 169.311 163.743 162.385 157.891 157.762L157.689 157.604L157.931 157.514C195.953 143.489 226.331 142.017 231.806 153.935C234.989 160.858 229.416 171.287 216.116 183.299C202.857 195.274 183.491 207.41 161.589 217.473C139.687 227.536 117.865 234.324 100.144 236.585C95.925 237.123 92.0543 237.388 88.5666 237.388ZM118.398 176.018C101.665 185.353 87.4204 195.749 78.2648 205.308C68.9596 215.025 65.2818 223.524 67.9084 229.244C74.3826 243.338 116.356 237.941 161.471 217.214C206.586 196.484 238.024 168.153 231.547 154.058C228.921 148.342 220.073 145.597 206.638 146.329C193.422 147.049 176.254 151.083 158.271 157.699C164.069 162.376 167.389 169.314 167.389 176.77C167.389 190.28 156.396 201.273 142.886 201.273C129.376 201.273 118.383 190.28 118.383 176.77C118.383 176.52 118.386 176.269 118.395 176.021L118.398 176.018Z" fill="#2A2C58"/>
</g>
<g id="Group_5">
<path id="Vector_5" d="M88.6402 238.101C77.0857 238.101 69.543 235.212 66.9913 229.663C64.1401 223.453 67.7862 214.79 77.5378 204.61C86.7999 194.938 101.217 184.427 118.131 175.012L119.485 174.257L119.413 175.807C119.399 176.123 119.39 176.446 119.39 176.766C119.39 189.72 129.931 200.261 142.885 200.261C155.839 200.261 166.38 189.72 166.38 176.766C166.38 169.531 163.123 162.809 157.443 158.325L156.234 157.369L157.68 156.836C175.841 150.137 193.207 146.045 206.579 145.316C220.657 144.55 229.605 147.424 232.459 153.631C235.782 160.865 230.149 171.59 216.596 183.83C203.284 195.851 183.853 208.031 161.887 218.125C139.922 228.217 118.025 235.025 100.232 237.295C96.0159 237.833 92.1394 238.098 88.6345 238.098L88.6402 238.101ZM117.671 177.252C101.468 186.396 87.6956 196.502 78.7878 205.805C69.7014 215.294 66.0697 223.511 68.5638 228.943C71.5014 235.339 82.9666 237.761 100.019 235.584C117.642 233.335 139.36 226.578 161.173 216.559C182.986 206.536 202.262 194.458 215.447 182.552C228.205 171.032 233.835 160.753 230.895 154.356C228.401 148.928 219.801 146.333 206.68 147.044C193.818 147.744 177.177 151.609 159.684 157.948C165.058 162.734 168.114 169.511 168.114 176.769C168.114 190.676 156.798 201.992 142.891 201.992C128.983 201.992 117.933 190.938 117.674 177.252H117.671Z" fill="#2A2C58"/>
<path id="Vector_6" d="M88.6399 238.244C76.9528 238.244 69.4216 235.298 66.8613 229.722C63.9842 223.456 67.6389 214.738 77.4338 204.508C86.7045 194.826 101.133 184.308 118.062 174.884L119.643 174.006L119.56 175.812C119.545 176.126 119.537 176.445 119.537 176.765C119.537 189.642 130.011 200.116 142.888 200.116C155.764 200.116 166.239 189.642 166.239 176.765C166.239 169.577 163.001 162.895 157.357 158.437L155.945 157.322L157.633 156.7C175.809 149.995 193.19 145.9 206.576 145.171C220.72 144.402 229.714 147.306 232.594 153.57C235.946 160.867 230.301 171.65 216.699 183.936C203.376 195.969 183.933 208.154 161.953 218.254C139.973 228.352 118.062 235.166 100.255 237.438C96.0703 237.971 92.1621 238.242 88.6399 238.242V238.244ZM119.329 174.51L118.2 175.138C101.297 184.547 86.8917 195.047 77.6412 204.707C67.9356 214.842 64.2981 223.45 67.1234 229.602C69.6348 235.068 77.0738 237.956 88.6399 237.956C92.1506 237.956 96.0444 237.686 100.217 237.153C117.996 234.883 139.875 228.081 161.829 217.995C183.784 207.906 203.201 195.736 216.503 183.723C230.005 171.529 235.626 160.865 232.332 153.69C229.506 147.542 220.607 144.699 206.593 145.459C193.236 146.188 175.884 150.275 157.734 156.971L156.53 157.414L157.538 158.209C163.252 162.722 166.529 169.484 166.529 176.762C166.529 189.797 155.925 200.401 142.89 200.401C129.856 200.401 119.251 189.797 119.251 176.762C119.251 176.44 119.26 176.114 119.274 175.794L119.332 174.504L119.329 174.51ZM88.7407 236.505C77.8888 236.505 70.686 233.913 68.4309 229C65.9109 223.51 69.5512 215.236 78.6808 205.703C87.5772 196.415 101.398 186.266 117.598 177.125L117.809 177.007L117.814 177.249C118.071 190.811 129.32 201.847 142.888 201.847C156.455 201.847 167.967 190.598 167.967 176.768C167.967 169.617 164.911 162.797 159.586 158.054L159.404 157.892L159.632 157.809C177.122 151.473 193.826 147.596 206.668 146.897C219.853 146.177 228.501 148.806 231.021 154.292C233.988 160.749 228.346 171.089 215.538 182.655C202.342 194.572 183.055 206.657 161.227 216.688C139.403 226.716 117.67 233.475 100.033 235.727C95.9349 236.251 92.1564 236.508 88.7407 236.508V236.505ZM117.529 177.494C101.444 186.589 87.724 196.674 78.8882 205.902C69.845 215.346 66.222 223.505 68.693 228.879C71.6047 235.215 83.0152 237.605 99.9986 235.439C117.607 233.193 139.311 226.439 161.109 216.426C182.911 206.409 202.172 194.339 215.345 182.442C228.052 170.965 233.671 160.749 230.762 154.413C228.294 149.042 219.74 146.473 206.685 147.185C193.927 147.879 177.338 151.718 159.957 157.996C165.233 162.786 168.255 169.611 168.255 176.762C168.255 190.75 156.876 202.129 142.888 202.129C136.209 202.129 129.899 199.543 125.121 194.851C120.406 190.22 117.716 184.063 117.532 177.491L117.529 177.494Z" fill="#2A2C58"/>
</g>
<g id="Group_6" opacity="0.75">
<g id="Group_7">
<path id="Vector_7" d="M167.249 176.767C167.249 190.219 156.345 201.126 142.89 201.126C129.434 201.126 118.531 190.219 118.531 176.767C118.531 176.43 118.539 176.096 118.554 175.767C124.642 172.375 131.128 169.08 137.922 165.958C144.721 162.833 151.44 160.06 157.984 157.646C163.626 162.102 167.249 169.011 167.249 176.767Z" fill="#2A2C58"/>
<path id="Vector_8" d="M142.887 201.27C129.377 201.27 118.384 190.277 118.384 176.767C118.384 176.43 118.392 176.093 118.407 175.762V175.681L118.481 175.641C124.65 172.202 131.171 168.902 137.861 165.826C144.554 162.75 151.308 159.953 157.935 157.511L158.009 157.482L158.073 157.531C163.994 162.209 167.392 169.218 167.392 176.764C167.392 190.274 156.4 201.267 142.889 201.267L142.887 201.27ZM118.692 175.854C118.68 176.156 118.672 176.462 118.672 176.767C118.672 190.119 129.535 200.982 142.887 200.982C156.238 200.982 167.102 190.119 167.102 176.767C167.102 169.339 163.769 162.433 157.955 157.811C151.362 160.244 144.64 163.029 137.979 166.088C131.32 169.149 124.832 172.433 118.689 175.854H118.692Z" fill="#2A2C58"/>
</g>
</g>
<g id="Group_8">
<path id="Vector_9" d="M142.887 201.991C128.98 201.991 117.664 190.676 117.664 176.768C117.664 176.42 117.673 176.071 117.687 175.728L117.71 175.247L118.131 175.014C124.317 171.567 130.852 168.258 137.559 165.173C144.27 162.092 151.04 159.286 157.685 156.838L158.14 156.671L158.52 156.971C164.617 161.786 168.113 169.004 168.113 176.768C168.113 190.676 156.798 201.991 142.89 201.991H142.887ZM119.398 176.287C119.395 176.448 119.392 176.61 119.392 176.768C119.392 189.722 129.933 200.263 142.887 200.263C155.841 200.263 166.382 189.722 166.382 176.768C166.382 169.695 163.269 163.111 157.823 158.63C151.369 161.023 144.797 163.75 138.282 166.746C131.77 169.738 125.42 172.949 119.398 176.287Z" fill="#2A2C58"/>
<path id="Vector_10" d="M142.887 202.135C128.898 202.135 117.52 190.756 117.52 176.768C117.52 176.416 117.528 176.065 117.543 175.722L117.568 175.161L118.058 174.887C124.247 171.44 130.785 168.128 137.498 165.043C144.211 161.959 150.985 159.154 157.632 156.703L158.162 156.507L158.606 156.858C164.737 161.702 168.254 168.957 168.254 176.768C168.254 190.756 156.875 202.135 142.887 202.135ZM117.848 175.333L117.831 175.734C117.816 176.074 117.808 176.419 117.808 176.765C117.808 190.595 129.057 201.844 142.887 201.844C156.716 201.844 167.966 190.595 167.966 176.765C167.966 169.043 164.489 161.869 158.427 157.08L158.11 156.829L157.73 156.968C151.089 159.416 144.324 162.218 137.616 165.299C130.912 168.381 124.38 171.69 118.196 175.135L117.845 175.331L117.848 175.333ZM142.887 200.407C129.852 200.407 119.248 189.803 119.248 176.768C119.248 176.606 119.248 176.445 119.253 176.284V176.2L119.328 176.16C125.35 172.819 131.706 169.608 138.221 166.613C144.736 163.62 151.316 160.887 157.773 158.494L157.851 158.465L157.914 158.517C163.389 163.021 166.528 169.674 166.528 176.768C166.528 189.803 155.924 200.407 142.889 200.407H142.887ZM119.538 176.37C119.538 176.503 119.536 176.635 119.536 176.768C119.536 189.644 130.01 200.119 142.887 200.119C155.763 200.119 166.238 189.644 166.238 176.768C166.238 169.789 163.162 163.24 157.793 158.794C151.368 161.178 144.822 163.897 138.339 166.875C131.859 169.853 125.532 173.05 119.538 176.373V176.37Z" fill="#2A2C58"/>
</g>
<g id="Group_9">
<g id="Group_10">
<g id="Group_11">
<path id="Vector_11" d="M66.9199 187.491C66.8047 187.491 66.6895 187.468 66.5771 187.419C66.1394 187.228 65.9378 186.722 66.1279 186.281C66.2229 186.062 68.5355 180.861 77.0776 173.082C84.8853 165.971 99.6539 155.246 125.672 144.532C126.112 144.351 126.616 144.561 126.801 145.002C126.982 145.443 126.772 145.949 126.331 146.131C77.0891 166.409 67.8069 186.765 67.7176 186.966C67.5765 187.292 67.2597 187.488 66.9256 187.488L66.9199 187.491Z" fill="#2A2C58"/>
<path id="Vector_12" d="M66.9207 187.634C66.7825 187.634 66.6471 187.605 66.5204 187.551C66.0106 187.329 65.7745 186.736 65.9962 186.226C66.0913 186.007 68.4154 180.777 76.9805 172.978C84.7969 165.858 99.5828 155.122 125.615 144.402C126.128 144.192 126.718 144.437 126.931 144.95C127.144 145.465 126.897 146.053 126.384 146.266C77.1908 166.524 67.9345 186.825 67.8481 187.026C67.6868 187.395 67.3239 187.634 66.9236 187.634H66.9207ZM125.998 144.613C125.906 144.613 125.814 144.63 125.725 144.667C99.7297 155.372 84.9754 166.086 77.1735 173.191C68.6516 180.95 66.3533 186.125 66.2612 186.341C66.1028 186.707 66.2727 187.13 66.6356 187.289C66.9956 187.444 67.4305 187.268 67.5831 186.914C67.6724 186.71 76.9748 166.302 126.275 146.001C126.453 145.929 126.591 145.791 126.666 145.612C126.741 145.434 126.741 145.238 126.666 145.062C126.551 144.786 126.283 144.616 125.998 144.616V144.613Z" fill="#2A2C58"/>
</g>
<g id="Group_12">
<path id="Vector_13" d="M133.385 144.013C133.036 144.013 132.708 143.803 132.578 143.457C132.408 143.011 132.63 142.513 133.077 142.343C133.275 142.268 153.254 134.688 170.185 132.988C170.658 132.942 171.084 133.288 171.133 133.763C171.182 134.238 170.833 134.662 170.358 134.711C153.66 136.387 133.892 143.886 133.696 143.961C133.595 143.999 133.491 144.019 133.388 144.019L133.385 144.013Z" fill="#2A2C58"/>
<path id="Vector_14" d="M133.384 144.157C132.969 144.157 132.589 143.895 132.442 143.509C132.243 142.991 132.505 142.406 133.024 142.208C133.225 142.13 153.288 134.538 170.17 132.845C170.723 132.79 171.218 133.196 171.273 133.746C171.328 134.299 170.925 134.795 170.372 134.849C153.65 136.528 133.943 144.016 133.744 144.091C133.629 144.134 133.508 144.157 133.384 144.157ZM170.268 133.127C170.245 133.127 170.222 133.127 170.196 133.13C153.351 134.82 133.326 142.401 133.125 142.476C132.753 142.617 132.569 143.034 132.71 143.406C132.848 143.766 133.272 143.962 133.64 143.82C133.836 143.746 153.581 136.246 170.34 134.561C170.735 134.521 171.025 134.167 170.985 133.772C170.948 133.401 170.634 133.124 170.268 133.124V133.127Z" fill="#2A2C58"/>
</g>
</g>
<g id="Group_13">
<path id="Vector_15" d="M58.718 119.631C58.3465 119.631 58.0038 119.389 57.8915 119.015C52.1372 99.7793 54.7004 83.8932 57.8627 73.9543C61.2985 63.1658 66.0361 57.0141 66.2377 56.7578C66.5315 56.3805 67.0729 56.3143 67.4502 56.6081C67.8275 56.9018 67.8937 57.4433 67.5999 57.8205C67.5539 57.881 62.822 64.0356 59.4841 74.5533C56.4111 84.2445 53.9257 99.7418 59.5446 118.519C59.6828 118.977 59.4207 119.458 58.9657 119.594C58.8822 119.62 58.7987 119.631 58.718 119.631Z" fill="#2A2C58"/>
<path id="Vector_16" d="M58.7192 119.775C58.2786 119.775 57.8812 119.478 57.7544 119.055C51.9887 99.7849 54.5576 83.8671 57.7285 73.911C61.1701 63.0994 65.925 56.9247 66.1266 56.6684C66.4693 56.2306 67.1029 56.1529 67.5407 56.4927C67.9784 56.8354 68.0591 57.469 67.7164 57.9068C67.6703 57.9673 62.9471 64.119 59.6264 74.5964C56.5592 84.2703 54.0796 99.733 59.6869 118.479C59.7647 118.738 59.7359 119.009 59.6092 119.248C59.4824 119.487 59.2693 119.657 59.0101 119.735C58.9151 119.763 58.8172 119.778 58.7221 119.778L58.7192 119.775ZM66.9215 56.5676C66.7084 56.5676 66.4952 56.6626 66.3541 56.8441C66.1554 57.1004 61.4293 63.2319 58.0021 73.9974C54.8428 83.9161 52.2853 99.7705 58.0309 118.971C58.1404 119.34 58.5551 119.568 58.9266 119.455C59.1109 119.401 59.2636 119.277 59.3528 119.107C59.445 118.937 59.4652 118.744 59.4076 118.56C53.7772 99.7446 56.2684 84.2185 59.3471 74.5071C62.685 63.9836 67.437 57.7887 67.486 57.7282C67.7308 57.4143 67.6732 56.9622 67.3592 56.7174C67.2268 56.6166 67.0712 56.5647 66.9186 56.5647L66.9215 56.5676Z" fill="#2A2C58"/>
</g>
<g id="Group_14">
<path id="Vector_17" d="M66.9209 151.82C66.535 151.82 66.1808 151.558 66.0829 151.167L60.2768 127.968C60.1616 127.505 60.4409 127.035 60.9046 126.92C61.3654 126.805 61.8377 127.084 61.9529 127.548L67.759 150.746C67.8742 151.21 67.5949 151.679 67.1312 151.795C67.0621 151.812 66.9901 151.82 66.9209 151.82Z" fill="#2A2C58"/>
<path id="Vector_18" d="M66.921 151.965C66.4573 151.965 66.057 151.651 65.9447 151.202L60.1386 128.004C60.0723 127.742 60.1126 127.471 60.2509 127.24C60.3891 127.01 60.6109 126.846 60.8701 126.78C61.1293 126.713 61.4 126.754 61.6333 126.892C61.8637 127.03 62.0278 127.252 62.0941 127.511L67.9002 150.71C67.9664 150.972 67.9261 151.242 67.7878 151.473C67.6496 151.703 67.4279 151.867 67.1687 151.934C67.088 151.954 67.0045 151.965 66.9238 151.965H66.921ZM61.1178 127.036C61.0602 127.036 60.9997 127.045 60.9421 127.059C60.7549 127.105 60.5994 127.223 60.4986 127.387C60.4006 127.552 60.3718 127.744 60.4179 127.932L66.224 151.13C66.3191 151.507 66.7194 151.749 67.0967 151.654C67.2839 151.608 67.4394 151.49 67.5402 151.326C67.6381 151.162 67.6669 150.969 67.6208 150.782L61.8147 127.583C61.7687 127.396 61.6506 127.24 61.4864 127.14C61.3741 127.071 61.2474 127.036 61.1178 127.036Z" fill="#2A2C58"/>
</g>
</g>
<g id="Group_15" opacity="0.75">
<g id="Group_16">
<path id="Vector_19" d="M95.3217 33.3053C87.8481 34.9181 80.6106 37.8903 74.0702 42.0922C68.7018 34.6762 58.6276 19.3431 60.6292 11.233C63.3364 0.277509 79.9597 -2.81561 86.794 8.01031C91.1831 14.9655 93.922 26.1802 95.3188 33.3053H95.3217Z" fill="#2A2C58"/>
<path id="Vector_20" d="M74.0329 42.2878L73.9523 42.1784C68.0713 34.0568 58.504 19.2305 60.4883 11.1982C61.7411 6.13231 66.2281 2.26447 71.9248 1.34287C77.9872 0.363665 83.7328 2.88654 86.9152 7.9323C91.2035 14.7291 93.9308 25.4657 95.4601 33.2763L95.486 33.4145L95.3478 33.4433C87.7936 35.0734 80.6598 38.0225 74.1452 42.2101L74.03 42.2849L74.0329 42.2878ZM74.4937 1.4235C73.6643 1.4235 72.8204 1.48974 71.9708 1.62798C66.3894 2.52942 61.9916 6.31375 60.7705 11.2673C58.7545 19.435 69.3587 35.3211 74.1078 41.899C80.582 37.7576 87.6611 34.8286 95.152 33.1957C93.6198 25.4225 90.9126 14.8097 86.6732 8.08782C83.9977 3.84846 79.4761 1.4235 74.4937 1.4235Z" fill="#2A2C58"/>
</g>
</g>
<g id="Group_17">
<path id="Vector_21" d="M73.8494 43.2623L73.3713 42.5999C67.4184 34.3775 57.7387 19.3382 59.7921 11.0265C61.1141 5.68123 65.8315 1.60027 71.8104 0.63547C78.1637 -0.39269 84.1857 2.25691 87.5265 7.55323C91.8753 14.4451 94.6257 25.2739 96.1694 33.142L96.3336 33.9743L95.5041 34.1529C88.0334 35.7657 80.9803 38.6831 74.5377 42.8217L73.8494 43.2623ZM74.411 2.15611C73.6046 2.15611 72.8241 2.22235 72.084 2.34043C66.707 3.21019 62.6376 6.69787 61.4654 11.4412C59.5733 19.102 69.4373 34.1385 74.2929 40.9267C80.4821 37.0559 87.2069 34.2739 94.3061 32.6467C92.9957 26.1753 90.3029 15.1967 86.0606 8.47195C83.1057 3.79195 78.4459 2.15323 74.4081 2.15323L74.411 2.15611Z" fill="#2A2C58"/>
<path id="Vector_22" d="M73.8128 43.4584L73.254 42.6865C67.2867 34.444 57.584 19.3643 59.6518 10.995C60.9852 5.59212 65.7488 1.47084 71.7881 0.494521C78.199 -0.542279 84.2758 2.13324 87.6483 7.47564C92.0086 14.3876 94.7648 25.2337 96.3113 33.1134L96.5014 34.084L95.5337 34.2913C88.0803 35.8984 81.0444 38.81 74.6163 42.94L73.8128 43.4555V43.4584ZM74.4982 0.560762C73.6198 0.560762 72.7299 0.632762 71.8313 0.776762C65.9072 1.7358 61.2358 5.77068 59.9283 11.0612C57.8892 19.3182 67.5459 34.3115 73.4844 42.5166L73.8848 43.0696L74.4579 42.7009C80.9148 38.5508 87.9852 35.6276 95.4704 34.012L96.1616 33.8622L96.0262 33.1681C94.4854 25.3115 91.7379 14.5028 87.4035 7.62828C84.5667 3.1326 79.7744 0.560762 74.4982 0.560762ZM74.2563 41.1227L74.1785 41.0132C69.6713 34.7118 59.4012 19.2174 61.328 11.4068C62.5145 6.60588 66.6272 3.07788 72.0617 2.19948C72.8278 2.07564 73.6169 2.01228 74.4118 2.01228C79.3337 2.01228 83.6249 4.33932 86.1852 8.39724C90.4937 15.2257 93.2124 26.5038 94.448 32.618L94.4768 32.7563L94.3385 32.788C87.2595 34.4123 80.5404 37.1915 74.3686 41.0507L74.2534 41.1227H74.2563ZM74.4118 2.30028C73.6342 2.30028 72.8595 2.36076 72.1078 2.4846C66.7884 3.34572 62.7651 6.7902 61.6073 11.4788C59.718 19.1252 69.8096 34.4008 74.334 40.7368C80.4598 36.9236 87.1241 34.1646 94.1398 32.5403C92.8928 26.4145 90.1942 15.292 85.9433 8.55276C83.4377 4.58124 79.2329 2.30316 74.4118 2.30316V2.30028Z" fill="#2A2C58"/>
</g>
</g>
<g id="Group_18">
<g id="Group_19" opacity="0.75">
<g id="Group_20">
<path id="Vector_23" d="M225.714 100.53L179.318 20.1668C175.297 13.2087 165.252 13.2087 161.237 20.1668L146.209 46.1962L114.837 100.53C110.817 107.488 115.84 116.189 123.878 116.189H216.674C224.709 116.189 229.732 107.488 225.714 100.53ZM218.045 106.544C217.676 107.177 216.81 108.24 215.107 108.24H125.447C123.739 108.24 122.873 107.177 122.507 106.544C122.144 105.91 121.654 104.629 122.507 103.151L167.337 25.5006C168.189 24.0231 169.543 23.8042 170.277 23.8042C171.012 23.8042 172.362 24.0231 173.215 25.5006L218.045 103.151C218.898 104.629 218.414 105.91 218.045 106.544Z" fill="#2A2C58"/>
<path id="Vector_24" d="M216.671 116.333H123.874C120.047 116.333 116.619 114.355 114.707 111.04C112.795 107.728 112.795 103.771 114.707 100.459L146.079 46.1247L161.107 20.0952C163.019 16.7832 166.443 14.8047 170.268 14.8047C174.096 14.8047 177.52 16.7832 179.435 20.0952L225.832 100.459C227.744 103.771 227.744 107.728 225.832 111.043C223.92 114.358 220.492 116.333 216.668 116.333H216.671ZM170.271 15.0927C166.55 15.0927 163.218 17.0165 161.357 20.2392L146.329 46.2687L114.958 100.603C113.097 103.825 113.094 107.673 114.958 110.896C116.818 114.121 120.153 116.045 123.877 116.045H216.673C220.394 116.045 223.727 114.121 225.587 110.899C227.448 107.676 227.448 103.825 225.587 100.603L179.19 20.2392C177.327 17.0165 173.995 15.0927 170.274 15.0927H170.271ZM215.104 108.382H125.444C123.67 108.382 122.76 107.273 122.377 106.613C121.996 105.951 121.489 104.612 122.377 103.077L167.207 25.4261C168.094 23.8882 169.508 23.6578 170.274 23.6578C171.04 23.6578 172.448 23.8882 173.335 25.4261L218.165 103.077C219.055 104.62 218.548 105.954 218.165 106.613C217.782 107.273 216.875 108.382 215.104 108.382ZM170.274 23.9458C169.571 23.9458 168.272 24.156 167.457 25.5701L122.627 103.221C121.812 104.632 122.279 105.862 122.627 106.469C122.978 107.074 123.814 108.094 125.444 108.094H215.104C216.731 108.094 217.563 107.077 217.918 106.469C218.269 105.865 218.736 104.641 217.918 103.221L173.088 25.5701C172.273 24.156 170.974 23.9458 170.274 23.9458Z" fill="#2A2C58"/>
</g>
</g>
<g id="Group_21">
<path id="Vector_25" d="M216.672 117.055H123.876C119.789 117.055 116.128 114.942 114.086 111.402C112.045 107.863 112.045 103.638 114.086 100.098L145.458 45.764L160.483 19.7345C162.525 16.1979 166.183 14.084 170.27 14.084C174.356 14.084 178.017 16.195 180.062 19.7345L226.461 100.098C228.503 103.638 228.503 107.865 226.461 111.405C224.416 114.944 220.759 117.055 216.675 117.055H216.672ZM170.272 15.812C166.811 15.812 163.712 17.6033 161.984 20.5985L146.959 46.628L115.587 100.962C113.856 103.96 113.856 107.54 115.587 110.538C117.318 113.536 120.42 115.327 123.881 115.327H216.678C220.137 115.327 223.236 113.539 224.966 110.541C226.697 107.543 226.7 103.96 224.966 100.962L178.57 20.5985C176.839 17.6005 173.737 15.812 170.275 15.812H170.272Z" fill="#2A2C58"/>
<path id="Vector_26" d="M216.672 117.2H123.875C119.736 117.2 116.03 115.06 113.959 111.475C111.888 107.889 111.891 103.609 113.959 100.027L145.331 45.6924L160.356 19.663C162.424 16.0803 166.128 13.9404 170.266 13.9404C174.408 13.9404 178.114 16.0803 180.185 19.663L226.584 100.027C228.652 103.612 228.652 107.892 226.584 111.477C224.514 115.06 220.81 117.2 216.674 117.2H216.672ZM170.272 14.2284C166.237 14.2284 162.625 16.3136 160.609 19.807L145.584 45.8364L114.213 100.171C112.194 103.664 112.194 107.837 114.213 111.331C116.229 114.824 119.843 116.912 123.878 116.912H216.674C220.706 116.912 224.318 114.827 226.337 111.333C228.356 107.837 228.356 103.667 226.337 100.171L179.937 19.807C177.918 16.3136 174.307 14.2284 170.272 14.2284ZM216.672 115.472H123.875C120.361 115.472 117.214 113.655 115.457 110.611C113.7 107.566 113.7 103.935 115.457 100.891L146.829 46.5564L161.854 20.527C163.608 17.4857 166.755 15.6684 170.266 15.6684C173.78 15.6684 176.928 17.4857 178.684 20.527L225.081 100.891C226.838 103.935 226.835 107.569 225.081 110.613C223.324 113.655 220.179 115.472 216.666 115.472H216.672ZM170.269 15.9564C166.859 15.9564 163.806 17.719 162.104 20.671L147.079 46.7004L115.707 101.035C114.002 103.987 114.002 107.515 115.707 110.467C117.412 113.421 120.465 115.184 123.875 115.184H216.672C220.079 115.184 223.131 113.421 224.836 110.469C226.541 107.515 226.544 103.989 224.836 101.035L178.44 20.671C176.735 17.719 173.679 15.9564 170.269 15.9564Z" fill="#2A2C58"/>
</g>
<g id="Group_22" opacity="0.25">
<g id="Group_23">
<path id="Vector_27" d="M218.043 106.545C217.674 107.179 216.807 108.242 215.105 108.242H125.445C123.737 108.242 122.87 107.179 122.504 106.545C122.142 105.912 121.652 104.63 122.504 103.153L167.335 25.502C168.187 24.0245 169.541 23.8057 170.275 23.8057C171.009 23.8057 172.36 24.0245 173.213 25.502L218.043 103.153C218.895 104.63 218.411 105.912 218.043 106.545Z" fill="#2A2C58"/>
<path id="Vector_28" d="M215.105 108.386H125.445C123.671 108.386 122.761 107.277 122.378 106.618C121.998 105.955 121.491 104.616 122.378 103.081L167.208 25.4304C168.095 23.8925 169.509 23.6621 170.275 23.6621C171.041 23.6621 172.449 23.8925 173.337 25.4304L218.167 103.081C219.057 104.625 218.55 105.958 218.167 106.618C217.784 107.277 216.876 108.386 215.105 108.386ZM170.275 23.9501C169.572 23.9501 168.273 24.1603 167.458 25.5744L122.628 103.225C121.813 104.636 122.28 105.866 122.628 106.474C122.98 107.078 123.815 108.098 125.445 108.098H215.105C216.732 108.098 217.565 107.081 217.919 106.474C218.27 105.869 218.737 104.645 217.919 103.225L173.089 25.5744C172.274 24.1603 170.975 23.9501 170.275 23.9501Z" fill="#2A2C58"/>
</g>
</g>
<g id="Group_24">
<path id="Vector_29" d="M215.103 109.104H125.442C123.308 109.104 122.214 107.771 121.753 106.979C120.973 105.622 120.973 104.07 121.753 102.722L166.583 25.0717C167.364 23.7181 168.709 22.9434 170.273 22.9434C171.836 22.9434 173.178 23.7181 173.959 25.0717L218.789 102.722C219.901 104.649 219.158 106.342 218.789 106.982C218.328 107.777 217.237 109.107 215.106 109.107L215.103 109.104ZM170.273 24.6685C169.604 24.6685 168.683 24.8874 168.078 25.9328L123.248 103.583C122.646 104.626 122.917 105.536 123.248 106.112C123.582 106.685 124.236 107.373 125.44 107.373H215.1C216.304 107.373 216.954 106.685 217.291 106.106C217.626 105.533 217.896 104.629 217.291 103.58L172.461 25.9299C171.859 24.8845 170.938 24.6656 170.273 24.6656V24.6685Z" fill="#2A2C58"/>
<path id="Vector_30" d="M215.104 109.249H125.443C123.234 109.249 122.106 107.872 121.63 107.051C120.824 105.649 120.824 104.045 121.63 102.648L166.46 24.9972C167.267 23.6004 168.658 22.7969 170.276 22.7969C171.895 22.7969 173.28 23.5975 174.087 24.9972L218.917 102.648C220.066 104.641 219.3 106.392 218.917 107.051C218.439 107.872 217.31 109.249 215.106 109.249H215.104ZM170.274 23.0849C168.762 23.0849 167.463 23.8337 166.708 25.1412L121.878 102.792C121.126 104.096 121.126 105.597 121.878 106.907C122.324 107.673 123.378 108.961 125.443 108.961H215.104C217.163 108.961 218.22 107.673 218.663 106.907C219.02 106.291 219.74 104.655 218.663 102.795L173.833 25.1441C173.079 23.8366 171.78 23.0878 170.271 23.0878L170.274 23.0849ZM215.104 107.521H125.443C124.168 107.521 123.479 106.795 123.125 106.187C122.774 105.577 122.489 104.615 123.125 103.515L167.955 25.8641C168.592 24.761 169.568 24.5278 170.274 24.5278C170.979 24.5278 171.95 24.7582 172.589 25.8641L217.419 103.515C218.058 104.623 217.773 105.58 217.419 106.184C217.065 106.795 216.374 107.524 215.104 107.524V107.521ZM170.274 24.8129C169.643 24.8129 168.773 25.0202 168.206 26.0052L123.376 103.656C122.808 104.641 123.062 105.496 123.376 106.04C123.69 106.582 124.306 107.23 125.443 107.23H215.104C216.238 107.23 216.855 106.579 217.169 106.035C217.482 105.493 217.739 104.641 217.169 103.653L172.338 26.0023C171.771 25.0174 170.901 24.81 170.274 24.81V24.8129Z" fill="#2A2C58"/>
</g>
<g id="Group_25">
<path id="Vector_31" d="M185.883 86.0553C187.104 87.2735 187.104 89.2435 185.886 90.4559L183.847 92.495C182.629 93.7132 180.659 93.7132 179.441 92.495L170.265 83.3193L161.092 92.495C159.874 93.7132 157.904 93.7132 156.692 92.495L154.653 90.4559C153.434 89.2377 153.434 87.2678 154.65 86.0553L163.825 76.8796L154.65 67.7039C153.437 66.4915 153.437 64.5187 154.653 63.3033L156.692 61.2643C157.904 60.046 159.877 60.046 161.092 61.2643L170.265 70.4399L179.441 61.2643C180.659 60.046 182.629 60.046 183.847 61.2643L185.886 63.3033C187.104 64.5158 187.104 66.4886 185.883 67.7039L176.71 76.8796L185.883 86.0553Z" fill="#2A2C58"/>
<path id="Vector_32" d="M181.647 93.5491C180.778 93.5491 179.96 93.2093 179.343 92.593L170.268 83.5181L161.196 92.593C160.58 93.2093 159.762 93.5491 158.892 93.5491H158.89C158.02 93.5491 157.205 93.2093 156.591 92.593L154.552 90.5539C153.936 89.9376 153.596 89.1197 153.596 88.2499C153.596 87.3802 153.933 86.5623 154.546 85.9488L163.621 76.8739L154.546 67.799C153.933 67.1856 153.593 66.3677 153.596 65.4979C153.596 64.6282 153.936 63.8102 154.552 63.1939L156.591 61.1549C157.205 60.5386 158.02 60.2016 158.89 60.1987H158.892C159.762 60.1987 160.58 60.5386 161.196 61.1549L170.268 70.2298L179.343 61.1549C179.96 60.5386 180.778 60.1987 181.647 60.1987C182.517 60.1987 183.335 60.5386 183.951 61.1549L185.99 63.1939C186.607 63.8074 186.944 64.6224 186.944 65.4922C186.944 66.3619 186.604 67.1827 185.985 67.799L176.913 76.8739L185.985 85.9488C186.604 86.5651 186.944 87.383 186.944 88.2557C186.944 89.1283 186.604 89.9405 185.987 90.5539L183.948 92.593C183.332 93.2093 182.514 93.5491 181.644 93.5491H181.647ZM170.268 83.112L179.548 92.3914C180.109 92.953 180.855 93.2611 181.647 93.2611C182.439 93.2611 183.185 92.953 183.747 92.3914L185.786 90.3523C186.347 89.7936 186.656 89.0477 186.656 88.2586C186.656 87.4694 186.345 86.7178 185.78 86.1562L176.506 76.8768L185.78 67.5975C186.345 67.0359 186.656 66.2899 186.656 65.495C186.656 64.7002 186.347 63.96 185.786 63.4013L183.747 61.3623C183.185 60.8007 182.439 60.4925 181.647 60.4925C180.855 60.4925 180.109 60.8007 179.548 61.3623L170.268 70.6416L160.995 61.3623C160.433 60.8007 159.687 60.4925 158.895 60.4925C158.103 60.4925 157.36 60.8035 156.802 61.3623L154.762 63.4013C154.201 63.9629 153.893 64.7088 153.89 65.5008C153.89 66.2928 154.198 67.0387 154.757 67.5975L164.036 76.8768L154.757 86.1562C154.198 86.7149 153.89 87.4608 153.89 88.2528C153.89 89.0448 154.201 89.7907 154.762 90.3523L156.802 92.3914C157.36 92.953 158.103 93.2611 158.895 93.2611C159.687 93.2611 160.433 92.953 160.995 92.3914L170.268 83.112Z" fill="#2A2C58"/>
</g>
</g>
<g id="Group_26" opacity="0.5">
<g id="Group_27">
<path id="Vector_33" d="M37.9001 186.404C37.2147 183.858 37.4278 181.56 38.5366 179.509C39.6454 177.459 41.3561 176.122 43.6716 175.5C45.9872 174.878 48.1356 175.175 50.1257 176.393C52.1129 177.611 53.4492 179.492 54.1347 182.038C54.8201 184.584 54.607 186.882 53.4982 188.933C52.3894 190.983 50.6787 192.319 48.3632 192.941C46.0476 193.564 43.8963 193.267 41.912 192.049C39.9248 190.83 38.5884 188.95 37.903 186.404H37.9001ZM42.5081 170.63C38.2947 171.765 33.9344 169.377 32.6211 165.216L20.911 128.147C19.2262 122.814 22.328 117.149 27.7308 115.694C33.1337 114.24 38.6576 117.583 39.8758 123.044L48.343 160.985C49.2934 165.245 46.7216 169.495 42.5052 170.63H42.5081Z" fill="#2A2C58"/>
<path id="Vector_34" d="M46.0734 193.399C44.5845 193.399 43.1646 192.99 41.8312 192.172C39.8209 190.939 38.4501 189.013 37.7589 186.441C37.0677 183.869 37.2865 181.516 38.4069 179.442C39.5301 177.366 41.2869 175.992 43.6312 175.361C45.9726 174.731 48.1816 175.036 50.1976 176.269C52.2078 177.501 53.5787 179.428 54.2699 182C54.9611 184.569 54.7422 186.924 53.6219 188.998C52.4987 191.075 50.7419 192.448 48.3976 193.079C47.6085 193.292 46.8337 193.399 46.0763 193.399H46.0734ZM45.9467 175.333C45.2152 175.333 44.4664 175.436 43.7032 175.641C41.4395 176.251 39.7432 177.576 38.6574 179.581C37.5717 181.588 37.3614 183.872 38.0353 186.369C38.7064 188.866 40.0341 190.738 41.9809 191.927C43.9249 193.117 46.059 193.413 48.3198 192.803C50.5835 192.195 52.2798 190.867 53.3656 188.863C54.4513 186.855 54.6616 184.572 53.9877 182.075C53.3166 179.578 51.9889 177.708 50.0421 176.516C48.7547 175.727 47.3838 175.333 45.9467 175.333ZM40.3681 171.059C36.8344 171.059 33.5915 168.789 32.4769 165.261L20.7669 128.193C19.9403 125.575 20.211 122.807 21.5301 120.399C22.8491 117.992 25.035 116.272 27.6875 115.558C30.34 114.844 33.0933 115.236 35.4405 116.655C37.7905 118.078 39.412 120.336 40.011 123.014L48.4782 160.956C49.4488 165.301 46.8395 169.613 42.5397 170.771C41.8139 170.966 41.0853 171.059 40.3681 171.059ZM30.2997 115.495C29.4529 115.495 28.6033 115.607 27.7624 115.832C25.1877 116.523 23.0651 118.193 21.7835 120.532C20.5019 122.87 20.2398 125.557 21.0433 128.101L32.7534 165.169C34.0494 169.267 38.3147 171.606 42.4648 170.488C46.6149 169.371 49.1349 165.209 48.1989 161.013L39.7317 123.072C39.1499 120.468 37.5745 118.277 35.2936 116.894C33.7585 115.964 32.0421 115.489 30.3025 115.489L30.2997 115.495Z" fill="#2A2C58"/>
</g>
<g id="Group_28">
<path id="Vector_35" d="M22.3091 191.613C21.4566 190.173 21.1974 188.733 21.5257 187.29C21.8541 185.847 22.672 184.741 23.9824 183.966C25.2928 183.192 26.6579 183.007 28.0806 183.416C29.5033 183.822 30.6409 184.747 31.4905 186.187C32.343 187.627 32.6022 189.067 32.2739 190.51C31.9456 191.953 31.1248 193.061 29.8172 193.833C28.5068 194.608 27.1417 194.792 25.719 194.383C24.2963 193.977 23.1616 193.053 22.3091 191.613ZM22.4444 181.184C20.0598 182.593 16.9897 181.876 15.4777 179.554L2.01373 158.879C0.0754882 155.904 1.00861 151.912 4.06717 150.106C7.12285 148.298 11.0713 149.404 12.7446 152.534L24.3741 174.293C25.6787 176.735 24.8291 179.773 22.4444 181.181V181.184Z" fill="#2A2C58"/>
<path id="Vector_36" d="M27.1648 194.735C26.6752 194.735 26.1799 194.663 25.6816 194.522C24.2301 194.107 23.0522 193.154 22.1853 191.688C21.3184 190.222 21.0477 188.733 21.3847 187.259C21.7216 185.784 22.5712 184.635 23.9075 183.843C25.2467 183.051 26.6637 182.861 28.1181 183.278C29.5696 183.693 30.7476 184.646 31.6144 186.112C32.4813 187.578 32.7491 189.067 32.4151 190.542C32.0781 192.016 31.2285 193.166 29.8893 193.958C29.0109 194.476 28.098 194.738 27.1648 194.738V194.735ZM26.6378 183.35C25.7536 183.35 24.8896 183.598 24.0573 184.091C22.7901 184.839 21.9866 185.928 21.6669 187.322C21.3472 188.719 21.6064 190.139 22.433 191.538C23.2624 192.938 24.3799 193.848 25.7594 194.243C27.136 194.637 28.4752 194.456 29.7424 193.707C31.0096 192.958 31.8132 191.87 32.1328 190.476C32.4525 189.076 32.1933 187.659 31.3668 186.256C30.5373 184.857 29.4199 183.947 28.0403 183.552C27.568 183.417 27.1015 183.35 26.6378 183.35ZM19.8093 182.054C18.0698 182.054 16.3763 181.199 15.3568 179.635L1.89283 158.96C0.933791 157.488 0.62563 155.734 1.02595 154.023C1.42627 152.313 2.48035 150.878 3.99235 149.983C5.50435 149.087 7.26979 148.857 8.96035 149.332C10.6509 149.804 12.0391 150.919 12.8685 152.468L24.4979 174.227C25.8429 176.744 24.9731 179.854 22.5165 181.309C21.664 181.813 20.7309 182.052 19.8093 182.052V182.054ZM7.22947 149.381C6.15523 149.381 5.09539 149.669 4.14211 150.233C2.69923 151.086 1.69123 152.457 1.31107 154.09C0.928032 155.723 1.22179 157.396 2.13763 158.804L15.6016 179.48C17.0762 181.743 20.0483 182.438 22.3725 181.064C24.6967 179.69 25.5203 176.747 24.2474 174.368L12.6179 152.609C11.8259 151.129 10.5011 150.066 8.88547 149.614C8.33827 149.462 7.78243 149.384 7.22947 149.384V149.381Z" fill="#2A2C58"/>
</g>
</g>
<g id="Group_29">
<g id="Group_30">
<path id="Vector_37" d="M46.0683 194.119C44.4526 194.119 42.909 193.672 41.4546 192.783C39.283 191.452 37.8056 189.378 37.0626 186.625C36.3224 183.872 36.5614 181.337 37.771 179.097C38.9922 176.839 40.8987 175.347 43.4418 174.664C45.9819 173.982 48.381 174.313 50.5698 175.655C52.7442 176.986 54.2187 179.059 54.9618 181.813C55.7019 184.566 55.4629 187.1 54.2533 189.341C53.0322 191.599 51.1256 193.091 48.5826 193.773C47.7272 194.004 46.8891 194.119 46.0683 194.119ZM45.9675 176.044C45.2965 176.044 44.6053 176.139 43.891 176.332C41.7973 176.896 40.291 178.069 39.2917 179.918C38.2837 181.784 38.0994 183.829 38.7301 186.176C39.3608 188.523 40.5474 190.202 42.356 191.308C44.1502 192.405 46.0395 192.667 48.1333 192.103C50.227 191.538 51.7304 190.366 52.7326 188.517C53.7406 186.651 53.925 184.603 53.2942 182.259C52.6635 179.915 51.477 178.236 49.6683 177.127C48.4875 176.404 47.2635 176.044 45.9675 176.044ZM40.3688 171.776C36.5298 171.776 33.0046 169.311 31.7922 165.474L20.0821 128.406C19.195 125.598 19.4859 122.631 20.9 120.048C22.3141 117.465 24.6584 115.622 27.501 114.858C30.3435 114.095 33.2955 114.513 35.8155 116.036C38.3326 117.56 40.075 119.982 40.7144 122.856L49.1816 160.797C50.2357 165.52 47.3989 170.206 42.7275 171.465C41.9384 171.678 41.1464 171.779 40.3688 171.779V171.776ZM30.3003 116.212C29.517 116.212 28.7307 116.316 27.9502 116.526C25.5656 117.168 23.6014 118.712 22.4149 120.878C21.2283 123.043 20.9864 125.532 21.7294 127.885L33.4395 164.953C34.6174 168.683 38.4997 170.811 42.2782 169.794C46.0568 168.778 48.3493 164.991 47.4968 161.172L39.0296 123.231C38.491 120.823 37.0338 118.792 34.9227 117.514C33.5 116.653 31.9131 116.212 30.3003 116.212Z" fill="#2A2C58"/>
<path id="Vector_38" d="M46.0681 194.263C44.4265 194.263 42.8482 193.808 41.3794 192.906C39.1734 191.556 37.6758 189.453 36.9241 186.663C36.1724 183.872 36.4172 181.303 37.647 179.028C38.8854 176.735 40.8236 175.22 43.407 174.523C45.9874 173.829 48.4239 174.166 50.6473 175.529C52.8534 176.879 54.351 178.982 55.1026 181.772C55.8543 184.563 55.6095 187.132 54.3798 189.407C53.1385 191.703 51.2002 193.217 48.6198 193.912C47.7558 194.145 46.8975 194.26 46.0681 194.26V194.263ZM45.9558 174.463C45.1465 174.463 44.3228 174.575 43.479 174.803C40.9762 175.477 39.0985 176.943 37.8975 179.166C36.7023 181.375 36.469 183.872 37.2006 186.591C37.9321 189.309 39.3865 191.351 41.5292 192.662C43.6748 193.975 46.0537 194.306 48.5449 193.635C51.0447 192.961 52.9225 191.495 54.1263 189.272C55.3186 187.063 55.5548 184.566 54.8233 181.85C54.0918 179.131 52.6374 177.089 50.4946 175.779C49.0662 174.904 47.5455 174.466 45.9558 174.466V174.463ZM46.0566 192.538C44.7346 192.538 43.4876 192.172 42.2809 191.432C40.4406 190.303 39.2338 188.598 38.5916 186.213C37.9494 183.829 38.1366 181.749 39.1647 179.849C40.1842 177.962 41.7164 176.767 43.8534 176.191C44.5762 175.995 45.2876 175.897 45.9673 175.897C47.295 175.897 48.5305 176.257 49.743 177C51.5833 178.129 52.79 179.837 53.4322 182.219C54.0745 184.6 53.8844 186.683 52.8591 188.584C51.8396 190.47 50.3046 191.668 48.1705 192.241C47.4418 192.437 46.7391 192.535 46.0566 192.535V192.538ZM45.9673 176.188C45.3135 176.188 44.6281 176.283 43.9282 176.47C41.8748 177.023 40.4002 178.172 39.4182 179.987C38.4274 181.818 38.2489 183.832 38.871 186.138C39.493 188.448 40.6566 190.098 42.4335 191.184C44.1903 192.261 46.0422 192.515 48.0985 191.965C50.1519 191.412 51.6265 190.263 52.6086 188.448C53.5993 186.616 53.7778 184.603 53.1558 182.297C52.5337 179.99 51.3702 178.336 49.5932 177.248C48.4268 176.534 47.2402 176.185 45.9673 176.185V176.188ZM40.3686 171.92C36.3654 171.92 32.8662 169.348 31.6566 165.518L19.9465 128.449C19.0479 125.604 19.3417 122.597 20.7759 119.979C22.2102 117.361 24.5862 115.495 27.4662 114.72C30.3462 113.945 33.3385 114.369 35.893 115.913C38.4447 117.456 40.2102 119.913 40.8582 122.825L49.3254 160.766C50.3967 165.564 47.5167 170.324 42.7676 171.603C41.9814 171.813 41.175 171.923 40.3714 171.923L40.3686 171.92ZM30.303 114.628C29.3814 114.628 28.454 114.749 27.5382 114.997C24.733 115.751 22.4204 117.569 21.0265 120.117C19.6326 122.666 19.3446 125.592 20.2201 128.363L31.9302 165.431C33.1023 169.141 36.4921 171.632 40.3686 171.632C41.149 171.632 41.9295 171.528 42.6898 171.324C47.2892 170.085 50.0799 165.474 49.0431 160.826L40.5759 122.885C39.9423 120.051 38.2258 117.661 35.7433 116.157C34.07 115.144 32.2038 114.628 30.3058 114.628H30.303ZM40.3714 170.192C37.2063 170.192 34.3033 168.161 33.3039 164.996L21.5938 127.928C20.8393 125.537 21.087 123.009 22.2908 120.809C23.4946 118.608 25.4934 117.039 27.9154 116.388C30.3145 115.743 32.8748 116.105 34.9974 117.39C37.143 118.689 38.6262 120.751 39.1705 123.199L47.6377 161.14C48.5074 165.034 46.1689 168.896 42.3154 169.933C41.6646 170.108 41.0108 170.192 40.3686 170.192H40.3714ZM30.3001 116.356C29.5254 116.356 28.7478 116.46 27.9874 116.664C25.6431 117.295 23.7078 118.816 22.5414 120.947C21.375 123.078 21.1359 125.526 21.8674 127.841L33.5775 164.91C34.7324 168.568 38.5398 170.65 42.2406 169.653C45.9414 168.657 48.1906 164.945 47.3554 161.201L38.8882 123.259C38.3583 120.889 36.9241 118.89 34.8447 117.635C33.4623 116.797 31.8898 116.356 30.2972 116.356H30.3001Z" fill="#2A2C58"/>
</g>
<g id="Group_31">
<path id="Vector_39" d="M27.1688 195.457C26.613 195.457 26.0485 195.377 25.4811 195.213C23.8453 194.746 22.5291 193.68 21.5643 192.053C20.5995 190.423 20.3029 188.756 20.6831 187.097C21.0661 185.421 22.028 184.116 23.5429 183.22C25.0578 182.325 26.6648 182.109 28.3179 182.581C29.9538 183.047 31.2699 184.113 32.2347 185.74C33.1995 187.37 33.4962 189.038 33.116 190.697C32.733 192.373 31.7711 193.678 30.2562 194.573C29.2626 195.161 28.2287 195.455 27.1717 195.455L27.1688 195.457ZM26.6274 184.067C25.8728 184.067 25.1442 184.28 24.4213 184.709C23.3154 185.363 22.6443 186.27 22.3679 187.483C22.0885 188.712 22.3103 189.919 23.0533 191.175C23.7935 192.431 24.7439 193.208 25.9563 193.554C27.1515 193.896 28.269 193.744 29.3749 193.09C30.4808 192.436 31.1519 191.529 31.4283 190.317C31.7077 189.087 31.4859 187.88 30.7429 186.624C30.0027 185.372 29.0523 184.591 27.837 184.246C27.4251 184.127 27.0219 184.07 26.6245 184.07L26.6274 184.067ZM19.8075 182.774C17.8319 182.774 15.908 181.803 14.7531 180.026L1.28914 159.351C0.223544 157.712 -0.119177 155.762 0.324343 153.859C0.770743 151.955 1.9429 150.359 3.62482 149.363C5.30674 148.367 7.2709 148.11 9.15442 148.637C11.0379 149.164 12.5816 150.403 13.5032 152.128L25.1327 173.886C26.6619 176.746 25.6712 180.277 22.8805 181.927C21.9128 182.5 20.853 182.771 19.8047 182.771L19.8075 182.774ZM7.2277 150.1C6.28018 150.1 5.34418 150.354 4.50322 150.852C3.23026 151.607 2.34322 152.813 2.00626 154.253C1.6693 155.693 1.9285 157.171 2.7349 158.409L16.1989 179.085C17.4603 181.023 20.0091 181.619 22.0021 180.441C23.9922 179.263 24.6978 176.743 23.6091 174.704L11.9797 152.946C11.2827 151.641 10.1135 150.702 8.68786 150.305C8.20402 150.169 7.71442 150.103 7.2277 150.103V150.1Z" fill="#2A2C58"/>
<path id="Vector_40" d="M27.1693 195.602C26.602 195.602 26.0202 195.518 25.4413 195.351C23.7681 194.873 22.4231 193.788 21.441 192.126C20.4589 190.464 20.1565 188.759 20.5425 187.066C20.9341 185.349 21.9191 184.016 23.4685 183.097C25.018 182.181 26.6625 181.959 28.3559 182.443C30.0292 182.921 31.3742 184.007 32.3562 185.669C33.3383 187.331 33.6407 189.033 33.2548 190.729C32.8631 192.445 31.8781 193.779 30.3287 194.698C29.3149 195.297 28.2522 195.599 27.1693 195.599V195.602ZM26.6279 182.483C25.594 182.483 24.5831 182.772 23.6126 183.345C22.1322 184.22 21.1933 185.493 20.8189 187.129C20.4503 188.75 20.7412 190.38 21.6858 191.979C22.6305 193.577 23.9207 194.617 25.5191 195.075C27.129 195.536 28.7044 195.323 30.1818 194.45C31.6621 193.574 32.601 192.301 32.9754 190.666C33.3441 189.044 33.0532 187.411 32.1086 185.816C31.1639 184.22 29.8737 183.178 28.2753 182.72C27.7194 182.561 27.1722 182.483 26.6279 182.483ZM27.1693 193.874C26.7604 193.874 26.3428 193.813 25.9165 193.69C24.6666 193.332 23.6903 192.532 22.9271 191.244C22.1668 189.957 21.9364 188.716 22.2244 187.449C22.5095 186.196 23.2036 185.26 24.3469 184.583C25.4903 183.906 26.6423 183.751 27.8807 184.105C29.1306 184.462 30.1098 185.263 30.8701 186.55C31.6305 187.837 31.8609 189.079 31.5729 190.346C31.2878 191.599 30.5937 192.535 29.4503 193.211C28.7044 193.652 27.9498 193.874 27.1722 193.874H27.1693ZM26.6279 184.211C25.8993 184.211 25.1994 184.416 24.4938 184.834C23.4225 185.467 22.7745 186.343 22.5066 187.515C22.2359 188.707 22.4519 189.879 23.1748 191.1C23.8977 192.322 24.8193 193.079 25.9943 193.413C27.1492 193.741 28.2321 193.597 29.3006 192.964C30.369 192.33 31.0199 191.455 31.2877 190.283C31.5585 189.09 31.3396 187.918 30.6196 186.697C29.8967 185.476 28.9751 184.718 27.8001 184.384C27.4026 184.272 27.0081 184.214 26.6279 184.214V184.211ZM19.8081 182.918C17.7143 182.918 15.7789 181.867 14.6327 180.105L1.16871 159.429C0.0800657 157.759 -0.268414 155.769 0.183746 153.825C0.638786 151.884 1.83399 150.253 3.55047 149.237C5.26695 148.22 7.27143 147.958 9.19239 148.497C11.1133 149.035 12.6887 150.3 13.6305 152.059L25.2599 173.818C26.8238 176.744 25.8129 180.361 22.9559 182.049C21.9998 182.613 20.9111 182.913 19.8081 182.913V182.918ZM7.22535 148.517C5.99847 148.517 4.78887 148.845 3.69735 149.49C2.04711 150.464 0.900867 152.03 0.463107 153.894C0.0282266 155.76 0.362306 157.669 1.40775 159.276L14.8717 179.952C15.9661 181.631 17.8093 182.633 19.8052 182.633C20.8564 182.633 21.8932 182.348 22.8061 181.807C25.5306 180.197 26.4954 176.749 25.0036 173.959L13.3741 152.2C12.4698 150.51 10.9578 149.297 9.11463 148.779C8.48967 148.603 7.85319 148.517 7.22247 148.517H7.22535ZM19.8081 181.19C18.3508 181.19 16.9309 180.473 16.0785 179.163L2.61447 158.487C1.78503 157.214 1.52007 155.7 1.86567 154.219C2.21127 152.739 3.12135 151.5 4.42887 150.726C5.72199 149.96 7.27719 149.755 8.72583 150.161C10.1889 150.57 11.3898 151.535 12.1041 152.874L23.7335 174.633C24.8596 176.741 24.1309 179.347 22.0746 180.563C21.3604 180.983 20.5799 181.185 19.8081 181.185V181.19ZM7.22823 150.245C6.30375 150.245 5.38791 150.498 4.57863 150.976C3.34023 151.708 2.47623 152.886 2.14791 154.288C1.81959 155.691 2.07303 157.125 2.85639 158.332L16.3204 179.007C17.5415 180.882 20.0039 181.458 21.9277 180.318C23.8516 179.18 24.5341 176.744 23.4801 174.771L11.8506 153.012C11.1709 151.742 10.0333 150.829 8.64807 150.441C8.18151 150.311 7.70343 150.245 7.22535 150.245H7.22823Z" fill="#2A2C58"/>
</g>
</g>
</g>
</svg>
