<svg width="24" height="25" viewBox="0 0 24 25" fill="none" xmlns="http://www.w3.org/2000/svg">
<g id="Hide">
<g id="Group">
<path id="Vector" d="M6.36747 16.5751L4.71747 18.2176C4.64717 18.2874 4.59138 18.3703 4.5533 18.4617C4.51522 18.5531 4.49562 18.6511 4.49562 18.7501C4.49562 18.8491 4.51522 18.9472 4.5533 19.0386C4.59138 19.13 4.64717 19.2129 4.71747 19.2826C4.78719 19.3529 4.87014 19.4087 4.96153 19.4468C5.05293 19.4849 5.15096 19.5045 5.24997 19.5045C5.34898 19.5045 5.44701 19.4849 5.5384 19.4468C5.62979 19.4087 5.71275 19.3529 5.78247 19.2826L8.07747 16.9801L10.6725 14.3851L19.2825 5.78264C19.4237 5.64141 19.503 5.44987 19.503 5.25014C19.503 5.05041 19.4237 4.85887 19.2825 4.71764C19.1412 4.57641 18.9497 4.49707 18.75 4.49707C18.5502 4.49707 18.3587 4.57641 18.2175 4.71764L16.2975 6.64514C14.0058 5.50128 11.3545 5.31122 8.92319 6.11652C6.49183 6.92182 4.47819 8.65696 3.32247 10.9426C3.15583 11.2702 3.06897 11.6326 3.06897 12.0001C3.06897 12.3677 3.15583 12.73 3.32247 13.0576C4.03726 14.4597 5.08229 15.6669 6.36747 16.5751ZM10.1175 12.0001C10.1175 11.7533 10.1662 11.5088 10.2609 11.2809C10.3556 11.0529 10.4944 10.8459 10.6693 10.6717C10.8442 10.4974 11.0518 10.3595 11.2801 10.2657C11.5085 10.1719 11.7531 10.1242 12 10.1251C12.2334 10.1253 12.4647 10.1685 12.6825 10.2526L10.2525 12.6826C10.1684 12.4649 10.1251 12.2335 10.125 12.0001H10.1175ZM4.64997 11.6251C5.34127 10.2705 6.39359 9.13324 7.69067 8.33912C8.98774 7.54499 10.4791 7.12486 12 7.12514C13.089 7.1279 14.1669 7.3445 15.1725 7.76264L13.7925 9.15014C13.2571 8.80811 12.6353 8.62597 12 8.62514C11.1055 8.62712 10.2482 8.98334 9.61567 9.61584C8.98316 10.2483 8.62695 11.1056 8.62497 12.0001C8.6258 12.6354 8.80793 13.2573 9.14997 13.7926L7.45497 15.4801C6.26986 14.7042 5.30604 13.6345 4.65747 12.3751C4.59164 12.2611 4.55699 12.1318 4.55699 12.0001C4.55699 11.8685 4.59164 11.7392 4.65747 11.6251H4.64997ZM19.4475 9.09764C19.4168 9.0726 19.3842 9.05003 19.35 9.03014L19.2225 8.94764C19.1797 8.92828 19.1341 8.91563 19.0875 8.91014C19.0403 8.90231 18.9921 8.90231 18.945 8.91014H18.81C18.7628 8.90231 18.7146 8.90231 18.6675 8.91014C18.6203 8.92804 18.5751 8.95066 18.5325 8.97764C18.4983 8.99487 18.4657 9.01494 18.435 9.03764L10.41 17.0326C10.41 17.0326 10.41 17.0851 10.3575 17.1076C10.3216 17.1484 10.2913 17.1938 10.2675 17.2426C10.2457 17.2878 10.2306 17.3357 10.2225 17.3851C10.2225 17.3851 10.2225 17.4451 10.2225 17.4751C10.2217 17.4876 10.2217 17.5001 10.2225 17.5126C10.2148 17.5674 10.2148 17.6229 10.2225 17.6776C10.2182 17.72 10.2182 17.7627 10.2225 17.8051C10.2394 17.849 10.2594 17.8916 10.2825 17.9326L10.365 18.0526C10.365 18.0526 10.365 18.0526 10.365 18.0901C10.365 18.1276 10.4175 18.1276 10.44 18.1501L10.5675 18.2326C10.616 18.2521 10.6662 18.2671 10.7175 18.2776C10.7175 18.2776 10.77 18.2776 10.8075 18.2776H10.89C11.2579 18.3305 11.6285 18.363 12 18.3751C13.7958 18.3739 15.5564 17.8767 17.0876 16.9384C18.6188 16.0001 19.8611 14.6572 20.6775 13.0576C20.8441 12.73 20.931 12.3677 20.931 12.0001C20.931 11.6326 20.8441 11.2702 20.6775 10.9426C20.3518 10.2945 19.957 9.68343 19.5 9.12014L19.4475 9.09764ZM19.3425 12.3751C18.7113 13.615 17.775 14.6738 16.6216 15.4518C15.4683 16.2299 14.1359 16.7017 12.75 16.8226L18.8325 10.7476C19.0287 11.0269 19.2042 11.3202 19.3575 11.6251C19.421 11.7405 19.4531 11.8705 19.4505 12.0021C19.4478 12.1338 19.4106 12.2624 19.3425 12.3751Z" fill="#636699"/>
</g>
</g>
</svg>
