<svg width="16" height="16" viewBox="0 0 16 16" fill="none" xmlns="http://www.w3.org/2000/svg">
<g id="history">
<path id="Vector" d="M15 7.99984C15 9.3684 14.5681 10.7021 13.7658 11.8108C12.9635 12.9195 11.8317 13.7467 10.5317 14.1745C9.23176 14.6022 7.82992 14.6088 6.526 14.1932C5.22208 13.7776 4.0826 12.961 3.26996 11.8598L4.07496 11.2648C4.80937 12.2623 5.85898 12.9826 7.0538 13.3092C8.24862 13.6358 9.5187 13.5495 10.6584 13.0643C11.798 12.5791 12.7405 11.7234 13.3333 10.6358C13.926 9.54815 14.1343 8.2923 13.9243 7.07157C13.7144 5.85084 13.0985 4.73672 12.1765 3.90963C11.2544 3.08254 10.0802 2.5909 8.8439 2.51433C7.60762 2.43776 6.38169 2.78075 5.36463 3.48775C4.34757 4.19474 3.59894 5.22435 3.23996 6.40984L3.73996 6.08484L4.29996 6.91484L2.79996 7.91484C2.71158 7.97443 2.60646 8.00421 2.49996 7.99984C2.41806 7.99997 2.33738 7.97997 2.26502 7.94161C2.19266 7.90325 2.13083 7.8477 2.08496 7.77984L1.08496 6.27984L1.91496 5.71984L2.25496 6.21984C2.68877 4.71694 3.65002 3.4209 4.96229 2.56953C6.27457 1.71816 7.84986 1.36859 9.39908 1.58496C10.9483 1.80133 12.3675 2.56912 13.3963 3.74745C14.4251 4.92578 14.9945 6.4356 15 7.99984ZM7.99996 4.49984V7.99984C7.99958 8.06565 8.01219 8.13088 8.03708 8.1918C8.06196 8.25272 8.09862 8.30812 8.14496 8.35484L9.64496 9.85484L10.355 9.14484L8.99996 7.79484V4.49984H7.99996Z" fill="white"/>
</g>
</svg>
