<svg width="23" height="23" viewBox="0 0 23 23" fill="none" xmlns="http://www.w3.org/2000/svg">
<g id="Home">
<path id="Rectangle 6 (Stroke)" fill-rule="evenodd" clip-rule="evenodd" d="M7.44415 3.04635C8.42083 2.08182 9.7171 1.54395 11.0649 1.54395H11.9353C13.2831 1.54395 14.5794 2.08182 15.556 3.04635L19.4542 6.896C20.4972 7.92599 21.0876 9.3552 21.0876 10.8498V16.0002C21.0876 19.0136 18.7352 21.4564 15.8334 21.4564H7.16676C4.26497 21.4564 1.9126 19.0136 1.9126 16.0002V10.8498C1.9126 9.35519 2.50303 7.92599 3.546 6.896L7.44415 3.04635ZM11.0649 3.45644C10.1895 3.45644 9.34762 3.80579 8.71328 4.43223L4.81513 8.28188C4.13774 8.95084 3.75426 9.87909 3.75426 10.8498V16.0002C3.75426 17.9573 5.28209 19.5439 7.16676 19.5439H15.8334C17.7181 19.5439 19.2459 17.9573 19.2459 16.0002V10.8498C19.2459 9.87909 18.8624 8.95084 18.1851 8.28188L14.2869 4.43223C13.6526 3.80579 12.8107 3.45644 11.9353 3.45644H11.0649Z" fill="#D3FB8F"/>
<path id="Vector 1 (Stroke)" fill-rule="evenodd" clip-rule="evenodd" d="M8.4126 16.0002C8.4126 15.4721 8.82487 15.0439 9.33343 15.0439H13.6668C14.1753 15.0439 14.5876 15.4721 14.5876 16.0002C14.5876 16.5283 14.1753 16.9564 13.6668 16.9564H9.33343C8.82487 16.9564 8.4126 16.5283 8.4126 16.0002Z" fill="#D3FB8F"/>
</g>
</svg>
