<svg width="24" height="23" viewBox="0 0 24 23" fill="none" xmlns="http://www.w3.org/2000/svg">
<g id="Home">
<g id="Group 7031">
<path id="Rectangle 773" d="M2.07086 11.2451C2.07086 9.29041 2.07168 7.88158 2.1716 6.77915C2.27045 5.68849 2.46086 4.982 2.79006 4.41181C3.26121 3.59574 3.93888 2.91807 4.75495 2.44692C5.32514 2.11772 6.03163 1.92731 7.12229 1.82846C8.22472 1.72854 9.63355 1.72772 11.5883 1.72772C13.543 1.72772 14.9518 1.72854 16.0542 1.82846C17.1449 1.92731 17.8514 2.11772 18.4216 2.44692C19.2376 2.91808 19.9153 3.59574 20.3865 4.41181C20.7157 4.982 20.9061 5.68849 21.0049 6.77915C21.1048 7.88158 21.1057 9.29041 21.1057 11.2451C21.1057 13.1998 21.1048 14.6087 21.0049 15.7111C20.9061 16.8017 20.7157 17.5082 20.3865 18.0784C19.9153 18.8945 19.2376 19.5722 18.4216 20.0433C17.8514 20.3725 17.1449 20.5629 16.0542 20.6618C14.9518 20.7617 13.543 20.7625 11.5883 20.7625C9.63355 20.7625 8.22472 20.7617 7.12229 20.6618C6.03163 20.5629 5.32514 20.3725 4.75495 20.0433C3.93888 19.5722 3.26121 18.8945 2.79006 18.0784C2.46086 17.5082 2.27045 16.8017 2.1716 15.7111C2.07168 14.6087 2.07086 13.1998 2.07086 11.2451Z" stroke="#878999" stroke-width="1.7113"/>
<path id="Rectangle 774" d="M13.4809 7.61499C13.4809 6.65533 14.2588 5.87738 15.2185 5.87738C16.1782 5.87738 16.9561 6.65533 16.9561 7.61499V15.9134C16.9561 16.8731 16.1782 17.651 15.2185 17.651C14.2588 17.651 13.4809 16.8731 13.4809 15.9134V7.61499Z" stroke="#878999" stroke-width="1.7113"/>
<path id="Rectangle 775" d="M6.2204 12.8015C6.2204 11.8419 6.99835 11.0639 7.95801 11.0639C8.91766 11.0639 9.69562 11.8419 9.69562 12.8015V15.9134C9.69562 16.8731 8.91766 17.651 7.95801 17.651C6.99835 17.651 6.2204 16.8731 6.2204 15.9134V12.8015Z" stroke="#878999" stroke-width="1.7113"/>
</g>
</g>
</svg>
