<svg width="375" height="245" viewBox="0 0 375 245" fill="none" xmlns="http://www.w3.org/2000/svg">
<g clip-path="url(#clip0_241_11348)">
<path d="M357.012 28.3721H356.866C356.192 28.3721 355.63 28.2842 355.181 28.1084C354.727 27.9277 354.366 27.6787 354.097 27.3613C353.829 27.0439 353.636 26.6704 353.519 26.2407C353.401 25.811 353.343 25.3447 353.343 24.8418V23.0034C353.343 22.5688 353.389 22.188 353.482 21.8608C353.57 21.5288 353.697 21.2529 353.863 21.0332C354.024 20.8086 354.212 20.6401 354.427 20.5278C354.637 20.4155 354.864 20.3594 355.108 20.3594C355.376 20.3594 355.618 20.4204 355.833 20.5425C356.043 20.6597 356.221 20.8232 356.368 21.0332C356.509 21.2383 356.619 21.48 356.697 21.7583C356.771 22.0317 356.807 22.3247 356.807 22.6372C356.807 22.9302 356.773 23.2134 356.705 23.4868C356.631 23.7554 356.524 23.9946 356.382 24.2046C356.241 24.4146 356.062 24.5806 355.848 24.7026C355.633 24.8247 355.381 24.8857 355.093 24.8857C354.82 24.8857 354.568 24.8345 354.339 24.7319C354.109 24.6245 353.909 24.4805 353.738 24.2998C353.567 24.1191 353.433 23.9165 353.335 23.6919C353.238 23.4673 353.184 23.2378 353.174 23.0034L352.5 23.2085C352.5 23.5796 352.579 23.9458 352.735 24.3071C352.886 24.6636 353.099 24.9907 353.372 25.2886C353.641 25.5815 353.956 25.8159 354.317 25.9917C354.673 26.1675 355.062 26.2554 355.481 26.2554C355.989 26.2554 356.438 26.1602 356.829 25.9697C357.215 25.7744 357.537 25.5107 357.796 25.1787C358.05 24.8467 358.24 24.4658 358.367 24.0361C358.494 23.6064 358.558 23.1548 358.558 22.6812C358.558 22.1685 358.479 21.6875 358.323 21.2383C358.167 20.7891 357.94 20.3936 357.642 20.0518C357.344 19.7051 356.983 19.4365 356.558 19.2461C356.128 19.0508 355.643 18.9531 355.101 18.9531C354.524 18.9531 354.019 19.0654 353.584 19.29C353.15 19.5146 352.784 19.8247 352.486 20.2202C352.188 20.6157 351.963 21.0747 351.812 21.5972C351.661 22.1196 351.585 22.6812 351.585 23.2817V23.9043C351.585 24.5342 351.641 25.1421 351.753 25.728C351.866 26.3091 352.049 26.8486 352.303 27.3467C352.552 27.8398 352.881 28.2744 353.292 28.6504C353.697 29.0215 354.195 29.312 354.786 29.522C355.372 29.7271 356.06 29.8296 356.851 29.8296H357.012V28.3721ZM350.087 28.8848C350.087 28.6113 349.994 28.3818 349.808 28.1963C349.623 28.0059 349.371 27.9106 349.054 27.9106C348.732 27.9106 348.48 28.0059 348.3 28.1963C348.114 28.3818 348.021 28.6113 348.021 28.8848C348.021 29.1582 348.114 29.3877 348.3 29.5732C348.48 29.7588 348.732 29.8516 349.054 29.8516C349.371 29.8516 349.623 29.7588 349.808 29.5732C349.994 29.3877 350.087 29.1582 350.087 28.8848ZM350.079 22.6445C350.079 22.3711 349.987 22.1416 349.801 21.9561C349.616 21.7656 349.364 21.6704 349.047 21.6704C348.724 21.6704 348.473 21.7656 348.292 21.9561C348.107 22.1416 348.014 22.3711 348.014 22.6445C348.014 22.918 348.107 23.1475 348.292 23.333C348.473 23.5186 348.724 23.6113 349.047 23.6113C349.364 23.6113 349.616 23.5186 349.801 23.333C349.987 23.1475 350.079 22.918 350.079 22.6445ZM344.633 23.6333H343.579C343.169 23.6333 342.829 23.5625 342.561 23.4209C342.287 23.2793 342.085 23.084 341.953 22.835C341.821 22.5859 341.755 22.3003 341.755 21.978C341.755 21.6411 341.816 21.353 341.938 21.1138C342.055 20.8696 342.236 20.6816 342.48 20.5498C342.719 20.418 343.025 20.3521 343.396 20.3521C343.708 20.3521 343.991 20.4155 344.245 20.5425C344.494 20.6646 344.692 20.8403 344.838 21.0698C344.985 21.2944 345.058 21.563 345.058 21.8755H346.831C346.831 21.3091 346.682 20.8062 346.384 20.3667C346.086 19.9272 345.681 19.583 345.168 19.334C344.65 19.0801 344.069 18.9531 343.425 18.9531C342.736 18.9531 342.136 19.0679 341.623 19.2974C341.106 19.522 340.703 19.8589 340.415 20.3081C340.127 20.7573 339.983 21.314 339.983 21.978C339.983 22.2808 340.053 22.5884 340.195 22.9009C340.337 23.2134 340.546 23.499 340.825 23.7578C341.103 24.0117 341.45 24.2192 341.865 24.3804C342.28 24.5366 342.761 24.6147 343.308 24.6147H344.633V23.6333ZM344.633 25.0103V24.0435H343.308C342.683 24.0435 342.15 24.1167 341.711 24.2632C341.267 24.4097 340.905 24.6123 340.627 24.8711C340.349 25.125 340.146 25.4155 340.019 25.7427C339.887 26.0698 339.821 26.4165 339.821 26.7827C339.821 27.2808 339.912 27.7251 340.092 28.1157C340.268 28.5015 340.52 28.8286 340.847 29.0972C341.174 29.3657 341.557 29.5684 341.997 29.7051C342.431 29.8418 342.905 29.9102 343.418 29.9102C343.877 29.9102 344.316 29.8467 344.736 29.7197C345.156 29.5928 345.532 29.4048 345.864 29.1558C346.196 28.9019 346.46 28.5869 346.655 28.2109C346.845 27.8301 346.941 27.3906 346.941 26.8926H345.175C345.175 27.21 345.102 27.4907 344.956 27.7349C344.804 27.9741 344.594 28.1621 344.326 28.2988C344.052 28.4355 343.74 28.5039 343.388 28.5039C343.017 28.5039 342.697 28.438 342.429 28.3062C342.16 28.1743 341.955 27.979 341.814 27.7202C341.667 27.4614 341.594 27.1489 341.594 26.7827C341.594 26.3677 341.674 26.0308 341.836 25.772C341.997 25.5132 342.226 25.3228 342.524 25.2007C342.822 25.0737 343.173 25.0103 343.579 25.0103H344.633ZM331.534 23.5381V25.2812C331.534 26.1162 331.617 26.8291 331.783 27.4199C331.944 28.0059 332.178 28.4819 332.486 28.8481C332.793 29.2144 333.162 29.4829 333.592 29.6538C334.017 29.8247 334.493 29.9102 335.02 29.9102C335.44 29.9102 335.83 29.8564 336.192 29.749C336.548 29.6416 336.871 29.4731 337.159 29.2437C337.447 29.0142 337.693 28.7188 337.898 28.3574C338.099 27.9912 338.255 27.5542 338.367 27.0464C338.475 26.5386 338.528 25.9502 338.528 25.2812V23.5381C338.528 22.6982 338.445 21.9902 338.279 21.4141C338.113 20.833 337.876 20.3618 337.569 20.0005C337.261 19.6343 336.895 19.3682 336.47 19.2021C336.04 19.0361 335.562 18.9531 335.035 18.9531C334.61 18.9531 334.219 19.0068 333.863 19.1143C333.501 19.2168 333.179 19.3804 332.896 19.605C332.608 19.8296 332.364 20.1226 332.163 20.4839C331.958 20.8403 331.802 21.2725 331.695 21.7803C331.587 22.2832 331.534 22.8691 331.534 23.5381ZM333.299 25.5303V23.2744C333.299 22.8496 333.323 22.4761 333.372 22.1538C333.421 21.8267 333.494 21.5508 333.592 21.3262C333.684 21.0967 333.802 20.9111 333.943 20.7695C334.085 20.623 334.246 20.5181 334.427 20.4546C334.607 20.3862 334.81 20.3521 335.035 20.3521C335.308 20.3521 335.552 20.4058 335.767 20.5132C335.982 20.6157 336.163 20.7817 336.309 21.0112C336.455 21.2407 336.568 21.5435 336.646 21.9194C336.719 22.2905 336.756 22.7422 336.756 23.2744V25.5303C336.756 25.96 336.731 26.3384 336.683 26.6655C336.634 26.9927 336.56 27.2734 336.463 27.5078C336.365 27.7373 336.248 27.9277 336.111 28.0791C335.97 28.2256 335.808 28.333 335.628 28.4014C335.442 28.4697 335.24 28.5039 335.02 28.5039C334.742 28.5039 334.495 28.4502 334.28 28.3428C334.065 28.2354 333.885 28.0645 333.738 27.8301C333.592 27.5908 333.482 27.2808 333.409 26.8999C333.335 26.519 333.299 26.0625 333.299 25.5303Z" fill="white"/>
<path opacity="0.1" d="M54.0629 17.125C57.498 17.125 60.5036 18.5677 62.6505 20.8348L54.0629 30.8651L45.4754 20.8348C47.6223 18.5677 50.6279 17.125 54.0629 17.125Z" fill="white"/>
<path d="M30.7419 17.125L45.0546 30.8651H30.7419V17.125Z" fill="white"/>
<path d="M17.2863 16.7661H20.2887V18.1697H21.79C22.3427 18.1697 22.7908 18.641 22.7908 19.2224V29.7492C22.7908 30.3305 22.3427 30.8018 21.79 30.8018H15.7851C15.2324 30.8018 14.7843 30.3305 14.7843 29.7492V19.2224C14.7843 18.641 15.2324 18.1697 15.7851 18.1697H17.2863V16.7661Z" fill="#1F1F1F" fill-opacity="0.3"/>
<path d="M22.7908 24.1187C22.7908 24.6756 22.7908 29.2428 22.7908 29.7998C22.7908 30.3535 22.3427 30.8023 21.79 30.8023H15.7851C15.2324 30.8023 14.7843 30.3535 14.7843 29.7998C14.7843 29.2428 14.7843 24.6756 14.7843 24.1187H22.7908Z" fill="white"/>
<path d="M-0.0508118 -0.290039H374.904V249.345H-0.0508118V-0.290039Z" fill="black"/>
<path d="M-0.0505676 -0.290527H374.904V249.345H-0.0505676V-0.290527Z" fill="url(#paint0_linear_241_11348)"/>
<path d="M-0.0505676 144.623H374.904V249.345H-0.0505676V144.623Z" fill="url(#paint1_linear_241_11348)"/>
<path opacity="0.3" d="M129.792 149.352L101.738 149.103L119.207 147.494L136.581 148.879L129.792 149.352Z" fill="#662D91"/>
<g opacity="0.5">
<path d="M36.7886 144.623L38.1534 143.21L50.4432 130.103L57.4423 115.374L62.0667 109.882L64.6077 104.64L75.3151 117.621L92.3131 135.886L107.177 144.623H36.7886Z" fill="url(#paint2_linear_241_11348)"/>
<path d="M64.1639 117.191L64.6913 119.743L62.0666 126.108L61.2754 130.104L59.4419 136.219L61.4417 139.214L59.5807 144.623H36.7884L38.1533 143.21L50.443 130.102L57.4422 115.374L62.0666 109.882L64.6076 104.64V110.202L66.0661 112.628L69.7744 119.743L64.1639 112.191V117.191Z" fill="url(#paint3_linear_241_11348)"/>
</g>
<g opacity="0.5">
<path d="M252.21 138.856L269.042 134.783L280.097 129.283L287.346 123.328C287.346 123.328 302.925 118.445 303.046 118.444C303.046 118.406 304.787 114.449 304.787 114.449L312.97 108.919L316.443 104.455L318.638 102.11L320.965 108.572L326.521 113.119L331.927 116.84L339.997 122.692C339.997 122.692 344.081 128.51 345.464 129.118C346.846 129.726 353.485 131.018 355.865 131.365C358.245 131.712 361.739 137.12 361.739 137.12L368.212 139.705L387.165 146.223L285.31 146.61L216.737 146.871L252.21 138.856Z" fill="url(#paint4_linear_241_11348)"/>
<path d="M252.21 138.856L269.042 134.783L280.097 129.283L287.346 123.328C287.346 123.328 302.925 118.445 303.046 118.444C303.046 118.406 304.787 114.449 304.787 114.449L312.97 108.919L316.444 104.455L318.638 102.11L317.193 106.752L317.255 111.745L321.305 115.941L314.644 111.777L311.162 117.43L312.52 123.404L307.73 130.327L304.689 133.878L297.538 135.568L294.092 139.98L285.307 146.609L216.734 146.869L252.21 138.856Z" fill="url(#paint5_linear_241_11348)"/>
</g>
<path d="M275.246 145.496H404.904L398.505 137.577L395.721 127.988L393.253 123.198L387.096 121.322L382.923 117.154L375.724 107.985L371.759 101.044L368.733 94.8554L357.568 74.8496L355.065 79.6426V81.8319L350.892 89.0202V94.6132L345.917 101.044L336.91 115.594L323.938 123.198L303.069 128.199L295.279 137.577L275.246 145.496Z" fill="url(#paint6_linear_241_11348)"/>
<path d="M326.982 145.496L325.785 141.128L331.784 135.137L334.825 132.161L334.034 129.27L335.534 125.775L341.533 130.144L337.658 125.65L338.492 123.025L341.158 120.034H344.783L348.282 117.163L350.782 111.172L352.032 106.054L354.49 102.185L366.28 114.542L354.49 100.556L357.568 98.5238L358.281 93.8219L357.568 89.5781V84.0449L363.28 91.2007L357.568 80.55V74.8496L355.065 79.6426V81.8319L350.892 89.0202V94.6132L345.917 101.044L336.91 115.594L323.938 123.198L303.069 128.199L295.279 137.577L275.246 145.496H326.982Z" fill="url(#paint7_linear_241_11348)"/>
<path d="M171.97 145.496H272.625L240.92 132.141L228.297 124.523L219.423 118.827L215.298 122.53L207.997 124.777L200.925 132.162L171.97 145.496Z" fill="url(#paint8_linear_241_11348)"/>
<path d="M171.97 145.496H193.662L203.925 140.129L207.924 136.884L211.299 134.512L214.048 131.517L215.173 128.022L216.882 125.494L222.881 132.162L219.423 124.208L218.673 121.157L219.423 118.827L215.298 122.53L207.997 124.777L200.925 132.162L171.97 145.496Z" fill="url(#paint9_linear_241_11348)"/>
<path d="M-55.3578 145.497C-54.7716 145.44 -47.4037 145.337 -36.3601 145.211C1.20786 144.783 81.2969 144.095 81.2969 144.095L62.4604 137.259L56.6924 133.61V128.867L45.9624 123.65L36.8385 118.283L32.839 113.04L23.1727 109.462L17.3409 101.436L12.8414 93.0731L-2.90665 79.9673L-6.6562 87.3315L-14.9052 95.944L-24.904 105.305L-30.6533 113.418L-40.0271 121.407L-52.9006 138.507C-52.9006 138.507 -57.9412 145.746 -55.3578 145.497Z" fill="url(#paint10_linear_241_11348)"/>
<path d="M-55.3576 145.496C-54.7714 145.44 -47.4036 145.337 -36.3599 145.211L-35.2351 144.101L-33.6853 139.131L-27.2973 135.137L-21.673 139.131L-25.4225 134.637L-27.2423 132.161L-22.1729 125.526L-14.2989 122.156L-12.1329 120.387L-10.1744 114.444V108.675L-8.13334 101.848L-1.84413 108.675L-7.2997 100.188L-4.30007 96.6927L-1.84413 92.1993V87.5948L4.57385 92.1993L-1.84413 84.9324L-2.9065 79.9609L-6.65604 87.3252L-14.905 95.9376L-24.9038 105.299L-30.6531 113.412L-40.027 121.4L-52.9004 138.5C-52.9004 138.5 -57.941 145.746 -55.3576 145.496Z" fill="url(#paint11_linear_241_11348)"/>
<path d="M412.774 146.869H-44.004L-40.0457 134.637L-25.6725 125.9L-21.048 116.664L-12.1329 120.387L-7.67468 127.648L-0.675537 135.636L2.65781 139.385L9.94818 138.257L17.9885 139.385L25.0714 136.26L32.9866 139.385H38.9859L44.319 141.627L53.2816 142.848L61.3169 140.629L71.9832 140.708L74.3153 139.385L84.0642 139.131L92.6881 141.003L95.3128 138.382L99.0623 140.129L104.645 139.385L112.186 140.504L113.686 141.253L120.685 142.501L126.059 141.752L132.308 142.848L137.641 139.385L144.682 137.633L149.969 140.038L153.968 136.913L155.305 133.639L157.43 132.016L161.638 136.634L168.054 140.379L177.303 141.752L183.302 144.623L194.176 141.003L200.425 143.499L202.966 144.623L213.923 143L221.547 140.379L226.797 142.251L232.671 143L236.629 142.959L245.794 141.877L253.919 143.624L260.543 143.874L265.292 141.622L268.792 137.883L275.246 139.963L277.957 141.622L280.134 143.564L285.312 144.623L287.539 143.25L293.622 144.623H300.288L308.912 143.25L314.286 144.623L321.304 142.848L325.16 141.128L328.659 143.624L333.618 144.623H340.074L343.658 142.251L349.282 142.002L351.907 139.63L353.906 136.634L360.656 138.631L370.654 142.002L381.278 142.848H412.774V146.869Z" fill="url(#paint12_linear_241_11348)"/>
<g opacity="0.1">
<path d="M-77 105.048C-17.4835 109.739 42.393 102.118 102.149 102.22C148.724 102.299 195.538 107.063 241.724 101.068C295.618 94.072 346.793 72.6507 400.621 65.1592C400.391 67.7916 401.256 70.4178 401.026 73.0502C382.863 71.8544 365.071 77.6459 347.603 82.7547C289.052 99.8691 228.668 109.965 167.728 112.828C113.139 115.387 58.1848 112.136 3.98892 119.147C-6.87726 120.553 -17.7247 122.372 -28.6784 122.621C-44.8014 122.988 -60.9357 119.95 -77 118.937V105.048Z" fill="url(#paint13_linear_241_11348)"/>
</g>
<g opacity="0.2">
<g style="mix-blend-mode:multiply">
<path d="M244.118 123.529C300.163 115.083 357.193 99.6883 412.774 107.207V131.459C383.566 125.818 353.051 127.851 323.189 129.952L230.269 136.49C207.855 138.066 185.427 139.644 162.961 139.95C121.483 140.515 80.0634 136.744 38.8809 131.774C24.4689 130.034 10.1956 127.585 -4.05261 125.142C78.7486 133.256 162.062 135.905 244.118 123.529Z" fill="url(#paint14_linear_241_11348)"/>
</g>
</g>
<g style="mix-blend-mode:multiply">
<path d="M-77 91.9185C-33.554 92.927 10.4306 103.635 53.8266 110.178C135.885 122.55 219.199 119.9 302.001 111.787C287.753 114.23 273.477 116.679 259.064 118.419C217.883 123.389 176.462 127.156 134.984 126.594C112.518 126.288 90.0909 124.711 67.6774 123.134L-25.2438 116.596C-42.4042 115.389 -59.7796 114.205 -77 114.484V91.9185Z" fill="url(#paint15_linear_241_11348)"/>
</g>
<g opacity="0.05">
<path d="M-46.045 -21.7314C-18.4734 12.868 19.6295 38.9824 61.8718 52.2318C83.3217 58.9582 105.661 62.4156 128.004 64.917C178.373 70.5563 229.954 71.3688 279.142 59.1542C321.338 48.6757 360.569 28.9395 401.442 14.1299V20.4407C377.05 24.1091 353.664 36.8081 331.2 48.1502C292.256 67.8028 251.281 84.2225 208.312 91.7865C165.342 99.3505 120.13 97.749 79.3359 82.2879C32.4792 64.5288 -5.77869 29.9169 -49.5234 5.4888L-46.045 -21.7314Z" fill="url(#paint16_linear_241_11348)"/>
</g>
<g opacity="0.5">
<path d="M-1.34384 85.7196L-3.82977 85.4925L-9.41409 84.9819L-13.8636 84.5763L-18.4255 84.1594L-20.6127 83.9597L-34.4673 82.6928L-20.0678 83.2108C-19.0329 82.2035 -17.0207 81.6281 -14.7747 81.8378C-14.3861 81.873 -14 81.9318 -13.6186 82.0138C-12.7224 79.5836 -10.009 77.9634 -6.97316 78.2405C-4.73468 78.4452 -2.85741 79.6323 -1.84878 81.2649C-1.34451 80.8631 -0.770397 80.5576 -0.155231 80.3637C0.829647 76.3333 4.82043 73.5287 9.29738 73.9381C12.9782 74.2751 15.9403 76.6841 17.0102 79.8345C17.384 79.7954 17.7607 79.7929 18.1351 79.827C19.3312 79.9345 20.462 80.4198 21.3634 81.2125C22.5133 80.0566 24.0881 79.4063 25.7604 79.5599C28.655 79.8232 30.826 82.3995 30.8848 85.4687C31.6624 85.2133 32.4847 85.1224 33.2995 85.2016C35.358 85.3889 37.0203 86.5484 37.5489 88.0063L46.0667 90.0558L37.7164 89.2932L36.3128 89.1683L30.1586 88.6067L28.2001 88.4269L27.5752 88.3708C32.5408 89.3206 37.7489 90.3291 37.7489 90.3291L-25.3784 84.5513L-1.02637 85.7471L-1.34384 85.7196Z" fill="url(#paint17_linear_241_11348)"/>
</g>
<g opacity="0.7">
<path d="M227.089 99.5949C227.906 97.8562 229.524 96.4071 231.638 95.758C232.837 95.3842 234.109 95.3109 235.343 95.5446C236.56 94.3241 238.06 93.4236 239.71 92.9234C242.835 91.9648 246.016 92.504 248.334 94.1142C249.299 92.8442 250.641 91.9117 252.169 91.4506C254.544 90.7204 256.968 91.1747 258.681 92.4641C259.235 91.0766 260.223 89.905 261.498 89.1239C261.488 88.7237 261.495 88.3185 261.519 87.9082C261.943 80.6825 267.531 75.1306 274.001 75.5088C274.568 75.5416 275.131 75.6201 275.685 75.7435C277.678 70.7433 282.288 67.3657 287.445 67.6665C293.116 67.9986 297.61 72.6705 298.516 78.6505C299.986 77.6364 301.753 77.1398 303.538 77.2388C306.237 77.3961 308.569 78.9101 310.037 81.1581C310.849 76.3913 314.731 72.8914 319.172 73.151C322.678 73.3557 325.565 75.8458 326.747 79.2671C326.913 79.2034 327.083 79.1423 327.257 79.0924C330.792 78.0039 334.441 79.5442 335.68 82.5486L347.872 80.3692C347.732 80.4142 343.172 81.867 336.055 83.9203C333.268 84.7254 330.091 85.6228 326.632 86.5639C325.309 86.9247 323.941 87.2929 322.539 87.6636C319.423 88.4911 316.135 89.3349 312.744 90.1699L311.018 90.5906C306.354 91.7214 301.519 92.8211 296.691 93.8171C291.928 94.8007 287.168 95.6819 282.584 96.3896L282.009 96.477C278.322 97.0361 274.357 97.5267 270.247 97.9585C268.637 98.125 267.008 98.2847 265.36 98.4378C263.836 98.5776 262.296 98.7099 260.753 98.8348C260.157 98.8847 259.562 98.9321 258.964 98.9783C256.546 99.1655 254.119 99.3365 251.701 99.4926C250.243 99.5866 248.791 99.6748 247.344 99.7572C244.97 99.8945 242.636 100.017 240.345 100.132C237.756 100.256 235.221 100.364 232.791 100.459C230.681 100.54 228.642 100.611 226.694 100.672C215.112 101.039 206.783 101.081 206.156 101.083L227.089 99.5949Z" fill="url(#paint18_linear_241_11348)"/>
<path d="M336.783 85.1792C332.362 86.4449 327.924 87.6348 323.468 88.749C322.351 89.0223 321.24 89.3119 320.123 89.5778C319.006 89.8436 317.892 90.1207 316.773 90.3791L313.411 91.1592L310.052 91.9169L306.686 92.6458L303.311 93.3585L299.937 94.0425L296.562 94.6953L293.179 95.3194C292.054 95.5166 290.922 95.7275 289.789 95.9148C288.657 96.102 287.528 96.298 286.395 96.464L284.696 96.7236C284.129 96.8097 283.56 96.8871 282.991 96.9732C278.448 97.6439 273.898 98.2534 269.339 98.8018L265.921 99.2062C264.78 99.331 263.639 99.4621 262.497 99.5807C260.214 99.8153 257.93 100.041 255.643 100.257C246.497 101.095 237.322 101.67 228.147 102.318C237.344 102.193 246.541 101.885 255.725 101.227C256.872 101.151 258.019 101.055 259.167 100.969C260.314 100.883 261.46 100.768 262.606 100.669C263.752 100.57 264.897 100.447 266.043 100.337L269.477 99.9751C274.052 99.4633 278.617 98.8592 283.172 98.2077C287.728 97.5561 292.278 96.7535 296.788 95.8524L300.17 95.1546L303.545 94.4244L306.912 93.6643L310.269 92.8617C312.505 92.3138 314.739 91.7596 316.962 91.1692C319.186 90.5788 321.405 89.971 323.618 89.3381C328.042 88.0612 332.441 86.707 336.783 85.1792Z" fill="url(#paint19_linear_241_11348)"/>
</g>
<g opacity="0.3">
<path d="M141.868 110.895C141.584 110.412 141.203 109.993 140.748 109.665C140.292 109.338 139.774 109.109 139.225 108.993C138.556 108.839 137.858 108.852 137.195 109.031C136.478 108.415 135.619 107.986 134.696 107.783C132.953 107.391 131.239 107.819 130.042 108.794C129.462 108.142 128.689 107.691 127.835 107.506C126.51 107.206 125.211 107.556 124.326 108.331C123.965 107.598 123.376 107 122.648 106.627C122.637 106.408 122.616 106.187 122.586 105.964C122.051 102.04 118.769 99.2468 115.254 99.7236C114.946 99.7651 114.643 99.8314 114.346 99.9221C113.047 97.2772 110.39 95.6283 107.596 96.009C104.516 96.4272 102.261 99.1644 102.018 102.465C101.174 101.972 100.189 101.775 99.2199 101.903C97.7538 102.103 96.544 103.026 95.8366 104.314C95.1929 101.747 92.9282 100.001 90.516 100.329C88.6112 100.587 87.1414 102.068 86.6415 103.981C86.5477 103.952 86.4527 103.929 86.3565 103.906C84.3817 103.462 82.4557 104.454 81.9058 106.145L75.1566 105.468C75.2354 105.486 77.7813 106.092 81.7533 106.909C83.3081 107.233 85.0791 107.588 87.0027 107.957C87.7401 108.098 88.5025 108.241 89.2812 108.385C91.0159 108.705 92.8457 109.028 94.7317 109.341L95.6903 109.498C98.2825 109.919 100.966 110.317 103.642 110.658C106.283 110.995 108.916 111.275 111.447 111.469L111.763 111.493C113.799 111.642 115.982 111.742 118.244 111.807C119.129 111.832 120.024 111.851 120.929 111.865C121.768 111.876 122.611 111.884 123.459 111.887C123.787 111.887 124.113 111.887 124.441 111.887C125.768 111.887 127.099 111.88 128.424 111.862C129.224 111.852 130.02 111.84 130.812 111.825C132.11 111.8 133.392 111.769 134.648 111.731C136.065 111.691 137.45 111.644 138.783 111.593C139.937 111.549 141.052 111.501 142.117 111.454C148.453 111.167 152.991 110.841 153.34 110.816L141.868 110.895Z" fill="url(#paint20_linear_241_11348)"/>
</g>
<path d="M-21.7654 49.914C-20.6593 48.3064 -18.7496 47.1406 -16.4873 46.9022C-12.6653 46.499 -9.27822 48.8993 -8.92326 52.2531C-8.91451 52.3342 -8.90827 52.4166 -8.90327 52.5027C-8.11044 52.223 -7.28735 52.0374 -6.45106 51.9498C-5.13526 51.8083 -3.80459 51.9142 -2.5278 52.2618C-0.376328 50.4428 2.27843 49.3205 5.08379 49.044L5.45875 49.0103C7.66848 45.1622 11.9667 42.3114 17.1461 41.7709C22.3692 41.2192 27.2061 43.1439 30.1657 46.5015L30.332 46.4815C37.3061 45.7464 43.4854 50.1175 44.134 56.2435C44.2455 57.3017 44.186 58.3709 43.9578 59.4102C48.446 59.0257 52.473 61.3536 53.9328 64.9021C55.2142 64.0367 56.6907 63.5028 58.2298 63.3482C62.898 62.8551 67.035 65.7809 67.4687 69.8824C67.5883 71.023 67.4127 72.1752 66.9587 73.2287L77.9574 74.7852C77.9574 74.7852 73.4205 74.91 66.1714 74.6342C62.1581 74.4831 57.3162 74.2135 51.9518 73.738C51.6681 73.713 51.3831 73.688 51.0969 73.6606C48.9722 73.4659 46.7787 73.2387 44.5215 72.9741C41.6306 72.6358 38.6472 72.2352 35.6001 71.7621C34.4869 71.5899 33.3658 71.4072 32.2367 71.2142C30.8294 70.9737 29.4154 70.717 27.9947 70.444C26.3283 70.1228 24.6581 69.7783 22.9841 69.4105C21.1493 69.0074 19.1671 68.4619 17.0823 67.8104C16.6907 67.6881 16.2953 67.5632 15.8962 67.4359L15.385 67.2674C13.5845 66.9705 11.8517 66.3546 10.2682 65.4488C8.02968 64.6063 5.73744 63.6877 3.44147 62.7266C0.164375 61.3536 -3.12396 59.8895 -6.28983 58.4266C-7.64716 57.8025 -8.98325 57.1709 -10.2893 56.5543C-11.2126 56.1033 -12.1195 55.6615 -13.0103 55.2288C-16.4573 53.555 -19.5932 51.976 -22.1941 50.6392C-26.7511 48.2989 -29.6683 46.705 -29.7445 46.6625L-21.7654 49.914Z" fill="url(#paint21_linear_241_11348)"/>
<g opacity="0.3">
<path d="M167.741 110.023C169.492 110.022 171.241 109.901 172.976 109.662C177.579 109.032 182.019 107.532 186.06 105.243C189.966 103.042 193.441 100.152 196.317 96.7146C199.159 93.3425 201.344 89.4683 202.756 85.2926C205.026 78.6449 205.041 71.4361 202.8 64.7788C200.373 57.5306 195.314 50.924 188.552 46.1735C181.79 41.4229 173.73 38.8092 165.847 38.8092C160.984 38.7961 156.172 39.8044 151.724 41.7686C148.386 43.2314 145.295 45.201 142.56 47.6076C140.017 49.8584 137.832 52.4836 136.082 55.3925C132.752 60.9207 131.019 67.3825 131.07 74.0777C131.09 76.704 131.402 79.32 132 81.8776C133.824 89.6824 138.316 96.7908 144.649 101.895C151.185 107.168 159.338 110.038 167.741 110.023Z" fill="white"/>
</g>
<g opacity="0.5">
<path d="M167.741 109.291C169.343 109.29 170.943 109.172 172.528 108.939C176.76 108.312 180.822 106.843 184.475 104.618C188.089 102.426 191.271 99.5917 193.862 96.2552C196.486 92.9101 198.483 89.1193 199.757 85.0653C201.832 78.5462 201.846 71.5471 199.798 65.0195C197.576 57.9137 192.935 51.4306 186.735 46.7649C180.534 42.0993 173.151 39.5343 165.941 39.5343C161.488 39.5242 157.089 40.5102 153.067 42.42C147.033 45.2539 142.041 49.9072 138.794 55.7244C135.747 61.1427 134.161 67.4822 134.207 74.0551C134.226 76.6285 134.511 79.1931 135.06 81.7077C136.731 89.3627 140.844 96.3338 146.644 101.336C149.511 103.823 152.787 105.796 156.327 107.167C159.967 108.574 163.837 109.294 167.741 109.291Z" fill="white"/>
</g>
<path d="M135.826 74.0728C135.843 76.475 136.115 78.8687 136.638 81.2136C138.316 88.7388 142.494 95.3617 148.243 100.001C154.702 105.209 163.151 107.92 172.288 106.605C188.653 104.254 200.969 88.8412 199.589 72.4052C199.397 70.1226 198.947 67.869 198.247 65.6875C195.822 58.0998 190.547 51.6268 183.915 47.3593C175.091 41.6788 163.866 39.9014 153.76 44.5846C141.584 50.2251 135.745 62.1339 135.826 74.0728Z" fill="white"/>
<path d="M155.002 51.9147C156.106 51.9284 157.328 52.2217 157.931 53.1466C158.11 53.401 158.196 53.7098 158.173 54.0204C158.082 54.7792 157.211 55.1437 156.474 55.3534C154.711 55.8527 152.785 56.458 151.803 58.0045C151.656 58.2354 151.531 58.5038 151.565 58.7709C151.594 59.0031 151.734 59.204 151.821 59.4212C152.168 60.28 151.608 61.2935 150.804 61.7541C150 62.2146 149.027 62.2533 148.099 62.2321C145.165 62.1697 143.691 63.1233 142.132 65.5797C141.383 66.7655 140.633 68.0074 140.424 69.3942C140.231 70.6423 140.488 71.8967 140.576 73.1462C140.665 74.3956 140.224 75.6563 140.451 76.872C140.605 77.6771 141.076 78.3773 141.424 79.1187C141.84 80.0099 142.074 80.9735 142.299 81.9296C142.771 83.8867 143.244 85.8447 143.719 87.8035C143.807 88.178 143.907 88.7634 143.365 88.8358C142.145 88.998 141.219 86.1609 141.106 85.3159C141.023 84.6818 141.053 84.0315 140.89 83.4137C140.701 82.6972 140.265 82.0744 139.847 81.4678L138.384 79.3733C138.044 78.8853 137.699 78.3885 137.509 77.8243C137.197 76.8782 137.363 75.8435 137.611 74.8774C138.143 72.7942 139.045 70.6885 138.648 68.5753C138.374 67.1162 137.488 65.6721 137.904 64.2467C138.52 62.1435 141.454 61.6692 142.576 59.7857C143.184 58.7659 143.169 57.4691 143.761 56.4406C144.353 55.4121 145.485 54.7905 146.287 53.8993C147.432 52.6286 147.858 50.8712 148.804 49.447C149.864 47.8723 151.504 46.7801 153.367 46.409C153.855 46.3129 154.95 46.0707 155.392 46.3678C156.529 47.1317 153.689 48.3486 153.252 48.6145C152.672 48.9652 151.836 49.5007 151.984 50.3033C152.04 50.6103 152.474 50.8263 152.456 51.1296C152.442 51.3605 152.043 51.4204 152.081 51.6813C152.174 52.3865 154.53 51.9084 155.002 51.9147ZM168.451 53.6996C169.354 54.0154 170.325 54.4185 171.038 55.0726C172.086 56.0262 171.97 56.7077 170.896 57.4865C170.163 58.0183 169.849 58.681 168.887 58.8882C167.474 59.1928 166.275 59.3788 165.17 60.4135C164.597 60.9515 163.961 61.7865 163.071 61.6879C161.61 61.5231 160.938 59.38 161.854 58.3178C162.416 57.6675 164.771 57.4828 164.923 56.7801C165.071 56.1061 163.572 55.5481 163.146 55.2823C162.813 55.0543 162.576 54.7121 162.48 54.3209C162.383 53.9297 162.434 53.5166 162.623 53.1604C163.735 51.2269 167.051 53.209 168.451 53.6996Z" fill="#D2CFEC"/>
<path d="M153.212 77.0393H153.352C155.148 77.0743 157.699 76.0133 158.744 78.1452C158.909 78.4835 158.994 78.8567 159.179 79.1875C159.795 80.3108 161.28 80.6528 162.334 81.2295C163.387 81.8061 164.584 82.4777 165.084 83.6285C165.626 84.8766 164.894 85.7504 163.571 85.7504C162.89 85.7504 162.216 85.5706 161.535 85.6256C160.854 85.6805 160.128 86.0774 160.004 86.7489C159.67 88.5575 162.238 90.3299 163.602 90.9353C164.027 91.1238 164.477 91.2835 164.852 91.5594C166.038 92.4032 165.727 94.2467 164.44 94.8296C163.461 95.2752 162.23 94.9045 161.519 94.0994C160.288 92.7052 159.036 94.711 158.546 95.7845C158.234 96.4685 157.962 97.2973 157.253 97.5494C156.688 97.7504 156.06 97.4857 155.58 97.1263C154.77 96.5209 154.257 95.5598 154.48 94.5388C154.605 93.9809 154.864 93.4641 155.041 92.9162C156.432 88.6649 147.481 91.804 148.609 87.7038C148.874 86.7414 149.833 86.1723 150.143 85.2074C150.46 84.2276 150.268 83.0855 149.563 82.3166C149.02 81.7238 148.261 81.388 147.552 81.0073C145.832 80.0861 145.771 78.9291 145.177 77.2341C144.826 76.2355 144.112 75.2644 144.282 74.1561C144.494 72.7831 146.68 70.5488 148.202 71.0219C149.262 71.3514 149.007 72.7331 149.099 73.5894C149.317 75.7038 151.221 76.947 153.212 77.0393ZM167.404 72.7431C167.539 73.5694 167.218 74.4019 166.818 75.1371C166.618 75.5116 166.368 75.886 165.976 76.0308C165.446 76.228 164.814 75.8848 164.595 75.3643C164.376 74.8438 164.521 74.221 164.86 73.7704C165.123 73.4196 165.523 73.0726 165.448 72.6395C165.348 72.0554 164.522 71.9568 164.156 71.4912C164.043 71.3417 163.98 71.1605 163.976 70.9733C163.972 70.786 164.026 70.6022 164.132 70.4477C165.18 68.9874 167.241 71.7795 167.404 72.7431ZM162.32 69.237C162.155 69.4612 161.969 69.67 161.766 69.8611C161.171 70.3429 160.157 70.1444 159.787 69.4741C159.743 69.4035 159.719 69.3225 159.717 69.2395C159.727 69.1516 159.761 69.068 159.814 68.9973C160.024 68.6803 160.305 68.4165 160.635 68.227C160.965 68.0374 161.334 67.9272 161.714 67.9052C162.421 67.8702 162.589 67.5095 163.144 67.336C163.487 67.2299 163.519 67.0689 163.707 67.4608C164.059 68.2185 162.671 68.8251 162.32 69.237Z" fill="#D2CFEC"/>
<path d="M148.243 100.001C154.702 105.208 163.151 107.919 172.288 106.605C188.653 104.253 200.969 88.8408 199.589 72.4048C199.397 70.1222 198.947 67.8686 198.247 65.6871C195.822 58.0994 190.547 51.6264 183.915 47.3589C184.63 48.315 185.346 49.2719 186.065 50.2297C186.827 51.247 187.953 51.9659 188.596 53.0805C189.096 53.948 188.674 54.2313 187.792 54.2813C187.153 54.3187 186.485 54.4685 186.402 55.2187C186.306 56.0924 187.066 57.388 187.366 58.1856C187.518 58.595 188.329 59.9992 188.211 60.3849C188.028 60.979 187.417 60.5309 187.127 60.1864C186.218 59.1102 185.43 57.9383 184.775 56.6915C184.575 56.3108 184.376 55.9076 184.031 55.6505C183.818 55.4915 183.561 55.3994 183.295 55.3859C183.029 55.3723 182.765 55.4379 182.536 55.5744C182.308 55.7108 182.125 55.912 182.011 56.1524C181.896 56.3929 181.856 56.6617 181.895 56.9249C182.02 57.7649 182.864 58.2717 183.61 58.6786C184.356 59.0855 185.182 59.6497 185.225 60.4984C185.257 61.14 184.807 61.7591 184.94 62.3882C185.049 62.9049 185.519 63.2619 185.986 63.5115C186.683 63.8773 187.536 64.0994 188.248 63.7612C188.584 63.6027 188.821 63.0597 189.183 62.9861C189.693 62.8812 189.823 63.3131 190.264 63.4679C190.813 63.6588 191.389 63.5178 191.889 63.2544C193.374 62.4731 195.325 63.6376 195.33 65.2852C195.33 66.27 194.479 66.7268 193.856 67.3297C192.981 68.1747 193.106 68.82 193.084 69.9883C193.043 72.1477 192.371 74.1972 191.709 76.2292C191.262 77.6022 190.988 79.1874 189.497 79.8003C187.781 80.503 187.087 78.6694 185.434 78.5708C184.197 78.4959 183.133 79.3571 182.005 79.8677C179.373 81.0597 176.337 80.3669 173.66 81.3917C172.358 81.8909 171.16 82.867 170.767 84.2038C170.575 84.8554 170.752 85.7728 171.424 85.8676C172.331 85.9925 174.02 84.3698 174.78 83.933C176.077 83.1841 177.473 82.5462 178.978 82.3702C179.912 82.2617 180.965 82.3777 181.603 83.0692C181.719 83.1815 181.798 83.3265 181.829 83.4849C181.895 83.9991 181.232 84.25 180.723 84.3461C178.327 84.7992 176.105 85.8577 174.01 87.0734C172.97 87.6763 171.969 88.3428 170.938 88.9594C170.263 89.3625 169.132 89.8019 168.794 90.5733C168.488 91.2735 169.58 91.6355 170.044 91.8589C170.669 92.1659 171.273 92.4505 171.544 93.1483C171.703 93.5552 171.784 94.0008 172.044 94.3552C172.655 95.199 173.896 95.1441 174.937 95.1416C177.166 95.1427 179.349 95.7797 181.228 96.9777C181.704 97.2822 182.204 97.7066 182.208 98.272C182.208 99.3954 180.605 99.5052 179.485 99.5926C176.916 99.7923 174.9 101.853 172.458 102.678C170.469 103.351 168.306 103.169 166.208 102.964C160.168 102.366 154.065 101.632 148.243 100.001ZM172.096 59.5111C172.08 59.3971 172.029 59.2909 171.95 59.2066C171.776 59.0418 171.48 59.1005 171.295 59.2528C171.11 59.405 170.998 59.6272 170.852 59.8144C170.378 60.4273 169.572 60.6794 168.802 60.7705C168.569 60.783 168.339 60.8271 168.118 60.9016C167.302 61.2349 167.773 62.0711 168.368 62.337C168.906 62.5792 169.2 62.3994 169.707 62.191C170.803 61.7391 172.403 60.9915 172.096 59.5111Z" fill="#D2CFEC"/>
<path d="M124.692 132.026L123.176 131.818L120.75 133.151L118.956 130.385L114.668 129.245L113.753 130.027L118.654 130.747L120.537 133.224L119.855 133.13L119.822 133.277L121.861 133.556L121.882 133.357L121.096 133.199L123.206 132.177L125.225 132.552L124.692 132.026Z" fill="white"/>
<path d="M108.15 131.41H107.158L105.714 132.481L104.317 130.858L101.457 130.501L100.937 131.086L104.154 131.118L105.584 132.546H105.135L105.129 132.643H106.464L106.461 132.514L105.941 132.481L107.209 131.637L108.54 131.702L108.15 131.41Z" fill="white"/>
<path d="M84.5065 117.544L83.7978 117.452L82.6654 118.083L81.818 116.794L79.8083 116.272L79.3833 116.641L81.678 116.963L82.5667 118.117L82.2467 118.076L82.233 118.144L83.1866 118.268L83.1966 118.175L82.8279 118.103L83.8128 117.619L84.7577 117.789L84.5065 117.544Z" fill="white"/>
<path d="M129.376 131.024L128.667 130.932L127.535 131.564L126.689 130.274L124.678 129.752L124.253 130.122L126.548 130.444L127.436 131.597L127.116 131.556L127.103 131.625L128.056 131.748L128.066 131.656L127.698 131.585L128.682 131.099L129.627 131.269L129.376 131.024Z" fill="white"/>
<path d="M117.808 123.107L116.607 122.942L114.68 124L113.258 121.805L109.857 120.9L109.131 121.522L113.019 122.092L114.513 124.057L113.971 123.983L113.946 124.099L115.563 124.32L115.58 124.163L114.957 124.038L116.63 123.226L118.231 123.525L117.808 123.107Z" fill="white"/>
</g>
<defs>
<linearGradient id="paint0_linear_241_11348" x1="187.427" y1="143.277" x2="187.427" y2="-126.137" gradientUnits="userSpaceOnUse">
<stop stop-color="#000C2E"/>
<stop offset="0.3" stop-color="#15379A"/>
<stop offset="1" stop-color="#2B63B9"/>
</linearGradient>
<linearGradient id="paint1_linear_241_11348" x1="186.954" y1="149.927" x2="188.284" y2="282.733" gradientUnits="userSpaceOnUse">
<stop stop-color="#1B237C"/>
<stop offset="0.08" stop-color="#1B2056"/>
<stop offset="0.39" stop-color="#101334"/>
<stop offset="0.66" stop-color="#101334"/>
<stop offset="0.87" stop-color="#101334"/>
<stop offset="1" stop-color="#101334"/>
</linearGradient>
<linearGradient id="paint2_linear_241_11348" x1="107.177" y1="125.409" x2="36.7886" y2="125.409" gradientUnits="userSpaceOnUse">
<stop stop-color="#1E1565"/>
<stop offset="0.39" stop-color="#2B217D"/>
<stop offset="1" stop-color="#2489D6"/>
</linearGradient>
<linearGradient id="paint3_linear_241_11348" x1="69.7744" y1="125.408" x2="36.7884" y2="125.408" gradientUnits="userSpaceOnUse">
<stop stop-color="#20258B"/>
<stop offset="0.39" stop-color="#1C1362"/>
<stop offset="1" stop-color="#1B135E"/>
</linearGradient>
<linearGradient id="paint4_linear_241_11348" x1="387.165" y1="125.36" x2="216.737" y2="125.36" gradientUnits="userSpaceOnUse">
<stop stop-color="#20258B"/>
<stop offset="0.39" stop-color="#1C1362"/>
<stop offset="1" stop-color="#1B135E"/>
</linearGradient>
<linearGradient id="paint5_linear_241_11348" x1="321.305" y1="125.36" x2="209.984" y2="148.589" gradientUnits="userSpaceOnUse">
<stop stop-color="#454AB6"/>
<stop offset="0.350606" stop-color="#1C1362"/>
<stop offset="1" stop-color="#1B135E"/>
</linearGradient>
<linearGradient id="paint6_linear_241_11348" x1="404.904" y1="111.546" x2="275.246" y2="111.546" gradientUnits="userSpaceOnUse">
<stop stop-color="#1E1565"/>
<stop offset="0.39" stop-color="#2B217D"/>
<stop offset="1" stop-color="#2489D6"/>
</linearGradient>
<linearGradient id="paint7_linear_241_11348" x1="366.28" y1="111.546" x2="275.246" y2="111.546" gradientUnits="userSpaceOnUse">
<stop stop-color="#20258B"/>
<stop offset="0.39" stop-color="#1C1362"/>
<stop offset="1" stop-color="#1B135E"/>
</linearGradient>
<linearGradient id="paint8_linear_241_11348" x1="272.625" y1="132.68" x2="171.97" y2="132.68" gradientUnits="userSpaceOnUse">
<stop stop-color="#1E1565"/>
<stop offset="0.39" stop-color="#2B217D"/>
<stop offset="1" stop-color="#2489D6"/>
</linearGradient>
<linearGradient id="paint9_linear_241_11348" x1="222.881" y1="132.68" x2="171.97" y2="132.68" gradientUnits="userSpaceOnUse">
<stop stop-color="#20258B"/>
<stop offset="0.39" stop-color="#1C1362"/>
<stop offset="1" stop-color="#1B135E"/>
</linearGradient>
<linearGradient id="paint10_linear_241_11348" x1="81.2969" y1="114.009" x2="-56.0945" y2="114.009" gradientUnits="userSpaceOnUse">
<stop stop-color="#1E1565"/>
<stop offset="0.39" stop-color="#2B217D"/>
<stop offset="1" stop-color="#2489D6"/>
</linearGradient>
<linearGradient id="paint11_linear_241_11348" x1="4.57385" y1="108.99" x2="-56.0938" y2="108.99" gradientUnits="userSpaceOnUse">
<stop stop-color="#24829C"/>
<stop offset="0.39" stop-color="#54A4B8"/>
<stop offset="1" stop-color="#9CD8E2"/>
</linearGradient>
<linearGradient id="paint12_linear_241_11348" x1="184.386" y1="83.3023" x2="184.386" y2="159.717" gradientUnits="userSpaceOnUse">
<stop offset="0.51" stop-color="#2665B5"/>
<stop offset="0.59" stop-color="#2A61BA"/>
<stop offset="0.75" stop-color="#1B2576"/>
<stop offset="0.94" stop-color="#585ECC"/>
<stop offset="1" stop-color="#222691"/>
</linearGradient>
<linearGradient id="paint13_linear_241_11348" x1="401.48" y1="88.5475" x2="-99.6108" y2="83.9861" gradientUnits="userSpaceOnUse">
<stop stop-color="#16419C" stop-opacity="0"/>
<stop offset="1" stop-color="#202782"/>
</linearGradient>
<linearGradient id="paint14_linear_241_11348" x1="428.742" y1="132.215" x2="31.7803" y2="6.49854" gradientUnits="userSpaceOnUse">
<stop stop-color="#FDF9E0"/>
<stop offset="1" stop-color="#D4E6DA"/>
</linearGradient>
<linearGradient id="paint15_linear_241_11348" x1="316.52" y1="118.876" x2="-50.0862" y2="13.0753" gradientUnits="userSpaceOnUse">
<stop stop-color="#FDF9E0"/>
<stop offset="1" stop-color="#D4E6DA"/>
</linearGradient>
<linearGradient id="paint16_linear_241_11348" x1="418.718" y1="69.789" x2="-49.0448" y2="22.477" gradientUnits="userSpaceOnUse">
<stop stop-color="#FDF9E0"/>
<stop offset="1" stop-color="#D4E6DA"/>
</linearGradient>
<linearGradient id="paint17_linear_241_11348" x1="44.5241" y1="80.6408" x2="-31.8413" y2="92.8217" gradientUnits="userSpaceOnUse">
<stop stop-color="#6D90E1"/>
<stop offset="1" stop-color="#446FD5"/>
</linearGradient>
<linearGradient id="paint18_linear_241_11348" x1="345.158" y1="81.3679" x2="209.931" y2="100.021" gradientUnits="userSpaceOnUse">
<stop stop-color="#6D90E1"/>
<stop offset="1" stop-color="#446FD5"/>
</linearGradient>
<linearGradient id="paint19_linear_241_11348" x1="334.703" y1="92.212" x2="233.38" y2="113.113" gradientUnits="userSpaceOnUse">
<stop stop-color="#6D90E1"/>
<stop offset="1" stop-color="#446FD5"/>
</linearGradient>
<linearGradient id="paint20_linear_241_11348" x1="151.842" y1="102.492" x2="77.7102" y2="114.331" gradientUnits="userSpaceOnUse">
<stop stop-color="#6D90E1"/>
<stop offset="1" stop-color="#446FD5"/>
</linearGradient>
<linearGradient id="paint21_linear_241_11348" x1="75.8945" y1="55.2746" x2="-27.6723" y2="66.2294" gradientUnits="userSpaceOnUse">
<stop stop-color="#6D90E1"/>
<stop offset="1" stop-color="#446FD5"/>
</linearGradient>
<clipPath id="clip0_241_11348">
<rect width="375" height="245" fill="white" transform="matrix(-1 0 0 1 375 0)"/>
</clipPath>
</defs>
</svg>
