<svg width="30" height="30" viewBox="0 0 30 30" fill="none" xmlns="http://www.w3.org/2000/svg">
<g id="instagram" clip-path="url(#clip0_43_1107)">
<path id="Path 16" d="M7.60735 29.8938C6.44698 29.8809 5.29751 29.6681 4.20941 29.2647C3.41484 28.971 2.69594 28.5034 2.10529 27.8962C1.4964 27.3067 1.02814 26.5876 0.735294 25.7924C0.33228 24.7043 0.11976 23.5549 0.107059 22.3947C0.0179412 20.4659 0 19.8874 0 15C0 10.1126 0.0197059 9.53618 0.106176 7.60588C0.120418 6.44611 0.333201 5.29734 0.735294 4.20941C1.02957 3.41471 1.49716 2.69553 2.10412 2.10412C2.69404 1.49577 3.41327 1.02795 4.20853 0.735294C5.29663 0.331946 6.44609 0.119126 7.60647 0.106176C9.53588 0.0179412 10.1153 0 15 0C19.8847 0 20.4638 0.0197059 22.3941 0.106176C23.5542 0.120318 24.7033 0.333102 25.7915 0.735294C26.5864 1.02833 27.3054 1.496 27.8956 2.10382C28.5036 2.69419 28.9715 3.41341 29.2647 4.20853C29.6682 5.29661 29.8811 6.44608 29.8941 7.60647C29.9824 9.53677 30.0003 10.1147 30.0003 15.0006C30.0003 19.8865 29.9824 20.4644 29.8941 22.3947C29.8801 23.5549 29.6672 24.7041 29.2647 25.7924C28.9602 26.5815 28.4939 27.2982 27.8957 27.8962C27.2975 28.4943 26.5807 28.9604 25.7915 29.2647C24.7034 29.6681 23.5539 29.8811 22.3935 29.8941C20.465 29.9824 19.8853 30.0003 14.9994 30.0003C10.1135 30.0003 9.53559 29.9832 7.60706 29.8941" fill="url(#paint0_radial_43_1107)"/>
<path id="Path 17" d="M7.60735 29.8938C6.44698 29.8809 5.29751 29.6681 4.20941 29.2647C3.41484 28.971 2.69594 28.5034 2.10529 27.8962C1.4964 27.3067 1.02814 26.5876 0.735294 25.7924C0.33228 24.7043 0.11976 23.5549 0.107059 22.3947C0.0179412 20.4659 0 19.8874 0 15C0 10.1126 0.0197059 9.53618 0.106176 7.60588C0.120418 6.44611 0.333201 5.29734 0.735294 4.20941C1.02957 3.41471 1.49716 2.69553 2.10412 2.10412C2.69404 1.49577 3.41327 1.02795 4.20853 0.735294C5.29663 0.331946 6.44609 0.119126 7.60647 0.106176C9.53588 0.0179412 10.1153 0 15 0C19.8847 0 20.4638 0.0197059 22.3941 0.106176C23.5542 0.120318 24.7033 0.333102 25.7915 0.735294C26.5864 1.02833 27.3054 1.496 27.8956 2.10382C28.5036 2.69419 28.9715 3.41341 29.2647 4.20853C29.6682 5.29661 29.8811 6.44608 29.8941 7.60647C29.9824 9.53677 30.0003 10.1147 30.0003 15.0006C30.0003 19.8865 29.9824 20.4644 29.8941 22.3947C29.8801 23.5549 29.6672 24.7041 29.2647 25.7924C28.9602 26.5815 28.4939 27.2982 27.8957 27.8962C27.2975 28.4943 26.5807 28.9604 25.7915 29.2647C24.7034 29.6681 23.5539 29.8811 22.3935 29.8941C20.465 29.9824 19.8853 30.0003 14.9994 30.0003C10.1135 30.0003 9.53559 29.9832 7.60706 29.8941" fill="url(#paint1_radial_43_1107)"/>
<path id="Path 18" d="M11.3167 15.0638C11.3168 14.3291 11.5347 13.6108 11.943 12.9999C12.3512 12.389 12.9315 11.9129 13.6104 11.6318C14.2892 11.3507 15.0362 11.2772 15.7569 11.4206C16.4775 11.564 17.1394 11.9179 17.6589 12.4375C18.1784 12.9572 18.5322 13.6192 18.6754 14.3398C18.8187 15.0605 18.745 15.8075 18.4637 16.4863C18.1824 17.1651 17.7062 17.7452 17.0952 18.1534C16.4842 18.5615 15.7659 18.7793 15.0311 18.7791C14.0459 18.779 13.1011 18.3875 12.4045 17.6907C11.7079 16.994 11.3166 16.0491 11.3167 15.0638ZM9.30817 15.0638C9.30817 16.1957 9.64381 17.3022 10.2727 18.2433C10.9015 19.1845 11.7953 19.918 12.841 20.3512C13.8868 20.7843 15.0375 20.8976 16.1476 20.6768C17.2577 20.456 18.2775 19.9109 19.0778 19.1106C19.8782 18.3102 20.4233 17.2905 20.6441 16.1803C20.8649 15.0702 20.7516 13.9195 20.3184 12.8738C19.8853 11.828 19.1517 10.9342 18.2106 10.3054C17.2695 9.67655 16.163 9.3409 15.0311 9.3409C14.2795 9.34087 13.5353 9.48887 12.841 9.77646C12.1466 10.064 11.5157 10.4856 10.9843 11.017C10.4529 11.5485 10.0313 12.1794 9.74372 12.8737C9.45613 13.5681 9.30813 14.3123 9.30817 15.0638ZM19.6432 9.11414C19.6431 9.37864 19.7214 9.63724 19.8682 9.85723C20.0151 10.0772 20.2239 10.2487 20.4682 10.3501C20.7125 10.4514 20.9814 10.478 21.2408 10.4265C21.5003 10.375 21.7386 10.2477 21.9258 10.0608C22.1129 9.87384 22.2403 9.63561 22.2921 9.37621C22.3438 9.11681 22.3174 8.8479 22.2163 8.60349C22.1152 8.35907 21.9439 8.15013 21.724 8.00309C21.5041 7.85604 21.2456 7.77749 20.9811 7.77737C20.6266 7.77753 20.2866 7.9184 20.0358 8.16904C19.7851 8.41968 19.6441 8.7596 19.6438 9.11414M10.529 24.1359C9.82232 24.1281 9.1222 23.9988 8.45934 23.7536C7.97863 23.5683 7.54204 23.2844 7.17768 22.9202C6.81331 22.5559 6.52924 22.1195 6.34376 21.6388C6.09839 20.976 5.96905 20.2759 5.9614 19.5691C5.90728 18.3944 5.8967 18.0415 5.8967 15.0653C5.8967 12.0891 5.90846 11.7371 5.9614 10.5612C5.96998 9.85455 6.09929 9.15456 6.34376 8.49149C6.52903 8.01063 6.81301 7.57393 7.1774 7.20954C7.54178 6.84516 7.97848 6.56118 8.45934 6.3759C9.12217 6.13055 9.82231 6.00121 10.529 5.99355C11.7038 5.93943 12.0567 5.92885 15.0317 5.92885C18.0067 5.92885 18.3599 5.94032 19.5358 5.99384C20.2425 6.00242 20.9424 6.13173 21.6055 6.3762C22.0864 6.56149 22.5231 6.84547 22.8874 7.20986C23.2518 7.57424 23.5358 8.01093 23.7211 8.49179C23.9665 9.15462 24.0958 9.85475 24.1035 10.5615C24.1576 11.738 24.1682 12.0891 24.1682 15.0656C24.1682 18.0421 24.1573 18.3938 24.1035 19.5697C24.0952 20.2764 23.9659 20.9764 23.7211 21.6394C23.5356 22.1201 23.2516 22.5565 22.8872 22.9207C22.5228 23.285 22.0862 23.5689 21.6055 23.7541C20.9427 23.9995 20.2426 24.1288 19.5358 24.1365C18.3611 24.1906 18.0082 24.2012 15.0317 24.2012C12.0552 24.2012 11.7035 24.1903 10.529 24.1365M10.4367 3.98679C9.51194 4.00497 8.59698 4.18 7.73081 4.50443C6.99037 4.79072 6.31793 5.22857 5.75659 5.78991C5.19524 6.35125 4.75739 7.0237 4.47111 7.76414C4.14672 8.63032 3.97169 9.54527 3.95346 10.47C3.89846 11.6583 3.88611 12.0383 3.88611 15.065C3.88611 18.0918 3.89876 18.4715 3.95346 19.66C3.97168 20.5848 4.14672 21.4997 4.47111 22.3659C4.75741 23.1063 5.19526 23.7788 5.75661 24.3401C6.31795 24.9015 6.99038 25.3393 7.73081 25.6256C8.59702 25.9499 9.51196 26.1249 10.4367 26.1433C11.6255 26.1974 12.0049 26.2106 15.0317 26.2106C18.0585 26.2106 18.4382 26.198 19.6267 26.1433C20.5514 26.125 21.4664 25.95 22.3326 25.6256C23.073 25.3393 23.7454 24.9015 24.3068 24.3401C24.8681 23.7788 25.306 23.1063 25.5923 22.3659C25.9171 21.4998 26.0921 20.5848 26.1099 19.66C26.164 18.4709 26.1764 18.0918 26.1764 15.065C26.1764 12.0383 26.1638 11.6586 26.1099 10.47C26.0917 9.54527 25.9167 8.63031 25.5923 7.76414C25.306 7.02384 24.8683 6.3515 24.3071 5.79017C23.7459 5.22885 23.0737 4.79092 22.3335 4.50443C21.4674 4.17979 20.5524 4.00475 19.6276 3.98679C18.439 3.93237 18.0593 3.91943 15.0332 3.91943C12.007 3.91943 11.6264 3.93208 10.4373 3.98679" fill="white"/>
</g>
<defs>
<radialGradient id="paint0_radial_43_1107" cx="0" cy="0" r="1" gradientUnits="userSpaceOnUse" gradientTransform="translate(1.94147 29.3429) scale(38.0888)">
<stop offset="0.09" stop-color="#FA8F21"/>
<stop offset="0.78" stop-color="#D82D7E"/>
</radialGradient>
<radialGradient id="paint1_radial_43_1107" cx="0" cy="0" r="1" gradientUnits="userSpaceOnUse" gradientTransform="translate(20.78 28.3794) scale(33.5185)">
<stop offset="0.64" stop-color="#8C3AAA" stop-opacity="0"/>
<stop offset="1" stop-color="#8C3AAA"/>
</radialGradient>
<clipPath id="clip0_43_1107">
<rect width="30" height="30" fill="white"/>
</clipPath>
</defs>
</svg>
