<svg width="16" height="16" viewBox="0 0 16 16" fill="none" xmlns="http://www.w3.org/2000/svg">
<g id="language">
<path id="Vector" d="M2 6L3.75 2L5.5 6" stroke="#D3FB8F" stroke-linecap="round" stroke-linejoin="round"/>
<path id="Vector_2" d="M2.75 5H4.75" stroke="#D3FB8F" stroke-linejoin="round"/>
<path id="Vector_3" d="M9 10.5H14" stroke="#D3FB8F" stroke-linecap="round" stroke-linejoin="round"/>
<path id="Vector_4" d="M13 10.75C13 12.5 10.5 14 9.5 14M13.5 14C12.5 14 10 12.5 10 10.75" stroke="#D3FB8F" stroke-linecap="round" stroke-linejoin="round"/>
<path id="Vector_5" d="M11.5 10.25V9" stroke="#D3FB8F" stroke-linecap="round" stroke-linejoin="round"/>
<path id="Vector_6" d="M7.205 12.7202C6.515 13.0652 5.675 13.1102 4.89 12.7802C3.425 12.1652 2.665 10.5752 3.24 8.99023" stroke="#D3FB8F" stroke-miterlimit="10" stroke-linecap="round"/>
<path id="Vector_7" d="M3.23998 8.99512L1.79498 10.0451" stroke="#D3FB8F" stroke-miterlimit="10" stroke-linecap="round"/>
<path id="Vector_8" d="M3.23999 8.99512L4.49999 10.1651" stroke="#D3FB8F" stroke-miterlimit="10" stroke-linecap="round"/>
<path id="Vector_9" d="M8.29498 3.27977C8.98498 2.93477 9.82498 2.88977 10.61 3.21977C12.075 3.83477 12.835 5.42477 12.26 7.00977" stroke="#D3FB8F" stroke-miterlimit="10" stroke-linecap="round"/>
<path id="Vector_10" d="M12.26 7.00508L13.705 5.95508" stroke="#D3FB8F" stroke-miterlimit="10" stroke-linecap="round"/>
<path id="Vector_11" d="M12.26 7.00496L11 5.83496" stroke="#D3FB8F" stroke-miterlimit="10" stroke-linecap="round"/>
</g>
</svg>
