<svg width="43" height="43" viewBox="0 0 43 43" fill="none" xmlns="http://www.w3.org/2000/svg">
<path d="M16.7503 26.0273L9.20881 27.9606C7.56354 28.4492 6.12024 29.4565 5.09402 30.8322C4.06781 32.2079 3.51363 33.8784 3.5141 35.5947V41.2647H39.4859V35.5947C39.4863 33.8784 38.9322 32.2079 37.9059 30.8322C36.8797 29.4565 35.4364 28.4492 33.7912 27.9606L26.2559 26.0273H16.7503Z" fill="#D3FB8F"/>
<path d="M26.4412 24.7428V23.248H16.5588V24.7428C16.5588 27.4604 18.9368 30.0978 21.5 29.6839C24.1991 30.1472 26.4412 27.4604 26.4412 24.7428Z" fill="#46487E"/>
<path d="M16.7503 26.0273C16.7503 26.0273 18.6032 29.9185 21.5 29.6591L18.98 32.7473C18.98 32.7473 14.0388 29.9494 14.255 26.6635L16.7503 26.0273ZM26.2559 26.0273C26.2559 26.0273 24.4029 29.9185 21.5 29.6591L24.02 32.7473C24.02 32.7473 28.9612 29.9494 28.745 26.6635L26.2559 26.0273Z" fill="#101334"/>
<path d="M13.4706 14.4095C13.4706 14.4095 11.315 14.3354 11.4138 16.3119C11.5126 18.2884 13.3965 19.326 13.3965 19.326L13.4706 14.4095ZM29.5603 14.4095C29.5603 14.4095 31.7159 14.3354 31.6171 16.3119C31.5182 18.2884 29.6344 19.326 29.6344 19.326L29.5603 14.4095Z" fill="#46487E"/>
<path d="M29.8815 13.4707V18.7578C29.8706 20.945 29.0044 23.0413 27.4682 24.5983C25.9319 26.1553 23.8475 27.0495 21.6606 27.0898C20.5679 27.1319 19.4777 26.9557 18.4539 26.5716C17.4301 26.1874 16.4931 25.603 15.6978 24.8525C14.9025 24.1021 14.2647 23.2006 13.8219 22.2007C13.379 21.2009 13.1399 20.1228 13.1185 19.0295V13.3966C13.1185 13.3966 15.7065 8.4554 23.3468 7.3807C24.1475 7.25871 24.9664 7.37693 25.7 7.7204C28.2941 8.99893 29.6468 10.9507 29.8815 13.4707Z" fill="#46487E"/>
<path d="M29.9 14.7428C29.7147 12.0622 28.9056 10.0117 26.2374 8.70842C25.6267 8.41621 24.9457 8.30272 24.2733 8.38107C14.9653 9.33225 13.1186 15.4161 13.1186 15.4161C12.4206 14.7058 11.8833 12.8467 11.4694 11.7658C11.0371 10.569 10.9688 9.27097 11.2733 8.03545C11.5778 6.79993 12.2414 5.68226 13.1803 4.82342C14.45 3.65095 15.9712 2.78471 17.6274 2.29107C20.481 1.40584 23.5612 1.60826 26.2744 2.8593C31.2897 5.20636 32.3027 9.93754 29.9 14.7428Z" fill="#101334"/>
<path d="M10.3206 41.2645L9.7894 33.0498L9.2644 41.2645H10.3206ZM33.7356 41.2645L33.2106 33.0498L32.6794 41.2645H33.7356Z" fill="#101334"/>
</svg>
