<svg width="126" height="142" viewBox="0 0 126 142" fill="none" xmlns="http://www.w3.org/2000/svg">
<g id="music" clip-path="url(#clip0_241_11393)">
<path id="Vector" d="M77.6585 60.5222C87.3645 59.3341 95.1102 57.37 94.959 56.1353C94.8079 54.9006 86.8171 54.8628 77.1112 56.0509C67.4052 57.239 59.6595 59.2031 59.8107 60.4378C59.9618 61.6725 67.9525 61.7103 77.6585 60.5222Z" fill="#EA552D"/>
<path id="Vector_2" d="M108.21 121.345L106.231 122.593L104.782 121.389L104.774 123.423L101.619 124.243L100.597 122.987L99.722 125.028L97.0142 125.636L95.588 123.817L94.8202 125.766L91.1285 126.395L90.032 124.852L89.2134 126.709L85.5439 127.197L84.3359 125.55L83.7364 127.261L79.5321 127.894L78.8864 121.974C72.2255 122.849 67.6625 125.065 65.6195 128.847L62.1987 129.917L60.8122 128.745L60.7637 130.606L57.2913 131.899L55.9611 130.542L55.6841 132.471L52.4415 133.223L50.9466 131.65L50.3848 133.83L46.73 134.277L45.3252 132.634L44.611 134.536L40.8522 134.779L39.9751 132.933L39.3196 134.671L35.7077 134.501L34.5088 132.123L33.6101 133.969L30.2295 133.594L29.7483 131.758L28.7258 133.561L25.3885 132.41L25.1386 130.369L23.7519 132.098L20.6292 130.605L20.1548 128.986L19.0994 130.358C17.9643 129.629 17.0253 129.211 15.9097 128.48C16.024 126.512 16.1407 124.564 16.2745 122.594C16.3229 121.701 16.3884 120.785 16.4393 119.911C16.4948 119.075 16.5968 118.135 17.2201 117.585C17.6657 117.195 18.5461 116.811 19.0872 117.041L21.6804 116.625L68.1304 109.222L103.374 103.606L103.988 103.945C105.072 104.582 105.84 105.692 106.033 106.951L107.55 116.927L108.21 121.345Z" fill="#BC593C"/>
<path id="Vector_3" d="M26.8063 128.034C26.0287 128.129 25.1519 128.059 24.2148 127.818C23.7268 127.7 23.2535 127.541 22.7802 127.382C21.8554 127.081 20.9718 126.794 20.0562 126.729C18.8417 126.641 17.0246 127.593 16.6401 128.804C16.5715 129.05 16.2942 129.202 16.0466 129.114C15.799 129.026 15.6491 128.768 15.7372 128.52C16.2613 126.838 18.526 125.673 20.1169 125.774C21.1516 125.845 22.1371 126.158 23.0837 126.477C23.5352 126.619 23.9891 126.78 24.4576 126.9C25.3753 127.143 27.1043 127.405 28.2338 126.478C28.5552 126.201 28.8282 125.852 29.1158 125.462C29.5912 124.832 30.0835 124.179 30.8739 123.866C32.0046 123.431 33.15 123.922 34.1497 124.352C34.4846 124.509 34.8365 124.643 35.1666 124.761C36.6472 125.25 38.3826 124.92 39.5875 123.963C40.7901 122.987 41.4793 121.364 41.3302 119.823C41.2992 119.57 41.5063 119.328 41.7591 119.297C42.0118 119.266 42.2542 119.473 42.2851 119.726C42.4723 121.578 41.6462 123.534 40.1905 124.698C38.7348 125.863 36.6495 126.237 34.8825 125.664C34.5135 125.551 34.1374 125.38 33.7831 125.226C32.8659 124.825 32.0117 124.456 31.2384 124.748C30.6913 124.953 30.3013 125.475 29.8942 126.018C29.5895 126.43 29.2677 126.864 28.8563 127.21C28.3012 127.673 27.6228 127.934 26.8063 128.034ZM26.0913 119.775C26.1623 120.516 25.8421 121.285 25.2652 121.73C24.6713 122.198 23.8619 122.356 23.1628 122.126C22.5876 121.94 22.0032 121.518 21.4366 121.726C20.9673 121.921 20.7617 122.499 20.3479 122.826C19.8659 123.24 19.1517 123.209 18.54 123.047C17.9282 122.885 17.324 122.624 16.7047 122.561C16.5662 122.559 16.4107 122.578 16.2551 122.597C16.3036 121.703 16.3691 120.787 16.4199 119.913C16.4755 119.077 16.5775 118.137 17.2008 117.587C17.6463 117.197 18.5267 116.813 19.0679 117.043L21.661 116.627C22.9952 117.371 24.4865 118.432 26.0913 119.775ZM107.548 116.907C107.395 116.788 107.264 116.685 107.114 116.585C105.574 115.61 103.586 115.971 101.886 116.594C100.206 117.214 98.5179 118.091 96.7226 118.094C92.9305 118.065 90.1174 114.266 86.3678 113.777C84.4226 113.522 82.492 114.193 80.6923 114.965C78.8951 115.758 77.1097 116.647 75.1656 116.885C73.2216 117.123 70.5325 116.11 69.4459 114.487L68.1476 109.2L103.392 103.584L104.005 103.923C105.09 104.56 105.857 105.67 106.05 106.928L107.548 116.907Z" fill="#A5402E"/>
<path id="Vector_4" d="M44.6145 135.049L44.595 135.051L40.8557 135.292C40.6589 135.296 40.4697 135.201 40.3876 135.014L39.9889 134.175L39.7199 134.879C39.6441 135.065 39.464 135.206 39.2454 135.193L35.6334 135.024C35.4561 135.026 35.3033 134.906 35.226 134.758L34.4671 133.233L33.9957 134.218C33.9005 134.407 33.6961 134.511 33.514 134.474L30.1334 134.099C29.9342 134.084 29.7791 133.945 29.7141 133.736L29.5312 133.048L29.092 133.812C28.9773 134.003 28.7341 134.112 28.5254 134.019L25.1881 132.869C25.023 132.81 24.9068 132.667 24.883 132.472L24.7711 131.558L24.0863 132.412C23.9498 132.586 23.6995 132.637 23.5103 132.542L20.3852 131.03C20.259 130.966 20.167 130.859 20.1309 130.725L19.9286 130.04L19.4703 130.648C19.3168 130.845 19.047 130.898 18.8335 130.766C18.2757 130.4 17.7687 130.127 17.2593 129.834C16.7304 129.543 16.2016 129.253 15.6438 128.887C15.4934 128.787 15.4137 128.619 15.4335 128.459L15.9631 119.89C16.0215 118.916 16.1529 117.893 16.9003 117.23C17.38 116.796 18.3505 116.342 19.1249 116.543L103.313 103.1C103.407 103.069 103.531 103.113 103.636 103.16L104.232 103.521C105.464 104.238 106.285 105.46 106.495 106.855L108.693 121.266C108.717 121.46 108.641 121.647 108.476 121.746L106.478 122.997C106.315 123.116 106.075 123.086 105.922 122.967L105.243 122.418L105.25 123.443C105.257 123.66 105.103 123.856 104.892 123.902L101.717 124.724C101.547 124.785 101.341 124.711 101.224 124.568L100.692 123.923L100.122 125.235C100.061 125.381 99.9346 125.475 99.7815 125.514L97.0566 126.143C96.8646 126.187 96.6777 126.111 96.5809 125.965L95.1547 124.147C94.9901 123.93 95.0321 123.629 95.2293 123.466C95.4265 123.304 95.7471 123.344 95.9093 123.541L97.1491 125.126L99.3368 124.621L100.121 122.808C100.182 122.663 100.326 122.547 100.501 122.525C100.635 122.489 100.821 122.565 100.935 122.689L101.771 123.712L104.294 123.047L104.289 121.391C104.287 121.213 104.404 121.041 104.572 120.961C104.739 120.882 104.941 120.916 105.072 121.019L106.257 121.998L107.686 121.093L105.545 106.991C105.368 105.868 104.717 104.902 103.739 104.331L103.293 104.07L19.1637 117.505C19.086 117.515 18.9864 117.507 18.9039 117.478C18.6127 117.356 17.9319 117.597 17.5204 117.943C17.0407 118.377 16.961 119.176 16.8982 119.953L16.3742 128.245C16.8447 128.543 17.2693 128.787 17.7132 129.029C18.1159 129.255 18.538 129.48 18.9649 129.744L19.7279 128.723C19.8279 128.572 20.0175 128.51 20.1996 128.547C20.3817 128.583 20.515 128.705 20.5777 128.895L20.9871 130.305L23.5662 131.548L24.7141 130.125C24.8335 129.972 25.0426 129.907 25.2271 129.964C25.4115 130.02 25.5496 130.181 25.5734 130.375L25.7876 132.125L28.4648 133.04L29.275 131.599C29.3726 131.429 29.5575 131.328 29.759 131.362C29.9582 131.377 30.1157 131.536 30.1565 131.708L30.5584 133.218L33.2808 133.536L34.0378 131.983C34.116 131.815 34.2814 131.716 34.4588 131.714C34.6361 131.712 34.8059 131.81 34.8857 131.978L35.9564 134.116L38.9343 134.264L39.47 132.837C39.5263 132.653 39.7089 132.532 39.9056 132.527C40.1024 132.523 40.2722 132.621 40.3543 132.808L41.0986 134.374L44.211 134.171L44.8225 132.557C44.8812 132.392 45.0248 132.276 45.1803 132.257C45.3529 132.216 45.5203 132.294 45.6342 132.418L46.8573 133.867L49.9289 133.491L50.4245 131.575C50.4638 131.413 50.605 131.277 50.7582 131.239C50.9308 131.198 51.0934 131.237 51.2291 131.378L52.5375 132.718L55.204 132.095L55.4243 130.509C55.4418 130.33 55.5806 130.175 55.7508 130.114C55.921 130.054 56.125 130.108 56.2388 130.232L57.3461 131.379L60.213 130.298L60.2606 128.753C60.2587 128.576 60.3757 128.404 60.5435 128.324C60.7114 128.244 60.9129 128.279 61.0462 128.401L62.2146 129.402L65.1977 128.465C67.3085 124.753 71.8549 122.401 78.7297 121.5C78.9824 121.469 79.2224 121.657 79.2534 121.91C79.2867 122.182 79.099 122.422 78.8463 122.453C72.1854 123.328 67.8409 125.556 65.9249 129.086C65.8591 129.193 65.7714 129.282 65.6377 129.318L62.2169 130.388C62.0662 130.446 61.8841 130.409 61.7726 130.305L61.1545 129.769L61.1231 130.641C61.108 130.84 60.991 131.012 60.8208 131.072L57.3484 132.366C57.1782 132.426 56.9767 132.391 56.841 132.25L56.1868 131.58L56.0483 132.544C56.0138 132.746 55.8749 132.901 55.6829 132.944L52.4403 133.696C52.2871 133.735 52.1026 133.679 51.9888 133.554L51.085 132.619L50.7366 133.964C50.6803 134.149 50.5196 134.287 50.3252 134.31L46.6704 134.758C46.5149 134.777 46.3498 134.718 46.2554 134.592L45.381 133.574L44.9481 134.712C44.9331 134.911 44.7894 135.028 44.6145 135.049Z" fill="black"/>
<path id="Vector_5" d="M103.972 104.618C103.262 104.941 91.6679 108.235 81.9318 110.907C79.0657 111.672 76.3746 112.416 74.1552 112.983C64.9177 115.377 56.1087 119.336 46.7316 121.234C43.6302 121.85 40.4055 122.265 37.1963 122.322C30.6782 122.429 24.2439 121.125 19.1498 117.23C18.093 114.4 18.8791 110.989 21.0684 108.886C21.6334 108.343 22.2686 107.89 22.9546 107.53C24.8034 106.515 27.0006 106.088 29.1097 105.909C32.0182 105.651 35.0061 105.72 37.8044 104.884C40.8847 103.934 44.1988 101.832 46.3087 99.403C48.4187 96.9743 50.0221 94.1142 51.4215 91.2002C56.0836 81.5726 58.9429 71.0805 59.7912 60.4399C71.3233 60.3503 83.5101 58.8388 94.9396 56.1374C94.2018 61.5553 93.5128 66.8883 94.4247 72.2424L94.4271 72.2618C94.5231 72.7236 94.602 73.2073 94.7393 73.6838C95.7147 77.9448 97.7915 81.854 99.4525 85.9127C101.896 91.8489 103.442 98.1909 103.972 104.618Z" fill="#FF7A43"/>
<path id="Vector_6" d="M55.241 119.501C55.1049 119.518 54.9617 119.476 54.8502 119.371C54.1111 118.653 52.8194 118.416 50.8729 118.635L50.698 118.656C48.9848 118.846 47.036 119.045 45.6106 117.878C44.6239 117.071 44.1947 115.822 43.8428 114.72L43.7778 114.511C43.416 113.49 42.9233 112.366 41.9794 111.91C41.2054 111.551 40.2794 111.723 39.2927 111.883C38.8868 111.953 38.4615 112.025 38.0727 112.072C35.8517 112.305 33.5511 111.402 32.0637 109.73C31.1263 108.68 30.5007 107.277 30.3222 105.819C30.2913 105.566 30.4789 105.326 30.7316 105.295C30.9844 105.264 31.2244 105.452 31.2553 105.705C31.41 106.968 31.9535 108.184 32.7553 109.093C34.0367 110.534 36.0462 111.314 37.9561 111.12C38.3449 111.072 38.7119 111.007 39.0983 110.94C40.1799 110.749 41.3173 110.531 42.3655 111.034C43.6442 111.647 44.2698 113.05 44.6677 114.205L44.7327 114.414C45.0751 115.438 45.4246 116.52 46.2101 117.134C47.3082 118.045 48.9825 117.86 50.5814 117.704L50.7369 117.685C52.1779 117.528 54.2211 117.456 55.4763 118.683C55.658 118.878 55.6743 119.172 55.4795 119.354C55.4307 119.438 55.3382 119.489 55.241 119.501ZM37.1963 122.322C30.6782 122.429 24.2439 121.125 19.1499 117.23C18.0931 114.4 18.8791 110.988 21.0685 108.885C21.6334 108.343 22.2686 107.89 22.9546 107.53C23.32 108.097 23.5052 108.804 23.4648 109.44C23.4092 110.276 23.5746 111.144 24.0173 111.859C24.6874 112.981 25.9049 113.739 27.2019 113.857C28.0811 113.946 29.0654 113.767 29.7807 114.291C30.3869 114.73 30.5841 115.534 30.6963 116.29C30.7867 117.029 30.8649 117.828 31.3516 118.42C32.0225 119.226 33.2175 119.316 34.274 119.404C35.2286 119.465 36.3212 119.686 36.8294 120.453C37.1368 120.869 37.0471 121.748 37.1963 122.322Z" fill="#F26636"/>
<path id="Vector_7" d="M103.972 104.618C103.692 104.751 101.655 105.355 98.6817 106.212C94.2401 107.486 87.7541 109.306 81.9318 110.907C81.609 106.98 81.4271 103.076 81.6193 99.1652C81.8928 93.8239 82.9706 88.4433 85.429 83.7027C87.6823 79.3819 91.0222 75.7173 94.4442 72.24C94.5402 72.7018 94.6191 73.1854 94.7564 73.6619C95.7318 77.923 97.8086 81.8322 99.4696 85.8909C100.534 88.4638 101.412 91.1188 102.117 93.8147C103.043 97.3517 103.682 100.963 103.972 104.618Z" fill="#FFCD3B"/>
<path id="Vector_8" d="M91.5696 108.72L91.5501 108.723C91.295 108.734 91.055 108.547 91.0411 108.272C90.9638 107.157 90.6556 106.09 90.3184 104.947C90.1113 104.222 89.8824 103.481 89.7313 102.73C89.2299 100.246 89.7529 98.0706 91.1673 96.8911C91.7395 96.4067 92.4131 96.1072 93.0503 95.8319C93.5562 95.6121 94.0426 95.3947 94.4806 95.1043C96.1866 93.8892 96.6204 91.4683 96.8228 89.2533C96.9828 87.4973 97.1899 85.3212 98.2144 83.6961C98.3656 83.4803 98.6524 83.4057 98.8659 83.5375C99.0793 83.6692 99.1563 83.9755 99.0245 84.1889C98.1171 85.6418 97.9421 87.5969 97.7603 89.3358C97.5452 91.7694 97.0428 94.4355 95.0106 95.8879C94.502 96.2461 93.9596 96.4901 93.4149 96.7147C92.7972 96.9876 92.2354 97.2339 91.7509 97.6287C90.6237 98.5757 90.1987 100.423 90.6379 102.56C90.7842 103.272 90.9913 103.996 91.196 104.701C91.5308 105.825 91.8727 107.006 91.9449 108.24C92.0123 108.469 91.8223 108.689 91.5696 108.72ZM103.972 104.617C103.692 104.75 101.655 105.355 98.6817 106.212C98.6404 106.197 98.5797 106.185 98.5384 106.17C98.6241 105.903 98.6492 105.624 98.6329 105.33C98.5818 104.429 98.2025 103.587 98.0371 102.72C97.8693 101.832 97.94 100.798 98.6216 100.241C99.0695 99.8702 99.6674 99.7575 100.14 99.4235C101.011 98.8038 101.22 97.614 101.33 96.5745C101.41 95.6176 101.537 94.5563 102.139 93.8315C103.043 97.3514 103.682 100.963 103.972 104.617Z" fill="#FCB910"/>
<path id="Vector_9" d="M42.3778 122.418C34.8349 123.341 25.7796 122.871 18.8793 117.599C18.8138 117.548 18.746 117.477 18.7147 117.382C17.5999 114.401 18.4352 110.747 20.7487 108.53C22.5849 106.766 25.3229 105.76 29.0891 105.418C29.8886 105.339 30.6928 105.3 31.497 105.261C33.5549 105.147 35.6906 105.024 37.6866 104.405C40.711 103.482 43.9667 101.386 45.972 99.0692C48.2379 96.4635 49.8515 93.3654 51.0189 90.973C54.4843 83.8203 56.9476 76.218 58.3329 68.3531C58.3797 68.0908 58.6352 67.9214 58.878 67.9706C59.1403 68.0175 59.3097 68.273 59.2605 68.5158C57.8652 76.4609 55.375 84.1651 51.8802 91.4004C50.7006 93.8534 49.0357 97.0169 46.7016 99.7099C44.5404 102.204 41.2117 104.348 37.9782 105.336C35.8849 105.967 33.6909 106.097 31.5747 106.218C30.7705 106.258 29.9881 106.314 29.1887 106.392C25.6339 106.689 23.105 107.63 21.4271 109.236C19.4155 111.179 18.6763 114.328 19.5879 116.94C27.6304 123 38.7412 122.37 46.6551 120.769C51.9513 119.707 57.1788 117.922 62.2385 116.218C66.085 114.918 70.0628 113.563 74.0592 112.521C75.8386 112.067 77.9196 111.496 80.1366 110.909L81.8358 110.445C91.2098 107.877 101.505 104.939 103.497 104.281C102.927 98.0169 101.427 91.8864 99.0391 86.0815C98.5635 84.9361 98.0708 83.8125 97.5781 82.6889C96.3221 79.8434 95.013 76.8861 94.297 73.7772C94.1792 73.2983 94.0808 72.817 94.0019 72.3334C93.2526 67.9855 93.5793 63.7229 93.9869 60.1213C94.0143 59.8614 94.2479 59.675 94.5078 59.7023C94.7677 59.7297 94.9541 59.9634 94.9267 60.2233C94.5291 63.7448 94.2123 67.9272 94.9255 72.1414C95.002 72.6056 95.098 73.0674 95.2158 73.5463C95.9005 76.5604 97.1854 79.4812 98.4367 82.2878C98.9317 83.4309 99.4439 84.5521 99.9001 85.6999C102.372 91.7114 103.899 98.0558 104.458 104.558C104.482 104.752 104.367 104.944 104.18 105.026C103.431 105.355 91.6497 108.73 82.0643 111.344L80.3651 111.809C78.1504 112.415 76.0671 112.966 74.2877 113.421C70.3278 114.438 66.3694 115.791 62.5424 117.088C57.4656 118.815 52.1992 120.604 46.8447 121.674C45.4228 121.986 43.933 122.227 42.3778 122.418Z" fill="black"/>
<path id="Vector_10" d="M56.0305 99.5155C57.2223 99.3696 58.0702 98.2852 57.9243 97.0935C57.7784 95.9017 56.694 95.0538 55.5023 95.1997C54.3105 95.3456 53.4626 96.43 53.6085 97.6218C53.7544 98.8135 54.8388 99.6614 56.0305 99.5155Z" fill="white"/>
<path id="Vector_11" d="M61.5434 88.7772C62.7351 88.6313 63.583 87.547 63.4371 86.3552C63.2912 85.1634 62.2068 84.3156 61.0151 84.4614C59.8233 84.6073 58.9754 85.6917 59.1213 86.8835C59.2672 88.0753 60.3516 88.9231 61.5434 88.7772Z" fill="white"/>
<path id="Vector_12" d="M65.4424 78.2367C66.6342 78.0908 67.482 77.0064 67.3361 75.8147C67.1903 74.6229 66.1059 73.775 64.9141 73.9209C63.7223 74.0668 62.8745 75.1512 63.0204 76.343C63.1663 77.5347 64.2506 78.3826 65.4424 78.2367Z" fill="white"/>
<path id="Vector_13" d="M67.4171 67.932C68.6089 67.7861 69.4568 66.7017 69.3109 65.51C69.165 64.3182 68.0806 63.4703 66.8889 63.6162C65.6971 63.7621 64.8492 64.8465 64.9951 66.0383C65.141 67.23 66.2254 68.0779 67.4171 67.932Z" fill="white"/>
<path id="Vector_14" d="M55.2181 98.0361C54.9848 98.0647 54.742 98.0155 54.5091 97.8862C52.4886 96.6931 50.5926 95.2282 48.9109 93.5793C48.4626 93.1409 48.4547 92.4315 48.8955 92.0026C49.3339 91.5543 50.0456 91.5659 50.4721 91.9872C52.0205 93.5144 53.7638 94.8598 55.634 95.9529C56.1652 96.2628 56.3481 96.9507 56.0188 97.4843C55.86 97.7997 55.5486 97.9957 55.2181 98.0361ZM61.1212 87.5858C60.9268 87.6096 60.7253 87.5751 60.5384 87.4993L53.3266 84.3568C52.7636 84.11 52.5054 83.451 52.7522 82.888C52.999 82.3251 53.6579 82.0668 54.2209 82.3136L61.4328 85.4561C61.9957 85.7029 62.254 86.3619 62.0072 86.9249C61.8556 87.2986 61.5101 87.5382 61.1212 87.5858ZM65.0328 76.9846C64.8578 77.006 64.6781 76.9886 64.513 76.9298C62.1346 76.0371 59.6387 75.4744 57.1079 75.2712C56.491 75.2283 56.0284 74.6732 56.0907 74.0539C56.153 73.4346 56.6886 72.9744 57.3079 73.0367C60.0403 73.2745 62.7377 73.8717 65.3225 74.8378C65.9025 75.0628 66.1972 75.6976 65.9723 76.2776C65.7818 76.6561 65.4216 76.937 65.0328 76.9846ZM66.9415 66.7864C66.8054 66.8031 66.6669 66.8003 66.5237 66.7586C63.7731 66.0495 61.7914 65.8186 58.9753 66.0251C58.3485 66.0624 57.8176 65.5946 57.7828 64.9872C57.7455 64.3604 58.1938 63.8319 58.8207 63.7947C61.8919 63.5766 64.1116 63.8179 67.1074 64.5956C67.6997 64.7599 68.0699 65.3657 67.9056 65.9581C67.7635 66.4095 67.3886 66.7317 66.9415 66.7864Z" fill="#1D2856"/>
<path id="Vector_15" d="M43.5928 65.1258C43.4913 63.9741 43.4568 63.2088 43.3676 61.9963C43.2589 60.7862 42.8563 59.5924 42.0009 58.7303C41.2789 57.9899 40.2985 57.5574 39.4424 57.0111C39.1877 56.8647 38.8667 56.9829 38.7834 57.2693L35.4332 68.7489L35.2102 69.5063C35.1464 69.7904 34.7694 70.902 34.623 71.1567C33.3589 73.403 29.5752 72.9585 27.6058 71.7C27.436 71.6024 27.2856 71.5024 27.1523 71.3806C25.9233 70.3669 25.3758 68.7962 25.4671 67.2854C25.4671 67.2854 25.4429 67.2489 25.4624 67.2465C25.5819 65.16 26.9253 63.2394 29.3086 63.2042C29.328 63.2018 29.3474 63.1995 29.3474 63.1995C29.4835 63.1828 29.5855 63.2098 29.7216 63.1931C30.7975 63.2785 32.6761 63.9562 33.5612 64.5779C33.8643 64.7973 34.2995 64.6454 34.4122 64.2764L37.5687 53.4717L37.8897 52.3866L38.6103 49.8911C38.7599 49.34 39.7383 49.5952 40.0925 49.7491C40.8229 50.0741 40.8729 50.4823 41.0558 51.1703C41.1304 51.4572 41.2268 51.7611 41.3402 52.0431C41.4029 52.2328 41.485 52.4201 41.5671 52.6073C42.0769 53.7091 42.791 54.7069 43.4273 55.7143C45.3026 58.6221 45.9178 62.1972 43.5928 65.1258Z" fill="#FA778D"/>
<path id="Vector_16" d="M32.0017 24.5948L32.2444 27.5446L32.3149 28.4436L33.4213 41.3508C33.6998 42.6585 33.1546 44.0078 31.9473 44.9449C30.8324 45.8312 29.2359 46.0068 27.9378 45.3962C26.6421 44.805 25.7467 43.4545 25.6896 42.021C25.6531 41.0784 25.9714 40.1318 26.5951 39.424C27.5112 38.3647 29.1446 38.0069 30.5304 38.5279L29.928 31.8336C29.9165 31.5785 29.64 31.4151 29.4162 31.5214L19.9879 35.4182C19.8566 35.4738 19.7736 35.6023 19.7903 35.7384L20.6889 46.3033C20.7761 47.3384 20.5234 48.3362 19.9917 49.1511C19.5112 49.9005 18.8149 50.4987 17.9833 50.7979L17.9274 50.8244C17.5505 50.9692 17.1664 51.0557 16.7923 51.062C15.835 51.1398 14.8689 50.8239 14.1052 50.2268C13.933 50.1097 13.7561 49.9538 13.5986 49.7955C12.8329 49.021 12.454 48.0216 12.5465 47.004C12.5616 46.8048 12.5937 46.5838 12.6695 46.397C12.9489 45.4551 13.6289 44.5629 14.4927 44.0428C14.9331 43.7718 15.383 43.5786 15.8666 43.4997C16.4474 43.4089 17.0644 43.4517 17.5766 43.6061L16.4749 30.7377C16.4234 29.9942 16.8332 29.3126 17.5069 29.0131L27.0523 24.9441L28.2171 24.4661L30.3183 23.5775C30.7147 23.4303 31.0912 23.4434 31.4137 23.6604C31.7533 23.8556 31.9735 24.2036 32.0017 24.5948Z" fill="#1B38AB"/>
<path id="Vector_17" d="M80.035 77.358C81.6026 77.1661 82.7178 75.7398 82.5259 74.1723C82.334 72.6047 80.9077 71.4895 79.3401 71.6814C77.7726 71.8733 76.6574 73.2996 76.8493 74.8671C77.0411 76.4347 78.4675 77.5499 80.035 77.358Z" fill="#F26636"/>
<path id="Vector_18" d="M84.0185 72.017C84.6414 71.9407 85.0845 71.374 85.0083 70.7511C84.9321 70.1282 84.3653 69.6851 83.7424 69.7614C83.1196 69.8376 82.6764 70.4043 82.7527 71.0272C82.8289 71.6501 83.3957 72.0932 84.0185 72.017Z" fill="#F26636"/>
<path id="Vector_19" d="M83.7552 82.7629C82.8415 82.8747 82.0555 83.3853 81.5509 84.0982C81.0267 84.8135 80.7668 85.753 80.8858 86.725C80.6455 84.7616 78.9729 83.3483 77.1455 83.572C78.0592 83.4601 78.8257 82.9519 79.3522 82.2561C79.8763 81.5408 80.1362 80.6013 80.0172 79.6293C80.1362 80.6013 80.6151 81.4503 81.2962 82.0181C81.958 82.5883 82.8415 82.8747 83.7552 82.7629ZM81.3607 88.1863C80.8163 88.2529 80.3394 88.5481 80.0371 88.9797C79.7348 89.4113 79.5657 89.9648 79.6371 90.548C79.4943 89.3816 78.5029 88.5361 77.4142 88.6693C77.9586 88.6027 78.416 88.3099 78.7378 87.8759C79.0401 87.4443 79.2092 86.8908 79.1378 86.3076C79.2092 86.8908 79.4873 87.3895 79.9042 87.7331C80.2823 88.0815 80.8163 88.2529 81.3607 88.1863Z" fill="white"/>
<path id="Vector_20" d="M77.6585 60.5222C87.3645 59.3341 95.1102 57.37 94.959 56.1353C94.8079 54.9006 86.8171 54.8628 77.1112 56.0509C67.4052 57.239 59.6595 59.2031 59.8107 60.4378C59.9618 61.6725 67.9525 61.7103 77.6585 60.5222Z" fill="#F26636"/>
<path id="Vector_21" d="M77.5443 59.5889C85.6183 58.6006 92.0922 57.2163 92.0041 56.4969C91.916 55.7775 85.2994 55.9956 77.2254 56.9839C69.1515 57.9722 62.6776 59.3566 62.7656 60.0759C62.8537 60.7953 69.4703 60.5773 77.5443 59.5889Z" fill="#D1391C"/>
<path id="Vector_22" d="M70.7422 60.5989C70.7227 60.6013 70.6838 60.606 70.662 60.589C70.4823 60.5715 70.3637 60.4084 70.3811 60.2287C70.4875 59.4856 70.5113 58.7131 70.4915 57.9066L70.482 57.8288C70.4753 57.6126 70.4491 57.3987 70.4229 57.1849C70.34 56.3466 70.1794 55.5178 69.9239 54.7203C69.8636 54.5501 69.9323 54.3049 70.083 54.247C70.2532 54.1867 70.4135 54.2065 70.4738 54.3768C70.5004 54.4327 70.5294 54.5081 70.5413 54.6053C70.7943 55.3833 70.9597 56.251 71.0474 57.1282C71.0736 57.342 71.0827 57.5777 71.1089 57.7915L71.1184 57.8693C71.1648 58.7318 71.1262 59.5455 71.0028 60.3105C70.983 60.4707 70.8782 60.5822 70.7422 60.5989Z" fill="black"/>
<path id="Vector_23" d="M72.6179 60.4483C72.5012 60.4626 72.3751 60.3991 72.3025 60.2896C72.0799 59.9222 71.8621 59.5937 71.6443 59.2652C71.3805 58.8831 71.0949 58.484 70.8386 58.0023C70.7902 57.9293 70.7612 57.8539 70.7128 57.7809C70.6299 57.9095 70.547 58.038 70.4446 58.1689C70.2105 58.5133 69.9717 58.8188 69.7328 59.1243C69.3769 59.6019 69.004 60.1014 68.6699 60.5961C68.5699 60.7465 68.3779 60.7897 68.2275 60.6897C68.0771 60.5898 68.0339 60.3977 68.1339 60.2474C68.485 59.7308 68.858 59.2313 69.2115 58.7342C69.4309 58.4311 69.6698 58.1257 69.8868 57.8031C70.0891 57.5218 70.2721 57.2429 70.455 56.964C70.5232 56.8767 70.6545 56.8212 70.7541 56.8287C70.8731 56.8339 70.9799 56.8998 71.0112 56.9946C71.1199 57.2378 71.2262 57.4616 71.3496 57.6635C71.6035 58.1257 71.8673 58.5078 72.1311 58.8899C72.3707 59.2354 72.608 59.5616 72.8135 59.9508C72.9103 60.0968 72.8563 60.3007 72.7079 60.3781C72.6932 60.4193 72.6567 60.4435 72.6179 60.4483ZM79.643 59.6476C79.6236 59.6499 79.6041 59.6523 79.6041 59.6523C79.4268 59.6543 79.2887 59.4936 79.2891 59.3357C79.3154 58.5827 79.2543 57.7614 79.1178 56.9691L79.094 56.7747C78.9171 55.6519 78.6573 54.6577 78.3364 53.809C78.2761 53.6388 78.3519 53.452 78.5221 53.3917C78.6923 53.3314 78.8791 53.4072 78.9394 53.5774C79.2846 54.4625 79.5492 55.4956 79.7332 56.6767L79.757 56.8712C79.8958 57.6829 79.9616 58.543 79.9402 59.3349C79.9203 59.4952 79.7985 59.6285 79.643 59.6476Z" fill="black"/>
<path id="Vector_24" d="M77.779 59.8954C77.7013 59.9049 77.6406 59.8926 77.5751 59.8414C77.4248 59.7415 77.3815 59.5494 77.4815 59.3991C77.6985 59.0765 77.8961 58.7564 78.1132 58.4338C78.4619 57.8978 78.8472 57.3377 79.1717 56.7652C79.2229 56.6997 79.2376 56.6585 79.2547 56.6366C79.3229 56.5494 79.4348 56.4962 79.5367 56.5232C79.6363 56.5307 79.743 56.5966 79.7938 56.689C80.183 57.4504 80.5825 57.9737 81.0256 58.5311L81.3331 58.9473C81.4493 59.091 81.4148 59.2925 81.2688 59.3893C81.1252 59.5055 80.9236 59.471 80.8268 59.325L80.5218 58.9283C80.173 58.4974 79.8219 58.0471 79.4954 57.4754C79.2344 57.9217 78.932 58.3533 78.6491 58.7826C78.4321 59.1051 78.2345 59.4253 78.0175 59.7478C77.9492 59.8351 77.8762 59.8835 77.779 59.8954Z" fill="black"/>
<path id="Vector_25" d="M98.1649 34.6097C99.1203 32.4209 100.059 30.254 101.014 28.0652C101.261 27.5022 101.505 26.9198 101.881 26.4398C102.256 25.9597 102.777 25.5408 103.397 25.4452C103.956 25.3373 104.55 25.521 104.992 25.9011C105.433 26.2812 105.643 26.8672 105.612 27.4234C106.25 26.6744 107.151 26.1301 108.115 25.9528C109.083 25.7949 110.139 26.0406 110.888 26.679C111.637 27.3173 112.042 28.3727 111.865 29.3415C111.688 30.3104 110.862 31.1415 109.895 31.2994C110.752 31.2141 111.442 32.3333 111.389 33.1883C111.355 34.0409 110.717 34.7899 109.955 35.1791C109.194 35.5683 108.317 35.6559 107.454 35.7023C104.332 35.828 101.163 35.5648 98.1649 34.6097Z" fill="#308CEF"/>
<path id="Vector_26" d="M45.7342 21.8487L40.6525 16.9261C40.4078 16.6995 40.5764 16.304 40.9093 16.283C42.7946 16.2101 45.002 16.5121 46.7183 16.9926L42.6765 12.0216C42.4682 11.7709 42.6611 11.4118 42.9769 11.4126C45.3502 11.4576 47.5838 12.9403 49.8138 13.9104L45.7342 21.8487Z" fill="#FFCD3B"/>
<path id="Vector_27" d="M83.4073 19.151C83.6172 19.737 83.6763 20.3809 83.5045 21.0728C83.0259 22.9664 80.9422 24.6422 78.92 24.0807C79.9558 24.6445 80.5577 25.8534 80.4648 27.029C80.3913 28.2021 79.6549 29.2789 78.6428 29.8763C77.6307 30.4738 76.2746 30.6792 75.136 30.4042C75.81 30.9137 75.8973 31.9488 75.5358 32.7034C75.1744 33.458 74.4709 33.9979 73.7579 34.4601C71.6143 35.8077 69.1271 36.6055 66.5808 36.7593C65.2081 36.8287 63.7945 36.7255 62.5741 36.1053C61.1427 35.3729 60.087 34.0025 59.5832 32.4659C57.8358 27.0562 61.9958 22.8374 66.2244 20.3072C68.9834 18.6672 72.0399 17.5235 75.2115 16.9971C76.8933 16.7123 78.7207 16.4886 80.408 16.8938C81.6875 17.191 82.99 17.9984 83.4073 19.151Z" fill="#2485DD"/>
<path id="Vector_28" d="M98.7801 35.2838C97.8671 38.9473 96.3887 42.3446 93.9427 45.0907C91.3919 47.9484 88.1409 50.0827 84.6241 51.6576C84.4198 51.7616 84.196 51.8679 83.9699 51.9548C79.0914 54.0121 72.9693 55.0969 67.6847 54.481C60.875 53.6571 54.2095 49.6584 49.8749 44.23C49.5941 43.8698 49.335 43.5266 49.0541 43.1663C49.0323 43.1493 49.0299 43.1298 49.0081 43.1128C44.7477 37.1623 43.14 29.348 44.6888 22.1733C45.6007 18.0167 47.9991 13.9149 51.8857 12.1368C55.3612 10.5472 59.5572 11.2964 62.8659 13.1803C65.0297 14.4151 66.8911 16.0814 68.5943 17.9053C69.5028 18.8794 70.3601 19.9189 71.1956 20.9413C71.7962 21.6571 72.3798 22.3946 72.9828 23.1298C74.7943 25.3548 76.6811 27.5509 78.9163 29.3688C81.2169 31.238 84.0337 32.6493 87.0196 33.5072C90.5612 34.5535 94.3283 34.8619 97.8498 34.2927C98.4354 34.2408 98.9103 34.7352 98.7801 35.2838Z" fill="#509DFF"/>
<path id="Vector_29" d="M80.991 44.7041C81.8824 44.595 82.5165 43.784 82.4074 42.8926C82.2983 42.0013 81.4872 41.3672 80.5959 41.4763C79.7045 41.5854 79.0704 42.3964 79.1795 43.2878C79.2886 44.1791 80.0996 44.8133 80.991 44.7041Z" fill="#308CEF"/>
<path id="Vector_30" d="M78.3549 41.8694C78.7093 41.826 78.9615 41.5035 78.9181 41.1491C78.8747 40.7947 78.5522 40.5426 78.1978 40.586C77.8434 40.6294 77.5913 40.9518 77.6347 41.3062C77.6781 41.6606 78.0005 41.9128 78.3549 41.8694Z" fill="#308CEF"/>
<path id="Vector_31" d="M98.7802 35.2844C97.8671 38.9478 96.3887 42.3451 93.9427 45.0912C91.3919 47.9489 88.1409 50.0832 84.6241 51.6582C84.4198 51.7621 84.196 51.8684 83.9699 51.9553C79.0915 54.0126 72.9693 55.0974 67.6847 54.4815C60.8751 53.6576 54.2096 49.659 49.875 44.2306C51.3774 44.7373 52.941 45.0984 54.5045 45.4595C58.3624 46.3487 60.9058 50.2008 64.766 51.1095C69.1726 52.1289 72.1344 50.0497 76.6136 49.2448C79.4135 48.7443 85.0401 47.6412 86.9767 45.569C88.9133 43.4969 89.9727 40.5456 89.4745 37.7652C89.1774 36.1441 88.2994 34.6138 87.0438 33.5442C90.5855 34.5905 94.3525 34.8989 97.874 34.3298C98.4354 34.2413 98.9103 34.7357 98.7802 35.2844Z" fill="#308CEF"/>
<path id="Vector_32" d="M84.6241 51.6582C84.4198 51.7622 84.196 51.8685 83.9698 51.9553C79.0914 54.0127 72.9692 55.0975 67.6847 54.4816C66.8444 54.3871 65.9775 54.2367 65.1423 54.0232C64.7758 53.93 64.3897 53.8391 64.0184 53.707C63.9601 53.7141 63.9188 53.6994 63.8752 53.6653C63.4673 53.5574 63.0547 53.4106 62.6639 53.2808C62.3557 53.1804 62.045 53.0606 61.7538 52.9384C61.5475 52.865 61.3218 52.794 61.1107 52.6817C60.7588 52.5472 60.424 52.3908 60.0867 52.2151C59.8368 52.1075 59.6063 51.9976 59.354 51.8707C59.1865 51.7925 59.0167 51.6949 58.8299 51.6191C58.5339 51.458 58.2574 51.2946 57.9614 51.1335C57.8983 51.1017 57.8329 51.0505 57.7892 51.0164C57.4302 50.8236 57.0882 50.6089 56.7439 50.3748C56.3606 50.1455 55.9944 49.8944 55.6453 49.6214C55.6453 49.6214 55.6259 49.6238 55.6235 49.6043C55.2986 49.3679 54.9736 49.1314 54.6682 48.8925L54.4063 48.6878C54.1445 48.4831 53.8826 48.2783 53.6184 48.0542C53.3324 47.8129 53.0439 47.5523 52.775 47.2892C52.4211 46.9774 52.0843 46.6437 51.7669 46.3076C51.5439 46.0982 51.3186 45.8692 51.1321 45.6355C50.6814 45.1777 50.2867 44.6932 49.892 44.2088C49.6111 43.8485 49.352 43.5054 49.0711 43.1451C48.7181 41.5506 48.54 39.9346 48.8817 38.3735C49.371 36.0839 51.3393 33.9487 53.6638 34.0785C55.5317 34.1853 56.9928 35.6442 58.25 37.0491C60.4955 39.5959 62.5949 42.2395 65.2058 44.3864C67.8338 46.5114 71.0655 48.089 74.4426 47.9518C76.0705 47.871 77.6336 47.4231 79.2833 47.3593C80.3232 47.3109 81.4451 47.4498 82.389 47.9065C82.8912 48.141 83.3471 48.4799 83.7152 48.9084C84.3012 49.6654 84.5829 50.6767 84.6241 51.6582Z" fill="#D3DC5E"/>
<path id="Vector_33" d="M84.6241 51.6579C84.4198 51.7619 84.196 51.8682 83.9698 51.955C79.0914 54.0124 72.9692 55.0972 67.6847 54.4813C66.8444 54.3868 65.9775 54.2364 65.1424 54.0229C64.7758 53.9297 64.3897 53.8388 64.0184 53.7067C63.9601 53.7138 63.9188 53.6991 63.8752 53.665C63.4673 53.5571 63.0547 53.4103 62.6639 53.2805C62.3557 53.1801 62.045 53.0603 61.7538 52.9381C61.5475 52.8647 61.3218 52.7937 61.1107 52.6814C60.7588 52.5469 60.424 52.3905 60.0867 52.2148C59.8368 52.1072 59.6063 51.9973 59.354 51.8704C59.1866 51.7922 59.0167 51.6946 58.8299 51.6188C58.5339 51.4577 58.2574 51.2942 57.9614 51.1332C57.8984 51.1014 57.8329 51.0502 57.7893 51.0161C57.4302 50.8233 57.0882 50.6086 56.7439 50.3745C56.3606 50.1452 55.9944 49.8941 55.6453 49.6211C55.6453 49.6211 55.6259 49.6235 55.6235 49.604C55.2986 49.3676 54.9736 49.1311 54.6682 48.8922L54.4063 48.6875C54.1445 48.4828 53.8826 48.278 53.6184 48.0539C53.3324 47.8126 53.044 47.552 52.775 47.2889C52.4211 46.9771 52.0843 46.6434 51.7669 46.3073C51.5439 46.0978 51.3186 45.8689 51.1321 45.6352C50.6814 45.1774 50.2867 44.6929 49.892 44.2085C51.3944 44.7152 52.958 45.0763 54.5215 45.4374C58.3794 46.3266 60.9228 50.1787 64.783 51.0874C69.1896 52.1068 72.1514 50.0276 76.6112 49.2252C78.0597 48.9689 80.2787 48.5592 82.3695 47.9086C82.8718 48.1431 83.3277 48.4819 83.6958 48.9104C84.3012 49.6651 84.5829 50.6764 84.6241 51.6579Z" fill="#C6C945"/>
<path id="Vector_34" d="M74.7578 54.8782C72.3083 55.1781 69.8667 55.2204 67.6446 54.9597C60.4148 54.0885 53.1673 49.6876 48.6939 43.4474L48.6721 43.4304C48.6502 43.4133 48.6479 43.3939 48.626 43.3768C44.3125 37.3144 42.6687 29.3664 44.2421 22.0704C45.3063 17.2242 48.088 13.3517 51.7143 11.7042C55.0609 10.1896 59.3306 10.5746 63.1317 12.7731C66.3969 14.6228 68.926 17.3914 71.1734 20.1155C71.3357 20.3127 71.313 20.6115 71.0988 20.7955C70.9016 20.9578 70.5834 20.9376 70.4188 20.7209C68.2392 18.0674 65.7779 15.3695 62.6413 13.6027C59.0973 11.57 55.1628 11.1834 52.0983 12.5846C48.7518 14.0992 46.1772 17.7293 45.1768 22.2914C43.6502 29.3252 45.2389 36.984 49.3878 42.8297L49.4096 42.8468C49.4314 42.8639 49.4338 42.8833 49.4556 42.9004C53.7839 48.9215 60.7985 53.1931 67.7684 54.0369C72.7324 54.6131 78.7352 53.681 83.8033 51.561C84.01 51.4765 84.2337 51.3702 84.4186 51.2687C88.1981 49.5826 91.2864 47.409 93.5935 44.818C95.8325 42.3142 97.3882 39.0654 98.3826 34.9381C98.4489 34.6735 98.7068 34.5235 98.952 34.5922C99.2166 34.6584 99.3665 34.9163 99.2979 35.1615C98.2642 39.4514 96.6255 42.8288 94.2842 45.4635C91.8723 48.166 88.6963 50.4293 84.8026 52.149C84.5983 52.253 84.3551 52.3617 84.1313 52.468C81.218 53.6533 77.9655 54.4856 74.7578 54.8782Z" fill="black"/>
<path id="Vector_35" d="M87.1995 25.79C87.2927 26.3903 87.2351 27.0485 86.9395 27.6964C86.1309 29.4726 83.7786 30.7274 81.8715 29.8164C82.7903 30.5524 83.1489 31.87 82.8521 32.9915C82.5577 34.1326 81.6443 35.0534 80.5501 35.4636C79.4559 35.8737 78.0688 35.8265 77.0036 35.3452C77.5729 35.9661 77.4634 37.0056 76.9734 37.6772C76.4834 38.3489 75.6855 38.7623 74.9146 39.0737C72.5631 40.0127 69.9581 40.3316 67.4542 40.0264C66.0918 39.8577 64.7227 39.4728 63.6341 38.6392C62.3514 37.6715 61.5683 36.1099 61.3537 34.5182C60.6248 28.8852 65.4774 25.4893 70.1023 23.7787C73.1029 22.6616 76.3305 22.1086 79.5346 22.1703C81.2544 22.1965 83.064 22.3105 84.6509 23.0239C85.8788 23.5444 86.9936 24.5919 87.1995 25.79Z" fill="#308CEF"/>
<path id="Vector_36" d="M57.2659 21.9167C57.2464 21.9191 57.227 21.9215 57.1881 21.9262C57.0084 21.9088 56.8898 21.7457 56.9096 21.5854C56.9969 20.6868 57.1013 19.7663 56.897 18.9034C56.7312 18.1936 56.25 17.3252 55.4248 17.0315C54.8059 16.8113 54.0306 16.926 53.3153 17.3687C52.6341 17.7678 52.0981 18.3859 51.5573 18.9651C51.4355 19.0984 51.2387 19.1028 51.1054 18.981C50.9721 18.8592 50.9677 18.6624 51.0895 18.5291C51.645 17.9086 52.237 17.2639 52.9912 16.8164C53.8743 16.2939 54.844 16.1555 55.6279 16.4344C56.5162 16.7598 57.2355 17.6386 57.512 18.769C57.7305 19.7485 57.6381 20.7662 57.5507 21.6648C57.5238 21.7667 57.4214 21.8977 57.2659 21.9167Z" fill="black"/>
<g id="Group">
<path id="Vector_37" d="M66.8095 31.8572C66.6734 31.8739 66.5108 31.8346 66.3969 31.7104C66.2152 31.5156 66.2184 31.2193 66.4132 31.0376C68.7243 28.8012 71.7305 27.4072 74.9695 27.1093C75.2222 27.0784 75.4646 27.2855 75.4955 27.5382C75.5265 27.791 75.3388 28.031 75.0861 28.0619C75.0861 28.0619 75.0861 28.0619 75.0667 28.0643C72.0804 28.3312 69.242 29.6455 67.0892 31.7243C67.021 31.8116 66.9261 31.843 66.8095 31.8572Z" fill="#2485DD"/>
</g>
<g id="Group_2">
<path id="Vector_38" d="M69.7097 34.9163C69.5347 34.9377 69.3673 34.8595 69.2511 34.7159C69.1059 34.4969 69.1479 34.1957 69.3669 34.0505C71.0583 32.8767 73.1368 32.2868 75.1844 32.411C75.4419 32.419 75.6478 32.6503 75.6399 32.9078C75.6319 33.1653 75.4006 33.3712 75.1431 33.3632C73.2947 33.254 71.4447 33.7765 69.9382 34.8488C69.8628 34.8778 69.7874 34.9067 69.7097 34.9163Z" fill="#2485DD"/>
</g>
<g id="Group_3">
<path id="Vector_39" d="M54.7388 28.8358C53.9611 28.931 53.3017 29.3472 52.8629 29.9534C52.4241 30.5596 52.2035 31.3364 52.3058 32.1723C52.1035 30.5199 50.6951 29.3308 49.1399 29.5212C49.9175 29.426 50.5575 29.0122 51.0158 28.4036C51.4546 27.7974 51.6752 27.0206 51.5729 26.1847C51.6752 27.0206 52.0767 27.7213 52.6488 28.2037C53.2185 28.6668 53.9611 28.931 54.7388 28.8358Z" fill="white"/>
</g>
<g id="Group_4">
<path id="Vector_40" d="M16.4731 46.6811C16.673 48.3141 15.6342 49.8225 14.0881 50.2486C13.9159 50.1315 13.739 49.9756 13.5815 49.8173C12.8158 49.0428 12.437 48.0434 12.5295 47.0258C12.5445 46.8266 12.5767 46.6056 12.6525 46.4187C12.9318 45.4769 13.6119 44.5846 14.4756 44.0645C15.5361 44.507 16.3255 45.4758 16.4731 46.6811Z" fill="#0F2B70"/>
</g>
<g id="Group_5">
<path id="Vector_41" d="M35.4333 68.749L35.2103 69.5064C35.1464 69.7905 34.7695 70.9021 34.6231 71.1568C33.359 73.4031 29.5752 72.9586 27.6059 71.7001L27.5821 71.5057C27.2965 69.1728 28.9514 67.0563 31.2843 66.7707C32.995 66.5613 34.5939 67.3719 35.4333 68.749Z" fill="#E25278"/>
</g>
<g id="Group_6">
<path id="Vector_42" d="M41.3217 52.046C40.9487 52.5457 40.3792 52.8917 39.7181 52.9726C39.018 53.0583 38.3577 52.8233 37.8704 52.3896L38.5912 49.8935C38.7408 49.3423 39.7194 49.5975 40.0737 49.7515C40.8043 50.0765 40.8543 50.4849 41.0372 51.173C41.0947 51.4817 41.1912 51.7857 41.3217 52.046Z" fill="#E25278"/>
</g>
<g id="Group_7">
<path id="Vector_43" d="M32.0016 24.595L32.2443 27.5447L32.3149 28.4438C31.8745 28.7147 31.4027 28.8909 30.8584 28.9575C28.9727 29.1883 27.2489 27.8405 27.0181 25.9548C26.9776 25.6243 26.976 25.2891 27.0352 24.9661L28.2 24.4881L30.3183 23.5776C30.7146 23.4305 31.0911 23.4436 31.4137 23.6606C31.7533 23.8558 31.9734 24.2038 32.0016 24.595Z" fill="#0F2B70"/>
</g>
<g id="Group_8">
<path id="Vector_44" d="M68.4128 109.917C68.7532 110.764 67.3725 112.057 65.3645 112.579C63.3761 113.099 61.6304 112.701 61.4237 111.819C61.2147 110.917 62.6434 109.854 64.5176 109.368C66.3919 108.882 68.0701 109.052 68.4128 109.917ZM71.3531 108.63C71.5344 108.983 71.2245 109.514 70.6457 109.782C70.0668 110.05 69.4622 109.947 69.3174 109.57C69.1726 109.193 69.5091 108.718 70.0514 108.474C70.5743 108.232 71.1524 108.28 71.3531 108.63Z" fill="white"/>
</g>
<g id="Group_9">
<path id="Vector_45" d="M88.6686 37.4694C88.6614 38.3779 87.3259 39.0741 85.8862 38.7571C84.4488 38.4595 83.5915 37.42 83.8196 36.5436C84.0454 35.6477 85.317 35.2356 86.5528 35.4987C87.7911 35.7812 88.6952 36.5584 88.6686 37.4694ZM90.865 37.3584C90.932 37.7448 90.6249 38.1376 90.1754 38.1729C89.7064 38.2105 89.3502 37.8792 89.3415 37.4857C89.3522 37.0897 89.6664 36.7553 90.0382 36.7295C90.4294 36.7013 90.7955 36.9525 90.865 37.3584Z" fill="white"/>
</g>
</g>
<defs>
<clipPath id="clip0_241_11393">
<rect width="110.725" height="129.265" fill="white" transform="translate(0.193848 13.4531) rotate(-6.97879)"/>
</clipPath>
</defs>
</svg>
