<svg width="16" height="16" viewBox="0 0 16 16" fill="none" xmlns="http://www.w3.org/2000/svg">
<g id="music">
<path id="Vector" d="M3.84609 14.8591H3.29437C2.69133 14.8591 2.15837 14.6196 1.79423 14.186C1.43009 13.7518 1.28168 13.1575 1.38816 12.5562C1.59671 11.3722 2.69023 10.4453 3.87864 10.4453H5.26788V3.20168C5.2691 2.78203 5.42915 2.3784 5.71584 2.07195C6.00254 1.7655 6.39463 1.57896 6.81326 1.54982L12.8822 1.14541C13.1082 1.13113 13.3347 1.16305 13.548 1.23922C13.7612 1.31539 13.9567 1.43422 14.1225 1.58844C14.4557 1.90016 14.6472 2.34099 14.6472 2.79727L14.6417 10.725C14.6411 10.8464 14.6351 10.9666 14.6124 11.0935C14.4039 12.277 13.3104 13.2039 12.122 13.2039H11.5702C10.9672 13.2039 10.4342 12.9644 10.0701 12.5308C9.70595 12.0966 9.55754 11.5024 9.66402 10.901C9.87257 9.71699 10.9661 8.7901 12.1545 8.7901H13.5437V6.10761C13.5437 5.95313 13.482 5.80968 13.3688 5.7043C13.314 5.65238 13.2489 5.61246 13.1778 5.58709C13.1066 5.56173 13.0309 5.55148 12.9556 5.55699L6.88664 5.96141C6.7471 5.97116 6.6164 6.03335 6.52082 6.13548C6.42523 6.23762 6.37183 6.37214 6.37133 6.51203V12.3763C6.37133 12.4254 6.36471 12.4729 6.35313 12.5181C6.34816 12.6864 6.34209 12.7173 6.33712 12.7487C6.12747 13.9316 5.03395 14.8591 3.84609 14.8591ZM3.87809 11.5487C3.23147 11.5487 2.58871 12.0977 2.47395 12.7482C2.4243 13.0318 2.48333 13.29 2.63947 13.477C2.79009 13.6563 3.02292 13.7556 3.29437 13.7556H3.84609C4.49271 13.7556 5.13547 13.2066 5.25023 12.5562C5.24857 12.5551 5.2563 12.3945 5.26126 11.5487H3.87809ZM12.154 9.89354C11.5073 9.89354 10.8646 10.4425 10.7498 11.093C10.7002 11.3766 10.7592 11.6348 10.9153 11.8218C11.066 12.0011 11.2988 12.1004 11.5702 12.1004H12.122C12.7686 12.1004 13.4113 11.5515 13.5261 10.901C13.5371 10.8386 13.5377 10.778 13.5377 10.7189L13.5415 9.89354H12.154ZM6.88554 2.65106C6.74599 2.66081 6.6153 2.723 6.51971 2.82514C6.42413 2.92727 6.37072 3.06179 6.37023 3.20168V4.95175C6.50981 4.9021 6.65768 4.87065 6.81216 4.86016L12.8811 4.45575C13.1062 4.44306 13.3319 4.47285 13.5426 4.54734V2.79672C13.5426 2.64223 13.4808 2.49878 13.3677 2.39341C13.3128 2.34159 13.2477 2.30175 13.1766 2.27639C13.1054 2.25103 13.0298 2.24072 12.9545 2.2461L6.88554 2.65106Z" fill="#D3FB8F"/>
</g>
</svg>
