<svg width="92" height="107" viewBox="0 0 92 107" fill="none" xmlns="http://www.w3.org/2000/svg">
<g filter="url(#filter0_d_463_64740)">
<circle cx="46" cy="51" r="30" fill="url(#paint0_linear_463_64740)"/>
</g>
<path d="M56.3641 53.0798V53.1175C56.3636 55.4263 55.7021 57.685 54.4605 59.6176C53.2188 61.5502 51.4508 63.073 49.3724 64C47.294 64.927 44.9952 65.218 42.7568 64.8375C40.5185 64.457 38.4376 63.4214 36.7683 61.8574C35.099 60.2933 33.9136 58.2684 33.3569 56.0301C32.8002 53.7919 32.8964 51.4371 33.6337 49.2535C34.3709 47.0699 35.7174 45.152 37.5084 43.7343C39.2995 42.3165 41.4577 41.4601 43.7194 41.2699C43.906 41.2484 44.0945 41.288 44.2576 41.3828C44.4207 41.4776 44.5499 41.6228 44.6265 41.7973C44.707 41.9696 44.7342 42.1627 44.7044 42.351C44.6747 42.5394 44.5894 42.7141 44.4599 42.8521C43.8115 43.5332 43.3038 44.3395 42.9666 45.2235C42.6295 46.1075 42.4698 47.0512 42.4969 47.999C42.524 48.9468 42.7375 49.8794 43.1246 50.742C43.5117 51.6045 44.0647 52.3794 44.751 53.0209C45.4372 53.6625 46.2428 54.1578 47.1202 54.4775C47.9976 54.7972 48.9291 54.9349 49.8596 54.8824C50.7902 54.83 51.701 54.5884 52.5383 54.1721C53.3757 53.7557 54.1225 53.173 54.7349 52.4582C54.8545 52.3091 55.018 52.203 55.2013 52.1555C55.3846 52.1081 55.5781 52.1217 55.7532 52.1945C55.9327 52.2594 56.0879 52.3794 56.1974 52.5381C56.3069 52.6967 56.3651 52.886 56.3641 53.0798ZM47.6868 39.8836H49.7659L46.9204 44.1724C46.8263 44.3141 46.7718 44.479 46.7629 44.6497C46.754 44.8204 46.7909 44.9904 46.8696 45.1414C46.9484 45.2923 47.0661 45.4187 47.21 45.5068C47.354 45.5949 47.5188 45.6415 47.6868 45.6416H51.508C51.7535 45.6416 51.989 45.5424 52.1626 45.3658C52.3362 45.1892 52.4337 44.9496 52.4337 44.6998C52.4337 44.4501 52.3362 44.2105 52.1626 44.0339C51.989 43.8573 51.7535 43.7581 51.508 43.7581H49.4289L52.2763 39.4692C52.3705 39.3274 52.4249 39.1623 52.4338 38.9914C52.4427 38.8205 52.4056 38.6505 52.3266 38.4994C52.2476 38.3484 52.1297 38.2221 51.9855 38.1341C51.8412 38.0461 51.6762 37.9997 51.508 38H47.6868C47.4413 38 47.2059 38.0992 47.0323 38.2758C46.8587 38.4525 46.7611 38.692 46.7611 38.9418C46.7611 39.1916 46.8587 39.4311 47.0323 39.6077C47.2059 39.7843 47.4413 39.8836 47.6868 39.8836ZM58.0729 47.3914H57.0917L58.8412 44.7545C58.9354 44.6127 58.9899 44.4475 58.9987 44.2767C59.0076 44.1058 58.9705 43.9357 58.8915 43.7847C58.8125 43.6337 58.6946 43.5074 58.5504 43.4194C58.4062 43.3314 58.2411 43.285 58.0729 43.2853H55.0423C54.7967 43.2853 54.5613 43.3845 54.3877 43.5611C54.2141 43.7377 54.1166 43.9773 54.1166 44.2271C54.1166 44.4768 54.2141 44.7164 54.3877 44.893C54.5613 45.0696 54.7967 45.1688 55.0423 45.1688H56.3327L54.5813 47.8058C54.4871 47.9476 54.4327 48.1127 54.4238 48.2836C54.4149 48.4545 54.452 48.6245 54.531 48.7756C54.61 48.9266 54.7279 49.0529 54.8721 49.1409C55.0164 49.2289 55.1814 49.2753 55.3496 49.275H58.0729C58.3184 49.275 58.5539 49.1758 58.7275 48.9992C58.9011 48.8225 58.9986 48.583 58.9986 48.3332C58.9986 48.0834 58.9011 47.8439 58.7275 47.6673C58.5539 47.4907 58.3184 47.3914 58.0729 47.3914Z" fill="#101334"/>
<defs>
<filter id="filter0_d_463_64740" x="0.4" y="18.4" width="91.2" height="91.2" filterUnits="userSpaceOnUse" color-interpolation-filters="sRGB">
<feFlood flood-opacity="0" result="BackgroundImageFix"/>
<feColorMatrix in="SourceAlpha" type="matrix" values="0 0 0 0 0 0 0 0 0 0 0 0 0 0 0 0 0 0 127 0" result="hardAlpha"/>
<feOffset dy="13"/>
<feGaussianBlur stdDeviation="7.8"/>
<feComposite in2="hardAlpha" operator="out"/>
<feColorMatrix type="matrix" values="0 0 0 0 0.827451 0 0 0 0 0.984314 0 0 0 0 0.560784 0 0 0 0.2 0"/>
<feBlend mode="normal" in2="BackgroundImageFix" result="effect1_dropShadow_463_64740"/>
<feBlend mode="normal" in="SourceGraphic" in2="effect1_dropShadow_463_64740" result="shape"/>
</filter>
<linearGradient id="paint0_linear_463_64740" x1="14.5" y1="29.5" x2="89" y2="83.5" gradientUnits="userSpaceOnUse">
<stop stop-color="#F0FFD6"/>
<stop offset="0.230878" stop-color="#E1FFAD"/>
<stop offset="0.646761" stop-color="#BFFF52"/>
<stop offset="1" stop-color="#7D9555"/>
</linearGradient>
</defs>
</svg>
