<svg width="17" height="16" viewBox="0 0 17 16" fill="none" xmlns="http://www.w3.org/2000/svg">
<g id="notifications_off">
<path id="Vector" d="M8.0367 14.5C8.77004 14.5 9.37004 13.9 9.37004 13.1667H6.70337C6.70337 13.9 7.30337 14.5 8.0367 14.5ZM8.0367 4.16667C9.6967 4.16667 10.7034 5.51333 10.7034 7.16667V7.23333L12.0367 8.56667V7.16667C12.0367 5.12 10.95 3.40667 9.0367 2.95333V2.5C9.0367 1.94667 8.59004 1.5 8.0367 1.5C7.48337 1.5 7.0367 1.94667 7.0367 2.5V2.95333C6.8767 2.99333 6.72337 3.05333 6.5767 3.10667L7.67004 4.2C7.79004 4.18667 7.91004 4.16667 8.0367 4.16667ZM3.64337 2.06667L2.70337 3.00667L4.5767 4.88C4.23004 5.54667 4.0367 6.32667 4.0367 7.16667V10.5L2.70337 11.8333V12.5H12.1967L13.3567 13.66L14.2967 12.72L3.64337 2.06667ZM10.7034 11.1667H5.37004V7.16667C5.37004 6.71333 5.45004 6.28667 5.5967 5.9L10.7034 11.0067V11.1667Z" fill="#D3FB8F"/>
</g>
</svg>
