<svg width="16" height="16" viewBox="0 0 16 16" fill="none" xmlns="http://www.w3.org/2000/svg">
<g id="notifications_active">
<path id="Vector" d="M8 14.5C8.73333 14.5 9.33333 13.9 9.33333 13.1667H6.66667C6.66667 13.9 7.26667 14.5 8 14.5ZM12 10.5V7.16667C12 5.12 10.9133 3.40667 9 2.95333V2.5C9 1.94667 8.55333 1.5 8 1.5C7.44667 1.5 7 1.94667 7 2.5V2.95333C5.09333 3.40667 4 5.11333 4 7.16667V10.5L2.66667 11.8333V12.5H13.3333V11.8333L12 10.5ZM10.6667 11.1667H5.33333V7.16667C5.33333 5.51333 6.34 4.16667 8 4.16667C9.66 4.16667 10.6667 5.51333 10.6667 7.16667V11.1667ZM5.05333 2.55333L4.1 1.6C2.5 2.82 1.44667 4.7 1.35333 6.83333H2.68667C2.78667 5.06667 3.69333 3.52 5.05333 2.55333ZM13.3133 6.83333H14.6467C14.5467 4.7 13.4933 2.82 11.9 1.6L10.9533 2.55333C12.3 3.52 13.2133 5.06667 13.3133 6.83333Z" fill="#D3FB8F"/>
</g>
</svg>
