<svg width="24" height="24" viewBox="0 0 24 24" fill="none" xmlns="http://www.w3.org/2000/svg">
<g id="playback">
<path id="Vector" d="M4 3V21C4.00099 21.1974 4.06039 21.3901 4.17072 21.5539C4.28105 21.7176 4.43738 21.845 4.62 21.92C4.73868 21.976 4.86882 22.0034 5 22C5.13161 22.0008 5.26207 21.9755 5.38391 21.9258C5.50574 21.876 5.61656 21.8027 5.71 21.71L14.71 12.71C14.8037 12.617 14.8781 12.5064 14.9289 12.3846C14.9797 12.2627 15.0058 12.132 15.0058 12C15.0058 11.868 14.9797 11.7373 14.9289 11.6154C14.8781 11.4936 14.8037 11.383 14.71 11.29L5.71 2.29C5.56938 2.15124 5.3908 2.05725 5.19681 2.01987C5.00282 1.9825 4.80211 2.00342 4.62 2.08C4.43738 2.15502 4.28105 2.28242 4.17072 2.44614C4.06039 2.60986 4.00099 2.80257 4 3ZM19 2C19.2652 2 19.5196 2.10536 19.7071 2.29289C19.8946 2.48043 20 2.73478 20 3V21C20 21.2652 19.8946 21.5196 19.7071 21.7071C19.5196 21.8946 19.2652 22 19 22C18.7348 22 18.4804 21.8946 18.2929 21.7071C18.1054 21.5196 18 21.2652 18 21V3C18 2.73478 18.1054 2.48043 18.2929 2.29289C18.4804 2.10536 18.7348 2 19 2Z" fill="white"/>
</g>
</svg>
