<svg width="24" height="24" viewBox="0 0 24 24" fill="none" xmlns="http://www.w3.org/2000/svg">
<g id="playlist">
<path id="Vector" d="M13.5 19.5C12.7583 19.5 12.0333 19.2801 11.4166 18.868C10.7999 18.456 10.3193 17.8703 10.0355 17.1851C9.75162 16.4998 9.67736 15.7458 9.82206 15.0184C9.96675 14.291 10.3239 13.6228 10.8484 13.0984C11.3728 12.5739 12.041 12.2168 12.7684 12.0721C13.4958 11.9274 14.2498 12.0016 14.9351 12.2855C15.6203 12.5693 16.206 13.0499 16.618 13.6666C17.0301 14.2833 17.25 15.0083 17.25 15.75C17.2488 16.7442 16.8533 17.6973 16.1503 18.4003C15.4473 19.1033 14.4942 19.4988 13.5 19.5ZM13.5 13.5C13.055 13.5 12.62 13.632 12.25 13.8792C11.88 14.1264 11.5916 14.4778 11.4213 14.889C11.251 15.3001 11.2064 15.7525 11.2932 16.189C11.3801 16.6254 11.5943 17.0263 11.909 17.341C12.2237 17.6557 12.6246 17.87 13.061 17.9568C13.4975 18.0436 13.9499 17.999 14.361 17.8287C14.7722 17.6584 15.1236 17.37 15.3708 17C15.618 16.63 15.75 16.195 15.75 15.75C15.75 15.1533 15.5129 14.581 15.091 14.159C14.669 13.7371 14.0967 13.5 13.5 13.5Z" fill="white"/>
<path id="Vector_2" d="M16.5 16.5C16.3011 16.5 16.1103 16.421 15.9697 16.2803C15.829 16.1397 15.75 15.9489 15.75 15.75V5.25C15.75 5.05109 15.829 4.86032 15.9697 4.71967C16.1103 4.57902 16.3011 4.5 16.5 4.5H18C20.3482 4.5 21.75 5.625 21.75 7.5C21.75 7.69891 21.671 7.88968 21.5303 8.03033C21.3897 8.17098 21.1989 8.25 21 8.25C20.8011 8.25 20.6103 8.17098 20.4697 8.03033C20.329 7.88968 20.25 7.69891 20.25 7.5C20.25 7.12875 20.25 6 18 6H17.25V15.75C17.25 15.9489 17.171 16.1397 17.0303 16.2803C16.8897 16.421 16.6989 16.5 16.5 16.5ZM12 7.5H3C2.80109 7.5 2.61032 7.42098 2.46967 7.28033C2.32902 7.13968 2.25 6.94891 2.25 6.75C2.25 6.55109 2.32902 6.36032 2.46967 6.21967C2.61032 6.07902 2.80109 6 3 6H12C12.1989 6 12.3897 6.07902 12.5303 6.21967C12.671 6.36032 12.75 6.55109 12.75 6.75C12.75 6.94891 12.671 7.13968 12.5303 7.28033C12.3897 7.42098 12.1989 7.5 12 7.5ZM12 11.25H3C2.80109 11.25 2.61032 11.171 2.46967 11.0303C2.32902 10.8897 2.25 10.6989 2.25 10.5C2.25 10.3011 2.32902 10.1103 2.46967 9.96967C2.61032 9.82902 2.80109 9.75 3 9.75H12C12.1989 9.75 12.3897 9.82902 12.5303 9.96967C12.671 10.1103 12.75 10.3011 12.75 10.5C12.75 10.6989 12.671 10.8897 12.5303 11.0303C12.3897 11.171 12.1989 11.25 12 11.25ZM7.5 15H3C2.80109 15 2.61032 14.921 2.46967 14.7803C2.32902 14.6397 2.25 14.4489 2.25 14.25C2.25 14.0511 2.32902 13.8603 2.46967 13.7197C2.61032 13.579 2.80109 13.5 3 13.5H7.5C7.69891 13.5 7.88968 13.579 8.03033 13.7197C8.17098 13.8603 8.25 14.0511 8.25 14.25C8.25 14.4489 8.17098 14.6397 8.03033 14.7803C7.88968 14.921 7.69891 15 7.5 15ZM7.5 18.75H3C2.80109 18.75 2.61032 18.671 2.46967 18.5303C2.32902 18.3897 2.25 18.1989 2.25 18C2.25 17.8011 2.32902 17.6103 2.46967 17.4697C2.61032 17.329 2.80109 17.25 3 17.25H7.5C7.69891 17.25 7.88968 17.329 8.03033 17.4697C8.17098 17.6103 8.25 17.8011 8.25 18C8.25 18.1989 8.17098 18.3897 8.03033 18.5303C7.88968 18.671 7.69891 18.75 7.5 18.75Z" fill="white"/>
</g>
</svg>
