<svg width="24" height="24" viewBox="0 0 24 24" fill="none" xmlns="http://www.w3.org/2000/svg">
<g id="playback">
<path id="Vector" d="M20 3V21C19.999 21.1974 19.9396 21.3901 19.8293 21.5539C19.7189 21.7176 19.5626 21.845 19.38 21.92C19.2613 21.976 19.1312 22.0034 19 22C18.8684 22.0008 18.7379 21.9755 18.6161 21.9258C18.4943 21.876 18.3834 21.8027 18.29 21.71L9.29 12.71C9.19627 12.617 9.12188 12.5064 9.07111 12.3846C9.02034 12.2627 8.9942 12.132 8.9942 12C8.9942 11.868 9.02034 11.7373 9.07111 11.6154C9.12188 11.4936 9.19627 11.383 9.29 11.29L18.29 2.29C18.4306 2.15124 18.6092 2.05725 18.8032 2.01987C18.9972 1.9825 19.1979 2.00342 19.38 2.08C19.5626 2.15502 19.7189 2.28242 19.8293 2.44614C19.9396 2.60986 19.999 2.80257 20 3ZM5 2C4.73478 2 4.48043 2.10536 4.29289 2.29289C4.10536 2.48043 4 2.73478 4 3V21C4 21.2652 4.10536 21.5196 4.29289 21.7071C4.48043 21.8946 4.73478 22 5 22C5.26522 22 5.51957 21.8946 5.70711 21.7071C5.89464 21.5196 6 21.2652 6 21V3C6 2.73478 5.89464 2.48043 5.70711 2.29289C5.51957 2.10536 5.26522 2 5 2Z" fill="white"/>
</g>
</svg>
