<svg width="16" height="16" viewBox="0 0 16 16" fill="none" xmlns="http://www.w3.org/2000/svg">
<g id="privacy-policy">
<g id="Group">
<path id="Vector" d="M11.876 12.6521C11.8104 12.6521 11.7453 12.6392 11.6847 12.6141C11.624 12.5889 11.5689 12.5521 11.5225 12.5056L10.714 11.6971C10.6663 11.6509 10.6282 11.5958 10.602 11.5348C10.5758 11.4738 10.562 11.4081 10.5614 11.3418C10.5608 11.2754 10.5735 11.2095 10.5986 11.1481C10.6238 11.0866 10.6609 11.0308 10.7078 10.9839C10.7548 10.9369 10.8106 10.8998 10.8721 10.8746C10.9335 10.8495 10.9994 10.8369 11.0657 10.8374C11.1321 10.838 11.1977 10.8518 11.2587 10.878C11.3197 10.9042 11.3749 10.9423 11.421 10.9901L11.876 11.4451L13.0225 10.2986C13.1168 10.2075 13.2431 10.1571 13.3742 10.1582C13.5053 10.1594 13.6308 10.2119 13.7235 10.3047C13.8162 10.3974 13.8687 10.5228 13.8699 10.6539C13.871 10.785 13.8206 10.9113 13.7295 11.0056L12.2295 12.5056C12.1832 12.5521 12.1281 12.5889 12.0674 12.6141C12.0067 12.6392 11.9417 12.6521 11.876 12.6521Z" fill="#D3FB8F"/>
<path id="Vector_2" d="M12 16C11.955 16 11.9103 15.9939 11.867 15.982C11.8285 15.9715 8.03198 14.863 8.03198 9.714C8.03193 9.64802 8.04494 9.58269 8.07025 9.52176C8.09557 9.46083 8.13269 9.40551 8.17948 9.359C8.2254 9.31131 8.28081 9.27377 8.34213 9.24879C8.40344 9.22382 8.46931 9.21197 8.53548 9.214H8.53698C8.58389 9.21165 8.62984 9.19981 8.67204 9.17918C8.71424 9.15856 8.75181 9.12958 8.78248 9.094C8.84887 9.01718 8.89914 8.9278 8.93032 8.83117C8.9615 8.73454 8.97294 8.63264 8.96398 8.5315C8.95968 8.46336 8.96938 8.39507 8.99248 8.33082C9.01558 8.26658 9.05159 8.20775 9.0983 8.15795C9.145 8.10815 9.20141 8.06845 9.26404 8.04128C9.32668 8.01412 9.39421 8.00007 9.46248 8H14.5375C14.6058 8 14.6734 8.014 14.7361 8.04113C14.7988 8.06827 14.8552 8.10796 14.902 8.15777C14.9488 8.20757 14.9848 8.26643 15.0079 8.33071C15.0311 8.39499 15.0408 8.46332 15.0365 8.5315C15.0275 8.6326 15.0388 8.73449 15.0699 8.83111C15.101 8.92774 15.1512 9.01714 15.2175 9.094C15.2482 9.12958 15.2857 9.15856 15.3279 9.17918C15.3701 9.19981 15.4161 9.21165 15.463 9.214H15.468C15.6006 9.214 15.7278 9.26668 15.8215 9.36045C15.9153 9.45422 15.968 9.58139 15.968 9.714C15.968 14.863 12.1715 15.9715 12.133 15.982C12.0897 15.9939 12.0449 16 12 16ZM9.03998 10.111C9.19598 13.6635 11.43 14.751 12.001 14.972C12.587 14.75 14.806 13.677 14.9595 10.111C14.7821 10.0345 14.6224 9.92214 14.4905 9.781C14.2866 9.56192 14.145 9.29226 14.0805 9H9.91998C9.85546 9.29226 9.71389 9.56192 9.50998 9.781C9.37804 9.92212 9.21837 10.0345 9.04098 10.111H9.03998Z" fill="#D3FB8F"/>
<path id="Vector_3" d="M10.355 15H3C2.6023 14.9996 2.221 14.8414 1.93978 14.5602C1.65856 14.279 1.5004 13.8977 1.5 13.5V1.5C1.5004 1.1023 1.65856 0.720997 1.93978 0.439778C2.221 0.15856 2.6023 0.000397108 3 0L11 0C11.3977 0.000397108 11.779 0.15856 12.0602 0.439778C12.3414 0.720997 12.4996 1.1023 12.5 1.5V8.5C12.5 8.63261 12.4473 8.75979 12.3536 8.85355C12.2598 8.94732 12.1326 9 12 9C11.8674 9 11.7402 8.94732 11.6464 8.85355C11.5527 8.75979 11.5 8.63261 11.5 8.5V1.5C11.4999 1.36743 11.4471 1.24033 11.3534 1.14659C11.2597 1.05285 11.1326 1.00013 11 1H3C2.86743 1.00013 2.74033 1.05285 2.64659 1.14659C2.55285 1.24033 2.50013 1.36743 2.5 1.5V13.5C2.50013 13.6326 2.55285 13.7597 2.64659 13.8534C2.74033 13.9471 2.86743 13.9999 3 14H10.355C10.4876 14 10.6148 14.0527 10.7086 14.1464C10.8023 14.2402 10.855 14.3674 10.855 14.5C10.855 14.6326 10.8023 14.7598 10.7086 14.8536C10.6148 14.9473 10.4876 15 10.355 15Z" fill="#D3FB8F"/>
<path id="Vector_4" d="M8.5 3H5.5C5.36739 3 5.24021 2.94732 5.14645 2.85355C5.05268 2.75979 5 2.63261 5 2.5C5 2.36739 5.05268 2.24021 5.14645 2.14645C5.24021 2.05268 5.36739 2 5.5 2H8.5C8.63261 2 8.75979 2.05268 8.85355 2.14645C8.94732 2.24021 9 2.36739 9 2.5C9 2.63261 8.94732 2.75979 8.85355 2.85355C8.75979 2.94732 8.63261 3 8.5 3ZM10 5H4C3.86739 5 3.74021 4.94732 3.64645 4.85355C3.55268 4.75979 3.5 4.63261 3.5 4.5C3.5 4.36739 3.55268 4.24021 3.64645 4.14645C3.74021 4.05268 3.86739 4 4 4H10C10.1326 4 10.2598 4.05268 10.3536 4.14645C10.4473 4.24021 10.5 4.36739 10.5 4.5C10.5 4.63261 10.4473 4.75979 10.3536 4.85355C10.2598 4.94732 10.1326 5 10 5ZM10 7H4C3.86739 7 3.74021 6.94732 3.64645 6.85355C3.55268 6.75979 3.5 6.63261 3.5 6.5C3.5 6.36739 3.55268 6.24021 3.64645 6.14645C3.74021 6.05268 3.86739 6 4 6H10C10.1326 6 10.2598 6.05268 10.3536 6.14645C10.4473 6.24021 10.5 6.36739 10.5 6.5C10.5 6.63261 10.4473 6.75979 10.3536 6.85355C10.2598 6.94732 10.1326 7 10 7ZM7.5 9H4C3.86739 9 3.74021 8.94732 3.64645 8.85355C3.55268 8.75979 3.5 8.63261 3.5 8.5C3.5 8.36739 3.55268 8.24021 3.64645 8.14645C3.74021 8.05268 3.86739 8 4 8H7.5C7.63261 8 7.75979 8.05268 7.85355 8.14645C7.94732 8.24021 8 8.36739 8 8.5C8 8.63261 7.94732 8.75979 7.85355 8.85355C7.75979 8.94732 7.63261 9 7.5 9ZM6.5 11H4C3.86739 11 3.74021 10.9473 3.64645 10.8536C3.55268 10.7598 3.5 10.6326 3.5 10.5C3.5 10.3674 3.55268 10.2402 3.64645 10.1464C3.74021 10.0527 3.86739 10 4 10H6.5C6.63261 10 6.75979 10.0527 6.85355 10.1464C6.94732 10.2402 7 10.3674 7 10.5C7 10.6326 6.94732 10.7598 6.85355 10.8536C6.75979 10.9473 6.63261 11 6.5 11ZM7 13H4C3.86739 13 3.74021 12.9473 3.64645 12.8536C3.55268 12.7598 3.5 12.6326 3.5 12.5C3.5 12.3674 3.55268 12.2402 3.64645 12.1464C3.74021 12.0527 3.86739 12 4 12H7C7.13261 12 7.25979 12.0527 7.35355 12.1464C7.44732 12.2402 7.5 12.3674 7.5 12.5C7.5 12.6326 7.44732 12.7598 7.35355 12.8536C7.25979 12.9473 7.13261 13 7 13Z" fill="#D3FB8F"/>
</g>
</g>
</svg>
