<svg width="100" height="100" viewBox="0 0 100 100" fill="none" xmlns="http://www.w3.org/2000/svg">
<g id="profile">
<mask id="mask0_65_174" style="mask-type:alpha" maskUnits="userSpaceOnUse" x="0" y="0" width="100" height="100">
<rect id="Rectangle 796" width="100" height="100" rx="50" fill="#FFDFE1"/>
</mask>
<g mask="url(#mask0_65_174)">
<g id="Group 7260">
<path id="Vector" d="M19.3583 16.7199C15.0115 19.2289 15.6947 24.0051 18.456 28.7886C20.1087 31.651 22.2401 34.3621 24.53 35.1432L24.534 35.14C25.7808 34.147 29.2164 31.41 32.6157 29.8875C32.8259 27.8418 31.8459 24.7167 30.2619 21.9732C27.4998 17.1897 23.7044 14.2109 19.3583 16.7199Z" fill="white"/>
<path id="Vector_2" fill-rule="evenodd" clip-rule="evenodd" d="M17.0509 21.9111C17.0258 23.808 17.8085 26.0477 19.1572 28.3837C19.9658 29.7849 20.8794 31.1263 21.8538 32.2034C22.702 33.1397 23.5582 33.8342 24.3935 34.2183C25.7964 33.1081 28.7808 30.8142 31.8356 29.3572C31.8428 28.5454 31.6739 27.5379 31.3375 26.4253C30.9405 25.1098 30.3252 23.6988 29.5619 22.3768C28.2132 20.0408 26.664 18.2434 25.0096 17.316C23.4127 16.4217 21.6807 16.3117 19.7628 17.4195C17.8449 18.5272 17.0751 20.0813 17.0509 21.9111ZM15.4337 21.89C15.4644 19.5088 16.5253 17.4211 18.9542 16.019C21.3824 14.6169 23.7216 14.7415 25.7996 15.9058C27.8194 17.037 29.5489 19.1207 30.9623 21.5682C31.783 22.9897 32.4501 24.5139 32.8859 25.958C33.3185 27.3891 33.5408 28.7985 33.4196 29.9693C33.4051 30.1103 33.3537 30.2451 33.2707 30.3601C33.1877 30.475 33.0759 30.5661 32.9466 30.6242C29.654 32.0991 26.2944 34.7714 25.0379 35.7716L25.0339 35.7748C24.9277 35.8593 24.802 35.9157 24.6684 35.9389C24.5347 35.9621 24.3974 35.9513 24.269 35.9074C22.9397 35.4546 21.7236 34.4682 20.6547 33.2885C19.5784 32.0991 18.6001 30.6541 17.7559 29.1922C16.3434 26.7447 15.403 24.205 15.4337 21.89Z" fill="#311810"/>
<path id="Vector_3" d="M22.5541 23.5266C20.1389 25.0936 20.6717 27.8072 22.3948 30.4625C23.4265 32.0514 24.6507 33.2602 25.9848 33.6378C26.6673 33.033 28.5092 31.58 30.4134 30.6056C30.4732 29.4283 29.9428 27.7287 28.9547 26.2054C27.2308 23.55 24.9693 21.9588 22.5541 23.5266Z" fill="#FFDFE1"/>
<path id="Vector_4" d="M80.7419 16.7199C85.0887 19.2289 84.4063 24.0051 81.6442 28.7886C79.9915 31.651 77.759 34.3621 75.47 35.1432C73.0443 32.7175 68.6335 30.54 67.3843 29.8875C67.174 27.8418 68.2551 24.7167 69.8391 21.9732C72.6004 17.1897 76.3958 14.2109 80.7419 16.7199Z" fill="white"/>
<path id="Vector_5" fill-rule="evenodd" clip-rule="evenodd" d="M83.0504 21.9111C83.0755 23.808 82.2928 26.0477 80.9441 28.3837C80.1387 29.7785 79.2024 31.1191 78.203 32.1961C77.3483 33.1179 76.4832 33.8084 75.652 34.1973C73.3144 32.0465 69.6847 30.1625 68.167 29.3806C68.1622 28.5737 68.3481 27.5638 68.7088 26.4374C69.1308 25.1203 69.772 23.7061 70.5394 22.3768C71.8881 20.0408 73.4373 18.2434 75.0916 17.316C76.6886 16.4217 78.4197 16.3117 80.3384 17.4195C82.2564 18.5272 83.0269 20.0813 83.0504 21.9111ZM84.6675 21.89C84.6368 19.5088 83.5752 17.4211 81.147 16.019C78.7181 14.6169 76.3789 14.7415 74.3017 15.9058C72.281 17.037 70.5523 19.1207 69.1389 21.5682C68.3223 22.9832 67.6301 24.5033 67.1684 25.945C66.7116 27.373 66.4585 28.788 66.5798 29.9693C66.6081 30.2393 66.769 30.4779 67.01 30.6032L67.352 30.7811C68.9416 31.6018 72.7557 33.5723 74.8984 35.7142C75.0052 35.8211 75.1398 35.896 75.287 35.9303C75.4342 35.9646 75.5881 35.957 75.7312 35.9082C77.0556 35.4554 78.2952 34.4754 79.3892 33.2957C80.4913 32.1071 81.4971 30.6598 82.3445 29.1922C83.7579 26.7447 84.6974 24.205 84.6675 21.89Z" fill="#311810"/>
<path id="Vector_6" d="M70.6218 109.54C64.0764 109.651 61.6661 104.629 61.5771 99.3834C68.6796 99.3486 76.4039 97.011 79.3778 95.8467C79.4668 101.093 77.168 109.429 70.6218 109.54Z" fill="white"/>
<path id="Vector_7" fill-rule="evenodd" clip-rule="evenodd" d="M79.8283 95.1758C79.7198 95.1031 79.5953 95.0579 79.4655 95.0438C79.3357 95.0297 79.2044 95.0472 79.0828 95.0949C76.1598 96.239 68.5398 98.5418 61.5732 98.5758C61.4662 98.5763 61.3603 98.5981 61.2618 98.6398C61.1633 98.6815 61.074 98.7424 60.9992 98.8189C60.9243 98.8954 60.8654 98.986 60.8259 99.0854C60.7863 99.1848 60.7669 99.2911 60.7687 99.3981C60.8148 102.123 61.4632 104.879 63.0327 106.959C64.632 109.078 67.124 110.409 70.6357 110.349C74.3227 110.287 76.7541 107.886 78.2112 104.983C79.6634 102.087 80.2326 98.5572 80.1865 95.8339C80.1843 95.7035 80.1506 95.5755 80.0882 95.4608C80.0259 95.3462 79.9367 95.2484 79.8283 95.1758ZM78.55 97.0144C78.4384 99.327 77.8845 102.028 76.7654 104.258C75.4588 106.861 73.4673 108.684 70.6082 108.733C67.5744 108.784 65.5886 107.661 64.324 105.985C63.1693 104.455 62.5661 102.396 62.419 100.178C68.6409 99.9989 75.1418 98.2095 78.55 97.0144Z" fill="#311810"/>
<path id="Vector_8" d="M29.4647 108.741C35.5993 108.846 37.8633 103.829 37.9522 98.5914C29.9449 97.8798 23.4982 96.2223 21.273 95.0781C21.1841 100.316 23.3308 108.637 29.4647 108.741Z" fill="white"/>
<path id="Vector_9" fill-rule="evenodd" clip-rule="evenodd" d="M20.8575 94.385C21.0977 94.2419 21.3944 94.2322 21.6426 94.36C22.659 94.8823 24.7435 95.5647 27.6204 96.2084C30.4763 96.8471 34.055 97.4334 38.0243 97.7859C38.2278 97.8043 38.4169 97.899 38.5534 98.0511C38.6899 98.2032 38.7638 98.4014 38.7601 98.6058C38.7148 101.318 38.1068 104.062 36.6352 106.138C35.1328 108.257 32.7783 109.607 29.451 109.551C25.9418 109.491 23.6584 107.062 22.3032 104.18C20.9465 101.295 20.4185 97.777 20.4646 95.065C20.4694 94.7861 20.6182 94.529 20.8575 94.385ZM22.1011 96.3183C22.2111 98.6171 22.7294 101.286 23.7668 103.492C24.9958 106.106 26.8523 107.889 29.4785 107.933C32.285 107.981 34.1302 106.875 35.3164 105.203C36.4112 103.658 36.982 101.571 37.1155 99.3254C33.3815 98.9624 30.0081 98.3996 27.2679 97.7867C25.147 97.3121 23.3738 96.8019 22.1011 96.3183Z" fill="#311810"/>
<path id="Vector_10" d="M77.5108 23.5266C79.926 25.0936 79.3939 27.8072 77.6701 30.4625C76.6391 32.0514 75.415 33.2602 74.0808 33.6378C73.3984 33.033 71.5557 31.58 69.6523 30.6056C69.5924 29.4283 70.1221 27.7287 71.1109 26.2054C72.834 23.55 75.0956 21.9588 77.5108 23.5266Z" fill="#FFDFE1"/>
<path id="Vector_11" d="M92.0457 71.0095C92.0457 92.4439 76.1177 103.352 50 103.352C23.8832 103.352 7.95435 92.4439 7.95435 71.0095C7.95435 49.5742 23.8832 25.7295 50 25.7295C76.1177 25.7295 92.0457 49.5742 92.0457 71.0095Z" fill="white"/>
<path id="Vector_12" fill-rule="evenodd" clip-rule="evenodd" d="M50 26.538C24.4573 26.538 8.76289 49.8815 8.76289 71.0094C8.76289 81.5023 12.6481 89.3341 19.6665 94.5704C26.7213 99.8334 37.037 102.544 50 102.544C62.963 102.544 73.2788 99.8334 80.3335 94.5704C87.3519 89.3341 91.2371 81.5023 91.2371 71.0086C91.2371 49.8815 75.5436 26.5372 50 26.5372V26.538ZM7.14575 71.0094C7.14575 49.267 23.3091 24.9209 50 24.9209C76.6909 24.9209 92.8543 49.267 92.8543 71.0094C92.8543 81.951 88.775 90.2906 81.3006 95.8665C73.8617 101.417 63.1538 104.161 50 104.161C36.8462 104.161 26.1391 101.417 18.7002 95.8665C11.2242 90.2906 7.14575 81.951 7.14575 71.0094Z" fill="#311810"/>
<path id="Vector_13" d="M36.2544 54.5486C36.2544 59.0143 32.6345 62.6343 28.1687 62.6343C23.703 62.6343 20.083 59.0143 20.083 54.5486C20.083 50.0829 23.703 46.4629 28.1687 46.4629C32.6345 46.4629 36.2544 50.0829 36.2544 54.5486ZM79.9172 54.5486C79.9172 59.0143 76.2973 62.6343 71.8315 62.6343C67.3658 62.6343 63.7458 59.0143 63.7458 54.5486C63.7458 50.0829 67.3658 46.4629 71.8315 46.4629C76.2973 46.4629 79.9172 50.0829 79.9172 54.5486Z" fill="#FFDFE1"/>
<path id="Vector_14" d="M53.2714 74.1143C53.2714 76.9758 51.7061 79.2948 49.7752 79.2948C47.8443 79.2948 46.2789 76.9758 46.2789 74.1143C46.2789 71.2536 47.8443 68.9346 49.7752 68.9346C51.7061 68.9346 53.2714 71.2536 53.2714 74.1143Z" fill="white"/>
<path id="Vector_15" fill-rule="evenodd" clip-rule="evenodd" d="M47.9737 70.9031C47.4425 71.6907 47.0875 72.8235 47.0875 74.114C47.0875 75.4053 47.4425 76.5381 47.9737 77.3248C48.5074 78.1164 49.1599 78.4859 49.7752 78.4859C50.3913 78.4859 51.043 78.1164 51.5775 77.3248C52.1087 76.5381 52.4629 75.4053 52.4629 74.114C52.4629 72.8235 52.1087 71.6907 51.5775 70.9039C51.0438 70.1115 50.3913 69.7428 49.7752 69.7428C49.1599 69.7428 48.5074 70.1115 47.9737 70.9031ZM46.6331 69.9992C47.364 68.9157 48.4605 68.1257 49.7752 68.1257C51.0907 68.1257 52.1872 68.9157 52.9181 69.9992C53.6523 71.0867 54.08 72.5445 54.08 74.114C54.08 75.6842 53.6523 77.1413 52.9181 78.2296C52.1872 79.3131 51.0907 80.1031 49.7752 80.1031C48.4605 80.1031 47.364 79.3131 46.6331 78.2296C45.8989 77.1413 45.4704 75.6842 45.4704 74.114C45.4704 72.5445 45.8989 71.0875 46.6331 69.9992ZM71.3721 79.7408C71.273 79.5506 71.1026 79.4075 70.8981 79.3428C70.6936 79.278 70.4718 79.297 70.2814 79.3956C68.1661 80.4952 65.1954 82.5336 62.9953 84.8162C61.8957 85.9555 60.9488 87.1975 60.4136 88.4524C59.8751 89.7162 59.7222 91.0786 60.3772 92.3392C61.569 94.6331 63.7489 95.4861 66.0533 95.4958C68.3311 95.5055 70.8263 94.7067 72.9488 93.6038C73.1392 93.5049 73.2824 93.3345 73.3471 93.13C73.4118 92.9255 73.3926 92.7037 73.2937 92.5134C73.2447 92.4192 73.1777 92.3355 73.0964 92.2672C73.0151 92.1988 72.9212 92.1472 72.8199 92.1152C72.6155 92.0505 72.3937 92.0697 72.2033 92.1686C70.2239 93.1971 67.9915 93.8868 66.0606 93.8787C64.1564 93.8706 62.646 93.1971 61.8124 91.5937C61.4542 90.9048 61.4785 90.0784 61.9013 89.0871C62.3274 88.0869 63.1271 87.0083 64.1589 85.9385C66.2191 83.8015 69.0418 81.8625 71.0269 80.8308C71.2172 80.732 71.3604 80.5617 71.4252 80.3573C71.4899 80.1529 71.4708 79.9311 71.3721 79.7408ZM29.9458 78.8651C30.0597 78.6836 30.2411 78.5546 30.45 78.5067C30.6589 78.4588 30.8784 78.4958 31.06 78.6096C33.1073 79.8936 35.9381 82.1989 37.9693 84.6917C38.9832 85.9361 39.8346 87.2727 40.2672 88.5882C40.7038 89.9143 40.7386 91.305 39.9729 92.5259C38.5749 94.7544 36.3044 95.4505 33.9717 95.2799C31.6664 95.1118 29.21 94.1035 27.1562 92.8162C27.0662 92.7598 26.9883 92.6862 26.9267 92.5996C26.8652 92.513 26.8213 92.4152 26.7976 92.3116C26.7738 92.2081 26.7707 92.1009 26.7884 91.9962C26.8061 91.8914 26.8443 91.7912 26.9007 91.7012C26.9572 91.6112 27.0308 91.5332 27.1173 91.4717C27.2039 91.4101 27.3018 91.3662 27.4053 91.3425C27.5089 91.3188 27.6161 91.3157 27.7208 91.3334C27.8255 91.3511 27.9258 91.3893 28.0157 91.4457C29.9304 92.6472 32.1322 93.5245 34.0889 93.6676C36.0182 93.8083 37.6143 93.2431 38.6024 91.6672C39.0293 90.9864 39.0746 90.1366 38.7317 89.0944C38.3849 88.0416 37.6677 86.8821 36.7152 85.7129C34.8126 83.3778 32.1225 81.1849 30.2013 79.9794C30.0197 79.8654 29.8908 79.6841 29.8429 79.4751C29.795 79.2662 29.832 79.0468 29.9458 78.8651ZM59.2347 43.9834C59.0599 44.1076 58.9417 44.2961 58.9059 44.5075C58.8701 44.7188 58.9197 44.9358 59.0438 45.1105L59.7028 44.6424L59.0446 45.1114L59.0463 45.1146L59.0519 45.1227L59.0681 45.1445L59.1263 45.2229C59.4404 45.6261 59.7798 46.0088 60.1427 46.3687C60.8284 47.0463 61.8334 47.8831 63.0802 48.4483C64.3359 49.0184 65.8569 49.32 67.5249 48.8777C69.1866 48.437 70.891 47.2848 72.5688 45.1405C72.6373 45.0572 72.6884 44.9611 72.7192 44.8578C72.7499 44.7545 72.7598 44.6461 72.748 44.5389C72.7363 44.4318 72.7032 44.328 72.6508 44.2338C72.5984 44.1396 72.5277 44.0569 72.4429 43.9904C72.358 43.9239 72.2607 43.8751 72.1567 43.8468C72.0527 43.8185 71.9441 43.8112 71.8373 43.8255C71.7304 43.8397 71.6275 43.8752 71.5346 43.9298C71.4416 43.9844 71.3606 44.0571 71.2961 44.1435C69.7687 46.0938 68.3416 46.988 67.1101 47.3147C65.8835 47.6398 64.7483 47.4295 63.7481 46.9759C62.7374 46.5183 61.8884 45.8197 61.282 45.2189C60.972 44.9119 60.6816 44.5857 60.4128 44.2421C60.3986 44.2237 60.3845 44.2051 60.3707 44.1863L60.3626 44.175L60.3618 44.1742V44.1734M59.2347 43.9834C59.4093 43.8595 59.626 43.8099 59.8371 43.8455C60.0483 43.8811 60.2375 43.999 60.3618 44.1734L59.2347 43.9834ZM38.4762 44.4888C38.6508 44.6131 38.7689 44.8016 38.8045 45.013C38.8402 45.2244 38.7904 45.4412 38.6662 45.6159L38.6654 45.6175L38.6638 45.6199L38.659 45.628L38.6428 45.6499C38.5545 45.768 38.4634 45.8839 38.3695 45.9975C38.1827 46.2239 37.9118 46.5312 37.5674 46.8732C36.8825 47.5524 35.8767 48.3885 34.6307 48.9537C33.3749 49.5237 31.8532 49.8253 30.1859 49.383C28.5235 48.9424 26.8191 47.7901 25.1413 45.6458C25.0758 45.5622 25.0275 45.4665 24.999 45.3642C24.9705 45.2619 24.9625 45.155 24.9753 45.0496C24.9881 44.9441 25.0216 44.8423 25.0738 44.7498C25.126 44.6573 25.1959 44.576 25.2795 44.5106C25.3632 44.4451 25.4589 44.3968 25.5612 44.3683C25.6635 44.3398 25.7704 44.3318 25.8758 44.3446C25.9812 44.3574 26.0831 44.3909 26.1755 44.4431C26.268 44.4953 26.3493 44.5652 26.4148 44.6488C27.9414 46.5991 29.3685 47.4934 30.5999 47.8201C31.8273 48.1451 32.9618 47.9349 33.9628 47.4813C34.9727 47.0236 35.8225 46.325 36.4289 45.7242C36.7387 45.4173 37.0287 45.0911 37.2973 44.7475L37.3394 44.6917L37.3475 44.6804L37.3483 44.6796V44.6788M38.4762 44.4888C38.3015 44.3646 38.0847 44.3148 37.8733 44.3504C37.662 44.3861 37.4726 44.5042 37.3483 44.6788L38.4762 44.4888Z" fill="#311810"/>
<path id="Vector_16" d="M59.7028 54.0302C59.7028 56.709 52.8486 58.8816 50 58.8816C47.1514 58.8816 40.2971 56.709 40.2971 54.0302C40.2971 51.3506 45.5342 50.7959 50 50.7959C54.4657 50.7959 59.7028 51.3506 59.7028 54.0302Z" fill="#311810"/>
<path id="Vector_17" d="M47.5744 54.0293C47.5744 54.4581 47.404 54.8695 47.1007 55.1727C46.7974 55.476 46.3861 55.6464 45.9572 55.6464C45.5283 55.6464 45.117 55.476 44.8137 55.1727C44.5105 54.8695 44.3401 54.4581 44.3401 54.0293C44.3401 53.6004 44.5105 53.189 44.8137 52.8858C45.117 52.5825 45.5283 52.4121 45.9572 52.4121C46.3861 52.4121 46.7974 52.5825 47.1007 52.8858C47.404 53.189 47.5744 53.6004 47.5744 54.0293Z" fill="white"/>
<path id="Vector_18" fill-rule="evenodd" clip-rule="evenodd" d="M49.5958 57.7822C49.8102 57.7822 50.0159 57.8674 50.1675 58.0191C50.3192 58.1707 50.4044 58.3764 50.4044 58.5908V62.6337C50.4044 62.8481 50.3192 63.0538 50.1675 63.2054C50.0159 63.357 49.8102 63.4422 49.5958 63.4422C49.3814 63.4422 49.1757 63.357 49.0241 63.2054C48.8724 63.0538 48.7872 62.8481 48.7872 62.6337V58.5908C48.7872 58.3764 48.8724 58.1707 49.0241 58.0191C49.1757 57.8674 49.3814 57.7822 49.5958 57.7822Z" fill="#311810"/>
</g>
</g>
</g>
</svg>
