<svg width="23" height="23" viewBox="0 0 23 23" fill="none" xmlns="http://www.w3.org/2000/svg">
<g id="profile" clip-path="url(#clip0_241_11381)">
<path id="Vector" d="M7.26349 8.81659L5.82744 5.44009C5.72521 5.19514 5.84204 4.91176 6.09031 4.8109C6.22661 4.75326 6.38239 4.76287 6.51383 4.83491L9.73156 6.57359L12.4722 4.14809C12.6718 3.97038 12.9785 3.98959 13.1586 4.18651C13.256 4.29698 13.2998 4.44587 13.2754 4.58996L12.628 8.20181L15.7825 10.0654C16.0112 10.1998 16.0891 10.4976 15.948 10.7234C15.8701 10.8482 15.7435 10.9347 15.5975 10.9539L13.6844 11.2133L20.8938 18.3217C21.439 18.8596 21.439 19.729 20.8938 20.2669C20.3486 20.8048 19.4675 20.8048 18.9223 20.2717C18.9223 20.2717 18.9223 20.2717 18.9174 20.2669L11.596 13.0384L11.1579 15.0268C11.1141 15.2286 10.9437 15.3775 10.7392 15.4015C10.7198 15.4015 10.7003 15.4063 10.6808 15.4063C10.4958 15.4063 10.3206 15.3006 10.2427 15.1325L8.64113 11.8329L4.99015 12.1643C4.72241 12.1883 4.48388 11.9962 4.45954 11.732C4.44493 11.5879 4.49848 11.4438 4.60558 11.343L7.26349 8.81659ZM19.6135 19.5897C19.7791 19.753 20.0419 19.753 20.2074 19.5897C20.373 19.4264 20.373 19.167 20.2074 19.0037L17.6664 16.4966L17.0725 17.0825L19.6135 19.5897ZM16.3812 16.4005L16.9751 15.8145L12.4771 11.3766L11.9514 11.4486L11.8443 11.9241L16.3812 16.4005ZM8.8894 10.8482C9.09385 10.829 9.2837 10.9395 9.37133 11.1172L10.5056 13.4563L11.0654 10.9155C11.1092 10.7186 11.2747 10.5697 11.4743 10.5409L14.0933 10.1854L11.8394 8.85501C11.6641 8.75415 11.5765 8.55723 11.6106 8.3603L12.0682 5.79071L10.1161 7.51498C9.96035 7.64946 9.73643 7.67828 9.55631 7.57742L7.25863 6.33344L8.28577 8.74454C8.36366 8.92705 8.31985 9.13839 8.17381 9.27767L6.2753 11.0836L8.8894 10.8482ZM6.94221 14.0374C7.08825 13.8165 7.39006 13.7541 7.61399 13.8981C7.83792 14.0422 7.9012 14.34 7.75516 14.561C7.75029 14.5658 7.74542 14.5706 7.74542 14.5802L6.38726 16.535C6.23635 16.7559 5.93454 16.8087 5.71061 16.6599C5.48668 16.511 5.43314 16.2132 5.58404 15.9922L6.94221 14.0374ZM9.25936 4.21533C8.99162 4.21533 8.77257 3.9992 8.77257 3.73503V1.42C8.77257 1.15583 8.99162 0.939697 9.25936 0.939697C9.5271 0.939697 9.74616 1.15583 9.74616 1.42V3.73503C9.74616 3.9992 9.5271 4.21533 9.25936 4.21533ZM1.2272 6.81855L4.35731 7.59183C4.62018 7.64946 4.78082 7.90882 4.72241 8.16818C4.66399 8.42754 4.40112 8.58604 4.13825 8.52841C4.13338 8.52841 4.12852 8.5236 4.12365 8.5236L0.993542 7.75032C0.735538 7.68308 0.579763 7.41892 0.647915 7.16436C0.716066 6.91461 0.97407 6.76091 1.2272 6.81855ZM18.1726 7.09232L15.8506 7.47655C15.8214 7.48136 15.7971 7.48136 15.7678 7.48136C15.5001 7.48136 15.281 7.26522 15.281 7.00106C15.281 6.76571 15.4514 6.56879 15.6851 6.52556L18.0071 6.14133C18.2749 6.0981 18.5231 6.27581 18.5621 6.53997C18.6059 6.79933 18.4306 7.04429 18.1726 7.09232Z" fill="#878999"/>
</g>
<defs>
<clipPath id="clip0_241_11381">
<rect width="22.55" height="22.55" fill="white" transform="translate(0.224976)"/>
</clipPath>
</defs>
</svg>
