<svg width="28" height="28" viewBox="0 0 28 28" fill="none" xmlns="http://www.w3.org/2000/svg">
<g id="profile">
<path id="Vector" d="M13.9997 2.3335C7.58301 2.3335 2.33301 7.5835 2.33301 14.0002C2.33301 20.4168 7.58301 25.6668 13.9997 25.6668C20.4163 25.6668 25.6663 20.4168 25.6663 14.0002C25.6663 7.5835 20.4163 2.3335 13.9997 2.3335ZM13.9997 8.16683C15.983 8.16683 17.4997 9.6835 17.4997 11.6668C17.4997 13.6502 15.983 15.1668 13.9997 15.1668C12.0163 15.1668 10.4997 13.6502 10.4997 11.6668C10.4997 9.6835 12.0163 8.16683 13.9997 8.16683ZM13.9997 23.3335C11.433 23.3335 8.98301 22.2835 7.23301 20.4168C9.79967 16.6835 14.8163 15.7502 18.5497 18.3168C19.3663 18.9002 20.0663 19.6002 20.6497 20.4168C19.0163 22.2835 16.5663 23.3335 13.9997 23.3335Z" fill="white"/>
</g>
</svg>
