<svg width="16" height="16" viewBox="0 0 16 16" fill="none" xmlns="http://www.w3.org/2000/svg">
<g id="rating" clip-path="url(#clip0_44_4449)">
<path id="Vector" d="M12.85 6.375C12.85 6.425 12.825 6.475 12.775 6.5C12.6 6.6375 12.4375 6.7875 12.2625 6.925C12.2125 6.9625 12.2 7 12.225 7.05C12.275 7.2625 12.325 7.475 12.375 7.675C12.4 7.75 12.375 7.825 12.3125 7.875C12.25 7.925 12.175 7.9125 12.1 7.875C11.9125 7.75 11.725 7.6375 11.525 7.5125C11.4875 7.4875 11.45 7.4875 11.4125 7.5125C11.2375 7.625 11.05 7.7375 10.8625 7.85C10.8125 7.8875 10.75 7.9 10.7 7.8875C10.6125 7.8625 10.55 7.775 10.575 7.675C10.6375 7.45 10.6875 7.2125 10.75 6.9875C10.7625 6.95 10.75 6.9375 10.725 6.9125L10.2375 6.5C10.175 6.45 10.125 6.4 10.125 6.3125C10.125 6.225 10.2 6.1625 10.2875 6.15C10.525 6.1375 10.7625 6.1125 11 6.1C11.0375 6.1 11.05 6.075 11.0625 6.05C11.1375 5.85 11.225 5.6625 11.3 5.4625C11.3125 5.45 11.3125 5.425 11.325 5.4125C11.3625 5.35 11.4125 5.3125 11.4875 5.3125C11.5625 5.3125 11.6125 5.35 11.65 5.425C11.7375 5.6375 11.825 5.85 11.9 6.0625C11.9125 6.1 11.9375 6.125 11.9875 6.125C12.2 6.1375 12.4 6.15 12.6125 6.175C12.6375 6.175 12.675 6.175 12.7 6.1875C12.8125 6.2125 12.85 6.2875 12.85 6.375ZM9.35005 6.375C9.35005 6.425 9.32505 6.475 9.27505 6.5C9.10005 6.6375 8.93755 6.7875 8.76255 6.925C8.71255 6.9625 8.70005 7 8.72505 7.05C8.77505 7.2625 8.82505 7.475 8.87505 7.675C8.90005 7.75 8.87505 7.825 8.81255 7.875C8.75005 7.925 8.67505 7.9125 8.60005 7.875C8.41255 7.75 8.22505 7.6375 8.02505 7.5125C7.98755 7.4875 7.95005 7.4875 7.91255 7.5125C7.73755 7.625 7.55005 7.7375 7.36255 7.85C7.31255 7.8875 7.25005 7.9 7.20005 7.8875C7.11255 7.8625 7.05005 7.775 7.07505 7.675C7.13755 7.45 7.18755 7.2125 7.25005 6.9875C7.26255 6.95 7.25005 6.9375 7.22505 6.9125L6.73755 6.5C6.67505 6.45 6.62505 6.4 6.62505 6.3125C6.62505 6.225 6.70005 6.1625 6.78755 6.15C7.02505 6.1375 7.26255 6.1125 7.50005 6.1C7.53755 6.1 7.55005 6.075 7.56255 6.05C7.63755 5.85 7.72505 5.6625 7.80005 5.4625C7.81255 5.45 7.81255 5.425 7.82505 5.4125C7.86255 5.35 7.91255 5.3125 7.98755 5.3125C8.06255 5.3125 8.11255 5.35 8.15005 5.425C8.23755 5.6375 8.32505 5.85 8.40005 6.0625C8.41255 6.1 8.43755 6.125 8.48755 6.125C8.70005 6.1375 8.90005 6.15 9.11255 6.175C9.13755 6.175 9.17505 6.175 9.20005 6.1875C9.30005 6.2125 9.35005 6.2875 9.35005 6.375ZM5.83755 6.375C5.83755 6.425 5.81255 6.475 5.76255 6.5C5.58755 6.6375 5.42505 6.7875 5.25005 6.925C5.20005 6.9625 5.18755 7 5.21255 7.05C5.26255 7.2625 5.31255 7.475 5.36255 7.675C5.38755 7.75 5.36255 7.825 5.30005 7.875C5.23755 7.925 5.16255 7.9125 5.08755 7.875C4.90005 7.75 4.71255 7.6375 4.51255 7.5125C4.47505 7.4875 4.43755 7.4875 4.40005 7.5125C4.22505 7.625 4.03755 7.7375 3.85005 7.85C3.80005 7.8875 3.73755 7.9 3.68755 7.8875C3.60005 7.8625 3.53755 7.775 3.56255 7.675C3.62505 7.45 3.67505 7.2125 3.73755 6.9875C3.75005 6.95 3.73755 6.9375 3.71255 6.9125L3.22505 6.5C3.16255 6.45 3.11255 6.4 3.11255 6.3125C3.11255 6.225 3.18755 6.1625 3.27505 6.15C3.51255 6.1375 3.75005 6.1125 3.98755 6.1C4.02505 6.1 4.03755 6.075 4.05005 6.05C4.12505 5.85 4.21255 5.6625 4.28755 5.4625C4.30005 5.45 4.30005 5.425 4.31255 5.4125C4.35005 5.35 4.40005 5.3125 4.47505 5.3125C4.55005 5.3125 4.60005 5.35 4.63755 5.425C4.72505 5.6375 4.81255 5.85 4.88755 6.0625C4.90005 6.1 4.92505 6.125 4.97505 6.125C5.18755 6.1375 5.38755 6.15 5.60005 6.175C5.62505 6.175 5.66255 6.175 5.68755 6.1875C5.78755 6.2125 5.83755 6.2875 5.83755 6.375Z" fill="#D3FB8F"/>
<path id="Vector_2" d="M12.4501 0.425162C9.20005 0.475162 6.81255 0.437662 3.56255 0.437662C2.81255 0.437662 2.11255 0.687662 1.55005 1.11266C0.787552 1.68766 0.287552 2.57516 0.262552 3.58766C0.225052 4.80016 0.200052 7.76266 0.675052 8.93766C0.900052 9.47516 1.18755 9.97516 1.53755 10.4252C2.30005 11.4002 3.37505 12.1752 4.57505 12.5127C5.93755 12.9127 6.63755 12.7252 8.05005 12.7252H12.3876C12.5001 12.7252 12.6251 12.7752 12.7126 12.8502L12.7876 12.9252C13.4876 13.6127 14.7376 14.8627 15.3751 15.5002C15.5251 15.6502 15.7626 15.5377 15.7626 15.3377V3.65016C15.7501 1.68766 14.1001 0.400162 12.4501 0.425162ZM14.5251 12.9502C14.1876 12.6252 13.8751 12.3002 13.6376 12.0627L13.5751 11.9877C13.2626 11.6877 12.8251 11.5002 12.3876 11.5002H8.03755C7.65005 11.5002 7.31255 11.5127 7.02505 11.5252C6.22505 11.5502 5.73755 11.5752 4.92505 11.3377C4.01255 11.0752 3.13755 10.4627 2.51255 9.66266C2.22505 9.30016 1.98755 8.90016 1.81255 8.47516C1.42505 7.52516 1.46255 4.73766 1.48755 3.63766C1.51255 3.02516 1.80005 2.46266 2.30005 2.08766C2.66255 1.81266 3.10005 1.66266 3.57505 1.66266H6.47505C8.42505 1.66266 10.2626 1.67516 12.4876 1.63766H12.5126C13.0376 1.63766 13.5751 1.86266 13.9501 2.23766C14.2126 2.50016 14.5376 2.96266 14.5376 3.66266V12.9502H14.5251Z" fill="#D3FB8F"/>
</g>
<defs>
<clipPath id="clip0_44_4449">
<rect width="16" height="16" fill="white"/>
</clipPath>
</defs>
</svg>
