<svg width="27" height="26" viewBox="0 0 27 26" fill="none" xmlns="http://www.w3.org/2000/svg">
<g id="sea">
<g id="Group">
<path id="Vector" d="M23.7557 13.828C23.1248 13.828 22.8283 13.5031 22.3094 12.8817C22.0202 12.4355 21.6283 12.0651 21.1664 11.8017C20.7045 11.5382 20.1862 11.3894 19.6549 11.3676C19.1229 11.3886 18.6036 11.5371 18.1409 11.8006C17.6781 12.0641 17.2854 12.4349 16.9958 12.8817C16.4769 13.5039 16.1764 13.828 15.5487 13.828C14.9209 13.828 14.6228 13.5039 14.1047 12.8817C13.8154 12.4352 13.4232 12.0647 12.9611 11.8012C12.4989 11.5378 11.9802 11.389 11.4487 11.3676C10.9172 11.389 10.3986 11.5377 9.93659 11.8011C9.47453 12.0646 9.08249 12.4352 8.79343 12.8817C8.2761 13.5039 7.97643 13.828 7.35264 13.828C6.72885 13.828 6.42681 13.5039 5.90869 12.8817C5.61947 12.435 5.22718 12.0643 4.76484 11.8008C4.30249 11.5373 3.78361 11.3887 3.25187 11.3676C3.04271 11.3676 2.84213 11.4507 2.69424 11.5985C2.54634 11.7464 2.46326 11.947 2.46326 12.1562C2.46326 12.3653 2.54634 12.5659 2.69424 12.7138C2.84213 12.8617 3.04271 12.9448 3.25187 12.9448C3.87802 12.9448 4.17769 13.2689 4.69502 13.8911C4.98441 14.3378 5.37685 14.7085 5.83933 14.972C6.3018 15.2355 6.82079 15.3841 7.35264 15.4052C7.88403 15.384 8.40253 15.2353 8.86448 14.9718C9.32643 14.7083 9.7183 14.3377 10.0071 13.8911C10.5252 13.2689 10.8249 12.9448 11.4503 12.9448C12.0756 12.9448 12.3753 13.2689 12.8942 13.8911C13.1832 14.3375 13.5751 14.708 14.037 14.9715C14.4989 15.235 15.0173 15.3837 15.5487 15.4052C16.0805 15.384 16.5994 15.2353 17.0619 14.9719C17.5243 14.7084 17.9168 14.3377 18.2063 13.8911C18.7252 13.2689 19.0248 12.9448 19.6526 12.9448C20.2803 12.9448 20.58 13.2697 21.0989 13.8911C21.3882 14.3377 21.7805 14.7084 22.2428 14.9718C22.7052 15.2353 23.224 15.384 23.7557 15.4052C23.9649 15.4052 24.1655 15.3222 24.3134 15.1743C24.4612 15.0264 24.5443 14.8258 24.5443 14.6166C24.5443 14.4075 24.4612 14.2069 24.3134 14.059C24.1655 13.9111 23.9649 13.828 23.7557 13.828ZM3.25187 6.73054C3.87802 6.73054 4.17769 7.05466 4.69502 7.67687C4.98441 8.1236 5.37685 8.49429 5.83933 8.75778C6.3018 9.02127 6.82079 9.16984 7.35264 9.191C7.88376 9.16948 8.40194 9.02072 8.8636 8.75723C9.32525 8.49374 9.71688 8.12323 10.0055 7.67687C10.5236 7.05466 10.8225 6.73054 11.4487 6.73054C12.0748 6.73054 12.3737 7.05466 12.8926 7.67687C13.1818 8.12347 13.5739 8.49411 14.0361 8.7576C14.4983 9.02109 15.0171 9.16972 15.5487 9.191C16.0805 9.16971 16.5994 9.02108 17.0619 8.75761C17.5243 8.49413 17.9168 8.1235 18.2063 7.67687C18.7252 7.05466 19.0241 6.73054 19.6549 6.73054C20.2858 6.73054 20.5824 7.05545 21.1013 7.67687C21.3903 8.12317 21.7823 8.4936 22.2442 8.75707C22.7061 9.02053 23.2244 9.16934 23.7557 9.191C23.9649 9.191 24.1655 9.10792 24.3134 8.96002C24.4612 8.81213 24.5443 8.61154 24.5443 8.40239C24.5443 8.19324 24.4612 7.99265 24.3134 7.84476C24.1655 7.69687 23.9649 7.61378 23.7557 7.61378C23.1248 7.61378 22.8283 7.28888 22.3094 6.66745C22.0202 6.22124 21.6283 5.85088 21.1664 5.58743C20.7045 5.32397 20.1862 5.17511 19.6549 5.15332C19.1233 5.17465 18.6046 5.32322 18.1423 5.58655C17.68 5.84988 17.2876 6.22028 16.9981 6.66666C16.4792 7.28888 16.1788 7.61299 15.551 7.61299C14.9233 7.61299 14.6252 7.28888 14.1071 6.66666C13.8175 6.22002 13.4249 5.84945 12.9623 5.5861C12.4996 5.32276 11.9806 5.17434 11.4487 5.15332C10.9172 5.17473 10.3986 5.32342 9.93659 5.5869C9.47453 5.85039 9.08249 6.22095 8.79343 6.66745C8.2761 7.28966 7.97643 7.61378 7.35106 7.61378C6.72569 7.61378 6.42523 7.28966 5.90712 6.66745C5.61805 6.22095 5.22601 5.85039 4.76395 5.5869C4.3019 5.32342 3.78334 5.17473 3.25187 5.15332C3.04271 5.15332 2.84213 5.23641 2.69424 5.3843C2.54634 5.53219 2.46326 5.73278 2.46326 5.94193C2.46326 6.15108 2.54634 6.35167 2.69424 6.49956C2.84213 6.64745 3.04271 6.73054 3.25187 6.73054ZM23.7557 19.3483C23.1248 19.3483 22.8283 19.0234 22.3094 18.402C22.0202 17.9558 21.6283 17.5854 21.1664 17.3219C20.7045 17.0585 20.1862 16.9096 19.6549 16.8878C19.1229 16.9089 18.6036 17.0574 18.1409 17.3209C17.6781 17.5844 17.2854 17.9551 16.9958 18.402C16.4769 19.0242 16.1764 19.3483 15.5487 19.3483C14.9209 19.3483 14.6228 19.0242 14.1047 18.402C13.8154 17.9555 13.4232 17.585 12.9611 17.3215C12.4989 17.058 11.9802 16.9093 11.4487 16.8878C10.9172 16.9092 10.3986 17.0579 9.93659 17.3214C9.47453 17.5849 9.08249 17.9555 8.79343 18.402C8.2761 19.0242 7.97643 19.3483 7.35264 19.3483C6.72885 19.3483 6.42681 19.0242 5.90869 18.402C5.61947 17.9553 5.22718 17.5846 4.76484 17.3211C4.30249 17.0576 3.78361 16.909 3.25187 16.8878C3.04271 16.8878 2.84213 16.9709 2.69424 17.1188C2.54634 17.2667 2.46326 17.4673 2.46326 17.6764C2.46326 17.8856 2.54634 18.0862 2.69424 18.2341C2.84213 18.382 3.04271 18.4651 3.25187 18.4651C3.87802 18.4651 4.17769 18.7892 4.69502 19.4114C4.98441 19.8581 5.37685 20.2288 5.83933 20.4923C6.3018 20.7558 6.82079 20.9044 7.35264 20.9255C7.88403 20.9042 8.40253 20.7556 8.86448 20.4921C9.32643 20.2286 9.7183 19.858 10.0071 19.4114C10.5252 18.7892 10.8249 18.4651 11.4503 18.4651C12.0756 18.4651 12.3753 18.7892 12.8942 19.4114C13.1832 19.8578 13.5751 20.2283 14.037 20.4918C14.4989 20.7552 15.0173 20.904 15.5487 20.9255C16.0805 20.9042 16.5994 20.7556 17.0619 20.4921C17.5243 20.2286 17.9168 19.858 18.2063 19.4114C18.7252 18.7892 19.0248 18.4651 19.6526 18.4651C20.2803 18.4651 20.58 18.79 21.0989 19.4114C21.3882 19.858 21.7805 20.2286 22.2428 20.4921C22.7052 20.7556 23.224 20.9042 23.7557 20.9255C23.9649 20.9255 24.1655 20.8424 24.3134 20.6945C24.4612 20.5466 24.5443 20.3461 24.5443 20.1369C24.5443 19.9278 24.4612 19.7272 24.3134 19.5793C24.1655 19.4314 23.9649 19.3483 23.7557 19.3483Z" fill="white"/>
</g>
</g>
</svg>
