<svg width="23" height="23" viewBox="0 0 23 23" fill="none" xmlns="http://www.w3.org/2000/svg">
<g id="Search">
<path id="Vector" d="M5.72838 21.2895H4.95252C4.1045 21.2895 3.35502 20.9528 2.84295 20.3429C2.33088 19.7323 2.12218 18.8967 2.27192 18.051C2.56519 16.386 4.10295 15.0826 5.77416 15.0826H7.72778V4.8963C7.72949 4.30617 7.95456 3.73857 8.35772 3.30762C8.76089 2.87668 9.31226 2.61434 9.90097 2.57337L18.4355 2.00466C18.7532 1.98459 19.0718 2.02948 19.3717 2.13659C19.6715 2.24371 19.9464 2.4108 20.1796 2.62768C20.6482 3.06604 20.9174 3.68596 20.9174 4.32759L20.9097 15.476C20.9089 15.6466 20.9004 15.8158 20.8686 15.9942C20.5753 17.6585 19.0375 18.9619 17.3663 18.9619H16.5905C15.7424 18.9619 14.993 18.6252 14.4809 18.0154C13.9688 17.4047 13.7601 16.5691 13.9099 15.7235C14.2031 14.0585 15.7409 12.755 17.4121 12.755H19.3657V8.98277C19.3657 8.76552 19.2788 8.5638 19.1198 8.41561C19.0426 8.34259 18.9511 8.28645 18.851 8.25079C18.751 8.21512 18.6446 8.2007 18.5386 8.20845L10.0042 8.77716C9.80792 8.79088 9.62414 8.87833 9.48972 9.02196C9.3553 9.16559 9.2802 9.35476 9.2795 9.55147V17.7981C9.2795 17.8672 9.27019 17.9339 9.2539 17.9975C9.24692 18.2341 9.23838 18.2776 9.2314 18.3218C8.93657 19.9853 7.39881 21.2895 5.72838 21.2895ZM5.77338 16.6343C4.86407 16.6343 3.96019 17.4063 3.79881 18.321C3.72899 18.7198 3.812 19.0829 4.03157 19.346C4.24338 19.5981 4.5708 19.7378 4.95252 19.7378H5.72838C6.63769 19.7378 7.54157 18.9658 7.70295 18.051C7.70062 18.0495 7.71149 17.8237 7.71847 16.6343H5.77338ZM17.4113 14.3067C16.502 14.3067 15.5981 15.0787 15.4367 15.9935C15.3669 16.3922 15.4499 16.7554 15.6695 17.0184C15.8813 17.2705 16.2087 17.4102 16.5905 17.4102H17.3663C18.2756 17.4102 19.1795 16.6382 19.3409 15.7235C19.3564 15.6358 19.3572 15.5504 19.3572 15.4674L19.3626 14.3067H17.4113ZM10.0026 4.12199C9.80637 4.1357 9.62259 4.22316 9.48817 4.36679C9.35375 4.51042 9.27865 4.69958 9.27795 4.8963V7.35733C9.47425 7.28751 9.68218 7.24328 9.89942 7.22854L18.4339 6.65983C18.7505 6.64199 19.0678 6.68389 19.3642 6.78863V4.32682C19.3642 4.10958 19.2773 3.90785 19.1182 3.75966C19.041 3.6868 18.9494 3.63077 18.8494 3.59511C18.7494 3.55945 18.643 3.54494 18.5371 3.55251L10.0026 4.12199Z" fill="#878999"/>
</g>
</svg>
