<svg width="28" height="28" viewBox="0 0 28 28" fill="none" xmlns="http://www.w3.org/2000/svg">
<g id="search">
<path id="Vector" d="M22.5048 22.5048C21.8445 23.1651 20.7742 23.1651 20.1139 22.5048L17.1304 19.5213C15.9039 20.3082 14.454 20.777 12.8885 20.777C8.53212 20.777 5 17.2454 5 12.8885C5 8.53159 8.53212 5 12.8885 5C17.2455 5 20.777 8.53152 20.777 12.8885C20.777 14.4534 20.3076 15.9039 19.5213 17.131L22.5048 20.1145C23.1651 20.7748 23.1651 21.8445 22.5048 22.5048ZM12.8885 7.25383C9.77679 7.25383 7.25387 9.77619 7.25387 12.8884C7.25387 16.0007 9.77683 18.5231 12.8885 18.5231C16.0007 18.5231 18.5231 16.0007 18.5231 12.8884C18.5231 9.77619 16.0007 7.25383 12.8885 7.25383Z" fill="white"/>
</g>
</svg>
