<svg width="17" height="17" viewBox="0 0 17 17" fill="none" xmlns="http://www.w3.org/2000/svg">
<g id="Group 7397">
<path id="Vector" d="M16.5012 15.5393L15.3383 16.7021C15.0111 17.0268 14.4774 17.0092 14.1729 16.6619L10.5775 12.6227C10.4496 12.4768 10.4567 12.2566 10.5939 12.1193L11.9086 10.8027C12.0458 10.6654 12.2659 10.6579 12.4121 10.7857L16.4609 14.3713C16.8108 14.6759 16.8284 15.2121 16.5012 15.5393Z" fill="#2F8CF3"/>
<path id="Vector_2" d="M16.5003 15.5385L15.7334 16.3054C15.9136 15.9863 15.8544 15.5694 15.5609 15.3146L11.5102 11.7297C11.3661 11.601 11.1448 11.6087 11.0084 11.7451L10.5117 12.2418C10.5323 12.1955 10.558 12.1543 10.5941 12.1183L11.9091 10.8032C12.0455 10.6642 12.2669 10.6591 12.411 10.7852L16.4617 14.3701C16.8117 14.6764 16.8272 15.2116 16.5003 15.5385Z" fill="#3796FF"/>
<path id="Vector_3" d="M10.768 9.91418L11.8352 10.8381L10.5891 12.1066L9.64771 11.0218L10.768 9.91418Z" fill="black"/>
<path id="Vector_4" d="M6.12636 12.1977C9.36356 12.1977 11.9878 9.5734 11.9878 6.3362C11.9878 3.099 9.36356 0.474731 6.12636 0.474731C2.88916 0.474731 0.264893 3.099 0.264893 6.3362C0.264893 9.5734 2.88916 12.1977 6.12636 12.1977Z" fill="#3796FF"/>
<path id="Vector_5" d="M6.13688 10.6757C8.5365 10.6757 10.4818 8.73047 10.4818 6.33085C10.4818 3.93124 8.5365 1.98596 6.13688 1.98596C3.73727 1.98596 1.79199 3.93124 1.79199 6.33085C1.79199 8.73047 3.73727 10.6757 6.13688 10.6757Z" fill="#B2B8FF"/>
<path id="Vector_6" d="M6.89119 4.10654C6.86656 4.10654 6.84143 4.10302 6.81655 4.09548C6.54537 4.0133 6.26439 3.98063 5.9799 4.00048C5.83941 4.00953 5.71551 3.90297 5.70571 3.76097C5.69616 3.61923 5.80347 3.49658 5.94522 3.48678C6.29053 3.46341 6.63459 3.50261 6.96583 3.60289C7.1018 3.64411 7.1787 3.78786 7.13748 3.92383C7.10381 4.03491 7.00177 4.10654 6.89119 4.10654ZM3.59159 6.09298C3.57551 6.09298 3.55892 6.09147 3.54233 6.08821C3.40285 6.06132 3.31162 5.92611 3.33876 5.78662C3.44683 5.22793 3.7175 4.71926 4.12138 4.31539C4.32319 4.11332 4.5529 3.94343 4.80397 3.81048C4.93038 3.74363 5.08519 3.79214 5.15179 3.91755C5.21839 4.04321 5.17039 4.19877 5.04473 4.26537C4.83915 4.3742 4.65091 4.51343 4.48554 4.6793C4.1543 5.01029 3.93263 5.42698 3.84392 5.88464C3.82004 6.00753 3.71248 6.09298 3.59159 6.09298Z" fill="#C8CCFF"/>
</g>
</svg>
