<svg width="30" height="30" viewBox="0 0 30 30" fill="none" xmlns="http://www.w3.org/2000/svg">
<g id="setting">
<path id="Vector" d="M24.875 15.8247C24.6746 15.5966 24.5641 15.3034 24.5641 14.9997C24.5641 14.6961 24.6746 14.4029 24.875 14.1747L26.475 12.3747C26.6513 12.1781 26.7608 11.9306 26.7877 11.6679C26.8147 11.4051 26.7577 11.1406 26.625 10.9122L24.125 6.58725C23.9936 6.35915 23.7936 6.17834 23.5534 6.0706C23.3133 5.96287 23.0452 5.93369 22.7875 5.98725L20.4375 6.46225C20.1385 6.52403 19.8272 6.47423 19.5624 6.32225C19.2975 6.17026 19.0975 5.9266 19 5.63725L18.2375 3.34975C18.1536 3.10147 17.9939 2.88583 17.7808 2.7333C17.5677 2.58077 17.312 2.49907 17.05 2.49975H12.05C11.7774 2.48552 11.5077 2.5609 11.2819 2.71439C11.0562 2.86787 10.887 3.09102 10.8 3.34975L10.1 5.63725C10.0025 5.9266 9.80246 6.17026 9.53763 6.32225C9.27281 6.47423 8.96151 6.52403 8.66249 6.46225L6.24999 5.98725C6.00568 5.95272 5.75662 5.99127 5.53418 6.09805C5.31174 6.20482 5.12587 6.37503 4.99999 6.58725L2.49999 10.9122C2.36394 11.1381 2.30277 11.4011 2.32522 11.6638C2.34767 11.9264 2.4526 12.1753 2.62499 12.3747L4.21249 14.1747C4.41289 14.4029 4.52341 14.6961 4.52341 14.9997C4.52341 15.3034 4.41289 15.5966 4.21249 15.8247L2.62499 17.6247C2.4526 17.8242 2.34767 18.073 2.32522 18.3357C2.30277 18.5984 2.36394 18.8614 2.49999 19.0872L4.99999 23.4122C5.13136 23.6403 5.33139 23.8212 5.57156 23.9289C5.81172 24.0366 6.07977 24.0658 6.33749 24.0122L8.68749 23.5372C8.98651 23.4755 9.29781 23.5253 9.56263 23.6772C9.82746 23.8292 10.0275 24.0729 10.125 24.3622L10.8875 26.6497C10.9745 26.9085 11.1437 27.1316 11.3694 27.2851C11.5952 27.4386 11.8649 27.514 12.1375 27.4997H17.1375C17.3995 27.5004 17.6552 27.4187 17.8683 27.2662C18.0814 27.1137 18.2411 26.898 18.325 26.6497L19.0875 24.3622C19.185 24.0729 19.385 23.8292 19.6499 23.6772C19.9147 23.5253 20.226 23.4755 20.525 23.5372L22.875 24.0122C23.1327 24.0658 23.4008 24.0366 23.6409 23.9289C23.8811 23.8212 24.0811 23.6403 24.2125 23.4122L26.7125 19.0872C26.8452 18.8589 26.9022 18.5944 26.8752 18.3316C26.8483 18.0689 26.7388 17.8214 26.5625 17.6247L24.875 15.8247ZM23.0125 17.4997L24.0125 18.6247L22.4125 21.3997L20.9375 21.0997C20.0372 20.9157 19.1007 21.0686 18.3057 21.5295C17.5108 21.9904 16.9127 22.727 16.625 23.5997L16.15 24.9997H12.95L12.5 23.5747C12.2123 22.702 11.6142 21.9654 10.8192 21.5045C10.0243 21.0436 9.08777 20.8907 8.18749 21.0747L6.71249 21.3747L5.08749 18.6122L6.08749 17.4872C6.70244 16.7997 7.04241 15.9097 7.04241 14.9872C7.04241 14.0648 6.70244 13.1748 6.08749 12.4872L5.08749 11.3622L6.68749 8.61225L8.16249 8.91225C9.06277 9.09627 9.99928 8.94335 10.7942 8.4825C11.5892 8.02164 12.1873 7.28495 12.475 6.41225L12.95 4.99975H16.15L16.625 6.42475C16.9127 7.29745 17.5108 8.03414 18.3057 8.49499C19.1007 8.95585 20.0372 9.10877 20.9375 8.92475L22.4125 8.62475L24.0125 11.3997L23.0125 12.5247C22.4044 13.2107 22.0687 14.0956 22.0687 15.0122C22.0687 15.9289 22.4044 16.8138 23.0125 17.4997ZM14.55 9.99975C13.5611 9.99975 12.5944 10.293 11.7721 10.8424C10.9499 11.3918 10.309 12.1727 9.93059 13.0863C9.55216 14 9.45314 15.0053 9.64607 15.9752C9.83899 16.9451 10.3152 17.836 11.0145 18.5353C11.7137 19.2345 12.6046 19.7107 13.5745 19.9037C14.5444 20.0966 15.5498 19.9976 16.4634 19.6191C17.377 19.2407 18.1579 18.5998 18.7073 17.7776C19.2567 16.9554 19.55 15.9887 19.55 14.9997C19.55 13.6737 19.0232 12.4019 18.0855 11.4642C17.1478 10.5265 15.8761 9.99975 14.55 9.99975ZM14.55 17.4997C14.0555 17.4997 13.5722 17.3531 13.1611 17.0784C12.7499 16.8037 12.4295 16.4133 12.2403 15.9565C12.0511 15.4996 12.0016 14.997 12.098 14.512C12.1945 14.0271 12.4326 13.5816 12.7822 13.232C13.1319 12.8823 13.5773 12.6442 14.0623 12.5478C14.5472 12.4513 15.0499 12.5008 15.5067 12.69C15.9635 12.8793 16.354 13.1997 16.6287 13.6108C16.9034 14.0219 17.05 14.5053 17.05 14.9997C17.05 15.6628 16.7866 16.2987 16.3178 16.7675C15.8489 17.2364 15.213 17.4997 14.55 17.4997Z" fill="white"/>
</g>
</svg>
