<svg width="24" height="24" viewBox="0 0 24 24" fill="none" xmlns="http://www.w3.org/2000/svg">
<g id="share">
<path id="Vector" d="M21 11.9999C20.4 11.9999 20 12.3999 20 12.9999V18.9999C20 19.5999 19.6 19.9999 19 19.9999H5C4.4 19.9999 4 19.5999 4 18.9999V12.9999C4 12.3999 3.6 11.9999 3 11.9999C2.4 11.9999 2 12.3999 2 12.9999V18.9999C2 20.6999 3.3 21.9999 5 21.9999H19C20.7 21.9999 22 20.6999 22 18.9999V12.9999C22 12.3999 21.6 11.9999 21 11.9999ZM8.7 7.6999L11 5.3999V14.9999C11 15.5999 11.4 15.9999 12 15.9999C12.6 15.9999 13 15.5999 13 14.9999V5.3999L15.3 7.6999C15.7 8.0999 16.3 8.0999 16.7 7.6999C17.1 7.2999 17.1 6.6999 16.7 6.2999L12.7 2.2999C12.6 2.1999 12.5 2.0999 12.4 2.0999C12.2 1.9999 11.9 1.9999 11.6 2.0999C11.5 2.0999 11.4 2.1999 11.3 2.2999L7.3 6.2999C6.9 6.6999 6.9 7.2999 7.3 7.6999C7.7 8.0999 8.3 8.0999 8.7 7.6999Z" fill="white"/>
</g>
</svg>
