<svg width="16" height="16" viewBox="0 0 16 16" fill="none" xmlns="http://www.w3.org/2000/svg">
<g id="share">
<path id="Vector" d="M12 9.33357C11.6061 9.33618 11.2177 9.42601 10.8626 9.59661C10.5076 9.76721 10.1948 10.0143 9.94664 10.3202L6.54664 8.75357C6.7065 8.26407 6.7065 7.73641 6.54664 7.24691L9.94664 5.68024C10.3477 6.16422 10.9069 6.49096 11.5254 6.6028C12.1439 6.71464 12.7821 6.60439 13.3273 6.29151C13.8724 5.97863 14.2896 5.48322 14.505 4.89273C14.7205 4.30224 14.7204 3.65463 14.5048 3.06418C14.2893 2.47373 13.8721 1.9784 13.3269 1.66562C12.7816 1.35283 12.1435 1.2427 11.5249 1.35465C10.9064 1.46661 10.3473 1.79345 9.94633 2.2775C9.54534 2.76155 9.32823 3.37169 9.33331 4.00024C9.33532 4.15906 9.35093 4.31742 9.37998 4.47357L5.85998 6.09357C5.4847 5.72662 5.00947 5.47858 4.49385 5.38052C3.97822 5.28247 3.44512 5.33875 2.96134 5.54233C2.47757 5.7459 2.06462 6.08772 1.77424 6.52495C1.48387 6.96217 1.32898 7.47537 1.32898 8.00024C1.32898 8.52511 1.48387 9.0383 1.77424 9.47553C2.06462 9.91276 2.47757 10.2546 2.96134 10.4582C3.44512 10.6617 3.97822 10.718 4.49385 10.62C5.00947 10.5219 5.4847 10.2739 5.85998 9.90691L9.37998 11.5269C9.35093 11.6831 9.33532 11.8414 9.33331 12.0002C9.33331 12.5277 9.48971 13.0432 9.78273 13.4818C10.0757 13.9203 10.4922 14.2621 10.9795 14.4639C11.4668 14.6658 12.0029 14.7186 12.5202 14.6157C13.0375 14.5128 13.5127 14.2588 13.8856 13.8859C14.2585 13.5129 14.5125 13.0378 14.6154 12.5205C14.7183 12.0032 14.6655 11.467 14.4637 10.9798C14.2618 10.4925 13.92 10.076 13.4815 9.78299C13.043 9.48997 12.5274 9.33357 12 9.33357ZM12 2.66691C12.2637 2.66691 12.5215 2.7451 12.7407 2.89161C12.96 3.03812 13.1309 3.24636 13.2318 3.48999C13.3327 3.73363 13.3591 4.00172 13.3077 4.26036C13.2562 4.519 13.1293 4.75658 12.9428 4.94305C12.7563 5.12952 12.5187 5.25651 12.2601 5.30795C12.0015 5.3594 11.7334 5.333 11.4897 5.23208C11.2461 5.13116 11.0379 4.96026 10.8914 4.741C10.7448 4.52173 10.6666 4.26395 10.6666 4.00024C10.6666 3.64662 10.8071 3.30748 11.0572 3.05743C11.3072 2.80738 11.6464 2.66691 12 2.66691ZM3.99998 9.33357C3.73627 9.33357 3.47848 9.25537 3.25922 9.10887C3.03995 8.96236 2.86906 8.75412 2.76814 8.51048C2.66722 8.26685 2.64082 7.99876 2.69226 7.74012C2.74371 7.48148 2.8707 7.2439 3.05717 7.05743C3.24364 6.87096 3.48122 6.74397 3.73986 6.69253C3.9985 6.64108 4.26659 6.66748 4.51022 6.7684C4.75386 6.86932 4.9621 7.04021 5.1086 7.25948C5.25511 7.47874 5.33331 7.73653 5.33331 8.00024C5.33331 8.35386 5.19284 8.693 4.94279 8.94305C4.69274 9.1931 4.3536 9.33357 3.99998 9.33357ZM12 13.3336C11.7363 13.3336 11.4785 13.2554 11.2592 13.1089C11.04 12.9624 10.8691 12.7541 10.7681 12.5105C10.6672 12.2668 10.6408 11.9988 10.6923 11.7401C10.7437 11.4815 10.8707 11.2439 11.0572 11.0574C11.2436 10.871 11.4812 10.744 11.7399 10.6925C11.9985 10.6411 12.2666 10.6675 12.5102 10.7684C12.7539 10.8693 12.9621 11.0402 13.1086 11.2595C13.2551 11.4787 13.3333 11.7365 13.3333 12.0002C13.3333 12.3539 13.1928 12.693 12.9428 12.943C12.6927 13.1931 12.3536 13.3336 12 13.3336Z" fill="#D3FB8F"/>
</g>
</svg>
