<svg width="16" height="16" viewBox="0 0 16 16" fill="none" xmlns="http://www.w3.org/2000/svg">
<g id="sleep">
<path id="Vector" d="M13.9333 10.4C13.8667 10.1333 13.6 10 13.3333 10H10.6667C10.2667 10 10 10.2667 10 10.6667C10 11.0667 10.2667 11.3333 10.6667 11.3333H11.7333L10.2 12.8667C10 13.0667 9.93335 13.3333 10.0667 13.6C10.2 13.8667 10.4 14 10.6667 14H13.3333C13.7333 14 14 13.7333 14 13.3333C14 12.9333 13.7333 12.6667 13.3333 12.6667H12.2667L13.8 11.1333C14 10.9333 14.0667 10.6667 13.9333 10.4Z" fill="#D3FB8F"/>
<path id="Vector_2" d="M8.00004 1.3335C4.33337 1.3335 1.33337 4.3335 1.33337 8.00016C1.33337 11.6668 4.33337 14.6668 8.00004 14.6668C8.40004 14.6668 8.66671 14.4002 8.66671 14.0002C8.66671 13.6002 8.40004 13.3335 8.00004 13.3335C5.06671 13.3335 2.66671 10.9335 2.66671 8.00016C2.66671 5.06683 5.06671 2.66683 8.00004 2.66683C10.9334 2.66683 13.3334 5.06683 13.3334 8.00016C13.3334 8.40016 13.6 8.66683 14 8.66683C14.4 8.66683 14.6667 8.40016 14.6667 8.00016C14.6667 4.3335 11.6667 1.3335 8.00004 1.3335Z" fill="#D3FB8F"/>
<path id="Vector_3" d="M8.66667 5.3335C8.26667 5.3335 8 5.60016 8 6.00016V7.7335L6.2 9.5335C5.93333 9.80016 5.93333 10.2002 6.2 10.4668C6.33333 10.6002 6.46667 10.6668 6.66667 10.6668C6.86667 10.6668 7 10.6002 7.13333 10.4668L9.13333 8.46683C9.26667 8.3335 9.33333 8.20016 9.33333 8.00016V6.00016C9.33333 5.60016 9.06667 5.3335 8.66667 5.3335Z" fill="#D3FB8F"/>
</g>
</svg>
