<svg width="317" height="280" viewBox="0 0 317 280" fill="none" xmlns="http://www.w3.org/2000/svg">
<path d="M270.59 229.798C270.71 232.356 270.418 234.841 269.773 237.224C267.86 244.361 262.837 250.591 256.502 255.211C255.715 255.789 254.907 256.34 254.082 256.862C251.013 258.813 247.709 260.403 244.352 261.558C232.752 265.551 220.522 265.851 208.299 264.285C206.966 264.116 205.636 263.923 204.306 263.707C195.474 262.299 186.68 260.018 178.167 257.55C156.586 251.297 134.481 243.822 112.177 246.534C101.336 247.852 90.8154 251.565 79.9012 251.942C68.9929 252.318 39.2137 244.072 27.6054 208.55C27.6025 208.539 27.5966 208.524 27.5937 208.512C27.2933 207.591 27.025 206.66 26.7916 205.727C23.5979 193.124 26.1558 179.509 32.2604 167.746C32.8875 166.536 33.5525 165.343 34.2554 164.176C36.0229 161.227 38.015 158.425 40.1937 155.817C41.375 154.402 42.6204 153.023 43.9037 151.658C52.1462 142.87 61.7887 134.762 64.2795 123.165C66.7995 111.446 61.1704 99.7441 58.0816 88.165C54.9141 76.2825 54.427 63.5104 58.0408 51.7592C61.6545 40.005 69.6054 29.3883 80.54 23.765C96.2725 15.68 115.391 18.7658 132.165 24.3775C148.939 29.9862 165.255 37.9808 182.889 39.3458C201.69 40.8012 220.791 34.5712 239.28 38.2929C258.786 42.2217 275.414 57.9775 280.39 77.2479C285.888 98.5512 277.896 120.738 270.383 141.42C262.872 162.1 255.689 184.803 262.692 205.66C265.401 213.725 270.19 221.302 270.59 229.798Z" fill="#3F0A75"/>
<path d="M101.414 119.032C98.5882 126.685 99.3728 132.329 91.1537 139.213C86.3382 143.246 86.7407 148.677 93.1078 149.765C95.8903 150.185 98.6991 149.418 101.502 149.144C108.875 148.423 116.109 151.115 123.027 153.764C131.92 156.447 139.949 161.102 148.603 164.415C170.257 172.705 175.498 171.888 196.466 168.764C197.839 168.767 199.234 168.887 200.52 169.368C204.67 170.937 206.327 176.015 210.358 177.756C214.715 179.64 219.566 175.368 217.486 170.293C214.747 164.593 214.208 161.782 215.99 155.476C217.982 148.426 216.532 146.644 221.205 138.113C225.979 129.398 221.12 119.064 230.894 110.676C232.901 108.996 235.73 107.893 236.687 105.458C242.03 91.8546 218.799 96.3201 210.717 93.7155C188.442 86.5405 167.357 73.7655 142.087 74.1884C130.249 74.3867 124.555 63.3063 114.697 60.308C108.342 58.3742 107.814 66.1734 109.756 70.808C115.134 83.6413 105.967 88.5092 105.489 103.303C105.323 108.264 103.211 114.161 101.414 119.032Z" fill="#FF7DB5"/>
<path d="M119.763 81.1562C119.795 80.5379 119.533 79.975 119.101 79.5987C118.783 79.3216 118.375 79.1495 117.926 79.1262C116.858 79.0679 115.951 79.8933 115.893 80.9608C115.864 81.5762 116.126 82.1391 116.558 82.5154C116.876 82.7925 117.281 82.9704 117.73 82.9908C118.349 83.0229 118.912 82.7604 119.288 82.3287C119.562 82.0137 119.737 81.6054 119.763 81.1562ZM130.494 82.0516C130.555 81.4041 130.29 80.8004 129.835 80.4037C129.54 80.147 129.17 79.9779 128.755 79.9341C127.694 79.8291 126.746 80.6079 126.641 81.6724C126.58 82.3199 126.842 82.9208 127.3 83.3204C127.592 83.5741 127.962 83.7433 128.379 83.7899C129.027 83.8512 129.63 83.5858 130.027 83.1308C130.281 82.8362 130.45 82.4658 130.494 82.0516ZM141.166 83.4108C141.262 82.737 141 82.0954 140.524 81.6812C140.253 81.4449 139.912 81.2787 139.524 81.2262C138.465 81.0716 137.485 81.8095 137.336 82.8712C137.243 83.542 137.505 84.1837 137.984 84.6008C138.255 84.837 138.596 85.0033 138.984 85.0558C139.655 85.1491 140.297 84.8866 140.711 84.4112C140.947 84.14 141.113 83.7987 141.166 83.4108ZM151.774 85.2162C151.902 84.5191 151.64 83.8395 151.144 83.4049C150.89 83.1833 150.575 83.0287 150.222 82.9616C149.169 82.7691 148.16 83.4633 147.965 84.5133C147.836 85.2104 148.099 85.89 148.597 86.3275C148.851 86.5491 149.166 86.7037 149.519 86.7708C150.213 86.8962 150.893 86.6337 151.33 86.135C151.552 85.8841 151.71 85.572 151.774 85.2162ZM162.291 87.4737C162.457 86.7533 162.198 86.0358 161.682 85.5837C161.448 85.3795 161.163 85.2279 160.839 85.1579C159.798 84.9187 158.762 85.572 158.52 86.6104C158.435 86.9691 158.462 87.3308 158.572 87.6545C158.68 87.9812 158.876 88.2729 159.135 88.5004C159.369 88.7045 159.655 88.8562 159.975 88.932C160.693 89.0954 161.413 88.8329 161.865 88.3166C162.067 88.0833 162.218 87.8004 162.291 87.4737ZM172.707 90.1833C172.908 89.4395 172.657 88.6841 172.112 88.2087C171.902 88.0249 171.642 87.885 171.353 87.8033C170.324 87.5175 169.259 88.1241 168.976 89.1537C168.877 89.5241 168.886 89.8974 168.994 90.2416C169.099 90.5858 169.3 90.892 169.571 91.1283C169.781 91.312 170.035 91.452 170.324 91.5337C171.067 91.7349 171.826 91.4812 172.301 90.9358C172.482 90.7258 172.625 90.472 172.707 90.1833ZM182.982 93.3595C183.23 92.5983 182.979 91.7933 182.416 91.3004C182.224 91.1341 181.996 91.0029 181.745 90.9183C180.73 90.5858 179.637 91.1458 179.304 92.1608C179.182 92.537 179.179 92.9308 179.284 93.2895C179.386 93.6425 179.59 93.9662 179.873 94.2141C180.065 94.3804 180.29 94.5145 180.544 94.5962C181.305 94.8441 182.107 94.5962 182.603 94.0304C182.766 93.8408 182.897 93.6133 182.982 93.3595ZM193.094 97.017C193.392 96.2383 193.15 95.3895 192.558 94.8704C192.388 94.7245 192.193 94.602 191.974 94.5204C190.977 94.1412 189.857 94.6429 189.478 95.6404C189.332 96.0312 189.317 96.4395 189.413 96.8129C189.512 97.1891 189.72 97.5304 190.017 97.79C190.183 97.9329 190.379 98.0554 190.6 98.14C191.376 98.4345 192.222 98.1983 192.741 97.6033C192.887 97.437 193.01 97.2387 193.094 97.017ZM203.017 101.173C203.364 100.374 203.139 99.4758 202.515 98.9333C202.369 98.805 202.203 98.7029 202.019 98.6183C201.042 98.1895 199.899 98.6358 199.473 99.6158C199.298 100.012 199.269 100.438 199.356 100.826C199.447 101.22 199.66 101.582 199.969 101.85C200.115 101.978 200.281 102.08 200.465 102.162C201.258 102.506 202.162 102.285 202.705 101.66C202.83 101.526 202.932 101.36 203.017 101.173ZM212.703 105.843C213.108 105.038 212.895 104.084 212.248 103.518C212.125 103.41 211.994 103.32 211.843 103.244C210.889 102.76 209.725 103.145 209.247 104.102C209.045 104.501 208.996 104.945 209.077 105.356C209.159 105.764 209.375 106.146 209.699 106.429C209.818 106.534 209.955 106.625 210.104 106.697C210.912 107.106 211.866 106.893 212.435 106.242C212.54 106.12 212.627 105.986 212.703 105.843ZM222.118 111.032C222.59 110.215 222.395 109.203 221.715 108.608C221.622 108.526 221.517 108.45 221.403 108.389C220.476 107.855 219.295 108.176 218.761 109.104C218.53 109.512 218.458 109.97 218.533 110.399C218.606 110.827 218.825 111.23 219.166 111.527C219.26 111.609 219.362 111.682 219.475 111.746C220.292 112.219 221.304 112.023 221.899 111.344C221.981 111.247 222.057 111.142 222.118 111.032ZM111.448 103.909C111.48 103.291 111.217 102.728 110.786 102.352C110.471 102.077 110.063 101.905 109.61 101.879C108.546 101.824 107.636 102.646 107.58 103.717C107.545 104.332 107.808 104.895 108.243 105.274C108.558 105.548 108.966 105.72 109.415 105.744C110.03 105.779 110.593 105.516 110.972 105.082C111.25 104.767 111.425 104.361 111.448 103.909ZM122.178 104.805C122.24 104.157 121.977 103.556 121.519 103.157C121.228 102.903 120.854 102.731 120.44 102.687C119.378 102.582 118.428 103.364 118.325 104.425C118.264 105.073 118.527 105.674 118.985 106.073C119.276 106.327 119.65 106.499 120.064 106.543C120.711 106.604 121.312 106.342 121.712 105.884C121.965 105.592 122.137 105.219 122.178 104.805ZM132.85 106.167C132.947 105.493 132.684 104.851 132.209 104.437C131.937 104.201 131.593 104.037 131.208 103.982C130.15 103.836 129.172 104.568 129.021 105.627C128.93 106.301 129.193 106.942 129.668 107.357C129.94 107.593 130.281 107.759 130.666 107.815C131.337 107.908 131.981 107.642 132.395 107.167C132.632 106.893 132.798 106.552 132.85 106.167ZM143.461 107.975C143.587 107.281 143.324 106.601 142.825 106.164C142.572 105.942 142.26 105.785 141.904 105.72C140.854 105.525 139.847 106.219 139.649 107.269C139.521 107.966 139.783 108.646 140.282 109.083C140.536 109.305 140.848 109.462 141.201 109.527C141.898 109.655 142.577 109.392 143.015 108.894C143.24 108.643 143.394 108.328 143.461 107.975ZM153.979 110.232C154.139 109.512 153.882 108.792 153.36 108.337C153.127 108.132 152.844 107.987 152.52 107.914C151.479 107.675 150.444 108.328 150.205 109.369C150.12 109.728 150.146 110.09 150.254 110.41C150.362 110.737 150.557 111.029 150.817 111.256C151.05 111.46 151.336 111.612 151.657 111.688C152.377 111.848 153.095 111.589 153.547 111.072C153.757 110.836 153.906 110.553 153.979 110.232ZM164.391 112.939C164.592 112.198 164.342 111.44 163.796 110.965C163.586 110.781 163.327 110.641 163.038 110.559C162.005 110.276 160.944 110.88 160.661 111.91C160.559 112.277 160.57 112.653 160.678 112.997C160.783 113.342 160.985 113.648 161.256 113.884C161.466 114.068 161.722 114.211 162.011 114.292C162.749 114.491 163.513 114.24 163.986 113.697C164.172 113.485 164.31 113.228 164.391 112.939ZM174.667 116.115C174.915 115.354 174.667 114.552 174.101 114.056C173.908 113.89 173.681 113.759 173.43 113.674C172.412 113.345 171.321 113.902 170.989 114.917C170.869 115.296 170.869 115.69 170.968 116.045C171.076 116.401 171.277 116.725 171.563 116.973C171.75 117.136 171.977 117.27 172.234 117.355C172.995 117.603 173.795 117.352 174.287 116.789C174.451 116.6 174.582 116.372 174.667 116.115ZM184.782 119.773C185.076 118.991 184.834 118.142 184.242 117.623C184.073 117.477 183.878 117.355 183.659 117.273C182.658 116.897 181.544 117.396 181.162 118.402C181.013 118.787 180.999 119.195 181.098 119.569C181.197 119.945 181.407 120.289 181.702 120.546C181.871 120.692 182.066 120.814 182.285 120.896C183.064 121.193 183.912 120.951 184.432 120.359C184.58 120.19 184.7 119.992 184.782 119.773ZM194.701 123.929C195.045 123.136 194.824 122.232 194.202 121.689C194.06 121.564 193.893 121.459 193.71 121.377C192.73 120.951 191.589 121.395 191.16 122.372C190.988 122.771 190.953 123.197 191.05 123.585C191.137 123.976 191.347 124.335 191.659 124.606C191.805 124.734 191.974 124.839 192.155 124.918C192.954 125.265 193.853 125.04 194.392 124.422C194.515 124.279 194.62 124.113 194.701 123.929ZM204.39 128.596C204.796 127.791 204.583 126.837 203.935 126.271C203.813 126.163 203.682 126.073 203.53 125.997C202.573 125.516 201.412 125.901 200.934 126.855C200.73 127.26 200.68 127.7 200.765 128.109C200.847 128.517 201.062 128.899 201.389 129.185C201.509 129.29 201.643 129.377 201.795 129.453C202.597 129.862 203.55 129.652 204.116 129.001C204.221 128.879 204.315 128.747 204.39 128.596ZM213.805 133.785C214.275 132.974 214.082 131.956 213.4 131.358C213.31 131.279 213.205 131.203 213.094 131.142C212.166 130.614 210.985 130.929 210.451 131.857C210.218 132.262 210.148 132.723 210.224 133.152C210.3 133.583 210.515 133.983 210.857 134.28C210.95 134.362 211.055 134.438 211.166 134.499C211.98 134.969 212.992 134.779 213.587 134.1C213.665 134.003 213.738 133.898 213.805 133.785ZM221.205 138.11C221.473 137.62 221.71 137.124 221.923 136.625C221.103 136.334 220.164 136.625 219.665 137.39C219.4 137.798 219.303 138.273 219.368 138.717C219.432 139.166 219.653 139.595 220.012 139.907C220.067 139.953 220.129 140.003 220.19 140.044C220.49 139.44 220.829 138.798 221.205 138.11ZM106.116 128.642C106.151 128.027 105.889 127.464 105.457 127.088C105.139 126.811 104.731 126.639 104.282 126.615C103.214 126.557 102.304 127.38 102.252 128.444C102.22 129.062 102.482 129.625 102.914 130.002C103.229 130.276 103.634 130.454 104.086 130.477C104.705 130.509 105.267 130.247 105.644 129.815C105.921 129.5 106.096 129.092 106.116 128.642ZM116.847 129.538C116.908 128.89 116.645 128.29 116.193 127.893C115.899 127.636 115.528 127.467 115.114 127.423C114.05 127.315 113.102 128.094 113 129.162C112.932 129.806 113.201 130.41 113.653 130.807C113.947 131.063 114.318 131.232 114.732 131.276C115.38 131.337 115.986 131.075 116.383 130.62C116.634 130.331 116.806 129.955 116.847 129.538ZM127.522 130.9C127.618 130.226 127.355 129.585 126.877 129.167C126.606 128.931 126.265 128.765 125.877 128.712C124.821 128.561 123.841 129.299 123.692 130.36C123.599 131.031 123.861 131.673 124.337 132.087C124.608 132.323 124.952 132.487 125.337 132.542C126.008 132.635 126.65 132.373 127.067 131.895C127.303 131.623 127.466 131.285 127.522 130.9ZM138.13 132.708C138.258 132.011 137.992 131.335 137.497 130.9C137.243 130.678 136.928 130.518 136.572 130.454C136.575 130.451 136.575 130.451 136.575 130.451C135.522 130.258 134.516 130.955 134.323 132.005C134.195 132.702 134.455 133.379 134.953 133.817C135.207 134.038 135.522 134.193 135.875 134.26C136.572 134.388 137.252 134.126 137.689 133.627C137.908 133.376 138.065 133.061 138.13 132.708ZM148.65 134.963C148.813 134.245 148.554 133.528 148.037 133.076C147.804 132.872 147.518 132.72 147.195 132.65C146.153 132.411 145.112 133.061 144.876 134.102C144.794 134.458 144.818 134.823 144.925 135.144C145.039 135.47 145.229 135.762 145.491 135.992C145.722 136.194 146.005 136.345 146.328 136.421C147.049 136.582 147.766 136.322 148.221 135.8C148.425 135.567 148.574 135.284 148.65 134.963ZM159.06 137.672C159.261 136.929 159.01 136.173 158.467 135.701C158.257 135.517 157.998 135.377 157.709 135.295C156.68 135.01 155.615 135.616 155.329 136.643C155.227 137.016 155.242 137.39 155.35 137.734C155.455 138.072 155.653 138.381 155.924 138.617C156.137 138.804 156.391 138.944 156.68 139.026C157.42 139.227 158.179 138.976 158.654 138.431C158.838 138.221 158.978 137.961 159.06 137.672ZM169.338 140.852C169.586 140.09 169.335 139.285 168.766 138.79C168.574 138.623 168.349 138.495 168.095 138.407C167.083 138.078 165.987 138.635 165.657 139.653C165.532 140.032 165.532 140.423 165.634 140.779C165.739 141.137 165.943 141.458 166.229 141.706C166.421 141.872 166.643 142.004 166.9 142.088C167.661 142.336 168.463 142.088 168.959 141.522C169.122 141.33 169.253 141.102 169.338 140.852ZM179.45 144.506C179.748 143.727 179.505 142.879 178.913 142.36C178.744 142.214 178.549 142.091 178.33 142.01C177.332 141.63 176.212 142.132 175.833 143.13C175.682 143.517 175.67 143.923 175.766 144.299C175.865 144.675 176.075 145.02 176.37 145.276C176.539 145.422 176.735 145.545 176.953 145.626C177.732 145.924 178.581 145.682 179.1 145.09C179.246 144.923 179.368 144.725 179.45 144.506ZM189.37 148.662C189.72 147.866 189.492 146.965 188.874 146.425C188.728 146.297 188.562 146.195 188.378 146.11C187.398 145.685 186.258 146.128 185.832 147.108C185.657 147.505 185.628 147.93 185.718 148.315C185.808 148.709 186.021 149.071 186.33 149.339C186.476 149.467 186.64 149.575 186.823 149.657C187.617 150.001 188.518 149.777 189.058 149.158C189.18 149.015 189.288 148.846 189.37 148.662ZM199.056 153.329C199.461 152.524 199.248 151.57 198.601 151.005C198.481 150.9 198.35 150.809 198.198 150.733C197.245 150.249 196.084 150.634 195.6 151.588C195.398 151.996 195.349 152.431 195.436 152.842C195.518 153.25 195.731 153.63 196.058 153.915C196.177 154.02 196.308 154.111 196.46 154.187C197.262 154.595 198.219 154.379 198.785 153.732C198.89 153.612 198.983 153.481 199.056 153.329ZM208.477 158.521C208.946 157.701 208.754 156.692 208.074 156.097C207.981 156.015 207.876 155.94 207.762 155.878C206.835 155.345 205.653 155.665 205.12 156.593C204.886 156.998 204.813 157.456 204.889 157.885C204.965 158.317 205.184 158.719 205.525 159.017C205.618 159.098 205.72 159.171 205.837 159.235C206.651 159.705 207.666 159.512 208.264 158.83C208.34 158.737 208.412 158.632 208.477 158.521ZM214.955 161.534C214.712 161.677 214.503 161.875 214.339 162.12C214.068 162.528 213.975 163.001 214.039 163.45C214.103 163.899 214.325 164.328 214.68 164.637C214.745 164.692 214.817 164.751 214.893 164.8C215.057 164.908 215.229 164.984 215.41 165.034C215.1 163.867 214.949 162.738 214.955 161.534Z" fill="#FFA1BF"/>
<path d="M212.49 178.208C211.787 178.205 211.067 178.062 210.355 177.756C206.324 176.015 204.67 170.937 200.517 169.368C199.231 168.887 197.84 168.767 196.466 168.764C175.495 171.888 170.257 172.705 148.603 164.415C139.95 161.102 131.92 156.447 123.027 153.764C116.109 151.115 108.875 148.423 101.502 149.144C98.6992 149.418 95.8933 150.185 93.1079 149.765C86.7379 148.677 86.3383 143.243 91.1538 139.212C99.3758 132.329 98.5913 126.685 101.418 119.032C103.214 114.164 105.326 108.267 105.486 103.302C105.947 89.0049 114.528 83.9766 110.243 72.0649C115.248 76.9679 123.246 79.692 123.447 79.762C111.279 80.3016 109.409 93.6804 109.958 102.206C110.427 109.495 115.995 103.177 125.098 108.908C125.098 108.908 112.956 108.94 108.531 114.984C102.797 122.818 97.2788 134.275 102.94 141.697C107.965 148.295 124.827 143.264 150.534 159.632C159.258 165.188 176.773 165.891 181.083 156.806C182.982 156.972 182.775 160.51 186.056 163.438C193.677 170.24 201.628 155.245 212.49 178.208ZM224.755 120.896C217.967 119.505 213.24 115.022 213.24 115.022C222.261 119.472 225.218 110.545 232.306 109.629C231.813 109.961 231.335 110.302 230.894 110.673C227.173 113.867 225.571 117.337 224.755 120.896Z" fill="#EAD3DD"/>
<path d="M163.379 78.8142C157.735 78.7471 151.978 81.1825 147.125 85.018C142.557 88.6259 138.818 93.9284 133.717 96.253C127.417 99.1201 120.805 99.0967 115.342 108.305C118.098 106.327 120.492 104.968 122.753 104.703C118.626 106.593 116.027 111.423 112.685 113.843C101.91 121.651 87.152 118.093 77.5999 127.826C73.2745 132.233 70.8624 138.437 68.5962 144.407C75.112 141.706 82.1441 141.132 88.5724 142.78C86.3995 143.229 84.3024 144.538 82.742 146.42C86.0233 146.075 89.2899 147.02 91.8508 149.056C94.432 151.107 96.3162 154.213 99.2066 155.712C102.572 157.456 115.126 153.253 115.126 153.253C114.86 155.619 109.584 159.842 108.251 160.376C116.246 161.61 143.741 155.517 146.077 147.163C150.307 132.061 153.71 117.355 165.17 106.231C167.241 104.221 169.487 102.407 171.248 100.05C173.491 97.0521 176.851 89.2384 176.851 89.2384C175.119 83.4459 169.023 78.8813 163.379 78.8142Z" fill="#803D11"/>
<path d="M197.624 153.233L213.907 162.712C223.247 153.038 193.885 122.9 187.806 100.905L181.582 113.161L197.624 153.233Z" fill="#FFCFA1"/>
<path d="M142.347 178.235C162.393 184.768 211.548 165.095 213.908 162.715C219.067 157.512 210.521 147.406 210.521 147.406L160.454 151.798L142.347 178.235Z" fill="#FFCFA1"/>
<path d="M202.655 151.973C202.556 151.941 198.869 151.2 195.926 151.769C194.771 154.088 196.402 167.498 195.142 170.52C187.334 173.198 178.018 175.942 169.037 177.689L167.086 161.557C167.086 161.557 170.68 166.416 171.89 169.56C173.1 172.705 174.929 172.15 176.452 170.304C178.315 168.041 181.115 155.543 183.011 151.955L186.199 150.43L196.011 149.211L189.822 133.747C191.178 133.216 194.357 123.308 196.915 123.162C199.149 123.034 200.607 132.723 203.915 131.685C198.327 137.27 197.309 149.214 202.655 151.973Z" fill="#F2D8C6"/>
<path d="M153.264 249.241C131.564 255.427 93.4199 242.042 97.7366 230.201C103.646 213.993 114.283 219.497 116.313 188.256C117.284 173.297 119.489 158.206 125.425 149.829C129.633 143.885 140.725 144.57 142.534 140.968L150.409 146.705L162.131 149.403C163.995 152.063 166.882 162.546 166.97 169.782C167.29 196.373 155.842 200.579 154.002 219.304C152.494 234.608 158.596 246.861 153.264 249.241Z" fill="#FFD9B5"/>
<path d="M170.239 182.435C168.58 195.67 154.317 217.726 155.277 240.89C149.744 251.081 98.778 224.866 98.778 224.866C122.234 205.905 112.154 163.389 122.28 151.646C129.091 143.748 138.407 143.488 138.407 143.488C138.407 143.488 155.163 156.867 158.47 156.68C162.965 156.427 162.125 149.403 162.125 149.403C163.3 151.395 166.821 151.226 166.821 151.226C166.821 151.226 171.018 172.987 170.239 182.435Z" fill="#98B633"/>
<path d="M155.799 163.902C155.799 163.902 150.193 157.278 145.908 152.723C142.067 148.639 133.507 146.143 127.128 153.382C120.3 161.131 120.583 183.418 126.352 187.285C137.112 194.501 155.799 163.902 155.799 163.902Z" fill="#FFD9B5"/>
<path d="M162.755 198.73C158.17 206.205 153.314 214.888 153.859 228.089H153.856L147.956 226.85C145.835 215.647 155.364 207.614 150.374 200.165C148.583 197.49 138.967 196.015 132.909 188.029C127.904 181.428 129.024 166.755 129.024 166.755L162.755 198.73Z" fill="#F2D8C6"/>
<path d="M269.773 237.224C267.86 244.361 262.837 250.591 256.502 255.211C255.715 255.789 254.907 256.34 254.082 256.862C251.013 258.813 247.709 260.403 244.352 261.558C232.752 265.551 220.522 265.851 208.299 264.285C206.966 264.116 205.636 263.923 204.306 263.708C195.474 262.299 186.68 260.018 178.167 257.55C156.586 251.297 134.481 243.822 112.177 246.534C101.336 247.853 90.8154 251.565 79.9012 251.942C68.9929 252.318 39.2137 244.073 27.6054 208.55C27.6025 208.539 27.5966 208.524 27.5937 208.513C27.2933 207.591 27.025 206.66 26.7916 205.727C23.5979 193.124 26.1558 179.509 32.2604 167.746C32.8875 166.536 33.5525 165.343 34.2554 164.176C36.0229 161.228 38.015 158.425 40.1937 155.817C41.375 154.403 42.6204 153.023 43.9037 151.658C61.7275 151.626 79.5629 155.225 95.9254 162.301C106.6 166.915 116.616 172.947 127.274 177.605C137.928 182.263 149.554 185.561 161.11 184.258C172.66 182.954 184.787 177.223 195.299 182.181C203.862 186.223 207.931 195.956 210.868 204.957C213.805 213.961 216.845 223.787 224.6 229.221C237.276 238.105 256.027 230.933 269.773 237.224Z" fill="#FF7DB5"/>
<path d="M48.8854 162.482H48.8533C47.6575 162.499 46.7037 163.485 46.7183 164.678C46.73 165.27 46.975 165.804 47.3658 166.189C47.7566 166.574 48.2933 166.81 48.8854 166.81H48.9175C50.1016 166.795 51.0495 165.827 51.0495 164.646V164.614C51.032 163.43 50.0666 162.482 48.8854 162.482ZM57.125 162.598C57.09 162.595 57.0579 162.595 57.0229 162.595C55.8737 162.595 54.917 163.503 54.8616 164.66C54.8091 165.859 55.7337 166.871 56.9266 166.924C56.9587 166.924 56.9937 166.927 57.0258 166.927C57.6033 166.927 58.1283 166.699 58.5191 166.329C58.91 165.955 59.1608 165.439 59.19 164.859C59.19 164.827 59.1929 164.795 59.1929 164.763C59.1929 163.61 58.2858 162.651 57.125 162.598ZM42.912 164.833C42.842 163.683 41.8883 162.803 40.7508 162.803C40.707 162.803 40.6604 162.803 40.6166 162.805C39.4237 162.878 38.5166 163.908 38.5895 165.101C38.6275 165.673 38.8812 166.183 39.272 166.548C39.66 166.912 40.182 167.134 40.7508 167.134C40.7945 167.134 40.8383 167.131 40.885 167.128C42.0312 167.058 42.915 166.104 42.915 164.967C42.915 164.923 42.915 164.876 42.912 164.833ZM65.4025 163.281C65.312 163.269 65.2245 163.263 65.1341 163.263C64.055 163.263 63.1216 164.071 62.9875 165.168C62.8445 166.352 63.6875 167.428 64.8745 167.58C64.965 167.589 65.0525 167.595 65.14 167.595C65.6796 167.595 66.1841 167.393 66.5691 167.055C66.9541 166.717 67.2195 166.244 67.2866 165.693C67.2983 165.603 67.3041 165.515 67.3041 165.428C67.3041 164.348 66.4962 163.412 65.4025 163.281ZM34.792 165.41C34.7454 164.932 34.55 164.506 34.2554 164.176C33.5525 165.343 32.8875 166.536 32.2604 167.746C32.3829 167.767 32.5083 167.778 32.6337 167.778C32.7037 167.778 32.7708 167.773 32.8408 167.77C33.9637 167.662 34.8008 166.717 34.8008 165.614C34.8008 165.547 34.7979 165.477 34.792 165.41ZM73.6216 164.66C73.467 164.625 73.3125 164.611 73.1608 164.611C72.1633 164.611 71.2679 165.302 71.0491 166.317C70.7954 167.487 71.5362 168.639 72.7058 168.893C72.8604 168.928 73.015 168.942 73.1666 168.942C73.6654 168.942 74.1379 168.77 74.5141 168.47C74.8904 168.169 75.1675 167.743 75.2783 167.236C75.3133 167.081 75.3279 166.927 75.3279 166.775C75.3279 165.778 74.6366 164.879 73.6216 164.66ZM81.6979 166.863C81.4704 166.787 81.237 166.752 81.0096 166.752C80.1025 166.752 79.2625 167.323 78.9591 168.233C78.5829 169.368 79.1983 170.593 80.33 170.969C80.5575 171.045 80.7879 171.08 81.0154 171.08C81.4675 171.08 81.905 170.937 82.2695 170.68C82.6312 170.421 82.917 170.053 83.0687 169.598C83.1446 169.374 83.1795 169.143 83.1795 168.916C83.1795 168.009 82.605 167.163 81.6979 166.863ZM89.4941 169.972C89.1966 169.832 88.8816 169.765 88.5725 169.765C87.7587 169.765 86.98 170.223 86.6125 171.007C86.102 172.089 86.5658 173.378 87.6479 173.889C87.9454 174.029 88.2604 174.096 88.5666 174.096C88.975 174.096 89.3716 173.982 89.7129 173.769C90.057 173.556 90.3429 173.244 90.5266 172.853C90.6666 172.556 90.7337 172.241 90.7337 171.932C90.7337 171.118 90.2758 170.342 89.4941 169.972ZM96.8441 173.953C96.4941 173.74 96.1091 173.641 95.7271 173.641C94.995 173.641 94.2775 174.011 93.872 174.685C93.2508 175.709 93.5804 177.039 94.6012 177.66C94.9541 177.87 95.342 177.969 95.7212 177.969C96.0887 177.969 96.4504 177.876 96.7712 177.701C97.092 177.523 97.372 177.263 97.5762 176.928C97.7891 176.578 97.8883 176.19 97.8883 175.808C97.8883 175.076 97.5179 174.361 96.8441 173.953ZM103.774 178.448C103.401 178.191 102.975 178.071 102.555 178.071C101.864 178.071 101.184 178.404 100.764 179.016C100.09 180.005 100.344 181.353 101.336 182.026C101.706 182.28 102.129 182.403 102.549 182.403C102.896 182.403 103.24 182.321 103.55 182.16C103.856 182 104.13 181.761 104.34 181.455C104.594 181.081 104.716 180.655 104.716 180.235C104.716 179.544 104.387 178.865 103.774 178.448ZM110.477 183.073C110.103 182.817 109.677 182.694 109.255 182.694C108.566 182.694 107.89 183.021 107.47 183.633C106.793 184.622 107.044 185.97 108.03 186.646C108.406 186.9 108.829 187.023 109.252 187.023C109.596 187.023 109.94 186.941 110.249 186.78C110.558 186.623 110.832 186.387 111.04 186.083C111.296 185.71 111.419 185.284 111.419 184.861C111.419 184.17 111.089 183.493 110.477 183.073ZM117.194 187.492C116.838 187.27 116.444 187.165 116.053 187.165C115.33 187.165 114.624 187.53 114.216 188.192C113.586 189.21 113.901 190.546 114.916 191.173C115.272 191.392 115.665 191.497 116.053 191.497C116.415 191.497 116.774 191.406 117.092 191.234C117.41 191.059 117.69 190.803 117.894 190.47C118.115 190.114 118.22 189.72 118.22 189.333C118.22 188.606 117.856 187.9 117.194 187.492ZM124.115 191.36C123.809 191.208 123.482 191.135 123.161 191.135C122.362 191.135 121.595 191.578 121.219 192.343C120.691 193.419 121.131 194.714 122.202 195.242C122.511 195.393 122.837 195.466 123.158 195.466C123.558 195.466 123.949 195.355 124.287 195.148C124.628 194.941 124.914 194.641 125.101 194.256C125.252 193.947 125.325 193.62 125.325 193.299C125.325 192.503 124.882 191.736 124.115 191.36ZM131.383 194.457C131.138 194.37 130.89 194.326 130.645 194.326C129.762 194.326 128.93 194.874 128.61 195.752C128.201 196.875 128.785 198.118 129.907 198.526C130.15 198.613 130.4 198.657 130.645 198.657C131.089 198.657 131.517 198.52 131.876 198.275C132.235 198.027 132.521 197.668 132.681 197.228C132.769 196.986 132.812 196.735 132.812 196.49C132.812 195.606 132.264 194.775 131.383 194.457ZM138.946 196.747C138.774 196.706 138.602 196.685 138.433 196.685C137.459 196.685 136.572 197.348 136.33 198.336C136.047 199.497 136.756 200.667 137.92 200.953V200.955C138.092 200.996 138.267 201.017 138.433 201.017C138.92 201.017 139.387 200.85 139.76 200.562C140.133 200.273 140.413 199.862 140.536 199.366C140.577 199.194 140.597 199.022 140.597 198.853C140.597 197.875 139.935 196.989 138.946 196.747ZM146.716 198.214C146.617 198.199 146.521 198.193 146.425 198.193C145.357 198.193 144.43 198.987 144.284 200.072C144.126 201.259 144.96 202.347 146.145 202.504C146.241 202.516 146.337 202.525 146.433 202.525C146.967 202.525 147.466 202.326 147.851 201.991C148.233 201.658 148.501 201.186 148.574 200.643C148.589 200.544 148.595 200.448 148.595 200.352C148.595 199.284 147.801 198.36 146.716 198.214ZM162.682 198.654H162.606C161.41 198.695 160.474 199.695 160.518 200.891C160.538 201.478 160.789 202 161.18 202.376C161.568 202.752 162.099 202.983 162.679 202.983H162.755C163.922 202.942 164.843 201.976 164.843 200.818V200.743C164.802 199.573 163.84 198.654 162.682 198.654ZM154.594 198.826H154.545C153.372 198.826 152.407 199.763 152.377 200.941C152.351 202.137 153.296 203.128 154.492 203.158H154.542C155.131 203.158 155.665 202.924 156.055 202.542C156.446 202.16 156.694 201.629 156.706 201.04V200.988C156.706 199.818 155.77 198.855 154.594 198.826ZM171.19 199.071C171.059 199.048 170.925 199.036 170.796 199.036C169.77 199.036 168.86 199.763 168.667 200.81C168.451 201.982 169.227 203.111 170.405 203.327C170.537 203.353 170.668 203.365 170.796 203.365C171.31 203.365 171.794 203.181 172.173 202.869C172.555 202.557 172.829 202.113 172.925 201.591C172.949 201.46 172.96 201.329 172.96 201.198C172.96 200.174 172.231 199.261 171.19 199.071ZM179.5 202.767C179.103 202.455 178.63 202.3 178.158 202.3C177.519 202.3 176.886 202.583 176.457 203.125C175.717 204.065 175.88 205.421 176.816 206.168C177.213 206.477 177.685 206.631 178.158 206.631C178.476 206.631 178.797 206.561 179.085 206.421C179.377 206.284 179.642 206.08 179.855 205.809C180.17 205.412 180.322 204.937 180.322 204.467C180.322 203.825 180.042 203.193 179.5 202.767ZM185.272 209.443C184.857 208.793 184.157 208.437 183.44 208.437C183.043 208.437 182.641 208.548 182.282 208.775C181.273 209.417 180.975 210.753 181.617 211.762C181.821 212.088 182.098 212.339 182.416 212.508C182.731 212.678 183.087 212.768 183.446 212.768C183.842 212.768 184.242 212.657 184.604 212.43C185.254 212.015 185.607 211.315 185.607 210.601C185.607 210.204 185.499 209.802 185.272 209.443ZM189.279 216.767C188.897 216.014 188.136 215.58 187.345 215.58C187.019 215.58 186.683 215.655 186.371 215.813C185.304 216.355 184.875 217.659 185.417 218.724C185.61 219.1 185.896 219.398 186.231 219.599C186.567 219.803 186.955 219.911 187.348 219.911C187.681 219.911 188.013 219.835 188.325 219.678C189.078 219.295 189.512 218.534 189.512 217.744C189.512 217.414 189.437 217.082 189.279 216.767ZM193.097 223.726C192.686 223.073 191.983 222.714 191.265 222.714C190.869 222.714 190.472 222.822 190.113 223.046C189.101 223.682 188.798 225.018 189.437 226.03C189.641 226.357 189.921 226.61 190.236 226.783C190.554 226.952 190.91 227.042 191.268 227.042C191.662 227.042 192.062 226.934 192.42 226.71C193.074 226.298 193.432 225.598 193.432 224.878C193.432 224.484 193.325 224.085 193.097 223.726ZM197.717 230.067C197.288 229.556 196.673 229.291 196.052 229.291C195.565 229.291 195.072 229.454 194.666 229.795C193.75 230.56 193.625 231.925 194.392 232.84C194.605 233.1 194.867 233.293 195.153 233.424C195.436 233.555 195.745 233.622 196.055 233.622C196.545 233.622 197.037 233.456 197.44 233.118C197.953 232.689 198.219 232.073 198.219 231.452C198.219 230.962 198.052 230.472 197.717 230.067ZM203.133 235.757C203.13 235.757 203.13 235.757 203.133 235.757C202.713 235.372 202.188 235.183 201.663 235.183C201.08 235.183 200.5 235.416 200.074 235.877C199.26 236.758 199.318 238.125 200.196 238.939C200.61 239.321 201.138 239.511 201.663 239.511C202.247 239.511 202.827 239.278 203.256 238.814C203.641 238.397 203.83 237.869 203.83 237.347C203.83 236.763 203.594 236.183 203.133 235.757ZM209.238 240.704C208.856 240.435 208.418 240.304 207.984 240.304C207.307 240.304 206.642 240.622 206.219 241.217C205.525 242.191 205.758 243.545 206.732 244.236V244.233C207.112 244.504 207.549 244.635 207.984 244.635C208.322 244.635 208.657 244.557 208.961 244.402C209.267 244.248 209.538 244.02 209.748 243.723C210.02 243.343 210.148 242.903 210.148 242.471C210.148 241.792 209.833 241.127 209.238 240.704ZM215.923 244.831C215.599 244.659 215.255 244.577 214.914 244.577C214.138 244.577 213.385 244.997 212.997 245.726C212.435 246.782 212.834 248.092 213.89 248.655C214.214 248.83 214.564 248.908 214.905 248.908C215.29 248.908 215.672 248.803 216.005 248.611C216.337 248.413 216.623 248.127 216.818 247.759C216.99 247.435 217.072 247.088 217.072 246.744C217.072 245.971 216.655 245.222 215.923 244.831ZM223.083 248.06C222.832 247.966 222.579 247.923 222.325 247.923C221.447 247.923 220.622 248.459 220.295 249.328C219.875 250.448 220.444 251.697 221.564 252.117C221.815 252.21 222.071 252.254 222.322 252.254C222.76 252.254 223.185 252.12 223.541 251.878C223.897 251.633 224.186 251.283 224.349 250.848C224.442 250.597 224.486 250.34 224.486 250.09C224.486 249.212 223.95 248.386 223.083 248.06ZM230.594 250.308C230.433 250.27 230.273 250.253 230.112 250.253C229.124 250.253 228.231 250.938 228.004 251.945C227.741 253.108 228.473 254.266 229.64 254.529C229.8 254.567 229.961 254.584 230.118 254.584C230.614 254.584 231.084 254.415 231.457 254.118C231.833 253.82 232.113 253.4 232.227 252.895C232.262 252.735 232.28 252.575 232.28 252.417C232.28 251.428 231.6 250.536 230.594 250.308ZM238.384 251.571C238.305 251.563 238.227 251.56 238.148 251.56C237.057 251.56 236.115 252.379 235.995 253.488C235.864 254.678 236.722 255.745 237.912 255.876C237.99 255.885 238.069 255.891 238.148 255.891C238.693 255.891 239.201 255.687 239.586 255.343C239.971 254.998 240.236 254.517 240.297 253.963C240.306 253.881 240.312 253.803 240.312 253.724C240.312 252.633 239.49 251.697 238.384 251.571ZM246.376 252.184C246.338 252.181 246.3 252.181 246.262 252.181C245.119 252.181 244.162 253.076 244.101 254.231C244.04 255.427 244.958 256.445 246.151 256.509C246.189 256.509 246.23 256.512 246.268 256.512C246.837 256.512 247.362 256.288 247.752 255.917C248.14 255.55 248.394 255.033 248.426 254.456C248.429 254.418 248.429 254.38 248.429 254.342C248.429 253.199 247.534 252.242 246.376 252.184ZM254.502 252.557C254.467 252.554 254.429 252.554 254.394 252.554C253.247 252.554 252.291 253.455 252.232 254.613C252.18 255.736 252.991 256.702 254.082 256.862C254.907 256.34 255.715 255.789 256.502 255.211C256.532 255.086 256.552 254.958 256.558 254.826C256.561 254.791 256.561 254.753 256.561 254.718C256.561 253.569 255.662 252.613 254.502 252.557ZM40.1675 180.507H40.1354C38.9425 180.524 37.9887 181.51 38.0062 182.703C38.015 183.295 38.26 183.829 38.6508 184.214C39.0416 184.599 39.5783 184.835 40.1675 184.835H40.1995C41.3866 184.818 42.3345 183.852 42.3345 182.671V182.639C42.317 181.455 41.3487 180.507 40.1675 180.507ZM48.407 180.623C48.375 180.623 48.3429 180.62 48.3108 180.62C47.1587 180.62 46.1991 181.525 46.1466 182.685C46.0912 183.881 47.0187 184.893 48.2116 184.949C48.2437 184.952 48.2787 184.952 48.3108 184.952C48.8854 184.952 49.4133 184.724 49.8041 184.354C50.192 183.98 50.4458 183.464 50.472 182.884C50.475 182.849 50.475 182.817 50.475 182.782C50.475 181.633 49.5679 180.676 48.407 180.623ZM34.197 182.86C34.127 181.711 33.1704 180.828 32.0358 180.828C31.992 180.828 31.9454 180.828 31.9016 180.83C30.7087 180.906 29.8016 181.93 29.8745 183.126C29.9095 183.698 30.1662 184.205 30.5541 184.57C30.945 184.934 31.4641 185.156 32.0329 185.156C32.0766 185.156 32.1233 185.153 32.17 185.15C33.3191 185.08 34.2 184.129 34.2 182.995C34.2 182.951 34.2 182.904 34.197 182.86ZM56.6845 181.306C56.597 181.294 56.5095 181.291 56.422 181.291C55.3429 181.291 54.4066 182.093 54.2725 183.193C54.1295 184.38 54.9725 185.459 56.1595 185.602C56.247 185.614 56.3375 185.62 56.422 185.62C56.9616 185.62 57.4662 185.418 57.8512 185.08C58.2391 184.742 58.5045 184.266 58.5716 183.718C58.5833 183.63 58.5862 183.543 58.5862 183.455C58.5862 182.376 57.7841 181.44 56.6845 181.306ZM64.9066 182.685C64.752 182.65 64.5975 182.636 64.4458 182.636C63.4483 182.636 62.5529 183.327 62.3341 184.342C62.0804 185.512 62.8212 186.664 63.9879 186.918C64.1425 186.95 64.297 186.967 64.4487 186.967C64.9475 186.967 65.4229 186.795 65.7991 186.495C66.1754 186.194 66.4525 185.768 66.5633 185.261C66.5983 185.106 66.6129 184.952 66.6129 184.8C66.6129 183.803 65.9216 182.904 64.9066 182.685ZM72.98 184.888C72.7525 184.812 72.522 184.777 72.2975 184.777C71.3904 184.777 70.5445 185.351 70.2441 186.258C69.8679 187.393 70.4804 188.618 71.615 188.994C71.8425 189.07 72.0729 189.105 72.3004 189.105C72.7525 189.105 73.19 188.962 73.5516 188.705C73.9133 188.446 74.202 188.078 74.3537 187.623C74.4295 187.399 74.4646 187.168 74.4646 186.941C74.4646 186.034 73.89 185.188 72.98 184.888ZM80.7762 187.997C80.4787 187.857 80.1637 187.79 79.8545 187.79C79.0437 187.79 78.265 188.25 77.8945 189.032C77.387 190.114 77.8479 191.406 78.9329 191.914C79.2304 192.054 79.5425 192.121 79.8516 192.121C80.257 192.121 80.6566 192.007 80.9979 191.794C81.3391 191.581 81.6279 191.269 81.8116 190.878C81.9516 190.581 82.0187 190.266 82.0187 189.957C82.0187 189.143 81.5608 188.367 80.7762 187.997ZM88.1291 191.978C87.7791 191.765 87.3912 191.666 87.0091 191.666C86.277 191.666 85.5625 192.036 85.1541 192.71C84.5358 193.731 84.8625 195.064 85.8862 195.682C86.2391 195.895 86.6241 195.997 87.0062 195.997C87.3708 195.997 87.7325 195.904 88.0562 195.726C88.377 195.551 88.657 195.288 88.8612 194.953C89.0741 194.603 89.1733 194.215 89.1733 193.833C89.1733 193.101 88.8029 192.386 88.1291 191.978ZM95.0562 196.47C94.6829 196.216 94.26 196.096 93.84 196.096C93.1487 196.096 92.4662 196.426 92.0491 197.041C91.3725 198.03 91.632 199.378 92.6179 200.051C92.9912 200.305 93.4141 200.428 93.837 200.428C94.1812 200.428 94.5225 200.346 94.8316 200.185C95.1408 200.025 95.415 199.786 95.625 199.48C95.8787 199.106 96.0012 198.68 96.0012 198.26C96.0012 197.569 95.6716 196.89 95.0562 196.47ZM101.762 201.098C101.388 200.842 100.962 200.719 100.54 200.719C99.8483 200.719 99.1716 201.049 98.7516 201.661C98.0779 202.644 98.3287 203.995 99.3145 204.668C99.6879 204.928 100.114 205.048 100.537 205.048C100.881 205.048 101.222 204.966 101.531 204.808C101.84 204.651 102.115 204.415 102.325 204.108C102.581 203.735 102.704 203.309 102.704 202.886C102.704 202.195 102.374 201.518 101.762 201.098ZM108.479 205.517C108.123 205.298 107.729 205.193 107.341 205.193C106.615 205.193 105.909 205.555 105.498 206.217C104.871 207.235 105.186 208.568 106.201 209.198C106.554 209.42 106.95 209.522 107.338 209.522C107.7 209.522 108.059 209.431 108.377 209.259C108.697 209.084 108.977 208.828 109.182 208.495C109.4 208.139 109.505 207.745 109.505 207.358C109.505 206.634 109.141 205.925 108.479 205.517ZM115.4 209.385C115.094 209.233 114.767 209.16 114.446 209.16C113.647 209.16 112.877 209.603 112.501 210.368C111.976 211.444 112.416 212.739 113.487 213.27C113.796 213.421 114.12 213.491 114.443 213.491C114.84 213.491 115.234 213.38 115.572 213.173C115.91 212.966 116.199 212.666 116.386 212.281C116.537 211.975 116.61 211.648 116.61 211.327C116.61 210.531 116.164 209.761 115.4 209.385ZM122.668 212.482C122.423 212.395 122.172 212.351 121.927 212.351C121.044 212.351 120.215 212.896 119.895 213.774C119.486 214.9 120.067 216.143 121.19 216.551C121.435 216.638 121.682 216.682 121.93 216.682C122.371 216.682 122.802 216.545 123.158 216.297C123.517 216.052 123.806 215.693 123.963 215.256C124.054 215.011 124.095 214.76 124.095 214.515C124.095 213.631 123.546 212.803 122.668 212.482ZM130.231 214.772C130.059 214.728 129.884 214.708 129.712 214.708C128.741 214.708 127.857 215.37 127.615 216.358C127.332 217.519 128.041 218.692 129.205 218.978C129.377 219.018 129.549 219.042 129.721 219.042C130.205 219.042 130.672 218.875 131.045 218.587C131.418 218.298 131.698 217.887 131.821 217.391C131.862 217.219 131.882 217.047 131.882 216.878C131.882 215.9 131.22 215.014 130.231 214.772ZM138.001 216.239C137.902 216.224 137.806 216.218 137.71 216.218C136.639 216.218 135.715 217.012 135.569 218.097C135.411 219.281 136.245 220.369 137.43 220.529C137.523 220.541 137.622 220.55 137.715 220.55C138.249 220.55 138.751 220.351 139.133 220.016C139.518 219.683 139.786 219.211 139.859 218.668C139.871 218.572 139.88 218.476 139.88 218.38C139.88 217.309 139.089 216.382 138.001 216.239ZM153.967 216.679H153.891C152.695 216.72 151.759 217.723 151.8 218.916C151.82 219.503 152.071 220.022 152.462 220.398C152.853 220.774 153.384 221.005 153.964 221.005H154.04C155.21 220.964 156.128 220.004 156.128 218.843V218.768C156.087 217.598 155.125 216.679 153.967 216.679ZM145.879 216.851H145.83C144.654 216.851 143.692 217.788 143.662 218.966C143.633 220.162 144.581 221.15 145.777 221.183H145.827C146.416 221.183 146.95 220.949 147.34 220.567C147.731 220.185 147.979 219.654 147.991 219.065V219.015C147.991 217.846 147.055 216.88 145.879 216.851ZM162.472 217.096C162.341 217.073 162.207 217.061 162.078 217.061C161.055 217.061 160.145 217.788 159.952 218.832C159.736 220.007 160.512 221.136 161.687 221.352C161.822 221.375 161.95 221.39 162.084 221.39C162.597 221.39 163.079 221.206 163.458 220.894C163.837 220.582 164.111 220.138 164.207 219.616C164.234 219.482 164.245 219.351 164.245 219.22C164.245 218.196 163.513 217.289 162.472 217.096ZM170.785 220.792C170.388 220.48 169.915 220.325 169.443 220.325C168.804 220.325 168.171 220.608 167.742 221.15C167.005 222.087 167.159 223.449 168.098 224.19C168.498 224.502 168.97 224.656 169.44 224.656C169.761 224.656 170.079 224.586 170.37 224.446C170.662 224.309 170.927 224.105 171.14 223.834C171.455 223.434 171.607 222.962 171.607 222.489C171.607 221.85 171.324 221.218 170.785 220.792ZM176.557 227.468C176.142 226.818 175.442 226.465 174.725 226.465C174.328 226.465 173.926 226.573 173.567 226.8C172.555 227.442 172.257 228.778 172.899 229.787C173.103 230.113 173.383 230.364 173.698 230.533C174.013 230.703 174.369 230.793 174.728 230.793C175.127 230.793 175.527 230.685 175.886 230.455C176.536 230.04 176.892 229.34 176.892 228.623C176.892 228.226 176.784 227.827 176.557 227.468ZM180.564 234.792C180.182 234.039 179.421 233.605 178.63 233.605C178.301 233.605 177.968 233.68 177.653 233.838C176.589 234.378 176.16 235.684 176.702 236.749C176.895 237.125 177.178 237.423 177.513 237.624C177.852 237.825 178.237 237.933 178.633 237.933C178.963 237.933 179.295 237.857 179.61 237.703C180.363 237.32 180.797 236.559 180.797 235.769C180.797 235.439 180.722 235.107 180.564 234.792ZM184.385 241.751C183.971 241.098 183.268 240.739 182.547 240.739C182.154 240.739 181.754 240.847 181.395 241.071C180.383 241.71 180.08 243.043 180.719 244.055C180.923 244.382 181.203 244.635 181.521 244.808C181.839 244.977 182.195 245.067 182.553 245.067C182.947 245.067 183.344 244.962 183.705 244.735C184.359 244.323 184.717 243.62 184.717 242.903C184.717 242.506 184.61 242.11 184.385 241.751ZM188.999 248.092C188.57 247.581 187.955 247.316 187.337 247.316C186.847 247.316 186.357 247.482 185.951 247.82C185.032 248.585 184.91 249.95 185.677 250.868C185.89 251.125 186.152 251.318 186.435 251.449C186.721 251.58 187.027 251.644 187.34 251.644C187.83 251.644 188.32 251.481 188.728 251.143C189.238 250.711 189.504 250.098 189.504 249.477C189.504 248.99 189.337 248.497 188.999 248.092ZM194.418 253.779C194.001 253.394 193.476 253.208 192.951 253.208C192.365 253.208 191.782 253.441 191.356 253.902C190.545 254.783 190.603 256.15 191.481 256.961C191.895 257.346 192.423 257.536 192.948 257.536C193.529 257.536 194.112 257.3 194.538 256.839C194.923 256.422 195.112 255.897 195.112 255.372C195.112 254.788 194.879 254.208 194.418 253.779ZM200.523 258.729C200.141 258.46 199.703 258.329 199.272 258.329C198.592 258.329 197.924 258.647 197.501 259.242C196.813 260.216 197.04 261.57 198.017 262.258C198.397 262.529 198.834 262.658 199.266 262.658C199.604 262.658 199.942 262.579 200.246 262.424C200.549 262.273 200.823 262.045 201.033 261.748C201.305 261.368 201.433 260.928 201.433 260.496C201.433 259.817 201.118 259.152 200.523 258.729ZM207.205 262.859C206.881 262.687 206.534 262.605 206.19 262.605C205.432 262.605 204.7 263.002 204.306 263.708C205.636 263.923 206.966 264.116 208.299 264.285C207.841 263.32 207.561 263.045 207.205 262.859ZM171.829 250.842C171.426 250.148 170.7 249.763 169.953 249.763C169.583 249.763 169.21 249.856 168.868 250.055C167.833 250.653 167.483 251.98 168.081 253.012C168.282 253.359 168.565 253.628 168.889 253.811C169.215 253.995 169.583 254.091 169.956 254.091C170.324 254.091 170.697 253.998 171.038 253.8C171.732 253.4 172.12 252.671 172.12 251.924C172.12 251.554 172.027 251.183 171.829 250.842ZM167.413 243.755C166.99 243.165 166.325 242.85 165.648 242.85C165.214 242.85 164.773 242.982 164.391 243.256C163.42 243.953 163.195 245.306 163.895 246.278C164.105 246.572 164.377 246.797 164.68 246.951C164.983 247.103 165.319 247.182 165.657 247.182C166.092 247.182 166.532 247.048 166.914 246.773C167.503 246.35 167.818 245.688 167.818 245.012C167.818 244.577 167.687 244.137 167.413 243.755ZM161.276 237.414C160.897 237.148 160.462 237.02 160.034 237.02C159.351 237.02 158.683 237.341 158.26 237.939C157.572 238.919 157.808 240.269 158.788 240.958C159.167 241.223 159.599 241.348 160.031 241.348C160.372 241.348 160.71 241.27 161.017 241.115C161.32 240.96 161.594 240.73 161.801 240.43C162.067 240.05 162.195 239.616 162.195 239.187C162.195 238.505 161.874 237.837 161.276 237.414ZM136.257 234.879H136.187C134.991 234.92 134.055 235.92 134.096 237.113C134.113 237.7 134.364 238.222 134.755 238.601C135.146 238.977 135.677 239.208 136.257 239.208C136.283 239.208 136.307 239.208 136.33 239.205C137.5 239.17 138.424 238.204 138.424 237.04V236.97C138.383 235.801 137.418 234.879 136.257 234.879ZM128.289 234.71C128.23 234.704 128.175 234.704 128.117 234.704C126.997 234.704 126.052 235.568 125.964 236.702C125.874 237.895 126.766 238.936 127.959 239.024C128.015 239.03 128.07 239.033 128.125 239.033C128.685 239.033 129.202 238.817 129.592 238.458C129.98 238.099 130.24 237.598 130.284 237.032C130.287 236.976 130.29 236.924 130.29 236.871C130.29 235.745 129.423 234.798 128.289 234.71ZM146.53 236.215C146.427 235.092 145.482 234.249 144.377 234.249C144.313 234.249 144.246 234.252 144.179 234.258C142.989 234.366 142.108 235.419 142.216 236.609C142.268 237.172 142.528 237.662 142.916 238.015C143.304 238.365 143.817 238.578 144.371 238.578C144.438 238.578 144.502 238.572 144.57 238.569C145.695 238.464 146.538 237.522 146.538 236.413C146.538 236.349 146.535 236.282 146.53 236.215ZM152.768 234.188C152.678 234.176 152.587 234.17 152.497 234.17C151.424 234.17 150.487 234.97 150.35 236.066C150.202 237.253 151.042 238.335 152.226 238.484C152.319 238.496 152.41 238.502 152.503 238.502C153.04 238.502 153.541 238.303 153.923 237.965C154.308 237.63 154.577 237.154 154.644 236.609C154.655 236.515 154.661 236.422 154.661 236.332C154.661 235.258 153.862 234.328 152.768 234.188ZM120.452 233.683C120.317 233.657 120.183 233.645 120.052 233.645C119.031 233.645 118.121 234.375 117.929 235.416C117.71 236.591 118.483 237.72 119.658 237.939C119.792 237.965 119.927 237.977 120.058 237.977C120.568 237.977 121.052 237.796 121.432 237.484C121.811 237.172 122.085 236.728 122.184 236.209C122.21 236.075 122.222 235.941 122.222 235.81C122.222 234.786 121.493 233.876 120.452 233.683ZM112.769 231.823C112.562 231.758 112.349 231.729 112.142 231.729C111.215 231.729 110.354 232.336 110.074 233.272C109.73 234.415 110.377 235.623 111.527 235.967C111.731 236.028 111.941 236.06 112.148 236.06C112.612 236.06 113.061 235.909 113.428 235.64C113.796 235.372 114.082 234.984 114.222 234.518C114.283 234.31 114.312 234.1 114.312 233.896C114.312 232.963 113.708 232.103 112.769 231.823ZM105.34 229.136C105.063 229.02 104.777 228.964 104.495 228.964C103.652 228.964 102.852 229.46 102.5 230.285C102.033 231.385 102.546 232.654 103.649 233.123C103.923 233.24 104.212 233.295 104.492 233.295C104.915 233.295 105.326 233.17 105.673 232.945C106.023 232.718 106.312 232.388 106.487 231.977C106.603 231.7 106.662 231.414 106.662 231.131C106.662 230.288 106.163 229.489 105.34 229.136ZM98.212 225.665C97.8825 225.488 97.5295 225.403 97.1795 225.403C96.4125 225.403 95.6687 225.811 95.275 226.535C94.7062 227.585 95.0912 228.9 96.1441 229.469C96.4708 229.65 96.8266 229.731 97.1766 229.731C97.5616 229.731 97.9379 229.629 98.2675 229.437C98.6 229.244 98.8858 228.964 99.0812 228.603C99.2591 228.273 99.3437 227.92 99.3437 227.57C99.3437 226.803 98.9354 226.059 98.212 225.665ZM91.2587 221.632C90.9087 221.419 90.5208 221.317 90.1358 221.317C89.4037 221.317 88.6891 221.687 88.2837 222.361C87.6654 223.385 87.992 224.715 89.0129 225.336C89.3629 225.546 89.7537 225.648 90.1358 225.648C90.5004 225.648 90.862 225.555 91.1829 225.377C91.5037 225.202 91.7837 224.939 91.9879 224.604C92.2008 224.254 92.3 223.869 92.3 223.487C92.3 222.755 91.9296 222.037 91.2587 221.632ZM84.2995 217.391C83.9525 217.181 83.5675 217.079 83.1883 217.079C82.4533 217.079 81.7358 217.455 81.3304 218.129C80.712 219.153 81.0416 220.483 82.0683 221.098V221.101C82.4183 221.308 82.8004 221.41 83.1825 221.41C83.55 221.41 83.9116 221.317 84.2325 221.139C84.5562 220.961 84.8362 220.698 85.0404 220.363C85.2504 220.013 85.3495 219.628 85.3495 219.249C85.3495 218.514 84.9762 217.796 84.2995 217.391ZM77.1333 213.293C76.8095 213.121 76.4625 213.039 76.1212 213.039C75.3454 213.039 74.5958 213.459 74.205 214.188C73.645 215.244 74.0446 216.557 75.1033 217.117C75.4241 217.289 75.7741 217.37 76.1154 217.37C76.5033 217.37 76.8854 217.265 77.2179 217.07C77.5504 216.875 77.8333 216.586 78.0287 216.221C78.2008 215.898 78.2825 215.55 78.2825 215.206C78.2825 214.43 77.8625 213.681 77.1333 213.293ZM69.5675 209.729C69.302 209.621 69.0279 209.571 68.7595 209.571C67.9021 209.571 67.0912 210.085 66.75 210.928C66.3037 212.036 66.8375 213.296 67.9458 213.745C68.2112 213.853 68.4854 213.903 68.7537 213.903C69.1825 213.903 69.5995 213.774 69.9525 213.541C70.3054 213.308 70.5941 212.969 70.7633 212.549C70.8712 212.284 70.9208 212.01 70.9208 211.738C70.9208 210.881 70.4104 210.07 69.5675 209.729ZM61.6079 207.063C61.4183 207.01 61.2287 206.987 61.042 206.987C60.0912 206.987 59.2162 207.623 58.9537 208.585C58.6387 209.738 59.3212 210.928 60.4762 211.243C60.6658 211.295 60.8554 211.318 61.045 211.318C61.5233 211.318 61.9783 211.161 62.3487 210.881C62.7191 210.601 62.9991 210.201 63.1304 209.72C63.1829 209.53 63.2062 209.338 63.2062 209.148C63.2062 208.198 62.5733 207.323 61.6079 207.063ZM53.4237 205.319C53.31 205.301 53.1962 205.293 53.0825 205.293C52.0354 205.293 51.1166 206.054 50.9475 207.118C50.7608 208.3 51.5629 209.408 52.747 209.598C52.8608 209.612 52.9745 209.624 53.0883 209.624C53.6133 209.624 54.1033 209.434 54.4854 209.11C54.8675 208.787 55.1387 208.332 55.2233 207.798C55.2408 207.684 55.2495 207.568 55.2495 207.457C55.2495 206.407 54.4912 205.488 53.4237 205.319ZM30.8837 206.541C30.805 205.4 29.8541 204.531 28.7312 204.531C28.6787 204.531 28.6233 204.534 28.5708 204.537C27.7833 204.593 27.1212 205.068 26.7916 205.727C27.025 206.66 27.2933 207.591 27.5937 208.513C27.5966 208.524 27.6025 208.539 27.6054 208.55C27.932 208.749 28.317 208.863 28.7225 208.863C28.775 208.863 28.8275 208.86 28.88 208.857C30.0204 208.772 30.8895 207.824 30.8895 206.698C30.8895 206.646 30.8866 206.593 30.8837 206.541ZM45.1375 204.406C45.0879 204.403 45.0412 204.4 44.9916 204.4C43.8629 204.4 42.9091 205.281 42.8333 206.424C42.7545 207.617 43.6616 208.647 44.8516 208.725C44.9012 208.728 44.9508 208.728 44.9975 208.728C45.5633 208.728 46.0825 208.51 46.4733 208.148C46.8612 207.786 47.1179 207.282 47.1558 206.707C47.1587 206.658 47.1616 206.611 47.1616 206.561C47.1616 205.433 46.2808 204.479 45.1375 204.406ZM36.8541 204.187H36.8337C35.6379 204.202 34.6812 205.182 34.6958 206.378C34.7016 206.973 34.9437 207.506 35.3375 207.894C35.7283 208.279 36.265 208.518 36.86 208.518H36.8804C38.0704 208.504 39.0241 207.535 39.0241 206.351V206.331C39.0095 205.141 38.0412 204.187 36.8541 204.187Z" fill="#FFA1BF"/>
<path d="M162.128 149.403C152.354 149.788 146.666 148.677 139.115 143.693C140.611 143.051 141.101 142.993 142.531 140.968C144.403 138.308 146.051 134.73 147.051 130.985L162.527 135.208C161.824 137.107 161.384 138.88 161.162 140.531C161.148 140.58 161.142 140.645 161.139 140.697C160.395 146.116 162.128 149.403 162.128 149.403Z" fill="#FFD9B5"/>
<path d="M161.11 145.711C160.929 144.363 160.871 142.675 161.139 140.7C161.139 140.647 161.148 140.583 161.162 140.531C161.387 138.883 161.825 137.107 162.527 135.208C162.527 135.208 152.561 128.745 150.067 133.715C149.432 134.983 153.582 146.985 161.11 145.711Z" fill="#F2D8C6"/>
<path d="M127.431 167.408C138.377 184.176 173.258 210.697 183.058 207.305C189.982 204.908 185.184 193.959 185.184 193.959C171.601 184.021 158.721 164.281 146.842 154.26C146.842 154.26 124.337 162.663 127.431 167.408Z" fill="#FFD9B5"/>
<path d="M175.906 192.039L183.058 207.302C192.881 207.203 195.048 174.218 192.861 151.544L183.212 150.421C181.41 161.679 174.121 188.183 175.906 192.039ZM142.957 114.899C143.021 112.901 143.846 108.01 141.883 106.75C139.92 105.49 137.418 106.651 136.032 109.754C134.647 112.857 135.691 117.273 139.719 120.484C143.75 123.699 142.913 116.247 142.957 114.899Z" fill="#FFD9B5"/>
<path d="M141.312 116.413C141.574 115.768 140.997 114.651 141.02 113.963C141.09 111.95 142.376 109.795 140.997 109.145C140.174 108.757 138.862 109.209 138.383 110.407C138.736 110.017 140.755 109.314 140.845 110.635C140.95 112.169 140.588 113.566 140.183 114.578C140.078 114.841 139.136 115.576 139.002 115.748C138.287 116.675 140.53 118.338 141.312 116.413Z" fill="#E6C9B3"/>
<path d="M184.951 118.595C181.168 136.5 164.852 142.08 160.054 141.132C149 138.944 139.78 123.734 142.627 110.247C145.821 95.1213 157.87 84.8634 169.393 87.0888C180.914 89.3084 188.148 103.469 184.951 118.595Z" fill="#FFD9B5"/>
<path d="M155.939 106.047C154.002 106.254 152.033 107.409 151.397 108.132C156.009 105.971 160.716 107.925 163.233 109.506C166.118 107.485 158.485 105.773 155.939 106.047ZM182.075 112.405C183.586 113.502 184.668 115.401 184.852 116.302C182.052 112.309 177.21 111.685 174.369 111.799C172.937 108.742 180.092 110.965 182.075 112.405Z" fill="#7D3D12"/>
<path d="M168.023 114.462C167.976 117.317 168.673 119.913 169.452 122.602C169.88 126.394 164.765 126.306 162.571 124.74C164.613 125.542 168.947 125.883 168.612 122.73C167.652 120.129 166.973 117.154 168.023 114.462Z" fill="#F5AD86"/>
<path d="M184.965 90.8834C179.797 79.5492 169.571 81.2526 167.238 80.7276C145.792 75.9034 140.206 100.759 142.671 109.588C142.671 109.588 145.054 108.328 145.5 107.995C149.219 105.248 153.439 101.835 154.967 93.6659C155.058 93.6047 155.151 93.5434 155.244 93.4822C155.32 97.0405 154.568 102.203 150.333 105.793C157.977 106.298 163.939 99.7938 164.053 91.2567C164.059 91.2567 164.064 91.2567 164.07 91.2597C165.281 100.211 170.747 106.391 176.656 107.345C176.656 107.345 174.06 99.4701 174.882 97.0347C174.938 97.0726 176.764 106.528 182.136 111.046C183.061 111.825 186.406 113.374 186.406 113.374C186.406 113.374 190.845 103.778 184.965 90.8834Z" fill="#803D11"/>
<path d="M163.971 90.4429C164.307 92.1812 164.575 93.9458 164.505 95.7483C164.45 97.5391 164.012 99.3854 163.003 100.96C161.982 102.53 160.465 103.737 158.768 104.495C157.076 105.268 155.183 105.595 153.36 105.443C155.177 105.257 156.907 104.717 158.45 103.895C159.981 103.06 161.34 101.92 162.245 100.5C163.169 99.082 163.621 97.405 163.814 95.6929C163.997 93.9779 163.962 92.2133 163.971 90.4429Z" fill="#803D11"/>
<path d="M173.596 119.268C174.255 120.068 175.209 120.718 176.277 121.042C176.877 121.228 177.504 121.307 178.117 121.293C178.54 121.663 178.546 122.077 178.519 122.299C178.884 121.972 178.881 121.526 178.797 121.237C179.001 121.208 179.199 121.167 179.394 121.115C180.229 121.52 180.433 122.17 180.494 122.523C180.897 121.858 180.649 121.15 180.38 120.747C180.52 120.68 180.654 120.607 180.783 120.528C181.398 120.63 181.667 121.015 181.783 121.231C181.882 120.747 181.588 120.348 181.34 120.14C181.556 119.965 181.757 119.776 181.935 119.572C181.019 119.913 180.132 120.187 179.228 120.283C178.327 120.385 177.429 120.31 176.583 120.047C175.737 119.788 174.949 119.341 174.267 118.749C173.579 118.157 173.004 117.431 172.473 116.617C172.54 117.536 172.934 118.469 173.596 119.268ZM159.506 115.421C158.508 115.704 157.356 115.695 156.292 115.354C155.691 115.168 155.131 114.873 154.635 114.511C154.075 114.575 153.836 114.914 153.734 115.109C153.62 114.634 153.877 114.269 154.11 114.077C153.958 113.937 153.818 113.788 153.69 113.636C152.771 113.496 152.237 113.913 151.984 114.17C152.03 113.394 152.637 112.951 153.086 112.776C153.01 112.642 152.94 112.505 152.879 112.368C152.316 112.102 151.876 112.265 151.657 112.376C151.852 111.924 152.319 111.761 152.643 111.729C152.564 111.46 152.506 111.192 152.477 110.924C153.034 111.723 153.608 112.455 154.297 113.05C154.979 113.645 155.764 114.097 156.607 114.363C157.449 114.631 158.351 114.71 159.249 114.61C160.15 114.517 161.037 114.243 161.938 113.878C161.361 114.593 160.506 115.138 159.506 115.421Z" fill="#5E291C"/>
<path d="M165.184 129.853C164.079 129.517 163.216 130.069 163.216 130.069C163.216 130.069 162.79 129.124 161.702 128.794C160.634 128.467 158.949 128.753 157.129 128.45C159.115 130.527 158.71 133.105 161.915 134.082C165.22 135.088 166.506 132.676 169.055 132.052C167.404 131.533 166.042 130.112 165.184 129.853Z" fill="#FF7575"/>
<path d="M157.916 128.937C157.916 128.937 163.478 131.865 168.04 132.049C164.674 132.233 162.353 132.142 157.916 128.937Z" fill="#BD2A2A"/>
<path d="M192.648 153.166C192.963 151.384 195.614 149.199 196.647 147.443C198.242 144.728 197.431 141.969 198.254 138.39C198.577 136.973 187.523 133.58 186.036 135.739C184.548 137.897 183.212 150.424 183.212 150.424L192.648 153.166Z" fill="#FFD9B5"/>
<path d="M192.19 135.759C192.19 135.759 195.853 130.185 196.568 129.576C197.282 128.966 200.497 127.018 202.859 126.464C204.603 126.052 204.163 127.972 202.985 128.622C201.328 129.538 198.213 131.387 198.213 131.387L195.32 136.853L192.19 135.759Z" fill="#FFD9B5"/>
<path d="M188.667 135.47C188.667 135.47 193.269 128.537 193.987 127.928C194.701 127.318 197.554 124.985 199.8 124.063C201.453 123.384 201.483 125.221 200.444 125.883C198.624 127.044 195.813 129.313 195.6 129.704C195.387 130.098 192.348 136.15 192.348 136.15L188.667 135.47Z" fill="#FFD9B5"/>
<path d="M185.905 135.957C185.905 135.957 188.871 129.421 190.18 127.569C191.099 126.271 193.905 123.349 196.265 122.774C198.006 122.351 196.906 124.305 195.932 125.061C194.048 126.519 192.849 128.301 192.639 128.695C192.429 129.089 189.451 135.969 189.451 135.969L185.905 135.957ZM194.99 136.599C194.99 136.599 197.965 132.533 198.531 131.927C199.172 131.241 201.334 130.497 203.679 129.87C205.467 129.392 205.096 131.335 203.915 131.679C202.098 132.207 200.631 133.338 200.301 133.642C199.689 134.202 198.143 138.632 198.143 138.632L194.99 136.599Z" fill="#FFD9B5"/>
<path d="M48.6871 95.9758C56.0692 108.042 59.4758 125.02 49.9471 136.803C43.8075 145.924 30.5717 137.075 32.7912 127.808C33.8733 123.261 38.1842 120.28 40.4504 116.191C44.5921 108.64 41.3633 99.8142 41.4975 91.7233C41.0804 88.7658 44.3675 87.3833 45.8112 90.0783C46.485 92.1754 47.535 94.1004 48.6871 95.9758Z" fill="#470B85"/>
<path d="M224.043 55.1803C224.39 54.0195 223.538 52.742 222.133 52.3657C220.727 51.9895 219.35 52.6749 219.073 53.8533C218.971 54.282 219.023 54.7137 219.193 55.1103C219.131 55.0899 219.067 55.0724 219.006 55.0549C217.635 54.7224 216.308 55.4428 216.057 56.627C215.806 57.8141 216.667 59.0012 217.97 59.3191C219.274 59.6341 220.581 58.9749 220.902 57.8053C221.015 57.3795 220.978 56.9478 220.82 56.5483C220.881 56.5687 220.943 56.5891 221.004 56.6066C222.343 56.9653 223.699 56.3441 224.043 55.1803ZM250.124 66.8791C250.76 65.8495 252.279 65.6337 253.495 66.4357C254.712 67.2349 255.114 68.7195 254.42 69.7112C254.169 70.0728 253.81 70.3208 253.402 70.4578C253.458 70.4899 253.513 70.5249 253.568 70.5628C254.729 71.3649 255.07 72.8349 254.353 73.812C253.635 74.7891 252.174 74.9349 251.072 74.1737C249.969 73.4095 249.593 71.9949 250.255 70.977C250.497 70.6095 250.844 70.3499 251.247 70.2041C251.191 70.172 251.136 70.1399 251.08 70.1049C249.923 69.3378 249.485 67.9116 250.124 66.8791Z" fill="#D3FB8F"/>
<path d="M208.337 59.8092C211.353 60.375 214.018 60.97 216.935 61.81C217.215 60.6317 217.446 59.4329 217.726 58.2546C215.176 57.7704 212.493 57.3358 209.912 57.05C209.358 56.9887 208.206 59.1208 208.337 59.8092ZM257.147 81.7221C254.72 79.8467 252.55 78.2746 249.981 76.6529C250.675 75.6583 251.372 74.6667 252.066 73.6721C254.123 75.2529 256.231 76.9737 258.159 78.7092C258.576 79.0825 257.751 81.3633 257.147 81.7221Z" fill="#D3FB8F"/>
<path d="M240.327 77.5979C239.431 77.0729 238.597 76.3963 237.833 75.5796C236.914 74.5967 236.401 73.5175 235.929 72.5667C235.296 71.295 234.762 70.28 233.339 69.5742C231.869 68.9763 230.754 69.2504 229.384 69.6238C228.357 69.9038 227.211 70.2363 225.866 70.2013C224.746 70.1721 223.687 69.9971 222.699 69.6763C219.551 68.6408 217.189 66.0333 216.912 63.0817C216.716 60.6988 217.542 57.3563 220.228 55.4283C224.285 52.4913 231.857 54.1625 238.834 57.3504C245.848 60.4508 252.125 65.0067 252.621 69.9913C252.962 73.2783 251.011 76.1163 249.097 77.5513C246.709 79.3042 243.188 79.2633 240.327 77.5979Z" fill="#D3FB8F"/>
<path d="M249.485 68.848C249.094 65.1934 244.334 61.5738 238.294 58.8817C232.271 56.1488 226.403 54.9938 223.41 57.1259C221.54 58.4413 220.709 60.9205 220.852 62.8951C221.083 65.4355 223.55 68.008 227.543 68.0984C229.975 68.1742 231.615 66.5322 234.353 67.6463C237.002 68.953 236.865 71.2717 238.536 73.0392C241.254 75.9647 244.815 76.1047 246.869 74.5909C248.441 73.3892 249.742 71.1201 249.485 68.848Z" fill="#FF6992"/>
<path d="M228.453 206.386L215.614 199.366C215.392 199.243 215.31 198.966 215.433 198.744L228.109 175.566C228.231 175.344 228.508 175.262 228.73 175.385L241.569 182.405C241.791 182.528 241.873 182.805 241.75 183.027L229.074 206.205C228.952 206.424 228.675 206.506 228.453 206.386Z" fill="white"/>
<path d="M242.097 180.737L229.841 174.034C229.01 173.579 227.966 173.886 227.511 174.717L214.943 197.703C214.695 198.158 214.675 198.674 214.841 199.127C214.847 199.141 214.853 199.156 214.858 199.17C215.001 199.526 215.264 199.835 215.625 200.034L227.881 206.736C228.243 206.934 228.645 206.99 229.022 206.917C229.509 206.824 229.955 206.523 230.212 206.054L242.78 183.067C243.235 182.236 242.928 181.192 242.097 180.737ZM229.719 205.021C229.24 205.896 228.155 206.22 227.295 205.75L216.772 199.996C215.911 199.526 215.599 198.435 216.077 197.56L227.511 176.651C227.808 176.108 228.482 175.904 229.019 176.199L240.72 182.598C241.257 182.889 241.45 183.569 241.152 184.112L229.719 205.021Z" fill="#A56EDB"/>
<path d="M230.185 175.595C230.04 175.863 229.704 175.96 229.436 175.814C229.168 175.668 229.071 175.332 229.217 175.064C229.363 174.796 229.698 174.697 229.967 174.845C230.235 174.991 230.331 175.327 230.185 175.595Z" fill="white"/>
<path d="M230.028 175.51C229.929 175.691 229.701 175.758 229.521 175.659C229.34 175.56 229.273 175.332 229.372 175.152C229.471 174.971 229.698 174.904 229.879 175.003C230.063 175.102 230.127 175.33 230.028 175.51Z" fill="#A56EDB"/>
<path d="M231.177 176.138C231.078 176.318 230.851 176.386 230.67 176.286C230.489 176.187 230.422 175.96 230.521 175.779C230.62 175.598 230.848 175.531 231.028 175.63C231.212 175.729 231.276 175.957 231.177 176.138Z" fill="white"/>
<path d="M228.759 182.805C228.412 182.892 228.074 182.846 227.747 182.668C227.421 182.49 227.199 182.23 227.085 181.889C226.971 181.551 227.015 181.195 227.219 180.825C227.421 180.454 227.689 180.215 228.024 180.11C228.357 180.005 228.707 180.052 229.069 180.25C229.43 180.448 229.658 180.717 229.751 181.055C229.841 181.393 229.786 181.746 229.585 182.117C229.381 182.49 229.106 182.717 228.759 182.805ZM228.923 181.037C228.949 180.9 228.911 180.801 228.803 180.743C228.695 180.685 228.59 180.705 228.491 180.801C228.389 180.897 228.272 181.07 228.138 181.315C227.879 181.787 227.841 182.073 228.021 182.172C228.202 182.271 228.424 182.085 228.681 181.612C228.815 181.367 228.894 181.177 228.923 181.037ZM231.058 184.427L229.144 183.38L229.348 183.006C229.386 182.995 229.483 182.962 229.643 182.913C229.803 182.863 229.926 182.825 230.011 182.793C230.095 182.761 230.203 182.72 230.329 182.671C230.576 182.566 230.734 182.449 230.804 182.324C230.909 182.131 230.868 181.985 230.678 181.88C230.568 181.819 230.433 181.781 230.279 181.767L230.401 181.285C230.544 181.28 230.711 181.3 230.9 181.341C231.09 181.385 231.247 181.44 231.373 181.507C231.498 181.574 231.603 181.65 231.696 181.729C231.787 181.807 231.866 181.901 231.936 182.003C232.003 182.108 232.041 182.222 232.043 182.347C232.046 182.472 232.014 182.601 231.944 182.729C231.737 183.102 231.236 183.307 230.445 183.339L230.439 183.406L231.451 183.715L231.058 184.427ZM232.297 182.776C232.373 182.75 232.461 182.764 232.56 182.817C232.656 182.869 232.714 182.936 232.735 183.015C232.755 183.094 232.743 183.172 232.7 183.251C232.656 183.33 232.595 183.382 232.519 183.409C232.443 183.435 232.356 183.42 232.256 183.368C232.16 183.315 232.102 183.248 232.081 183.17C232.061 183.091 232.073 183.012 232.116 182.933C232.16 182.855 232.221 182.802 232.297 182.776ZM231.556 184.135C231.632 184.109 231.72 184.123 231.819 184.176C231.915 184.228 231.973 184.295 231.994 184.374C232.014 184.453 232.003 184.532 231.959 184.61C231.915 184.689 231.854 184.742 231.778 184.768C231.702 184.794 231.615 184.78 231.516 184.727C231.419 184.675 231.361 184.607 231.341 184.529C231.32 184.45 231.332 184.371 231.376 184.292C231.419 184.214 231.478 184.161 231.556 184.135ZM234.152 185.754C233.805 185.841 233.467 185.795 233.14 185.617C232.813 185.439 232.592 185.179 232.478 184.838C232.364 184.5 232.408 184.144 232.612 183.773C232.813 183.403 233.082 183.164 233.417 183.059C233.75 182.954 234.1 183 234.461 183.199C234.823 183.397 235.051 183.665 235.144 184.004C235.234 184.342 235.179 184.695 234.978 185.065C234.774 185.439 234.499 185.666 234.152 185.754ZM234.316 183.986C234.342 183.849 234.304 183.75 234.196 183.692C234.088 183.633 233.983 183.654 233.884 183.75C233.782 183.846 233.665 184.018 233.531 184.263C233.271 184.736 233.233 185.022 233.414 185.121C233.595 185.22 233.817 185.033 234.073 184.561C234.208 184.316 234.286 184.123 234.316 183.986ZM236.669 187.13C236.322 187.218 235.984 187.171 235.657 186.993C235.331 186.815 235.109 186.556 234.995 186.215C234.881 185.876 234.925 185.52 235.129 185.15C235.331 184.78 235.599 184.54 235.934 184.435C236.267 184.33 236.617 184.377 236.979 184.575C237.34 184.774 237.568 185.042 237.661 185.38C237.754 185.719 237.696 186.072 237.495 186.442C237.291 186.812 237.016 187.043 236.669 187.13ZM236.83 185.363C236.856 185.226 236.818 185.127 236.71 185.068C236.602 185.01 236.497 185.03 236.398 185.127C236.296 185.223 236.179 185.395 236.045 185.64C235.786 186.112 235.748 186.398 235.928 186.497C236.109 186.597 236.331 186.41 236.588 185.937C236.722 185.692 236.804 185.5 236.83 185.363Z" fill="#FF6992"/>
<path d="M234.301 191.602L224.895 186.457C224.644 186.319 224.329 186.413 224.192 186.664L223.676 187.606C223.538 187.857 223.632 188.172 223.883 188.309L233.289 193.454C233.54 193.591 233.855 193.497 233.992 193.247L234.508 192.304C234.642 192.054 234.552 191.739 234.301 191.602ZM232.44 195.002L223.034 189.857C222.783 189.72 222.468 189.814 222.331 190.064L221.815 191.007C221.678 191.257 221.771 191.572 222.022 191.709L231.428 196.854C231.679 196.992 231.994 196.898 232.131 196.647L232.647 195.705C232.784 195.454 232.691 195.139 232.44 195.002ZM230.582 198.403L221.176 193.258C220.925 193.121 220.61 193.214 220.473 193.465L219.957 194.407C219.82 194.658 219.913 194.973 220.164 195.11L229.57 200.255C229.821 200.392 230.136 200.299 230.273 200.048L230.789 199.106C230.923 198.855 230.833 198.54 230.582 198.403Z" fill="#C6F1F5"/>
<path d="M98.667 62.3758C98.5387 62.2271 98.3258 62.02 98.0079 61.8216L97.7483 60.5471L96.0916 61.0837L95.8379 59.8762C95.8379 59.8762 82.4562 64.1375 81.6425 67.2437C79.3208 65.0271 65.6912 68.4162 65.6912 68.4162L66.1083 69.58L64.4166 69.9912L64.8658 71.2133C64.6966 71.5487 64.6237 71.8375 64.5945 72.03C64.5712 72.1758 64.5858 72.3246 64.6383 72.4616L71.4341 90.8337C79.9479 88.0104 84.2266 88.6083 85.4079 88.8854C85.6441 88.9408 85.8979 88.9029 86.1079 88.7775L86.8166 88.3604C87.2687 88.0921 87.785 87.9462 88.31 87.9375L89.1325 87.92C89.3775 87.9141 89.6137 87.815 89.7858 87.6458C90.6462 86.7912 93.9741 84.035 102.704 81.9787L98.8566 62.7696C98.8275 62.6237 98.7633 62.4896 98.667 62.3758Z" fill="#AC99C7"/>
<path d="M103.34 61.6059C102.712 60.6054 99.3087 56.9654 85.9474 65.2079C70.947 60.5734 68.5641 64.9513 68.2083 66.0771C68.1645 66.2171 68.1558 66.3659 68.1879 66.5117L72.1749 85.6917C81.0124 84.1663 85.157 85.3942 86.2829 85.8463C86.5074 85.9367 86.7641 85.9367 86.9916 85.8434L87.7558 85.5371C88.2429 85.3417 88.7737 85.2717 89.2958 85.3417L90.1124 85.4467C90.3545 85.4788 90.6054 85.4146 90.7979 85.2717C91.7749 84.5542 95.4791 82.3259 104.416 81.5879L103.471 62.0229C103.462 61.8742 103.418 61.7313 103.34 61.6059Z" fill="#4FC6D1"/>
<path d="M89.5846 61.8362C87.3621 62.2037 85.825 64.2483 86.1021 66.4242C85.825 64.2483 83.8271 62.6529 81.5813 62.8541L68.3367 64.0383L72.5979 84.8166C78.9621 83.7754 84.4279 84.6971 86.0496 85.0296C86.3121 85.0821 86.595 85.0296 86.7992 84.8692C87.2046 84.5454 87.6858 84.5979 88.0213 84.7058C88.2896 84.7904 88.5842 84.7525 88.8204 84.6037C89.1208 84.4171 89.57 84.245 90.0454 84.455C90.2846 84.56 90.5704 84.5425 90.8125 84.4229C92.3029 83.6937 97.3604 81.4304 103.783 80.8441L102.701 59.6604L89.5846 61.8362Z" fill="#F0E7CC"/>
<path d="M85.7783 63.8867C83.8125 61.3492 69.83 62.6734 69.83 62.6734L73.8929 83.2738C81.695 82.0488 86.067 83.1484 87.645 83.7142C88.0708 83.8659 88.555 83.7988 88.9195 83.5334C90.2845 82.5417 94.2337 80.2405 102.129 79.4675L100.913 58.7155C100.913 58.7155 87.047 60.938 85.7783 63.8867Z" fill="#FFFEFC"/>
<path d="M84.3609 65.1438C84.3492 65.1438 84.3375 65.1438 84.3259 65.1409C79.0905 63.773 72.9567 64.8142 72.8955 64.8259C72.8459 64.8347 72.7963 64.8026 72.7846 64.753C72.773 64.7034 72.805 64.6567 72.8546 64.648C72.9159 64.6363 79.0934 63.5863 84.3725 64.9688C84.4221 64.9805 84.4484 65.0301 84.4367 65.0767C84.425 65.1147 84.3959 65.138 84.3609 65.1438ZM84.6117 67.0222C84.6 67.0222 84.5884 67.0222 84.5767 67.0192C79.385 65.6601 73.298 66.6692 73.2367 66.678C73.1871 66.6867 73.1405 66.6547 73.1288 66.6051C73.1171 66.5584 73.1492 66.5117 73.1959 66.503C73.2571 66.4913 79.388 65.4763 84.6205 66.8472C84.6671 66.8588 84.6963 66.9084 84.6846 66.9551C84.6788 66.993 84.6467 67.0192 84.6117 67.0222ZM84.8625 68.8713C84.8509 68.8713 84.8392 68.8713 84.8275 68.8684C79.6796 67.518 73.6363 68.4951 73.578 68.5038C73.5284 68.5097 73.4817 68.4805 73.47 68.4338C73.4584 68.3872 73.4905 68.3405 73.5371 68.3347C73.5984 68.3259 79.6825 67.343 84.8713 68.7051C84.918 68.7167 84.9471 68.7634 84.9325 68.8101C84.9267 68.8422 84.8946 68.8684 84.8625 68.8713ZM85.1046 70.6884C85.093 70.6884 85.0813 70.6884 85.0696 70.6855C79.9625 69.3467 73.9659 70.2888 73.9075 70.2976C73.858 70.3034 73.8113 70.2742 73.8025 70.2276C73.7909 70.1809 73.823 70.1372 73.8696 70.1284C73.9309 70.1197 79.9684 69.1688 85.1163 70.5192C85.163 70.5309 85.1892 70.5776 85.1775 70.6242C85.1688 70.6622 85.1396 70.6855 85.1046 70.6884ZM85.3467 72.4763C85.335 72.4763 85.3234 72.4763 85.3117 72.4734C80.2455 71.1434 74.2955 72.0563 74.2371 72.0651C74.1875 72.0738 74.1438 72.0417 74.1321 71.9951C74.1234 71.9484 74.1525 71.9047 74.1992 71.8988C74.2605 71.8901 80.2513 70.9713 85.3584 72.313C85.405 72.3247 85.4313 72.3713 85.4196 72.4151C85.408 72.4501 85.3788 72.4734 85.3467 72.4763ZM85.583 74.2351C85.5713 74.2351 85.5596 74.2351 85.548 74.2322C80.5225 72.9109 74.6163 73.7917 74.558 73.8034C74.5113 73.8122 74.4646 73.7801 74.4559 73.7334C74.4471 73.6897 74.4763 73.6459 74.523 73.6372C74.5813 73.6284 80.5313 72.7388 85.5946 74.0717C85.6413 74.0834 85.6675 74.1301 85.653 74.1738C85.6442 74.2088 85.615 74.2322 85.583 74.2351ZM85.8163 75.9676C85.8046 75.9676 85.793 75.9676 85.7813 75.9647C80.7967 74.6522 74.9342 75.5038 74.8759 75.5126C74.8292 75.5213 74.7825 75.4893 74.7738 75.4455C74.765 75.4018 74.7942 75.358 74.8409 75.3522C74.8992 75.3434 80.8055 74.483 85.828 75.8072C85.8746 75.8188 85.9009 75.8626 85.8863 75.9063C85.8775 75.9413 85.8484 75.9617 85.8163 75.9676ZM86.0438 77.6709C86.0321 77.6709 86.0205 77.6709 86.0088 77.668C81.0621 76.3642 75.2434 77.1897 75.185 77.1984C75.1384 77.2072 75.0917 77.1751 75.083 77.1313C75.0742 77.0876 75.1034 77.0468 75.15 77.0409C75.2084 77.0322 81.0709 76.2009 86.0525 77.5163C86.0963 77.528 86.1225 77.5717 86.1109 77.6155C86.105 77.6447 86.0759 77.6651 86.0438 77.6709ZM86.2684 79.3451C86.2567 79.3451 86.245 79.3451 86.2334 79.3422C81.3275 78.0472 75.5496 78.8434 75.4913 78.8522C75.4446 78.858 75.4009 78.8288 75.3921 78.7851C75.3834 78.7413 75.4125 78.7005 75.4592 78.6947C75.5175 78.6859 81.3363 77.8838 86.28 79.1905C86.3238 79.2022 86.35 79.2459 86.3355 79.2867C86.3296 79.3188 86.3005 79.3422 86.2684 79.3451ZM86.49 80.9959C86.4784 80.9959 86.4667 80.9959 86.455 80.993C81.5871 79.7067 75.85 80.4767 75.7946 80.4855C75.748 80.4913 75.7042 80.4622 75.6955 80.4213C75.6867 80.3776 75.7188 80.3397 75.7625 80.3338C75.8209 80.3251 81.5959 79.5492 86.5017 80.8472C86.5455 80.8588 86.5717 80.9026 86.5571 80.9434C86.5513 80.9697 86.5221 80.9901 86.49 80.9959Z" fill="#F0E7CC"/>
<path d="M87.2221 64.7792C87.1871 64.7851 87.1521 64.7676 87.1316 64.7355C87.1083 64.6917 87.1229 64.6392 87.1666 64.613C91.9296 61.953 98.1712 61.4221 98.2354 61.4163C98.285 61.4134 98.3258 61.4484 98.3287 61.5009C98.3287 61.5505 98.2908 61.5942 98.2412 61.6001C98.18 61.6059 91.9791 62.1338 87.2571 64.7705C87.2454 64.7734 87.2337 64.7763 87.2221 64.7792ZM87.4496 66.6605C87.4146 66.6663 87.3796 66.6488 87.3621 66.6167C87.3387 66.5759 87.3533 66.5205 87.3971 66.4971C92.1191 63.8576 98.3083 63.3063 98.3696 63.3005C98.4191 63.2976 98.46 63.3326 98.4629 63.3821C98.4629 63.4317 98.425 63.4755 98.3754 63.4784C98.3141 63.4842 92.1687 64.0326 87.4846 66.6488C87.4729 66.6576 87.4612 66.6605 87.4496 66.6605ZM87.6741 68.5126C87.6391 68.5184 87.6041 68.5009 87.5866 68.4688C87.5633 68.428 87.5779 68.3755 87.6216 68.3521C92.3029 65.733 98.4396 65.1613 98.5008 65.1555C98.5504 65.1526 98.5912 65.1876 98.5912 65.2342C98.5941 65.2838 98.5533 65.3246 98.5066 65.3305C98.4454 65.3363 92.3525 65.9051 87.7091 68.5009C87.6975 68.5067 87.6858 68.5126 87.6741 68.5126ZM87.8958 70.3326C87.8608 70.3355 87.8258 70.3209 87.8083 70.2917C87.785 70.2509 87.7996 70.1984 87.8404 70.1751C92.4837 67.5763 98.5679 66.9842 98.6291 66.9784C98.6787 66.9726 98.7196 67.0076 98.7196 67.0571C98.7225 67.1038 98.6816 67.1446 98.635 67.1505C98.5737 67.1563 92.5333 67.7455 87.9279 70.3209C87.9191 70.3296 87.9075 70.3326 87.8958 70.3326ZM88.1146 72.1263C88.0796 72.1292 88.0475 72.1146 88.03 72.0855C88.0066 72.0446 88.0212 71.9951 88.0621 71.9717C92.6675 69.3934 98.6991 68.7809 98.7604 68.7751C98.81 68.7692 98.8479 68.8042 98.8508 68.8509C98.8537 68.8976 98.8158 68.9384 98.7662 68.9442C98.705 68.9501 92.7171 69.5567 88.1496 72.1146C88.135 72.1205 88.1262 72.1234 88.1146 72.1263ZM88.3275 73.888C88.2954 73.8909 88.2604 73.8763 88.2429 73.8501C88.2196 73.8121 88.2341 73.7596 88.275 73.7363C92.8425 71.1755 98.8246 70.5455 98.8829 70.5396C98.9296 70.5338 98.9704 70.5688 98.9733 70.6155C98.9762 70.6621 98.9383 70.703 98.8916 70.7088C98.8333 70.7146 92.8921 71.3417 88.3625 73.8792C88.3508 73.8821 88.3391 73.8851 88.3275 73.888ZM88.5375 75.6205C88.5054 75.6234 88.4704 75.6117 88.4529 75.5826C88.4296 75.5446 88.4441 75.4951 88.485 75.4717C93.0146 72.9313 98.9471 72.2838 99.0054 72.278C99.0521 72.2721 99.0929 72.3071 99.0958 72.3509C99.0987 72.3976 99.0608 72.4384 99.0141 72.4413C98.9558 72.4471 93.0641 73.0917 88.5696 75.6117C88.5608 75.6146 88.5491 75.6176 88.5375 75.6205ZM88.7446 77.3267C88.7125 77.3296 88.6775 77.318 88.66 77.2888C88.6366 77.2509 88.6512 77.2013 88.6921 77.1809C93.1866 74.658 99.0666 73.993 99.1279 73.9871C99.1746 73.9813 99.2154 74.0134 99.2183 74.0601C99.2212 74.1038 99.1833 74.1476 99.1366 74.1505C99.0783 74.1563 93.2362 74.8184 88.7796 77.318C88.7679 77.3209 88.7562 77.3238 88.7446 77.3267ZM88.9487 79.0038C88.9166 79.0067 88.8846 78.9951 88.8671 78.9659C88.8437 78.928 88.8583 78.8813 88.8962 78.858C93.3529 76.3555 99.1891 75.673 99.2475 75.6671C99.2941 75.6613 99.335 75.6934 99.335 75.7371C99.3379 75.7809 99.3 75.8217 99.2562 75.8276C99.1979 75.8334 93.4054 76.51 88.9808 78.9921C88.9721 78.998 88.9604 79.0038 88.9487 79.0038ZM89.15 80.6576C89.1179 80.6605 89.0858 80.6488 89.0683 80.6226C89.045 80.5876 89.0596 80.538 89.0975 80.5176C93.5191 78.0326 99.3058 77.3355 99.3641 77.3296C99.4108 77.3238 99.4487 77.3559 99.4516 77.3996C99.4546 77.4434 99.4196 77.4784 99.3729 77.4871C99.3146 77.493 93.5687 78.1871 89.1821 80.6517C89.1704 80.6517 89.1616 80.6546 89.15 80.6576Z" fill="#F0E7CC"/>
<path d="M256.342 112.502C254.802 112.166 253.609 110.947 253.306 109.401L252.728 106.452L252.09 109.39C251.754 110.93 250.535 112.122 248.989 112.426L246.04 113.003L248.977 113.642C250.518 113.977 251.71 115.197 252.014 116.742L252.591 119.691L253.23 116.754C253.565 115.214 254.785 114.021 256.33 113.718L259.279 113.14L256.342 112.502ZM95.5054 103.413C93.9654 103.078 92.7725 101.859 92.4692 100.313L91.8917 97.3641L91.2529 100.301C90.9175 101.841 89.6983 103.034 88.1525 103.337L85.2037 103.915L88.1408 104.554C89.6808 104.889 90.8737 106.108 91.1771 107.654L91.7546 110.603L92.3933 107.666C92.7287 106.126 93.9479 104.933 95.4937 104.63L98.4425 104.052L95.5054 103.413Z" fill="#D3FB8F"/>
<path d="M240.505 138.825C240.117 138.74 239.816 138.434 239.74 138.043L239.595 137.299L239.434 138.04C239.35 138.428 239.043 138.728 238.652 138.804L237.909 138.95L238.65 139.11C239.037 139.195 239.338 139.501 239.414 139.892L239.56 140.636L239.72 139.895C239.805 139.507 240.111 139.207 240.502 139.131L241.245 138.985L240.505 138.825ZM189.938 55.6878C189.55 55.6033 189.25 55.297 189.174 54.9062L189.028 54.1624L188.868 54.9033C188.783 55.2912 188.477 55.5916 188.086 55.6674L187.342 55.8133L188.083 55.9737C188.471 56.0583 188.772 56.3645 188.847 56.7553L188.993 57.4991L189.154 56.7583C189.238 56.3703 189.545 56.0699 189.935 55.9941L190.679 55.8483L189.938 55.6878ZM102.304 52.1208C101.916 52.0362 101.616 51.7299 101.54 51.3391L101.394 50.5953L101.234 51.3362C101.149 51.7241 100.843 52.0245 100.452 52.1003L99.7083 52.2462L100.449 52.4066C100.837 52.4912 101.137 52.7974 101.213 53.1883L101.359 53.932L101.519 53.1912C101.604 52.8033 101.91 52.5028 102.301 52.427L103.045 52.2812L102.304 52.1208Z" fill="white"/>
<path d="M241.671 164.436C240.796 164.246 240.117 163.552 239.945 162.674L239.618 160.997L239.256 162.665C239.067 163.54 238.372 164.22 237.495 164.392L235.817 164.719L237.486 165.08C238.361 165.27 239.04 165.964 239.212 166.842L239.539 168.519L239.901 166.851C240.09 165.976 240.785 165.296 241.662 165.124L243.34 164.798L241.671 164.436ZM90.1533 39.7512C89.2783 39.5617 88.5987 38.8675 88.4266 37.9896L88.1 36.3125L87.7383 37.9808C87.5487 38.8558 86.8546 39.5354 85.9766 39.7075L84.2996 40.0342L85.9679 40.3958C86.8429 40.5854 87.5225 41.2796 87.6946 42.1575L88.0212 43.8346L88.3829 42.1663C88.5725 41.2913 89.2666 40.6117 90.1446 40.4396L91.8216 40.1129L90.1533 39.7512Z" fill="#FF6992"/>
<path d="M154.221 40.8451C158.899 40.9676 163.096 36.2863 162.466 31.6488C161.836 27.0113 156.545 23.6163 152.068 24.9784C151.435 22.8434 149.51 21.1517 147.314 20.793C145.118 20.4342 142.755 21.4317 141.478 23.2546C140.997 18.4596 136.275 14.4988 131.468 14.8576C126.661 15.2163 122.581 19.8305 122.814 24.6459C120.44 23.9546 118.372 25.5938 119.673 28.6592C116.602 29.5051 114.397 32.6113 114.332 35.7963C114.268 38.9813 116.187 42.0526 118.938 43.6567C121.688 45.2609 125.147 45.4563 128.175 44.4705C128.601 46.4801 130.187 48.2009 132.156 48.7901C134.125 49.3763 136.397 48.8076 137.855 47.358C137.762 50.263 140.291 52.9959 143.193 53.133C146.095 53.2701 148.869 50.7851 149.05 47.8859C152.491 48.0376 155.641 43.9834 154.221 40.8451ZM144.336 57.7821C143.546 59.3746 144.176 61.5096 145.681 62.4576C147.186 63.4055 149.35 63.0701 150.537 61.7488C151.669 60.4888 151.893 58.1846 151.039 56.7001C150.231 55.3001 148.227 55.2417 146.859 55.6967C145.806 56.0467 144.838 56.7759 144.336 57.7821ZM151.202 66.6401C150.455 67.0892 150.251 68.2121 150.753 68.9238C151.255 69.6355 152.34 69.828 153.083 69.3759C153.705 68.9967 154.127 68.1217 153.938 67.3984C153.78 66.7888 153.162 66.5321 152.596 66.4417C152.124 66.363 151.622 66.3863 151.202 66.6401Z" fill="#8679E8"/>
<path d="M140.218 35.2216C139.833 34.8162 139.325 34.822 138.797 34.7754C138.34 34.7345 137.882 34.7199 137.424 34.7345C137.047 34.7462 136.674 34.7783 136.301 34.8249C136.937 33.6874 137.57 32.5499 138.205 31.4124C139.098 29.8112 140.025 28.2099 140.839 26.5679C141.113 26.0137 140.629 25.4479 140.043 25.5791C137.29 26.1916 134.51 26.6933 131.754 27.297C131.328 27.3904 131.439 28.1137 131.876 28.0583C134.227 27.7666 136.569 27.4049 138.917 27.0929C138.22 28.277 137.561 29.4874 136.893 30.6833C135.995 32.2874 135.096 33.8916 134.201 35.4958C133.868 36.0879 134.452 36.747 135.076 36.5837C135.884 36.3766 136.7 36.2599 137.535 36.2395C137.949 36.2308 138.366 36.2395 138.777 36.2774C138.972 36.2949 139.162 36.3241 139.355 36.3504C139.64 36.3854 139.853 36.3066 140.107 36.1783C140.477 35.9945 140.469 35.4841 140.218 35.2216ZM151.762 39.1416C151.418 38.8499 150.925 38.7274 150.496 38.5933C150.085 38.462 149.668 38.3483 149.248 38.2549C148.883 38.1733 148.516 38.1091 148.145 38.0537C148.495 37.7095 148.84 37.3566 149.178 37.0008C149.84 36.2979 150.525 35.5833 151.068 34.7812C151.348 34.367 150.934 33.9383 150.534 33.9033C148.945 33.772 147.361 33.9004 145.859 34.4633C145.48 34.6062 145.643 35.1633 146.04 35.067C147.127 34.8045 148.271 34.7083 149.385 34.857C148.991 35.2858 148.609 35.7262 148.204 36.1433C147.55 36.8199 146.874 37.4733 146.177 38.1033C145.707 38.5291 146.147 39.1941 146.675 39.2291C147.457 39.2787 148.233 39.3924 148.997 39.5674C149.376 39.6549 149.755 39.757 150.129 39.8737C150.531 39.9991 150.931 40.2062 151.351 40.2237C151.876 40.2441 152.162 39.4829 151.762 39.1416ZM128.076 38.8412C127.752 38.7829 127.422 38.8149 127.096 38.8266C126.953 38.8324 126.81 38.8354 126.67 38.8412C126.62 38.8441 126.565 38.8412 126.51 38.8383C126.594 38.6545 126.685 38.4766 126.778 38.2958C127.288 37.3187 127.915 36.4145 128.598 35.5512C128.968 35.0816 128.61 34.367 127.98 34.5362C127.525 34.6587 127.099 34.8687 126.647 34.9999C126.224 35.1254 125.807 35.2683 125.395 35.4287C124.555 35.7583 123.745 36.1841 122.963 36.6391C122.721 36.7791 122.942 37.1291 123.187 37.0066C123.975 36.6129 124.795 36.3299 125.64 36.0908C126.011 35.9858 126.387 35.8924 126.766 35.8195C126.195 36.5837 125.702 37.412 125.29 38.2637C125.145 38.5641 125.002 38.8733 125.01 39.2145C125.022 39.6462 125.296 40.0166 125.705 40.1537C126.069 40.2762 126.492 40.2179 126.871 40.212C127.28 40.2033 127.711 40.2354 128.111 40.142C128.752 39.9933 128.726 38.9579 128.076 38.8412Z" fill="white"/>
<path d="M267.341 167.035C274.344 145.44 300.483 152.594 289.954 169.957C286.518 175.621 278.281 178.914 277.082 192.832C276.829 195.796 277.339 198.791 277.036 201.749C276.327 207.535 273.031 210.892 270.196 203.61C265.139 192.701 263.648 178.424 267.341 167.035Z" fill="#470B85"/>
<path d="M279.641 224.021C282.524 224.021 284.861 221.683 284.861 218.8C284.861 215.916 282.524 213.579 279.641 213.579C276.757 213.579 274.42 215.916 274.42 218.8C274.42 221.683 276.757 224.021 279.641 224.021Z" fill="#470B85"/>
</svg>
