<svg width="16" height="16" viewBox="0 0 16 16" fill="none" xmlns="http://www.w3.org/2000/svg">
<g id="snooze">
<path id="Vector" d="M11.3775 7.44349C11.3775 4.00099 9.77751 2.10549 6.87751 2.10549C3.97751 2.10549 2.37751 4.00099 2.37751 7.44349C2.44811 8.49839 2.18295 9.54856 1.62001 10.4435C1.27864 10.9321 1.08985 11.511 1.07751 12.107C1.08556 12.3122 1.13399 12.5139 1.22004 12.7004C1.30609 12.8869 1.42807 13.0546 1.579 13.1939C1.72993 13.3332 1.90685 13.4414 2.09963 13.5123C2.29242 13.5832 2.49728 13.6154 2.70251 13.607H5.05551C5.06666 14.0828 5.26352 14.5354 5.60399 14.868C5.94447 15.2006 6.40155 15.3868 6.87751 15.3868C7.35348 15.3868 7.81056 15.2006 8.15103 14.868C8.49151 14.5354 8.68837 14.0828 8.69951 13.607H11.0525C11.2578 13.6154 11.4627 13.5833 11.6555 13.5125C11.8483 13.4416 12.0252 13.3334 12.1762 13.1941C12.3271 13.0547 12.4491 12.887 12.5351 12.7005C12.6211 12.5139 12.6695 12.3123 12.6775 12.107C12.6653 11.5111 12.4767 10.9322 12.1355 10.4435C11.5724 9.54863 11.307 8.49845 11.3775 7.44349ZM6.87751 14.3935C6.66533 14.3929 6.46152 14.3106 6.30843 14.1637C6.15535 14.0167 6.06477 13.8165 6.05551 13.6045H7.70001C7.69112 13.8168 7.60062 14.0174 7.44738 14.1646C7.29414 14.3118 7.08999 14.3942 6.87751 14.3945V14.3935ZM11.0525 12.6045H2.70251C2.57851 12.6045 2.07751 12.5155 2.07751 12.1045C2.0921 11.6876 2.23298 11.285 2.48151 10.95C3.13388 9.90139 3.44678 8.67702 3.37751 7.44399C3.37751 4.56549 4.55501 3.10599 6.87751 3.10599C9.20001 3.10599 10.3775 4.56549 10.3775 7.44399C10.3084 8.67707 10.6215 9.90144 11.274 10.95C11.5227 11.2855 11.6634 11.6886 11.6775 12.106C11.6775 12.5165 11.177 12.6055 11.0525 12.6055V12.6045ZM5.32651 1.10449C5.32651 0.971884 5.37919 0.844707 5.47296 0.750939C5.56673 0.657171 5.69391 0.604492 5.82651 0.604492H7.92651C8.05912 0.604492 8.1863 0.657171 8.28007 0.750939C8.37384 0.844707 8.42651 0.971884 8.42651 1.10449C8.42651 1.2371 8.37384 1.36428 8.28007 1.45805C8.1863 1.55181 8.05912 1.60449 7.92651 1.60449H5.82651C5.69408 1.60449 5.56705 1.55195 5.47331 1.4584C5.37957 1.36485 5.32678 1.23793 5.32651 1.10549V1.10449ZM14.9225 4.72999C14.9225 4.8626 14.8698 4.98978 14.7761 5.08355C14.6823 5.17731 14.5551 5.22999 14.4225 5.22999H12.455C12.3589 5.22987 12.2649 5.20206 12.1842 5.1499C12.1035 5.09774 12.0396 5.02343 12 4.93586C11.9604 4.84829 11.9469 4.75118 11.9611 4.65615C11.9753 4.56111 12.0166 4.47218 12.08 4.39999L13.3145 2.99999H12.455C12.3224 2.99999 12.1952 2.94731 12.1015 2.85355C12.0077 2.75978 11.955 2.6326 11.955 2.49999C11.955 2.36738 12.0077 2.24021 12.1015 2.14644C12.1952 2.05267 12.3224 1.99999 12.455 1.99999H14.4225C14.5187 2.00003 14.6128 2.02781 14.6936 2.08C14.7744 2.13218 14.8384 2.20657 14.878 2.29423C14.9176 2.38189 14.9311 2.47911 14.9168 2.57422C14.9025 2.66934 14.8611 2.75832 14.7975 2.83049L13.563 4.23049H14.4225C14.555 4.23049 14.6821 4.2831 14.7759 4.37676C14.8696 4.47042 14.9224 4.59747 14.9225 4.72999Z" fill="#D3FB8F"/>
</g>
</svg>
