<svg width="162" height="10" viewBox="0 0 162 10" fill="none" xmlns="http://www.w3.org/2000/svg">
<g id="Group 7377">
<path id="Vector 220" d="M1 5V9" stroke="#373C75" stroke-width="2" stroke-linecap="round"/>
<path id="Vector 221" d="M5 1V9" stroke="#373C75" stroke-width="2" stroke-linecap="round"/>
<path id="Vector 222" d="M9 1V9" stroke="#373C75" stroke-width="2" stroke-linecap="round"/>
<path id="Vector 225" d="M13 5V9" stroke="#373C75" stroke-width="2" stroke-linecap="round"/>
<path id="Vector 226" d="M17 5V9" stroke="#373C75" stroke-width="2" stroke-linecap="round"/>
<path id="Vector 227" d="M21 5V9" stroke="#373C75" stroke-width="2" stroke-linecap="round"/>
<path id="Vector 228" d="M25 5V9" stroke="#373C75" stroke-width="2" stroke-linecap="round"/>
<path id="Vector 229" d="M29 5V9" stroke="#373C75" stroke-width="2" stroke-linecap="round"/>
<path id="Vector 230" d="M33 5V9" stroke="#373C75" stroke-width="2" stroke-linecap="round"/>
<path id="Vector 231" d="M37 5V9" stroke="#373C75" stroke-width="2" stroke-linecap="round"/>
<path id="Vector 232" d="M41 1V9" stroke="#373C75" stroke-width="2" stroke-linecap="round"/>
<path id="Vector 233" d="M45 5V9" stroke="#373C75" stroke-width="2" stroke-linecap="round"/>
<path id="Vector 234" d="M49 5V9" stroke="#373C75" stroke-width="2" stroke-linecap="round"/>
<path id="Vector 235" d="M53 5V9" stroke="#373C75" stroke-width="2" stroke-linecap="round"/>
<path id="Vector 236" d="M57 5V9" stroke="#373C75" stroke-width="2" stroke-linecap="round"/>
<path id="Vector 237" d="M61 3V9" stroke="#373C75" stroke-width="2" stroke-linecap="round"/>
<path id="Vector 238" d="M65 3V9" stroke="#373C75" stroke-width="2" stroke-linecap="round"/>
<path id="Vector 239" d="M69 3V9" stroke="#373C75" stroke-width="2" stroke-linecap="round"/>
<path id="Vector 240" d="M73 1V9" stroke="#373C75" stroke-width="2" stroke-linecap="round"/>
<path id="Vector 241" d="M77 1V9" stroke="#373C75" stroke-width="2" stroke-linecap="round"/>
<path id="Vector 242" d="M81 5V9" stroke="#373C75" stroke-width="2" stroke-linecap="round"/>
<path id="Vector 243" d="M85 5V9" stroke="#373C75" stroke-width="2" stroke-linecap="round"/>
<path id="Vector 244" d="M89 5V9" stroke="#373C75" stroke-width="2" stroke-linecap="round"/>
<path id="Vector 245" d="M93 5V9" stroke="#373C75" stroke-width="2" stroke-linecap="round"/>
<path id="Vector 246" d="M97 5V9" stroke="#373C75" stroke-width="2" stroke-linecap="round"/>
<path id="Vector 247" d="M101 5V9" stroke="#373C75" stroke-width="2" stroke-linecap="round"/>
<path id="Vector 248" d="M105 5V9" stroke="#373C75" stroke-width="2" stroke-linecap="round"/>
<path id="Vector 249" d="M109 5V9" stroke="#373C75" stroke-width="2" stroke-linecap="round"/>
<path id="Vector 250" d="M113 5V9" stroke="#373C75" stroke-width="2" stroke-linecap="round"/>
<path id="Vector 251" d="M117 1V9" stroke="#373C75" stroke-width="2" stroke-linecap="round"/>
<path id="Vector 252" d="M121 5V9" stroke="#373C75" stroke-width="2" stroke-linecap="round"/>
<path id="Vector 253" d="M125 5V9" stroke="#373C75" stroke-width="2" stroke-linecap="round"/>
<path id="Vector 254" d="M129 5V9" stroke="#373C75" stroke-width="2" stroke-linecap="round"/>
<path id="Vector 255" d="M133 5V9" stroke="#373C75" stroke-width="2" stroke-linecap="round"/>
<path id="Vector 256" d="M137 3V9" stroke="#373C75" stroke-width="2" stroke-linecap="round"/>
<path id="Vector 257" d="M141 3V9" stroke="#373C75" stroke-width="2" stroke-linecap="round"/>
<path id="Vector 258" d="M145 3V9" stroke="#373C75" stroke-width="2" stroke-linecap="round"/>
<path id="Vector 259" d="M149 3V9" stroke="#373C75" stroke-width="2" stroke-linecap="round"/>
<path id="Vector 260" d="M153 3V9" stroke="#373C75" stroke-width="2" stroke-linecap="round"/>
<path id="Vector 261" d="M157 5V9" stroke="#373C75" stroke-width="2" stroke-linecap="round"/>
<path id="Vector 262" d="M161 5V9" stroke="#373C75" stroke-width="2" stroke-linecap="round"/>
</g>
</svg>
