<svg width="249" height="249" viewBox="0 0 249 249" fill="none" xmlns="http://www.w3.org/2000/svg">
<g id="Timer" clip-path="url(#clip0_268_643)">
<g id="Clip path group">
<mask id="mask0_268_643" style="mask-type:luminance" maskUnits="userSpaceOnUse" x="0" y="0" width="249" height="249">
<g id="__lottie_element_2">
<path id="Vector" d="M249 0H0V249H249V0Z" fill="white"/>
</g>
</mask>
<g mask="url(#mask0_268_643)">
<g id="Group">
<g id="Group_2">
<g id="Group_3">
<path id="Vector_2" d="M202.226 228.966H46.7882C37.619 228.966 30.1859 221.533 30.1859 212.364V56.9265C30.1859 47.7573 37.619 40.3242 46.7882 40.3242H202.226C211.395 40.3242 218.828 47.7573 218.828 56.9265V212.364C218.828 221.533 211.395 228.966 202.226 228.966Z" fill="#101334"/>
</g>
<g id="Group_4">
<path id="Vector_3" d="M218.827 82.0743V172.283C218.827 181.366 216.378 189.826 212.103 197.128C212.059 197.217 212.015 197.262 211.97 197.351C211.926 197.44 211.836 197.529 211.747 197.662C211.747 197.707 211.703 197.752 211.703 197.796C211.703 197.84 211.658 197.886 211.614 197.974C210.768 199.265 209.922 200.512 209.031 201.714C207.428 203.851 205.113 206.523 202.13 209.195C193.447 216.853 182.093 221.484 169.626 221.484H79.4172C62.6312 221.484 47.8039 213.068 38.9433 200.245C38.8988 200.201 38.8988 200.156 38.8544 200.111C33.3779 192.23 30.1719 182.613 30.1719 172.283V82.0743C30.1719 54.9134 52.2122 32.873 79.4172 32.873H169.626C196.787 32.873 218.827 54.9134 218.827 82.0743Z" fill="#2A2C58"/>
</g>
<g id="Group_5" style="mix-blend-mode:soft-light" opacity="0.2">
<path id="Vector_4" d="M34.9269 193.314C35.9037 150.401 95.9386 205.52 135.381 205.52C174.824 205.52 193.244 162.072 208.851 168.399C224.458 174.726 208.007 210.16 179.745 217.753C151.483 225.346 82.3717 221.879 64.5857 219.223C46.7996 216.567 34.9269 193.314 34.9269 193.314Z" fill="white"/>
</g>
<g id="Group_6" style="mix-blend-mode:soft-light">
<path id="Vector_5" d="M211.97 197.352C211.926 197.485 211.836 197.619 211.703 197.797C211.703 197.841 211.658 197.887 211.614 197.975C211.124 198.777 210.278 200.112 209.031 201.715C207.428 203.852 205.113 206.524 202.13 209.196C193.447 216.854 182.093 221.485 169.626 221.485H79.4171C62.6312 221.485 47.8039 213.069 38.9432 200.246C38.8988 200.202 38.8988 200.157 38.8544 200.112C38.498 199.4 38.2754 198.954 38.231 198.776C39.5667 199.845 66.9053 221.128 131.646 221.128C191.844 221.128 209.031 201.404 211.747 197.663C211.836 197.53 211.926 197.44 211.97 197.352Z" fill="#BF77D8"/>
</g>
</g>
<g id="Group_7">
<g id="Group_8">
<path id="Vector_6" d="M63.2604 191.63C63.2604 191.63 66.0729 204.523 67.798 207.562C69.5083 210.574 97.9474 216.068 118.058 216.068C138.169 216.068 169.295 209.418 170.872 208.027C172.454 206.629 175.745 190.63 175.745 190.63L63.2604 191.63Z" fill="url(#paint0_linear_268_643)"/>
</g>
<g id="Group_9">
<path id="Vector_7" d="M63.8435 189.172C70.3109 178.226 164.933 176.707 175.213 189.172C185.149 201.221 53.2984 207.02 63.8435 189.172Z" fill="#FF7A00"/>
</g>
<g id="Group_10" style="mix-blend-mode:multiply" opacity="0.3">
<path id="Vector_8" d="M89.3312 213.504C89.3312 213.504 125.276 214.371 144.968 208.607C164.989 202.748 169.907 196.149 172.815 193.4C175.745 190.63 144.484 180.421 144.484 180.421L133.975 178.345C133.975 178.345 166.088 189.306 161.415 196.625C151.211 212.607 78.7425 211.484 78.7425 211.484L89.3312 213.504Z" fill="#B10053"/>
</g>
<g id="Group_11" style="mix-blend-mode:multiply" opacity="0.3">
<path id="Vector_9" d="M66.2954 203.577C66.2954 203.577 91.0564 208.733 94.2963 201.331C97.6055 193.772 65.5729 187.539 65.5729 187.539L66.898 186.789C66.898 186.789 108.36 198.353 96.497 203.577C84.8069 208.726 69.4141 208.689 69.4141 208.689C69.4141 208.689 67.2304 209.861 66.2954 203.577Z" fill="#B10053"/>
</g>
<g id="Group_12">
<path id="Vector_10" d="M106.999 213.329C106.999 213.329 126.738 213.624 140.992 210.623C155.369 207.595 165.981 199.372 165.981 199.372C165.981 199.372 147.919 213.034 106.999 213.329Z" fill="#FF6500"/>
</g>
<g id="Group_13">
<path id="Vector_11" d="M76.9875 208.241C76.9875 208.241 87.6343 207.468 94.0577 205.307C100.521 203.132 98.4534 200.558 98.4534 200.558C98.4534 200.558 99.224 202.979 94.2017 204.828C89.2051 206.668 76.9875 208.241 76.9875 208.241Z" fill="#FF6500"/>
</g>
<g id="Group_14" style="mix-blend-mode:multiply" opacity="0.3">
<path id="Vector_12" d="M103.384 201.203C98.7658 201.484 99.2932 205.395 88.6547 208.778C78.1179 212.128 106.645 211.277 127.595 208.242C148.728 205.18 154.985 201.333 155.951 199.373C156.924 197.402 132.387 200.563 122.173 200.558C111.96 200.555 103.384 201.203 103.384 201.203Z" fill="#D42F55"/>
</g>
<g id="Group_15" style="mix-blend-mode:multiply" opacity="0.3">
<path id="Vector_13" d="M133.564 214.372C130.72 213.376 161.33 204.503 167.642 199.373C174.046 194.168 172.254 204.123 168.735 206.952C165.244 209.759 133.564 214.372 133.564 214.372Z" fill="#D42F55"/>
</g>
<g id="Group_16" style="mix-blend-mode:soft-light" opacity="0.5">
<path id="Vector_14" d="M100.611 200.411C96.6659 200.346 98.2267 198.191 101.155 196.382C104.098 194.564 149.999 194.737 158.465 194.954C166.926 195.171 138.697 201.038 100.611 200.411Z" fill="white"/>
</g>
<g id="Group_17" style="mix-blend-mode:soft-light" opacity="0.5">
<path id="Vector_15" d="M66.3605 188.865C63.4456 188.767 64.9379 194.561 70.718 196.382C76.4687 198.194 88.629 199.627 91.0306 198.728C93.4384 197.826 82.2061 189.399 66.3605 188.865Z" fill="white"/>
</g>
<g id="Group_18">
<path id="Vector_16" d="M42.0345 36.6616C42.0345 36.6616 46.1924 55.6378 48.6243 60.0887C51.0309 64.4939 90.0384 72.5068 117.543 72.5068C145.048 72.5068 187.755 62.8049 189.944 60.7693C192.144 58.7242 197.027 35.1846 197.027 35.1846L42.0345 36.6616Z" fill="url(#paint1_linear_268_643)"/>
</g>
<g id="Group_19">
<path id="Vector_17" d="M42.7811 33.0294C51.4745 16.7792 182.39 14.5166 196.328 33.0294C209.701 50.7926 28.7284 59.2972 42.7811 33.0294Z" fill="#FF7A00"/>
</g>
<g id="Group_20" opacity="0.5">
<path id="Vector_18" d="M162.435 87.8535C159.149 96.6963 154.154 105.649 148.793 109.036C139.217 115.075 130.051 116.665 127.257 124.484C127.004 125.169 126.808 125.903 126.668 126.685C124.92 136.229 127.922 141.531 137.264 152.496C146.344 163.137 147.217 182.303 145.07 186.455C142.947 190.547 119.452 190.632 119.452 190.632C119.452 190.632 95.9579 190.547 93.8526 186.455C91.705 182.303 92.5603 163.137 101.64 152.496C110.051 142.634 113.322 137.347 112.638 129.436C112.555 128.56 112.433 127.649 112.255 126.685C110.482 116.904 100.544 115.605 90.1305 109.036C87.7139 107.52 85.3962 104.877 83.251 101.632C83.2079 101.543 83.1867 101.507 83.1867 101.507C75.9296 90.4103 70.8529 72.0412 73.3338 67.8916L119.451 72.5168L165.59 67.8916C167.185 70.5542 165.655 79.1348 162.435 87.8535Z" fill="url(#paint2_radial_268_643)"/>
</g>
<g id="Group_21">
<path id="Vector_19" d="M162.439 87.7803C162.439 87.7803 162.438 87.7985 162.435 87.8533C159.149 96.6961 154.154 105.649 148.793 109.036C139.217 115.075 130.051 116.665 127.257 124.484C124.141 129.238 121.26 152.884 119.471 152.496C117.661 152.091 115.873 137.104 112.638 129.436C112.555 128.56 112.433 127.648 112.255 126.685C110.482 116.903 100.544 115.605 90.1305 109.036C87.7139 107.52 85.3962 104.877 83.251 101.631C83.2079 101.543 83.1867 101.507 83.1867 101.507L162.439 87.7803Z" fill="url(#paint3_linear_268_643)"/>
</g>
<g id="Group_22">
<path id="Vector_20" d="M81.6599 99.0115C81.4981 88.4705 159.911 85.849 161.876 87.5928C163.833 89.3292 150.044 105.551 116.233 107.098C82.5513 108.64 81.6599 99.0115 81.6599 99.0115Z" fill="url(#paint4_linear_268_643)"/>
</g>
<g id="Group_23">
<path id="Vector_21" d="M145.07 186.455C143.253 192.324 100.625 192.506 93.8527 186.455C93.1135 185.802 90.8144 180.619 93.326 177.054C93.3422 177.025 93.3418 177.01 93.3418 177.01C99.7519 168.078 117.035 156.287 119.452 156.01C122.181 155.701 140.233 167.869 145.413 177.258C145.429 177.302 145.463 177.331 145.479 177.375C146.686 179.608 145.425 185.304 145.07 186.455Z" fill="url(#paint5_linear_268_643)"/>
</g>
<g id="Group_24" style="mix-blend-mode:multiply" opacity="0.3">
<path id="Vector_22" d="M78.2337 110.592C81.794 113.143 101.459 116.224 108.063 121.465C114.581 126.638 113.059 137.361 108.354 141.629C103.701 145.85 105.166 140.11 103.234 131.803C101.26 123.316 78.2337 110.592 78.2337 110.592Z" fill="#912790"/>
</g>
<g id="Group_25" style="mix-blend-mode:multiply" opacity="0.3">
<path id="Vector_23" d="M161.582 106.786C157.961 109.999 135.642 111.831 129.682 121.464C123.863 130.868 128.24 137.36 131.04 139.042C133.827 140.717 130.799 131.336 138.087 124.108C145.51 116.746 155.573 113.051 161.582 106.786Z" fill="#912790"/>
</g>
<g id="Group_26">
<path id="Vector_24" d="M155.589 108.255C152.034 106.922 159.998 97.7218 161.839 92.265C163.705 86.7347 164.608 92.5227 163.344 100.339C162.104 108.008 156.178 108.477 155.589 108.255Z" fill="white"/>
</g>
<g id="Group_27" style="mix-blend-mode:soft-light">
<path id="Vector_25" d="M67.5802 82.0086C65.6575 85.1642 72.1946 102.688 77.4452 106.103C82.6514 109.49 81.6159 102.577 80.6428 100.001C79.6634 97.4092 70.1665 77.7631 67.5802 82.0086Z" fill="white"/>
</g>
<g id="Group_28">
<path id="Vector_26" d="M92.7616 153.204C91.5328 157.503 98.6787 151.165 101.697 146C104.756 140.765 94.4432 147.321 92.7616 153.204Z" fill="white"/>
</g>
<g id="Group_29">
<path id="Vector_27" d="M141.588 151.8C140.307 151.968 142.568 161.227 147.333 161.898C152.09 162.568 147.623 151.012 141.588 151.8Z" fill="white"/>
</g>
<g id="Group_30" style="mix-blend-mode:multiply" opacity="0.5">
<path id="Vector_28" d="M86.1639 103.569C86.1639 103.569 102.596 118.52 115.08 119.804C127.524 121.085 145.316 111.563 149.865 107.026C154.467 102.438 158.727 94.4258 158.727 94.4258C158.727 94.4258 146.85 103.981 124.734 106.787C102.771 109.575 86.1639 103.569 86.1639 103.569Z" fill="#E09590"/>
</g>
<g id="Group_31" style="mix-blend-mode:multiply" opacity="0.5">
<path id="Vector_29" d="M145.07 186.455C143.253 192.324 100.625 192.506 93.8527 186.455C93.1135 185.802 90.8144 180.619 93.326 177.054C93.2443 177.738 92.5529 186.242 111.821 187.616C131.833 189.042 139.019 179.116 144.596 177.375C144.881 177.287 145.166 177.243 145.413 177.258C145.429 177.301 145.463 177.331 145.479 177.375C146.686 179.608 145.425 185.303 145.07 186.455Z" fill="#E09590"/>
</g>
<g id="Group_32" style="mix-blend-mode:soft-light" opacity="0.5">
<path id="Vector_30" d="M119.452 156.011C116.224 155.355 118.664 172.193 121.973 177.055C125.24 181.854 138.866 177.594 140.587 175.26C142.32 172.911 125.681 157.275 119.452 156.011Z" fill="white"/>
</g>
<g id="Group_33" style="mix-blend-mode:multiply" opacity="0.3">
<path id="Vector_31" d="M57.1239 25.903C57.1239 25.903 140.486 19.3477 165.678 28.6171C190.351 37.6956 123.98 45.823 87.0807 44.6714C50.0831 43.5168 42.0345 36.6619 42.0345 36.6619C42.0345 36.6619 87.7962 44.2867 126.448 39.9039C165.492 35.4762 50.8745 27.7917 50.8745 27.7917L57.1239 25.903Z" fill="#B10053"/>
</g>
<g id="Group_34" style="mix-blend-mode:multiply" opacity="0.3">
<path id="Vector_32" d="M95.9131 69.4422C95.9131 69.4422 141.32 67.503 161.29 59.6561C181.635 51.6616 188.255 40.6798 189.445 35.7372C190.648 30.7381 182.91 25.4141 182.91 25.4141C182.91 25.4141 194.721 31.8225 191.845 39.7868C189.02 47.6079 156.129 67.0149 138.074 70.6486C120.174 74.2513 95.9131 69.4422 95.9131 69.4422Z" fill="#B10053"/>
</g>
<g id="Group_35">
<path id="Vector_33" d="M143.768 69.1532C143.768 69.1532 158.224 66.0432 169.423 60.3365C180.774 54.5522 190.408 42.1143 190.408 42.1143C190.408 42.1143 182.69 54.0156 143.768 69.1532Z" fill="#FF6500"/>
</g>
<g id="Group_36" style="mix-blend-mode:multiply" opacity="0.3">
<path id="Vector_34" d="M77.0194 50.9685C65.316 52.1035 64.3922 58.8643 65.9365 63.3903C67.4645 67.8681 93.8772 69.685 114.981 67.1394C136.213 64.5784 169.501 55.4219 173.056 49.8181C176.659 44.1409 143.219 48.6648 123.732 49.8181C104.298 50.9685 77.0194 50.9685 77.0194 50.9685Z" fill="#D42F55"/>
</g>
<g id="Group_37" style="mix-blend-mode:soft-light" opacity="0.5">
<path id="Vector_35" d="M80.1431 47.7357C76.2455 45.9508 123.022 46.4613 139.482 42.8732C156.081 39.2552 177.221 35.3451 180.557 37.1744C183.878 38.9954 183.795 40.1956 182.893 41.5846C181.994 42.969 118.366 53.9259 80.1431 47.7357Z" fill="white"/>
</g>
<g id="Group_38">
<path id="Vector_36" d="M193.855 37.4994C192.252 36.5366 189.697 41.6129 188.176 44.781C186.665 47.9263 194.123 41.0663 194.683 39.4491C195.245 37.826 193.855 37.4994 193.855 37.4994Z" fill="#FFA457"/>
</g>
<g id="Group_39">
<path id="Vector_37" d="M169.757 196.382C169.315 194.781 171.118 191.05 171.484 191.303C171.849 191.556 174.644 192.056 173.882 193.465C173.121 194.868 169.757 196.382 169.757 196.382Z" fill="#FFA457"/>
</g>
<g id="Group_40" style="mix-blend-mode:screen">
<path id="Vector_38" d="M80.1547 78.0495C74.2551 80.7977 85.5804 106.214 101.537 112.578C117.244 118.841 111.198 92.9509 105.339 85.1066C99.3675 77.1112 80.1547 78.0495 80.1547 78.0495Z" fill="url(#paint6_linear_268_643)"/>
</g>
<g id="Group_41">
<path id="Vector_39" d="M149.82 75.0866C142.277 77.5886 134.592 93.0262 136.989 97.3065C139.36 101.542 160.182 92.1514 162.4 81.4224C164.677 70.4083 154.13 73.6565 149.82 75.0866Z" fill="white"/>
</g>
<g id="Group_42" style="mix-blend-mode:multiply" opacity="0.5">
<path id="Vector_40" d="M55.9806 66.3781C55.7585 65.6987 100.346 80.8993 122.535 79.7145C144.788 78.5259 179.248 66.3561 179.248 66.3561L180.188 63.3896C180.188 63.3896 139.203 71.1688 114.236 71.9926C89.3183 72.8147 55.0194 63.3896 55.0194 63.3896L55.9806 66.3781Z" fill="#9A376D"/>
</g>
<g id="Group_43" style="mix-blend-mode:multiply" opacity="0.5">
<path id="Vector_41" d="M125.946 118.794C119.171 116.261 136.203 104.762 147.171 101.99C158.215 99.1987 147.032 109.036 142.527 112.12C138.056 115.181 125.946 118.794 125.946 118.794Z" fill="#E09590"/>
</g>
<g id="Group_44" style="mix-blend-mode:multiply" opacity="0.5">
<path id="Vector_42" d="M156.514 190.589C156.514 190.589 144.252 194.954 117.883 194.954C89.8412 194.954 79.2504 190.589 79.2504 190.589C79.2504 190.589 78.6744 181.843 79.9534 172.601L79.9704 172.587C79.9704 172.587 80.3551 186.922 84.0777 190.63C87.7459 194.315 131.099 194.117 144.076 192.321C157.134 190.529 156.059 175.333 156.059 175.333L156.076 175.347C156.949 183.506 156.514 190.589 156.514 190.589Z" fill="#9A376D"/>
</g>
<g id="Group_45">
<path id="Vector_43" d="M126.813 151.047C120.696 151.909 123.606 163.086 129.324 165.854C135.042 168.623 134.312 156.25 133.378 154.384C132.445 152.518 128.787 150.768 126.813 151.047Z" fill="white"/>
</g>
</g>
<g id="Group_46">
<g id="Group_47">
<path id="Vector_44" d="M119.468 151.164C119.468 151.164 119.274 152.847 119.468 153.395C119.755 154.231 119.741 155.201 119.416 155.651C118.876 156.412 119.364 157.908 119.364 157.908" stroke="url(#paint7_linear_268_643)" stroke-width="0.83"/>
</g>
</g>
<g id="Clip path group_2">
<mask id="mask1_268_643" style="mask-type:luminance" maskUnits="userSpaceOnUse" x="88" y="65" width="108" height="108">
<g id="__lottie_element_21">
<path id="Vector_45" d="M88.8437 65.8379H195.084V172.078H88.8437V65.8379Z" fill="white"/>
</g>
</mask>
<g mask="url(#mask1_268_643)">
<g id="Group_48">
<g id="Group_49">
<g id="Group_50">
<path id="Vector_46" d="M164.217 128.005C165.464 127.035 170.276 127.381 170.276 127.381C170.276 127.381 165.381 126.346 164.557 125.286C163.733 124.228 163.933 119.228 163.933 119.228C163.933 119.228 162.989 124.051 161.838 124.947C160.688 125.841 155.78 125.57 155.78 125.57C155.78 125.57 160.608 126.519 161.5 127.665C162.392 128.811 162.122 133.724 162.122 133.724C162.122 133.724 162.971 128.974 164.217 128.005Z" fill="white"/>
</g>
</g>
<g id="Group_51">
<g id="Group_52">
<path id="Vector_47" d="M120.007 131.399C121.344 130.178 126.878 130.137 126.878 130.137C126.878 130.137 121.186 129.397 120.148 128.26C119.11 127.124 118.886 121.389 118.886 121.389C118.886 121.389 118.244 126.991 117.01 128.118C115.776 129.245 110.139 129.38 110.139 129.38C110.139 129.38 115.745 130.028 116.867 131.257C117.991 132.487 118.131 138.128 118.131 138.128C118.131 138.128 118.67 132.621 120.007 131.399Z" fill="white"/>
</g>
</g>
<g id="Group_53">
<g id="Group_54">
<path id="Vector_48" d="M136.829 144.927C137.164 144.505 138.79 144.234 138.79 144.234C138.79 144.234 137.082 144.284 136.724 143.999C136.365 143.713 136.031 142.038 136.031 142.038C136.031 142.038 136.105 143.714 135.795 144.104C135.485 144.493 133.834 144.797 133.834 144.797C133.834 144.797 135.513 144.724 135.901 145.033C136.288 145.341 136.594 146.994 136.594 146.994C136.594 146.994 136.493 145.349 136.829 144.927Z" fill="white"/>
</g>
</g>
<g id="Group_55">
<g id="Group_56">
<path id="Vector_49" d="M147.724 154.524C148.881 153.624 153.347 153.946 153.347 153.946C153.347 153.946 148.803 152.984 148.039 152.002C147.274 151.019 147.461 146.38 147.461 146.38C147.461 146.38 146.585 150.857 145.518 151.687C144.451 152.517 139.895 152.265 139.895 152.265C139.895 152.265 144.375 153.146 145.203 154.209C146.03 155.272 145.781 159.831 145.781 159.831C145.781 159.831 146.568 155.424 147.724 154.524Z" fill="white"/>
</g>
</g>
<g id="Group_57">
<g id="Group_58">
<path id="Vector_50" d="M153.194 106.379C153.621 105.922 155.525 105.758 155.525 105.758C155.525 105.758 153.546 105.659 153.158 105.296C152.769 104.933 152.536 102.965 152.536 102.965C152.536 102.965 152.468 104.911 152.074 105.332C151.68 105.754 149.743 105.954 149.743 105.954C149.743 105.954 151.69 106.025 152.11 106.417C152.53 106.809 152.732 108.747 152.732 108.747C152.732 108.747 152.768 106.836 153.194 106.379Z" fill="white"/>
</g>
</g>
<g id="Group_59">
<g id="Group_60">
<path id="Vector_51" d="M130.159 96.8509C130.802 96.2639 133.458 96.2438 133.458 96.2438C133.458 96.2438 130.725 95.8881 130.227 95.3432C129.729 94.7975 129.62 92.043 129.62 92.043C129.62 92.043 129.311 94.7329 128.719 95.2744C128.126 95.8158 125.419 95.8807 125.419 95.8807C125.419 95.8807 128.111 96.1915 128.651 96.7828C129.191 97.3734 129.257 100.082 129.257 100.082C129.257 100.082 129.516 97.4379 130.159 96.8509Z" fill="white"/>
</g>
</g>
<g id="Group_61">
<g id="Group_62">
<path id="Vector_52" d="M143.879 125.364L168.488 137.82L147.796 119.582C146.88 118.774 146.834 117.36 147.695 116.493L167.145 96.9379L143.406 110.979C142.354 111.601 140.995 111.21 140.437 110.122L127.85 85.5806L133.869 112.497C134.136 113.69 133.342 114.86 132.136 115.055L104.906 119.443L132.365 122.037C133.582 122.152 134.451 123.268 134.262 124.475L130.022 151.729L140.973 126.415C141.459 125.294 142.788 124.812 143.879 125.364Z" fill="white"/>
</g>
</g>
</g>
</g>
</g>
<g id="Clip path group_3">
<mask id="mask2_268_643" style="mask-type:luminance" maskUnits="userSpaceOnUse" x="156" y="167" width="82" height="82">
<g id="__lottie_element_41">
<path id="Vector_53" d="M156.455 167.246H237.795V248.586H156.455V167.246Z" fill="white"/>
</g>
</mask>
<g mask="url(#mask2_268_643)">
<g id="Group_63">
<g id="Group_64">
<g id="Group_65">
<path id="Vector_54" d="M199.042 213.774L199.277 219.006L197.911 213.95C197.124 211.032 194.415 209.052 191.395 209.187L186.163 209.42L191.219 208.056C194.138 207.268 196.118 204.559 195.983 201.539L195.749 196.308L197.113 201.364C197.901 204.282 200.61 206.263 203.63 206.127L208.862 205.893L203.806 207.258C200.887 208.045 198.907 210.754 199.042 213.774Z" fill="white"/>
</g>
</g>
<g id="Group_66">
<g id="Group_67">
<path id="Vector_55" d="M197.505 192.701L196.925 192.861L197.439 192.548C197.785 192.336 197.887 191.88 197.664 191.541L197.333 191.039L197.789 191.43C198.097 191.695 198.563 191.651 198.816 191.333L199.191 190.863L198.96 191.418C198.804 191.793 198.989 192.222 199.369 192.365L199.932 192.577L199.333 192.528C198.928 192.495 198.578 192.805 198.559 193.21L198.532 193.811L198.393 193.226C198.299 192.831 197.896 192.593 197.505 192.701Z" fill="white"/>
</g>
</g>
<g id="Group_68">
<g id="Group_69">
<path id="Vector_56" d="M190.628 224.442L190.486 224.53L190.598 224.406C190.673 224.322 190.664 224.193 190.577 224.121L190.449 224.014L190.602 224.081C190.705 224.127 190.825 224.078 190.867 223.973L190.93 223.819L190.912 223.985C190.901 224.097 190.984 224.196 191.097 224.204L191.263 224.215L191.1 224.25C190.99 224.274 190.921 224.384 190.949 224.493L190.99 224.655L190.906 224.511C190.849 224.413 190.723 224.382 190.628 224.442Z" fill="white"/>
</g>
</g>
<g id="Group_70">
<g id="Group_71">
<path id="Vector_57" d="M180.688 215.156L180.366 215.212L180.66 215.069C180.858 214.973 180.938 214.731 180.835 214.536L180.682 214.247L180.908 214.483C181.061 214.642 181.316 214.643 181.469 214.485L181.697 214.25L181.543 214.538C181.439 214.733 181.517 214.975 181.715 215.072L182.008 215.217L181.686 215.159C181.469 215.12 181.263 215.269 181.232 215.487L181.185 215.811L181.141 215.487C181.11 215.268 180.905 215.118 180.688 215.156Z" fill="white"/>
</g>
</g>
<g id="Group_72">
<g id="Group_73">
<path id="Vector_58" d="M179.804 194.1L179.747 194.135L179.792 194.086C179.822 194.052 179.818 194 179.784 193.971L179.732 193.928L179.794 193.955C179.835 193.974 179.883 193.954 179.9 193.912L179.925 193.85L179.918 193.916C179.913 193.961 179.947 194.001 179.992 194.004L180.059 194.009L179.993 194.023C179.949 194.032 179.922 194.077 179.933 194.12L179.949 194.185L179.915 194.127C179.893 194.088 179.842 194.076 179.804 194.1Z" fill="white"/>
</g>
</g>
<g id="Group_74">
<g id="Group_75">
<path id="Vector_59" d="M206.954 189.571L206.714 189.637L206.927 189.507C207.07 189.42 207.112 189.231 207.02 189.091L206.882 188.883L207.071 189.045C207.199 189.154 207.392 189.136 207.496 189.005L207.651 188.81L207.556 189.04C207.491 189.195 207.568 189.373 207.725 189.432L207.958 189.519L207.71 189.499C207.543 189.486 207.397 189.613 207.39 189.781L207.379 190.03L207.321 189.788C207.282 189.624 207.116 189.526 206.954 189.571Z" fill="white"/>
</g>
</g>
<g id="Group_76">
<g id="Group_77">
<path id="Vector_60" d="M202.689 222.305L202.548 222.376L202.664 222.269C202.743 222.197 202.746 222.074 202.671 221.998L202.56 221.886L202.698 221.963C202.791 222.016 202.908 221.981 202.957 221.886L203.03 221.746L202.999 221.901C202.977 222.005 203.047 222.106 203.152 222.124L203.308 222.15L203.151 222.168C203.045 222.18 202.971 222.277 202.986 222.383L203.01 222.539L202.944 222.395C202.9 222.298 202.784 222.257 202.689 222.305Z" fill="white"/>
</g>
</g>
<g id="Group_78">
<g id="Group_79">
<path id="Vector_61" d="M210.831 211.65L210.33 211.313L210.904 211.499C211.29 211.624 211.705 211.404 211.816 211.013L211.981 210.433L211.982 211.036C211.982 211.443 212.32 211.768 212.726 211.753L213.329 211.731L212.756 211.918C212.369 212.044 212.164 212.466 212.304 212.848L212.511 213.414L212.156 212.927C211.917 212.598 211.452 212.533 211.132 212.784L210.657 213.156L211.011 212.668C211.25 212.339 211.168 211.877 210.831 211.65Z" fill="white"/>
</g>
</g>
</g>
</g>
</g>
</g>
</g>
</g>
</g>
<defs>
<linearGradient id="paint0_linear_268_643" x1="62.9189" y1="203.006" x2="175.403" y2="203.006" gradientUnits="userSpaceOnUse">
<stop stop-color="#A71100"/>
<stop offset="0.19" stop-color="#C02202"/>
<stop offset="0.39" stop-color="#D83303"/>
<stop offset="0.69" stop-color="#E2470A"/>
<stop offset="1" stop-color="#EC5C11"/>
</linearGradient>
<linearGradient id="paint1_linear_268_643" x1="41.7539" y1="53.606" x2="196.747" y2="53.606" gradientUnits="userSpaceOnUse">
<stop stop-color="#A71100"/>
<stop offset="0.19" stop-color="#C02202"/>
<stop offset="0.39" stop-color="#D83303"/>
<stop offset="0.69" stop-color="#E2470A"/>
<stop offset="1" stop-color="#EC5C11"/>
</linearGradient>
<radialGradient id="paint2_radial_268_643" cx="0" cy="0" r="1" gradientUnits="userSpaceOnUse" gradientTransform="translate(119.359 -1847.03) scale(52.0032 52.0032)">
<stop stop-color="#E8E5ED"/>
<stop offset="0.22" stop-color="#E0D9DF"/>
<stop offset="0.66" stop-color="#D8CDD0"/>
<stop offset="0.75" stop-color="#C7ACC9"/>
<stop offset="1" stop-color="#B78BC2"/>
</radialGradient>
<linearGradient id="paint3_linear_268_643" x1="122.679" y1="152.376" x2="122.679" y2="87.6558" gradientUnits="userSpaceOnUse">
<stop stop-color="#FFA900"/>
<stop offset="0.5" stop-color="#FF9F00"/>
<stop offset="1" stop-color="#FF9600"/>
</linearGradient>
<linearGradient id="paint4_linear_268_643" x1="81.5939" y1="96.766" x2="161.991" y2="96.766" gradientUnits="userSpaceOnUse">
<stop stop-color="#FFB100"/>
<stop offset="0.5" stop-color="#FFBB00"/>
<stop offset="1" stop-color="#FFC500"/>
</linearGradient>
<linearGradient id="paint5_linear_268_643" x1="118.944" y1="190.556" x2="118.944" y2="155.635" gradientUnits="userSpaceOnUse">
<stop stop-color="#FF9600"/>
<stop offset="0.5" stop-color="#FF9F00"/>
<stop offset="1" stop-color="#FFA900"/>
</linearGradient>
<linearGradient id="paint6_linear_268_643" x1="78.2739" y1="95.5206" x2="111.251" y2="95.5206" gradientUnits="userSpaceOnUse">
<stop offset="0.02" stop-color="#008DFE"/>
<stop offset="0.51" stop-color="#00467F"/>
<stop offset="1"/>
</linearGradient>
<linearGradient id="paint7_linear_268_643" x1="119.416" y1="158.115" x2="119.572" y2="150.697" gradientUnits="userSpaceOnUse">
<stop stop-color="#FFBB00"/>
<stop offset="0.5" stop-color="#FFB100"/>
<stop offset="1" stop-color="#FFA800"/>
</linearGradient>
<clipPath id="clip0_268_643">
<rect width="249" height="249" fill="white"/>
</clipPath>
</defs>
</svg>
