<svg width="25" height="24" viewBox="0 0 25 24" fill="none" xmlns="http://www.w3.org/2000/svg">
<g id="timer">
<path id="Vector" d="M12.5 8.27601V2.48291C17.7213 2.48291 22.0173 6.77891 22.0173 12.0002C22.0173 17.2214 17.7213 21.5174 12.5 21.5174C7.27879 21.5174 2.98279 17.2214 2.98279 12.0002C2.98279 9.47684 3.98582 7.0545 5.7701 5.27022" stroke="white" stroke-width="2" stroke-miterlimit="10"/>
<path id="Vector_2" d="M7.77703 8.44723C7.62185 8.29205 7.53467 8.08159 7.53467 7.86213C7.53467 7.64267 7.62185 7.43221 7.77703 7.27703C7.93221 7.12185 8.14267 7.03467 8.36213 7.03467C8.58159 7.03467 8.79205 7.12185 8.94723 7.27703L13.6703 10.8299C13.8284 10.9825 13.9544 11.1652 14.0412 11.3671C14.1279 11.5691 14.1736 11.7862 14.1755 12.006C14.1774 12.2258 14.1355 12.4437 14.0523 12.6472C13.9691 12.8506 13.8462 13.0354 13.6908 13.1908C13.5354 13.3462 13.3506 13.4691 13.1472 13.5523C12.9437 13.6355 12.7258 13.6774 12.506 13.6755C12.2862 13.6736 12.0691 13.6279 11.8671 13.5412C11.6652 13.4544 11.4825 13.3284 11.3299 13.1703L7.77703 8.44723Z" fill="white"/>
</g>
</svg>
