<svg width="31" height="30" viewBox="0 0 31 30" fill="none" xmlns="http://www.w3.org/2000/svg">
<g id="Check">
<path id="Subtract" fill-rule="evenodd" clip-rule="evenodd" d="M15.283 25C20.9101 25 25.4717 20.5228 25.4717 15C25.4717 9.47715 20.9101 5 15.283 5C9.65596 5 5.09433 9.47715 5.09433 15C5.09433 20.5228 9.65596 25 15.283 25ZM19.5218 14.2171C19.9424 13.8001 19.9424 13.124 19.5218 12.7069C19.1012 12.2899 18.4192 12.2899 17.9986 12.7069L14.8181 15.8602C14.7442 15.9335 14.6243 15.9338 14.55 15.8609L13.3945 14.7268C12.9718 14.3119 12.2898 14.3153 11.8713 14.7344C11.4529 15.1536 11.4563 15.8297 11.8791 16.2446L13.0345 17.3787C13.9513 18.2785 15.4291 18.2748 16.3413 17.3704L19.5218 14.2171Z" fill="#2A2C58"/>
</g>
</svg>
