<svg width="13" height="10" viewBox="0 0 13 10" fill="none" xmlns="http://www.w3.org/2000/svg">
<g id="Group 7360">
<path id="Vector" d="M10.3433 9.70397C10.5656 9.48175 10.5656 9.12348 10.3433 8.90127L6.57473 5.13265C6.39786 4.95578 6.11216 4.95578 5.93529 5.13265L2.16667 8.90127C1.94445 9.12348 1.94445 9.48175 2.16667 9.70397C2.38889 9.92619 2.74716 9.92619 2.96937 9.70397L6.25728 6.4206L9.54518 9.7085C9.76286 9.92619 10.1257 9.92619 10.3433 9.70397Z" fill="white"/>
<path id="Vector_2" d="M12.265 6.915C12.5917 6.58833 12.5917 6.06167 12.265 5.735L6.72501 0.195C6.46501 -0.065 6.04501 -0.065 5.78501 0.195L0.245008 5.735C-0.0816584 6.06167 -0.0816584 6.58833 0.245008 6.915C0.571675 7.24167 1.09834 7.24167 1.42501 6.915L6.25834 2.08833L11.0917 6.92167C11.4117 7.24167 11.945 7.24167 12.265 6.915Z" fill="white"/>
</g>
</svg>
