<svg width="24" height="25" viewBox="0 0 24 25" fill="none" xmlns="http://www.w3.org/2000/svg">
<rect width="24" height="25" fill="#202456"/>
<g id="Signup with email" clip-path="url(#clip0_0_1)">
<rect width="375" height="812" transform="translate(-43 -208)" fill="#101334"/>
<g id="Frame 90">
<rect x="-14" y="-17" width="317" height="59" rx="18" fill="#2A2C58"/>
<g id="user">
<g id="Group">
<path id="Vector" d="M16.5 8C16.5 7.10999 16.2361 6.23996 15.7416 5.49994C15.2471 4.75991 14.5443 4.18314 13.7221 3.84254C12.8998 3.50195 11.995 3.41283 11.1221 3.58647C10.2492 3.7601 9.44736 4.18869 8.81802 4.81802C8.18868 5.44736 7.7601 6.24918 7.58647 7.1221C7.41283 7.99501 7.50195 8.89981 7.84254 9.72208C8.18314 10.5443 8.75991 11.2471 9.49993 11.7416C10.24 12.2361 11.11 12.5 12 12.5C13.1935 12.5 14.3381 12.0259 15.182 11.182C16.0259 10.3381 16.5 9.19348 16.5 8ZM9 8C9 7.40666 9.17595 6.82664 9.50559 6.33329C9.83524 5.83994 10.3038 5.45543 10.8519 5.22836C11.4001 5.0013 12.0033 4.94189 12.5853 5.05765C13.1672 5.1734 13.7018 5.45912 14.1213 5.87868C14.5409 6.29824 14.8266 6.83279 14.9424 7.41473C15.0581 7.99667 14.9987 8.59987 14.7716 9.14805C14.5446 9.69623 14.1601 10.1648 13.6667 10.4944C13.1734 10.8241 12.5933 11 12 11C11.2044 11 10.4413 10.6839 9.87868 10.1213C9.31607 9.55871 9 8.79565 9 8ZM4.5 19.1975C4.5 19.7942 4.73705 20.3665 5.15901 20.7885C5.58097 21.2104 6.15326 21.4475 6.75 21.4475H17.25C17.8467 21.4475 18.419 21.2104 18.841 20.7885C19.2629 20.3665 19.5 19.7942 19.5 19.1975C19.5 17.8051 18.9469 16.4698 17.9623 15.4852C16.9777 14.5006 15.6424 13.9475 14.25 13.9475H9.75C8.35761 13.9475 7.02226 14.5006 6.03769 15.4852C5.05312 16.4698 4.5 17.8051 4.5 19.1975ZM9.75 15.4475H14.25C14.7425 15.4475 15.2301 15.5445 15.6851 15.733C16.14 15.9214 16.5534 16.1976 16.9017 16.5459C17.2499 16.8941 17.5261 17.3075 17.7145 17.7624C17.903 18.2174 18 18.705 18 19.1975C18 19.3964 17.921 19.5872 17.7803 19.7278C17.6397 19.8685 17.4489 19.9475 17.25 19.9475H6.75C6.55109 19.9475 6.36032 19.8685 6.21967 19.7278C6.07902 19.5872 6 19.3964 6 19.1975C6 18.2029 6.39509 17.2491 7.09835 16.5459C7.80161 15.8426 8.75544 15.4475 9.75 15.4475Z" fill="#636699"/>
</g>
</g>
</g>
</g>
<defs>
<clipPath id="clip0_0_1">
<rect width="375" height="812" fill="white" transform="translate(-43 -208)"/>
</clipPath>
</defs>
</svg>
