<svg width="18" height="16" viewBox="0 0 18 16" fill="none" xmlns="http://www.w3.org/2000/svg">
<path d="M3.36747 12.5751L1.71747 14.2176C1.64717 14.2874 1.59138 14.3703 1.5533 14.4617C1.51522 14.5531 1.49562 14.6511 1.49562 14.7501C1.49562 14.8491 1.51522 14.9472 1.5533 15.0386C1.59138 15.13 1.64717 15.2129 1.71747 15.2826C1.78719 15.3529 1.87014 15.4087 1.96153 15.4468C2.05293 15.4849 2.15096 15.5045 2.24997 15.5045C2.34898 15.5045 2.44701 15.4849 2.5384 15.4468C2.62979 15.4087 2.71275 15.3529 2.78247 15.2826L5.07747 12.9801L7.67247 10.3851L16.2825 1.78264C16.4237 1.64141 16.503 1.44987 16.503 1.25014C16.503 1.05041 16.4237 0.858867 16.2825 0.717639C16.1412 0.576411 15.9497 0.49707 15.75 0.49707C15.5502 0.49707 15.3587 0.576411 15.2175 0.717639L13.2975 2.64514C11.0058 1.50128 8.35454 1.31122 5.92319 2.11652C3.49183 2.92182 1.47819 4.65696 0.322467 6.94264C0.155829 7.27024 0.0689697 7.63259 0.0689697 8.00014C0.0689697 8.36769 0.155829 8.73003 0.322467 9.05764C1.03726 10.4597 2.08229 11.6669 3.36747 12.5751ZM7.11747 8.00014C7.11747 7.75328 7.16621 7.50885 7.26091 7.28087C7.3556 7.05289 7.49439 6.84586 7.66929 6.67166C7.8442 6.49745 8.05178 6.35949 8.28013 6.26571C8.50848 6.17192 8.75311 6.12415 8.99997 6.12514C9.23337 6.1253 9.46475 6.16852 9.68247 6.25264L7.25247 8.68264C7.16835 8.46492 7.12513 8.23354 7.12497 8.00014H7.11747ZM1.64997 7.62514C2.34127 6.27046 3.39359 5.13324 4.69067 4.33912C5.98774 3.54499 7.4791 3.12486 8.99997 3.12514C10.089 3.1279 11.1669 3.3445 12.1725 3.76264L10.7925 5.15014C10.2571 4.80811 9.63526 4.62597 8.99997 4.62514C8.10547 4.62712 7.24818 4.98334 6.61567 5.61584C5.98316 6.24835 5.62695 7.10564 5.62497 8.00014C5.6258 8.63543 5.80793 9.25728 6.14997 9.79264L4.45497 11.4801C3.26986 10.7042 2.30604 9.63446 1.65747 8.37514C1.59164 8.26112 1.55699 8.13179 1.55699 8.00014C1.55699 7.86849 1.59164 7.73915 1.65747 7.62514H1.64997ZM16.4475 5.09764C16.4168 5.0726 16.3842 5.05003 16.35 5.03014L16.2225 4.94764C16.1797 4.92828 16.1341 4.91563 16.0875 4.91014C16.0403 4.90231 15.9921 4.90231 15.945 4.91014H15.81C15.7628 4.90231 15.7146 4.90231 15.6675 4.91014C15.6203 4.92804 15.5751 4.95066 15.5325 4.97764C15.4983 4.99487 15.4657 5.01494 15.435 5.03764L7.40997 13.0326C7.40997 13.0326 7.40997 13.0851 7.35747 13.1076C7.32157 13.1484 7.2913 13.1938 7.26747 13.2426C7.24575 13.2878 7.2306 13.3357 7.22247 13.3851C7.22247 13.3851 7.22247 13.4451 7.22247 13.4751C7.22174 13.4876 7.22174 13.5001 7.22247 13.5126C7.21477 13.5674 7.21477 13.6229 7.22247 13.6776C7.21821 13.72 7.21821 13.7627 7.22247 13.8051C7.23937 13.849 7.25942 13.8916 7.28247 13.9326L7.36497 14.0526C7.36497 14.0526 7.36497 14.0526 7.36497 14.0901C7.36497 14.1276 7.41747 14.1276 7.43997 14.1501L7.56747 14.2326C7.61603 14.2521 7.66623 14.2671 7.71747 14.2776C7.71747 14.2776 7.76997 14.2776 7.80747 14.2776H7.88997C8.2579 14.3305 8.62846 14.363 8.99997 14.3751C10.7958 14.3739 12.5564 13.8767 14.0876 12.9384C15.6188 12.0001 16.8611 10.6572 17.6775 9.05764C17.8441 8.73003 17.931 8.36769 17.931 8.00014C17.931 7.63259 17.8441 7.27024 17.6775 6.94264C17.3518 6.29448 16.957 5.68343 16.5 5.12014L16.4475 5.09764ZM16.3425 8.37514C15.7113 9.61497 14.775 10.6738 13.6216 11.4518C12.4683 12.2299 11.1359 12.7017 9.74997 12.8226L15.8325 6.74764C16.0287 7.02687 16.2042 7.32016 16.3575 7.62514C16.421 7.74047 16.4531 7.87049 16.4505 8.00215C16.4478 8.1338 16.4106 8.26245 16.3425 8.37514Z" fill="#636699"/>
</svg>
