<svg width="23" height="15" viewBox="0 0 23 15" fill="none" xmlns="http://www.w3.org/2000/svg">
<path d="M22.3375 2.56527V12.6415C22.3394 12.6702 22.3394 12.6991 22.3375 12.7278L16.1688 7.23027L22.3375 2.56527ZM8.05377 6.75027L10.1463 8.33277C10.5364 8.62665 11.0116 8.78559 11.5 8.78559C11.9885 8.78559 12.4636 8.62665 12.8538 8.33277L14.9463 6.75027L22.09 1.35027C21.9018 0.981883 21.6156 0.672518 21.263 0.456183C20.9104 0.239847 20.505 0.124917 20.0913 0.124023H2.90877C2.49508 0.124917 2.08964 0.239847 1.73702 0.456183C1.3844 0.672518 1.09825 0.981883 0.91002 1.35027L8.05377 6.75027ZM0.66252 2.56527V12.6415C0.660671 12.6702 0.660671 12.6991 0.66252 12.7278L6.83127 7.23027L0.66252 2.56527ZM13.5325 9.22152C12.947 9.66323 12.2335 9.90217 11.5 9.90217C10.7666 9.90217 10.0531 9.66323 9.46752 9.22152L7.75002 7.92027L1.04877 13.894C1.25587 14.2004 1.5353 14.4511 1.86234 14.6237C2.18938 14.7964 2.55395 14.8858 2.92377 14.884H20.0913C20.4611 14.8858 20.8257 14.7964 21.1527 14.6237C21.4797 14.4511 21.7592 14.2004 21.9663 13.894L15.25 7.92027L13.5325 9.22152Z" fill="#101334"/>
</svg>
