<svg width="5" height="15" viewBox="0 0 5 15" fill="none" xmlns="http://www.w3.org/2000/svg">
<path d="M2.5 4C3.4625 4 4.25 3.2125 4.25 2.25C4.25 1.2875 3.4625 0.5 2.5 0.5C1.5375 0.5 0.75 1.2875 0.75 2.25C0.75 3.2125 1.5375 4 2.5 4ZM2.5 5.75C1.5375 5.75 0.75 6.5375 0.75 7.5C0.75 8.4625 1.5375 9.25 2.5 9.25C3.4625 9.25 4.25 8.4625 4.25 7.5C4.25 6.5375 3.4625 5.75 2.5 5.75ZM2.5 11C1.5375 11 0.75 11.7875 0.75 12.75C0.75 13.7125 1.5375 14.5 2.5 14.5C3.4625 14.5 4.25 13.7125 4.25 12.75C4.25 11.7875 3.4625 11 2.5 11Z" fill="white"/>
</svg>
