<svg width="24" height="25" viewBox="0 0 24 25" fill="none" xmlns="http://www.w3.org/2000/svg">
<g id="view">
<g id="Group">
<path id="Vector" d="M12 6.125C10.2042 6.12624 8.44356 6.62342 6.91237 7.56172C5.38118 8.50002 4.13887 9.84299 3.32247 11.4425C3.15583 11.7701 3.06897 12.1325 3.06897 12.5C3.06897 12.8675 3.15583 13.2299 3.32247 13.5575C4.14067 15.1546 5.38375 16.4949 6.91481 17.4308C8.44587 18.3667 10.2055 18.8619 12 18.8619C13.7944 18.8619 15.5541 18.3667 17.0851 17.4308C18.6162 16.4949 19.8593 15.1546 20.6775 13.5575C20.8441 13.2299 20.931 12.8675 20.931 12.5C20.931 12.1325 20.8441 11.7701 20.6775 11.4425C19.8611 9.84299 18.6188 8.50002 17.0876 7.56172C15.5564 6.62342 13.7958 6.12624 12 6.125ZM19.3425 12.875C18.6501 14.2264 17.5983 15.3604 16.3028 16.1524C15.0073 16.9443 13.5184 17.3633 12 17.3633C10.4816 17.3633 8.99265 16.9443 7.69714 16.1524C6.40163 15.3604 5.34979 14.2264 4.65747 12.875C4.59164 12.761 4.55699 12.6317 4.55699 12.5C4.55699 12.3683 4.59164 12.239 4.65747 12.125C5.34979 10.7736 6.40163 9.63955 7.69714 8.84763C8.99265 8.05571 10.4816 7.63667 12 7.63667C13.5184 7.63667 15.0073 8.05571 16.3028 8.84763C17.5983 9.63955 18.6501 10.7736 19.3425 12.125C19.4083 12.239 19.4429 12.3683 19.4429 12.5C19.4429 12.6317 19.4083 12.761 19.3425 12.875Z" fill="#636699"/>
<path id="Vector_2" d="M12 9.125C11.3325 9.125 10.68 9.32294 10.125 9.69379C9.56994 10.0646 9.13735 10.5917 8.88191 11.2084C8.62646 11.8251 8.55963 12.5037 8.68985 13.1584C8.82008 13.8131 9.14151 14.4145 9.61352 14.8865C10.0855 15.3585 10.6869 15.6799 11.3416 15.8102C11.9963 15.9404 12.6749 15.8735 13.2916 15.6181C13.9083 15.3626 14.4354 14.9301 14.8062 14.3751C15.1771 13.82 15.375 13.1675 15.375 12.5C15.373 11.6055 15.0168 10.7482 14.3843 10.1157C13.7518 9.4832 12.8945 9.12698 12 9.125ZM12 14.375C11.6292 14.375 11.2666 14.265 10.9583 14.059C10.65 13.853 10.4096 13.5601 10.2677 13.2175C10.1258 12.8749 10.0887 12.4979 10.161 12.1342C10.2334 11.7705 10.412 11.4364 10.6742 11.1742C10.9364 10.912 11.2705 10.7334 11.6342 10.661C11.9979 10.5887 12.3749 10.6258 12.7175 10.7677C13.0601 10.9096 13.353 11.15 13.559 11.4583C13.765 11.7666 13.875 12.1292 13.875 12.5C13.875 12.9973 13.6775 13.4742 13.3258 13.8258C12.9742 14.1775 12.4973 14.375 12 14.375Z" fill="#636699"/>
</g>
</g>
</svg>
