<svg width="26" height="26" viewBox="0 0 26 26" fill="none" xmlns="http://www.w3.org/2000/svg">
<g id="waves" clip-path="url(#clip0_241_11561)">
<g id="Group">
<g id="Group_2">
<path id="Vector" d="M14.4247 14.1216L14.3732 13.0898C16.2303 12.9867 17.8812 11.3358 17.9843 9.47867C18.0359 8.4469 17.6748 7.41514 16.9526 6.6929C16.2303 5.91908 15.2502 5.50637 14.2184 5.50637C13.9089 5.50637 13.7025 5.30002 13.7025 4.99049C13.7025 4.68096 13.9089 4.47461 14.2184 4.47461H16.4883C21.1828 4.47461 25.0003 8.29214 25.0003 12.9867H23.9686C23.9686 9.11755 21.028 5.91908 17.2621 5.55796C17.4169 5.71273 17.5716 5.8159 17.7264 5.97067C18.655 6.95084 19.1193 8.18896 19.0677 9.53025C18.9645 11.9033 16.8494 14.0184 14.4247 14.1216Z" fill="white"/>
</g>
<g id="Group_3">
<path id="Vector_2" d="M24.4845 21.9118H1.26979C0.960259 21.9118 0.753906 21.7054 0.753906 21.3959V9.22108C0.753906 8.91155 0.960259 8.7052 1.26979 8.7052C3.12696 8.7052 4.82938 9.42743 5.96432 10.7171C6.42861 11.233 7.09926 11.5426 7.7699 11.491C8.85326 11.4394 9.88502 10.4076 9.93661 9.32426C9.9882 8.7052 9.73026 8.08614 9.31755 7.67343C8.90485 7.20914 8.28579 6.9512 7.66673 6.9512C7.3572 6.9512 7.15085 6.74485 7.15085 6.43532C7.15085 6.12579 7.3572 5.91943 7.66673 5.91943H9.1112C12.2581 5.91943 14.7859 8.44726 14.7859 11.5941H13.7541C13.7541 9.37584 12.2065 7.51867 10.143 7.05437C10.7104 7.67343 10.9684 8.49884 10.9168 9.37584C10.8652 11.0267 9.42073 12.4711 7.7699 12.5227C6.73814 12.5743 5.80955 12.1616 5.13891 11.3878C4.31349 10.4592 3.12696 9.89173 1.78567 9.73696V20.88H23.9686V12.987H25.0004V21.3959C25.0004 21.7054 24.794 21.9118 24.4845 21.9118Z" fill="white"/>
</g>
<g id="Group_4">
<path id="Vector_3" d="M24.4845 18.0938C23.4011 18.0938 22.8337 17.7843 22.3178 17.5263C21.8535 17.2684 21.4408 17.062 20.6154 17.062C19.7899 17.062 19.3772 17.2684 18.9129 17.5263C18.3971 17.7843 17.8296 18.0938 16.7462 18.0938C15.6629 18.0938 15.0954 17.7843 14.5795 17.5263C14.1152 17.2684 13.7025 17.062 12.8771 17.062C12.0517 17.062 11.639 17.2684 11.1747 17.5263C10.6588 17.7843 10.0914 18.0938 9.00801 18.0938C7.92466 18.0938 7.35719 17.7843 6.8413 17.5263C6.37701 17.2684 5.9643 17.062 5.13889 17.062C4.31348 17.062 3.90077 17.2684 3.43648 17.5263C2.9206 17.7843 2.35313 18.0938 1.26978 18.0938V17.062C2.09519 17.062 2.50789 16.8557 2.97219 16.5977C3.48807 16.3398 4.05554 16.0303 5.13889 16.0303C6.22224 16.0303 6.78971 16.3398 7.3056 16.5977C7.76989 16.8557 8.1826 17.062 9.00801 17.062C9.83342 17.062 10.2461 16.8557 10.7104 16.5977C11.2263 16.3398 11.7938 16.0303 12.8771 16.0303C13.9605 16.0303 14.5279 16.3398 15.0438 16.5977C15.5081 16.8557 15.9208 17.062 16.7462 17.062C17.5717 17.062 17.9844 16.8557 18.4487 16.5977C18.9645 16.3398 19.532 16.0303 20.6154 16.0303C21.6987 16.0303 22.2662 16.3398 22.7821 16.5977C23.2464 16.8557 23.6591 17.062 24.4845 17.062V18.0938Z" fill="white"/>
</g>
</g>
</g>
<defs>
<clipPath id="clip0_241_11561">
<rect width="24.7623" height="24.7623" fill="white" transform="translate(0.495972 0.812012)"/>
</clipPath>
</defs>
</svg>
