<svg width="27" height="27" viewBox="0 0 27 27" fill="none" xmlns="http://www.w3.org/2000/svg">
<g id="wind">
<g id="Group">
<path id="Vector" d="M17.2074 11.1382H3.15433C2.94518 11.1382 2.74459 11.0551 2.5967 10.9072C2.44881 10.7593 2.36572 10.5587 2.36572 10.3496C2.36572 10.1404 2.44881 9.93984 2.5967 9.79195C2.74459 9.64406 2.94518 9.56097 3.15433 9.56097H17.2231C17.9624 9.57522 18.6843 9.33564 19.2683 8.88217C19.8524 8.4287 20.2634 7.78873 20.4328 7.06896C20.6074 6.25013 20.4496 5.39546 19.9941 4.69297C19.5386 3.99048 18.8227 3.49771 18.0039 3.32307C17.5984 3.23659 17.1799 3.23082 16.7722 3.30609C16.3646 3.38135 15.9757 3.53618 15.6279 3.76173C14.9254 4.21724 14.4326 4.93315 14.258 5.75199C14.226 5.93715 14.1291 6.10482 13.9845 6.22483C13.8399 6.34483 13.6572 6.40926 13.4693 6.40653C13.355 6.40783 13.2418 6.38425 13.1375 6.33744C13.0332 6.29063 12.9403 6.22171 12.8653 6.13544C12.7903 6.04918 12.735 5.94763 12.7031 5.83784C12.6712 5.72806 12.6636 5.61266 12.6807 5.49963C12.9422 4.27191 13.6806 3.19832 14.7336 2.51506C15.7866 1.83179 17.0679 1.59481 18.2956 1.85625C19.5234 2.11769 20.5969 2.85614 21.2802 3.90914C21.9635 4.96213 22.2005 6.24343 21.939 7.47115C21.6794 8.52641 21.0707 9.46292 20.2117 10.1286C19.3528 10.7943 18.294 11.1501 17.2074 11.1382ZM21.5211 22.0683C20.9043 22.204 20.2666 22.2149 19.6456 22.1003C19.0246 21.9857 18.4328 21.7479 17.9051 21.401C17.3775 21.0541 16.9245 20.6051 16.5731 20.0805C16.2217 19.5558 15.9788 18.9661 15.8588 18.3461C15.8417 18.2331 15.8493 18.1177 15.8812 18.0079C15.913 17.8981 15.9684 17.7965 16.0434 17.7103C16.1184 17.624 16.2113 17.5551 16.3156 17.5083C16.4199 17.4615 16.5331 17.4379 16.6474 17.4392C16.8353 17.4365 17.018 17.5009 17.1626 17.6209C17.3071 17.7409 17.4041 17.9086 17.4361 18.0937C17.5585 18.6781 17.8442 19.2157 18.26 19.6441C18.6758 20.0725 19.2047 20.3741 19.7851 20.5138C20.3655 20.6536 20.9737 20.6257 21.5389 20.4335C22.1042 20.2413 22.6033 19.8927 22.9782 19.4281C23.3532 18.9635 23.5886 18.4021 23.6571 17.809C23.7256 17.2159 23.6244 16.6156 23.3652 16.0777C23.1061 15.5399 22.6996 15.0866 22.1931 14.7706C21.6866 14.4547 21.1008 14.2889 20.5037 14.2926H3.15433C2.94518 14.2926 2.74459 14.2095 2.5967 14.0617C2.44881 13.9138 2.36572 13.7132 2.36572 13.504C2.36572 13.2949 2.44881 13.0943 2.5967 12.9464C2.74459 12.7985 2.94518 12.7154 3.15433 12.7154H20.5037C21.6703 12.7151 22.7958 13.1458 23.6642 13.9247C24.5326 14.7035 25.0827 15.7757 25.2088 16.9354C25.3349 18.0951 25.0282 19.2605 24.3476 20.2079C23.667 21.1552 22.6604 21.8178 21.5211 22.0683Z" fill="white"/>
<path id="Vector_2" d="M10.4805 25.2225C9.86377 25.3582 9.2261 25.3691 8.60509 25.2545C7.98408 25.1399 7.3923 24.9021 6.86461 24.5552C6.33692 24.2084 5.88401 23.7593 5.53257 23.2347C5.18113 22.71 4.93827 22.1203 4.8183 21.5003C4.8025 21.3885 4.81087 21.2747 4.84286 21.1664C4.87485 21.0582 4.9297 20.958 5.00372 20.8728C5.07773 20.7876 5.16918 20.7192 5.27188 20.6724C5.37458 20.6256 5.48614 20.6013 5.59902 20.6013C5.78689 20.5986 5.96957 20.663 6.11415 20.783C6.25873 20.903 6.35571 21.0707 6.38763 21.2558C6.51136 21.8391 6.79788 22.3754 7.21397 22.8025C7.63006 23.2296 8.15868 23.53 8.73855 23.6689C9.31841 23.8078 9.92577 23.7795 10.4902 23.5873C11.0547 23.3951 11.5531 23.0469 11.9277 22.583C12.3023 22.119 12.5377 21.5585 12.6067 20.9662C12.6757 20.3739 12.5754 19.7742 12.3174 19.2366C12.0595 18.6991 11.6544 18.2456 11.1492 17.9288C10.6441 17.612 10.0595 17.4449 9.46321 17.4468H3.15433C2.94518 17.4468 2.74459 17.3638 2.5967 17.2159C2.44881 17.068 2.36572 16.8674 2.36572 16.6582C2.36572 16.4491 2.44881 16.2485 2.5967 16.1006C2.74459 15.9527 2.94518 15.8696 3.15433 15.8696H9.46321C10.6297 15.8693 11.7552 16.3 12.6236 17.0789C13.492 17.8578 14.0421 18.93 14.1683 20.0896C14.2944 21.2493 13.9877 22.4147 13.3071 23.3621C12.6264 24.3095 11.6198 24.972 10.4805 25.2225Z" fill="white"/>
</g>
</g>
</svg>
