<svg width="32" height="32" viewBox="0 0 32 32" fill="none" xmlns="http://www.w3.org/2000/svg">
<g id="alcohol">
<path id="Vector" d="M13.0631 13.7819H6.24688C6.085 13.7819 5.93625 13.8737 5.86625 14.0181C5.32375 15.1294 5 16.6825 5 18.17C5 21.8581 6.71938 24.4831 9.235 24.75V29.1513H7.91813C7.68187 29.1513 7.49375 29.3394 7.49375 29.5756C7.49375 29.8119 7.6775 30 7.91375 30H11.4006C11.6369 30 11.825 29.8119 11.825 29.5756C11.825 29.3394 11.6369 29.1513 11.4006 29.1513H10.0838V24.75C12.595 24.4831 14.3187 21.8538 14.3187 18.17C14.3187 16.6825 13.995 15.1294 13.4525 14.0181C13.3737 13.8737 13.225 13.7819 13.0631 13.7819ZM6.51813 14.6306H12.7919C13.1637 15.4925 13.4044 16.6344 13.4525 17.7456H5.8575C5.90563 16.6344 6.14625 15.4925 6.51813 14.6306ZM9.655 23.9319C7.47187 23.9319 5.98 21.8056 5.8575 18.5987H13.4525C13.3256 21.7575 11.8031 23.9319 9.655 23.9319ZM26.8881 20.4056C26.8881 20.0075 26.9056 19.6137 26.9187 19.2156C26.9362 18.6994 26.9538 18.1744 26.945 17.645C26.9363 17.0369 26.8925 16.4244 26.7744 15.8162C26.5819 14.8363 26.1881 13.8781 25.8075 12.955L25.6413 12.5525C25.405 11.9706 25.1644 11.4587 24.9325 10.96C24.2806 9.56875 23.7688 8.47062 23.7556 6.78188C23.7425 5.49125 23.7688 3.63625 23.7994 2.4375C23.8038 2.32375 23.76 2.21438 23.6769 2.13125C23.5981 2.04813 23.4888 2 23.375 2H20.6537C20.5356 2 20.4263 2.04812 20.3475 2.12687C20.2688 2.21 20.225 2.31938 20.225 2.43313C20.2556 3.63188 20.2819 5.49125 20.2688 6.78188C20.2513 8.7375 19.5206 10.2338 18.7419 11.8131C18.0638 13.2 17.3594 14.6306 17.1494 16.4156C16.9744 17.8944 17.0312 19.4519 17.0838 20.9569C17.11 21.6656 17.1362 22.3962 17.1362 23.0919V28.39C17.1362 29.2738 17.8494 29.9956 18.72 29.9956H25.3C26.175 29.9956 26.8837 29.2738 26.8837 28.39V25.9969C26.8837 25.9925 26.8881 25.9881 26.8881 25.9837C26.8881 25.9794 26.8837 25.975 26.8837 25.9706V23.0963C26.8837 22.2038 26.8837 21.3025 26.8881 20.4056ZM26.0394 25.5638H23.3313V18.0694H26.0963C26.0919 18.4369 26.0831 18.8088 26.07 19.185C26.0569 19.5919 26.0437 19.9944 26.0394 20.4013C26.035 21.3025 26.035 22.2038 26.0394 23.105V25.5638ZM22.9419 2.84875C22.9331 3.25563 22.9244 3.71062 22.92 4.17875H21.1087C21.1044 3.71062 21.0956 3.25563 21.0869 2.84875H22.9419ZM25.3044 29.1513H18.7244C18.3175 29.1513 17.9894 28.81 17.9894 28.3944V23.0963C17.9894 22.3831 17.9631 21.6438 17.9369 20.9306C17.8844 19.4563 17.8319 17.9294 17.9981 16.5163C18.195 14.8756 18.8337 13.5719 19.5119 12.1894C20.295 10.5925 21.1044 8.93875 21.1219 6.79063C21.1262 6.27 21.1262 5.65313 21.1219 5.0275H22.9156C22.9112 5.65313 22.9112 6.26562 22.9156 6.79063C22.9331 8.66313 23.5063 9.8925 24.1756 11.3187C24.4031 11.8044 24.6394 12.3075 24.8669 12.8675L25.0331 13.2744C25.3962 14.1625 25.7725 15.0813 25.9519 15.9781C26.035 16.3894 26.07 16.805 26.0919 17.2206H22.92C22.6838 17.2206 22.4956 17.4087 22.4956 17.645V25.9881C22.4956 26.2244 22.6838 26.4125 22.92 26.4125H26.0525V28.3944C26.0394 28.81 25.7113 29.1513 25.3044 29.1513Z" fill="white"/>
</g>
</svg>
