<svg width="32" height="32" viewBox="0 0 32 32" fill="none" xmlns="http://www.w3.org/2000/svg">
<g id="bed">
<path id="Vector" d="M30 20H29.5V18C29.5 17.337 29.2366 16.7011 28.7678 16.2322C28.2989 15.7634 27.663 15.5 27 15.5H26.5V9C26.5 8.07174 26.1313 7.1815 25.4749 6.52513C24.8185 5.86875 23.9283 5.5 23 5.5H9C8.07174 5.5 7.1815 5.86875 6.52513 6.52513C5.86875 7.1815 5.5 8.07174 5.5 9V15.5H5C4.33696 15.5 3.70107 15.7634 3.23223 16.2322C2.76339 16.7011 2.5 17.337 2.5 18V20H2C1.86739 20 1.74021 20.0527 1.64645 20.1464C1.55268 20.2402 1.5 20.3674 1.5 20.5V26C1.5 26.1326 1.55268 26.2598 1.64645 26.3536C1.74021 26.4473 1.86739 26.5 2 26.5H5.665C5.76982 26.5003 5.87208 26.4676 5.95731 26.4066C6.04255 26.3456 6.10646 26.2593 6.14 26.16L6.5 25.025C6.60372 24.7316 6.79613 24.4778 7.05055 24.2986C7.30497 24.1194 7.60882 24.0238 7.92 24.025H24.06C24.3712 24.0238 24.675 24.1194 24.9295 24.2986C25.1839 24.4778 25.3763 24.7316 25.48 25.025L25.86 26.16C25.8948 26.2635 25.9625 26.3527 26.0528 26.4141C26.1431 26.4755 26.251 26.5057 26.36 26.5H30C30.1326 26.5 30.2598 26.4473 30.3536 26.3536C30.4473 26.2598 30.5 26.1326 30.5 26V20.5C30.5 20.3674 30.4473 20.2402 30.3536 20.1464C30.2598 20.0527 30.1326 20 30 20ZM6.5 9C6.5 8.33696 6.76339 7.70107 7.23223 7.23223C7.70107 6.76339 8.33696 6.5 9 6.5H23C23.663 6.5 24.2989 6.76339 24.7678 7.23223C25.2366 7.70107 25.5 8.33696 25.5 9V15.5H23.91C24.06 15.08 23.975 14.895 24 14C24 13.6022 23.842 13.2206 23.5607 12.9393C23.2794 12.658 22.8978 12.5 22.5 12.5H19C18.6022 12.5 18.2206 12.658 17.9393 12.9393C17.658 13.2206 17.5 13.6022 17.5 14C17.5 14.895 17.44 15.08 17.59 15.5H14.41C14.56 15.08 14.475 14.895 14.5 14C14.5 13.6022 14.342 13.2206 14.0607 12.9393C13.7794 12.658 13.3978 12.5 13 12.5H9.5C9.10218 12.5 8.72064 12.658 8.43934 12.9393C8.15804 13.2206 8 13.6022 8 14C8.025 14.895 7.94 15.08 8.09 15.5H6.5V9ZM18.5 15V14C18.5 13.8674 18.5527 13.7402 18.6464 13.6464C18.7402 13.5527 18.8674 13.5 19 13.5H22.5C22.6326 13.5 22.7598 13.5527 22.8536 13.6464C22.9473 13.7402 23 13.8674 23 14V15C23 15.1326 22.9473 15.2598 22.8536 15.3536C22.7598 15.4473 22.6326 15.5 22.5 15.5H19C18.8674 15.5 18.7402 15.4473 18.6464 15.3536C18.5527 15.2598 18.5 15.1326 18.5 15ZM9 15V14C9 13.8674 9.05268 13.7402 9.14645 13.6464C9.24021 13.5527 9.36739 13.5 9.5 13.5H13C13.1326 13.5 13.2598 13.5527 13.3536 13.6464C13.4473 13.7402 13.5 13.8674 13.5 14V15C13.5 15.1326 13.4473 15.2598 13.3536 15.3536C13.2598 15.4473 13.1326 15.5 13 15.5H9.5C9.36739 15.5 9.24021 15.4473 9.14645 15.3536C9.05268 15.2598 9 15.1326 9 15ZM3.5 18C3.5 17.6022 3.65804 17.2206 3.93934 16.9393C4.22064 16.658 4.60218 16.5 5 16.5H27C27.3978 16.5 27.7794 16.658 28.0607 16.9393C28.342 17.2206 28.5 17.6022 28.5 18V20H3.5V18ZM29.5 25.5H26.695L26.43 24.71C26.2643 24.2124 25.9462 23.7795 25.5209 23.4726C25.0956 23.1657 24.5845 23.0004 24.06 23H7.94C7.41552 23.0004 6.90444 23.1657 6.47911 23.4726C6.05378 23.7795 5.73574 24.2124 5.57 24.71L5.305 25.5H2.5V21H29.5V25.5Z" fill="white"/>
</g>
</svg>
