<svg width="32" height="32" viewBox="0 0 32 32" fill="none" xmlns="http://www.w3.org/2000/svg">
<g id="briefcase">
<path id="Vector" d="M4.5 28H27.5C28.878 28 30 26.878 30 25.5V10.5C30 9.122 28.878 8 27.5 8H22.39L21.864 5.894C21.7293 5.35268 21.4172 4.87206 20.9775 4.52879C20.5378 4.18551 19.9958 3.99935 19.438 4H12.561C12.0033 3.9994 11.4615 4.1856 11.0219 4.52888C10.5824 4.87217 10.2705 5.35276 10.136 5.894L9.61 8H4.5C3.8372 8.0008 3.20178 8.26444 2.73311 8.73311C2.26444 9.20178 2.00079 9.8372 2 10.5V25.5C2 26.878 3.122 28 4.5 28ZM27.5 27H4.5C3.673 27 3 26.327 3 25.5V15.17L13.5 18.281V21.5C13.5 21.6326 13.5527 21.7598 13.6464 21.8536C13.7402 21.9473 13.8674 22 14 22H18C18.1326 22 18.2598 21.9473 18.3536 21.8536C18.4473 21.7598 18.5 21.6326 18.5 21.5V18.281L29 15.17V25.5C29 26.327 28.327 27 27.5 27ZM16 20C15.8674 20 15.7402 20.0527 15.6464 20.1464C15.5527 20.2402 15.5 20.3674 15.5 20.5V21H14.5V19H17.5V21H16.5V20.5C16.5 20.3674 16.4473 20.2402 16.3536 20.1464C16.2598 20.0527 16.1326 20 16 20ZM17.5 17.907V18H14.5V17H17.5V17.907ZM11.106 6.136C11.1869 5.8112 11.3742 5.52285 11.6381 5.31695C11.902 5.11105 12.2273 4.99947 12.562 5H19.439C19.7736 4.99982 20.0987 5.11153 20.3625 5.31737C20.6264 5.52322 20.8138 5.81137 20.895 6.136L21.36 8H10.64L11.106 6.136ZM3 10.5C3 9.673 3.673 9 4.5 9H27.5C28.327 9 29 9.673 29 10.5V14.126L18.5 17.237V16.5C18.5 16.3674 18.4473 16.2402 18.3536 16.1464C18.2598 16.0527 18.1326 16 18 16H14C13.8674 16 13.7402 16.0527 13.6464 16.1464C13.5527 16.2402 13.5 16.3674 13.5 16.5V17.238L3 14.126V10.5Z" fill="#101334"/>
</g>
</svg>
