<svg width="32" height="32" viewBox="0 0 32 32" fill="none" xmlns="http://www.w3.org/2000/svg">
<g id="bright">
<path id="Vector" d="M15.5314 2C10.2757 2 6 6.32294 6 11.6351C6 14.1813 6.97387 16.5828 8.74312 18.3958C10.2608 19.9511 11.0969 22.0239 11.0986 24.2337C11.0986 24.2355 11.0973 24.2372 11.0973 24.2399V26.3512C11.0973 27.1357 11.5781 27.8099 12.2597 28.0951C12.4562 29.1841 13.3964 30 14.5334 30H16.5332C17.6703 30 18.6105 29.1832 18.8065 28.0951C19.4886 27.8099 19.9689 27.1357 19.9689 26.3512V24.2443C19.9689 24.2416 19.9707 24.239 19.9707 24.2364C19.9707 22.0257 20.8067 19.9511 22.3244 18.394C24.0928 16.5801 25.0662 14.1796 25.0662 11.6351C25.0662 6.32294 20.7888 2 15.5314 2ZM14.5168 23.8159L11.6958 12.7109L13.3347 13.3921C13.4633 13.4459 13.6103 13.4332 13.7271 13.3579L15.5235 12.2034L17.1667 13.3483C17.2836 13.4297 17.4332 13.4476 17.5636 13.396L19.3757 12.6886L16.5494 23.8159H14.5168ZM19.1206 24.6647V25.6044H11.9461V24.6647H19.1206ZM18.2959 27.3697C18.2881 27.3724 18.2789 27.3715 18.2714 27.3741C18.2084 27.3859 18.1437 27.3938 18.0776 27.3938H12.9886C12.4492 27.3938 12.0086 26.9795 11.9566 26.4532H19.1106C19.0655 26.9069 18.7334 27.2757 18.2959 27.3697ZM16.5332 29.1517H14.5334C13.9205 29.1517 13.3977 28.7776 13.1772 28.2426H17.8895C17.669 28.7772 17.1466 29.1517 16.5332 29.1517ZM21.7167 17.8021C20.1409 19.4186 19.2317 21.5388 19.1316 23.8159H17.4249L20.4016 12.0984C20.441 11.9444 20.3911 11.7812 20.2717 11.6762C20.1531 11.5712 19.9843 11.541 19.8368 11.5983L17.4669 12.5227L15.7764 11.3446C15.6351 11.2461 15.4487 11.2431 15.3039 11.3354L13.4554 12.5241L11.2391 11.6023C11.0907 11.5406 10.9206 11.5681 10.7989 11.6731C10.6773 11.7781 10.6257 11.9431 10.6655 12.0988L13.6422 23.8164H11.9386C11.838 21.5418 10.928 19.4199 9.35081 17.8043C7.73731 16.1501 6.84875 13.9591 6.84875 11.6355C6.84875 6.79063 10.7438 2.84875 15.5314 2.84875C20.3211 2.84875 24.2175 6.79063 24.2175 11.6355C24.2179 13.9569 23.3294 16.147 21.7167 17.8021Z" fill="white"/>
</g>
</svg>
