<svg width="32" height="32" viewBox="0 0 32 32" fill="none" xmlns="http://www.w3.org/2000/svg">
<g id="coffee-cup">
<path id="Vector" d="M25.2499 5.49998H24.5032L24.0016 3.99499C23.8082 3.41445 23.4372 2.90942 22.9409 2.55139C22.4447 2.19336 21.8485 2.00046 21.2366 2H11.7633C11.1514 2.00046 10.5552 2.19336 10.0589 2.55139C9.56272 2.90942 9.19168 3.41445 8.99832 3.99499L8.49665 5.49998H7.74999C7.28586 5.49998 6.84075 5.68435 6.51256 6.01254C6.18437 6.34073 6 6.78584 6 7.24997V8.41663C6 8.88076 6.18437 9.32587 6.51256 9.65406C6.84075 9.98225 7.28586 10.1666 7.74999 10.1666H8.33332L8.57832 14.2499L9.19665 24.7499L9.40665 28.2499C9.40663 28.4816 9.45265 28.7111 9.54205 28.925C9.63145 29.1388 9.76245 29.3328 9.92743 29.4956C10.0924 29.6584 10.2881 29.7868 10.5031 29.8734C10.7181 29.96 10.9482 30.0029 11.18 29.9998H21.8082C22.2547 30.0006 22.6847 29.8308 23.01 29.5249C23.3353 29.2191 23.5314 28.8005 23.5582 28.3549L23.7682 24.8549L24.3866 14.3549L24.6666 10.1666H25.2849C25.7429 10.1575 26.1791 9.96905 26.4998 9.64185C26.8204 9.31465 27 8.87476 26.9999 8.41663V7.24997C26.9999 6.78584 26.8155 6.34073 26.4873 6.01254C26.1591 5.68435 25.714 5.49998 25.2499 5.49998ZM10.0833 4.33332C10.2056 3.98724 10.4336 3.68837 10.7351 3.479C11.0366 3.26964 11.3963 3.16037 11.7633 3.16666H21.2366C21.5996 3.16526 21.9541 3.2768 22.2509 3.48584C22.5478 3.69487 22.7722 3.99104 22.8932 4.33332L23.2782 5.49998H9.72165L10.0833 4.33332ZM22.3799 28.2499C22.371 28.3984 22.3056 28.5379 22.1972 28.6399C22.0887 28.7418 21.9454 28.7985 21.7966 28.7982H11.18C11.0311 28.7985 10.8878 28.7418 10.7794 28.6399C10.6709 28.5379 10.6056 28.3984 10.5966 28.2499L10.4333 25.3332H22.5782L22.3799 28.2499ZM22.6366 24.1665H10.3633L9.81498 14.8333H23.1849L22.6366 24.1665ZM23.2549 13.6666H9.74498L9.49998 10.1666H23.4999L23.2549 13.6666ZM25.8332 8.41663C25.8332 8.57134 25.7718 8.71971 25.6624 8.82911C25.553 8.9385 25.4046 8.99996 25.2499 8.99996H7.74999C7.59528 8.99996 7.44691 8.9385 7.33751 8.82911C7.22812 8.71971 7.16666 8.57134 7.16666 8.41663V7.24997C7.16666 7.09526 7.22812 6.94689 7.33751 6.83749C7.44691 6.7281 7.59528 6.66664 7.74999 6.66664H25.2499C25.4046 6.66664 25.553 6.7281 25.6624 6.83749C25.7718 6.94689 25.8332 7.09526 25.8332 7.24997V8.41663ZM16.4999 22.4166C17.0768 22.4166 17.6407 22.2455 18.1203 21.925C18.6 21.6045 18.9738 21.149 19.1946 20.6161C19.4153 20.0831 19.4731 19.4967 19.3605 18.9309C19.248 18.3651 18.9702 17.8454 18.5623 17.4375C18.1544 17.0296 17.6347 16.7518 17.069 16.6393C16.5032 16.5268 15.9167 16.5845 15.3838 16.8053C14.8508 17.026 14.3953 17.3999 14.0748 17.8795C13.7543 18.3591 13.5833 18.923 13.5833 19.4999C13.5833 20.2734 13.8906 21.0153 14.4376 21.5623C14.9845 22.1093 15.7264 22.4166 16.4999 22.4166ZM16.4999 17.7499C16.8461 17.7499 17.1844 17.8525 17.4722 18.0448C17.76 18.2371 17.9843 18.5104 18.1167 18.8302C18.2492 19.15 18.2838 19.5018 18.2163 19.8413C18.1488 20.1808 17.9821 20.4926 17.7374 20.7373C17.4926 20.9821 17.1808 21.1487 16.8413 21.2163C16.5019 21.2838 16.15 21.2491 15.8302 21.1167C15.5105 20.9842 15.2372 20.7599 15.0449 20.4721C14.8526 20.1844 14.75 19.846 14.75 19.4999C14.75 19.0358 14.9343 18.5907 15.2625 18.2625C15.5907 17.9343 16.0358 17.7499 16.4999 17.7499Z" fill="#101334"/>
</g>
</svg>
