<svg width="32" height="32" viewBox="0 0 32 32" fill="none" xmlns="http://www.w3.org/2000/svg">
<g id="coffee">
<path id="Vector" fill-rule="evenodd" clip-rule="evenodd" d="M7.89295 25.0562C6.18314 23.5191 5.05771 21.3691 4.35819 18.9914C3.93414 17.549 3.62214 14.5967 3.62214 14.5967C3.61302 14.5105 3.62216 14.4232 3.64898 14.3407C3.67579 14.2581 3.71967 14.1822 3.77776 14.1177C3.83586 14.0533 3.90687 14.0017 3.98618 13.9665C4.06549 13.9313 4.15132 13.9132 4.2381 13.9133H25.2857C25.3714 13.9132 25.4562 13.9309 25.5347 13.9653C25.6132 13.9997 25.6837 14.05 25.7417 14.1131C25.7997 14.1762 25.8439 14.2507 25.8716 14.3319C25.8992 14.413 25.9097 14.499 25.9023 14.5844C25.9023 14.5844 25.833 15.4021 25.7166 16.3895H28.381C28.5451 16.3895 28.7026 16.4547 28.8187 16.5708C28.9348 16.6869 29 16.8444 29 17.0086V18.0312C28.9995 19.4017 28.4549 20.7158 27.4858 21.6849C26.5168 22.6539 25.2026 23.1985 23.8322 23.199H23.7022C23.2948 23.8828 22.7958 24.5077 22.219 25.0562H25.9048C26.0689 25.0562 26.2264 25.1214 26.3425 25.2375C26.4586 25.3536 26.5238 25.511 26.5238 25.6752C26.5238 26.0817 26.4437 26.4842 26.2882 26.8597C26.1326 27.2353 25.9047 27.5765 25.6172 27.8639C25.3298 28.1513 24.9886 28.3793 24.6131 28.5348C24.2375 28.6904 23.835 28.7705 23.4286 28.7705H6.09524C5.27433 28.7705 4.48704 28.4444 3.90657 27.8639C3.3261 27.2834 3 26.4961 3 25.6752C3 25.511 3.06522 25.3536 3.18131 25.2375C3.29741 25.1214 3.45487 25.0562 3.61905 25.0562H7.89295ZM25.1799 26.2943H4.34395C4.47199 26.6564 4.70916 26.9699 5.02281 27.1917C5.33645 27.4134 5.71113 27.5324 6.09524 27.5324H23.4286C23.8127 27.5324 24.1874 27.4134 24.501 27.1917C24.8146 26.9699 25.0518 26.6564 25.1799 26.2943ZM20.168 25.0562C22.4146 23.732 23.467 21.4156 24.1021 18.7171C24.3305 17.7458 24.515 16.0781 24.6066 15.1514H4.93205C5.0441 16.0701 5.26819 17.6976 5.54614 18.6422C6.33481 21.3252 7.69114 23.711 9.97481 25.0562H20.168ZM25.555 17.6276C25.491 18.0884 25.4084 18.5465 25.3074 19.0007C25.0629 20.0382 24.757 21.0212 24.359 21.9257C25.3014 21.798 26.1655 21.3331 26.7912 20.617C27.417 19.9009 27.7618 18.9822 27.7619 18.0312V17.6276H25.555ZM13.8005 11.5027C13.8005 11.5027 12.9048 11.0026 12.9048 9.57998C12.9048 8.15741 13.8005 7.65722 13.8005 7.65722C13.8758 7.62246 13.9433 7.57293 13.9991 7.51157C14.0548 7.45022 14.0977 7.37829 14.1251 7.30005C14.1525 7.22181 14.164 7.13887 14.1587 7.05613C14.1535 6.97339 14.1317 6.89254 14.0946 6.81839C14.0575 6.74424 14.0059 6.67829 13.9429 6.62446C13.8798 6.57062 13.8066 6.53 13.7276 6.505C13.6485 6.48 13.5653 6.47114 13.4827 6.47893C13.4002 6.48672 13.3201 6.51102 13.2471 6.55037C13.2471 6.55037 11.6667 7.28765 11.6667 9.57998C11.6667 11.8723 13.2471 12.6096 13.2471 12.6096C13.3201 12.649 13.4002 12.6732 13.4827 12.681C13.5653 12.6888 13.6485 12.68 13.7276 12.655C13.8066 12.63 13.8798 12.5893 13.9429 12.5355C14.0059 12.4817 14.0575 12.4157 14.0946 12.3416C14.1317 12.2674 14.1535 12.1866 14.1587 12.1038C14.164 12.0211 14.1525 11.9382 14.1251 11.8599C14.0977 11.7817 14.0548 11.7098 13.9991 11.6484C13.9433 11.587 13.8758 11.5375 13.8005 11.5027ZM16.2767 10.1334C16.2767 10.1334 17.8571 9.39613 17.8571 7.10379C17.8571 4.81146 16.2767 4.07417 16.2767 4.07417C16.2037 4.03482 16.1236 4.01053 16.0411 4.00274C15.9585 3.99495 15.8753 4.00381 15.7962 4.02881C15.7172 4.05381 15.644 4.09443 15.5809 4.14827C15.5179 4.2021 15.4663 4.26805 15.4292 4.3422C15.3921 4.41635 15.3703 4.4972 15.3651 4.57994C15.3598 4.66268 15.3713 4.74562 15.3987 4.82386C15.4261 4.9021 15.469 4.97403 15.5248 5.03538C15.5805 5.09673 15.648 5.14626 15.7233 5.18103C15.7233 5.18103 16.619 5.68122 16.619 7.10379C16.619 8.52637 15.7233 9.02656 15.7233 9.02656C15.648 9.06132 15.5805 9.11085 15.5248 9.17221C15.469 9.23356 15.4261 9.30549 15.3987 9.38373C15.3713 9.46196 15.3598 9.54491 15.3651 9.62765C15.3703 9.71039 15.3921 9.79123 15.4292 9.86539C15.4663 9.93954 15.5179 10.0055 15.5809 10.0593C15.644 10.1132 15.7172 10.1538 15.7962 10.1788C15.8753 10.2038 15.9585 10.2126 16.0411 10.2048C16.1236 10.1971 16.2037 10.1728 16.2767 10.1334Z" fill="white"/>
</g>
</svg>
