<svg width="32" height="32" viewBox="0 0 32 32" fill="none" xmlns="http://www.w3.org/2000/svg">
<g id="cold">
<g id="Group">
<path id="Vector" d="M16.0009 30.0001C15.903 30.0001 15.8057 30.0001 15.7072 29.9946C14.4372 29.9446 13.2014 29.5688 12.1186 28.9033C11.0358 28.2379 10.1423 27.3051 9.52393 26.1947C8.9056 25.0842 8.58324 23.8335 8.58782 22.5625C8.59239 21.2915 8.92374 20.0431 9.55004 18.9371C10.122 17.9316 10.9202 17.073 11.8815 16.4295V6.12182C11.8815 5.03046 12.3151 3.9838 13.0868 3.21209C13.8585 2.44038 14.9052 2.00684 15.9965 2.00684C17.0879 2.00684 18.1345 2.44038 18.9063 3.21209C19.678 3.9838 20.1115 5.03046 20.1115 6.12182V16.4295C21.1254 17.1059 21.9566 18.0223 22.5313 19.0972C23.1059 20.1721 23.4063 21.3722 23.4056 22.5911C23.4054 24.5553 22.6254 26.439 21.2369 27.8283C19.8484 29.2177 17.9651 29.9988 16.0009 30.0001ZM15.9965 3.10067C15.1955 3.10153 14.4276 3.42011 13.8612 3.9865C13.2948 4.55289 12.9762 5.32083 12.9754 6.12182V16.7287C12.9754 16.8225 12.9512 16.9148 12.9052 16.9966C12.8592 17.0784 12.793 17.147 12.7128 17.1957C11.5361 17.9121 10.6258 18.9936 10.1208 20.2753C9.61587 21.5571 9.54388 22.9688 9.91586 24.2953C10.2878 25.6218 11.0834 26.7903 12.1812 27.6226C13.279 28.4549 14.6189 28.9054 15.9965 28.9054C17.3742 28.9054 18.714 28.4549 19.8119 27.6226C20.9097 26.7903 21.7052 25.6218 22.0772 24.2953C22.4492 22.9688 22.3772 21.5571 21.8722 20.2753C21.3672 18.9936 20.457 17.9121 19.2802 17.1957C19.2001 17.147 19.1338 17.0784 19.0878 16.9966C19.0419 16.9148 19.0177 16.8225 19.0177 16.7287V6.12182C19.0168 5.32083 18.6982 4.55289 18.1318 3.9865C17.5655 3.42011 16.7975 3.10153 15.9965 3.10067Z" fill="#101334"/>
<path id="Vector_2" d="M15.9966 27.8042C15.9288 27.8042 15.8593 27.8042 15.7904 27.8004C14.6715 27.756 13.5965 27.3526 12.7247 26.6498C11.8528 25.947 11.2305 24.9821 10.9497 23.8981C10.6689 22.814 10.7446 21.6683 11.1656 20.6306C11.5866 19.5929 12.3305 18.7184 13.2872 18.1364L14.0775 17.654V6.12176C14.0775 5.61278 14.2797 5.12464 14.6396 4.76473C14.9995 4.40483 15.4876 4.20264 15.9966 4.20264C16.5056 4.20264 16.9937 4.40483 17.3537 4.76473C17.7136 5.12464 17.9157 5.61278 17.9157 6.12176V17.654L18.706 18.1364C19.6777 18.7276 20.4294 19.6203 20.8465 20.6785C21.2636 21.7367 21.3233 22.9022 21.0163 23.9974C20.7094 25.0926 20.0527 26.0574 19.1465 26.7447C18.2402 27.432 17.134 27.8041 15.9966 27.8042ZM15.9966 5.29647C15.7778 5.29676 15.5681 5.3838 15.4134 5.53851C15.2587 5.69322 15.1716 5.90297 15.1713 6.12176V17.9614C15.1713 18.0552 15.1472 18.1475 15.1012 18.2292C15.0552 18.311 14.989 18.3796 14.9088 18.4284L13.8565 19.0705C13.1026 19.5315 12.5167 20.2226 12.1853 21.0419C11.8539 21.8611 11.7944 22.7651 12.0157 23.6207C12.237 24.4763 12.7274 25.2381 13.4145 25.7939C14.1016 26.3497 14.9491 26.67 15.832 26.7076C15.8867 26.7076 15.9414 26.7109 15.9961 26.7109C16.8951 26.711 17.7695 26.4171 18.4858 25.8739C19.2022 25.3307 19.7213 24.5682 19.9638 23.7025C20.2063 22.8368 20.1591 21.9156 19.8292 21.0792C19.4993 20.2429 18.9049 19.5375 18.1367 19.0705L17.0844 18.429C17.0043 18.3802 16.938 18.3116 16.8921 18.2298C16.8461 18.148 16.8219 18.0557 16.8219 17.9619V6.12176C16.8216 5.90297 16.7346 5.69322 16.5799 5.53851C16.4252 5.3838 16.2154 5.29676 15.9966 5.29647Z" fill="#101334"/>
<path id="Vector_3" d="M17.3681 16.2757H14.6243C14.4792 16.2757 14.3401 16.2181 14.2375 16.1155C14.135 16.0129 14.0774 15.8738 14.0774 15.7288C14.0774 15.5837 14.135 15.4446 14.2375 15.342C14.3401 15.2395 14.4792 15.1819 14.6243 15.1819H17.3681C17.5132 15.1819 17.6523 15.2395 17.7549 15.342C17.8574 15.4446 17.9151 15.5837 17.9151 15.7288C17.9151 15.8738 17.8574 16.0129 17.7549 16.1155C17.6523 16.2181 17.5132 16.2757 17.3681 16.2757ZM20.2531 21.2165H11.7388C11.5937 21.2165 11.4546 21.1589 11.352 21.0563C11.2495 20.9538 11.1918 20.8146 11.1918 20.6696C11.1918 20.5245 11.2495 20.3854 11.352 20.2829C11.4546 20.1803 11.5937 20.1227 11.7388 20.1227H20.2531C20.3982 20.1227 20.5373 20.1803 20.6398 20.2829C20.7424 20.3854 20.8 20.5245 20.8 20.6696C20.8 20.8146 20.7424 20.9538 20.6398 21.0563C20.5373 21.1589 20.3982 21.2165 20.2531 21.2165ZM13.8006 23.4124C13.7639 23.4125 13.7272 23.4088 13.6912 23.4014C13.6562 23.3944 13.622 23.3839 13.589 23.3703C13.5558 23.3567 13.5241 23.3398 13.4943 23.3199C13.4343 23.2804 13.383 23.229 13.3434 23.169C13.3235 23.1392 13.3067 23.1075 13.2931 23.0744C13.2792 23.0415 13.2687 23.0072 13.2619 22.9721C13.2547 22.937 13.2511 22.9013 13.251 22.8655C13.2509 22.8287 13.2546 22.7921 13.2619 22.7561C13.2689 22.721 13.2793 22.6868 13.2931 22.6538C13.3068 22.6209 13.3236 22.5894 13.3434 22.5597C13.3631 22.5298 13.3858 22.5019 13.4112 22.4766C13.4367 22.4512 13.4645 22.4283 13.4943 22.4082C13.5241 22.3884 13.5558 22.3715 13.589 22.3579C13.622 22.3442 13.6562 22.3338 13.6912 22.3267C13.7616 22.3125 13.8341 22.3125 13.9045 22.3267C13.9397 22.3339 13.9741 22.3443 14.0074 22.3579C14.0736 22.3855 14.1338 22.4258 14.1846 22.4766C14.2099 22.5019 14.2327 22.5298 14.2524 22.5597C14.2721 22.5894 14.289 22.6209 14.3027 22.6538C14.3165 22.6868 14.3269 22.721 14.3339 22.7561C14.3412 22.7921 14.3448 22.8287 14.3448 22.8655C14.3447 22.9013 14.341 22.937 14.3339 22.9721C14.3271 23.0072 14.3166 23.0415 14.3027 23.0744C14.2891 23.1075 14.2722 23.1392 14.2524 23.169C14.2128 23.229 14.1614 23.2804 14.1014 23.3199C14.0718 23.3397 14.0403 23.3565 14.0074 23.3703C13.9741 23.3839 13.9397 23.3943 13.9045 23.4014C13.8703 23.4084 13.8355 23.4121 13.8006 23.4124ZM15.9965 23.4124C15.8515 23.4119 15.7126 23.3543 15.6098 23.2521C15.5844 23.2268 15.5617 23.199 15.542 23.169C15.5221 23.1392 15.5053 23.1075 15.4917 23.0744C15.4778 23.0415 15.4673 23.0072 15.4605 22.9721C15.4533 22.937 15.4497 22.9013 15.4496 22.8655C15.4495 22.8287 15.4532 22.7921 15.4605 22.7561C15.4675 22.721 15.4779 22.6868 15.4917 22.6538C15.5054 22.6209 15.5222 22.5894 15.542 22.5597C15.5617 22.5298 15.5844 22.5019 15.6098 22.4766C15.6863 22.4002 15.7836 22.3481 15.8896 22.327C15.9956 22.3059 16.1055 22.3166 16.2054 22.3579C16.2385 22.3715 16.2702 22.3884 16.3 22.4082C16.3299 22.4283 16.3577 22.4512 16.3832 22.4766C16.4085 22.5019 16.4313 22.5298 16.451 22.5597C16.4707 22.5894 16.4876 22.6209 16.5013 22.6538C16.5151 22.6868 16.5255 22.721 16.5325 22.7561C16.5398 22.7921 16.5434 22.8287 16.5434 22.8655C16.5433 22.9013 16.5396 22.937 16.5325 22.9721C16.5254 23.0071 16.515 23.0414 16.5013 23.0744C16.4877 23.1075 16.4708 23.1392 16.451 23.169C16.4114 23.229 16.36 23.2804 16.3 23.3199C16.2702 23.3398 16.2385 23.3567 16.2054 23.3703C16.1724 23.3839 16.1382 23.3944 16.1031 23.4014C16.068 23.4086 16.0323 23.4123 15.9965 23.4124ZM18.1923 23.4124C18.1565 23.4123 18.1208 23.4086 18.0857 23.4014C18.0507 23.3944 18.0164 23.3839 17.9834 23.3703C17.9503 23.3567 17.9186 23.3398 17.8888 23.3199C17.8288 23.2804 17.7775 23.229 17.7379 23.169C17.718 23.1392 17.7011 23.1075 17.6875 23.0744C17.6739 23.0414 17.6634 23.0071 17.6564 22.9721C17.6492 22.937 17.6455 22.9013 17.6454 22.8655C17.6454 22.8287 17.6491 22.7921 17.6564 22.7561C17.6636 22.7211 17.674 22.6869 17.6875 22.6538C17.7013 22.6209 17.7181 22.5894 17.7379 22.5597C17.7576 22.5298 17.7803 22.5019 17.8057 22.4766C17.8311 22.4512 17.859 22.4283 17.8888 22.4082C17.9186 22.3884 17.9503 22.3715 17.9834 22.3579C18.0164 22.3442 18.0507 22.3338 18.0857 22.3267C18.1561 22.3125 18.2286 22.3125 18.299 22.3267C18.3342 22.3339 18.3686 22.3443 18.4018 22.3579C18.4681 22.3855 18.5283 22.4258 18.579 22.4766C18.6044 22.5019 18.6271 22.5298 18.6468 22.5597C18.6666 22.5894 18.6834 22.6209 18.6971 22.6538C18.7109 22.6868 18.7214 22.721 18.7283 22.7561C18.7356 22.7921 18.7393 22.8287 18.7393 22.8655C18.7392 22.9013 18.7355 22.937 18.7283 22.9721C18.7215 23.0072 18.7111 23.0415 18.6971 23.0744C18.6836 23.1075 18.6667 23.1392 18.6468 23.169C18.6072 23.229 18.5559 23.2804 18.4959 23.3199C18.4662 23.3397 18.4347 23.3565 18.4018 23.3703C18.3686 23.3839 18.3342 23.3943 18.299 23.4014C18.2639 23.4086 18.2282 23.4123 18.1923 23.4124ZM17.0947 25.0591C17.058 25.0594 17.0213 25.0559 16.9853 25.0487C16.9152 25.0339 16.8485 25.0063 16.7884 24.9673C16.7587 24.9471 16.7308 24.9242 16.7053 24.8989C16.6799 24.8736 16.6572 24.8457 16.6375 24.8158C16.6176 24.786 16.6007 24.7543 16.5872 24.7211C16.5735 24.6881 16.563 24.6539 16.556 24.6189C16.5421 24.5484 16.5421 24.476 16.556 24.4056C16.563 24.3706 16.5735 24.3363 16.5872 24.3033C16.6007 24.2702 16.6176 24.2385 16.6375 24.2087C16.6572 24.1787 16.6799 24.1509 16.7053 24.1255C16.7307 24.1003 16.7585 24.0776 16.7884 24.0577C16.8183 24.038 16.85 24.0211 16.883 24.0074C16.916 23.9937 16.9503 23.9833 16.9853 23.9762C17.0559 23.962 17.1286 23.962 17.1991 23.9762C17.2342 23.9833 17.2684 23.9937 17.3014 24.0074C17.3679 24.0347 17.4283 24.0749 17.4792 24.1255C17.5044 24.151 17.5271 24.1788 17.547 24.2087C17.5669 24.2385 17.5837 24.2702 17.5973 24.3033C17.611 24.3363 17.6214 24.3706 17.6285 24.4056C17.6431 24.4759 17.6431 24.5485 17.6285 24.6189C17.6214 24.6539 17.611 24.6881 17.5973 24.7211C17.5837 24.7543 17.5669 24.786 17.547 24.8158C17.5271 24.8456 17.5044 24.8734 17.4792 24.8989C17.4535 24.924 17.4257 24.9469 17.396 24.9673C17.3661 24.9867 17.3344 25.0034 17.3014 25.017C17.2684 25.0309 17.2342 25.0415 17.1991 25.0487C17.1647 25.0556 17.1298 25.0591 17.0947 25.0591ZM14.8983 25.0591C14.8616 25.0594 14.8249 25.0559 14.7889 25.0487C14.7539 25.0415 14.7196 25.0309 14.6866 25.017C14.6536 25.0034 14.6219 24.9867 14.592 24.9673C14.5623 24.9471 14.5344 24.9242 14.5089 24.8989C14.4836 24.8734 14.4609 24.8456 14.4411 24.8158C14.4212 24.786 14.4043 24.7543 14.3907 24.7211C14.3771 24.6881 14.3666 24.6539 14.3596 24.6189C14.345 24.5485 14.345 24.4759 14.3596 24.4056C14.3666 24.3706 14.3771 24.3363 14.3907 24.3033C14.4043 24.2702 14.4212 24.2385 14.4411 24.2087C14.4609 24.1788 14.4836 24.151 14.5089 24.1255C14.5343 24.1003 14.5621 24.0776 14.592 24.0577C14.6219 24.0381 14.6536 24.0212 14.6866 24.0074C14.7196 23.9937 14.7539 23.9833 14.7889 23.9762C14.8595 23.962 14.9322 23.962 15.0027 23.9762C15.0378 23.9833 15.072 23.9937 15.105 24.0074C15.138 24.0212 15.1697 24.0381 15.1996 24.0577C15.2295 24.0776 15.2573 24.1003 15.2828 24.1255C15.3082 24.1509 15.3309 24.1787 15.3506 24.2087C15.3704 24.2385 15.3873 24.2702 15.4009 24.3033C15.4146 24.3363 15.425 24.3706 15.4321 24.4056C15.4459 24.476 15.4459 24.5484 15.4321 24.6189C15.425 24.6539 15.4146 24.6881 15.4009 24.7211C15.3873 24.7543 15.3704 24.786 15.3506 24.8158C15.3309 24.8457 15.3082 24.8736 15.2828 24.8989C15.2572 24.9242 15.2294 24.9471 15.1996 24.9673C15.1697 24.9867 15.138 25.0034 15.105 25.017C15.072 25.0309 15.0378 25.0415 15.0027 25.0487C14.9683 25.0556 14.9334 25.059 14.8983 25.0591ZM6.38938 12.4331C6.06401 12.4331 5.74594 12.3366 5.4754 12.1558C5.20486 11.975 4.99401 11.7181 4.86949 11.4175C4.74498 11.1169 4.7124 10.7861 4.77587 10.467C4.83935 10.1479 4.99603 9.85474 5.22611 9.62467C5.45618 9.39459 5.74931 9.23791 6.06844 9.17443C6.38756 9.11096 6.71834 9.14353 7.01894 9.26805C7.31955 9.39257 7.57648 9.60342 7.75725 9.87396C7.93802 10.1445 8.0345 10.4626 8.0345 10.7879C8.03407 11.2241 7.8606 11.6423 7.55218 11.9507C7.24375 12.2592 6.82556 12.4326 6.38938 12.4331ZM6.38938 10.2372C6.28032 10.2372 6.17372 10.2695 6.08305 10.3301C5.99237 10.3907 5.92171 10.4769 5.88001 10.5776C5.8383 10.6784 5.82741 10.7893 5.84873 10.8962C5.87004 11.0032 5.9226 11.1014 5.99976 11.1785C6.07691 11.2556 6.17519 11.308 6.28217 11.3293C6.38914 11.3505 6.50001 11.3395 6.60073 11.2977C6.70146 11.2558 6.78752 11.1851 6.84803 11.0944C6.90854 11.0036 6.94078 10.897 6.94067 10.7879C6.94053 10.6418 6.88238 10.5017 6.77901 10.3985C6.67564 10.2952 6.5355 10.2372 6.38938 10.2372Z" fill="#101334"/>
<path id="Vector_4" d="M6.38944 10.2372C6.24439 10.2372 6.10528 10.1796 6.00272 10.077C5.90015 9.97442 5.84253 9.83531 5.84253 9.69026V8.0435C5.84253 7.89845 5.90015 7.75934 6.00272 7.65677C6.10528 7.5542 6.24439 7.49658 6.38944 7.49658C6.53449 7.49658 6.6736 7.5542 6.77617 7.65677C6.87874 7.75934 6.93636 7.89845 6.93636 8.0435V9.69026C6.93636 9.83531 6.87874 9.97442 6.77617 10.077C6.6736 10.1796 6.53449 10.2372 6.38944 10.2372Z" fill="#101334"/>
<path id="Vector_5" d="M6.38941 8.59034C6.24437 8.59031 6.10529 8.53267 6.00275 8.4301L4.90509 7.33189C4.80546 7.22874 4.75034 7.09059 4.75158 6.94719C4.75283 6.80379 4.81035 6.66662 4.91175 6.56522C5.01315 6.46381 5.15032 6.4063 5.29372 6.40505C5.43712 6.4038 5.57528 6.45893 5.67842 6.55856L6.38941 7.26954L7.1004 6.55856C7.20355 6.45893 7.3417 6.4038 7.4851 6.40505C7.6285 6.4063 7.76568 6.46381 7.86708 6.56522C7.96848 6.66662 8.026 6.80379 8.02725 6.94719C8.02849 7.09059 7.97336 7.22874 7.87374 7.33189L6.77608 8.4301C6.67354 8.53267 6.53445 8.59031 6.38941 8.59034ZM5.29176 11.3348H3.64445C3.4994 11.3348 3.36029 11.2771 3.25772 11.1746C3.15516 11.072 3.09753 10.9329 3.09753 10.7878C3.09753 10.6428 3.15516 10.5037 3.25772 10.4011C3.36029 10.2986 3.4994 10.2409 3.64445 10.2409H5.29176C5.43681 10.2409 5.57592 10.2986 5.67848 10.4011C5.78105 10.5037 5.83867 10.6428 5.83867 10.7878C5.83867 10.9329 5.78105 11.072 5.67848 11.1746C5.57592 11.2771 5.43681 11.3348 5.29176 11.3348Z" fill="#101334"/>
<path id="Vector_6" d="M2.5468 12.4331C2.43865 12.433 2.33293 12.4009 2.24301 12.3408C2.15309 12.2808 2.08301 12.1953 2.04163 12.0954C2.00024 11.9955 1.98941 11.8856 2.0105 11.7795C2.0316 11.6734 2.08367 11.576 2.16013 11.4995L2.87112 10.7885L2.16013 10.0775C2.0605 9.97435 2.00538 9.8362 2.00662 9.6928C2.00787 9.5494 2.06539 9.41223 2.16679 9.31082C2.26819 9.20942 2.40537 9.1519 2.54877 9.15066C2.69217 9.14941 2.83032 9.20453 2.93347 9.30416L4.03167 10.4018C4.1342 10.5044 4.1918 10.6435 4.1918 10.7885C4.1918 10.9335 4.1342 11.0726 4.03167 11.1752L2.93347 12.2728C2.83092 12.3754 2.69184 12.433 2.5468 12.4331ZM6.38942 14.0798C6.24437 14.0798 6.10526 14.0222 6.00269 13.9196C5.90013 13.8171 5.84251 13.678 5.84251 13.5329V11.8861C5.84251 11.7411 5.90013 11.602 6.00269 11.4994C6.10526 11.3969 6.24437 11.3392 6.38942 11.3392C6.53447 11.3392 6.67358 11.3969 6.77615 11.4994C6.87871 11.602 6.93634 11.7411 6.93634 11.8861V13.5329C6.93634 13.678 6.87871 13.8171 6.77615 13.9196C6.67358 14.0222 6.53447 14.0798 6.38942 14.0798Z" fill="#101334"/>
<path id="Vector_7" d="M7.48758 15.1782C7.34254 15.1782 7.20345 15.1205 7.10091 15.018L6.38992 14.307L5.67893 15.018C5.57631 15.1205 5.43715 15.1781 5.29207 15.178C5.14699 15.178 5.00787 15.1203 4.90532 15.0177C4.80277 14.9151 4.74519 14.7759 4.74524 14.6308C4.74529 14.4857 4.80297 14.3466 4.9056 14.2441L6.00325 13.1464C6.10582 13.0439 6.2449 12.9863 6.38992 12.9863C6.53494 12.9863 6.67403 13.0439 6.77659 13.1464L7.8748 14.2441C7.95145 14.3205 8.00368 14.418 8.02488 14.5242C8.04608 14.6304 8.0353 14.7404 7.99389 14.8405C7.95248 14.9405 7.88232 15.026 7.79228 15.0861C7.70225 15.1462 7.59639 15.1783 7.48813 15.1782H7.48758ZM9.13434 11.335H7.48758C7.34253 11.335 7.20342 11.2774 7.10085 11.1749C6.99829 11.0723 6.94067 10.9332 6.94067 10.7881C6.94067 10.6431 6.99829 10.504 7.10085 10.4014C7.20342 10.2988 7.34253 10.2412 7.48758 10.2412H9.13434C9.27939 10.2412 9.4185 10.2988 9.52107 10.4014C9.62363 10.504 9.68125 10.6431 9.68125 10.7881C9.68125 10.9332 9.62363 11.0723 9.52107 11.1749C9.4185 11.2774 9.27939 11.335 9.13434 11.335Z" fill="#101334"/>
<path id="Vector_8" d="M10.2321 12.4332C10.0871 12.4332 9.94798 12.3755 9.84543 12.2729L8.74778 11.1747C8.64524 11.0722 8.58765 10.9331 8.58765 10.7881C8.58765 10.643 8.64524 10.504 8.74778 10.4014L9.84543 9.30374C9.89621 9.25293 9.9565 9.21261 10.0229 9.1851C10.0892 9.15758 10.1603 9.14341 10.2322 9.14338C10.304 9.14336 10.3752 9.15748 10.4415 9.18495C10.5079 9.21242 10.5682 9.25269 10.619 9.30347C10.6699 9.35424 10.7102 9.41453 10.7377 9.48089C10.7652 9.54725 10.7794 9.61838 10.7794 9.69021C10.7794 9.76205 10.7653 9.83319 10.7378 9.89957C10.7104 9.96594 10.6701 10.0263 10.6193 10.0771L9.90833 10.7881L10.6193 11.4991C10.6958 11.5756 10.7479 11.6731 10.769 11.7792C10.79 11.8853 10.7792 11.9953 10.7377 12.0953C10.6963 12.1952 10.6261 12.2806 10.5361 12.3407C10.4461 12.4007 10.3403 12.4327 10.2321 12.4326V12.4332ZM25.6037 8.04146C25.2783 8.04157 24.9602 7.94518 24.6896 7.76447C24.4189 7.58377 24.208 7.32688 24.0834 7.02628C23.9588 6.72568 23.9261 6.39489 23.9896 6.07573C24.053 5.75657 24.2096 5.46339 24.4397 5.23326C24.6697 5.00313 24.9629 4.84639 25.282 4.78287C25.6011 4.71935 25.9319 4.7519 26.2326 4.8764C26.5332 5.0009 26.7902 5.21175 26.971 5.4823C27.1518 5.75285 27.2483 6.07094 27.2483 6.39634C27.2478 6.83243 27.0744 7.25053 26.7661 7.55894C26.4578 7.86735 26.0398 8.04088 25.6037 8.04146ZM25.6037 5.8456C25.4946 5.84549 25.3879 5.87774 25.2972 5.93828C25.2065 5.99881 25.1357 6.08491 25.0939 6.18567C25.0521 6.28642 25.0412 6.39731 25.0624 6.5043C25.0837 6.6113 25.1362 6.70958 25.2133 6.78671C25.2905 6.86384 25.3887 6.91636 25.4957 6.93761C25.6027 6.95887 25.7136 6.9479 25.8144 6.90611C25.9151 6.86431 26.0012 6.79357 26.0617 6.70283C26.1223 6.61208 26.1545 6.50542 26.1544 6.39634C26.1541 6.25036 26.096 6.11045 25.9928 6.00723C25.8896 5.904 25.7497 5.84589 25.6037 5.8456Z" fill="#101334"/>
<path id="Vector_9" d="M25.6036 5.84563C25.4585 5.84563 25.3194 5.78801 25.2168 5.68544C25.1143 5.58287 25.0566 5.44376 25.0566 5.29871V3.65141C25.0566 3.50636 25.1143 3.36725 25.2168 3.26468C25.3194 3.16211 25.4585 3.10449 25.6036 3.10449C25.7486 3.10449 25.8877 3.16211 25.9903 3.26468C26.0928 3.36725 26.1505 3.50636 26.1505 3.65141V5.29871C26.1505 5.44376 26.0928 5.58287 25.9903 5.68544C25.8877 5.78801 25.7486 5.84563 25.6036 5.84563Z" fill="#101334"/>
<path id="Vector_10" d="M25.6036 4.19821C25.5318 4.19834 25.4606 4.1843 25.3941 4.1569C25.3277 4.12949 25.2673 4.08926 25.2164 4.03851L24.1188 2.9403C24.0665 2.88985 24.0249 2.8295 23.9962 2.76278C23.9675 2.69605 23.9525 2.62429 23.9518 2.55167C23.9512 2.47905 23.965 2.40703 23.9925 2.33982C24.02 2.2726 24.0606 2.21154 24.112 2.16019C24.1633 2.10884 24.2244 2.06823 24.2916 2.04073C24.3588 2.01323 24.4309 1.99939 24.5035 2.00002C24.5761 2.00065 24.6479 2.01574 24.7146 2.0444C24.7813 2.07307 24.8417 2.11473 24.8921 2.16697L25.6031 2.87796L26.3141 2.16697C26.4172 2.06734 26.5554 2.01222 26.6988 2.01346C26.8422 2.01471 26.9794 2.07223 27.0808 2.17363C27.1822 2.27503 27.2397 2.4122 27.2409 2.5556C27.2422 2.699 27.1871 2.83715 27.0874 2.9403L25.9903 4.03851C25.8877 4.14088 25.7486 4.19832 25.6036 4.19821ZM24.5054 6.94317H22.8587C22.7136 6.94317 22.5745 6.88555 22.472 6.78298C22.3694 6.68042 22.3118 6.54131 22.3118 6.39626C22.3118 6.25121 22.3694 6.1121 22.472 6.00953C22.5745 5.90696 22.7136 5.84934 22.8587 5.84934H24.5054C24.6505 5.84934 24.7896 5.90696 24.8922 6.00953C24.9947 6.1121 25.0524 6.25121 25.0524 6.39626C25.0524 6.54131 24.9947 6.68042 24.8922 6.78298C24.7896 6.88555 24.6505 6.94317 24.5054 6.94317Z" fill="#101334"/>
<path id="Vector_11" d="M21.7604 8.04123C21.6523 8.0412 21.5466 8.00911 21.4566 7.94902C21.3667 7.88892 21.2966 7.80351 21.2552 7.70359C21.2139 7.60367 21.203 7.49372 21.2241 7.38765C21.2452 7.28157 21.2973 7.18413 21.3738 7.10764L22.0847 6.39665L21.3738 5.68567C21.3215 5.63521 21.2799 5.57487 21.2512 5.50814C21.2225 5.44141 21.2074 5.36965 21.2068 5.29703C21.2062 5.22441 21.22 5.15239 21.2475 5.08518C21.275 5.01796 21.3156 4.9569 21.367 4.90555C21.4183 4.8542 21.4794 4.81359 21.5466 4.78609C21.6138 4.75859 21.6858 4.74475 21.7585 4.74538C21.8311 4.74601 21.9028 4.7611 21.9696 4.78976C22.0363 4.81843 22.0966 4.86009 22.1471 4.91233L23.2453 6.00999C23.3478 6.11255 23.4054 6.25163 23.4054 6.39665C23.4054 6.54168 23.3478 6.68076 23.2453 6.78332L22.1471 7.88153C22.0445 7.9839 21.9054 8.04134 21.7604 8.04123ZM25.6036 9.68799C25.4585 9.68799 25.3194 9.63037 25.2169 9.5278C25.1143 9.42523 25.0567 9.28612 25.0567 9.14107V7.49431C25.0567 7.34926 25.1143 7.21015 25.2169 7.10758C25.3194 7.00502 25.4585 6.9474 25.6036 6.9474C25.7486 6.9474 25.8878 7.00502 25.9903 7.10758C26.0929 7.21015 26.1505 7.34926 26.1505 7.49431V9.14107C26.1505 9.28612 26.0929 9.42523 25.9903 9.5278C25.8878 9.63037 25.7486 9.68799 25.6036 9.68799Z" fill="#101334"/>
<path id="Vector_12" d="M26.7012 10.7858C26.5562 10.7859 26.4172 10.7285 26.3145 10.6261L25.6035 9.91513L24.8926 10.6261C24.7899 10.7287 24.6508 10.7863 24.5057 10.7862C24.3606 10.7861 24.2215 10.7285 24.1189 10.6258C24.0164 10.5232 23.9588 10.3841 23.9589 10.239C23.9589 10.0939 24.0166 9.95478 24.1192 9.85223L25.2169 8.75458C25.2677 8.70373 25.328 8.66339 25.3944 8.63586C25.4608 8.60834 25.5319 8.59417 25.6038 8.59417C25.6757 8.59417 25.7469 8.60834 25.8133 8.63586C25.8796 8.66339 25.94 8.70373 25.9908 8.75458L27.0884 9.85223C27.1649 9.92872 27.217 10.0262 27.238 10.1322C27.2591 10.2383 27.2483 10.3483 27.2069 10.4482C27.1655 10.5481 27.0955 10.6335 27.0055 10.6936C26.9156 10.7537 26.8099 10.7858 26.7018 10.7858H26.7012ZM28.348 6.94319H26.7012C26.5562 6.94319 26.417 6.88557 26.3145 6.78301C26.2119 6.68044 26.1543 6.54133 26.1543 6.39628C26.1543 6.25123 26.2119 6.11212 26.3145 6.00955C26.417 5.90699 26.5562 5.84937 26.7012 5.84937H28.348C28.493 5.84937 28.6321 5.90699 28.7347 6.00955C28.8373 6.11212 28.8949 6.25123 28.8949 6.39628C28.8949 6.54133 28.8373 6.68044 28.7347 6.78301C28.6321 6.88557 28.493 6.94319 28.348 6.94319Z" fill="#101334"/>
<path id="Vector_13" d="M29.4462 8.04131C29.3012 8.04128 29.1621 7.98363 29.0596 7.88106L27.9614 6.78286C27.8588 6.68029 27.8012 6.54121 27.8012 6.39619C27.8012 6.25117 27.8588 6.11208 27.9614 6.00952L29.0596 4.91186C29.11 4.85963 29.1704 4.81796 29.2371 4.7893C29.3038 4.76063 29.3756 4.74555 29.4482 4.74492C29.5208 4.74428 29.5928 4.75812 29.6601 4.78562C29.7273 4.81312 29.7883 4.85373 29.8397 4.90508C29.891 4.95643 29.9317 5.0175 29.9591 5.08471C29.9866 5.15193 30.0005 5.22394 29.9999 5.29656C29.9992 5.36918 29.9841 5.44095 29.9555 5.50767C29.9268 5.5744 29.8851 5.63475 29.8329 5.6852L29.1219 6.39619L29.8329 7.10718C29.9094 7.18366 29.9614 7.2811 29.9825 7.38718C30.0036 7.49326 29.9928 7.6032 29.9514 7.70312C29.91 7.80305 29.8399 7.88845 29.75 7.94855C29.6601 8.00865 29.5544 8.04074 29.4462 8.04076V8.04131ZM25.6036 18.4715C25.2782 18.4716 24.96 18.3752 24.6893 18.1944C24.4187 18.0136 24.2077 17.7566 24.0832 17.456C23.9586 17.1553 23.9261 16.8244 23.9896 16.5052C24.0532 16.186 24.21 15.8928 24.4402 15.6627C24.6704 15.4327 24.9637 15.2761 25.2829 15.2127C25.6022 15.1494 25.933 15.1822 26.2336 15.3069C26.5343 15.4317 26.7911 15.6428 26.9717 15.9136C27.1523 16.1843 27.2485 16.5026 27.2482 16.828C27.2473 17.2638 27.0737 17.6815 26.7655 17.9896C26.4572 18.2976 26.0394 18.4709 25.6036 18.4715ZM25.6036 16.2757C25.4946 16.2755 25.388 16.3078 25.2973 16.3682C25.2066 16.4287 25.1358 16.5147 25.094 16.6153C25.0522 16.716 25.0411 16.8268 25.0622 16.9338C25.0833 17.0407 25.1357 17.139 25.2127 17.2162C25.2896 17.2934 25.3878 17.346 25.4946 17.3675C25.6015 17.3889 25.7124 17.3782 25.8132 17.3366C25.9139 17.2951 26.0002 17.2246 26.0609 17.1341C26.1216 17.0435 26.1541 16.937 26.1544 16.828C26.1545 16.6818 26.0966 16.5414 25.9933 16.4379C25.89 16.3343 25.7499 16.2759 25.6036 16.2757ZM5.84086 21.2165C5.51546 21.2166 5.19734 21.1202 4.92673 20.9395C4.65612 20.7588 4.44517 20.5019 4.32058 20.2013C4.19598 19.9007 4.16332 19.5699 4.22673 19.2507C4.29015 18.9316 4.44679 18.6384 4.67684 18.4083C4.90689 18.1782 5.20003 18.0214 5.51916 17.9579C5.8383 17.8944 6.16911 17.9269 6.46974 18.0514C6.77038 18.1759 7.02735 18.3868 7.20814 18.6573C7.38893 18.9279 7.48543 19.246 7.48543 19.5714C7.485 20.0074 7.31161 20.4256 7.0033 20.734C6.69499 21.0424 6.27694 21.2159 5.84086 21.2165ZM5.84086 19.0206C5.73178 19.0205 5.62511 19.0528 5.53437 19.1133C5.44363 19.1738 5.37288 19.2599 5.33109 19.3607C5.2893 19.4614 5.27833 19.5723 5.29959 19.6793C5.32084 19.7863 5.37336 19.8846 5.45049 19.9617C5.52762 20.0389 5.6259 20.0914 5.73289 20.1126C5.83988 20.1339 5.95078 20.1229 6.05153 20.0811C6.15229 20.0393 6.23838 19.9686 6.29892 19.8778C6.35945 19.7871 6.39171 19.6804 6.3916 19.5714C6.39131 19.4254 6.33319 19.2855 6.22997 19.1822C6.12675 19.079 5.98683 19.0209 5.84086 19.0206ZM9.13438 5.29634C8.80898 5.29645 8.49086 5.20006 8.22025 5.01936C7.94964 4.83865 7.73869 4.58176 7.6141 4.28116C7.4895 3.98057 7.45684 3.64977 7.52026 3.33061C7.58367 3.01145 7.74031 2.71827 7.97036 2.48814C8.20041 2.25801 8.49355 2.10128 8.81268 2.03775C9.13182 1.97423 9.46263 2.00678 9.76326 2.13128C10.0639 2.25578 10.3209 2.46664 10.5017 2.73719C10.6825 3.00774 10.7789 3.32583 10.7789 3.65122C10.7785 4.08731 10.6051 4.50542 10.2968 4.81383C9.98851 5.12224 9.57046 5.29576 9.13438 5.29634ZM9.13438 3.10048C9.0253 3.10037 8.91863 3.13263 8.82789 3.19316C8.73715 3.2537 8.6664 3.33979 8.62461 3.44055C8.58282 3.54131 8.57185 3.6522 8.59311 3.75919C8.61436 3.86618 8.66688 3.96446 8.74401 4.04159C8.82114 4.11872 8.91942 4.17124 9.02641 4.19249C9.1334 4.21375 9.2443 4.20278 9.34505 4.16099C9.44581 4.1192 9.5319 4.04845 9.59244 3.95771C9.65297 3.86697 9.68523 3.7603 9.68512 3.65122C9.68498 3.5052 9.6269 3.3652 9.52365 3.26195C9.4204 3.1587 9.2804 3.10063 9.13438 3.10048Z" fill="#101334"/>
</g>
</g>
</svg>
