<svg width="32" height="32" viewBox="0 0 32 32" fill="none" xmlns="http://www.w3.org/2000/svg">
<g id="disappointed">
<path id="Vector" fill-rule="evenodd" clip-rule="evenodd" d="M16 30.6667C24.1002 30.6667 30.6667 24.1002 30.6667 16C30.6667 7.89987 24.1002 1.33337 16 1.33337C7.89987 1.33337 1.33337 7.89987 1.33337 16C1.33337 24.1002 7.89987 30.6667 16 30.6667ZM29.3334 16C29.3334 23.3638 23.3638 29.3334 16 29.3334C8.63624 29.3334 2.66671 23.3638 2.66671 16C2.66671 8.63624 8.63624 2.66671 16 2.66671C23.3638 2.66671 29.3334 8.63624 29.3334 16ZM13.6316 13.2631C13.961 13.0985 14.0944 12.698 13.9298 12.3687C13.7651 12.0394 13.3647 11.9059 13.0354 12.0706L9.03537 14.0706C8.70605 14.2352 8.57257 14.6356 8.73724 14.965C8.90189 15.2943 9.30235 15.4278 9.63167 15.2631L13.6316 13.2631ZM15.9999 18.6667C14.7702 18.6667 13.5544 18.9284 12.4335 19.4346C11.3126 19.9406 10.3123 20.6795 9.499 21.602C9.25551 21.8782 9.28201 22.2995 9.5582 22.543C9.83437 22.7864 10.2557 22.7599 10.4991 22.4838C11.1873 21.7031 12.0338 21.078 12.9822 20.6498C13.9306 20.2215 14.9594 20 15.9999 20C17.0406 20 18.0692 20.2215 19.0178 20.6498C19.9662 21.078 20.8126 21.7031 21.5007 22.4838C21.7443 22.7599 22.1655 22.7864 22.4418 22.543C22.7179 22.2995 22.7444 21.8782 22.501 21.602C21.6876 20.6795 20.6872 19.9406 19.5664 19.4346C18.4455 18.9284 17.2298 18.6667 15.9999 18.6667ZM18.0706 12.3687C18.2352 12.0394 18.6356 11.9059 18.965 12.0706L22.965 14.0706C23.2943 14.2352 23.4278 14.6356 23.2631 14.965C23.0984 15.2943 22.698 15.4278 22.3687 15.2631L18.3687 13.2631C18.0394 13.0985 17.9059 12.698 18.0706 12.3687Z" fill="white"/>
</g>
</svg>
