<svg width="32" height="32" viewBox="0 0 32 32" fill="none" xmlns="http://www.w3.org/2000/svg">
<g id="hot">
<g id="Group">
<path id="Vector" d="M18.055 19.7201V5.37008C18.055 4.92982 17.9682 4.49388 17.7998 4.08713C17.6313 3.68039 17.3843 3.31081 17.073 2.9995C16.7617 2.68819 16.3921 2.44125 15.9854 2.27277C15.5787 2.10429 15.1427 2.01758 14.7025 2.01758C14.2622 2.01758 13.8263 2.10429 13.4195 2.27277C13.0128 2.44125 12.6432 2.68819 12.3319 2.9995C12.0206 3.31081 11.7736 3.68039 11.6052 4.08713C11.4367 4.49388 11.35 4.92982 11.35 5.37008V19.7201C10.3813 20.4274 9.66117 21.4229 9.29257 22.5643C8.92397 23.7056 8.9258 24.9343 9.2978 26.0746C9.66979 27.2148 10.3929 28.2082 11.3636 28.9126C12.3344 29.617 13.5031 29.9964 14.7025 29.9964C15.9019 29.9964 17.0705 29.617 18.0413 28.9126C19.012 28.2082 19.7351 27.2148 20.1071 26.0746C20.4791 24.9343 20.4809 23.7056 20.1123 22.5643C19.7437 21.4229 19.0236 20.4274 18.055 19.7201ZM14.705 29.0001C13.6967 29.0004 12.7152 28.6755 11.9063 28.0736C11.0975 27.4716 10.5044 26.6248 10.2151 25.6589C9.92594 24.693 9.95605 23.6596 10.301 22.7122C10.646 21.7647 11.2874 20.9539 12.13 20.4001L12.165 20.3651C12.2667 20.2815 12.3314 20.1611 12.345 20.0301C12.3459 20.0134 12.3459 19.9967 12.345 19.9801V5.37008C12.345 4.74616 12.5928 4.14779 13.034 3.70661C13.4752 3.26543 14.0735 3.01758 14.6975 3.01758C15.3214 3.01758 15.9197 3.26543 16.3609 3.70661C16.8021 4.14779 17.05 4.74616 17.05 5.37008V19.9651C17.0491 19.9817 17.0491 19.9984 17.05 20.0151C17.0466 20.0483 17.0466 20.0818 17.05 20.1151C17.0794 20.2072 17.135 20.2889 17.21 20.3501L17.245 20.3851C18.0919 20.9347 18.7386 21.7431 19.0887 22.69C19.4389 23.6369 19.4739 24.6716 19.1884 25.64C18.9029 26.6084 18.3122 27.4586 17.5043 28.0641C16.6964 28.6696 15.7145 28.9979 14.705 29.0001Z" fill="white"/>
<path id="Vector_2" d="M15.445 21.2801C15.447 21.2485 15.447 21.2168 15.445 21.1851V6.15015C15.445 5.95123 15.366 5.76047 15.2253 5.61982C15.0846 5.47916 14.8939 5.40015 14.695 5.40015C14.4961 5.40015 14.3053 5.47916 14.1646 5.61982C14.024 5.76047 13.945 5.95123 13.945 6.15015V21.1851C13.9429 21.2168 13.9429 21.2485 13.945 21.2801C13.208 21.4633 12.5635 21.9097 12.133 22.5353C11.7025 23.1609 11.5158 23.9224 11.608 24.6762C11.7003 25.4299 12.0651 26.1239 12.6338 26.6272C13.2024 27.1305 13.9356 27.4084 14.695 27.4084C15.4544 27.4084 16.1875 27.1305 16.7562 26.6272C17.3248 26.1239 17.6897 25.4299 17.7819 24.6762C17.8742 23.9224 17.6875 23.1609 17.257 22.5353C16.8265 21.9097 16.182 21.4633 15.445 21.2801ZM22.5 17.3151H19.65C19.5174 17.3151 19.3902 17.3678 19.2964 17.4616C19.2026 17.5554 19.15 17.6825 19.15 17.8151C19.15 17.9478 19.2026 18.0749 19.2964 18.1687C19.3902 18.2625 19.5174 18.3151 19.65 18.3151H22.5C22.6326 18.3151 22.7598 18.2625 22.8535 18.1687C22.9473 18.0749 23 17.9478 23 17.8151C23 17.6825 22.9473 17.5554 22.8535 17.4616C22.7598 17.3678 22.6326 17.3151 22.5 17.3151ZM22.5 15.2401H19.65C19.5174 15.2401 19.3902 15.2928 19.2964 15.3866C19.2026 15.4804 19.15 15.6075 19.15 15.7401C19.15 15.8728 19.2026 15.9999 19.2964 16.0937C19.3902 16.1875 19.5174 16.2401 19.65 16.2401H22.5C22.6326 16.2401 22.7598 16.1875 22.8535 16.0937C22.9473 15.9999 23 15.8728 23 15.7401C23 15.6075 22.9473 15.4804 22.8535 15.3866C22.7598 15.2928 22.6326 15.2401 22.5 15.2401ZM22.5 13.1651H19.65C19.5174 13.1651 19.3902 13.2178 19.2964 13.3116C19.2026 13.4054 19.15 13.5325 19.15 13.6651C19.15 13.7978 19.2026 13.9249 19.2964 14.0187C19.3902 14.1125 19.5174 14.1651 19.65 14.1651H22.5C22.6326 14.1651 22.7598 14.1125 22.8535 14.0187C22.9473 13.9249 23 13.7978 23 13.6651C23 13.5325 22.9473 13.4054 22.8535 13.3116C22.7598 13.2178 22.6326 13.1651 22.5 13.1651ZM22.5 11.0951H19.65C19.5174 11.0951 19.3902 11.1478 19.2964 11.2416C19.2026 11.3354 19.15 11.4625 19.15 11.5951C19.15 11.7278 19.2026 11.8549 19.2964 11.9487C19.3902 12.0425 19.5174 12.0951 19.65 12.0951H22.5C22.6326 12.0951 22.7598 12.0425 22.8535 11.9487C22.9473 11.8549 23 11.7278 23 11.5951C23 11.4625 22.9473 11.3354 22.8535 11.2416C22.7598 11.1478 22.6326 11.0951 22.5 11.0951ZM22.5 9.00015H19.65C19.5174 9.00015 19.3902 9.05282 19.2964 9.14659C19.2026 9.24036 19.15 9.36754 19.15 9.50015C19.15 9.63275 19.2026 9.75993 19.2964 9.8537C19.3902 9.94747 19.5174 10.0001 19.65 10.0001H22.5C22.6326 10.0001 22.7598 9.94747 22.8535 9.8537C22.9473 9.75993 23 9.63275 23 9.50015C23 9.36754 22.9473 9.24036 22.8535 9.14659C22.7598 9.05282 22.6326 9.00015 22.5 9.00015ZM19.63 7.94515H22.5C22.6326 7.94515 22.7598 7.89247 22.8535 7.7987C22.9473 7.70493 23 7.57775 23 7.44515C23 7.31254 22.9473 7.18536 22.8535 7.09159C22.7598 6.99782 22.6326 6.94515 22.5 6.94515H19.65C19.5174 6.94515 19.3902 6.99782 19.2964 7.09159C19.2026 7.18536 19.15 7.31254 19.15 7.44515C19.15 7.57775 19.2026 7.70493 19.2964 7.7987C19.3902 7.89247 19.5174 7.94515 19.65 7.94515H19.63Z" fill="white"/>
</g>
</g>
</svg>
