<svg width="32" height="32" viewBox="0 0 32 32" fill="none" xmlns="http://www.w3.org/2000/svg">
<g id="hungry" clip-path="url(#clip0_463_65820)">
<g id="Group">
<path id="Vector" d="M22.2368 9.56738C21.3882 9.5707 20.5661 9.86389 19.9069 10.3984C19.2477 10.9329 18.791 11.6765 18.6123 12.5062L19.9184 12.7674C20.0187 12.2286 20.3066 11.7428 20.731 11.3961C21.1554 11.0494 21.6889 10.8643 22.2368 10.8735C22.7526 10.8802 23.2528 11.0518 23.6641 11.3632C24.0753 11.6746 24.3762 12.1094 24.5225 12.6041L25.7633 12.2449C25.5443 11.4772 25.0822 10.8012 24.4463 10.3184C23.8105 9.8356 23.0352 9.57208 22.2368 9.56738Z" fill="white"/>
<path id="Vector_2" d="M16 0.653076C12.9647 0.653076 9.99751 1.55316 7.47372 3.2395C4.94993 4.92585 2.98287 7.32271 1.8213 10.127C0.659726 12.9313 0.355805 16.017 0.94797 18.9941C1.54014 21.9711 3.00179 24.7056 5.1481 26.8519C7.29441 28.9982 10.029 30.4599 13.006 31.0521C15.983 31.6442 19.0688 31.3403 21.873 30.1787C24.6773 29.0172 27.0742 27.0501 28.7605 24.5263C30.4469 22.0025 31.347 19.0354 31.347 16C31.3383 11.9324 29.7187 8.03386 26.8424 5.15762C23.9662 2.28138 20.0676 0.661703 16 0.653076ZM16 30.0408C13.223 30.0408 10.5084 29.2174 8.19936 27.6745C5.89036 26.1317 4.09072 23.9388 3.028 21.3732C1.96528 18.8076 1.68723 15.9844 2.229 13.2608C2.77076 10.5371 4.10802 8.0353 6.07167 6.07166C8.03531 4.10802 10.5371 2.77076 13.2608 2.22899C15.9844 1.68722 18.8076 1.96528 21.3732 3.02799C23.9388 4.09071 26.1317 5.89036 27.6745 8.19936C29.2174 10.5084 30.0408 13.223 30.0408 16C30.0322 19.7212 28.5502 23.2875 25.9189 25.9188C23.2876 28.5501 19.7212 30.0322 16 30.0408Z" fill="white"/>
<path id="Vector_3" d="M16 23.8368C14.4412 23.8368 12.9462 23.2175 11.844 22.1153C10.7417 21.013 10.1225 19.5181 10.1225 17.9592H8.81635C8.81793 18.3314 8.8507 18.7028 8.91431 19.0694L7.41227 20.7674C6.86201 21.4343 6.59269 22.2891 6.66125 23.1511C6.71917 23.9682 7.08516 24.7329 7.68523 25.2905C8.28531 25.8482 9.07472 26.1572 9.8939 26.1551H10.1551C10.5834 26.1251 11.001 26.0082 11.3827 25.8118C11.7644 25.6153 12.1022 25.3433 12.3755 25.0123L12.9306 24.3919C13.8841 24.8665 14.935 25.1124 16 25.1102C17.8996 25.1103 19.7219 24.3579 21.0681 23.0178C22.4144 21.6776 23.1751 19.8588 23.1837 17.9592H21.8776C21.8776 19.5181 21.2583 21.013 20.1561 22.1153C19.0538 23.2175 17.5588 23.8368 16 23.8368ZM11.3959 24.1633C11.0565 24.5581 10.5759 24.8042 10.0572 24.849C9.53766 24.884 9.02423 24.7206 8.62043 24.3919C8.23609 24.0443 7.99219 23.5681 7.93472 23.0531C7.91481 22.7929 7.94796 22.5314 8.03215 22.2845C8.11635 22.0375 8.24983 21.8102 8.42452 21.6164L9.3388 20.5715C9.82573 21.8364 10.6783 22.9276 11.7878 23.7062L11.3959 24.1633Z" fill="white"/>
<path id="Vector_4" d="M9.82859 10.8735C10.3444 10.8802 10.8446 11.0518 11.2558 11.3631C11.6671 11.6745 11.968 12.1094 12.1143 12.6041L13.3551 12.2449C13.1254 11.456 12.6388 10.7664 11.9727 10.2854C11.3066 9.80432 10.4989 9.55938 9.67784 9.58937C8.85672 9.61937 8.06911 9.92258 7.43986 10.4509C6.8106 10.9793 6.3757 11.7026 6.2041 12.5061L7.51022 12.7673C7.61049 12.2286 7.89836 11.7428 8.32276 11.3961C8.74716 11.0494 9.28066 10.8642 9.82859 10.8735Z" fill="white"/>
</g>
</g>
<defs>
<clipPath id="clip0_463_65820">
<rect width="32" height="32" fill="white"/>
</clipPath>
</defs>
</svg>
