<svg width="32" height="32" viewBox="0 0 32 32" fill="none" xmlns="http://www.w3.org/2000/svg">
<g id="lunch">
<g id="Group 7369">
<path id="Vector" d="M16 8.50009C11.3131 8.50009 7.5 12.3132 7.5 17.0001C7.5 21.687 11.3131 25.5001 16 25.5001C20.6869 25.5001 24.5 21.687 24.5 17.0001C24.5 12.3132 20.6869 8.50009 16 8.50009ZM16 24.5001C14.5166 24.5001 13.0666 24.0602 11.8332 23.2361C10.5999 22.412 9.63856 21.2407 9.0709 19.8702C8.50325 18.4998 8.35472 16.9918 8.64411 15.5369C8.9335 14.0821 9.64781 12.7457 10.6967 11.6968C11.7456 10.6479 13.082 9.93359 14.5368 9.6442C15.9917 9.35481 17.4997 9.50334 18.8701 10.071C20.2406 10.6387 21.4119 11.5999 22.236 12.8333C23.0601 14.0667 23.5 15.5167 23.5 17.0001C23.4977 18.9885 22.7069 20.8949 21.3008 22.3009C19.8948 23.7069 17.9884 24.4978 16 24.5001ZM3 7.22803C3.13261 7.22803 3.25979 7.17535 3.35355 7.08158C3.44732 6.98781 3.5 6.86064 3.5 6.72803V3.72803C3.5 3.59542 3.44732 3.46824 3.35355 3.37447C3.25979 3.28071 3.13261 3.22803 3 3.22803C2.86739 3.22803 2.74021 3.28071 2.64645 3.37447C2.55268 3.46824 2.5 3.59542 2.5 3.72803V6.72803C2.5 6.86064 2.55268 6.98781 2.64645 7.08158C2.74021 7.17535 2.86739 7.22803 3 7.22803ZM5 7.22803C5.13261 7.22803 5.25979 7.17535 5.35355 7.08158C5.44732 6.98781 5.5 6.86064 5.5 6.72803V3.72803C5.5 3.59542 5.44732 3.46824 5.35355 3.37447C5.25979 3.28071 5.13261 3.22803 5 3.22803C4.86739 3.22803 4.74021 3.28071 4.64645 3.37447C4.55268 3.46824 4.5 3.59542 4.5 3.72803V6.72803C4.5 6.86064 4.55268 6.98781 4.64645 7.08158C4.74021 7.17535 4.86739 7.22803 5 7.22803Z" fill="white"/>
<path id="Vector_2" d="M28 3C27.2046 3.00091 26.4421 3.31727 25.8797 3.87968C25.3173 4.4421 25.0009 5.20463 25 6V7.72794C25.0001 8.25454 25.1388 8.77184 25.402 9.22789C25.6653 9.68394 26.044 10.0627 26.5 10.3261V12.3115C24.7021 8.30087 20.6721 5.5 16 5.5C11.3279 5.5 7.29787 8.30087 5.5 12.3115V10.324C5.95575 10.0608 6.33425 9.68231 6.59753 9.22659C6.86082 8.77087 6.99961 8.25393 7 7.72762V3.72762C7 3.59502 6.94732 3.46784 6.85355 3.37407C6.75979 3.2803 6.63261 3.22762 6.5 3.22762C6.36739 3.22762 6.24021 3.2803 6.14645 3.37407C6.05268 3.46784 6 3.59502 6 3.72762V7.72762C6 8.25806 5.78929 8.76677 5.41421 9.14184C5.03914 9.51691 4.53043 9.72762 4 9.72762C3.46957 9.72762 2.96086 9.51691 2.58579 9.14184C2.21071 8.76677 2 8.25806 2 7.72762V3.72762C2 3.59502 1.94732 3.46784 1.85355 3.37407C1.75979 3.2803 1.63261 3.22762 1.5 3.22762C1.36739 3.22762 1.24021 3.2803 1.14645 3.37407C1.05268 3.46784 1 3.59502 1 3.72762V7.72762C1.00039 8.25393 1.13918 8.77087 1.40247 9.22659C1.66575 9.68231 2.04425 10.0608 2.5 10.324V25.7281C2.5 26.1259 2.65804 26.5075 2.93934 26.7888C3.22064 27.0701 3.60218 27.2281 4 27.2281C4.39782 27.2281 4.77936 27.0701 5.06066 26.7888C5.34196 26.5075 5.5 26.1259 5.5 25.7281V21.6885C7.29787 25.6991 11.3278 28.5 16 28.5C20.6722 28.5 24.7021 25.6991 26.5 21.6885V25.7279C26.5 26.1258 26.658 26.5073 26.9393 26.7886C27.2206 27.0699 27.6022 27.2279 28 27.2279C28.3978 27.2279 28.7794 27.0699 29.0607 26.7886C29.342 26.5073 29.5 26.1258 29.5 25.7279V10.3261C29.956 10.0627 30.3347 9.68394 30.598 9.22789C30.8612 8.77184 30.9999 8.25454 31 7.72794V6C30.9991 5.20463 30.6827 4.4421 30.1203 3.87968C29.5579 3.31727 28.7954 3.00091 28 3ZM4.5 25.7281C4.5 25.8607 4.44732 25.9879 4.35355 26.0817C4.25979 26.1754 4.13261 26.2281 4 26.2281C3.86739 26.2281 3.74021 26.1754 3.64645 26.0817C3.55268 25.9879 3.5 25.8607 3.5 25.7281V10.6855C3.83093 10.7421 4.16907 10.7421 4.5 10.6855V25.7281ZM16 27.5C10.2102 27.5 5.5 22.7897 5.5 17C5.5 11.2102 10.2102 6.5 16 6.5C21.7897 6.5 26.5 11.2102 26.5 17C26.5 22.7897 21.7897 27.5 16 27.5ZM30 7.72794C29.9999 8.1171 29.8864 8.49779 29.6732 8.8234C29.4601 9.14901 29.1566 9.40541 28.8 9.56119C28.7109 9.60009 28.635 9.66416 28.5817 9.74553C28.5284 9.8269 28.5 9.92205 28.5 10.0193V25.7279C28.5 25.8605 28.4473 25.9877 28.3536 26.0815C28.2598 26.1753 28.1326 26.2279 28 26.2279C27.8674 26.2279 27.7402 26.1753 27.6464 26.0815C27.5527 25.9877 27.5 25.8605 27.5 25.7279V10.0193C27.5 9.92205 27.4716 9.8269 27.4183 9.74553C27.365 9.66416 27.2891 9.60009 27.2 9.56119C26.8434 9.40541 26.5399 9.14901 26.3268 8.8234C26.1136 8.49779 26.0001 8.1171 26 7.72794V6C26 5.46957 26.2107 4.96086 26.5858 4.58579C26.9609 4.21071 27.4696 4 28 4C28.5304 4 29.0391 4.21071 29.4142 4.58579C29.7893 4.96086 30 5.46957 30 6V7.72794Z" fill="white"/>
<path id="Vector_3" d="M28 4.72803C27.9343 4.72803 27.8693 4.74096 27.8087 4.76609C27.748 4.79121 27.6929 4.82804 27.6464 4.87447C27.6 4.9209 27.5632 4.97602 27.5381 5.03669C27.5129 5.09735 27.5 5.16237 27.5 5.22803C27.5 5.29369 27.5129 5.35871 27.5381 5.41937C27.5632 5.48003 27.6 5.53515 27.6464 5.58158C27.6929 5.62801 27.748 5.66484 27.8087 5.68997C27.8693 5.71509 27.9343 5.72803 28 5.72803C28.1326 5.72818 28.2597 5.7809 28.3534 5.87464C28.4471 5.96837 28.4999 6.09547 28.5 6.22803V7.22803C28.4999 7.36059 28.4471 7.48768 28.3534 7.58142C28.2597 7.67515 28.1326 7.72788 28 7.72803C27.8674 7.72803 27.7402 7.78071 27.6464 7.87447C27.5527 7.96824 27.5 8.09542 27.5 8.22803C27.5 8.36064 27.5527 8.48781 27.6464 8.58158C27.7402 8.67535 27.8674 8.72803 28 8.72803C28.3977 8.72758 28.779 8.5694 29.0602 8.28819C29.3414 8.00699 29.4996 7.62572 29.5 7.22803V6.22803C29.4996 5.83034 29.3414 5.44907 29.0602 5.16786C28.779 4.88665 28.3977 4.72847 28 4.72803Z" fill="white"/>
</g>
</g>
</svg>
