<svg width="32" height="32" viewBox="0 0 32 32" fill="none" xmlns="http://www.w3.org/2000/svg">
<g id="meditation">
<path id="Vector" d="M2.49996 24.4311C2.56562 24.4312 2.63066 24.4183 2.69133 24.3932C2.75199 24.368 2.80709 24.3311 2.85346 24.2846L9.09078 18.0476C9.22416 17.9135 9.38282 17.8071 9.55757 17.7347C9.73231 17.6623 9.91968 17.6252 10.1088 17.6257H19.0043C19.3834 17.63 19.7455 17.7836 20.012 18.0532C20.2786 18.3228 20.428 18.6866 20.428 19.0657C20.428 19.4448 20.2785 19.8086 20.012 20.0781C19.7455 20.3477 19.3834 20.5013 19.0043 20.5056H11.5781C11.4455 20.5056 11.3183 20.5583 11.2245 20.652C11.1308 20.7458 11.0781 20.873 11.0781 21.0056C11.0781 21.1382 11.1308 21.2654 11.2245 21.3591C11.3183 21.4529 11.4455 21.5056 11.5781 21.5056H19.0044C19.6513 21.5047 20.2715 21.2477 20.7295 20.7907L26.956 14.5644C27.1817 14.3451 27.4846 14.2234 27.7993 14.2256C28.114 14.2279 28.4151 14.3539 28.6376 14.5764C28.8602 14.799 28.9861 15.1002 28.9883 15.4148C28.9905 15.7295 28.8687 16.0324 28.6493 16.2581L20.6543 24.2529C20.4575 24.4499 20.2078 24.5855 19.9355 24.6433L9.1816 26.9243C9.0869 26.9443 9.00005 26.9914 8.9316 27.0598L7.28023 28.7112C7.23381 28.7576 7.19698 28.8127 7.17186 28.8733C7.14673 28.934 7.1338 28.999 7.1338 29.0647C7.1338 29.1303 7.14673 29.1953 7.17185 29.256C7.19698 29.3166 7.2338 29.3718 7.28023 29.4182C7.32665 29.4646 7.38177 29.5014 7.44242 29.5266C7.50308 29.5517 7.56809 29.5646 7.63374 29.5646C7.6994 29.5646 7.76441 29.5517 7.82507 29.5266C7.88572 29.5014 7.94084 29.4646 7.98726 29.4182L9.53365 27.8716L20.143 25.6213C20.6047 25.5237 21.028 25.2938 21.3613 24.9597L29.3564 16.9651C29.6572 16.6553 29.8607 16.2642 29.9418 15.8401C30.0229 15.4161 29.978 14.9775 29.8128 14.5786C29.6476 14.1797 29.3692 13.8379 29.012 13.5954C28.6547 13.3529 28.2343 13.2202 27.8026 13.2139C27.514 13.2131 27.228 13.2695 26.9613 13.38C26.6946 13.4905 26.4525 13.6527 26.249 13.8574L21.4072 18.699C21.3203 18.1234 21.0303 17.5979 20.5895 17.2176C20.1488 16.8373 19.5865 16.6273 19.0044 16.6257H10.1089C9.78833 16.6249 9.47082 16.6877 9.17471 16.8104C8.8786 16.9331 8.60976 17.1133 8.38376 17.3406L2.14646 23.5776C2.07822 23.6482 2.0321 23.7371 2.01376 23.8336C1.99541 23.93 2.00565 24.0297 2.04321 24.1203C2.08076 24.211 2.144 24.2887 2.22515 24.344C2.3063 24.3992 2.40182 24.4295 2.49996 24.4311Z" fill="white"/>
<path id="Vector_2" d="M22.0464 4.16895C22.0037 4.10414 21.9464 4.0502 21.8792 4.01142C21.812 3.97263 21.7366 3.95008 21.6592 3.94556C20.5293 3.9511 19.4262 4.28997 18.4881 4.91971C17.9883 3.90448 17.2007 3.05879 16.2236 2.48804C16.1542 2.45336 16.0776 2.4353 16 2.4353C15.9224 2.4353 15.8458 2.45336 15.7764 2.48804C14.7993 3.05879 14.0117 3.90449 13.512 4.91971C12.5737 4.29025 11.4706 3.9514 10.3408 3.94556C10.2633 3.95008 10.188 3.97263 10.1208 4.01142C10.0535 4.0502 9.9963 4.10414 9.9536 4.16895C9.21096 5.49115 8.99688 7.04563 9.35449 8.51935C7.96967 8.96694 6.7957 9.90434 6.05273 11.1558C6.01805 11.2252 6 11.3018 6 11.3795C6 11.4572 6.01805 11.5338 6.05273 11.6033C6.11573 11.7295 7.6499 14.6943 12.1294 14.6943H19.8706C24.3501 14.6943 25.8843 11.7295 25.9473 11.6033C25.9819 11.5338 26 11.4572 26 11.3795C26 11.3018 25.9819 11.2252 25.9473 11.1558C25.2043 9.90433 24.0302 8.96696 22.6454 8.51947C23.0032 7.04573 22.7891 5.49115 22.0464 4.16895ZM21.3379 4.95264C22.7865 7.66105 20.6493 12.2386 17.7646 13.32C18.8266 11.9676 19.3757 10.2831 19.3149 8.56472C19.3237 7.6446 19.1793 6.72943 18.8878 5.85666C19.6142 5.35166 20.4575 5.0405 21.3379 4.95264ZM16 3.51831C19.0841 5.49666 19.0741 11.6433 15.9999 13.6113C12.9151 11.6324 12.9267 5.48455 16 3.51831ZM10.6606 4.95264C11.5415 5.04022 12.3853 5.35139 13.1122 5.85664C12.8207 6.72941 12.6763 7.64458 12.685 8.5647C12.6242 10.2831 13.1734 11.9677 14.2353 13.3201C11.3469 12.238 9.21235 7.64873 10.6606 4.95264ZM12.1294 13.6943C8.93358 13.6943 7.50292 12.0042 7.08348 11.3804C7.71454 10.5022 8.60267 9.84163 9.62523 9.48984C9.8093 10.0048 10.0398 10.5019 10.314 10.9751C10.9184 12.0682 11.776 13.0006 12.8147 13.6943H12.1294ZM24.9165 11.3801C24.4956 12.0059 23.0644 13.6943 19.8706 13.6943H19.1851C20.2242 13.0005 21.0819 12.0678 21.6865 10.9744C21.9604 10.5014 22.1908 10.0045 22.3748 9.48981C23.3973 9.8415 24.2854 10.502 24.9165 11.3801Z" fill="white"/>
</g>
</svg>
