<svg width="32" height="32" viewBox="0 0 32 32" fill="none" xmlns="http://www.w3.org/2000/svg">
<g id="milk">
<path id="Vector" d="M5.5 1.95508C4.678 1.95508 4 2.63308 4 3.45508V4.45508C4 5.10208 4.421 5.65308 5 5.86108V8.95508C5 9.03808 4.907 9.40408 4.729 9.82008C4.55 10.2371 4.303 10.7301 4.053 11.2301C3.803 11.7301 3.55 12.2371 3.353 12.6951C3.157 13.1541 3 13.5381 3 13.9551V27.0471C3 28.7001 4.347 30.0471 6 30.0471H12C13.653 30.0471 15 28.7001 15 27.0471V13.9551C15 13.5381 14.843 13.1541 14.646 12.6951C14.45 12.2371 14.197 11.7301 13.947 11.2301C13.697 10.7301 13.45 10.2371 13.271 9.82008C13.093 9.40408 13 9.03808 13 8.95508V5.86108C13.579 5.65308 14 5.10108 14 4.45508V3.45508C14 2.63308 13.322 1.95508 12.5 1.95508H5.5ZM5.5 2.95508H12.5C12.786 2.95508 13 3.16908 13 3.45508V4.45508C13 4.74108 12.786 4.95508 12.5 4.95508H5.5C5.43389 4.95672 5.36813 4.94492 5.30673 4.92037C5.24532 4.89583 5.18954 4.85906 5.14278 4.8123C5.09602 4.76554 5.05925 4.70976 5.03471 4.64835C5.01016 4.58694 4.99835 4.52119 5 4.45508V3.45508C5 3.16908 5.214 2.95508 5.5 2.95508ZM6 5.95508H12V8.95508C12 9.37208 12.157 9.75508 12.354 10.2131C12.55 10.6711 12.803 11.1781 13.053 11.6781C13.303 12.1781 13.55 12.6711 13.729 13.0881C13.907 13.5041 14 13.8721 14 13.9551V14.9551H4V13.9551C4 13.8721 4.093 13.5051 4.271 13.0881C4.45 12.6711 4.697 12.1781 4.947 11.6781C5.197 11.1781 5.45 10.6711 5.647 10.2131C5.843 9.75408 6 9.37208 6 8.95508V5.95508ZM10 6.95508V8.95508C10 9.44708 10.211 9.90608 10.465 10.4651C10.718 11.0231 11.036 11.6371 11.318 12.2111L12.215 11.7711C11.926 11.1841 11.612 10.5751 11.375 10.0531C11.138 9.53008 11 9.05308 11 8.95508V6.95508H10ZM12.68 12.7711L11.758 13.1581C11.918 13.5421 12 13.8761 12 13.9551H13C13 13.5621 12.86 13.2001 12.68 12.7711ZM18.5 15.0471C18.431 15.0471 18.3628 15.0615 18.2996 15.0892C18.2364 15.1169 18.1796 15.1574 18.1328 15.2081C18.0861 15.2588 18.0503 15.3187 18.0278 15.3839C18.0053 15.4491 17.9965 15.5183 18.002 15.5871L19.002 28.0871C19.089 29.1331 19.899 30.0451 21 30.0451H26C27.1 30.0451 27.914 29.1331 27.998 28.0851L28.998 15.5851C29.0032 15.5165 28.9942 15.4475 28.9716 15.3825C28.9489 15.3175 28.9131 15.2579 28.8664 15.2074C28.8196 15.1569 28.763 15.1166 28.6999 15.089C28.6369 15.0614 28.5688 15.0472 28.5 15.0471H18.5ZM4 15.9551H14V23.9551H4V15.9551ZM19.041 16.0471H27.959L27.519 21.5471H19.48L19.041 16.0491V16.0471ZM8.986 16.9551C8.90691 16.957 8.82942 16.9777 8.75988 17.0154C8.69035 17.0532 8.63075 17.1068 8.586 17.1721C8.586 17.1721 8.166 17.7891 7.744 18.5271C7.534 18.8971 7.32 19.2971 7.154 19.6801C6.989 20.0621 6.857 20.4081 6.857 20.7871C6.857 21.9741 7.818 22.9551 9 22.9551C10.182 22.9551 11.143 21.9741 11.143 20.7871C11.143 20.4081 11.011 20.0621 10.846 19.6801C10.6702 19.2854 10.4733 18.9005 10.256 18.5271C9.834 17.7891 9.414 17.1721 9.414 17.1721C9.36658 17.1029 9.30253 17.0468 9.22773 17.0089C9.15294 16.971 9.06981 16.9525 8.986 16.9551ZM9 18.4021C9.148 18.6351 9.194 18.6861 9.387 19.0231C9.587 19.3731 9.785 19.7481 9.927 20.0761C10.07 20.4051 10.143 20.7061 10.143 20.7871C10.143 21.4411 9.633 21.9551 9 21.9551C8.84797 21.9544 8.69757 21.9236 8.55755 21.8644C8.41753 21.8051 8.29067 21.7187 8.18433 21.61C8.078 21.5014 7.9943 21.3727 7.93811 21.2314C7.88192 21.0901 7.85435 20.9391 7.857 20.7871C7.857 20.7071 7.93 20.4051 8.072 20.0771C8.215 19.7471 8.414 19.3731 8.613 19.0231C8.806 18.6861 8.852 18.6341 9 18.4021ZM19.56 22.5471H27.44L27.002 28.0071C26.953 28.6171 26.562 29.0471 26 29.0471H21C20.44 29.0471 20.05 28.6181 19.998 28.0071L19.561 22.5471H19.56ZM4 24.9551H14V27.0471C14 28.1631 13.117 29.0471 12 29.0471H6C4.883 29.0471 4 28.1631 4 27.0471V24.9551Z" fill="white"/>
</g>
</svg>
