<svg width="32" height="32" viewBox="0 0 32 32" fill="none" xmlns="http://www.w3.org/2000/svg">
<g id="nicotine">
<g id="Group">
<path id="Vector" d="M28.8742 26.7946C28.9143 26.7553 28.9461 26.7083 28.9677 26.6564C28.9894 26.6046 29.0003 26.5489 29 26.4927V25.2346C29 25.1234 28.9558 25.0168 28.8772 24.9381C28.7985 24.8595 28.6919 24.8153 28.5806 24.8153H3.41935C3.30813 24.8153 3.20147 24.8595 3.12283 24.9381C3.04418 25.0168 3 25.1234 3 25.2346V28.5895C3 28.7007 3.04418 28.8074 3.12283 28.886C3.20147 28.9647 3.30813 29.0088 3.41935 29.0088H28.5806C28.6565 29.0086 28.7309 28.9879 28.7959 28.9487C28.8609 28.9096 28.914 28.8535 28.9497 28.7866C28.9833 28.721 28.9991 28.6477 28.9955 28.5741C28.9918 28.5005 28.9687 28.4291 28.9287 28.3672L28.2829 27.3943C28.5177 27.1511 28.8406 26.824 28.8742 26.7946ZM25.6452 25.654V28.1701H8.87097V25.654H25.6452ZM3.83871 25.654H8.03226V28.1701H3.83871V25.654ZM28.1613 26.3292C27.9977 26.4801 27.7755 26.7066 27.4442 27.0337C27.3761 27.1024 27.334 27.1926 27.3248 27.2889C27.3156 27.3852 27.34 27.4817 27.3939 27.5621L27.8132 28.1701H26.4839V25.654H28.1613V26.3292ZM14.4106 21.3137L15.6268 23.7459C15.662 23.8146 15.7154 23.8723 15.7813 23.9125C15.8471 23.9528 15.9228 23.9741 16 23.9741C16.0772 23.9741 16.1529 23.9528 16.2187 23.9125C16.2846 23.8723 16.338 23.8146 16.3732 23.7459L17.5894 21.3137C19.8636 20.9159 21.906 19.68 23.3134 17.8498C24.7208 16.0196 25.3909 13.7282 25.1913 11.4281C24.9916 9.12804 23.9369 6.98637 22.2352 5.426C20.5336 3.86564 18.3087 3 16 3C13.6912 3 11.4664 3.86564 9.76476 5.426C8.06311 6.98637 7.00836 9.12804 6.80874 11.4281C6.60913 13.7282 7.27916 16.0196 8.68656 17.8498C10.094 19.68 12.1364 20.9159 14.4106 21.3137ZM16 3.84755C18.1043 3.86322 20.1258 4.66935 21.6635 6.106C23.2011 7.54265 24.1425 9.50483 24.3009 11.6032C24.4592 13.7016 23.823 15.7829 22.5184 17.434C21.2138 19.0852 19.3362 20.1856 17.2581 20.5169C17.1913 20.5266 17.1278 20.5522 17.0731 20.5916C17.0183 20.631 16.9739 20.6831 16.9435 20.7434L16 22.6179L15.0648 20.7434C15.0345 20.6831 14.9901 20.631 14.9353 20.5916C14.8806 20.5522 14.8171 20.5266 14.7503 20.5169C12.6728 20.1858 10.7957 19.086 9.49101 17.4358C8.18637 15.7855 7.54954 13.7052 7.70681 11.6073C7.86408 9.50953 8.80396 7.54742 10.3401 6.1101C11.8762 4.67278 13.8964 3.86522 16 3.84755Z" fill="white"/>
<path id="Vector_2" d="M10.3345 13.0147L12.4313 14.2728C12.4951 14.3096 12.5674 14.329 12.641 14.329C12.7146 14.329 12.7869 14.3096 12.8507 14.2728L14.9474 13.0147C15.0116 12.9787 15.0651 12.9264 15.1027 12.8631C15.1402 12.7998 15.1604 12.7277 15.1613 12.6541V10.398L17.2036 9.37474L19.0949 10.8844C19.1689 10.9429 19.2605 10.9747 19.3549 10.9747C19.4492 10.9747 19.5408 10.9429 19.6149 10.8844L21.7116 9.207C21.7793 9.15364 21.8289 9.08074 21.8537 8.9982C21.8784 8.91566 21.8771 8.8275 21.85 8.74571L21.0113 6.22958C20.9832 6.14629 20.9296 6.07394 20.8581 6.02277C20.7866 5.9716 20.7008 5.94419 20.6129 5.94442H18.0968C18.0054 5.93964 17.9149 5.96494 17.8391 6.01643C17.7634 6.06792 17.7066 6.14278 17.6774 6.22958L16.8933 8.58216L14.742 9.6599L12.8423 8.51926C12.7785 8.48245 12.7062 8.46307 12.6326 8.46307C12.559 8.46307 12.4867 8.48245 12.4229 8.51926L10.3262 9.77732C10.2651 9.81546 10.2149 9.86868 10.1804 9.93184C10.1459 9.99501 10.1282 10.066 10.1291 10.138V12.6541C10.1291 12.7269 10.148 12.7984 10.1841 12.8616C10.2201 12.9249 10.2719 12.9776 10.3345 13.0147ZM18.3987 6.78313H20.311L20.961 8.73313L19.3549 10.0205L17.7487 8.73313L18.3987 6.78313ZM10.9678 10.377L12.6452 9.37055L14.3226 10.377V12.4151L12.6452 13.4215L10.9678 12.4151V10.377ZM15.5807 16.5247L14.6874 14.9605C14.6417 14.8798 14.5704 14.8165 14.4847 14.7805C14.3991 14.7446 14.304 14.7382 14.2143 14.7622C14.1246 14.7862 14.0454 14.8392 13.9891 14.9131C13.9328 14.9869 13.9026 15.0774 13.9033 15.1702V18.5251H14.742V16.7512L15.6352 18.3154C15.6721 18.3794 15.7253 18.4325 15.7894 18.4693C15.8535 18.5061 15.9261 18.5254 16 18.5251H16.1091C16.2005 18.5005 16.281 18.4457 16.3374 18.3695C16.3937 18.2934 16.4226 18.2004 16.4194 18.1057V14.7509H15.5807V16.5247Z" fill="white"/>
<path id="Vector_3" d="M18.0968 14.7507H17.2581V18.5249H18.0968V14.7507Z" fill="white"/>
</g>
</g>
</svg>
