<svg width="32" height="32" viewBox="0 0 32 32" fill="none" xmlns="http://www.w3.org/2000/svg">
<g id="relaxed">
<path id="Vector" fill-rule="evenodd" clip-rule="evenodd" d="M16 30.6666C24.1002 30.6666 30.6667 24.1001 30.6667 15.9999C30.6667 7.89975 24.1002 1.33325 16 1.33325C7.89987 1.33325 1.33337 7.89975 1.33337 15.9999C1.33337 24.1001 7.89987 30.6666 16 30.6666ZM29.3334 15.9999C29.3334 23.3637 23.3638 29.3333 16 29.3333C8.63624 29.3333 2.66671 23.3637 2.66671 15.9999C2.66671 8.63612 8.63624 2.66659 16 2.66659C23.3638 2.66659 29.3334 8.63612 29.3334 15.9999ZM12.1619 13.9802C12.5191 13.8909 12.7363 13.5289 12.647 13.1717C12.5577 12.8145 12.1957 12.5973 11.8385 12.6867L7.83851 13.6866C7.48131 13.7759 7.26413 14.1379 7.35344 14.4951C7.44273 14.8523 7.80469 15.0695 8.16189 14.9802L12.1619 13.9802ZM19.3534 13.1717C19.4427 12.8145 19.8047 12.5973 20.1619 12.6867L24.1619 13.6866C24.5191 13.7759 24.7363 14.1379 24.647 14.4951C24.5576 14.8523 24.1956 15.0695 23.8386 14.9802L19.8386 13.9802C19.4814 13.8909 19.2642 13.5289 19.3534 13.1717ZM11.9464 21.4445C11.6396 21.2409 11.2259 21.3246 11.0224 21.6315C10.8188 21.9383 10.9026 22.3521 11.2094 22.5555C11.4205 22.6955 11.6381 22.8266 11.8616 22.9481C13.1232 23.6338 14.5355 23.9953 15.9714 23.9999C17.4072 24.0047 18.8218 23.6527 20.088 22.9754C20.3294 22.8463 20.5639 22.7062 20.7908 22.5555C21.0978 22.3521 21.1815 21.9383 20.9779 21.6315C20.7744 21.3246 20.3607 21.2409 20.0539 21.4445C19.8618 21.5719 19.6634 21.6905 19.4591 21.7997C18.3878 22.3729 17.1907 22.6707 15.9758 22.6667C14.7608 22.6626 13.5658 22.3567 12.4983 21.7766C12.3091 21.6738 12.125 21.5629 11.9464 21.4445Z" fill="white"/>
</g>
</svg>
