<svg width="32" height="32" viewBox="0 0 32 32" fill="none" xmlns="http://www.w3.org/2000/svg">
<g id="shower">
<path id="Vector" d="M7.5 32H5C4.825 32 4.6875 31.8625 4.6875 31.6875V8.21875C4.6875 3.6875 8.375 0 12.9062 0C14.9812 0 16.9625 0.775 18.4875 2.19375C20.0062 3.6 20.9312 5.5 21.1 7.55L20.475 7.6C20.1562 3.6875 16.8313 0.625 12.9062 0.625C8.71875 0.625 5.3125 4.03125 5.3125 8.21875V31.375H7.1875V8.21875C7.1875 5.0625 9.75 2.5 12.9062 2.5C16.0625 2.5 18.625 5.0625 18.625 8.21875V8.81875H18V8.21875C18 5.4125 15.7125 3.125 12.9062 3.125C10.1 3.125 7.8125 5.4125 7.8125 8.21875V31.6875C7.8125 31.8625 7.66875 32 7.5 32Z" fill="white"/>
<path id="Vector_2" d="M25.4063 12.8126H24.7813C24.7813 10.7813 23.1313 9.13135 21.1 9.13135H18.0188C15.9875 9.13135 14.3375 10.7813 14.3375 12.8126H13.7125C13.7125 10.4376 15.6438 8.50635 18.0188 8.50635H21.1C23.475 8.50635 25.4063 10.4376 25.4063 12.8126Z" fill="white"/>
<path id="Vector_3" d="M27 15.8125H12.1188C11.9438 15.8125 11.8063 15.675 11.8063 15.5V12.8125C11.8063 12.6375 11.9438 12.5 12.1188 12.5H16.0313V13.125H12.4313V15.1875H26.6875V13.125H17.2813V12.5H27C27.175 12.5 27.3125 12.6375 27.3125 12.8125V15.5C27.3125 15.675 27.175 15.8125 27 15.8125ZM14.3125 30.25H13.6875V28.375H14.3125V30.25ZM14.3125 26.5H13.6875V24.625H14.3125V26.5ZM14.3125 22.75H13.6875V20.875H14.3125V22.75ZM14.3125 19H13.6875V17.125H14.3125V19ZM17.0625 31.6875H16.4375V29.875H17.0625V31.6875ZM17.0625 27.75H16.4375V25.625H17.0625V27.75ZM17.0625 23.5H16.4375V21.375H17.0625V23.5ZM17.0625 19.25H16.4375V17.125H17.0625V19.25ZM19.875 30.25H19.25V28.375H19.875V30.25ZM19.875 26.5H19.25V24.625H19.875V26.5ZM19.875 22.75H19.25V20.875H19.875V22.75ZM19.875 19H19.25V17.125H19.875V19ZM22.625 31.6875H22V29.875H22.625V31.6875ZM22.625 27.75H22V25.625H22.625V27.75ZM22.625 23.5H22V21.375H22.625V23.5ZM22.625 19.25H22V17.125H22.625V19.25ZM25.375 30.25H24.75V28.375H25.375V30.25ZM25.375 26.5H24.75V24.625H25.375V26.5ZM25.375 22.75H24.75V20.875H25.375V22.75ZM25.375 19H24.75V17.125H25.375V19Z" fill="white"/>
</g>
</svg>
