<svg width="32" height="32" viewBox="0 0 32 32" fill="none" xmlns="http://www.w3.org/2000/svg">
<g id="sleep">
<path id="Vector" d="M25.9554 12.7068C25.8935 12.7292 25.8366 12.7635 25.7879 12.8078C25.7393 12.8522 25.6999 12.9057 25.6719 12.9653C25.644 13.0248 25.6281 13.0893 25.625 13.1551C25.622 13.2208 25.632 13.2865 25.6544 13.3484C26.1062 14.6072 26.3352 15.9351 26.3312 17.2725C25.6907 32.7806 3.57883 32.7832 2.93689 17.2727C2.79988 9.41595 10.9996 3.56389 18.382 6.19036C18.5079 6.23306 18.6456 6.224 18.7649 6.16516C18.8841 6.10633 18.9751 6.00254 19.0178 5.87662C19.0605 5.75071 19.0514 5.61299 18.9926 5.49376C18.9337 5.37453 18.83 5.28356 18.704 5.24085C17.393 4.79718 16.0181 4.57156 14.6341 4.573C-2.20732 5.26844 -2.21537 29.2702 14.634 29.9673C23.2434 30.1277 29.618 21.0364 26.597 13.0078C26.5517 12.8829 26.4587 12.7811 26.3384 12.7247C26.2181 12.6683 26.0804 12.6618 25.9554 12.7068Z" fill="white"/>
<path id="Vector_2" d="M13.8774 7.10385C13.8796 7.30243 13.96 7.49212 14.1012 7.63175C14.2424 7.77139 14.433 7.84971 14.6316 7.84971C14.8302 7.84972 15.0208 7.77141 15.162 7.63178C15.3032 7.49214 15.3837 7.30246 15.3859 7.10388C15.3837 6.90531 15.3032 6.71562 15.162 6.57598C15.0208 6.43634 14.8302 6.35803 14.6316 6.35802C14.4331 6.35802 14.2425 6.43633 14.1013 6.57596C13.96 6.71559 13.8796 6.90528 13.8774 7.10385ZM6.91109 9.54956C6.82526 9.63743 6.7623 9.74501 6.72772 9.86288C6.69314 9.98074 6.68801 10.1053 6.71277 10.2256C6.73753 10.3459 6.79142 10.4583 6.86973 10.5529C6.94804 10.6476 7.04837 10.7216 7.16192 10.7684C7.27547 10.8152 7.39878 10.8335 7.52103 10.8216C7.64328 10.8097 7.76075 10.768 7.86313 10.7001C7.9655 10.6322 8.04967 10.5403 8.10824 10.4323C8.16682 10.3243 8.19801 10.2037 8.19909 10.0808C8.19547 9.93325 8.14903 9.78991 8.06543 9.66824C7.98182 9.54658 7.86466 9.45183 7.72819 9.39554C7.59172 9.33925 7.44183 9.32384 7.29676 9.35119C7.15169 9.37853 7.0177 9.44745 6.91109 9.54956ZM3.71362 17.2726C3.71711 17.4703 3.79811 17.6588 3.93918 17.7974C4.08025 17.936 4.2701 18.0137 4.46787 18.0137C4.66564 18.0137 4.8555 17.936 4.99657 17.7974C5.13765 17.6588 5.21865 17.4704 5.22215 17.2726C5.21866 17.0749 5.13766 16.8864 4.99659 16.7478C4.85553 16.6092 4.66567 16.5315 4.4679 16.5315C4.27013 16.5315 4.08027 16.6092 3.9392 16.7478C3.79812 16.8864 3.71712 17.0748 3.71362 17.2726ZM6.91109 23.9231C6.82534 24.0108 6.76238 24.1182 6.72771 24.2359C6.69305 24.3536 6.68773 24.4779 6.71224 24.5981C6.73674 24.7183 6.79031 24.8307 6.86827 24.9254C6.94623 25.0201 7.04621 25.0943 7.15945 25.1415C7.2727 25.1886 7.39577 25.2073 7.51791 25.1959C7.64005 25.1845 7.75754 25.1434 7.86011 25.0761C7.96268 25.0088 8.0472 24.9174 8.1063 24.8099C8.16539 24.7024 8.19725 24.5821 8.19909 24.4594C8.19683 24.3112 8.15132 24.1669 8.06815 24.0442C7.98498 23.9215 7.86778 23.8258 7.73096 23.7689C7.59413 23.7119 7.44364 23.6961 7.29799 23.7236C7.15233 23.751 7.01785 23.8203 6.91109 23.9231ZM15.3859 27.4364C15.3837 27.2378 15.3032 27.0481 15.162 26.9085C15.0208 26.7688 14.8302 26.6905 14.6316 26.6905C14.4331 26.6905 14.2425 26.7688 14.1013 26.9084C13.96 27.0481 13.8796 27.2377 13.8774 27.4363C13.8796 27.6349 13.96 27.8246 14.1012 27.9642C14.2424 28.1039 14.433 28.1822 14.6316 28.1822C14.8302 28.1822 15.0208 28.1039 15.162 27.9642C15.3032 27.8246 15.3837 27.6349 15.3859 27.4364ZM21.0641 24.4594C21.0681 24.6574 21.1496 24.8461 21.2911 24.9848C21.4325 25.1234 21.6228 25.2011 21.8209 25.2011C22.019 25.2011 22.2092 25.1234 22.3507 24.9848C22.4922 24.8461 22.5737 24.6575 22.5777 24.4594C22.5737 24.2613 22.4922 24.0727 22.3507 23.934C22.2092 23.7953 22.019 23.7177 21.8209 23.7177C21.6228 23.7177 21.4326 23.7953 21.2911 23.934C21.1496 24.0727 21.0681 24.2613 21.0641 24.4594ZM24.0411 17.2726C24.0453 17.4705 24.1268 17.6589 24.2683 17.7974C24.4098 17.9359 24.5999 18.0135 24.7978 18.0135C24.9958 18.0135 25.1859 17.9359 25.3274 17.7974C25.4688 17.659 25.5504 17.4705 25.5546 17.2726C25.5504 17.0747 25.4689 16.8863 25.3274 16.7478C25.1859 16.6093 24.9958 16.5317 24.7979 16.5317C24.5999 16.5317 24.4098 16.6093 24.2683 16.7478C24.1269 16.8862 24.0453 17.0747 24.0411 17.2726ZM15.1342 17.2702V9.6467C15.1342 9.51378 15.0814 9.3863 14.9874 9.29232C14.8935 9.19833 14.766 9.14553 14.6331 9.14553C14.5001 9.14553 14.3727 9.19833 14.2787 9.29232C14.1847 9.3863 14.1319 9.51378 14.1319 9.6467V16.769H9.55089C9.41797 16.769 9.2905 16.8218 9.19651 16.9158C9.10253 17.0098 9.04972 17.1373 9.04972 17.2702C9.04972 17.4031 9.10253 17.5306 9.19651 17.6246C9.2905 17.7186 9.41797 17.7714 9.55089 17.7714H14.633C14.6989 17.7714 14.764 17.7584 14.8249 17.7333C14.8857 17.7081 14.9409 17.6712 14.9875 17.6246C15.034 17.5781 15.0709 17.5228 15.0961 17.462C15.1213 17.4012 15.1343 17.336 15.1342 17.2702ZM20.2933 11.4145C20.3367 11.4927 20.4003 11.5578 20.4774 11.6032C20.5545 11.6486 20.6423 11.6726 20.7318 11.6726H24.5434C24.675 11.6707 24.8006 11.617 24.893 11.5232C24.9854 11.4295 25.0372 11.3031 25.0372 11.1715C25.0372 11.0398 24.9854 10.9135 24.893 10.8197C24.8006 10.7259 24.675 10.6722 24.5434 10.6703H21.6362L24.9682 5.33829C25.0157 5.26247 25.0421 5.1753 25.0445 5.08585C25.0469 4.99641 25.0253 4.90795 24.9819 4.82969C24.9385 4.75142 24.875 4.6862 24.7979 4.64082C24.7208 4.59543 24.6329 4.57153 24.5434 4.57161H20.7318C20.6002 4.57355 20.4746 4.62721 20.3822 4.72098C20.2898 4.81475 20.238 4.94111 20.238 5.07276C20.238 5.20441 20.2898 5.33077 20.3822 5.42455C20.4746 5.51833 20.6001 5.57199 20.7318 5.57395H23.639L20.307 10.906C20.2595 10.9818 20.2331 11.0689 20.2307 11.1583C20.2283 11.2478 20.2499 11.3362 20.2933 11.4145ZM29.4988 6.09616H27.8622L29.9236 2.7972C29.9711 2.72137 29.9975 2.6342 29.9999 2.54476C30.0023 2.45531 29.9807 2.36686 29.9373 2.28859C29.8939 2.21033 29.8304 2.14511 29.7533 2.09972C29.6762 2.05434 29.5883 2.03044 29.4988 2.03052H26.9578C26.8265 2.03307 26.7015 2.08699 26.6096 2.1807C26.5177 2.2744 26.4662 2.40042 26.4662 2.53167C26.4662 2.66293 26.5177 2.78895 26.6096 2.88266C26.7015 2.97637 26.8265 3.0303 26.9577 3.03286H28.5944L26.5329 6.33182C26.4854 6.40764 26.4591 6.49481 26.4567 6.58426C26.4543 6.6737 26.4759 6.76216 26.5193 6.84042C26.5626 6.91869 26.6262 6.9839 26.7033 7.02929C26.7804 7.07468 26.8683 7.09857 26.9577 7.0985H29.4988C29.6301 7.09594 29.755 7.04202 29.8469 6.94831C29.9388 6.8546 29.9903 6.72858 29.9903 6.59733C29.9903 6.46607 29.9388 6.34006 29.8469 6.24635C29.755 6.15264 29.6301 6.09871 29.4988 6.09616Z" fill="white"/>
</g>
</svg>
