<svg width="32" height="32" viewBox="0 0 32 32" fill="none" xmlns="http://www.w3.org/2000/svg">
<g id="sofa">
<path id="Vector" d="M16 20.415H10.74C10.6074 20.415 10.4802 20.3623 10.3864 20.2685C10.2927 20.1748 10.24 20.0476 10.24 19.915V12.885C10.24 12.6198 10.1346 12.3654 9.94711 12.1779C9.75957 11.9903 9.50522 11.885 9.24 11.885H8V7.59497C8 6.79932 8.31607 6.03626 8.87868 5.47365C9.44129 4.91104 10.2044 4.59497 11 4.59497H21C21.7956 4.59497 22.5587 4.91104 23.1213 5.47365C23.6839 6.03626 24 6.79932 24 7.59497V11.885H22.765C22.4998 11.885 22.2454 11.9903 22.0579 12.1779C21.8704 12.3654 21.765 12.6198 21.765 12.885V19.915C21.765 20.0476 21.7123 20.1748 21.6186 20.2685C21.5248 20.3623 21.3976 20.415 21.265 20.415H16Z" stroke="white" stroke-width="1.5" stroke-miterlimit="10"/>
<path id="Vector_2" d="M10.24 16.26H21.765V19.915C21.765 20.0476 21.7123 20.1748 21.6185 20.2686C21.5248 20.3623 21.3976 20.415 21.265 20.415H10.74C10.6074 20.415 10.4802 20.3623 10.3864 20.2686C10.2927 20.1748 10.24 20.0476 10.24 19.915V16.26Z" stroke="white" stroke-width="1.5" stroke-miterlimit="10"/>
<path id="Vector_3" d="M8 24.9851V27.4051" stroke="white" stroke-width="1.5" stroke-linecap="round" stroke-linejoin="round"/>
<path id="Vector_4" d="M24 24.9851V27.4051" stroke="white" stroke-width="1.5" stroke-linecap="round" stroke-linejoin="round"/>
<path id="Vector_5" d="M26.24 23.39V12.89C26.24 12.6248 26.1347 12.3704 25.9471 12.1829C25.7596 11.9954 25.5052 11.89 25.24 11.89H22.765C22.4998 11.89 22.2454 11.9954 22.0579 12.1829C21.8704 12.3704 21.765 12.6248 21.765 12.89V19.915C21.765 20.0476 21.7123 20.1748 21.6186 20.2686C21.5248 20.3623 21.3976 20.415 21.265 20.415H10.765C10.6324 20.415 10.5052 20.3623 10.4115 20.2686C10.3177 20.1748 10.265 20.0476 10.265 19.915V12.885C10.265 12.6198 10.1597 12.3654 9.97212 12.1779C9.78459 11.9904 9.53023 11.885 9.26502 11.885H6.76501C6.4998 11.885 6.24544 11.9904 6.05791 12.1779C5.87037 12.3654 5.76501 12.6198 5.76501 12.885V23.385C5.76501 23.7828 5.92305 24.1644 6.20435 24.4457C6.48566 24.727 6.86719 24.885 7.26501 24.885H24.74C25.137 24.885 25.5178 24.7277 25.7989 24.4474C26.0801 24.1672 26.2387 23.787 26.24 23.39Z" stroke="white" stroke-width="1.5" stroke-miterlimit="10"/>
</g>
</svg>
