<svg width="32" height="32" viewBox="0 0 32 32" fill="none" xmlns="http://www.w3.org/2000/svg">
<g id="star">
<path id="Vector" d="M29.2253 13.5021C29.3323 12.773 28.828 12.0953 28.099 11.9883L20.5638 10.8867L17.1966 4.02472C17.0754 3.81541 16.9014 3.64159 16.6919 3.52057C16.0305 3.13833 15.1844 3.36457 14.8021 4.02603L11.4362 10.8867L3.90106 11.9883C3.61297 12.0306 3.3467 12.166 3.14268 12.3738C2.62648 12.8996 2.63438 13.7443 3.16017 14.2605L8.6172 19.6107L7.32944 27.1628C7.31724 27.2351 7.31097 27.3083 7.31081 27.3817C7.30877 28.1195 7.90529 28.7194 8.64325 28.7214C8.86078 28.7211 9.07497 28.6675 9.26694 28.5652L16 25.0053L22.7318 28.5639C22.992 28.702 23.2905 28.7501 23.5808 28.7006C24.3064 28.5768 24.7943 27.8884 24.6706 27.1628L23.3828 19.6107L28.8412 14.2591C29.0482 14.0553 29.183 13.7895 29.2253 13.5021ZM22.2005 18.9023C22.0445 19.0555 21.973 19.2752 22.0091 19.4909L23.3555 27.3854L16.3112 23.6614C16.1161 23.5598 15.8839 23.5598 15.6888 23.6614L8.64455 27.3867L9.99082 19.491C10.027 19.2753 9.95558 19.0556 9.79942 18.9024L4.09369 13.3087L11.9765 12.1563C12.1942 12.1238 12.382 11.9866 12.4792 11.7891L16 4.61343L19.5208 11.789C19.6179 11.9865 19.8058 12.1237 20.0235 12.1562L27.9076 13.3073L22.2005 18.9023Z" fill="white"/>
</g>
</svg>
