<svg width="32" height="32" viewBox="0 0 32 32" fill="none" xmlns="http://www.w3.org/2000/svg">
<g id="stressed">
<path id="Vector" d="M16 1.59998C8.06078 1.59998 1.59998 8.06078 1.59998 16C1.59998 23.9392 8.06078 30.4 16 30.4C23.9392 30.4 30.4 23.9392 30.4 16C30.4 8.06078 23.9392 1.59998 16 1.59998ZM16 29.12C8.76478 29.12 2.87998 23.2352 2.87998 16C2.87998 8.76478 8.76478 2.87998 16 2.87998C23.2352 2.87998 29.12 8.76478 29.12 16C29.12 23.2352 23.2352 29.12 16 29.12Z" fill="#101334"/>
<path id="Vector_2" d="M16 18.88C13.5328 18.88 11.3408 20.3584 10.4192 22.6496C10.0704 23.5136 10.3168 24.5024 11.0496 25.1328C11.4387 25.4647 11.9333 25.6474 12.4448 25.648C13.072 25.648 13.7024 25.376 14.1568 24.8448C14.3852 24.5797 14.6681 24.367 14.9862 24.2212C15.3043 24.0754 15.6501 23.9999 16 23.9999C16.3499 23.9999 16.6957 24.0754 17.0138 24.2212C17.3319 24.367 17.6148 24.5797 17.8432 24.8448C18.6592 25.792 20.0256 25.9168 20.9568 25.1296C21.68 24.5184 21.9328 23.52 21.5808 22.6496C20.6592 20.3584 18.4672 18.88 16 18.88ZM20.1248 24.1536C19.7408 24.48 19.1616 24.416 18.8096 24.0064C18.4609 23.6025 18.0292 23.2786 17.5439 23.0566C17.0587 22.8347 16.5313 22.7199 15.9977 22.7202C15.4641 22.7205 14.9368 22.8359 14.4518 23.0584C13.9668 23.2809 13.5355 23.6053 13.1872 24.0096C12.8352 24.416 12.2592 24.48 11.872 24.1568L11.8656 24.1536C11.5648 23.8976 11.4592 23.488 11.6032 23.1296C12.3328 21.3248 14.0576 20.16 16 20.16C17.9424 20.16 19.6672 21.3248 20.3936 23.1264C20.5376 23.4848 20.432 23.8976 20.1248 24.1536ZM23.36 15.04H20.4256L21.8944 13.5712C22.144 13.3216 22.144 12.9152 21.8944 12.6656C21.6448 12.416 21.2384 12.416 20.9888 12.6656L18.4288 15.2256C18.3395 15.3152 18.2787 15.4294 18.2542 15.5535C18.2297 15.6777 18.2426 15.8063 18.2912 15.9232C18.3872 16.1632 18.6208 16.32 18.88 16.32H23.36C23.712 16.32 24 16.032 24 15.68C24 15.328 23.712 15.04 23.36 15.04ZM13.712 15.9264C13.7606 15.8095 13.7735 15.6809 13.749 15.5567C13.7245 15.4326 13.6637 15.3184 13.5744 15.2288L11.0144 12.6688C10.7648 12.4192 10.3584 12.4192 10.1088 12.6688C9.8592 12.9184 9.8592 13.3248 10.1088 13.5744L11.5744 15.04H8.64C8.288 15.04 8 15.328 8 15.68C8 16.032 8.288 16.32 8.64 16.32H13.12C13.3792 16.32 13.6128 16.1632 13.712 15.9264Z" fill="#101334"/>
</g>
</svg>
