<svg width="32" height="32" viewBox="0 0 32 32" fill="none" xmlns="http://www.w3.org/2000/svg">
<g id="tired">
<path id="Vector" d="M20.565 19.265C19.1868 18.4377 17.6098 18.0007 16.0025 18.0007C14.3951 18.0007 12.8181 18.4377 11.4399 19.265C11.0173 19.5168 10.6759 19.8845 10.4561 20.3247C10.2364 20.7648 10.1475 21.2587 10.2002 21.7478C10.2528 22.2369 10.4448 22.7006 10.7531 23.0839C11.0615 23.4672 11.4734 23.7539 11.9399 23.91C12.3135 24.0411 12.713 24.0805 13.1049 24.025L13.465 23.985C13.965 23.925 14.465 23.885 14.965 23.86C16.1618 23.8054 17.361 23.8522 18.5499 24L18.905 24.04C19.0149 24.0464 19.125 24.0464 19.235 24.04C19.7972 24.0389 20.3436 23.8539 20.7908 23.5131C21.2379 23.1723 21.5613 22.6946 21.7115 22.1528C21.8617 21.611 21.8304 21.035 21.6225 20.5126C21.4146 19.9903 21.0414 19.5503 20.5599 19.26L20.565 19.265ZM19.24 23.045H19.04L18.65 23C17.7705 22.8945 16.8857 22.8411 15.9999 22.84C15.6399 22.84 15.275 22.84 14.9149 22.87C14.4149 22.895 13.8699 22.94 13.3649 23L12.9799 23.045C12.7394 23.0765 12.4948 23.0525 12.265 22.975C11.9806 22.8788 11.7296 22.7033 11.5416 22.4693C11.3536 22.2352 11.2364 21.9523 11.2038 21.6539C11.1712 21.3554 11.2246 21.0539 11.3577 20.7848C11.4908 20.5157 11.698 20.2902 11.955 20.135C13.1775 19.4012 14.5766 19.0135 16.0025 19.0135C17.4283 19.0135 18.8274 19.4012 20.0499 20.135C20.345 20.3123 20.5739 20.5814 20.7015 20.9011C20.8291 21.2208 20.8484 21.5735 20.7566 21.9053C20.6647 22.237 20.4667 22.5296 20.1928 22.7381C19.9189 22.9466 19.5842 23.0597 19.24 23.06V23.045Z" fill="white"/>
<path id="Vector_2" d="M16 2C13.2311 2 10.5243 2.82109 8.22202 4.35943C5.91973 5.89777 4.12532 8.08427 3.06569 10.6424C2.00607 13.2006 1.72882 16.0155 2.26901 18.7313C2.80921 21.447 4.14258 23.9416 6.10051 25.8995C8.05845 27.8574 10.553 29.1908 13.2687 29.731C15.9845 30.2712 18.7994 29.9939 21.3576 28.9343C23.9157 27.8747 26.1022 26.0803 27.6406 23.778C29.1789 21.4757 30 18.7689 30 16C30 12.287 28.525 8.72601 25.8995 6.1005C23.274 3.475 19.713 2 16 2ZM16 29C13.4288 29 10.9154 28.2376 8.77759 26.8091C6.63975 25.3806 4.97351 23.3503 3.98957 20.9749C3.00563 18.5994 2.74819 15.9856 3.2498 13.4638C3.75141 10.9421 4.98954 8.62569 6.80762 6.80761C8.6257 4.98953 10.9421 3.7514 13.4638 3.24979C15.9856 2.74818 18.5995 3.00563 20.9749 3.98957C23.3503 4.97351 25.3807 6.63975 26.8091 8.77759C28.2376 10.9154 29 13.4288 29 16C29 19.4478 27.6304 22.7544 25.1924 25.1924C22.7544 27.6304 19.4478 29 16 29Z" fill="white"/>
<path id="Vector_3" d="M21.5 16C21.8283 16 22.1534 15.9353 22.4567 15.8097C22.76 15.6841 23.0356 15.4999 23.2678 15.2678C23.4999 15.0356 23.6841 14.76 23.8097 14.4567C23.9353 14.1534 24 13.8283 24 13.5C24 13.3674 23.9473 13.2402 23.8536 13.1464C23.7598 13.0527 23.6326 13 23.5 13C23.3674 13 23.2402 13.0527 23.1464 13.1464C23.0527 13.2402 23 13.3674 23 13.5C23 13.8978 22.842 14.2794 22.5607 14.5607C22.2794 14.842 21.8978 15 21.5 15C21.1022 15 20.7206 14.842 20.4393 14.5607C20.158 14.2794 20 13.8978 20 13.5C20 13.3674 19.9473 13.2402 19.8536 13.1464C19.7598 13.0527 19.6326 13 19.5 13C19.3674 13 19.2402 13.0527 19.1464 13.1464C19.0527 13.2402 19 13.3674 19 13.5C19 14.163 19.2634 14.7989 19.7322 15.2678C20.2011 15.7366 20.837 16 21.5 16ZM13 13.5C13 13.3674 12.9473 13.2402 12.8536 13.1464C12.7598 13.0527 12.6326 13 12.5 13C12.3674 13 12.2402 13.0527 12.1464 13.1464C12.0527 13.2402 12 13.3674 12 13.5C12 13.8978 11.842 14.2794 11.5607 14.5607C11.2794 14.842 10.8978 15 10.5 15C10.1022 15 9.72064 14.842 9.43934 14.5607C9.15804 14.2794 9 13.8978 9 13.5C9 13.3674 8.94732 13.2402 8.85355 13.1464C8.75979 13.0527 8.63261 13 8.5 13C8.36739 13 8.24021 13.0527 8.14645 13.1464C8.05268 13.2402 8 13.3674 8 13.5C8 14.163 8.26339 14.7989 8.73223 15.2678C9.20107 15.7366 9.83696 16 10.5 16C11.163 16 11.7989 15.7366 12.2678 15.2678C12.7366 14.7989 13 14.163 13 13.5ZM20.54 17C20.4292 16.9902 20.3183 17.0176 20.2249 17.0779C20.1314 17.1383 20.0607 17.228 20.024 17.333C19.9873 17.438 19.9866 17.5522 20.0221 17.6576C20.0576 17.763 20.1272 17.8536 20.22 17.915L22.29 19.295C22.5268 19.4532 22.7288 19.658 22.8835 19.8971C23.0383 20.1361 23.1426 20.4042 23.19 20.685C23.2359 20.9856 23.3433 21.2735 23.5054 21.5308C23.6674 21.7881 23.8807 22.0093 24.132 22.1805C24.3832 22.3518 24.667 22.4695 24.9658 22.5263C25.2645 22.5831 25.5717 22.5778 25.8683 22.5107C26.1649 22.4436 26.4445 22.3162 26.6897 22.1363C26.9348 21.9565 27.1404 21.7281 27.2934 21.4653C27.4465 21.2026 27.5439 20.9112 27.5794 20.6092C27.6149 20.3072 27.5879 20.0011 27.5 19.71C27.3147 19.0698 26.9399 18.5008 26.4249 18.0778C25.9099 17.6547 25.279 17.3975 24.615 17.34L20.54 17ZM26.54 20C26.6265 20.3096 26.5873 20.6408 26.431 20.9217C26.2746 21.2026 26.0137 21.4104 25.705 21.5C25.5383 21.5466 25.3636 21.557 25.1926 21.5306C25.0216 21.5042 24.8582 21.4415 24.7133 21.3469C24.5684 21.2522 24.4455 21.1276 24.3526 20.9816C24.2598 20.8355 24.1992 20.6714 24.175 20.5C24.1047 20.085 23.9505 19.6888 23.7218 19.3354C23.4931 18.9821 23.1948 18.6791 22.845 18.445L22.39 18.14L24.54 18.32C25.0055 18.3625 25.447 18.5462 25.8053 18.8464C26.1636 19.1466 26.4217 19.5491 26.545 20H26.54Z" fill="white"/>
</g>
</svg>
