<svg width="32" height="32" viewBox="0 0 32 32" fill="none" xmlns="http://www.w3.org/2000/svg">
<g id="travelling-suitcase">
<g id="Group">
<path id="Vector" d="M28 8.7649H24.4712L24.2639 8.12843C24.1831 7.8778 24.0249 7.65927 23.8119 7.50431C23.599 7.34935 23.3424 7.26595 23.0791 7.26612H23.0195L22.9583 6.9419C22.7317 5.87665 22.1409 4.9237 21.2875 4.24709C20.4341 3.57048 19.3716 3.21253 18.2827 3.23487H13.7173C12.6284 3.21253 11.5659 3.57048 10.7125 4.24709C9.8591 4.9237 9.26829 5.87665 9.04175 6.9419L8.9805 7.26612H8.854C8.59064 7.26598 8.33403 7.34939 8.12108 7.50434C7.90813 7.65929 7.74983 7.8778 7.66894 8.12843L7.46185 8.7649H5.78656C5.71299 8.74378 5.63548 8.74027 5.56031 8.75465C5.55133 8.75648 5.54486 8.76261 5.5361 8.7649H4C3.46975 8.76551 2.9614 8.97642 2.58646 9.35136C2.21151 9.7263 2.00061 10.2347 2 10.7649V26.7649C2.00061 27.2951 2.21151 27.8035 2.58646 28.1784C2.9614 28.5534 3.46975 28.7643 4 28.7649H5.67481L5.67773 28.7651L5.67911 28.7649H26.2542L26.2556 28.7651L26.2585 28.7649H28C28.5302 28.7643 29.0386 28.5534 29.4135 28.1784C29.7885 27.8035 29.9994 27.2951 30 26.7649V10.7649C29.9994 10.2347 29.7885 9.7263 29.4135 9.35136C29.0386 8.97642 28.5302 8.76551 28 8.7649ZM25.7183 27.7649H6.21485C6.20515 26.9153 5.86332 26.1032 5.2625 25.5025C4.66169 24.9017 3.8496 24.5599 3 24.5503V13.0469C3.85562 13.0373 4.67302 12.691 5.27509 12.083C5.87716 11.475 6.21541 10.6543 6.21656 9.79859C6.21656 9.78733 6.21497 9.77616 6.21485 9.7649H7.81446L7.82471 9.76612H12.8247L12.835 9.7649H19.0981L19.1084 9.76612H24.1084L24.1187 9.7649H25.7181C25.718 9.77616 25.7165 9.78736 25.7165 9.79859C25.7175 10.6602 26.0603 11.4863 26.6695 12.0956C27.2788 12.7049 28.1049 13.0476 28.9665 13.0486C28.9777 13.0486 28.9888 13.0471 29 13.047V24.5502C28.9888 24.5501 28.9777 24.5486 28.9665 24.5486C28.1109 24.5497 27.2902 24.888 26.6822 25.49C26.0742 26.092 25.7279 26.9093 25.7183 27.7649ZM12.9805 8.12843C12.9048 7.89546 12.762 7.69008 12.5699 7.53813C12.3778 7.38618 12.145 7.29446 11.9009 7.27451C12.0245 6.89265 12.268 6.56087 12.5953 6.32851C12.9225 6.09616 13.316 5.97564 13.7173 5.98487H18.2827C18.683 5.97571 19.0757 6.09566 19.4025 6.32698C19.7294 6.5583 19.9731 6.8887 20.0976 7.26929C19.8414 7.27694 19.5938 7.36363 19.3888 7.51748C19.1838 7.67133 19.0314 7.8848 18.9524 8.12866L18.7455 8.7649H13.1875L12.9805 8.12843ZM29 10.7649V12.0453C28.9887 12.0455 28.9778 12.0486 28.9666 12.0486C28.37 12.0479 27.7981 11.8107 27.3763 11.3889C26.9545 10.967 26.7172 10.3951 26.7166 9.79859C26.7166 9.78724 26.7196 9.77622 26.7198 9.7649H28C28.2651 9.76517 28.5193 9.87061 28.7068 10.0581C28.8943 10.2456 28.9997 10.4998 29 10.7649ZM23.3132 8.43801L23.4195 8.76491H19.797L19.9033 8.43801C19.9191 8.38828 19.9503 8.34485 19.9924 8.31396C20.0345 8.28308 20.0853 8.26633 20.1374 8.26613H23.0791C23.1313 8.26633 23.1821 8.28308 23.2241 8.31396C23.2662 8.34485 23.2974 8.38828 23.3132 8.43801ZM10.0242 7.12746C10.2075 6.29118 10.6765 5.54493 11.3505 5.01702C12.0246 4.48912 12.8614 4.21255 13.7173 4.23488H18.2827C19.1386 4.21255 19.9754 4.48912 20.6495 5.01702C21.3235 5.54493 21.7925 6.29118 21.9758 7.12746L22.002 7.26613H21.131L21.1277 7.24831C20.9908 6.59898 20.6318 6.0177 20.1125 5.60455C19.5933 5.19141 18.9462 4.97228 18.2827 4.98488H13.7173C13.0538 4.97228 12.4067 5.19141 11.8874 5.60455C11.3681 6.0177 11.0092 6.59898 10.8723 7.24831L10.869 7.26613H9.998L10.0242 7.12746ZM8.61987 8.43801C8.6357 8.38828 8.6669 8.34485 8.70897 8.31396C8.75104 8.28308 8.80182 8.26633 8.854 8.26613H11.7957C11.8478 8.2663 11.8985 8.28301 11.9406 8.31385C11.9826 8.3447 12.0137 8.38808 12.0295 8.43776L12.1361 8.76491H8.51358L8.61987 8.43801ZM4 9.7649H5.21316C5.21332 9.77625 5.21656 9.78724 5.21656 9.79859C5.21559 10.389 4.9827 10.9553 4.56807 11.3755C4.15345 11.7958 3.59029 12.0363 3 12.0452V10.7649C3.00026 10.4998 3.10571 10.2456 3.29319 10.0581C3.48066 9.87061 3.73486 9.76517 4 9.7649ZM3 26.7649V25.552C3.58407 25.5611 4.14167 25.7972 4.55474 26.2102C4.96782 26.6233 5.20394 27.1808 5.21313 27.7649H4C3.73486 27.7646 3.48066 27.6592 3.29319 27.4717C3.10571 27.2842 3.00026 27.03 3 26.7649ZM28 27.7649H26.72C26.7289 27.1747 26.9695 26.6116 27.3897 26.197C27.8099 25.7824 28.3762 25.5496 28.9666 25.5486C28.9779 25.5486 28.9886 25.5517 29 25.5518V26.7649C28.9997 27.03 28.8943 27.2842 28.7068 27.4717C28.5193 27.6592 28.2651 27.7646 28 27.7649Z" fill="white"/>
<path id="Vector_2" d="M13.2156 25.4248C13.1714 25.4248 13.1275 25.4198 13.0845 25.4099C12.9896 25.3883 12.9019 25.3427 12.8296 25.2777C12.7573 25.2126 12.7028 25.1301 12.6714 25.0381L11.9214 22.842L9.73143 22.0967C9.6389 22.0649 9.55601 22.01 9.49057 21.9373C9.42514 21.8645 9.37933 21.7763 9.35746 21.6809C9.33559 21.5856 9.33839 21.4862 9.36559 21.3922C9.3928 21.2982 9.4435 21.2127 9.51293 21.1438L9.80956 20.8472C9.96068 20.6959 10.1623 20.6057 10.3757 20.5938L12.4722 20.4744L14.4538 18.3428L9.80541 15.8696C9.72109 15.8247 9.64846 15.7607 9.59335 15.6827C9.53825 15.6047 9.5022 15.5148 9.4881 15.4203C9.474 15.3258 9.48224 15.2294 9.51217 15.1387C9.54209 15.0479 9.59287 14.9655 9.66041 14.898L10.1043 14.4541C10.2025 14.3559 10.3228 14.2827 10.4551 14.2405C10.5874 14.1982 10.7278 14.1883 10.8648 14.2114L17.2895 15.2983C18.6584 13.8323 19.4158 13.0276 19.6033 12.8403C19.9641 12.5367 20.39 12.3202 20.8479 12.2075C21.5329 12.0234 22.0578 12.0886 22.366 12.3967C23.0312 13.0622 22.3992 14.678 21.9238 15.1577C21.8425 15.2397 21.4953 15.5723 19.4636 17.4687L20.551 23.8977C20.5741 24.0346 20.5641 24.1753 20.5219 24.3076C20.4797 24.4399 20.4065 24.5602 20.3083 24.6584L19.8645 25.1023C19.7972 25.1699 19.715 25.2207 19.6244 25.2506C19.5339 25.2805 19.4376 25.2888 19.3432 25.2747C19.2489 25.2605 19.1591 25.2245 19.0811 25.1696C19.003 25.1148 18.9388 25.0425 18.8935 24.9585L16.4187 20.3064L14.2905 22.2871L14.1738 24.3911C14.1619 24.6049 14.0716 24.8068 13.9202 24.9582L13.6238 25.2546C13.5703 25.3085 13.5067 25.3513 13.4367 25.3805C13.3666 25.4097 13.2915 25.4248 13.2156 25.4248ZM16.5544 18.9971C16.6451 18.997 16.7341 19.0217 16.8119 19.0684C16.8897 19.1151 16.9532 19.1821 16.9958 19.2622L19.529 24.0237L19.5539 23.9988L18.4328 17.3704C18.419 17.2888 18.4257 17.2051 18.4522 17.1267C18.4787 17.0483 18.5242 16.9778 18.5847 16.9214C20.6072 15.0337 21.1306 14.5378 21.2134 14.4541C21.4989 14.0647 21.6523 13.5942 21.6511 13.1113C21.1688 13.1078 20.6983 13.2608 20.3103 13.5473C20.1255 13.7322 19.2934 14.6169 17.8369 16.1772C17.7807 16.238 17.7101 16.2837 17.6317 16.3103C17.5533 16.3368 17.4695 16.3433 17.3879 16.3291L10.7639 15.2085L10.739 15.2337L15.4978 17.7654C15.5655 17.8014 15.624 17.8524 15.6688 17.9146C15.7135 17.9768 15.7434 18.0485 15.7561 18.1241C15.7688 18.1997 15.7639 18.2772 15.7418 18.3506C15.7198 18.424 15.6811 18.4913 15.6289 18.5474L13.0676 21.3025C12.9797 21.3971 12.8586 21.4541 12.7297 21.4614L11.2212 21.5474L12.3743 21.9397C12.4784 21.9749 12.5731 22.0336 12.6509 22.1113C12.7288 22.189 12.7876 22.2836 12.823 22.3877L13.219 23.5474L13.3032 22.0308C13.3103 21.9017 13.3672 21.7804 13.4619 21.6924L16.2136 19.1311C16.3062 19.0449 16.428 18.997 16.5544 18.9971Z" fill="white"/>
</g>
</g>
</svg>
