<svg width="32" height="32" viewBox="0 0 32 32" fill="none" xmlns="http://www.w3.org/2000/svg">
<g id="workout">
<path id="Vector" d="M5.12003 10.7519C4.98431 10.7519 4.85414 10.6981 4.75811 10.6022L2.83811 8.68215C2.79056 8.63461 2.75283 8.57816 2.7271 8.51603C2.70136 8.45391 2.68811 8.38732 2.68811 8.32007C2.68811 8.25282 2.70136 8.18624 2.7271 8.12411C2.75283 8.06198 2.79056 8.00554 2.83811 7.95799L7.95811 2.83799C8.00566 2.79043 8.06211 2.75271 8.12423 2.72697C8.18636 2.70124 8.25295 2.68799 8.32019 2.68799C8.38744 2.68799 8.45403 2.70124 8.51615 2.72697C8.57828 2.75271 8.63473 2.79043 8.68227 2.83799L10.6023 4.75799C10.6498 4.80554 10.6876 4.86198 10.7133 4.92411C10.739 4.98624 10.7523 5.05282 10.7523 5.12007C10.7523 5.18732 10.739 5.25391 10.7133 5.31603C10.6876 5.37816 10.6498 5.43461 10.6023 5.48215L5.48227 10.6022C5.43469 10.6497 5.37821 10.6874 5.31605 10.7131C5.2539 10.7388 5.18729 10.752 5.12003 10.7519ZM3.92419 8.31991L5.12003 9.51703L9.51715 5.11991L8.32003 3.92535L3.92419 8.31991Z" fill="white"/>
<path id="Vector_2" d="M6.52803 16C6.46079 16.0001 6.39419 15.9869 6.33207 15.9611C6.26995 15.9354 6.21355 15.8976 6.16611 15.8499L2.83811 12.5219C2.79056 12.4744 2.75283 12.4179 2.7271 12.3558C2.70136 12.2937 2.68811 12.2271 2.68811 12.1598C2.68811 12.0926 2.70136 12.026 2.7271 11.9639C2.75283 11.9017 2.79056 11.8453 2.83811 11.7977L11.7981 2.83775C11.8457 2.79019 11.9021 2.75247 11.9642 2.72673C12.0264 2.70099 12.0929 2.68774 12.1602 2.68774C12.2274 2.68774 12.294 2.70099 12.3562 2.72673C12.4183 2.75247 12.4747 2.79019 12.5223 2.83775L15.8503 6.16575C15.8978 6.21329 15.9356 6.26974 15.9613 6.33187C15.987 6.39399 16.0003 6.46058 16.0003 6.52783C16.0003 6.59507 15.987 6.66166 15.9613 6.72379C15.9356 6.78591 15.8978 6.84236 15.8503 6.88991L6.89027 15.8499C6.84278 15.8976 6.78632 15.9354 6.72415 15.9611C6.66198 15.9869 6.59533 16.0001 6.52803 16ZM3.92419 12.16L6.52803 14.7632L14.7632 6.52799L12.16 3.92415L3.92419 12.16ZM23.68 29.312C23.6128 29.3121 23.5462 29.2989 23.4841 29.2731C23.422 29.2474 23.3655 29.2096 23.3181 29.1619L21.3981 27.2419C21.3506 27.1944 21.3128 27.1379 21.2871 27.0758C21.2614 27.0137 21.2481 26.9471 21.2481 26.8798C21.2481 26.8126 21.2614 26.746 21.2871 26.6839C21.3128 26.6217 21.3506 26.5653 21.3981 26.5177L26.5181 21.3977C26.6141 21.3018 26.7443 21.248 26.88 21.248C26.9473 21.248 27.0139 21.2612 27.0761 21.287C27.1382 21.3127 27.1947 21.3505 27.2423 21.3981L29.1623 23.3181C29.2582 23.4141 29.3121 23.5443 29.3121 23.68C29.3121 23.8157 29.2582 23.9459 29.1623 24.0419L24.0423 29.1619C23.9948 29.2096 23.9383 29.2474 23.8762 29.2732C23.814 29.299 23.7473 29.3121 23.68 29.312ZM22.4842 26.88L23.68 28.0758L28.0759 23.68L26.88 22.4845L22.4842 26.88Z" fill="white"/>
<path id="Vector_3" d="M19.84 29.312C19.7727 29.3121 19.7061 29.2989 19.6439 29.2732C19.5817 29.2474 19.5253 29.2096 19.4778 29.1619L16.1498 25.8339C16.1022 25.7864 16.0645 25.7299 16.0387 25.6678C16.013 25.6057 15.9998 25.5391 15.9998 25.4718C15.9998 25.4046 16.013 25.338 16.0387 25.2759C16.0645 25.2138 16.1022 25.1573 16.1498 25.1098L25.1098 16.1498C25.1573 16.1022 25.2138 16.0645 25.2759 16.0387C25.338 16.013 25.4046 15.9998 25.4718 15.9998C25.5391 15.9998 25.6057 16.013 25.6678 16.0387C25.7299 16.0645 25.7864 16.1022 25.8339 16.1498L29.1619 19.4778C29.2095 19.5253 29.2472 19.5818 29.2729 19.6439C29.2987 19.706 29.3119 19.7726 29.3119 19.8398C29.3119 19.9071 29.2987 19.9737 29.2729 20.0358C29.2472 20.0979 29.2095 20.1544 29.1619 20.2019L20.2019 29.1619C20.1545 29.2096 20.0981 29.2474 20.036 29.2731C19.9738 29.2989 19.9072 29.3121 19.84 29.312ZM17.2368 25.472L19.84 28.0758L28.0758 19.84L25.472 17.2368L17.2368 25.472Z" fill="white"/>
<path id="Vector_4" d="M19.9443 22.5527C19.8091 22.5522 19.6795 22.4983 19.584 22.4026L9.59995 12.4186C9.5524 12.3711 9.51467 12.3147 9.48894 12.2525C9.4632 12.1904 9.44995 12.1238 9.44995 12.0566C9.44995 11.9893 9.4632 11.9227 9.48894 11.8606C9.51467 11.7985 9.5524 11.742 9.59995 11.6945L11.696 9.59849C11.7435 9.55093 11.7999 9.51321 11.8621 9.48747C11.9242 9.46173 11.9908 9.44849 12.058 9.44849C12.1253 9.44849 12.1919 9.46173 12.254 9.48747C12.3161 9.51321 12.3726 9.55093 12.4201 9.59849L22.4041 19.5825C22.4517 19.63 22.4894 19.6865 22.5151 19.7486C22.5409 19.8107 22.5541 19.8773 22.5541 19.9446C22.5541 20.0118 22.5409 20.0784 22.5151 20.1405C22.4894 20.2027 22.4517 20.2591 22.4041 20.3067L20.3081 22.4026C20.2604 22.4504 20.2036 22.4883 20.1412 22.514C20.0787 22.5398 20.0118 22.553 19.9443 22.5527ZM10.6851 12.0567L19.9443 21.3166L21.3164 19.9444L12.0569 10.6852L10.6851 12.0567Z" fill="white"/>
</g>
</svg>
