<svg width="32" height="32" viewBox="0 0 32 32" fill="none" xmlns="http://www.w3.org/2000/svg">
<g id="yoga">
<path id="Vector" d="M26.39 20.685C25.945 19.635 24.3 19.26 22 19.645V16C22 14.6739 21.4732 13.4022 20.5355 12.4645C19.5979 11.5268 18.3261 11 17 11H15C13.6739 11 12.4021 11.5268 11.4645 12.4645C10.5268 13.4022 10 14.6739 10 16V19.65C7.7 19.26 6.055 19.65 5.61 20.685C5.52845 20.8962 5.49125 21.122 5.50071 21.3482C5.51017 21.5745 5.56609 21.7963 5.665 22C5.79321 22.2873 5.96156 22.555 6.165 22.795C1.5 23.665 1.5 24.845 1.5 25.25C1.5 27.82 11 28.5 16 28.5C21 28.5 30.5 27.82 30.5 25.25C30.5 24.845 30.5 23.665 25.84 22.79C26.0434 22.55 26.2118 22.2823 26.34 21.995C26.4374 21.7917 26.4921 21.5705 26.5007 21.3452C26.5093 21.1199 26.4716 20.8952 26.39 20.685ZM25.47 21.075C25.4967 21.1625 25.5056 21.2545 25.4961 21.3456C25.4867 21.4366 25.4591 21.5248 25.415 21.605C25.05 22.47 23.415 23.88 20.71 24.935C19.9935 25.1985 19.2454 25.3666 18.485 25.435C18.4831 25.3772 18.4677 25.3207 18.44 25.27C18.1809 24.824 17.8866 24.3993 17.56 24C17.7771 23.9312 17.9778 23.819 18.15 23.67L21.355 20.825C23.715 20.245 25.235 20.525 25.47 21.075ZM11 16C11 14.9391 11.4214 13.9217 12.1716 13.1716C12.9217 12.4214 13.9391 12 15 12H17C18.0609 12 19.0783 12.4214 19.8284 13.1716C20.5786 13.9217 21 14.9391 21 16V19.775L17.5 22.895C17.3751 23.0074 17.213 23.0697 17.045 23.0697C16.877 23.0697 16.7149 23.0074 16.59 22.895C16.5882 22.8868 16.5882 22.8782 16.59 22.87C16.6302 22.7268 16.6504 22.5787 16.65 22.43C16.648 22.2811 16.6261 22.1331 16.585 21.99L19.43 18.33C19.4909 18.2314 19.5156 18.1148 19.5 18V16H18.5V17.83L16 21.04L13.5 17.83V16H12.5V18C12.5003 18.1105 12.5373 18.2177 12.605 18.305L15.5 22C15.5276 22.0355 15.5511 22.0741 15.57 22.115C15.6143 22.2071 15.6382 22.3078 15.64 22.41C15.6412 22.5088 15.6189 22.6065 15.575 22.695C15.5433 22.7626 15.4992 22.8237 15.445 22.875C15.3223 22.9918 15.1594 23.0569 14.99 23.0569C14.8206 23.0569 14.6577 22.9918 14.535 22.875L11.035 19.755L11 16ZM6.53 21.075C6.765 20.525 8.285 20.245 10.65 20.8L13.845 23.645C14.1404 23.9066 14.5189 24.0551 14.9134 24.0643C15.3078 24.0734 15.6928 23.9426 16 23.695C16.4458 24.1605 16.8522 24.6623 17.215 25.195C16.08 25.45 13.585 25.82 11.29 24.93C8.58 23.875 6.95 22.465 6.585 21.6C6.54156 21.5205 6.51434 21.4331 6.5049 21.343C6.49546 21.2529 6.50399 21.1618 6.53 21.075ZM29.5 25.25C29.5 26 24.735 27.5 16 27.5C7.265 27.5 2.5 26 2.5 25.25C2.5 25.065 3.28 24.25 7.025 23.65C8.19904 24.5936 9.51766 25.3415 10.93 25.865C12.0902 26.2997 13.3211 26.515 14.56 26.5C15.0411 26.5 15.5219 26.4733 16 26.42C16.4699 26.472 16.9422 26.4987 17.415 26.5C18.6554 26.5136 19.8877 26.2983 21.05 25.865C22.4781 25.3459 23.8123 24.5978 25 23.65C28.72 24.27 29.5 25.065 29.5 25.25ZM19.5 7C19.5 6.30777 19.2947 5.63108 18.9101 5.05551C18.5256 4.47993 17.9789 4.03133 17.3394 3.76642C16.6999 3.50152 15.9961 3.4322 15.3172 3.56725C14.6383 3.7023 14.0146 4.03564 13.5251 4.52513C13.0356 5.01461 12.7023 5.63825 12.5673 6.31719C12.4322 6.99612 12.5015 7.69985 12.7664 8.33939C13.0313 8.97893 13.4799 9.52556 14.0555 9.91015C14.6311 10.2947 15.3078 10.5 16 10.5C16.9283 10.5 17.8185 10.1313 18.4749 9.47487C19.1313 8.8185 19.5 7.92826 19.5 7ZM13.5 7C13.5 6.50555 13.6466 6.0222 13.9213 5.61108C14.196 5.19995 14.5865 4.87952 15.0433 4.6903C15.5001 4.50108 16.0028 4.45158 16.4877 4.54804C16.9727 4.6445 17.4181 4.8826 17.7678 5.23223C18.1174 5.58187 18.3555 6.02732 18.452 6.51228C18.5484 6.99723 18.4989 7.49989 18.3097 7.95671C18.1205 8.41353 17.8 8.80397 17.3889 9.07868C16.9778 9.35338 16.4945 9.5 16 9.5C15.337 9.5 14.7011 9.23661 14.2322 8.76777C13.7634 8.29893 13.5 7.66304 13.5 7Z" fill="white"/>
</g>
</svg>
