<svg width="68" height="68" viewBox="0 0 68 68" fill="none" xmlns="http://www.w3.org/2000/svg">
<g id="alert">
<path id="Vector" d="M31.7317 15.3481C29.594 18.9325 27.3762 22.5253 25.1404 26.0273C19.3076 35.1663 18.8829 35.0977 18.7488 36.4589C18.6433 37.5336 19.1946 38.5483 20.0896 38.9262C20.5081 39.102 20.9309 39.1166 21.2713 39.1283C28.1475 39.3676 29.7616 39.1473 47.2688 39.3554C48.3477 39.375 49.4146 39.2413 50.0359 38.3598C50.4124 37.8261 50.5174 37.101 50.323 36.37C50.1712 35.8012 49.8762 35.3222 49.616 34.8998C43.6173 25.1548 37.6527 16.0194 37.0408 14.9638C36.6809 14.3442 35.9309 13.0566 34.3758 13.1796C33.1381 13.2805 32.37 14.2776 31.7317 15.3481ZM35.7429 15.7167C36.5982 17.1909 48.5792 35.6576 48.8738 36.7558C49.2229 38.0727 47.7257 37.8397 46.3484 37.8325C39.0629 37.6536 21.5138 37.8975 20.6726 37.5439C20.3909 37.4252 20.2019 37.0126 20.242 36.6054C20.3557 35.441 23.6104 31.8914 33.0203 16.1161C33.3477 15.5663 33.8688 14.7261 34.4973 14.6747C34.9578 14.6323 35.263 14.8896 35.7429 15.7167Z" fill="#EF6183"/>
<path id="Vector_2" d="M32.9304 21.5202C32.968 21.8729 33.9454 31.0425 33.9839 31.4039C34.0168 31.7128 33.9516 32.1561 34.292 32.2986C34.4942 32.3831 35.0377 32.4362 35.2685 32.3909C35.8189 32.2829 35.6684 31.5526 35.6829 31.2092C36.1489 20.1611 36.0598 22.2729 36.0926 21.4953C36.1044 21.2151 35.8181 20.9829 35.4606 20.9829H33.5604C33.1904 20.9829 32.8996 21.231 32.9304 21.5202ZM33.6799 33.8681C33.4009 34.8839 34.5099 35.7973 35.4393 35.1203C35.8945 34.7889 36.0494 34.2189 35.8553 33.7833C35.5011 32.9881 33.9703 32.8112 33.6799 33.8681Z" fill="#EF6183"/>
<path id="Vector_3" d="M15.7867 45.3398C20.5314 45.4471 24.6996 45.4495 28.7367 45.4291V62.7722C28.7367 63.6904 29.1426 64.5759 29.8738 65.1311C30.3909 65.5239 31.0483 65.9004 31.7076 66.108C31.8401 66.1728 31.9715 66.2413 32.1209 66.2707C33.7725 66.5971 35.5036 66.5131 37.1741 66.178C38.0183 66.0076 38.6311 65.2488 38.6311 64.3728L38.6134 45.3787C42.4944 45.3753 46.5725 45.4098 51.2281 45.5526C52.8465 45.6023 55.4778 45.5516 56.7793 44.5823C57.6762 43.9144 58.4068 42.4946 58.3938 41.3142C58.5992 40.1322 57.9724 39.0607 57.3064 37.9792C54.7953 33.8989 40.9249 11.5672 37.7288 7.3308C37.0728 6.46154 36.3755 5.9298 35.6069 5.68706L35.6126 5.68505C35.5126 5.67884 34.2895 5.27264 32.6712 5.83105C32.1281 6.01853 31.1226 6.15394 29.7148 7.22723C28.6109 8.06871 27.3362 9.56149 26.6767 10.5888C26.2889 11.193 26.7744 10.5783 22.9217 16.8569C12.2455 34.2557 10.4642 35.6038 9.73362 38.7971C9.34482 40.4965 9.60508 42.4501 10.8288 43.685C12.0857 44.9532 14.0071 45.2995 15.7867 45.3398ZM37.1311 64.3733C37.1311 64.5344 37.0223 64.6785 36.8782 64.7073C35.2556 65.0325 33.7527 65.0632 32.4114 64.7991C31.9794 64.7143 32.289 65.0981 32.015 45.4094C33.7051 45.398 35.3947 45.3868 37.1134 45.3813L37.1311 64.3733ZM49.0047 27.4968C51.0677 30.7483 53.2337 34.2234 56.0291 38.7654C56.3753 39.3279 56.7332 39.9094 56.8924 40.5076C57.1609 41.5197 56.0815 42.7084 54.5818 42.6418C45.8299 42.4308 18.0352 42.533 17.4661 42.5564C15.8447 42.6215 13.361 42.7441 12.6658 41.1545C11.6773 38.8986 13.8904 38.8299 30.4085 11.4065C31.1939 10.1032 32.0744 8.29219 33.3362 7.46899C33.9256 7.08568 34.5623 6.94408 35.0848 7.08471C36.7274 7.52208 38.6025 11.2726 49.0047 27.4968ZM42.1302 7.04125C42.4051 7.04125 42.6702 6.8894 42.8015 6.6267L44.8108 2.60863C44.9959 2.23803 44.846 1.78783 44.4754 1.60229C44.1062 1.4182 43.6551 1.56713 43.469 1.93774L41.4598 5.9558C41.2089 6.45811 41.5783 7.04125 42.1302 7.04125ZM45.6248 9.52416C46.0893 9.52416 45.9511 9.39811 49.9319 6.34203C50.2576 6.08568 50.3142 5.61449 50.0584 5.28881C49.802 4.96264 49.3299 4.90697 49.0052 5.16234L45.1609 8.18432C44.6005 8.62545 44.9174 9.52416 45.6248 9.52416ZM46.9729 13.5041C47.1032 13.5041 46.9173 13.5221 51.6311 12.6775C52.0389 12.6038 52.3098 12.2141 52.2366 11.8064C52.1634 11.3982 51.7737 11.1296 51.3655 11.2009L46.8406 12.0159C45.9446 12.1781 46.0657 13.5041 46.9729 13.5041Z" fill="#EF6183"/>
</g>
</svg>
