<svg width="106" height="106" viewBox="0 0 106 106" fill="none" xmlns="http://www.w3.org/2000/svg">
<g clip-path="url(#clip0_1755_1211)">
<rect width="106" height="106" rx="22.4576" fill="url(#paint0_linear_1755_1211)"/>
<g filter="url(#filter0_d_1755_1211)">
<path d="M150.433 72.3296C148.807 70.6889 146.387 69.7002 143.73 69.818C142.22 69.8785 140.748 70.3092 139.444 71.0723C137.572 70.1805 135.508 69.7657 133.436 69.8651C129.508 70.0404 126.121 71.9356 124.143 74.6961C122.537 73.6464 120.639 73.1317 118.722 73.2259C115.736 73.3573 113.171 74.851 111.751 77.0034C110.563 75.6548 108.97 74.7262 107.21 74.3558C107.059 73.8982 106.888 73.4419 106.695 72.9868C103.298 64.97 94.7237 60.9348 87.543 63.9757C86.914 64.2415 86.3076 64.5578 85.7296 64.9213C81.4519 60.0601 74.8644 58.0937 69.1412 60.5165C62.847 63.1826 59.6405 70.2907 61.0273 77.4328C58.9512 76.8775 56.7484 77.028 54.7659 77.8606C51.7697 79.1287 49.7376 81.786 48.982 84.9257C46.1371 79.8521 40.3246 77.4534 35.3965 79.5405C31.5058 81.1878 29.2388 85.1751 29.2797 89.5293C29.0656 89.5243 28.8483 89.5236 28.6312 89.5372C24.186 89.7308 20.6714 92.9496 20.4804 96.8541L5.78246 99.3069C5.95925 99.3013 11.7146 99.1064 20.6091 98.5599C24.093 98.3469 28.056 98.0811 32.3554 97.7514C34.0012 97.6258 35.6995 97.491 37.4384 97.3449C41.3039 97.0247 45.3714 96.6532 49.5515 96.2305L51.6775 96.0103C57.4204 95.4086 63.3434 94.7029 69.2175 93.8823C75.013 93.0738 80.7628 92.1509 86.2443 91.102L86.9311 90.9689C91.3356 90.114 96.0269 89.0693 100.86 87.899C102.752 87.4377 104.663 86.9611 106.592 86.4692C108.375 86.0125 110.174 85.5407 111.974 85.059C112.67 84.8749 113.363 84.6885 114.059 84.4996C116.875 83.7354 119.695 82.9492 122.498 82.1501C124.188 81.668 125.87 81.1816 127.543 80.6909C130.289 79.8878 132.983 79.0843 135.626 78.2895C138.612 77.3854 141.528 76.4838 144.32 75.6103C146.744 74.8505 149.084 74.1076 151.316 73.3908C164.591 69.1305 174.048 65.816 174.759 65.5641L150.433 72.3296Z" fill="url(#paint1_linear_1755_1211)"/>
</g>
<g filter="url(#filter1_d_1755_1211)">
<path fill-rule="evenodd" clip-rule="evenodd" d="M48.8952 23.3834C49.899 23.2277 50.8899 23.7337 51.3546 24.6373C51.8182 25.5408 51.6519 26.6402 50.9406 27.3656C47.3158 31.0648 45.0781 36.1299 45.0781 41.714C45.0781 53.0321 54.267 62.221 65.585 62.221C71.1692 62.221 76.2343 59.9833 79.9334 56.3585C80.6589 55.6472 81.7582 55.4809 82.6618 55.9444C83.5653 56.4092 84.0714 57.4 83.9157 58.4039C81.645 73.0955 68.9315 84.3605 53.6076 84.3605C36.6807 84.3605 22.9386 70.6184 22.9386 53.6915C22.9386 38.3676 34.2036 25.6541 48.8952 23.3834Z" fill="white"/>
</g>
<g filter="url(#filter2_d_1755_1211)">
<path fill-rule="evenodd" clip-rule="evenodd" d="M-51.7101 88.6444C-54.2879 89.3 -56.318 90.946 -57.4009 92.9871L-82.644 93.5447C-81.89 93.5801 -71.8787 94.0184 -57.9388 94.2581C-55.5952 94.299 -53.1399 94.3333 -50.5999 94.3598C-47.6746 94.3886 -44.6224 94.4086 -41.5031 94.4107C-38.7433 94.4074 -35.932 94.3975 -33.0703 94.3721C-31.3273 94.3581 -29.5768 94.3374 -27.8191 94.3101C-25.5729 94.2751 -23.3191 94.2298 -21.068 94.1728L-19.0493 105.116L-2.09922 115.184H76.6614L94.2487 111.998L98.7093 91.9893L73.9549 78.5331C72.5013 75.0733 68.345 73.1747 64.1736 74.239C63.9619 74.2888 63.754 74.3523 63.5505 74.419C62.3307 70.239 59.0075 67.0776 54.8066 66.6256C49.4855 66.0528 44.615 70.0297 43.3587 75.7092C41.7275 72.9221 39.0139 70.966 35.779 70.6184C33.6404 70.3946 31.4882 70.8875 29.6613 72.0195C28.9237 64.7814 23.7987 58.9042 17.0025 58.1721C10.8232 57.5077 5.08574 61.2949 2.39645 67.1854C1.73805 67.0045 1.06608 66.8772 0.387123 66.8045C-7.36612 65.97 -14.4073 72.3121 -15.341 80.9687C-15.3941 81.4602 -15.4264 81.9466 -15.4379 82.4281C-17.0159 83.2916 -18.2722 84.6412 -19.0195 86.2757C-21.0013 84.6259 -23.8884 83.9376 -26.7849 84.6753C-28.6479 85.1397 -30.3158 86.1811 -31.5493 87.6503C-34.2408 85.5795 -38.0315 84.7448 -41.8426 85.7129C-43.8549 86.217 -45.7107 87.2108 -47.2443 88.6056C-48.7136 88.2524 -50.2473 88.2657 -51.7101 88.6444Z" fill="#5D83DD"/>
</g>
<path d="M32.4382 75.8043C25.6072 69.9929 23.3897 60.4685 23.1348 56.4328L34.4773 49.041L45.9473 58.8542V75.8043C44.2905 78.2258 39.2692 81.6158 32.4382 75.8043Z" fill="url(#paint2_linear_1755_1211)"/>
<ellipse cx="34.9871" cy="81.4114" rx="10.323" ry="11.2151" fill="url(#paint3_linear_1755_1211)"/>
<ellipse cx="52.8293" cy="78.0989" rx="10.323" ry="11.2151" fill="url(#paint4_linear_1755_1211)"/>
<path d="M150.528 106.497C149.445 104.456 147.415 102.81 144.837 102.154C143.374 101.776 141.841 101.762 140.371 102.116C138.838 100.721 136.982 99.727 134.97 99.223C131.158 98.2549 127.368 99.0896 124.676 101.16C123.443 99.6912 121.775 98.6497 119.912 98.1854C117.015 97.4476 116.494 95.0395 114.512 96.6893C113.765 95.0548 110.143 96.8017 108.565 95.9382C108.553 95.4567 108.521 94.9702 108.468 94.4787C107.534 85.8222 100.493 79.48 92.7398 80.3146C92.0608 80.3872 91.3889 80.5146 90.7305 80.6954C88.0412 74.8049 82.3037 71.0177 76.1244 71.6821C69.3282 72.4143 64.2032 78.2915 63.4656 85.5295C61.6387 84.3976 59.4865 83.9047 57.348 84.1285C54.1131 84.4761 51.3994 86.4322 49.7682 89.2192C48.5119 83.5398 43.6414 79.5629 38.3203 80.1357C34.1194 80.5876 30.7963 83.7491 29.5764 87.9291C29.3729 87.8624 29.1651 87.7989 28.9534 87.7491C24.642 86.6491 20.3468 88.7141 19.0349 92.3965C19.0349 92.3965 14.5815 86.1095 9.99366 83.992C-4.6038 77.2547 -4.6038 85.5295 -4.6038 85.5295C-4.6038 85.5295 -12.3781 88.4457 -3.7055 90.4945C-0.308915 91.298 -31.4907 100.714 -3.03177 97.8034C-1.42004 98.159 7.5007 108.445 9.20764 108.808C13.0005 109.619 31.1894 109.78 35.3132 110.584L37.4121 110.988C43.0837 112.073 48.9577 113.11 54.8181 114.023C60.5997 114.925 66.3708 115.704 71.9215 116.285L72.6175 116.356C77.081 116.812 81.8739 117.168 86.8391 117.445C88.7833 117.551 90.7503 117.647 92.7398 117.734C94.5789 117.812 108.168 107.502 110.03 107.562C110.75 107.587 111.467 107.609 112.188 107.629C115.105 107.712 118.032 107.775 120.946 107.82C122.704 107.848 124.454 107.868 126.197 107.882C129.059 107.908 131.87 107.917 134.63 107.921C137.749 107.919 140.802 107.899 143.727 107.87C146.267 107.843 148.722 107.809 151.066 107.768C165.006 107.529 175.017 107.09 175.771 107.055L150.528 106.497Z" fill="url(#paint5_linear_1755_1211)"/>
<path d="M58.6955 48.5354C59.2832 48.3169 59.7637 47.8796 60.0364 47.315C60.3091 46.7504 60.353 46.1023 60.1589 45.5061C60.1566 45.4922 60.1534 45.4785 60.1491 45.4651L56.7293 36.3655L61.9928 33.344L63.8456 38.2742C63.3246 38.2698 62.8158 38.4321 62.3935 38.7375C61.9713 39.0428 61.6578 39.4752 61.4989 39.9715C61.3399 40.4677 61.3439 41.0018 61.5101 41.4956C61.6764 41.9895 61.9962 42.4172 62.4229 42.7163C62.8496 43.0154 63.3607 43.1702 63.8816 43.1581C64.4026 43.146 64.906 42.9675 65.3183 42.6489C65.7306 42.3302 66.0301 41.8881 66.1732 41.387C66.3163 40.886 66.2954 40.3523 66.1135 39.864L62.929 31.3199C62.915 31.2822 62.8929 31.248 62.8643 31.2196C62.8356 31.1913 62.8012 31.1696 62.7633 31.156C62.7255 31.1423 62.6851 31.1371 62.645 31.1407C62.6049 31.1442 62.5661 31.1565 62.5312 31.1766L54.9599 35.5306C54.9032 35.5634 54.86 35.6153 54.8382 35.677C54.8163 35.7388 54.8172 35.8063 54.8407 35.8674L57.8268 43.8132C57.4704 43.8151 57.1187 43.8952 56.7965 44.0478C56.4743 44.2004 56.1895 44.4217 55.9622 44.6962C55.7348 44.9708 55.5704 45.2918 55.4805 45.6368C55.3906 45.9817 55.3774 46.3422 55.4419 46.6928C55.5064 47.0434 55.6469 47.3756 55.8537 47.666C56.0604 47.9563 56.3283 48.1979 56.6385 48.3736C56.9487 48.5492 57.2936 48.6548 57.6489 48.6827C58.0043 48.7107 58.3615 48.6604 58.6953 48.5354L58.6955 48.5354Z" fill="#D3FB8F"/>
<path d="M73.1866 50.7207C73.6436 50.6431 74.0528 50.3917 74.3288 50.0192C74.6047 49.6467 74.7259 49.182 74.6671 48.7222C74.6674 48.7118 74.6669 48.7014 74.6657 48.6911L73.4361 41.6101L77.6757 40.141L78.3419 43.9775C77.9641 43.9025 77.5721 43.9502 77.2233 44.1138C76.8745 44.2774 76.5872 44.5483 76.4034 44.8868C76.2195 45.2253 76.1487 45.6138 76.2014 45.9954C76.2541 46.377 76.4274 46.7318 76.6961 47.0079C76.9648 47.284 77.3148 47.4669 77.6948 47.5299C78.0749 47.5929 78.4651 47.5327 78.8085 47.3581C79.1519 47.1834 79.4305 46.9036 79.6034 46.5594C79.7764 46.2152 79.8348 45.8246 79.77 45.4449L78.6348 38.7998C78.6298 38.7705 78.6184 38.7426 78.6016 38.7181C78.5847 38.6936 78.5627 38.6731 78.537 38.6579C78.5114 38.6428 78.4828 38.6334 78.4532 38.6305C78.4236 38.6275 78.3937 38.6311 78.3656 38.6409L72.2659 40.7597C72.2202 40.7757 72.1817 40.8075 72.1573 40.8493C72.133 40.8912 72.1243 40.9403 72.1329 40.988L73.2066 47.171C72.9474 47.1233 72.6809 47.133 72.4259 47.1994C72.1708 47.2658 71.9334 47.3873 71.7304 47.5554C71.5274 47.7235 71.3637 47.934 71.2509 48.1722C71.1381 48.4103 71.0788 48.6703 71.0773 48.9339C71.0758 49.1974 71.1321 49.4581 71.2423 49.6975C71.3524 49.9369 71.5137 50.1493 71.7147 50.3197C71.9158 50.49 72.1518 50.6142 72.4061 50.6835C72.6604 50.7528 72.9267 50.7655 73.1864 50.7208L73.1866 50.7207Z" fill="#D3FB8F"/>
<path d="M72.5496 35.7566L70.497 36.394C70.3311 36.4455 70.1497 36.392 70.039 36.2585C69.9277 36.1248 69.9081 35.9373 69.9891 35.7834L70.9211 34.0117L69.8595 34.3414C69.6325 34.4119 69.3919 34.285 69.3215 34.0584C69.2511 33.8318 69.3775 33.5909 69.6045 33.5204L71.6572 32.8829C71.823 32.8314 72.0044 32.8849 72.1151 33.0184C72.2265 33.1522 72.246 33.3397 72.165 33.4935L71.233 35.2652L72.2946 34.9355C72.5216 34.865 72.7622 34.992 72.8326 35.2186C72.903 35.4452 72.7766 35.6861 72.5496 35.7566ZM73.8653 31.2969L71.8127 31.9344C71.6469 31.9859 71.4655 31.9324 71.3547 31.7989C71.2434 31.6651 71.2239 31.4776 71.3048 31.3237L72.2369 29.552L71.1753 29.8817C70.9482 29.9522 70.7076 29.8253 70.6372 29.5987C70.5669 29.3721 70.6933 29.1312 70.9203 29.0607L72.9729 28.4232C73.1388 28.3717 73.3201 28.4252 73.4309 28.5587C73.5422 28.6925 73.5617 28.88 73.4808 29.0339L72.5487 30.8055L73.6104 30.4759C73.8374 30.4054 74.078 30.5323 74.1484 30.7589C74.2187 30.9855 74.0924 31.2264 73.8653 31.2969Z" fill="#D3FB8F"/>
</g>
<defs>
<filter id="filter0_d_1755_1211" x="-4.45821" y="47.2176" width="189.458" height="60.3085" filterUnits="userSpaceOnUse" color-interpolation-filters="sRGB">
<feFlood flood-opacity="0" result="BackgroundImageFix"/>
<feColorMatrix in="SourceAlpha" type="matrix" values="0 0 0 0 0 0 0 0 0 0 0 0 0 0 0 0 0 0 127 0" result="hardAlpha"/>
<feOffset dy="-2.02119"/>
<feGaussianBlur stdDeviation="5.12034"/>
<feComposite in2="hardAlpha" operator="out"/>
<feColorMatrix type="matrix" values="0 0 0 0 0 0 0 0 0 0 0 0 0 0 0 0 0 0 0.09 0"/>
<feBlend mode="normal" in2="BackgroundImageFix" result="effect1_dropShadow_1755_1211"/>
<feBlend mode="normal" in="SourceGraphic" in2="effect1_dropShadow_1755_1211" result="shape"/>
</filter>
<filter id="filter1_d_1755_1211" x="19.1408" y="17.0087" width="70.6398" height="70.6397" filterUnits="userSpaceOnUse" color-interpolation-filters="sRGB">
<feFlood flood-opacity="0" result="BackgroundImageFix"/>
<feColorMatrix in="SourceAlpha" type="matrix" values="0 0 0 0 0 0 0 0 0 0 0 0 0 0 0 0 0 0 127 0" result="hardAlpha"/>
<feOffset dx="1.01955" dy="-1.52933"/>
<feGaussianBlur stdDeviation="2.4087"/>
<feComposite in2="hardAlpha" operator="out"/>
<feColorMatrix type="matrix" values="0 0 0 0 1 0 0 0 0 1 0 0 0 0 1 0 0 0 0.25 0"/>
<feBlend mode="normal" in2="BackgroundImageFix" result="effect1_dropShadow_1755_1211"/>
<feBlend mode="normal" in="SourceGraphic" in2="effect1_dropShadow_1755_1211" result="shape"/>
</filter>
<filter id="filter2_d_1755_1211" x="-92.8847" y="45.8348" width="201.835" height="77.5692" filterUnits="userSpaceOnUse" color-interpolation-filters="sRGB">
<feFlood flood-opacity="0" result="BackgroundImageFix"/>
<feColorMatrix in="SourceAlpha" type="matrix" values="0 0 0 0 0 0 0 0 0 0 0 0 0 0 0 0 0 0 127 0" result="hardAlpha"/>
<feOffset dy="-2.02119"/>
<feGaussianBlur stdDeviation="5.12034"/>
<feComposite in2="hardAlpha" operator="out"/>
<feColorMatrix type="matrix" values="0 0 0 0 0 0 0 0 0 0 0 0 0 0 0 0 0 0 0.09 0"/>
<feBlend mode="normal" in2="BackgroundImageFix" result="effect1_dropShadow_1755_1211"/>
<feBlend mode="normal" in="SourceGraphic" in2="effect1_dropShadow_1755_1211" result="shape"/>
</filter>
<linearGradient id="paint0_linear_1755_1211" x1="107.46" y1="108.583" x2="53" y2="-53.4367" gradientUnits="userSpaceOnUse">
<stop offset="0.361289" stop-color="#0C256B"/>
<stop offset="0.812184" stop-color="#183C9E"/>
</linearGradient>
<linearGradient id="paint1_linear_1755_1211" x1="-5.50506" y1="104.603" x2="170.486" y2="70.3107" gradientUnits="userSpaceOnUse">
<stop stop-color="#6D90E1"/>
<stop offset="1" stop-color="#446FD5"/>
</linearGradient>
<linearGradient id="paint2_linear_1755_1211" x1="50.6419" y1="53.3368" x2="34.541" y2="79.0131" gradientUnits="userSpaceOnUse">
<stop offset="0.256966" stop-color="white"/>
<stop offset="1" stop-color="#F3F3F3"/>
</linearGradient>
<linearGradient id="paint3_linear_1755_1211" x1="34.9871" y1="70.1963" x2="34.9871" y2="92.6265" gradientUnits="userSpaceOnUse">
<stop stop-color="#5D84DD"/>
<stop offset="1" stop-color="#5D83DD"/>
</linearGradient>
<linearGradient id="paint4_linear_1755_1211" x1="52.8293" y1="66.8838" x2="52.8293" y2="89.314" gradientUnits="userSpaceOnUse">
<stop stop-color="#5D84DD"/>
<stop offset="1" stop-color="#5D83DD"/>
</linearGradient>
<linearGradient id="paint5_linear_1755_1211" x1="4.65189" y1="98.5987" x2="174.95" y2="90.2723" gradientUnits="userSpaceOnUse">
<stop stop-color="#6A8FE7"/>
<stop offset="1" stop-color="#BDD1FF"/>
</linearGradient>
<clipPath id="clip0_1755_1211">
<rect width="106" height="106" rx="22.4576" fill="white"/>
</clipPath>
</defs>
</svg>
