<svg width="16" height="16" viewBox="0 0 16 16" fill="none" xmlns="http://www.w3.org/2000/svg">
<g id="bed">
<path id="Vector" d="M4.66675 8.33333C5.06231 8.33333 5.44899 8.21604 5.77789 7.99627C6.10679 7.77651 6.36313 7.46415 6.51451 7.0987C6.66588 6.73325 6.70549 6.33111 6.62832 5.94315C6.55115 5.55519 6.36067 5.19882 6.08096 4.91912C5.80126 4.63941 5.44489 4.44893 5.05693 4.37176C4.66897 4.29459 4.26683 4.3342 3.90138 4.48557C3.53593 4.63695 3.22357 4.89329 3.00381 5.22219C2.78405 5.55109 2.66675 5.93777 2.66675 6.33333C2.66675 6.86377 2.87746 7.37247 3.25253 7.74755C3.62761 8.12262 4.13632 8.33333 4.66675 8.33333ZM4.66675 5.66667C4.7986 5.66667 4.9275 5.70577 5.03713 5.77902C5.14676 5.85227 5.23221 5.95639 5.28267 6.07821C5.33313 6.20003 5.34633 6.33407 5.32061 6.46339C5.29488 6.59271 5.23139 6.7115 5.13815 6.80474C5.04492 6.89797 4.92613 6.96147 4.79681 6.98719C4.66749 7.01291 4.53344 6.99971 4.41163 6.94925C4.28981 6.89879 4.18569 6.81335 4.11244 6.70371C4.03918 6.59408 4.00008 6.46519 4.00008 6.33333C4.00008 6.15652 4.07032 5.98695 4.19534 5.86193C4.32037 5.7369 4.48994 5.66667 4.66675 5.66667ZM13.3334 4.33333H8.00008C7.82327 4.33333 7.6537 4.40357 7.52868 4.5286C7.40365 4.65362 7.33342 4.82319 7.33342 5V9H2.00008V3.66667C2.00008 3.48986 1.92984 3.32029 1.80482 3.19526C1.6798 3.07024 1.51023 3 1.33341 3C1.1566 3 0.987034 3.07024 0.86201 3.19526C0.736986 3.32029 0.666748 3.48986 0.666748 3.66667V12.3333C0.666748 12.5101 0.736986 12.6797 0.86201 12.8047C0.987034 12.9298 1.1566 13 1.33341 13C1.51023 13 1.6798 12.9298 1.80482 12.8047C1.92984 12.6797 2.00008 12.5101 2.00008 12.3333V10.3333H14.0001V12.3333C14.0001 12.5101 14.0703 12.6797 14.1953 12.8047C14.3204 12.9298 14.4899 13 14.6667 13C14.8436 13 15.0131 12.9298 15.1382 12.8047C15.2632 12.6797 15.3334 12.5101 15.3334 12.3333V6.33333C15.3334 5.8029 15.1227 5.29419 14.7476 4.91912C14.3726 4.54405 13.8638 4.33333 13.3334 4.33333ZM14.0001 9H8.66675V5.66667H13.3334C13.5102 5.66667 13.6798 5.7369 13.8048 5.86193C13.9298 5.98695 14.0001 6.15652 14.0001 6.33333V9Z" fill="#D3FB8F"/>
</g>
</svg>
