<svg width="24" height="24" viewBox="0 0 24 24" fill="none" xmlns="http://www.w3.org/2000/svg">
<path d="M19.8889 3.74684C19.1053 3.2582 18.1954 3 17.2583 3C15.3906 3 13.6256 4.02037 12.2889 5.87279L12.213 5.97812L12.137 5.87279C10.7984 4.02037 9.03283 3 7.16572 3C6.22866 3 5.31968 3.2582 4.53677 3.74684C2.14879 5.23127 0.795532 8.88985 3.46502 13.4127C3.73471 13.8477 6.26855 17.7661 12.1006 21.3174C12.1341 21.3388 12.1731 21.35 12.2127 21.35C12.2522 21.35 12.2912 21.3388 12.3263 21.3168C18.2809 17.6886 20.8537 13.58 20.9597 13.4082C23.6317 8.88825 22.2778 5.23159 19.8889 3.74684Z" fill="#EF6183"/>
</svg>
