<svg width="28" height="28" viewBox="0 0 28 28" fill="none" xmlns="http://www.w3.org/2000/svg">
<g id="link">
<path id="Vector" d="M14.5578 18.6705L9.87045 23.3579C9.30293 23.9056 8.54501 24.2117 7.7563 24.2117C6.96759 24.2117 6.20966 23.9056 5.64215 23.3579C5.36381 23.0806 5.14296 22.7511 4.99226 22.3883C4.84156 22.0255 4.76399 21.6366 4.76399 21.2437C4.76399 20.8509 4.84156 20.4619 4.99226 20.0991C5.14296 19.7363 5.36381 19.4068 5.64215 19.1296L10.3295 14.4422C10.557 14.2147 10.6848 13.9062 10.6848 13.5844C10.6848 13.2627 10.557 12.9542 10.3295 12.7267C10.102 12.4992 9.79349 12.3714 9.47178 12.3714C9.15006 12.3714 8.84152 12.4992 8.61404 12.7267L3.92666 17.4262C2.98237 18.454 2.47167 19.8069 2.50121 21.2023C2.53076 22.5978 3.09826 23.9279 4.0852 24.9148C5.07215 25.9017 6.40223 26.4692 7.79767 26.4988C9.19311 26.5283 10.546 26.0176 11.5738 25.0733L16.2733 20.386C16.5008 20.1585 16.6286 19.8499 16.6286 19.5282C16.6286 19.2065 16.5008 18.898 16.2733 18.6705C16.0458 18.443 15.7373 18.3152 15.4156 18.3152C15.0938 18.3152 14.7853 18.443 14.5578 18.6705ZM24.9232 4.07681C23.9069 3.06686 22.5324 2.5 21.0996 2.5C19.6668 2.5 18.2923 3.06686 17.276 4.07681L12.5766 8.76418C12.4639 8.87682 12.3746 9.01054 12.3136 9.15771C12.2526 9.30489 12.2213 9.46262 12.2213 9.62192C12.2213 9.78122 12.2526 9.93896 12.3136 10.0861C12.3746 10.2333 12.4639 10.367 12.5766 10.4797C12.6892 10.5923 12.8229 10.6817 12.9701 10.7426C13.1173 10.8036 13.275 10.8349 13.4343 10.8349C13.5936 10.8349 13.7513 10.8036 13.8985 10.7426C14.0457 10.6817 14.1794 10.5923 14.292 10.4797L18.9794 5.79229C19.5469 5.24457 20.3049 4.93848 21.0936 4.93848C21.8823 4.93848 22.6402 5.24457 23.2077 5.79229C23.486 6.06953 23.7069 6.399 23.8576 6.7618C24.0083 7.1246 24.0859 7.51359 24.0859 7.90644C24.0859 8.29929 24.0083 8.68828 23.8576 9.05108C23.7069 9.41388 23.486 9.74335 23.2077 10.0206L18.5203 14.708C18.4071 14.8203 18.3172 14.9539 18.2559 15.1011C18.1946 15.2483 18.163 15.4062 18.163 15.5657C18.163 15.7252 18.1946 15.8831 18.2559 16.0303C18.3172 16.1775 18.4071 16.3111 18.5203 16.4234C18.6326 16.5367 18.7663 16.6265 18.9135 16.6879C19.0607 16.7492 19.2186 16.7808 19.3781 16.7808C19.5376 16.7808 19.6955 16.7492 19.8427 16.6879C19.9899 16.6265 20.1235 16.5367 20.2358 16.4234L24.9232 11.724C25.9331 10.7077 26.5 9.33316 26.5 7.9004C26.5 6.46764 25.9331 5.09307 24.9232 4.07681ZM10.5953 18.4047C10.7082 18.5167 10.8421 18.6053 10.9892 18.6654C11.1364 18.7255 11.294 18.756 11.453 18.755C11.612 18.756 11.7696 18.7255 11.9168 18.6654C12.064 18.6053 12.1979 18.5167 12.3108 18.4047L18.2546 12.4609C18.482 12.2334 18.6098 11.9249 18.6098 11.6032C18.6098 11.2815 18.482 10.9729 18.2546 10.7454C18.0271 10.518 17.7185 10.3902 17.3968 10.3902C17.0751 10.3902 16.7666 10.518 16.5391 10.7454L10.5953 16.6892C10.4821 16.8015 10.3922 16.9351 10.3309 17.0824C10.2695 17.2296 10.2379 17.3875 10.2379 17.547C10.2379 17.7064 10.2695 17.8643 10.3309 18.0116C10.3922 18.1588 10.4821 18.2924 10.5953 18.4047Z" fill="white"/>
</g>
</svg>
