<svg width="28" height="28" viewBox="0 0 28 28" fill="none" xmlns="http://www.w3.org/2000/svg">
<g id="mail" clip-path="url(#clip0_643_3103)">
<g id="Group 7473">
<path id="Vector" d="M14.0001 12.3704L26.3237 4.45357C25.8282 4.08195 25.2266 3.87915 24.6072 3.875H3.39294C2.77362 3.87915 2.17197 4.08195 1.67651 4.45357L14.0001 12.3704Z" fill="white"/>
<path id="Vector_2" d="M14.5207 14.3278L14.3568 14.4049H14.2796C14.1909 14.4446 14.0966 14.4706 14 14.4821C13.92 14.4921 13.839 14.4921 13.7589 14.4821H13.6818L13.5179 14.4049L0.596428 6.0542C0.534693 6.28711 0.5023 6.52683 0.5 6.76777V20.2678C0.5 21.035 0.804782 21.7708 1.3473 22.3133C1.88981 22.8558 2.62562 23.1606 3.39286 23.1606H24.6071C25.3744 23.1606 26.1102 22.8558 26.6527 22.3133C27.1952 21.7708 27.5 21.035 27.5 20.2678V6.76777C27.4977 6.52683 27.4653 6.28711 27.4036 6.0542L14.5207 14.3278Z" fill="white"/>
</g>
</g>
<defs>
<clipPath id="clip0_643_3103">
<rect width="27" height="27" fill="white" transform="translate(0.5 0.5)"/>
</clipPath>
</defs>
</svg>
