<svg width="39" height="38" viewBox="0 0 39 38" fill="none" xmlns="http://www.w3.org/2000/svg">
<path d="M33.0925 27.5504C32.3053 26.1976 29.29 24.7903 26.3913 24.4232C24.6137 24.2162 22.2326 24.0031 19 24C15.7674 24.0038 13.3856 24.2162 11.6087 24.4232C8.70995 24.791 5.69472 26.1976 4.90748 27.5504C4.46383 28.3799 4.00822 29.491 4 31C4.00822 32.5082 4.46383 33.6201 4.90748 34.4496C5.69472 35.8024 8.70995 37.2097 11.6087 37.5768C13.3863 37.7838 15.7682 37.9969 19 38C22.2326 37.9962 24.6137 37.783 26.3913 37.5768C29.2908 37.2097 32.3053 35.8024 33.0925 34.4496C33.5354 33.6201 33.9918 32.509 34 31C33.9918 29.4918 33.5354 28.3799 33.0925 27.5504Z" fill="url(#paint0_radial_1461_3404)" fill-opacity="0.6"/>
<path d="M19.3511 18.0859C24.6292 21.8378 30.2375 23.7348 38.3335 20.3948C38.3809 20.375 38.4331 20.3694 38.4837 20.3786C38.5343 20.3878 38.5811 20.4115 38.6185 20.4468C38.6559 20.4821 38.6822 20.5275 38.6944 20.5775C38.7065 20.6274 38.7039 20.6798 38.6869 20.7284C36.1209 27.8342 23.9952 28.9956 19.3511 24.4867V18.0859Z" fill="url(#paint1_linear_1461_3404)"/>
<path d="M19.3508 18.0859C14.0727 21.8378 8.46437 23.7348 0.368438 20.3948C0.320988 20.375 0.26881 20.3694 0.218223 20.3786C0.167636 20.3878 0.120808 20.4115 0.0834112 20.4468C0.046014 20.4821 0.0196509 20.5275 0.00751393 20.5775C-0.00462302 20.6274 -0.0020132 20.6798 0.0150273 20.7284C2.58097 27.8342 14.7067 28.9956 19.3508 24.4867V18.0859Z" fill="url(#paint2_linear_1461_3404)"/>
<path d="M18.8612 21.3738C16.707 17.7525 19.4617 13.5507 23.1948 11.33C27.4346 8.80777 34.2 9.47162 36.8257 9.85584C36.9612 9.87562 37.0905 9.92539 37.2043 10.0015C37.3181 10.0776 37.4135 10.1782 37.4835 10.2959C37.5535 10.4135 37.5964 10.5453 37.6089 10.6817C37.6215 10.818 37.6035 10.9554 37.5563 11.0839C36.6408 13.5747 33.9955 19.8367 29.7556 22.3589C26.0225 24.5796 21.0154 24.995 18.8612 21.3738Z" fill="url(#paint3_linear_1461_3404)"/>
<path d="M19.8405 21.3738C21.9947 17.7525 19.24 13.5507 15.5069 11.33C11.2671 8.80777 4.50171 9.47162 1.87602 9.85584C1.74054 9.87562 1.61118 9.92539 1.49738 10.0015C1.38358 10.0776 1.2882 10.1782 1.2182 10.2959C1.1482 10.4135 1.10535 10.5453 1.09276 10.6817C1.08018 10.818 1.09818 10.9554 1.14545 11.0839C2.06091 13.5747 4.70625 19.8367 8.94612 22.3589C12.6792 24.5796 17.6863 24.995 19.8405 21.3738Z" fill="url(#paint4_linear_1461_3404)"/>
<path d="M19.1664 20.2018C15.7149 17.785 16.0369 14.3163 18.5283 10.7582C20.6247 7.7643 24.8999 6.56444 27.8589 5.32174C28.3947 5.09672 28.5449 3.72182 29.0019 3.57477C29.4278 3.43775 29.7966 3.3276 30.1156 3.23658C30.2473 3.19896 30.3856 3.1912 30.5207 3.21386C30.6557 3.23652 30.784 3.28903 30.8961 3.36757C31.0083 3.4461 31.1015 3.54867 31.169 3.6678C31.2364 3.78694 31.2765 3.91963 31.2862 4.0562C31.4746 6.70316 31.6349 13.4991 28.8053 17.5403C27.3085 19.6779 25.1248 21.41 22.8713 21.9285C22.3353 22.0519 22.1523 20.3544 21.6167 20.3295C20.6561 20.2847 20.0511 20.8213 19.1664 20.2018Z" fill="url(#paint5_linear_1461_3404)"/>
<path d="M29.0019 3.5752C26.0247 4.53106 20.7752 6.63536 18.2932 10.1801C15.8018 13.7382 15.0162 18.7007 18.4677 21.1175C19.8456 22.0823 21.3739 22.2735 22.8713 21.929C23.9484 21.0162 24.903 19.9681 25.7116 18.8107C28.7431 14.4812 29.1026 7.70387 29.0019 3.5752Z" fill="url(#paint6_linear_1461_3404)"/>
<path d="M20.2345 21.1169C23.686 18.7002 22.9004 13.7377 20.409 10.1795C17.5793 6.1383 11.1382 3.9646 8.58647 3.23641C8.45484 3.1989 8.31651 3.19122 8.18154 3.21392C8.04657 3.23662 7.91836 3.28914 7.80625 3.36764C7.69413 3.44614 7.60094 3.54866 7.53344 3.66773C7.46595 3.78679 7.42585 3.91941 7.41608 4.05593C7.22763 6.70278 7.06725 13.4989 9.89695 17.5401C12.3884 21.0983 16.7829 23.5337 20.2345 21.1169Z" fill="url(#paint7_linear_1461_3404)"/>
<path d="M23.0773 24.0073C22.815 27.0288 21.5132 29.5597 19.7292 30.7618C19.6173 30.8369 19.4857 30.8771 19.3509 30.8771C19.2162 30.8771 19.0845 30.8369 18.9727 30.7618C17.1886 29.5597 15.8868 27.0288 15.6245 24.0073C17.0832 23.8325 18.3988 23.2267 19.3509 22.0713C20.303 23.2267 21.6186 23.8325 23.0773 24.0073Z" fill="url(#paint8_linear_1461_3404)"/>
<path d="M19.351 20.026C17.478 20.026 17.3959 20.36 16.3344 18.9872C16.1126 18.7003 14.5154 19.228 14.3298 18.9029C13.4061 17.284 12.9346 15.2381 12.9346 13.2288C12.9346 8.29543 16.9639 2.82047 18.6365 0.760301C18.7228 0.653979 18.8317 0.568249 18.9553 0.509364C19.0789 0.450479 19.2141 0.419922 19.351 0.419922C19.4879 0.419922 19.6231 0.450479 19.7467 0.509364C19.8703 0.568249 19.9792 0.653979 20.0655 0.760301C20.4311 1.21072 20.9095 1.82435 21.4337 2.55987C21.6443 2.85533 21.3198 4.09775 21.5409 4.42987C23.2868 7.05255 24.3766 9.58517 24.3766 13.0067C24.3766 17.3503 23.5645 20.026 19.351 20.026Z" fill="url(#paint9_linear_1461_3404)"/>
<path d="M21.4335 2.55957C18.6925 6.22409 14.4883 12.8091 14.3296 18.9026C15.2124 20.4498 16.5083 21.6068 18.2008 21.9686C18.274 21.9842 18.575 21.7562 18.6497 21.7688C18.9474 21.8192 19.0665 21.7837 19.3876 21.7837C19.6489 21.7925 19.9105 21.7815 20.1702 21.7509C20.2831 21.7342 20.391 21.992 20.5006 21.9686C23.9642 21.2283 25.7671 17.1581 25.7671 13.2285C25.7671 9.37371 23.3071 5.18826 21.4335 2.55957Z" fill="url(#paint10_linear_1461_3404)"/>
<path d="M19.3511 22.0875C19.7376 22.0884 20.123 22.0485 20.5011 21.9684L23.1329 17.5419C23.1985 17.4316 23.2175 17.2998 23.1859 17.1754C23.1543 17.0511 23.0746 16.9444 22.9643 16.8788C22.854 16.8132 22.7222 16.7941 22.5978 16.8257C22.4735 16.8574 22.3668 16.9371 22.3012 17.0474L19.8349 21.1952V16.3695C19.8349 16.2412 19.784 16.1182 19.6932 16.0274C19.6025 15.9367 19.4795 15.8857 19.3511 15.8857C19.2228 15.8857 19.0998 15.9367 19.0091 16.0274C18.9183 16.1182 18.8673 16.2412 18.8673 16.3695V21.1952L16.4011 17.0474C16.3355 16.9371 16.2288 16.8574 16.1045 16.8257C15.9801 16.7941 15.8483 16.8132 15.738 16.8788C15.6277 16.9444 15.548 17.0511 15.5164 17.1754C15.4848 17.2998 15.5038 17.4316 15.5694 17.5419L18.2012 21.9683C18.5793 22.0485 18.9647 22.0884 19.3511 22.0875Z" fill="url(#paint11_linear_1461_3404)"/>
<defs>
<radialGradient id="paint0_radial_1461_3404" cx="0" cy="0" r="1" gradientUnits="userSpaceOnUse" gradientTransform="translate(19 30.9226) scale(15 6.9541)">
<stop stop-color="#C5ABFF" stop-opacity="0.6"/>
<stop offset="1" stop-color="#6F2EFE" stop-opacity="0"/>
</radialGradient>
<linearGradient id="paint1_linear_1461_3404" x1="29.0271" y1="31.4328" x2="29.0271" y2="17.882" gradientUnits="userSpaceOnUse">
<stop offset="0.001" stop-color="#D189F5"/>
<stop offset="0.999" stop-color="#F4BCFF"/>
</linearGradient>
<linearGradient id="paint2_linear_1461_3404" x1="9.67483" y1="31.4328" x2="9.67483" y2="17.882" gradientUnits="userSpaceOnUse">
<stop offset="0.001" stop-color="#D189F5"/>
<stop offset="0.999" stop-color="#F4BCFF"/>
</linearGradient>
<linearGradient id="paint3_linear_1461_3404" x1="27.8586" y1="23.9014" x2="27.8586" y2="9.64331" gradientUnits="userSpaceOnUse">
<stop offset="0.001" stop-color="#6B17EF"/>
<stop offset="1" stop-color="#8947E3"/>
</linearGradient>
<linearGradient id="paint4_linear_1461_3404" x1="10.8431" y1="23.9014" x2="10.8431" y2="9.64331" gradientUnits="userSpaceOnUse">
<stop offset="0.001" stop-color="#6B17EF"/>
<stop offset="1" stop-color="#8947E3"/>
</linearGradient>
<linearGradient id="paint5_linear_1461_3404" x1="23.9966" y1="23.6097" x2="23.9966" y2="2.82479" gradientUnits="userSpaceOnUse">
<stop stop-color="#9940EF"/>
<stop offset="0.999" stop-color="#E6A2ED"/>
</linearGradient>
<linearGradient id="paint6_linear_1461_3404" x1="22.5811" y1="22.7982" x2="22.5811" y2="0.703268" gradientUnits="userSpaceOnUse">
<stop stop-color="#9940EF"/>
<stop offset="0.999" stop-color="#E6A2ED"/>
</linearGradient>
<linearGradient id="paint7_linear_1461_3404" x1="14.9411" y1="23.7762" x2="14.9411" y2="2.8216" gradientUnits="userSpaceOnUse">
<stop stop-color="#9940EF"/>
<stop offset="0.999" stop-color="#E6A2ED"/>
</linearGradient>
<linearGradient id="paint8_linear_1461_3404" x1="19.3509" y1="20.6617" x2="19.3509" y2="37.6957" gradientUnits="userSpaceOnUse">
<stop stop-color="#9940EF"/>
<stop offset="0.999" stop-color="#E6A2ED"/>
</linearGradient>
<linearGradient id="paint9_linear_1461_3404" x1="18.6556" y1="23.5691" x2="18.6556" y2="-1.7217" gradientUnits="userSpaceOnUse">
<stop offset="0.001" stop-color="#D189F5"/>
<stop offset="0.999" stop-color="#F4BCFF"/>
</linearGradient>
<linearGradient id="paint10_linear_1461_3404" x1="20.0484" y1="21.8405" x2="20.0484" y2="7.04131" gradientUnits="userSpaceOnUse">
<stop offset="0.001" stop-color="#D189F5"/>
<stop offset="0.999" stop-color="#F4BCFF"/>
</linearGradient>
<linearGradient id="paint11_linear_1461_3404" x1="15.5014" y1="18.9866" x2="23.2009" y2="18.9866" gradientUnits="userSpaceOnUse">
<stop offset="0.001" stop-color="#6B17EF"/>
<stop offset="1" stop-color="#8947E3"/>
</linearGradient>
</defs>
</svg>
