<svg width="28" height="28" viewBox="0 0 28 28" fill="none" xmlns="http://www.w3.org/2000/svg">
<g id="Messenger" clip-path="url(#clip0_643_3062)">
<path id="Subtract" fill-rule="evenodd" clip-rule="evenodd" d="M0.5 13.5946C0.5 6.07197 6.39596 0.5 13.9996 0.5C21.6033 0.5 27.4993 6.07535 27.4993 13.598C27.4993 21.1207 21.6033 26.6927 13.9996 26.6927C12.6328 26.6927 11.3233 26.5104 10.0915 26.1729C9.85187 26.1088 9.59538 26.1257 9.36926 26.2269L6.68958 27.4081C6.52774 27.4795 6.35084 27.5101 6.17443 27.4971C5.99802 27.4841 5.8275 27.428 5.67786 27.3337C5.52822 27.2393 5.40403 27.1097 5.31622 26.9562C5.22841 26.8026 5.17965 26.6298 5.17425 26.453L5.1 24.0501C5.09325 23.7531 4.95825 23.4764 4.73888 23.2806C2.11321 20.9317 0.5 17.5298 0.5 13.5946ZM9.85861 11.1343L5.89309 17.4252C5.51173 18.0293 6.25421 18.7076 6.82119 18.2756L11.0803 15.0425C11.2205 14.936 11.3915 14.8781 11.5674 14.8775C11.7434 14.8769 11.9148 14.9336 12.0557 15.0391L15.2112 17.4049C15.435 17.573 15.6913 17.6929 15.9637 17.7569C16.2362 17.821 16.519 17.8279 16.7943 17.7771C17.0696 17.7264 17.3313 17.6191 17.5631 17.4621C17.7948 17.3051 17.9915 17.1018 18.1406 16.8649L22.1095 10.5775C22.4875 9.97336 21.745 9.29163 21.178 9.72362L16.9189 12.9568C16.7788 13.0632 16.6078 13.1211 16.4318 13.1217C16.2558 13.1223 16.0844 13.0656 15.9436 12.9602L12.788 10.5943C12.5642 10.4263 12.308 10.3064 12.0355 10.2423C11.763 10.1783 11.4802 10.1714 11.2049 10.2221C10.9297 10.2729 10.6679 10.3801 10.4362 10.5371C10.2044 10.6941 10.0078 10.8975 9.85861 11.1343Z" fill="white"/>
</g>
<defs>
<clipPath id="clip0_643_3062">
<rect width="27" height="27" fill="white" transform="translate(0.5 0.5)"/>
</clipPath>
</defs>
</svg>
