<svg width="28" height="28" viewBox="0 0 28 28" fill="none" xmlns="http://www.w3.org/2000/svg">
<g id="more_horiz">
<path id="Vector" d="M5.5 11.5C3.85 11.5 2.5 12.85 2.5 14.5C2.5 16.15 3.85 17.5 5.5 17.5C7.15 17.5 8.5 16.15 8.5 14.5C8.5 12.85 7.15 11.5 5.5 11.5ZM23.5 11.5C21.85 11.5 20.5 12.85 20.5 14.5C20.5 16.15 21.85 17.5 23.5 17.5C25.15 17.5 26.5 16.15 26.5 14.5C26.5 12.85 25.15 11.5 23.5 11.5ZM14.5 11.5C12.85 11.5 11.5 12.85 11.5 14.5C11.5 16.15 12.85 17.5 14.5 17.5C16.15 17.5 17.5 16.15 17.5 14.5C17.5 12.85 16.15 11.5 14.5 11.5Z" fill="white"/>
</g>
</svg>
