<svg width="75" height="75" viewBox="0 0 75 75" fill="none" xmlns="http://www.w3.org/2000/svg">
<rect width="75" height="75" rx="37.5" fill="#2A2C58"/>
<path d="M45.4514 26.7144C42.8873 25.6306 41.0781 23.2395 40.7323 20.473C40.6216 19.5916 39.8456 18.9484 38.959 19.0033C38.0723 19.0581 37.3817 19.7929 37.3817 20.6817V45.2892C36.3548 44.8306 35.154 44.567 33.872 44.567C30.0765 44.567 27 46.8727 27 49.7183C27 52.5639 30.0765 54.8696 33.872 54.8696C37.6674 54.8696 40.5394 52.7136 40.7334 49.9998C40.7397 49.9387 40.7439 49.8765 40.7439 49.8132V32.1251C42.6543 32.7872 46.9074 34.686 48.6891 38.8948C48.5922 39.287 48.4635 39.6771 48.3012 40.0609C47.9395 40.9159 48.3402 41.9027 49.1952 42.2644C50.0503 42.626 51.0371 42.2254 51.3987 41.3703C53.7994 35.6897 51.1309 29.1151 45.4503 26.7144H45.4514Z" fill="url(#paint0_linear_1461_3419)"/>
<path opacity="0.5" d="M53.8134 51.2423C52.8443 49.6259 49.1324 47.9443 45.5641 47.5057C43.3758 47.2584 40.4446 47.0037 36.4652 47C32.4859 47.0046 29.5538 47.2584 27.3664 47.5057C23.798 47.9452 20.0862 49.6259 19.1171 51.2423C18.571 52.2335 18.0101 53.5612 18 55.3642C18.0101 57.1663 18.571 58.4949 19.1171 59.4861C20.0862 61.1025 23.798 62.7841 27.3664 63.2227C29.5547 63.47 32.4868 63.7247 36.4652 63.7284C40.4446 63.7238 43.3758 63.4691 45.5641 63.2227C49.1334 62.7841 52.8443 61.1025 53.8134 59.4861C54.3586 58.4949 54.9204 57.1672 54.9305 55.3642C54.9204 53.5621 54.3586 52.2335 53.8134 51.2423Z" fill="url(#paint1_radial_1461_3419)" fill-opacity="0.8"/>
<defs>
<linearGradient id="paint0_linear_1461_3419" x1="52" y1="55" x2="29.5" y2="23.5" gradientUnits="userSpaceOnUse">
<stop stop-color="#C3DFFF"/>
<stop offset="0.306021" stop-color="#499FFF"/>
<stop offset="0.544225" stop-color="#3796FF"/>
<stop offset="1" stop-color="#C3DFFF"/>
</linearGradient>
<radialGradient id="paint1_radial_1461_3419" cx="0" cy="0" r="1" gradientUnits="userSpaceOnUse" gradientTransform="translate(36.4652 55.2717) scale(28.4652 12.8093)">
<stop stop-color="#3796FF"/>
<stop offset="0.59299" stop-color="#6F2EFE" stop-opacity="0"/>
</radialGradient>
</defs>
</svg>
