<svg width="29" height="29" viewBox="0 0 29 29" fill="none" xmlns="http://www.w3.org/2000/svg">
<g id="pause-button">
<g id="Group 7592">
<path id="Vector" d="M20.4498 25C19.6146 24.9992 18.8139 24.667 18.2233 24.0765C17.6328 23.4859 17.3006 22.6852 17.2998 21.85V7.15C17.2998 6.31457 17.6317 5.51335 18.2224 4.92261C18.8132 4.33187 19.6144 4 20.4498 4C21.2852 4 22.0865 4.33187 22.6772 4.92261C23.2679 5.51335 23.5998 6.31457 23.5998 7.15V21.85C23.599 22.6852 23.2668 23.4859 22.6763 24.0765C22.0857 24.667 21.285 24.9992 20.4498 25Z" fill="#D3FB8F"/>
<path id="Vector_2" d="M6.92353 24.0765C7.51409 24.667 8.31482 24.9992 9.15 25C9.98518 24.9992 10.7859 24.667 11.3765 24.0765C11.967 23.4859 12.2992 22.6852 12.3 21.85V7.15C12.3 6.31457 11.9681 5.51335 11.3774 4.92261C10.7866 4.33187 9.98543 4 9.15 4C8.31457 4 7.51335 4.33187 6.92261 4.92261C6.33187 5.51335 6 6.31457 6 7.15V21.85C6.00083 22.6852 6.33298 23.4859 6.92353 24.0765Z" fill="#D3FB8F"/>
</g>
</g>
</svg>
