<svg width="42" height="42" viewBox="0 0 42 42" fill="none" xmlns="http://www.w3.org/2000/svg">
<path fill-rule="evenodd" clip-rule="evenodd" d="M0 21C0 9.40202 9.40202 0 21 0C32.598 0 42 9.40202 42 21C42 32.598 32.598 42 21 42C9.40202 42 0 32.598 0 21ZM17.5 14C18.3284 14 19 14.6716 19 15.5V27C19 27.8284 18.3284 28.5 17.5 28.5C16.6716 28.5 16 27.8284 16 27V15.5C16 14.6716 16.6716 14 17.5 14ZM27.5 15.5C27.5 14.6716 26.8284 14 26 14C25.1716 14 24.5 14.6716 24.5 15.5V27C24.5 27.8284 25.1716 28.5 26 28.5C26.8284 28.5 27.5 27.8284 27.5 27V15.5Z" fill="url(#paint0_linear_463_60432)"/>
<defs>
<linearGradient id="paint0_linear_463_60432" x1="-1.05" y1="5.95" x2="51.1" y2="43.75" gradientUnits="userSpaceOnUse">
<stop stop-color="#F0FFD6"/>
<stop offset="0.230878" stop-color="#E1FFAD"/>
<stop offset="0.646761" stop-color="#BFFF52"/>
<stop offset="1" stop-color="#7D9555"/>
</linearGradient>
</defs>
</svg>
