<svg width="25" height="24" viewBox="0 0 25 24" fill="none" xmlns="http://www.w3.org/2000/svg">
<path d="M14.0388 19.5C13.2971 19.5 12.5721 19.2801 11.9554 18.868C11.3387 18.456 10.8581 17.8703 10.5743 17.1851C10.2904 16.4998 10.2162 15.7458 10.3609 15.0184C10.5056 14.291 10.8627 13.6228 11.3872 13.0984C11.9116 12.5739 12.5798 12.2168 13.3072 12.0721C14.0347 11.9274 14.7887 12.0016 15.4739 12.2855C16.1591 12.5693 16.7448 13.0499 17.1568 13.6666C17.5689 14.2833 17.7888 15.0083 17.7888 15.75C17.7876 16.7442 17.3922 17.6973 16.6892 18.4003C15.9862 19.1033 15.033 19.4988 14.0388 19.5ZM14.0388 13.5C13.5938 13.5 13.1588 13.632 12.7888 13.8792C12.4188 14.1264 12.1304 14.4778 11.9601 14.889C11.7898 15.3001 11.7452 15.7525 11.8321 16.189C11.9189 16.6254 12.1332 17.0263 12.4478 17.341C12.7625 17.6557 13.1634 17.87 13.5999 17.9568C14.0363 18.0436 14.4887 17.999 14.8999 17.8287C15.311 17.6584 15.6624 17.37 15.9096 17C16.1569 16.63 16.2888 16.195 16.2888 15.75C16.2888 15.1533 16.0518 14.581 15.6298 14.159C15.2079 13.7371 14.6356 13.5 14.0388 13.5Z" fill="white"/>
<path d="M17.0388 16.5C16.8399 16.5 16.6491 16.421 16.5085 16.2803C16.3678 16.1397 16.2888 15.9489 16.2888 15.75V5.25C16.2888 5.05109 16.3678 4.86032 16.5085 4.71967C16.6491 4.57902 16.8399 4.5 17.0388 4.5H18.5388C20.8871 4.5 22.2888 5.625 22.2888 7.5C22.2888 7.69891 22.2098 7.88968 22.0691 8.03033C21.9285 8.17098 21.7377 8.25 21.5388 8.25C21.3399 8.25 21.1491 8.17098 21.0085 8.03033C20.8678 7.88968 20.7888 7.69891 20.7888 7.5C20.7888 7.12875 20.7888 6 18.5388 6H17.7888V15.75C17.7888 15.9489 17.7098 16.1397 17.5691 16.2803C17.4285 16.421 17.2377 16.5 17.0388 16.5ZM12.5388 7.5H3.53882C3.33991 7.5 3.14914 7.42098 3.00849 7.28033C2.86784 7.13968 2.78882 6.94891 2.78882 6.75C2.78882 6.55109 2.86784 6.36032 3.00849 6.21967C3.14914 6.07902 3.33991 6 3.53882 6H12.5388C12.7377 6 12.9285 6.07902 13.0691 6.21967C13.2098 6.36032 13.2888 6.55109 13.2888 6.75C13.2888 6.94891 13.2098 7.13968 13.0691 7.28033C12.9285 7.42098 12.7377 7.5 12.5388 7.5ZM12.5388 11.25H3.53882C3.33991 11.25 3.14914 11.171 3.00849 11.0303C2.86784 10.8897 2.78882 10.6989 2.78882 10.5C2.78882 10.3011 2.86784 10.1103 3.00849 9.96967C3.14914 9.82902 3.33991 9.75 3.53882 9.75H12.5388C12.7377 9.75 12.9285 9.82902 13.0691 9.96967C13.2098 10.1103 13.2888 10.3011 13.2888 10.5C13.2888 10.6989 13.2098 10.8897 13.0691 11.0303C12.9285 11.171 12.7377 11.25 12.5388 11.25ZM8.03882 15H3.53882C3.33991 15 3.14914 14.921 3.00849 14.7803C2.86784 14.6397 2.78882 14.4489 2.78882 14.25C2.78882 14.0511 2.86784 13.8603 3.00849 13.7197C3.14914 13.579 3.33991 13.5 3.53882 13.5H8.03882C8.23773 13.5 8.4285 13.579 8.56915 13.7197C8.7098 13.8603 8.78882 14.0511 8.78882 14.25C8.78882 14.4489 8.7098 14.6397 8.56915 14.7803C8.4285 14.921 8.23773 15 8.03882 15ZM8.03882 18.75H3.53882C3.33991 18.75 3.14914 18.671 3.00849 18.5303C2.86784 18.3897 2.78882 18.1989 2.78882 18C2.78882 17.8011 2.86784 17.6103 3.00849 17.4697C3.14914 17.329 3.33991 17.25 3.53882 17.25H8.03882C8.23773 17.25 8.4285 17.329 8.56915 17.4697C8.7098 17.6103 8.78882 17.8011 8.78882 18C8.78882 18.1989 8.7098 18.3897 8.56915 18.5303C8.4285 18.671 8.23773 18.75 8.03882 18.75Z" fill="white"/>
</svg>
