<svg width="32" height="29" viewBox="0 0 32 29" fill="none" xmlns="http://www.w3.org/2000/svg">
<path d="M0.000920985 8.8276C0.000920985 7.84972 0.793719 7.05692 1.7716 7.05692H16.9812C17.9591 7.05692 18.7519 7.84972 18.7519 8.8276C18.7519 9.80547 17.9591 10.5983 16.9812 10.5983H1.7716C0.793719 10.5983 0.000920985 9.80547 0.000920985 8.8276ZM1.7716 3.54135H25.1522C26.1301 3.54135 26.9229 2.74855 26.9229 1.77068C26.9229 0.792799 26.1301 0 25.1522 0H1.7716C0.793719 0 0.000920985 0.792799 0.000920985 1.77068C0.000920985 2.74855 0.793719 3.54135 1.7716 3.54135ZM11.0108 21.1708H1.77068C0.792799 21.1708 0 21.9636 0 22.9414C0 23.9193 0.792799 24.7121 1.77068 24.7121H11.0108C11.9887 24.7121 12.7815 23.9193 12.7815 22.9414C12.7815 21.9636 11.9887 21.1708 11.0108 21.1708ZM1.7716 17.6552H16.9812C17.9591 17.6552 18.7519 16.8624 18.7519 15.8845C18.7519 14.9066 17.9591 14.1138 16.9812 14.1138H1.7716C0.793719 14.1138 0.000920985 14.9066 0.000920985 15.8845C0.000920985 16.8624 0.793719 17.6552 1.7716 17.6552Z" fill="url(#paint0_linear_1461_3429)"/>
<path d="M26.7857 9.80589C25.3078 9.18159 24.2655 7.80318 24.0666 6.20837C23.9709 5.44043 23.295 4.88059 22.5215 4.92755C21.749 4.97543 21.1477 5.6163 21.1477 6.38977V21.5238C20.5676 21.3378 19.9286 21.2356 19.2573 21.2356C16.5953 21.2356 14.437 22.8535 14.437 24.8488C14.437 26.8442 16.5953 28.462 19.2573 28.462C21.9193 28.462 23.9322 26.951 24.0703 25.0477C24.0703 25.0459 24.0703 25.044 24.0703 25.0431C24.0703 25.0385 24.0703 25.0348 24.0712 25.0302C24.0749 24.986 24.0777 24.9409 24.0777 24.8958V13.9725C25.2922 14.4964 27.2737 15.6999 28.1319 18.1823C28.1043 18.2596 28.0748 18.3361 28.0426 18.4125C27.7277 19.1583 28.0766 20.0174 28.8216 20.3323C29.5665 20.6472 30.4265 20.2983 30.7414 19.5534C32.3381 15.7754 30.5628 11.4035 26.7857 9.80773V9.80589Z" fill="url(#paint1_linear_1461_3429)"/>
<defs>
<linearGradient id="paint0_linear_1461_3429" x1="17.4579" y1="24.6965" x2="-1.2774" y2="-2.55481" gradientUnits="userSpaceOnUse">
<stop stop-color="#F1F451"/>
<stop offset="1" stop-color="white"/>
</linearGradient>
<linearGradient id="paint1_linear_1461_3429" x1="37.8962" y1="35.3417" x2="14.4771" y2="5.10984" gradientUnits="userSpaceOnUse">
<stop offset="0.095" stop-color="#FEFFD9"/>
<stop offset="0.45" stop-color="#C6C940"/>
<stop offset="0.8" stop-color="#FEFFD9"/>
</linearGradient>
</defs>
</svg>
