<svg width="75" height="75" viewBox="0 0 75 75" fill="none" xmlns="http://www.w3.org/2000/svg">
<g id="Group 7552">
<rect id="Rectangle 842" width="75" height="75" rx="37.5" fill="#2A2C58"/>
<g id="Group 7551">
<path id="Vector" d="M59.548 47.5792C58.2885 45.4534 53.4641 43.2418 48.8261 42.6651C45.9819 42.3398 42.1721 42.0048 37 42C31.8279 42.006 28.0169 42.3398 25.1739 42.6651C20.5359 43.243 15.7115 45.4534 14.452 47.5792C13.7421 48.8827 13.0131 50.6288 13 53C13.0131 55.37 13.7421 57.1173 14.452 58.4208C15.7115 60.5466 20.5359 62.7582 25.1739 63.3349C28.0181 63.6602 31.8291 63.9952 37 64C42.1721 63.994 45.9819 63.659 48.8261 63.3349C53.4653 62.7582 58.2885 60.5466 59.548 58.4208C60.2567 57.1173 60.9869 55.3712 61 53C60.9869 50.63 60.2567 48.8827 59.548 47.5792Z" fill="url(#paint0_radial_1833_2264)" fill-opacity="0.5"/>
<g id="Group">
<path id="Vector_2" d="M26.3482 37.0773C26.3431 36.5932 26.408 24.3136 26.4602 24.0517C26.5435 23.6206 26.9375 23.2047 27.3669 23.1096C27.6279 23.0557 27.9824 23.0018 28.4673 23.001C28.9514 23.001 29.3067 23.0549 29.5677 23.1096C29.9971 23.2047 30.3912 23.6215 30.4745 24.0517C30.5267 24.3144 30.5915 36.5932 30.5865 37.0773C30.5915 37.5614 30.5267 50.3328 30.4745 50.5955C30.3912 51.0265 29.9971 51.4425 29.5677 51.5376C29.3067 51.5915 28.9523 51.6454 28.4673 51.6462C27.9832 51.6462 27.6279 51.5923 27.3669 51.5376C26.9375 51.4425 26.5435 51.0257 26.4602 50.5955C26.408 50.3328 26.3431 37.5623 26.3482 37.0773Z" fill="url(#paint1_linear_1833_2264)"/>
<path id="Vector_3" d="M43.7376 37.0773C43.7325 36.5932 43.7974 24.3136 43.8496 24.0517C43.9329 23.6206 44.3269 23.2047 44.7563 23.1096C45.0173 23.0557 45.3718 23.0018 45.8567 23.001C46.3409 23.001 46.6962 23.0549 46.9572 23.1096C47.3865 23.2047 47.7806 23.6215 47.8639 24.0517C47.9161 24.3144 47.9809 36.5932 47.9759 37.0773C47.9809 37.5614 47.9161 50.3328 47.8639 50.5955C47.7806 51.0265 47.3865 51.4425 46.9572 51.5376C46.6962 51.5915 46.3417 51.6454 45.8567 51.6462C45.3726 51.6462 45.0173 51.5923 44.7563 51.5376C44.3269 51.4425 43.9329 51.0257 43.8496 50.5955C43.7974 50.3328 43.7325 37.5623 43.7376 37.0773Z" fill="url(#paint2_linear_1833_2264)"/>
<path id="Vector_4" d="M39.2701 37.5689C39.2751 38.053 39.2103 50.3326 39.1581 50.5945C39.0748 51.0256 38.6807 51.4415 38.2513 51.5366C37.9903 51.5905 37.6359 51.6444 37.1509 51.6452C36.6668 51.6452 36.3115 51.5913 36.0505 51.5366C35.6211 51.4415 35.2271 51.0247 35.1437 50.5945C35.0915 50.3318 35.0267 38.053 35.0318 37.5689C35.0267 37.0848 35.0915 24.3134 35.1437 24.0507C35.2271 23.6197 35.6211 23.2037 36.0505 23.1086C36.3115 23.0547 36.666 23.0008 37.1509 23C37.635 23 37.9903 23.0539 38.2513 23.1086C38.6807 23.2037 39.0748 23.6205 39.1581 24.0507C39.2103 24.3134 39.2751 37.0839 39.2701 37.5689Z" fill="url(#paint3_linear_1833_2264)"/>
<path id="Vector_5" d="M28.448 26.5044C25.9912 26.5044 24 28.4956 24 30.9523C24 33.4091 25.9912 35.4003 28.448 35.4003C30.9047 35.4003 32.8959 33.4091 32.8959 30.9523C32.8959 28.4956 30.9047 26.5044 28.448 26.5044Z" fill="url(#paint4_radial_1833_2264)"/>
<path id="Vector_6" d="M37.1521 48.142C39.6088 48.142 41.6 46.1508 41.6 43.694C41.6 41.2373 39.6088 39.2461 37.1521 39.2461C34.6953 39.2461 32.7041 41.2373 32.7041 43.694C32.7041 46.1508 34.6953 48.142 37.1521 48.142Z" fill="url(#paint5_radial_1833_2264)"/>
<path id="Vector_7" d="M45.8371 26.5044C43.3803 26.5044 41.3892 28.4956 41.3892 30.9523C41.3892 33.4091 43.3803 35.4003 45.8371 35.4003C48.2939 35.4003 50.2851 33.4091 50.2851 30.9523C50.2851 28.4956 48.2939 26.5044 45.8371 26.5044Z" fill="url(#paint6_radial_1833_2264)"/>
</g>
</g>
</g>
<defs>
<radialGradient id="paint0_radial_1833_2264" cx="0" cy="0" r="1" gradientUnits="userSpaceOnUse" gradientTransform="translate(36.9988 52.3385) scale(24 10.9279)">
<stop stop-color="#B6E7F9" stop-opacity="0.6"/>
<stop offset="0.54" stop-color="#1EB4EB" stop-opacity="0"/>
</radialGradient>
<linearGradient id="paint1_linear_1833_2264" x1="28.4932" y1="43.2374" x2="22.9928" y2="42.2802" gradientUnits="userSpaceOnUse">
<stop stop-color="#4FD8FF"/>
<stop offset="1" stop-color="#EDEDED"/>
</linearGradient>
<linearGradient id="paint2_linear_1833_2264" x1="45.8826" y1="43.2374" x2="40.3822" y2="42.2802" gradientUnits="userSpaceOnUse">
<stop stop-color="#4FD8FF"/>
<stop offset="1" stop-color="#EDEDED"/>
</linearGradient>
<linearGradient id="paint3_linear_1833_2264" x1="37.1768" y1="43.2364" x2="31.6764" y2="42.2792" gradientUnits="userSpaceOnUse">
<stop stop-color="#4FD8FF"/>
<stop offset="1" stop-color="#EDEDED"/>
</linearGradient>
<radialGradient id="paint4_radial_1833_2264" cx="0" cy="0" r="1" gradientUnits="userSpaceOnUse" gradientTransform="translate(26.5048 29.09) scale(12.9406 12.9406)">
<stop stop-color="#92F4FE"/>
<stop offset="0.46" stop-color="#1EB4EB"/>
<stop offset="1" stop-color="#1EB4EB"/>
</radialGradient>
<radialGradient id="paint5_radial_1833_2264" cx="0" cy="0" r="1" gradientUnits="userSpaceOnUse" gradientTransform="translate(34.6507 41.4073) scale(11.7332)">
<stop stop-color="#92F4FE"/>
<stop offset="0.46" stop-color="#1EB4EB"/>
<stop offset="1" stop-color="#1EB4EB"/>
</radialGradient>
<radialGradient id="paint6_radial_1833_2264" cx="0" cy="0" r="1" gradientUnits="userSpaceOnUse" gradientTransform="translate(43.6531 28.6993) scale(12.6703)">
<stop stop-color="#92F4FE"/>
<stop offset="0.46" stop-color="#1EB4EB"/>
<stop offset="1" stop-color="#1EB4EB"/>
</radialGradient>
</defs>
</svg>
