<svg width="28" height="28" viewBox="0 0 28 28" fill="none" xmlns="http://www.w3.org/2000/svg">
<g id="Whatsapp" clip-path="url(#clip0_643_3109)">
<g id="Subtract">
<path d="M0.5 27.5L2.43719 20.3035C0.874894 17.5001 0.378538 14.2287 1.0392 11.0897C1.69986 7.95074 3.47323 5.15467 6.03389 3.21461C8.59454 1.27454 11.7707 0.320613 14.9796 0.52787C18.1885 0.735127 21.2148 2.08967 23.5032 4.34293C25.7916 6.59619 27.1887 9.59703 27.438 12.7948C27.6873 15.9925 26.7721 19.1727 24.8604 21.7518C22.9487 24.3308 20.1686 26.1357 17.0305 26.8352C13.8923 27.5348 10.6064 27.082 7.7759 25.5601L0.5 27.5ZM8.12673 22.8671L8.5767 23.1334C10.6269 24.3455 13.0216 24.8471 15.3874 24.56C17.7533 24.2729 19.9575 23.2133 21.6565 21.5462C23.3556 19.8791 24.454 17.6982 24.7807 15.3434C25.1074 12.9886 24.6439 10.5921 23.4626 8.52747C22.2812 6.46281 20.4483 4.84594 18.2495 3.92882C16.0507 3.0117 13.6095 2.84584 11.3063 3.4571C9.00317 4.06836 6.9674 5.42239 5.51628 7.3082C4.06517 9.194 3.28022 11.5056 3.28376 13.8829C3.28183 15.854 3.82835 17.787 4.86249 19.4667L5.14468 19.9307L4.06168 23.9474L8.12673 22.8671Z" fill="white"/>
<path fill-rule="evenodd" clip-rule="evenodd" d="M19.048 15.7308C18.7842 15.5186 18.4753 15.3692 18.1449 15.294C17.8145 15.2189 17.4712 15.22 17.1413 15.2972C16.6456 15.5026 16.3252 16.2785 16.0049 16.6665C15.9374 16.7595 15.8381 16.8247 15.7258 16.8499C15.6135 16.8751 15.4958 16.8586 15.3948 16.8034C13.5799 16.0944 12.0586 14.7941 11.0781 13.1139C10.9944 13.009 10.9548 12.8759 10.9676 12.7425C10.9804 12.6091 11.0446 12.4859 11.1467 12.3988C11.504 12.046 11.7663 11.609 11.9094 11.1283C11.9411 10.5981 11.8194 10.07 11.5585 9.60688C11.3569 8.95763 10.9732 8.37953 10.4527 7.94087C10.1842 7.82044 9.88654 7.78005 9.59558 7.8246C9.30463 7.86914 9.03281 7.99671 8.81292 8.19191C8.43118 8.52043 8.12817 8.93017 7.92623 9.39097C7.72428 9.85177 7.62853 10.3519 7.64603 10.8545C7.64721 11.1367 7.68307 11.4177 7.7528 11.6913C7.9299 12.3485 8.20225 12.9764 8.56124 13.5551C8.82024 13.9984 9.10283 14.4275 9.4078 14.8407C10.3989 16.1978 11.6448 17.3501 13.0763 18.2336C13.7946 18.6825 14.5623 19.0475 15.3643 19.3214C16.1974 19.6981 17.1172 19.8427 18.026 19.7398C18.5438 19.6617 19.0345 19.4577 19.4547 19.146C19.875 18.8343 20.212 18.4243 20.436 17.9521C20.5677 17.6669 20.6077 17.348 20.5505 17.0392C20.4132 16.4078 19.5666 16.0351 19.048 15.7308Z" fill="white"/>
</g>
</g>
<defs>
<clipPath id="clip0_643_3109">
<rect width="27" height="27" fill="white" transform="translate(0.5 0.5)"/>
</clipPath>
</defs>
</svg>
