<svg width="32" height="29" viewBox="0 0 32 29" fill="none" xmlns="http://www.w3.org/2000/svg">
<path d="M20.6671 7.24023C21.5213 8.24267 22.5358 9.97892 21.9784 12.0225C21.9784 12.0225 21.3707 13.5417 21.4466 14.2254C21.5226 14.9091 23.6496 16.96 23.5736 17.2639C23.4976 17.5678 21.7505 17.7197 21.7505 18.0235C21.7505 18.3274 22.3481 19.5938 22.3481 19.5938L21.4464 19.7787C20.7388 19.9239 20.5113 20.8217 21.0643 21.2863L21.7133 21.8315C21.7133 21.8315 20.9908 22.1255 20.9908 22.4294C20.9908 22.7332 21.1427 24.5563 20.6869 24.7082C20.2311 24.8602 14.6099 24.0245 13.0146 23.6447M15.6016 24.1214C15.6016 24.1214 14.854 25.4666 14.4201 27.4849" stroke="#DCDCDC" stroke-width="0.6" stroke-miterlimit="10" stroke-linecap="round" stroke-linejoin="round"/>
<path d="M4.54914 26.1798L6.1022 21.9737C6.1022 21.9737 -0.278671 17.112 1.31658 9.66773C1.42433 9.16498 1.56577 8.67911 1.73714 8.21186C1.73714 8.21186 4.28389 0.142295 13.5069 1.04048C19.7966 1.65298 23.0157 5.56361 23.9673 9.37017M19.1565 5.55942C19.1565 5.55942 19.7665 12.7437 12.3111 14.4382" stroke="#DCDCDC" stroke-width="0.6" stroke-miterlimit="10" stroke-linecap="round" stroke-linejoin="round"/>
<path d="M10.5928 17.5547C9.65215 17.5547 8.88965 16.7921 8.88965 15.8515V14.2618C8.88965 13.3211 9.65221 12.5586 10.5928 12.5586C11.5335 12.5586 12.296 13.3212 12.296 14.2618" stroke="#DCDCDC" stroke-width="0.6" stroke-miterlimit="10" stroke-linecap="round" stroke-linejoin="round"/>
<path d="M21.1748 23.5177L21.6619 24.1327C22.0497 24.6222 22.2104 25.254 22.1035 25.8694L21.7826 27.7167M25.0794 22.9253C25.3287 21.4902 24.3773 20.5247 23.5761 19.9818M23.4362 14.4958L23.9274 11.6561C24.0121 11.1684 24.4762 10.8417 24.9639 10.9265C25.4516 11.0112 25.7782 11.4752 25.6935 11.9629L24.9316 16.3991" stroke="#DCDCDC" stroke-width="0.6" stroke-miterlimit="10" stroke-linecap="round" stroke-linejoin="round"/>
<path d="M24.9316 16.3993L25.7925 11.3934C25.8772 10.9057 26.3413 10.579 26.829 10.6638C27.3166 10.7485 27.6433 11.2125 27.5586 11.7002L26.3996 17.7417" stroke="#DCDCDC" stroke-width="0.6" stroke-miterlimit="10" stroke-linecap="round" stroke-linejoin="round"/>
<path d="M26.3994 17.7415L27.5584 11.7C27.643 11.2123 28.1071 10.8857 28.5948 10.9704C29.0825 11.0551 29.4092 11.5192 29.3244 12.0068L28.2621 17.9625" stroke="#DCDCDC" stroke-width="0.6" stroke-miterlimit="10" stroke-linecap="round" stroke-linejoin="round"/>
<path d="M28.1268 18.7099L29.1536 12.9935C29.2319 12.5428 29.6907 12.2461 30.1784 12.3309C30.6661 12.4155 30.9979 12.8496 30.9197 13.3003L29.2384 22.9787C29.0968 23.7938 28.6108 24.5084 27.9046 24.9395L27.5526 25.1544C27.0138 25.4833 26.6428 26.0285 26.5348 26.6505L26.2158 28.4864" stroke="#DCDCDC" stroke-width="0.6" stroke-miterlimit="10" stroke-linecap="round" stroke-linejoin="round"/>
</svg>
